<svg width="136" height="111" viewBox="0 0 136 111" fill="none" xmlns="http://www.w3.org/2000/svg">
<g clip-path="url(#clip0_1380_952)">
<path d="M8.8418 0.5H113.158C117.811 0.500041 121.5 3.91926 121.5 8.03906V69.9609C121.5 74.0807 117.811 77.5 113.158 77.5H8.8418C4.18888 77.5 0.5 74.0807 0.5 69.9609V8.03906C0.5 3.91926 4.18888 0.50004 8.8418 0.5Z" fill="url(#paint0_linear_1380_952)" stroke="url(#paint1_linear_1380_952)" stroke-miterlimit="10"/>
<path d="M8.26172 0.5H105.738C110.038 0.500192 113.5 3.88844 113.5 8.03906V69.9609C113.5 74.1116 110.038 77.4998 105.738 77.5H8.26172C3.96201 77.4998 0.5 74.1116 0.5 69.9609V8.03906C0.5 4.01809 3.7491 0.712502 7.86133 0.509766L8.26172 0.5Z" fill="url(#paint2_linear_1380_952)" stroke="url(#paint3_linear_1380_952)" stroke-miterlimit="10"/>
<path d="M69.1289 18V39.8713H91C89.7961 49.5275 81.5586 57 71.5759 57C60.7646 57 52 48.2355 52 37.4244C52 27.4413 59.4721 19.2039 69.1289 18Z" fill="url(#paint4_linear_1380_952)" stroke="url(#paint5_linear_1380_952)" stroke-miterlimit="10"/>
<path d="M74.0229 18V34.9774H91.0001C89.8965 26.1224 82.8781 19.1041 74.0229 18Z" fill="url(#paint6_linear_1380_952)" stroke="url(#paint7_linear_1380_952)" stroke-miterlimit="10"/>
<path d="M26.6266 38.2079C26.6266 37.041 27.6695 36.6219 28.8372 36.6219C30.0049 36.6219 31.2516 36.9844 31.2516 36.9844L32 32.5438C32 32.5438 30.413 32 26.6266 32C24.3028 32 22.9537 32.8834 21.9674 34.1863C21.0377 35.421 21.0039 37.4035 21.0039 38.6835V41.5948H18V45.9336H21.0039V61H26.6266V45.9336H31.0815L31.4102 41.5948H26.6266V38.2075V38.2079Z" fill="url(#paint8_linear_1380_952)" stroke="url(#paint9_linear_1380_952)" stroke-miterlimit="10"/>
<path d="M12.5586 8.5C14.4341 8.5 15.9551 10.0195 15.9551 11.8945C15.955 13.7695 14.4341 15.2891 12.5586 15.2891C10.6832 15.289 9.1622 13.7694 9.16211 11.8945C9.16211 10.0196 10.6831 8.50009 12.5586 8.5Z" fill="url(#paint10_linear_1380_952)" stroke="url(#paint11_linear_1380_952)" stroke-miterlimit="10"/>
<path d="M21.8965 8.5C23.772 8.5 25.293 10.0195 25.293 11.8945C25.2929 13.7695 23.772 15.2891 21.8965 15.2891C20.0211 15.289 18.5001 13.7694 18.5 11.8945C18.5 10.0196 20.021 8.50009 21.8965 8.5Z" fill="url(#paint12_linear_1380_952)" stroke="url(#paint13_linear_1380_952)" stroke-miterlimit="10"/>
<path d="M31.8965 8.5C33.772 8.5 35.293 10.0195 35.293 11.8945C35.2929 13.7695 33.772 15.2891 31.8965 15.2891C30.0211 15.289 28.5001 13.7694 28.5 11.8945C28.5 10.0196 30.021 8.50009 31.8965 8.5Z" fill="url(#paint14_linear_1380_952)" stroke="url(#paint15_linear_1380_952)" stroke-miterlimit="10"/>
<circle cx="93" cy="67" r="30" fill="url(#paint16_linear_1380_952)" stroke="url(#paint17_linear_1380_952)" stroke-miterlimit="10"/>
<path d="M89.1185 65.3156C89.9172 65.1605 90.6986 64.8508 91.4135 64.3864C93.6601 62.9329 94.7819 60.2985 94.2661 57.6736L92.0973 46.583L86.7823 47.6254L88.9511 58.7159C89.1559 59.7704 89.7366 60.713 90.5819 61.3748L91.1565 61.8256C91.4023 62.1687 90.9748 62.5875 90.635 62.3393L86.0938 58.9961L86.0753 58.9836L78.0125 53.2778L74.88 57.698L84.118 64.2358C85.607 65.2911 87.4087 65.6519 89.1189 65.3153L89.1185 65.3156Z" fill="url(#paint18_linear_1380_952)" stroke="url(#paint19_linear_1380_952)" stroke-miterlimit="10"/>
<path d="M100.009 64.5676L99.5578 65.1423C99.2144 65.3883 98.7958 64.9612 99.0444 64.6213L102.392 60.0791L102.404 60.0605L108.118 51.9961L103.699 48.8677L97.152 58.1077C96.0953 59.597 95.733 61.3984 96.0685 63.1079C96.2231 63.9062 96.5323 64.6872 96.9963 65.4015C98.4487 67.6464 101.083 68.7658 103.709 68.2483L114.805 66.0721L113.766 60.7595L102.67 62.9357C101.615 63.1412 100.672 63.7224 100.009 64.568L100.009 64.5676Z" fill="url(#paint20_linear_1380_952)" stroke="url(#paint21_linear_1380_952)" stroke-miterlimit="10"/>
<path d="M91.3382 72.2933C91.1846 71.4948 90.8768 70.7135 90.4141 69.9984C88.9652 67.7511 86.3323 66.6278 83.7054 67.1408L72.6066 69.3L73.6372 74.614L84.7361 72.4549C85.7914 72.2508 86.7354 71.6714 87.3996 70.8265L87.8519 70.2523C88.1958 70.0071 88.6134 70.4343 88.3648 70.7742L85.0105 75.3113L84.9979 75.3299L79.2724 83.3854L83.6868 86.521L90.2476 77.2913C91.3063 75.8035 91.6715 74.003 91.339 72.2928L91.3382 72.2933Z" fill="url(#paint22_linear_1380_952)" stroke="url(#paint23_linear_1380_952)" stroke-miterlimit="10"/>
<path fill-rule="evenodd" clip-rule="evenodd" d="M98 73L134 80.2L123.2 87.4L134 98.2L123.2 109L112.4 98.2L105.2 109L98 73Z" fill="url(#paint24_linear_1380_952)" stroke="url(#paint25_linear_1380_952)" stroke-miterlimit="10"/>
</g>
<defs>
<linearGradient id="paint0_linear_1380_952" x1="37.6874" y1="7.74393" x2="85.1275" y2="84.6918" gradientUnits="userSpaceOnUse">
<stop stop-color="#222227"/>
<stop offset="0.73" stop-color="#121214" stop-opacity="0"/>
<stop offset="1" stop-color="#121214" stop-opacity="0"/>
</linearGradient>
<linearGradient id="paint1_linear_1380_952" x1="31.0351" y1="-9" x2="89.3469" y2="93.9901" gradientUnits="userSpaceOnUse">
<stop stop-color="#C0C0CA"/>
<stop offset="1" stop-opacity="0"/>
</linearGradient>
<linearGradient id="paint2_linear_1380_952" x1="35.2161" y1="7.74393" x2="84.0322" y2="81.7315" gradientUnits="userSpaceOnUse">
<stop stop-color="#222227"/>
<stop offset="0.73" stop-color="#121214" stop-opacity="0"/>
<stop offset="1" stop-color="#121214" stop-opacity="0"/>
</linearGradient>
<linearGradient id="paint3_linear_1380_952" x1="29" y1="-9" x2="89.2781" y2="90.4818" gradientUnits="userSpaceOnUse">
<stop stop-color="#C0C0CA"/>
<stop offset="1" stop-opacity="0"/>
</linearGradient>
<linearGradient id="paint4_linear_1380_952" x1="80.2053" y1="0.39088" x2="24.9168" y2="127.063" gradientUnits="userSpaceOnUse">
<stop stop-color="#FF5F1F"/>
<stop offset="0.65" stop-color="#531F0A" stop-opacity="0"/>
<stop offset="1" stop-opacity="0"/>
</linearGradient>
<linearGradient id="paint5_linear_1380_952" x1="67.35" y1="17.5331" x2="85" y2="87.5" gradientUnits="userSpaceOnUse">
<stop offset="0.22178" stop-color="#FF9255"/>
<stop offset="0.423077" stop-color="#531F0A" stop-opacity="0"/>
<stop offset="1" stop-opacity="0"/>
</linearGradient>
<linearGradient id="paint6_linear_1380_952" x1="86.301" y1="10.3344" x2="62.2327" y2="65.477" gradientUnits="userSpaceOnUse">
<stop stop-color="#FF5F1F"/>
<stop offset="0.65" stop-color="#531F0A" stop-opacity="0"/>
<stop offset="1" stop-opacity="0"/>
</linearGradient>
<linearGradient id="paint7_linear_1380_952" x1="91" y1="22" x2="68.5" y2="52" gradientUnits="userSpaceOnUse">
<stop offset="0.110577" stop-color="#FF9255"/>
<stop offset="0.423077" stop-color="#531F0A" stop-opacity="0"/>
<stop offset="1" stop-opacity="0"/>
</linearGradient>
<linearGradient id="paint8_linear_1380_952" x1="22.3248" y1="34.8792" x2="38.1299" y2="42.7917" gradientUnits="userSpaceOnUse">
<stop stop-color="#222227"/>
<stop offset="0.73" stop-color="#121214" stop-opacity="0"/>
<stop offset="1" stop-color="#121214" stop-opacity="0"/>
</linearGradient>
<linearGradient id="paint9_linear_1380_952" x1="22.6763" y1="29.5152" x2="54.951" y2="50.5416" gradientUnits="userSpaceOnUse">
<stop stop-color="#C0C0CA"/>
<stop offset="1" stop-opacity="0"/>
</linearGradient>
<linearGradient id="paint10_linear_1380_952" x1="11.4517" y1="9.57471" x2="15.3897" y2="13.6616" gradientUnits="userSpaceOnUse">
<stop stop-color="#222227"/>
<stop offset="0.73" stop-color="#121214" stop-opacity="0"/>
<stop offset="1" stop-color="#121214" stop-opacity="0"/>
</linearGradient>
<linearGradient id="paint11_linear_1380_952" x1="11.1358" y1="8.33207" x2="16.1451" y2="13.9931" gradientUnits="userSpaceOnUse">
<stop stop-color="#C0C0CA"/>
<stop offset="1" stop-opacity="0"/>
</linearGradient>
<linearGradient id="paint12_linear_1380_952" x1="20.7896" y1="9.57471" x2="24.7275" y2="13.6616" gradientUnits="userSpaceOnUse">
<stop stop-color="#222227"/>
<stop offset="0.73" stop-color="#121214" stop-opacity="0"/>
<stop offset="1" stop-color="#121214" stop-opacity="0"/>
</linearGradient>
<linearGradient id="paint13_linear_1380_952" x1="20.4737" y1="8.33207" x2="25.483" y2="13.9931" gradientUnits="userSpaceOnUse">
<stop stop-color="#C0C0CA"/>
<stop offset="1" stop-opacity="0"/>
</linearGradient>
<linearGradient id="paint14_linear_1380_952" x1="30.7896" y1="9.57471" x2="34.7275" y2="13.6616" gradientUnits="userSpaceOnUse">
<stop stop-color="#222227"/>
<stop offset="0.73" stop-color="#121214" stop-opacity="0"/>
<stop offset="1" stop-color="#121214" stop-opacity="0"/>
</linearGradient>
<linearGradient id="paint15_linear_1380_952" x1="30.4737" y1="8.33207" x2="35.483" y2="13.9931" gradientUnits="userSpaceOnUse">
<stop stop-color="#C0C0CA"/>
<stop offset="1" stop-opacity="0"/>
</linearGradient>
<linearGradient id="paint16_linear_1380_952" x1="75.7058" y1="84.8795" x2="145.343" y2="29.8598" gradientUnits="userSpaceOnUse">
<stop stop-color="#222227"/>
<stop offset="0.73" stop-color="#121214" stop-opacity="0"/>
<stop offset="1" stop-color="#121214" stop-opacity="0"/>
</linearGradient>
<linearGradient id="paint17_linear_1380_952" x1="71.743" y1="42.8128" x2="125.984" y2="93.3325" gradientUnits="userSpaceOnUse">
<stop stop-color="#94949B"/>
<stop offset="1" stop-color="#94949B" stop-opacity="0"/>
</linearGradient>
<linearGradient id="paint18_linear_1380_952" x1="82.3473" y1="40.559" x2="78.4572" y2="108.648" gradientUnits="userSpaceOnUse">
<stop stop-color="#FF5F1F"/>
<stop offset="0.65" stop-color="#531F0A" stop-opacity="0"/>
<stop offset="1" stop-opacity="0"/>
</linearGradient>
<linearGradient id="paint19_linear_1380_952" x1="79.5633" y1="52.6213" x2="110.176" y2="92.3089" gradientUnits="userSpaceOnUse">
<stop stop-color="#FF9255"/>
<stop offset="0.317308" stop-color="#531F0A" stop-opacity="0"/>
<stop offset="1" stop-opacity="0"/>
</linearGradient>
<linearGradient id="paint20_linear_1380_952" x1="96.3521" y1="42.6513" x2="103.001" y2="112.128" gradientUnits="userSpaceOnUse">
<stop stop-color="#FF5F1F"/>
<stop offset="0.65" stop-color="#531F0A" stop-opacity="0"/>
<stop offset="1" stop-opacity="0"/>
</linearGradient>
<linearGradient id="paint21_linear_1380_952" x1="96.759" y1="53.1909" x2="118.38" y2="67.6319" gradientUnits="userSpaceOnUse">
<stop offset="0.110577" stop-color="#FF9255"/>
<stop offset="0.423077" stop-color="#531F0A" stop-opacity="0"/>
<stop offset="1" stop-opacity="0"/>
</linearGradient>
<linearGradient id="paint22_linear_1380_952" x1="81.1708" y1="84.5752" x2="85.7285" y2="14.6748" gradientUnits="userSpaceOnUse">
<stop stop-color="#FF5F1F"/>
<stop offset="0.65" stop-color="#531F0A" stop-opacity="0"/>
<stop offset="1" stop-opacity="0"/>
</linearGradient>
<linearGradient id="paint23_linear_1380_952" x1="72.6154" y1="69.256" x2="92.0046" y2="98.3946" gradientUnits="userSpaceOnUse">
<stop offset="0.105769" stop-color="#FF9255"/>
<stop offset="0.504808" stop-color="#531F0A" stop-opacity="0"/>
<stop offset="1" stop-opacity="0"/>
</linearGradient>
<linearGradient id="paint24_linear_1380_952" x1="98" y1="73" x2="133.93" y2="109.069" gradientUnits="userSpaceOnUse">
<stop offset="0.0480769" stop-color="#222227"/>
<stop offset="0.533654" stop-color="#121214"/>
<stop offset="1" stop-color="#121214"/>
</linearGradient>
<linearGradient id="paint25_linear_1380_952" x1="151.5" y1="130.5" x2="100.51" y2="78.3705" gradientUnits="userSpaceOnUse">
<stop stop-opacity="0"/>
<stop offset="1" stop-color="#94949B"/>
</linearGradient>
<clipPath id="clip0_1380_952">
<rect width="136" height="111" fill="white"/>
</clipPath>
</defs>
</svg>
