<svg width="136" height="111" viewBox="0 0 136 111" fill="none" xmlns="http://www.w3.org/2000/svg">
<g clip-path="url(#clip0_1338_4695)">
<path d="M95.5647 6.75211C104.948 6.2137 112.14 13.4055 111.602 22.7898L109.935 51.8488C109.654 56.7723 107.436 61.6049 103.754 65.2859L63.6213 105.419C61.2491 107.791 57.6722 107.928 55.6277 105.883L12.4721 62.7275C10.4279 60.683 10.5643 57.106 12.9361 54.7339L53.0693 14.6007C56.7503 10.9197 61.583 8.70165 66.5064 8.41975L95.5647 6.75211Z" fill="url(#paint0_linear_1338_4695)" stroke="url(#paint1_linear_1338_4695)" stroke-miterlimit="10"/>
<path d="M86.5647 6.75211C95.9482 6.2137 103.14 13.4055 102.602 22.7898L100.935 51.8488C100.654 56.7723 98.4355 61.6049 94.7545 65.2859L54.6213 105.419C52.2491 107.791 48.6722 107.928 46.6277 105.883L3.4721 62.7275C1.42785 60.683 1.5643 57.106 3.93614 54.7339L44.0693 14.6007C47.7503 10.9197 52.583 8.70165 57.5064 8.41975L86.5647 6.75211Z" fill="url(#paint2_linear_1338_4695)" stroke="url(#paint3_linear_1338_4695)" stroke-miterlimit="10"/>
<path d="M87.5 16.501C90.2614 16.501 92.5 18.7396 92.5 21.501C92.5 24.2624 90.2614 26.501 87.5 26.501C84.7386 26.501 82.5 24.2624 82.5 21.501C82.5 18.7396 84.7386 16.501 87.5 16.501Z" fill="url(#paint4_linear_1338_4695)" stroke="url(#paint5_linear_1338_4695)" stroke-miterlimit="10"/>
<g clip-path="url(#clip1_1338_4695)">
<path d="M31.06 52.3758C32.4583 51.0032 33.9557 50.1671 35.5528 49.836C37.1554 49.5037 38.8083 49.6576 40.5218 50.317C42.2346 50.9763 43.9174 52.1351 45.5672 53.8157C47.2163 55.4956 48.3182 57.1731 48.9379 58.89L48.9385 58.8907C49.5594 60.609 49.6798 62.2599 49.3173 63.8573C48.9567 65.4481 48.0931 66.9298 46.6949 68.3024L46.6517 68.3448C45.2651 69.6933 43.7809 70.5244 42.1978 70.867C40.5953 71.2138 38.947 71.0694 37.2416 70.4173C35.5377 69.7658 33.8594 68.6113 32.2092 66.9304C30.5589 65.2492 29.4317 63.5449 28.805 61.8205C28.1777 60.0958 28.056 58.4371 28.4257 56.8339C28.7933 55.2343 29.6618 53.7484 31.06 52.3758ZM33.4852 54.8462C32.7584 55.5597 32.3371 56.3953 32.2612 57.3424C32.1858 58.2791 32.4527 59.2743 33.0024 60.3138C33.5538 61.3567 34.4146 62.4647 35.5647 63.6363C37.275 65.3784 38.8655 66.4881 40.3336 66.8687C41.8372 67.2585 43.1721 66.9094 44.2697 65.832C45.2867 64.8334 45.6681 63.6093 45.4149 62.2185L45.356 61.9382C45.0031 60.4637 43.9218 58.8532 42.2116 57.1111C41.0615 55.9395 39.9703 55.0578 38.9378 54.4871C37.9101 53.9192 36.9248 53.631 35.9958 53.6803C35.0522 53.7304 34.2117 54.1331 33.4852 54.8462Z" fill="url(#paint6_linear_1338_4695)" stroke="url(#paint7_linear_1338_4695)" stroke-miterlimit="10"/>
<path d="M68.9121 37.3689C70.3232 35.9838 71.819 35.2956 73.4699 35.1992C75.0634 35.1067 76.7095 35.8535 78.4191 37.5949C80.1288 39.3365 80.8455 40.9966 80.7236 42.5883C80.5973 44.2367 79.8608 45.7397 78.47 47.1051C77.145 48.4058 75.7207 49.1169 74.1891 49.2795L73.8816 49.305C72.2888 49.3979 70.6415 48.6503 68.9317 46.9085C67.2222 45.167 66.506 43.5074 66.6278 41.9159C66.7546 40.2695 67.4989 38.7563 68.9121 37.3689ZM59.6265 25.1513L66.0698 58.813L64.0376 60.8079L57.5957 27.1448L59.6265 25.1513ZM70.5725 39.0603C70.2329 39.3936 69.99 39.7653 69.8626 40.1842C69.751 40.5507 69.7347 40.93 69.7934 41.3181L69.8229 41.4848C70.0075 42.3856 70.631 43.3256 71.5882 44.3007C72.5456 45.2759 73.4743 45.9172 74.3716 46.1184C75.2974 46.3259 76.1294 46.0829 76.8103 45.4145C77.5058 44.7316 77.7764 43.8987 77.5711 42.9679L77.5718 42.9673C77.376 42.0812 76.7493 41.148 75.7925 40.1734C74.8357 39.1987 73.9152 38.5562 73.0327 38.3434L73.0313 38.3434C72.1053 38.1219 71.268 38.3777 70.5725 39.0603ZM45.1941 38.8513C46.5877 37.4832 48.1344 36.747 49.7819 36.6507C51.3754 36.5583 53.0221 37.3056 54.7318 39.0471C56.4415 40.7888 57.1582 42.4489 57.0363 44.0405C56.9101 45.6873 56.1646 47.2007 54.752 48.5875C53.3605 49.9534 51.8382 50.6674 50.1762 50.7722L50.1755 50.7729C48.5728 50.875 46.9224 50.1315 45.2137 48.3909C43.5051 46.6504 42.7926 44.9872 42.9238 43.3859C43.0598 41.7265 43.8026 40.2174 45.1941 38.8513ZM46.8545 40.5426C46.515 40.8759 46.2734 41.2477 46.146 41.6665C46.0345 42.0329 46.0175 42.4119 46.0761 42.7998L46.1063 42.9672C46.2909 43.868 46.9143 44.8078 47.8716 45.783C48.829 46.7582 49.7571 47.3989 50.6544 47.6001C51.5805 47.8077 52.4117 47.5649 53.0923 46.8968C53.7878 46.2141 54.0594 45.3798 53.8539 44.4496C53.658 43.5636 53.032 42.6297 52.0759 41.6557C51.1199 40.6818 50.1985 40.0379 49.3147 39.8258C48.3884 39.604 47.5502 39.8597 46.8545 40.5426Z" fill="url(#paint8_linear_1338_4695)" stroke="url(#paint9_linear_1338_4695)" stroke-miterlimit="10"/>
</g>
<rect x="63.5" y="38.5" width="71" height="71" rx="35.5" fill="url(#paint10_linear_1338_4695)"/>
<rect x="63.5" y="38.5" width="71" height="71" rx="35.5" stroke="url(#paint11_linear_1338_4695)" stroke-miterlimit="10"/>
<path d="M89.6504 63.2383C91.7976 62.11 93.8503 61.1036 95.8945 62.0957L96.0918 62.1982C96.1259 62.2171 96.2519 62.2969 96.3936 62.3945C95.7563 62.7442 95.089 63.088 94.4053 63.458C93.5346 63.9293 92.658 64.4359 91.8857 65.0205C88.7774 67.3752 90.0433 72.1902 93.877 72.5977C94.3262 72.6454 94.8174 72.5597 95.2939 72.4219C95.7763 72.2823 96.2815 72.078 96.7705 71.8574C97.2601 71.6366 97.7479 71.3932 98.1904 71.1738C98.6391 70.9514 99.0358 70.7568 99.3643 70.6211C99.943 70.3818 100.341 70.2414 100.704 70.2324C101.03 70.2245 101.376 70.3235 101.831 70.6992C103.064 71.7173 104.239 72.9732 105.438 74.2676C106.608 75.5314 107.802 76.8331 109.06 77.9297C109.373 78.4192 109.334 78.9051 109.119 79.2354C108.901 79.5707 108.461 79.8102 107.844 79.6846H107.845C107.845 79.6846 107.834 79.6819 107.812 79.6729C107.791 79.6635 107.762 79.6497 107.726 79.6289C107.652 79.5867 107.563 79.5255 107.46 79.4453C107.253 79.2845 107.016 79.069 106.771 78.832C106.526 78.5961 106.283 78.3486 106.061 78.123C105.844 77.9034 105.636 77.6953 105.479 77.5566L105.479 77.5557L105.274 77.3809C105.177 77.2995 105.059 77.2022 104.939 77.1113C104.823 77.0227 104.689 76.9275 104.568 76.8594C104.511 76.8272 104.43 76.7848 104.341 76.7598C104.296 76.7473 104.223 76.7316 104.137 76.7363C104.046 76.7414 103.91 76.7714 103.792 76.8828L103.581 77.083L103.65 77.3662C103.714 77.6235 103.848 77.8429 103.971 78.0137C104.03 78.0955 104.097 78.1794 104.16 78.2568L104.326 78.459C104.488 78.6612 104.712 78.9011 104.942 79.1455C105.179 79.3962 105.429 79.6602 105.665 79.9268C105.902 80.1939 106.112 80.451 106.268 80.6846C106.39 80.8682 106.459 81.009 106.491 81.1084L106.512 81.1943C106.581 81.706 106.336 82.0848 105.972 82.2754C105.646 82.4459 105.218 82.466 104.824 82.251L104.657 82.1436C104.228 81.8242 103.801 81.4251 103.35 80.9961C102.906 80.5751 102.437 80.124 101.95 79.7412L101.949 79.7402C101.889 79.6931 101.62 79.4737 101.364 79.2881C101.237 79.1957 101.094 79.0981 100.967 79.0283C100.906 78.9951 100.825 78.955 100.738 78.9297C100.695 78.9171 100.627 78.9012 100.546 78.9023C100.465 78.9035 100.327 78.923 100.202 79.0273L99.9072 79.2734L100.069 79.6221C100.187 79.8754 100.342 80.0886 100.501 80.2764C100.896 80.7436 101.468 81.2265 101.967 81.6611C102.493 82.1197 102.935 82.5225 103.177 82.875C103.487 83.328 103.434 83.8081 103.184 84.1504C102.931 84.4947 102.462 84.7182 101.882 84.5781C101.882 84.5782 101.879 84.577 101.874 84.5752C101.869 84.5733 101.861 84.5706 101.852 84.5664C101.832 84.5575 101.806 84.5444 101.774 84.5254C101.709 84.4864 101.631 84.4297 101.539 84.3564C101.356 84.2097 101.147 84.015 100.931 83.7988C100.715 83.5836 100.501 83.3568 100.303 83.1484C100.11 82.9454 99.9242 82.7505 99.7803 82.6162C99.7136 82.5539 99.3638 82.235 99.0215 81.9395C98.8503 81.7917 98.6735 81.6444 98.5332 81.5361C98.4653 81.4838 98.3927 81.4301 98.3281 81.3906C98.2997 81.3733 98.2475 81.3433 98.1855 81.3213C98.1569 81.3111 98.0922 81.2901 98.0088 81.2891C97.924 81.2881 97.7403 81.3095 97.6045 81.4775L97.4336 81.6895L97.5186 81.9482C97.6754 82.4259 98.0396 82.872 98.3887 83.2568C98.7725 83.68 99.1344 84.0274 99.4697 84.4277C99.7967 84.818 99.9998 85.1512 100.06 85.4443C100.11 85.6912 100.069 85.9585 99.7607 86.2881C99.3885 86.6859 98.81 86.7505 98.3105 86.458L98.2119 86.3945C98.2072 86.3902 98.2019 86.3831 98.1943 86.376C98.1657 86.3489 98.1273 86.3122 98.082 86.2666C97.9915 86.1755 97.8795 86.0583 97.7686 85.9404C97.6574 85.8223 97.5502 85.7049 97.4697 85.6143C97.4581 85.6012 97.4475 85.5886 97.4375 85.5771C97.4409 85.5184 97.4457 85.4472 97.4521 85.3662C97.4601 85.2669 97.4696 85.154 97.4756 85.0527C97.4784 85.0055 97.4805 84.9527 97.4814 84.9004L97.4785 84.749C97.3852 83.532 96.6495 82.2625 95.6113 81.5996H95.6123C95.4705 81.5087 95.1961 81.3905 95.0146 81.3096C94.9109 81.2633 94.8208 81.2229 94.7529 81.1895C94.7353 81.1429 94.7153 81.0839 94.6924 81.0098C94.661 80.9083 94.6159 80.7516 94.5615 80.6123L94.5039 80.4814C94.2197 79.9169 93.607 79.2588 93.0791 78.9268C92.9374 78.8376 92.6846 78.7364 92.5205 78.6699C92.4437 78.6388 92.3755 78.6107 92.3184 78.5869C92.2971 78.5338 92.2726 78.4706 92.2461 78.4014C92.211 78.31 92.1724 78.2089 92.1377 78.1221C92.1065 78.0439 92.0663 77.947 92.0293 77.8789L92.0283 77.8779L91.9082 77.6777C91.5989 77.2059 91.1074 76.713 90.6689 76.4316C90.5237 76.3385 90.2805 76.2363 90.1299 76.1699C90.0404 76.1305 89.9664 76.0967 89.9111 76.0684L89.9102 76.0674C89.8984 76.0371 89.8844 75.9986 89.8682 75.9482C89.8504 75.8931 89.8255 75.814 89.8018 75.7461C89.7782 75.6786 89.7444 75.5894 89.6982 75.5068C88.7344 73.7815 86.9401 73.0201 85.0225 73.3779C83.5541 73.6519 82.3635 74.5907 81.7354 75.9004L80.501 75.5059V63.7607C80.9669 63.9083 81.4377 64.085 81.9229 64.2686C82.6144 64.5302 83.3375 64.8049 84.0693 64.9893C85.3458 65.3111 86.3051 65.1051 87.1807 64.6855C87.6039 64.4827 88.007 64.23 88.4023 63.9805C88.8042 63.7268 89.2043 63.4729 89.6504 63.2383Z" fill="url(#paint12_linear_1338_4695)" stroke="url(#paint13_linear_1338_4695)" stroke-miterlimit="10"/>
<path d="M103.844 61.5039C104.076 61.5223 104.433 61.6704 104.904 61.9717C105.36 62.2628 105.862 62.6572 106.373 63.0898C106.883 63.5217 107.387 63.98 107.852 64.3975C108.309 64.8085 108.738 65.1897 109.076 65.4453C109.37 65.6675 109.658 65.8685 109.992 65.9912C110.34 66.1189 110.703 66.149 111.143 66.1025L111.17 66.1006L111.196 66.0947L116.498 64.9463V75.0732C116.193 75.1189 115.878 75.1816 115.565 75.249C115.081 75.3537 114.605 75.4658 114.125 75.5527C113.148 75.7296 112.325 75.764 111.725 75.4678C111.594 75.4032 111.365 75.2222 111.086 74.9688L110.365 74.2871C109.171 73.1702 108.019 71.9984 106.859 70.8174C105.702 69.6389 104.536 68.4508 103.322 67.3164L103.301 67.2969L103.277 67.2793L103.113 67.168C102.283 66.6501 101.312 66.7007 100.497 66.998C99.6298 67.3144 98.7315 67.8064 97.8691 68.2939C96.9922 68.7898 96.1536 69.2802 95.3584 69.6377C94.8182 69.8804 94.2681 69.9423 93.8164 69.8262C93.3816 69.7143 93.0055 69.4311 92.7793 68.8984C92.5433 68.3425 92.6066 67.999 92.7627 67.7314C92.9458 67.4178 93.2973 67.135 93.7949 66.8066C95.9498 65.386 98.8537 63.7318 101.327 62.4648L102.357 61.9473C102.922 61.6691 103.371 61.4668 103.844 61.5039Z" fill="url(#paint14_linear_1338_4695)" stroke="url(#paint15_linear_1338_4695)" stroke-miterlimit="10"/>
<path d="M88.2192 78.5098C88.7413 78.5021 89.1531 78.677 89.4146 78.9443C89.7223 79.2591 89.8877 79.7646 89.7065 80.4385L89.4897 81.2432L90.3013 81.0557C90.9875 80.8975 91.5378 81.1089 91.8628 81.4727C92.1877 81.8365 92.3362 82.4075 92.1021 83.0742L91.7925 83.9561L92.6978 83.7246C93.511 83.5161 94.1382 83.7984 94.4673 84.2461C94.7969 84.6946 94.8829 85.3846 94.4448 86.1104C94.1585 86.5846 93.4293 87.0419 92.6538 87.1797C91.9274 87.3088 91.3872 87.1334 91.1343 86.6924L91.0874 86.6006C90.9676 86.334 90.9752 86.1257 91.0425 85.8955C91.0795 85.7691 91.1352 85.6356 91.2075 85.4766C91.2755 85.3271 91.3663 85.1392 91.4448 84.9512L91.812 84.0703L90.8794 84.2695C90.3276 84.3871 89.8845 84.5296 89.4556 84.5322C89.2605 84.5334 89.1094 84.5021 88.9897 84.4404C88.8759 84.3816 88.7573 84.2783 88.6499 84.0791C88.5076 83.8152 88.5085 83.6287 88.5581 83.416C88.5871 83.2916 88.6322 83.1636 88.6919 82.9932C88.7488 82.8306 88.8159 82.6365 88.8677 82.4199L89.0415 81.6934L88.3032 81.8096C88.0754 81.8455 87.8645 81.9029 87.687 81.9512C87.6223 81.9688 87.5623 81.9835 87.5063 81.998L88.2192 78.5098ZM84.27 76.9082C84.8997 76.0772 85.7975 75.8764 86.4419 76.0879C86.7629 76.1933 87.0251 76.4003 87.186 76.6914C87.3116 76.9185 87.3864 77.2204 87.3599 77.6045L87.3042 77.6143V82.0439C87.2749 82.0498 87.2467 82.0581 87.2183 82.0625C86.9784 82.0996 86.7884 82.08 86.5542 81.9023C86.3559 81.7521 86.2554 81.6201 86.2026 81.5107C86.1511 81.4037 86.1301 81.2882 86.1372 81.1475C86.1447 80.9996 86.1822 80.8297 86.2456 80.6201C86.3159 80.3877 86.3835 80.2096 86.4731 79.9277L86.8081 78.875L85.7964 79.3184C85.2265 79.5679 84.789 79.6038 84.4819 79.54C84.1842 79.4782 83.9774 79.318 83.8491 79.0986C83.5833 78.6439 83.599 77.7938 84.27 76.9082Z" fill="url(#paint16_linear_1338_4695)" stroke="url(#paint17_linear_1338_4695)" stroke-miterlimit="10"/>
</g>
<defs>
<linearGradient id="paint0_linear_1338_4695" x1="90.4948" y1="8.21986" x2="103.841" y2="90.3968" gradientUnits="userSpaceOnUse">
<stop stop-color="#222227"/>
<stop offset="0.365385" stop-color="#121214" stop-opacity="0"/>
<stop offset="1" stop-color="#121214" stop-opacity="0"/>
</linearGradient>
<linearGradient id="paint1_linear_1338_4695" x1="103.57" y1="-10.4595" x2="117.058" y2="101.314" gradientUnits="userSpaceOnUse">
<stop stop-color="#C0C0CA"/>
<stop offset="1" stop-opacity="0"/>
</linearGradient>
<linearGradient id="paint2_linear_1338_4695" x1="25" y1="17" x2="54" y2="130" gradientUnits="userSpaceOnUse">
<stop stop-color="#222227"/>
<stop offset="0.73" stop-color="#121214"/>
<stop offset="1" stop-color="#121214"/>
</linearGradient>
<linearGradient id="paint3_linear_1338_4695" x1="42" y1="-3" x2="24" y2="123" gradientUnits="userSpaceOnUse">
<stop stop-color="#C0C0CA"/>
<stop offset="1" stop-opacity="0"/>
</linearGradient>
<linearGradient id="paint4_linear_1338_4695" x1="85.7802" y1="17.8945" x2="91.9029" y2="24.2438" gradientUnits="userSpaceOnUse">
<stop stop-color="#222227"/>
<stop offset="0.73" stop-color="#121214" stop-opacity="0"/>
<stop offset="1" stop-color="#121214" stop-opacity="0"/>
</linearGradient>
<linearGradient id="paint5_linear_1338_4695" x1="85.2895" y1="15.9625" x2="93.0784" y2="24.7578" gradientUnits="userSpaceOnUse">
<stop stop-color="#C0C0CA"/>
<stop offset="1" stop-opacity="0"/>
</linearGradient>
<linearGradient id="paint6_linear_1338_4695" x1="29.5" y1="51" x2="78.5" y2="85" gradientUnits="userSpaceOnUse">
<stop stop-color="#FF5F1F"/>
<stop offset="0.359938" stop-color="#531F0A" stop-opacity="0"/>
<stop offset="0.754808" stop-opacity="0"/>
</linearGradient>
<linearGradient id="paint7_linear_1338_4695" x1="53.9613" y1="70.4779" x2="40.601" y2="47.3378" gradientUnits="userSpaceOnUse">
<stop offset="0.25" stop-opacity="0"/>
<stop offset="0.519231" stop-color="#531F0A" stop-opacity="0"/>
<stop offset="0.889423" stop-color="#FF9255"/>
</linearGradient>
<linearGradient id="paint8_linear_1338_4695" x1="53" y1="35.5" x2="68" y2="63.5" gradientUnits="userSpaceOnUse">
<stop stop-color="#FF5F1F"/>
<stop offset="0.490385" stop-color="#531F0A" stop-opacity="0"/>
<stop offset="1" stop-opacity="0"/>
</linearGradient>
<linearGradient id="paint9_linear_1338_4695" x1="66.9722" y1="63.5379" x2="55.904" y2="32.7444" gradientUnits="userSpaceOnUse">
<stop offset="0.25" stop-opacity="0"/>
<stop offset="0.519231" stop-color="#531F0A" stop-opacity="0"/>
<stop offset="0.889423" stop-color="#FF9255"/>
</linearGradient>
<linearGradient id="paint10_linear_1338_4695" x1="85.2418" y1="45.1482" x2="134.223" y2="95.9425" gradientUnits="userSpaceOnUse">
<stop stop-color="#222227"/>
<stop offset="0.73" stop-color="#121214"/>
<stop offset="1" stop-color="#121214"/>
</linearGradient>
<linearGradient id="paint11_linear_1338_4695" x1="81.3158" y1="29.6923" x2="143.627" y2="100.055" gradientUnits="userSpaceOnUse">
<stop stop-color="#C0C0CA"/>
<stop offset="1" stop-opacity="0"/>
</linearGradient>
<linearGradient id="paint12_linear_1338_4695" x1="96.963" y1="65.5161" x2="83.3066" y2="132.895" gradientUnits="userSpaceOnUse">
<stop stop-color="#FF5F1F"/>
<stop offset="0.65" stop-color="#531F0A" stop-opacity="0"/>
<stop offset="1" stop-opacity="0"/>
</linearGradient>
<linearGradient id="paint13_linear_1338_4695" x1="75.0352" y1="93.0365" x2="96.5039" y2="60.7715" gradientUnits="userSpaceOnUse">
<stop stop-opacity="0"/>
<stop offset="0.576923" stop-color="#531F0A" stop-opacity="0"/>
<stop offset="0.889423" stop-color="#FF9255"/>
</linearGradient>
<linearGradient id="paint14_linear_1338_4695" x1="106.289" y1="63.5314" x2="100.571" y2="103.78" gradientUnits="userSpaceOnUse">
<stop stop-color="#FF5F1F"/>
<stop offset="0.65" stop-color="#531F0A" stop-opacity="0"/>
<stop offset="1" stop-opacity="0"/>
</linearGradient>
<linearGradient id="paint15_linear_1338_4695" x1="87.9769" y1="79.6406" x2="98.4146" y2="57.2605" gradientUnits="userSpaceOnUse">
<stop stop-opacity="0"/>
<stop offset="0.576923" stop-color="#531F0A" stop-opacity="0"/>
<stop offset="0.889423" stop-color="#FF9255"/>
</linearGradient>
<linearGradient id="paint16_linear_1338_4695" x1="90.0534" y1="77.5448" x2="82.6842" y2="108.817" gradientUnits="userSpaceOnUse">
<stop stop-color="#FF5F1F"/>
<stop offset="0.65" stop-color="#531F0A" stop-opacity="0"/>
<stop offset="1" stop-opacity="0"/>
</linearGradient>
<linearGradient id="paint17_linear_1338_4695" x1="81.1786" y1="90.4948" x2="91.7797" y2="76.7915" gradientUnits="userSpaceOnUse">
<stop stop-opacity="0"/>
<stop offset="0.576923" stop-color="#531F0A" stop-opacity="0"/>
<stop offset="0.889423" stop-color="#FF9255"/>
</linearGradient>
<clipPath id="clip0_1338_4695">
<rect width="136" height="111" fill="white"/>
</clipPath>
<clipPath id="clip1_1338_4695">
<rect width="59.1154" height="27.6214" fill="white" transform="translate(21 59.4131) rotate(-44.4705)"/>
</clipPath>
</defs>
</svg>
