<svg width="136" height="112" viewBox="0 0 136 112" fill="none" xmlns="http://www.w3.org/2000/svg">
<g clip-path="url(#clip0_1385_1356)">
<path d="M8.44141 0.5H112.758C117.411 0.500041 121.1 3.91926 121.1 8.03906V69.9609C121.1 74.0807 117.411 77.5 112.758 77.5H8.44141C3.78848 77.5 0.0996094 74.0807 0.0996094 69.9609V8.03906C0.0996094 3.91926 3.78848 0.50004 8.44141 0.5Z" fill="url(#paint0_linear_1385_1356)" stroke="url(#paint1_linear_1385_1356)" stroke-miterlimit="10"/>
<path d="M8.26172 0.5H105.738C110.038 0.500192 113.5 3.88844 113.5 8.03906V69.9609C113.5 74.1116 110.038 77.4998 105.738 77.5H8.26172C3.96201 77.4998 0.5 74.1116 0.5 69.9609V8.03906C0.5 4.01809 3.7491 0.712502 7.86133 0.509766L8.26172 0.5Z" fill="url(#paint2_linear_1385_1356)" stroke="url(#paint3_linear_1385_1356)" stroke-miterlimit="10"/>
<rect x="42.3999" y="56" width="35" height="10" rx="1.5" fill="url(#paint4_linear_1385_1356)" stroke="url(#paint5_linear_1385_1356)" stroke-miterlimit="10"/>
<rect x="29.939" y="14.5093" width="46.2102" height="31.9903" rx="2.5" fill="url(#paint6_linear_1385_1356)" stroke="url(#paint7_linear_1385_1356)" stroke-miterlimit="10"/>
<path d="M49.8265 36.0228C50.0975 36.1297 50.3942 36.1895 50.7017 36.1927C51.6673 36.2044 52.5309 35.6682 52.9006 34.8252L54.4662 31.2653L52.6611 30.5569L51.0955 34.1167C50.9463 34.4549 50.9323 34.8324 51.054 35.1801L51.1364 35.4168C51.1417 35.5607 50.9296 35.5988 50.8771 35.4641L50.1812 33.6563L50.1781 33.6492L48.8965 30.5049L47.0718 31.1683L48.5402 34.7711C48.7765 35.3522 49.2456 35.7952 49.8267 36.0228H49.8265Z" fill="url(#paint8_linear_1385_1356)" stroke="url(#paint9_linear_1385_1356)" stroke-miterlimit="10"/>
<path d="M53.2036 37.8996L52.967 37.9821C52.8231 37.9873 52.785 37.7752 52.9197 37.7227L54.7275 37.0268L54.7345 37.0237L57.8789 35.7421L57.2155 33.9175L53.6127 35.3858C53.0316 35.6222 52.5886 36.0913 52.3609 36.6723C52.254 36.9433 52.1943 37.24 52.1911 37.5475C52.1794 38.513 52.7156 39.3766 53.5586 39.7464L57.1184 41.3119L57.8269 39.5068L54.2671 37.9413C53.9289 37.7921 53.5514 37.7781 53.2036 37.8997V37.8996Z" fill="url(#paint10_linear_1385_1356)" stroke="url(#paint11_linear_1385_1356)" stroke-miterlimit="10"/>
<path d="M49.1759 38.5649C49.283 38.2942 49.3432 37.9977 49.3469 37.6901C49.3601 36.7246 48.8252 35.8601 47.9832 35.4888L44.427 33.9175L43.7163 35.7214L47.2724 37.2927C47.6104 37.4425 47.9875 37.4571 48.3354 37.336L48.5721 37.2538C48.716 37.2489 48.7538 37.4609 48.6191 37.5134L46.8111 38.2064L46.804 38.2095L43.6592 39.486L44.3196 41.3119L47.923 39.8494C48.5042 39.6139 48.9477 39.1457 49.1762 38.5649H49.1759Z" fill="url(#paint12_linear_1385_1356)" stroke="url(#paint13_linear_1385_1356)" stroke-miterlimit="10"/>
<path d="M76.5 14.5V46.5H85C86.3807 46.5 87.5 45.3807 87.5 44V14.5H76.5Z" fill="url(#paint14_linear_1385_1356)" stroke="url(#paint15_linear_1385_1356)" stroke-miterlimit="10"/>
<path d="M69.9043 25.729L75.6494 14.4995H30.1191L23.8516 25.729H69.9043Z" fill="url(#paint16_linear_1385_1356)" stroke="url(#paint17_linear_1385_1356)" stroke-miterlimit="10"/>
<path d="M82.3652 25.4995L76.8125 14.4995H88.0957L94.1543 25.4995H82.3652Z" fill="url(#paint18_linear_1385_1356)" stroke="url(#paint19_linear_1385_1356)" stroke-miterlimit="10"/>
<path d="M48.5 81.5H77.5C78.0523 81.5 78.5 81.9477 78.5 82.5V109.5C78.5 110.052 78.0523 110.5 77.5 110.5H48.5C47.9477 110.5 47.5 110.052 47.5 109.5V82.5L47.5049 82.3975C47.5562 81.8933 47.9823 81.5 48.5 81.5Z" fill="url(#paint20_linear_1385_1356)" stroke="url(#paint21_linear_1385_1356)" stroke-miterlimit="10"/>
<path d="M72.4971 106.106C73.0504 106.105 73.4999 106.553 73.5 107.106V110.5C73.5 111.052 73.0523 111.5 72.5 111.5H36.5C35.9477 111.5 35.5 111.052 35.5 110.5V107.229C35.5 106.679 35.9461 106.231 36.4971 106.229L72.4971 106.106Z" fill="url(#paint22_linear_1385_1356)" stroke="url(#paint23_linear_1385_1356)" stroke-miterlimit="10"/>
<path d="M82.5 81.5V109C82.4999 110.381 81.3807 111.5 80 111.5H71.5C70.9478 111.5 70.5001 111.052 70.5 110.5V107.106C70.5 106.554 70.9477 106.106 71.5 106.106H76.5771C77.1293 106.106 77.5769 105.659 77.5771 105.106V81.5H82.5Z" fill="url(#paint24_linear_1385_1356)" stroke="url(#paint25_linear_1385_1356)" stroke-miterlimit="10"/>
<path fill-rule="evenodd" clip-rule="evenodd" d="M74.3999 61L123.4 70.8L108.7 80.6L123.4 95.3L108.7 110L93.9999 95.3L84.1999 110L74.3999 61Z" fill="url(#paint26_linear_1385_1356)" stroke="url(#paint27_linear_1385_1356)" stroke-miterlimit="10"/>
</g>
<defs>
<linearGradient id="paint0_linear_1385_1356" x1="37.2871" y1="7.74393" x2="84.7272" y2="84.6918" gradientUnits="userSpaceOnUse">
<stop stop-color="#222227"/>
<stop offset="0.73" stop-color="#121214" stop-opacity="0"/>
<stop offset="1" stop-color="#121214" stop-opacity="0"/>
</linearGradient>
<linearGradient id="paint1_linear_1385_1356" x1="30.6347" y1="-9" x2="88.9465" y2="93.9901" gradientUnits="userSpaceOnUse">
<stop stop-color="#C0C0CA"/>
<stop offset="1" stop-opacity="0"/>
</linearGradient>
<linearGradient id="paint2_linear_1385_1356" x1="35.2161" y1="7.74393" x2="84.0322" y2="81.7315" gradientUnits="userSpaceOnUse">
<stop stop-color="#222227"/>
<stop offset="0.73" stop-color="#121214" stop-opacity="0"/>
<stop offset="1" stop-color="#121214" stop-opacity="0"/>
</linearGradient>
<linearGradient id="paint3_linear_1385_1356" x1="29" y1="-9" x2="89.2781" y2="90.4818" gradientUnits="userSpaceOnUse">
<stop stop-color="#C0C0CA"/>
<stop offset="1" stop-opacity="0"/>
</linearGradient>
<linearGradient id="paint4_linear_1385_1356" x1="59.9003" y1="55.1262" x2="59.9003" y2="76" gradientUnits="userSpaceOnUse">
<stop stop-color="#FF5F1F"/>
<stop offset="0.54" stop-color="#531F0A" stop-opacity="0"/>
<stop offset="1" stop-color="#121214" stop-opacity="0"/>
</linearGradient>
<linearGradient id="paint5_linear_1385_1356" x1="60.116" y1="82" x2="60.116" y2="54.5" gradientUnits="userSpaceOnUse">
<stop stop-opacity="0"/>
<stop offset="0.504808" stop-color="#531F0A" stop-opacity="0"/>
<stop offset="0.850962" stop-color="#FF9255"/>
</linearGradient>
<linearGradient id="paint6_linear_1385_1356" x1="44.0228" y1="17.2846" x2="64.8378" y2="48.1742" gradientUnits="userSpaceOnUse">
<stop stop-color="#222227"/>
<stop offset="0.73" stop-color="#121214" stop-opacity="0"/>
<stop offset="1" stop-color="#121214" stop-opacity="0"/>
</linearGradient>
<linearGradient id="paint7_linear_1385_1356" x1="29.439" y1="-8.74264" x2="82.0528" y2="70.3203" gradientUnits="userSpaceOnUse">
<stop stop-color="#C0C0CA"/>
<stop offset="1" stop-opacity="0"/>
</linearGradient>
<linearGradient id="paint8_linear_1385_1356" x1="52.7413" y1="27.7117" x2="39.0046" y2="47.0562" gradientUnits="userSpaceOnUse">
<stop stop-color="#FF5F1F"/>
<stop offset="0.65" stop-color="#531F0A" stop-opacity="0"/>
<stop offset="1" stop-opacity="0"/>
</linearGradient>
<linearGradient id="paint9_linear_1385_1356" x1="49.4936" y1="30.6115" x2="50.6231" y2="47.6781" gradientUnits="userSpaceOnUse">
<stop stop-color="#FF9255"/>
<stop offset="0.317308" stop-color="#531F0A" stop-opacity="0"/>
<stop offset="1" stop-opacity="0"/>
</linearGradient>
<linearGradient id="paint10_linear_1385_1356" x1="56.3045" y1="30.5788" x2="44.0321" y2="52.2077" gradientUnits="userSpaceOnUse">
<stop stop-color="#FF5F1F"/>
<stop offset="0.65" stop-color="#531F0A" stop-opacity="0"/>
<stop offset="1" stop-opacity="0"/>
</linearGradient>
<linearGradient id="paint11_linear_1385_1356" x1="54.4297" y1="33.829" x2="58.1874" y2="42.3421" gradientUnits="userSpaceOnUse">
<stop offset="0.110577" stop-color="#FF9255"/>
<stop offset="0.423077" stop-color="#531F0A" stop-opacity="0"/>
<stop offset="1" stop-opacity="0"/>
</linearGradient>
<linearGradient id="paint12_linear_1385_1356" x1="43.9731" y1="40.2235" x2="59.5397" y2="20.9924" gradientUnits="userSpaceOnUse">
<stop stop-color="#FF5F1F"/>
<stop offset="0.65" stop-color="#531F0A" stop-opacity="0"/>
<stop offset="1" stop-opacity="0"/>
</linearGradient>
<linearGradient id="paint13_linear_1385_1356" x1="44.4378" y1="33.906" x2="44.4378" y2="46.5458" gradientUnits="userSpaceOnUse">
<stop offset="0.105769" stop-color="#FF9255"/>
<stop offset="0.504808" stop-color="#531F0A" stop-opacity="0"/>
<stop offset="1" stop-opacity="0"/>
</linearGradient>
<linearGradient id="paint14_linear_1385_1356" x1="84.293" y1="17.2763" x2="69.4598" y2="22.8699" gradientUnits="userSpaceOnUse">
<stop stop-color="#222227"/>
<stop offset="0.73" stop-color="#121214" stop-opacity="0"/>
<stop offset="1" stop-color="#121214" stop-opacity="0"/>
</linearGradient>
<linearGradient id="paint15_linear_1385_1356" x1="84.9474" y1="10.1923" x2="76.3645" y2="60.4859" gradientUnits="userSpaceOnUse">
<stop stop-color="#C0C0CA"/>
<stop offset="1" stop-opacity="0"/>
</linearGradient>
<linearGradient id="paint16_linear_1385_1356" x1="22.8179" y1="7.77441" x2="143.318" y2="59.2744" gradientUnits="userSpaceOnUse">
<stop stop-color="#222227"/>
<stop offset="0.73" stop-color="#121214"/>
<stop offset="1" stop-color="#121214"/>
</linearGradient>
<linearGradient id="paint17_linear_1385_1356" x1="22.8179" y1="8.77442" x2="81.8179" y2="58.2744" gradientUnits="userSpaceOnUse">
<stop stop-color="#C0C0CA"/>
<stop offset="1" stop-opacity="0"/>
</linearGradient>
<linearGradient id="paint18_linear_1385_1356" x1="114.003" y1="50.085" x2="78.6184" y2="4.87017" gradientUnits="userSpaceOnUse">
<stop stop-color="#121214"/>
<stop offset="0.466346" stop-color="#121214"/>
<stop offset="0.951923" stop-color="#222227"/>
</linearGradient>
<linearGradient id="paint19_linear_1385_1356" x1="93.5851" y1="14.2786" x2="86.4277" y2="39.7687" gradientUnits="userSpaceOnUse">
<stop stop-color="#656578"/>
<stop offset="1"/>
</linearGradient>
<linearGradient id="paint20_linear_1385_1356" x1="64.8462" y1="111.264" x2="64.8295" y2="79.4637" gradientUnits="userSpaceOnUse">
<stop stop-color="#222227"/>
<stop offset="0.73" stop-color="#121214" stop-opacity="0"/>
<stop offset="1" stop-color="#121214" stop-opacity="0"/>
</linearGradient>
<linearGradient id="paint21_linear_1385_1356" x1="56.8462" y1="111.264" x2="56.4232" y2="81.261" gradientUnits="userSpaceOnUse">
<stop stop-color="#94949B"/>
<stop offset="1" stop-opacity="0"/>
</linearGradient>
<linearGradient id="paint22_linear_1385_1356" x1="53.6256" y1="107.151" x2="53.632" y2="111.827" gradientUnits="userSpaceOnUse">
<stop offset="0.0480769" stop-color="#222227"/>
<stop offset="0.533654" stop-color="#121214"/>
<stop offset="1" stop-color="#121214"/>
</linearGradient>
<linearGradient id="paint23_linear_1385_1356" x1="61.5417" y1="135.302" x2="59.9864" y2="91.2349" gradientUnits="userSpaceOnUse">
<stop stop-opacity="0"/>
<stop offset="1" stop-color="#94949B"/>
</linearGradient>
<linearGradient id="paint24_linear_1385_1356" x1="79.3747" y1="114.929" x2="51.075" y2="74.117" gradientUnits="userSpaceOnUse">
<stop stop-color="#222227"/>
<stop offset="0.73" stop-color="#121214"/>
<stop offset="1" stop-color="#121214"/>
</linearGradient>
<linearGradient id="paint25_linear_1385_1356" x1="73.0023" y1="138.903" x2="94.094" y2="86.302" gradientUnits="userSpaceOnUse">
<stop stop-color="#94949B"/>
<stop offset="1" stop-color="#121214"/>
</linearGradient>
<linearGradient id="paint26_linear_1385_1356" x1="74.3999" y1="61" x2="123.305" y2="110.094" gradientUnits="userSpaceOnUse">
<stop offset="0.0480769" stop-color="#222227"/>
<stop offset="0.533654" stop-color="#121214"/>
<stop offset="1" stop-color="#121214"/>
</linearGradient>
<linearGradient id="paint27_linear_1385_1356" x1="147.219" y1="139.264" x2="77.8157" y2="68.3098" gradientUnits="userSpaceOnUse">
<stop stop-opacity="0"/>
<stop offset="1" stop-color="#94949B"/>
</linearGradient>
<clipPath id="clip0_1385_1356">
<rect width="136" height="112" fill="white"/>
</clipPath>
</defs>
</svg>
