<svg width="136" height="112" viewBox="0 0 136 112" fill="none" xmlns="http://www.w3.org/2000/svg">
<g clip-path="url(#clip0_960_664)">
<path d="M8.8418 0.5H113.158C117.811 0.500041 121.5 3.91926 121.5 8.03906V69.9609C121.5 74.0807 117.811 77.5 113.158 77.5H8.8418C4.18888 77.5 0.5 74.0807 0.5 69.9609V8.03906C0.5 3.91926 4.18888 0.50004 8.8418 0.5Z" fill="url(#paint0_linear_960_664)" stroke="url(#paint1_linear_960_664)" stroke-miterlimit="10"/>
<path d="M8.26172 0.5H105.738C110.038 0.500192 113.5 3.88844 113.5 8.03906V69.9609C113.5 74.1116 110.038 77.4998 105.738 77.5H8.26172C3.96201 77.4998 0.5 74.1116 0.5 69.9609V8.03906C0.5 4.01809 3.7491 0.712502 7.86133 0.509766L8.26172 0.5Z" fill="url(#paint2_linear_960_664)" stroke="url(#paint3_linear_960_664)" stroke-miterlimit="10"/>
<path d="M70.5 7.5C73.8137 7.5 76.5 10.1863 76.5 13.5C76.5 16.8137 73.8137 19.5 70.5 19.5C67.1863 19.5 64.5 16.8137 64.5 13.5C64.5 10.1863 67.1863 7.5 70.5 7.5Z" fill="url(#paint4_linear_960_664)" stroke="url(#paint5_linear_960_664)" stroke-miterlimit="10"/>
<path d="M80 32C80 27.0295 75.7467 23 70.5 23C65.2533 23 61 27.0295 61 32" stroke="url(#paint6_linear_960_664)" stroke-miterlimit="10"/>
<path d="M50.5 7.5C53.8137 7.5 56.5 10.1863 56.5 13.5C56.5 16.8137 53.8137 19.5 50.5 19.5C47.1863 19.5 44.5 16.8137 44.5 13.5C44.5 10.1863 47.1863 7.5 50.5 7.5Z" fill="url(#paint7_linear_960_664)" stroke="url(#paint8_linear_960_664)" stroke-miterlimit="10"/>
<path d="M60 32C60 27.0295 55.7467 23 50.5 23C45.2533 23 41 27.0295 41 32" stroke="url(#paint9_linear_960_664)" stroke-miterlimit="10"/>
<g clip-path="url(#clip1_960_664)">
<path d="M24.0713 30.4703C24.0713 28.6513 25.6605 27.998 27.4398 27.998C29.2192 27.998 31.119 28.5631 31.119 28.5631L32.2594 21.6407C32.2594 21.6407 29.841 20.7931 24.0713 20.7931C20.5303 20.7931 18.4746 22.1702 16.9716 24.2012C15.5549 26.1259 15.5035 29.2164 15.5035 31.2117V35.75H10.926V42.5136H15.5035V66H24.0713V42.5136H30.8598L31.3606 35.75H24.0713V30.4697V30.4703Z" fill="url(#paint10_linear_960_664)" stroke="url(#paint11_linear_960_664)" stroke-miterlimit="10"/>
</g>
<path d="M48.5 81.5H77.5C78.0523 81.5 78.5 81.9477 78.5 82.5V109.5C78.5 110.052 78.0523 110.5 77.5 110.5H48.5C47.9477 110.5 47.5 110.052 47.5 109.5V82.5L47.5049 82.3975C47.5562 81.8933 47.9823 81.5 48.5 81.5Z" fill="url(#paint12_linear_960_664)" stroke="url(#paint13_linear_960_664)" stroke-miterlimit="10"/>
<path d="M72.4971 106.106C73.0504 106.105 73.4999 106.553 73.5 107.106V110.5C73.5 111.052 73.0523 111.5 72.5 111.5H36.5C35.9477 111.5 35.5 111.052 35.5 110.5V107.229C35.5 106.679 35.9461 106.231 36.4971 106.229L72.4971 106.106Z" fill="url(#paint14_linear_960_664)" stroke="url(#paint15_linear_960_664)" stroke-miterlimit="10"/>
<path d="M82.5 81.4999V109C82.4999 110.381 81.3807 111.5 80 111.5H71.5C70.9478 111.5 70.5001 111.052 70.5 110.5V107.106C70.5 106.554 70.9477 106.106 71.5 106.106H76.5771C77.1293 106.106 77.5769 105.658 77.5771 105.106V81.4999H82.5Z" fill="url(#paint16_linear_960_664)" stroke="url(#paint17_linear_960_664)" stroke-miterlimit="10"/>
<path d="M104.099 85.379L115.638 88.6754L110.362 107.142C109.452 110.328 106.131 112.173 102.945 111.263C99.7584 110.353 97.9134 107.032 98.8236 103.846L104.099 85.379Z" fill="url(#paint18_linear_960_664)" stroke="url(#paint19_linear_960_664)" stroke-miterlimit="10"/>
<path d="M92.804 29.6609C90.5224 38.2169 95.5959 47.0046 104.146 49.3066L128.939 55.9497C134.074 57.3257 137.121 62.6042 135.745 67.7379L132.423 80.1349C131.048 85.2686 125.77 88.3167 120.635 86.9408L95.8425 80.2976C87.2865 78.016 78.4988 83.0895 76.1968 91.6401L69.9983 89.9792L86.6055 28L92.804 29.6609Z" fill="url(#paint20_linear_960_664)" stroke="url(#paint21_linear_960_664)" stroke-miterlimit="10"/>
<path d="M70.6132 60.167C70.5032 59.3608 70.2379 58.5632 69.8144 57.8234C68.4894 55.4986 65.9223 54.2306 63.2725 54.5981L52.0776 56.1401L52.8196 61.5053L64.0145 59.9633C65.0788 59.818 66.0526 59.2912 66.7608 58.4844L67.2432 57.9361C67.5996 57.7099 67.9937 58.1603 67.7268 58.4857L64.1337 62.8317L64.1201 62.8495L57.9703 70.5789L62.2074 73.9549L69.254 65.0989C70.3913 63.6716 70.8529 61.893 70.6129 60.1665L70.6132 60.167Z" fill="url(#paint22_linear_960_664)" stroke="url(#paint23_linear_960_664)" stroke-miterlimit="10"/>
<path d="M70.7218 48.7862L71.2702 49.2692C71.4966 49.6258 71.0466 50.0198 70.7212 49.7525L66.3743 46.1551L66.3565 46.1415L58.6259 39.9839L55.2541 44.2203L64.1116 51.2758C65.5391 52.4145 67.3173 52.8775 69.0429 52.6386C69.8487 52.5292 70.6458 52.2643 71.3851 51.8412C73.708 50.5173 74.9738 47.95 74.6046 45.299L73.0555 34.0987L67.6929 34.8373L69.242 46.0375C69.3879 47.1024 69.9152 48.0769 70.7222 48.786L70.7218 48.7862Z" fill="url(#paint24_linear_960_664)" stroke="url(#paint25_linear_960_664)" stroke-miterlimit="10"/>
</g>
<defs>
<linearGradient id="paint0_linear_960_664" x1="37.6874" y1="7.74393" x2="85.1275" y2="84.6918" gradientUnits="userSpaceOnUse">
<stop stop-color="#222227"/>
<stop offset="0.73" stop-color="#121214" stop-opacity="0"/>
<stop offset="1" stop-color="#121214" stop-opacity="0"/>
</linearGradient>
<linearGradient id="paint1_linear_960_664" x1="31.0351" y1="-9" x2="89.3469" y2="93.9901" gradientUnits="userSpaceOnUse">
<stop stop-color="#C0C0CA"/>
<stop offset="1" stop-opacity="0"/>
</linearGradient>
<linearGradient id="paint2_linear_960_664" x1="35.2161" y1="7.74393" x2="84.0322" y2="81.7315" gradientUnits="userSpaceOnUse">
<stop stop-color="#222227"/>
<stop offset="0.73" stop-color="#121214" stop-opacity="0"/>
<stop offset="1" stop-color="#121214" stop-opacity="0"/>
</linearGradient>
<linearGradient id="paint3_linear_960_664" x1="29" y1="-9" x2="89.2781" y2="90.4818" gradientUnits="userSpaceOnUse">
<stop stop-color="#C0C0CA"/>
<stop offset="1" stop-opacity="0"/>
</linearGradient>
<linearGradient id="paint4_linear_960_664" x1="64" y1="13.5" x2="77" y2="13.5" gradientUnits="userSpaceOnUse">
<stop stop-color="#222227"/>
<stop offset="0.73" stop-color="#121214" stop-opacity="0"/>
<stop offset="1" stop-color="#121214" stop-opacity="0"/>
</linearGradient>
<linearGradient id="paint5_linear_960_664" x1="63.8932" y1="13.5" x2="77.1068" y2="13.5" gradientUnits="userSpaceOnUse">
<stop stop-color="#94949B"/>
<stop offset="1" stop-opacity="0"/>
</linearGradient>
<linearGradient id="paint6_linear_960_664" x1="60.8993" y1="27.5003" x2="80.1007" y2="27.5003" gradientUnits="userSpaceOnUse">
<stop stop-color="#94949B"/>
<stop offset="1" stop-opacity="0"/>
</linearGradient>
<linearGradient id="paint7_linear_960_664" x1="44" y1="13.5" x2="57" y2="13.5" gradientUnits="userSpaceOnUse">
<stop stop-color="#222227"/>
<stop offset="0.73" stop-color="#121214" stop-opacity="0"/>
<stop offset="1" stop-color="#121214" stop-opacity="0"/>
</linearGradient>
<linearGradient id="paint8_linear_960_664" x1="43.8932" y1="13.5" x2="57.1068" y2="13.5" gradientUnits="userSpaceOnUse">
<stop stop-color="#94949B"/>
<stop offset="1" stop-opacity="0"/>
</linearGradient>
<linearGradient id="paint9_linear_960_664" x1="40.8993" y1="27.5003" x2="60.1007" y2="27.5003" gradientUnits="userSpaceOnUse">
<stop stop-color="#94949B"/>
<stop offset="1" stop-opacity="0"/>
</linearGradient>
<linearGradient id="paint10_linear_960_664" x1="21.1997" y1="16.3299" x2="21.5797" y2="99.3104" gradientUnits="userSpaceOnUse">
<stop stop-color="#FF5F1F"/>
<stop offset="0.65" stop-color="#531F0A" stop-opacity="0"/>
<stop offset="1" stop-opacity="0"/>
</linearGradient>
<linearGradient id="paint11_linear_960_664" x1="25.1482" y1="96.931" x2="15.3686" y2="-4.21813" gradientUnits="userSpaceOnUse">
<stop stop-opacity="0"/>
<stop offset="0.27" stop-color="#531F0A" stop-opacity="0"/>
<stop offset="0.64" stop-color="#FF9255"/>
</linearGradient>
<linearGradient id="paint12_linear_960_664" x1="64.8462" y1="111.264" x2="64.8295" y2="79.4637" gradientUnits="userSpaceOnUse">
<stop stop-color="#222227"/>
<stop offset="0.73" stop-color="#121214" stop-opacity="0"/>
<stop offset="1" stop-color="#121214" stop-opacity="0"/>
</linearGradient>
<linearGradient id="paint13_linear_960_664" x1="56.8462" y1="111.264" x2="56.4232" y2="81.261" gradientUnits="userSpaceOnUse">
<stop stop-color="#94949B"/>
<stop offset="1" stop-opacity="0"/>
</linearGradient>
<linearGradient id="paint14_linear_960_664" x1="53.6256" y1="107.151" x2="53.632" y2="111.827" gradientUnits="userSpaceOnUse">
<stop offset="0.0480769" stop-color="#222227"/>
<stop offset="0.533654" stop-color="#121214"/>
<stop offset="1" stop-color="#121214"/>
</linearGradient>
<linearGradient id="paint15_linear_960_664" x1="61.5417" y1="135.302" x2="59.9864" y2="91.2349" gradientUnits="userSpaceOnUse">
<stop stop-opacity="0"/>
<stop offset="1" stop-color="#94949B"/>
</linearGradient>
<linearGradient id="paint16_linear_960_664" x1="79.3747" y1="114.929" x2="51.075" y2="74.1169" gradientUnits="userSpaceOnUse">
<stop stop-color="#222227"/>
<stop offset="0.73" stop-color="#121214"/>
<stop offset="1" stop-color="#121214"/>
</linearGradient>
<linearGradient id="paint17_linear_960_664" x1="73.0023" y1="138.903" x2="94.094" y2="86.3019" gradientUnits="userSpaceOnUse">
<stop stop-color="#94949B"/>
<stop offset="1" stop-color="#121214"/>
</linearGradient>
<linearGradient id="paint18_linear_960_664" x1="104.665" y1="114.903" x2="93.4776" y2="74.4873" gradientUnits="userSpaceOnUse">
<stop stop-color="#222227"/>
<stop offset="0.73" stop-color="#121214" stop-opacity="0"/>
<stop offset="1" stop-color="#121214" stop-opacity="0"/>
</linearGradient>
<linearGradient id="paint19_linear_960_664" x1="93.6541" y1="132.03" x2="120.769" y2="93.8715" gradientUnits="userSpaceOnUse">
<stop stop-color="#94949B"/>
<stop offset="1" stop-opacity="0"/>
</linearGradient>
<linearGradient id="paint20_linear_960_664" x1="111.677" y1="51" x2="99.1768" y2="96" gradientUnits="userSpaceOnUse">
<stop offset="0.0480769" stop-color="#222227"/>
<stop offset="0.533654" stop-color="#121214"/>
<stop offset="1" stop-color="#121214"/>
</linearGradient>
<linearGradient id="paint21_linear_960_664" x1="142.677" y1="117.5" x2="86.1768" y2="26.5" gradientUnits="userSpaceOnUse">
<stop stop-opacity="0"/>
<stop offset="1" stop-color="#94949B"/>
</linearGradient>
<linearGradient id="paint22_linear_960_664" x1="46.5354" y1="65.9713" x2="106.198" y2="54.5174" gradientUnits="userSpaceOnUse">
<stop stop-color="#FF5F1F"/>
<stop offset="0.65" stop-color="#531F0A" stop-opacity="0"/>
<stop offset="1" stop-opacity="0"/>
</linearGradient>
<linearGradient id="paint23_linear_960_664" x1="56.2749" y1="68.0855" x2="71.6698" y2="52.22" gradientUnits="userSpaceOnUse">
<stop offset="0.110577" stop-color="#FF9255"/>
<stop offset="0.423077" stop-color="#531F0A" stop-opacity="0"/>
<stop offset="1" stop-opacity="0"/>
</linearGradient>
<linearGradient id="paint24_linear_960_664" x1="48.6346" y1="51.2058" x2="118.375" y2="48.4718" gradientUnits="userSpaceOnUse">
<stop stop-color="#FF5F1F"/>
<stop offset="0.65" stop-color="#531F0A" stop-opacity="0"/>
<stop offset="1" stop-opacity="0"/>
</linearGradient>
<linearGradient id="paint25_linear_960_664" x1="59.1805" y1="51.3919" x2="74.8137" y2="30.6168" gradientUnits="userSpaceOnUse">
<stop offset="0.110577" stop-color="#FF9255"/>
<stop offset="0.423077" stop-color="#531F0A" stop-opacity="0"/>
<stop offset="1" stop-opacity="0"/>
</linearGradient>
<clipPath id="clip0_960_664">
<rect width="136" height="112" fill="white"/>
</clipPath>
<clipPath id="clip1_960_664">
<rect width="32" height="69" fill="white" transform="translate(5 -3)"/>
</clipPath>
</defs>
</svg>
