<svg width="137" height="112" viewBox="0 0 137 112" fill="none" xmlns="http://www.w3.org/2000/svg">
<g clip-path="url(#clip0_960_696)">
<path d="M9.8418 1.5H114.158C118.811 1.50004 122.5 4.91926 122.5 9.03906V70.9609C122.5 75.0807 118.811 78.5 114.158 78.5H9.8418C5.18888 78.5 1.5 75.0807 1.5 70.9609V9.03906C1.5 4.91926 5.18888 1.50004 9.8418 1.5Z" fill="url(#paint0_linear_960_696)" stroke="url(#paint1_linear_960_696)" stroke-miterlimit="10"/>
<path d="M9.26172 1.5H106.738C111.038 1.50019 114.5 4.88844 114.5 9.03906V70.9609C114.5 75.1116 111.038 78.4998 106.738 78.5H9.26172C4.96201 78.4998 1.5 75.1116 1.5 70.9609V9.03906C1.5 5.01809 4.7491 1.7125 8.86133 1.50977L9.26172 1.5Z" fill="url(#paint2_linear_960_696)" stroke="url(#paint3_linear_960_696)" stroke-miterlimit="10"/>
<g clip-path="url(#clip1_960_696)">
<path d="M44.2771 42.0211C44.2771 30.2711 54.0025 20.746 65.9995 20.746C77.9964 20.746 87.7218 30.2711 87.7218 42.0211" fill="url(#paint4_linear_960_696)"/>
<path d="M44.2771 42.0211C44.2771 30.2711 54.0025 20.746 65.9995 20.746C77.9964 20.746 87.7218 30.2711 87.7218 42.0211" stroke="url(#paint5_linear_960_696)" stroke-miterlimit="10"/>
<path d="M39.001 20.746H92.9988" stroke="url(#paint6_linear_960_696)" stroke-miterlimit="10"/>
<path d="M87.7105 46.1316C90.5882 46.1316 92.9211 43.7988 92.9211 40.9211C92.9211 38.0434 90.5882 35.7106 87.7105 35.7106C84.8328 35.7106 82.5 38.0434 82.5 40.9211C82.5 43.7988 84.8328 46.1316 87.7105 46.1316Z" fill="url(#paint7_linear_960_696)" stroke="url(#paint8_linear_960_696)" stroke-miterlimit="10"/>
<path d="M44.2894 46.1316C47.1671 46.1316 49.4999 43.7988 49.4999 40.9211C49.4999 38.0434 47.1671 35.7106 44.2894 35.7106C41.4117 35.7106 39.0789 38.0434 39.0789 40.9211C39.0789 43.7988 41.4117 46.1316 44.2894 46.1316Z" fill="url(#paint9_linear_960_696)" stroke="url(#paint10_linear_960_696)" stroke-miterlimit="10"/>
<path d="M66.8685 26.1579C69.7462 26.1579 72.079 23.825 72.079 20.9473C72.079 18.0696 69.7462 15.7368 66.8685 15.7368C63.9908 15.7368 61.658 18.0696 61.658 20.9473C61.658 23.825 63.9908 26.1579 66.8685 26.1579Z" fill="url(#paint11_linear_960_696)" stroke="url(#paint12_linear_960_696)" stroke-miterlimit="10"/>
<path d="M35.0461 14.5452H42.9553C43.7837 14.5452 44.4553 15.2167 44.4553 16.0452V23.7092C44.4553 24.5377 43.7837 25.2092 42.9553 25.2092H35.0461C34.2177 25.2092 33.5461 24.5377 33.5461 23.7092V16.0452C33.5461 15.2167 34.2177 14.5452 35.0461 14.5452Z" fill="url(#paint13_linear_960_696)" stroke="url(#paint14_linear_960_696)" stroke-miterlimit="10"/>
<path d="M89.0439 14.5452H96.9531C97.7816 14.5452 98.4531 15.2167 98.4531 16.0452V23.7092C98.4531 24.5377 97.7816 25.2092 96.9531 25.2092H89.0439C88.2155 25.2092 87.5439 24.5377 87.5439 23.7092V16.0452C87.5439 15.2167 88.2155 14.5452 89.0439 14.5452Z" fill="url(#paint15_linear_960_696)" stroke="url(#paint16_linear_960_696)" stroke-miterlimit="10"/>
</g>
<path d="M21 8L21 69" stroke="url(#paint17_linear_960_696)" stroke-miterlimit="10"/>
<rect x="9" y="18" width="5" height="4" fill="url(#paint18_linear_960_696)" stroke="url(#paint19_linear_960_696)" stroke-miterlimit="10"/>
<path d="M9 27H14V31H9V27Z" fill="url(#paint20_linear_960_696)" stroke="url(#paint21_linear_960_696)" stroke-miterlimit="10"/>
<path d="M77.5 80.106H49.5C48.6716 80.106 48 80.7775 48 81.606V103.606C48 104.434 48.6716 105.106 49.5 105.106H77.5C78.3284 105.106 79 104.434 79 103.606V81.606C79 80.7775 78.3284 80.106 77.5 80.106Z" fill="url(#paint22_linear_960_696)" stroke="url(#paint23_linear_960_696)" stroke-miterlimit="10"/>
<path d="M73.5 104.5H37.5C36.6716 104.5 36 105.172 36 106V109.5C36 110.328 36.6716 111 37.5 111H73.5C74.3284 111 75 110.328 75 109.5V106C75 105.172 74.3284 104.5 73.5 104.5Z" fill="url(#paint24_linear_960_696)" stroke="url(#paint25_linear_960_696)" stroke-miterlimit="10"/>
<path d="M78.0772 79.9997V103.106C78.0772 103.934 77.4056 104.606 76.5772 104.606H72.5C71.6716 104.606 71 105.277 71 106.106V109.5C71 110.328 71.6716 111 72.5 111H78.0772H81C82.6569 111 84 109.657 84 108V104.606V79.9997H78.0772Z" fill="url(#paint26_linear_960_696)" stroke="url(#paint27_linear_960_696)" stroke-miterlimit="10"/>
<path d="M136.861 86.4337L131.822 73.3349L125.05 55.7311C123.365 51.3444 120.024 47.9998 115.886 46.283C113.958 45.4768 111.844 45.0255 109.654 45.0019C102.777 44.9146 96.6293 48.9634 93.9959 55.328L81.1588 86.2893C80.5094 87.856 81.9573 89.4814 83.5845 89.0106C88.2223 87.6683 93.0695 88.0469 97.3276 89.8518C97.3349 89.8551 97.3423 89.8584 97.3496 89.8616V98.4669H120.649V90.0518C124.89 88.1905 129.747 87.7703 134.402 89.1036C136.013 89.5654 137.462 87.9996 136.86 86.4337H136.861Z" fill="url(#paint28_linear_960_696)" stroke="url(#paint29_linear_960_696)" stroke-miterlimit="10"/>
<path d="M110.027 63.9709L110.255 63.2767C110.27 62.8545 109.682 62.7426 109.537 63.1379L107.61 68.441L107.601 68.4618L104.053 77.6858L99 75.7398L103.066 65.1708C103.72 63.4661 105.019 62.1665 106.628 61.4988C107.379 61.1852 108.2 61.01 109.052 61.0006C111.725 60.9661 114.117 62.5391 115.141 65.0121L119.476 75.455L114.477 77.5333L110.142 67.0904C109.729 66.0983 109.69 64.9909 110.027 63.9709L110.027 63.9709Z" fill="url(#paint30_linear_960_696)" stroke="url(#paint31_linear_960_696)" stroke-miterlimit="10"/>
<path d="M125 104H93V110H125V104Z" fill="url(#paint32_linear_960_696)" stroke="url(#paint33_linear_960_696)" stroke-miterlimit="10"/>
</g>
<defs>
<linearGradient id="paint0_linear_960_696" x1="38.6874" y1="8.74393" x2="86.1275" y2="85.6918" gradientUnits="userSpaceOnUse">
<stop stop-color="#222227"/>
<stop offset="0.73" stop-color="#121214" stop-opacity="0"/>
<stop offset="1" stop-color="#121214" stop-opacity="0"/>
</linearGradient>
<linearGradient id="paint1_linear_960_696" x1="32.0351" y1="-8" x2="90.3469" y2="94.9901" gradientUnits="userSpaceOnUse">
<stop stop-color="#C0C0CA"/>
<stop offset="1" stop-opacity="0"/>
</linearGradient>
<linearGradient id="paint2_linear_960_696" x1="36.2161" y1="8.74393" x2="85.0322" y2="82.7315" gradientUnits="userSpaceOnUse">
<stop stop-color="#222227"/>
<stop offset="0.73" stop-color="#121214" stop-opacity="0"/>
<stop offset="1" stop-color="#121214" stop-opacity="0"/>
</linearGradient>
<linearGradient id="paint3_linear_960_696" x1="30" y1="-8" x2="90.2781" y2="91.4818" gradientUnits="userSpaceOnUse">
<stop stop-color="#C0C0CA"/>
<stop offset="1" stop-opacity="0"/>
</linearGradient>
<linearGradient id="paint4_linear_960_696" x1="58.1004" y1="21.8657" x2="57.9417" y2="61.064" gradientUnits="userSpaceOnUse">
<stop offset="0.0384615" stop-color="#222227"/>
<stop offset="0.418269" stop-color="#121214" stop-opacity="0"/>
<stop offset="0.8125" stop-color="#121214" stop-opacity="0"/>
</linearGradient>
<linearGradient id="paint5_linear_960_696" x1="50.2014" y1="20.746" x2="50.2014" y2="35.3026" gradientUnits="userSpaceOnUse">
<stop stop-color="#94949B"/>
<stop offset="0.817308" stop-color="#94949B" stop-opacity="0"/>
</linearGradient>
<linearGradient id="paint6_linear_960_696" x1="46.3643" y1="20.746" x2="46.3643" y2="21.4302" gradientUnits="userSpaceOnUse">
<stop stop-color="#94949B"/>
<stop offset="0.817308" stop-color="#94949B" stop-opacity="0"/>
</linearGradient>
<linearGradient id="paint7_linear_960_696" x1="89.8816" y1="35.7106" x2="84.374" y2="50.2422" gradientUnits="userSpaceOnUse">
<stop stop-color="#FF5F1F"/>
<stop offset="0.65" stop-color="#531F0A"/>
<stop offset="1" stop-color="#222227"/>
</linearGradient>
<linearGradient id="paint8_linear_960_696" x1="86.9505" y1="35.4637" x2="87.3543" y2="58.9014" gradientUnits="userSpaceOnUse">
<stop stop-color="#FF9255"/>
<stop offset="0.44" stop-color="#531F0A" stop-opacity="0"/>
<stop offset="1" stop-opacity="0"/>
</linearGradient>
<linearGradient id="paint9_linear_960_696" x1="46.4604" y1="35.7106" x2="40.9529" y2="50.2422" gradientUnits="userSpaceOnUse">
<stop stop-color="#FF5F1F"/>
<stop offset="0.65" stop-color="#531F0A"/>
<stop offset="1" stop-color="#222227"/>
</linearGradient>
<linearGradient id="paint10_linear_960_696" x1="43.5294" y1="35.4637" x2="43.9332" y2="58.9014" gradientUnits="userSpaceOnUse">
<stop stop-color="#FF9255"/>
<stop offset="0.44" stop-color="#531F0A" stop-opacity="0"/>
<stop offset="1" stop-opacity="0"/>
</linearGradient>
<linearGradient id="paint11_linear_960_696" x1="69.0395" y1="15.7368" x2="63.532" y2="30.2684" gradientUnits="userSpaceOnUse">
<stop stop-color="#FF5F1F"/>
<stop offset="0.65" stop-color="#531F0A"/>
<stop offset="1" stop-color="#222227"/>
</linearGradient>
<linearGradient id="paint12_linear_960_696" x1="66.1085" y1="15.4899" x2="66.5123" y2="38.9276" gradientUnits="userSpaceOnUse">
<stop stop-color="#FF9255"/>
<stop offset="0.44" stop-color="#531F0A" stop-opacity="0"/>
<stop offset="1" stop-opacity="0"/>
</linearGradient>
<linearGradient id="paint13_linear_960_696" x1="35.5681" y1="23.3532" x2="49.1684" y2="12.3818" gradientUnits="userSpaceOnUse">
<stop stop-color="#222227"/>
<stop offset="0.769231" stop-color="#121214"/>
<stop offset="1" stop-color="#121214"/>
</linearGradient>
<linearGradient id="paint14_linear_960_696" x1="34.7816" y1="15.1752" x2="45.3396" y2="25.2156" gradientUnits="userSpaceOnUse">
<stop stop-color="#94949B"/>
<stop offset="1" stop-color="#94949B" stop-opacity="0"/>
</linearGradient>
<linearGradient id="paint15_linear_960_696" x1="89.5659" y1="23.3532" x2="103.166" y2="12.3818" gradientUnits="userSpaceOnUse">
<stop stop-color="#222227"/>
<stop offset="0.769231" stop-color="#121214"/>
<stop offset="1" stop-color="#121214"/>
</linearGradient>
<linearGradient id="paint16_linear_960_696" x1="88.7794" y1="15.1752" x2="99.3374" y2="25.2156" gradientUnits="userSpaceOnUse">
<stop stop-color="#94949B"/>
<stop offset="1" stop-color="#94949B" stop-opacity="0"/>
</linearGradient>
<linearGradient id="paint17_linear_960_696" x1="21.1154" y1="23.5175" x2="19.3721" y2="23.5429" gradientUnits="userSpaceOnUse">
<stop stop-color="#C0C0CA" stop-opacity="0.5"/>
<stop offset="1" stop-opacity="0"/>
</linearGradient>
<linearGradient id="paint18_linear_960_696" x1="12.6161" y1="16.1939" x2="22.963" y2="25.5129" gradientUnits="userSpaceOnUse">
<stop stop-color="#FF5F1F"/>
<stop offset="0.65" stop-color="#531F0A" stop-opacity="0"/>
<stop offset="1" stop-opacity="0"/>
</linearGradient>
<linearGradient id="paint19_linear_960_696" x1="10.968" y1="17.9521" x2="14.1473" y2="33.9175" gradientUnits="userSpaceOnUse">
<stop stop-color="#FF9255"/>
<stop offset="0.423077" stop-color="#531F0A" stop-opacity="0"/>
<stop offset="1" stop-opacity="0"/>
</linearGradient>
<linearGradient id="paint20_linear_960_696" x1="10.162" y1="53" x2="10.4209" y2="24.1503" gradientUnits="userSpaceOnUse">
<stop stop-color="#121214"/>
<stop offset="0.27" stop-color="#121214"/>
<stop offset="1" stop-color="#222227"/>
</linearGradient>
<linearGradient id="paint21_linear_960_696" x1="11.7817" y1="34.5" x2="8.79432" y2="28.2222" gradientUnits="userSpaceOnUse">
<stop stop-color="#121214"/>
<stop offset="1" stop-color="#94949B"/>
</linearGradient>
<linearGradient id="paint22_linear_960_696" x1="65.2885" y1="105.326" x2="65.2765" y2="78.8257" gradientUnits="userSpaceOnUse">
<stop stop-color="#222227"/>
<stop offset="0.73" stop-color="#121214" stop-opacity="0"/>
<stop offset="1" stop-color="#121214" stop-opacity="0"/>
</linearGradient>
<linearGradient id="paint23_linear_960_696" x1="57.5385" y1="105.326" x2="57.2353" y2="80.3221" gradientUnits="userSpaceOnUse">
<stop stop-color="#94949B"/>
<stop offset="1" stop-opacity="0"/>
</linearGradient>
<linearGradient id="paint24_linear_960_696" x1="54.6256" y1="105.747" x2="54.633" y2="110.812" gradientUnits="userSpaceOnUse">
<stop offset="0.0480769" stop-color="#222227"/>
<stop offset="0.533654" stop-color="#121214"/>
<stop offset="1" stop-color="#121214"/>
</linearGradient>
<linearGradient id="paint25_linear_960_696" x1="62.5417" y1="136.244" x2="60.7168" y2="88.5147" gradientUnits="userSpaceOnUse">
<stop stop-opacity="0"/>
<stop offset="1" stop-color="#94949B"/>
</linearGradient>
<linearGradient id="paint26_linear_960_696" x1="80.3747" y1="113.929" x2="52.075" y2="73.1169" gradientUnits="userSpaceOnUse">
<stop stop-color="#222227"/>
<stop offset="0.73" stop-color="#121214"/>
<stop offset="1" stop-color="#121214"/>
</linearGradient>
<linearGradient id="paint27_linear_960_696" x1="74.0023" y1="137.903" x2="95.094" y2="85.3019" gradientUnits="userSpaceOnUse">
<stop stop-color="#94949B"/>
<stop offset="1" stop-color="#121214"/>
</linearGradient>
<linearGradient id="paint28_linear_960_696" x1="92.8585" y1="87.6662" x2="155.516" y2="35.8156" gradientUnits="userSpaceOnUse">
<stop stop-color="#222227"/>
<stop offset="0.73" stop-color="#121214" stop-opacity="0"/>
<stop offset="1" stop-color="#121214" stop-opacity="0"/>
</linearGradient>
<linearGradient id="paint29_linear_960_696" x1="89.16" y1="50.1803" x2="137.602" y2="97.4358" gradientUnits="userSpaceOnUse">
<stop stop-color="#94949B"/>
<stop offset="1" stop-color="#94949B" stop-opacity="0"/>
</linearGradient>
<linearGradient id="paint30_linear_960_696" x1="96" y1="72.186" x2="151.279" y2="40.1095" gradientUnits="userSpaceOnUse">
<stop stop-color="#FF5F1F"/>
<stop offset="0.65" stop-color="#531F0A" stop-opacity="0"/>
<stop offset="1" stop-opacity="0"/>
</linearGradient>
<linearGradient id="paint31_linear_960_696" x1="98.7549" y1="67.5674" x2="122.755" y2="77.5674" gradientUnits="userSpaceOnUse">
<stop offset="0.110577" stop-color="#FF9255"/>
<stop offset="0.423077" stop-color="#531F0A" stop-opacity="0"/>
<stop offset="1" stop-opacity="0"/>
</linearGradient>
<linearGradient id="paint32_linear_960_696" x1="99.7764" y1="108.788" x2="102.993" y2="95.2355" gradientUnits="userSpaceOnUse">
<stop stop-color="#222227"/>
<stop offset="0.73" stop-color="#121214" stop-opacity="0"/>
<stop offset="1" stop-color="#121214" stop-opacity="0"/>
</linearGradient>
<linearGradient id="paint33_linear_960_696" x1="97.6629" y1="104.581" x2="99.767" y2="115.033" gradientUnits="userSpaceOnUse">
<stop stop-color="#94949B"/>
<stop offset="1" stop-color="#94949B" stop-opacity="0"/>
</linearGradient>
<clipPath id="clip0_960_696">
<rect width="137" height="112" fill="white"/>
</clipPath>
<clipPath id="clip1_960_696">
<rect width="66" height="33" fill="white" transform="translate(33 14)"/>
</clipPath>
</defs>
</svg>
