<svg width="136" height="111" viewBox="0 0 136 111" fill="none" xmlns="http://www.w3.org/2000/svg">
<g clip-path="url(#clip0_960_1482)">
<g clip-path="url(#clip1_960_1482)">
<path d="M114.158 1H9.84188C4.95864 1 1 4.59909 1 9.0388V70.9612C1 75.4009 4.95864 79 9.84188 79H114.158C119.041 79 123 75.4009 123 70.9612V9.0388C123 4.59909 119.041 1 114.158 1Z" fill="url(#paint0_linear_960_1482)"/>
<path d="M106.738 0.5L107.188 0.510742C111.806 0.738609 115.5 4.4581 115.5 9.03906V70.9609C115.5 75.6895 111.564 79.4998 106.738 79.5H9.26172C4.43572 79.4998 0.5 75.6895 0.5 70.9609V9.03906C0.5 4.31051 4.43572 0.500192 9.26172 0.5H106.738Z" fill="url(#paint1_linear_960_1482)" stroke="white" stroke-miterlimit="10"/>
<g clip-path="url(#clip2_960_1482)">
<mask id="path-3-outside-1_960_1482" maskUnits="userSpaceOnUse" x="43.2773" y="19.7461" width="46" height="23" fill="black">
<rect fill="white" x="43.2773" y="19.7461" width="46" height="23"/>
<path d="M44.2773 42.0212C44.2773 30.2713 54.0028 20.7461 65.9997 20.7461C77.9967 20.7461 87.7221 30.2713 87.7221 42.0212"/>
</mask>
<path d="M44.2773 42.0212C44.2773 30.2713 54.0028 20.7461 65.9997 20.7461C77.9967 20.7461 87.7221 30.2713 87.7221 42.0212" fill="url(#paint2_linear_960_1482)"/>
<path d="M44.2773 42.0212H45.2773C45.2773 30.8431 54.5353 21.7461 65.9997 21.7461V20.7461V19.7461C53.4702 19.7461 43.2773 29.6995 43.2773 42.0212H44.2773ZM65.9997 20.7461V21.7461C77.4641 21.7461 86.7221 30.8431 86.7221 42.0212H87.7221H88.7221C88.7221 29.6995 78.5292 19.7461 65.9997 19.7461V20.7461Z" fill="white" mask="url(#path-3-outside-1_960_1482)"/>
<path d="M39.001 20.7461H92.9988" stroke="white" stroke-miterlimit="10"/>
<path d="M87.7109 35.2109C90.8646 35.2112 93.4209 37.7682 93.4209 40.9219C93.4207 44.0754 90.8644 46.6316 87.7109 46.6318C84.5572 46.6318 82.0002 44.0755 82 40.9219C82 37.768 84.5571 35.2109 87.7109 35.2109Z" fill="url(#paint3_linear_960_1482)" stroke="url(#paint4_linear_960_1482)" stroke-miterlimit="10"/>
<path d="M44.29 35.2109C47.4437 35.2112 50 37.7682 50 40.9219C49.9998 44.0754 47.4435 46.6316 44.29 46.6318C41.1363 46.6318 38.5793 44.0755 38.5791 40.9219C38.5791 37.768 41.1362 35.2109 44.29 35.2109Z" fill="url(#paint5_linear_960_1482)" stroke="url(#paint6_linear_960_1482)" stroke-miterlimit="10"/>
<path d="M66.8687 15.2373C70.0223 15.2375 72.5786 17.7945 72.5786 20.9482C72.5784 24.1018 70.0222 26.658 66.8687 26.6582C63.715 26.6582 61.1579 24.1019 61.1577 20.9482C61.1577 17.7944 63.7148 15.2373 66.8687 15.2373Z" fill="url(#paint7_linear_960_1482)" stroke="url(#paint8_linear_960_1482)" stroke-miterlimit="10"/>
<path d="M43.4556 13.5449C44.5601 13.5449 45.4556 14.4404 45.4556 15.5449V24.209C45.4556 25.3136 44.5601 26.209 43.4556 26.209H34.5464C33.4418 26.209 32.5464 25.3136 32.5464 24.209V15.5449C32.5464 14.4404 33.4418 13.5449 34.5464 13.5449H43.4556Z" fill="url(#paint9_linear_960_1482)" stroke="white" stroke-miterlimit="10"/>
<path d="M97.4531 13.5449C98.5577 13.5449 99.4531 14.4404 99.4531 15.5449V24.209C99.4531 25.3136 98.5577 26.209 97.4531 26.209H88.5439C87.4394 26.209 86.5439 25.3136 86.5439 24.209V15.5449C86.5439 14.4404 87.4394 13.5449 88.5439 13.5449H97.4531Z" fill="url(#paint10_linear_960_1482)" stroke="white" stroke-miterlimit="10"/>
</g>
<path d="M21 8L21 69" stroke="white" stroke-miterlimit="10"/>
<rect x="8.5" y="17.5" width="6" height="5" fill="url(#paint11_linear_960_1482)" stroke="url(#paint12_linear_960_1482)" stroke-miterlimit="10"/>
<rect x="9" y="27" width="5" height="4" fill="url(#paint13_linear_960_1482)"/>
<path d="M79 80.106H48V105.106H79V80.106Z" fill="url(#paint14_linear_960_1482)"/>
<path d="M73.5 104.5H37.5C36.6716 104.5 36 105.172 36 106V109.5C36 110.328 36.6716 111 37.5 111H73.5C74.3284 111 75 110.328 75 109.5V106C75 105.172 74.3284 104.5 73.5 104.5Z" fill="url(#paint15_linear_960_1482)"/>
<path d="M84.5 79.5V108C84.4999 109.933 82.9329 111.5 81 111.5H72.5C71.3955 111.5 70.5001 110.604 70.5 109.5V106.106C70.5 105.002 71.3954 104.106 72.5 104.106H76.5771C77.1293 104.106 77.5769 103.659 77.5771 103.106V79.5H84.5Z" fill="url(#paint16_linear_960_1482)" stroke="white" stroke-miterlimit="10"/>
<g clip-path="url(#clip3_960_1482)">
<path d="M132.639 53.5C135.188 53.5 136.454 56.5906 134.659 58.3936L110.729 82.4346C110.38 82.7847 110.184 83.2595 110.184 83.7549V108.569C110.184 110.708 107.968 112.131 106.031 111.221L95.0547 106.064C93.0785 105.136 91.8165 103.144 91.8164 100.954V83.7559C91.8164 83.2598 91.6202 82.7849 91.2715 82.4346L67.3408 58.3945C65.5461 56.5916 66.8123 53.501 69.3613 53.501H132.429L132.43 53.5H132.639Z" fill="url(#paint17_linear_960_1482)" stroke="white" stroke-miterlimit="10"/>
<path d="M99.5178 59.8203L101.119 63.9775L101.123 63.9873L101.127 63.9961L101.339 64.5801L103.295 59.877L103.488 59.415L103.948 59.6074L106.205 60.5439L106.667 60.7354L106.476 61.1973L104.519 65.9053C103.978 67.209 102.712 68.0384 101.302 68.0205C100.853 68.0155 100.419 67.9235 100.022 67.7578C99.1707 67.405 98.4841 66.7188 98.1389 65.8213L96.303 61.0566L96.1233 60.5898L96.5901 60.4102L98.8713 59.5332L99.3381 59.3535L99.5178 59.8203Z" fill="url(#paint18_linear_960_1482)" stroke="url(#paint19_linear_960_1482)" stroke-miterlimit="10"/>
<path d="M110.267 64.583L111.145 66.8623L111.324 67.3291L110.857 67.5088L106.696 69.1094L106.688 69.1133L106.678 69.1172L106.094 69.3281L110.801 71.2832L111.263 71.4746L111.07 71.9365L110.133 74.1914L109.941 74.6533L109.479 74.4619L104.769 72.5059C103.464 71.9654 102.632 70.7012 102.65 69.291C102.655 68.8424 102.749 68.4092 102.914 68.0127H102.913C103.266 67.1618 103.954 66.4748 104.853 66.1299L109.62 64.2959L110.087 64.1162L110.267 64.583Z" fill="url(#paint20_linear_960_1482)" stroke="url(#paint21_linear_960_1482)" stroke-miterlimit="10"/>
<path d="M93.209 64.2041L97.917 66.167C99.22 66.7093 100.049 67.9742 100.029 69.3838L100.03 69.3848C100.028 69.5841 100.006 69.7804 99.9707 69.9717H100.054L99.7656 70.6641C99.411 71.5145 98.7221 72.1993 97.8232 72.543L93.0527 74.3701L92.5859 74.5488L92.4072 74.082L91.5332 71.8008L91.3545 71.334L91.8213 71.1553L95.9766 69.5625L95.9834 69.5605L95.9932 69.5566L96.0029 69.5537L96.5869 69.3418L91.8828 67.3809L91.4219 67.1885L91.6143 66.7266L92.5557 64.4736L92.748 64.0127L93.209 64.2041Z" fill="url(#paint22_linear_960_1482)" stroke="url(#paint23_linear_960_1482)" stroke-miterlimit="10"/>
</g>
</g>
</g>
<defs>
<linearGradient id="paint0_linear_960_1482" x1="19" y1="-59.7763" x2="121.085" y2="93.3322" gradientUnits="userSpaceOnUse">
<stop stop-color="white" stop-opacity="0"/>
<stop offset="0.190127" stop-color="white" stop-opacity="0"/>
<stop offset="1" stop-color="#D9D9DC"/>
</linearGradient>
<linearGradient id="paint1_linear_960_1482" x1="-24.5" y1="-36.6712" x2="89.4945" y2="71.9812" gradientUnits="userSpaceOnUse">
<stop stop-color="white"/>
<stop offset="0.437462" stop-color="#F9F9F9"/>
<stop offset="1" stop-color="#D9D9DC"/>
</linearGradient>
<linearGradient id="paint2_linear_960_1482" x1="34.5594" y1="10.471" x2="77.8136" y2="40.2483" gradientUnits="userSpaceOnUse">
<stop stop-color="white"/>
<stop offset="0.437462" stop-color="#F9F9F9" stop-opacity="0"/>
<stop offset="1" stop-color="#D9D9DC" stop-opacity="0"/>
</linearGradient>
<linearGradient id="paint3_linear_960_1482" x1="83.0752" y1="44.5981" x2="103.204" y2="12.2706" gradientUnits="userSpaceOnUse">
<stop stop-color="#FF5F1F"/>
<stop offset="1" stop-color="#FF5F1F"/>
</linearGradient>
<linearGradient id="paint4_linear_960_1482" x1="87.7105" y1="35.7109" x2="87.7105" y2="46.132" gradientUnits="userSpaceOnUse">
<stop stop-color="#F3F3F3" stop-opacity="0"/>
<stop offset="0.466346" stop-color="white"/>
</linearGradient>
<linearGradient id="paint5_linear_960_1482" x1="39.6543" y1="44.5981" x2="59.7831" y2="12.2706" gradientUnits="userSpaceOnUse">
<stop stop-color="#FF5F1F"/>
<stop offset="1" stop-color="#FF5F1F"/>
</linearGradient>
<linearGradient id="paint6_linear_960_1482" x1="44.2896" y1="35.7109" x2="44.2896" y2="46.132" gradientUnits="userSpaceOnUse">
<stop stop-color="#F3F3F3" stop-opacity="0"/>
<stop offset="0.466346" stop-color="white"/>
</linearGradient>
<linearGradient id="paint7_linear_960_1482" x1="62.2329" y1="24.6245" x2="82.3617" y2="-7.70303" gradientUnits="userSpaceOnUse">
<stop stop-color="#FF5F1F"/>
<stop offset="1" stop-color="#FF5F1F"/>
</linearGradient>
<linearGradient id="paint8_linear_960_1482" x1="66.8682" y1="15.7373" x2="66.8682" y2="26.1584" gradientUnits="userSpaceOnUse">
<stop stop-color="#F3F3F3" stop-opacity="0"/>
<stop offset="0.466346" stop-color="white"/>
</linearGradient>
<linearGradient id="paint9_linear_960_1482" x1="30.3824" y1="8.41147" x2="46.1289" y2="18.8964" gradientUnits="userSpaceOnUse">
<stop stop-color="white"/>
<stop offset="0.437462" stop-color="#F9F9F9"/>
<stop offset="1" stop-color="#D9D9DC"/>
</linearGradient>
<linearGradient id="paint10_linear_960_1482" x1="84.38" y1="8.41147" x2="100.126" y2="18.8964" gradientUnits="userSpaceOnUse">
<stop stop-color="white"/>
<stop offset="0.437462" stop-color="#F9F9F9"/>
<stop offset="1" stop-color="#D9D9DC"/>
</linearGradient>
<linearGradient id="paint11_linear_960_1482" x1="9.27597" y1="21.4112" x2="16.1481" y2="7.61512" gradientUnits="userSpaceOnUse">
<stop stop-color="#FF5F1F"/>
<stop offset="1" stop-color="#FF5F1F"/>
</linearGradient>
<linearGradient id="paint12_linear_960_1482" x1="11.5" y1="18" x2="11.5" y2="22" gradientUnits="userSpaceOnUse">
<stop stop-color="#F3F3F3" stop-opacity="0"/>
<stop offset="0.466346" stop-color="white"/>
</linearGradient>
<linearGradient id="paint13_linear_960_1482" x1="9" y1="40" x2="7.56295" y2="27.575" gradientUnits="userSpaceOnUse">
<stop stop-color="white" stop-opacity="0"/>
<stop offset="0.264423" stop-color="white" stop-opacity="0"/>
<stop offset="0.649038" stop-color="#D9D9DC"/>
</linearGradient>
<linearGradient id="paint14_linear_960_1482" x1="54" y1="110.662" x2="51.0272" y2="82.2238" gradientUnits="userSpaceOnUse">
<stop stop-color="white" stop-opacity="0"/>
<stop offset="0.178835" stop-color="white" stop-opacity="0"/>
<stop offset="1" stop-color="#D9D9DC"/>
</linearGradient>
<linearGradient id="paint15_linear_960_1482" x1="56" y1="53.2377" x2="58.5228" y2="120.543" gradientUnits="userSpaceOnUse">
<stop stop-color="white" stop-opacity="0"/>
<stop offset="0.465494" stop-color="white" stop-opacity="0"/>
<stop offset="1" stop-color="#D9D9DC"/>
</linearGradient>
<linearGradient id="paint16_linear_960_1482" x1="81" y1="138.662" x2="56.868" y2="90.4118" gradientUnits="userSpaceOnUse">
<stop stop-color="white"/>
<stop offset="0.27" stop-color="white"/>
<stop offset="1" stop-color="#D9D9DC"/>
</linearGradient>
<linearGradient id="paint17_linear_960_1482" x1="51.7895" y1="26.471" x2="132.629" y2="89.3638" gradientUnits="userSpaceOnUse">
<stop stop-color="white"/>
<stop offset="0.437462" stop-color="#F9F9F9"/>
<stop offset="1" stop-color="#D9D9DC"/>
</linearGradient>
<linearGradient id="paint18_linear_960_1482" x1="97.28" y1="66.4144" x2="110.334" y2="40.649" gradientUnits="userSpaceOnUse">
<stop stop-color="#FF5F1F"/>
<stop offset="1" stop-color="#FF5F1F"/>
</linearGradient>
<linearGradient id="paint19_linear_960_1482" x1="101.392" y1="60" x2="101.392" y2="67.5215" gradientUnits="userSpaceOnUse">
<stop stop-color="#F3F3F3" stop-opacity="0"/>
<stop offset="0.466346" stop-color="white"/>
</linearGradient>
<linearGradient id="paint20_linear_960_1482" x1="103.566" y1="72.6402" x2="122.749" y2="47.5341" gradientUnits="userSpaceOnUse">
<stop stop-color="#FF5F1F"/>
<stop offset="1" stop-color="#FF5F1F"/>
</linearGradient>
<linearGradient id="paint21_linear_960_1482" x1="106.914" y1="64.7627" x2="106.914" y2="73.9999" gradientUnits="userSpaceOnUse">
<stop stop-color="#F3F3F3" stop-opacity="0"/>
<stop offset="0.466346" stop-color="white"/>
</linearGradient>
<linearGradient id="paint22_linear_960_1482" x1="92.4156" y1="72.5434" x2="111.597" y2="47.4299" gradientUnits="userSpaceOnUse">
<stop stop-color="#FF5F1F"/>
<stop offset="1" stop-color="#FF5F1F"/>
</linearGradient>
<linearGradient id="paint23_linear_960_1482" x1="95.7651" y1="64.666" x2="95.7651" y2="73.903" gradientUnits="userSpaceOnUse">
<stop stop-color="#F3F3F3" stop-opacity="0"/>
<stop offset="0.466346" stop-color="white"/>
</linearGradient>
<clipPath id="clip0_960_1482">
<rect width="136" height="111" fill="white"/>
</clipPath>
<clipPath id="clip1_960_1482">
<rect width="137" height="112" fill="white"/>
</clipPath>
<clipPath id="clip2_960_1482">
<rect width="71" height="35" fill="white" transform="translate(31 12)"/>
</clipPath>
<clipPath id="clip3_960_1482">
<rect width="69" height="83" fill="white" transform="translate(66 28)"/>
</clipPath>
</defs>
</svg>
