<svg width="137" height="112" viewBox="0 0 137 112" fill="none" xmlns="http://www.w3.org/2000/svg">
<g clip-path="url(#clip0_960_1333)">
<path d="M78 77.4995H47V104.5H78V77.4995Z" fill="url(#paint0_linear_960_1333)"/>
<path d="M73.5 104.029H37.5C36.6716 104.029 36 104.701 36 105.529V109C36 109.828 36.6716 110.5 37.5 110.5H73.5C74.3284 110.5 75 109.828 75 109V105.529C75 104.701 74.3284 104.029 73.5 104.029Z" fill="url(#paint1_linear_960_1333)"/>
<path d="M84.5 77.5V107.5C84.4998 109.433 82.9329 111 81 111H72.5C71.3955 111 70.5002 110.104 70.5 109V105.635L70.5107 105.431C70.6131 104.422 71.4644 103.635 72.5 103.635H76.5771C77.1294 103.635 77.5771 103.187 77.5771 102.635V77.5H84.5Z" fill="url(#paint2_linear_960_1333)" stroke="white" stroke-miterlimit="10"/>
<path d="M114.158 1.5H9.84188C4.95864 1.5 1 5.09909 1 9.5388V71.4612C1 75.9009 4.95864 79.5 9.84188 79.5H114.158C119.041 79.5 123 75.9009 123 71.4612V9.5388C123 5.09909 119.041 1.5 114.158 1.5Z" fill="url(#paint3_linear_960_1333)"/>
<path d="M106.738 1L107.188 1.01074C111.804 1.2376 115.5 4.9387 115.5 9.50195V71.1436C115.5 75.8539 111.562 79.6453 106.738 79.6455H9.26172C4.43802 79.6453 0.500196 75.8539 0.5 71.1436V9.50195C0.500168 4.79161 4.438 1.00019 9.26172 1H106.738Z" fill="url(#paint4_linear_960_1333)" stroke="white" stroke-miterlimit="10"/>
<path d="M28.4092 42C29.6556 42.0001 30.4999 43.2019 30.5 44.457V60.543C30.4999 61.7981 29.6556 62.9999 28.4092 63H21.5908C20.3444 62.9999 19.5001 61.7981 19.5 60.543V44.457C19.5001 43.2019 20.3444 42.0001 21.5908 42H28.4092Z" fill="url(#paint5_linear_960_1333)" stroke="url(#paint6_linear_960_1333)" stroke-miterlimit="10"/>
<path d="M45.25 33C46.5483 33.0001 47.5 34.1685 47.5 35.4775V60.5225C47.5 61.8315 46.5483 62.9999 45.25 63H37.75C36.4517 62.9999 35.5 61.8315 35.5 60.5225V35.4775L35.5107 35.2344C35.6199 34.0272 36.5327 33.0001 37.75 33H45.25Z" fill="url(#paint7_linear_960_1333)" stroke="url(#paint8_linear_960_1333)" stroke-miterlimit="10"/>
<path d="M61.25 24L61.4902 24.0137C62.6681 24.1488 63.5 25.2671 63.5 26.501V60.499C63.5 61.8152 62.5534 62.9999 61.25 63H53.75C52.4466 62.9999 51.5 61.8152 51.5 60.499V26.501C51.5 25.1848 52.4466 24.0001 53.75 24H61.25Z" fill="url(#paint9_linear_960_1333)" stroke="url(#paint10_linear_960_1333)" stroke-miterlimit="10"/>
<rect x="82.5" y="18" width="55" height="73" rx="3.5" fill="url(#paint11_linear_960_1333)" stroke="white" stroke-miterlimit="10"/>
<rect x="76.5" y="18" width="55" height="73" rx="3.5" fill="url(#paint12_linear_960_1333)" stroke="white" stroke-miterlimit="10"/>
<path d="M101.772 24.3203L103.656 29.208L103.659 29.2188L103.663 29.2285L103.667 29.2373L104 30.1543C104.024 30.08 104.051 30.0062 104.081 29.9336L106.387 24.3887L106.578 23.9277L107.04 24.1191L109.698 25.2227L110.16 25.4141L109.968 25.876L107.663 31.4209C107.04 32.9229 105.583 33.8779 103.958 33.8574V33.8584C103.441 33.8527 102.941 33.7463 102.484 33.5557V33.5566C101.564 33.1757 100.811 32.4564 100.393 31.5156L100.314 31.3242L98.1516 25.7129L97.9719 25.2461L98.4387 25.0664L101.126 24.0332L101.592 23.8535L101.772 24.3203Z" fill="url(#paint13_linear_960_1333)" stroke="url(#paint14_linear_960_1333)" stroke-miterlimit="10"/>
<path d="M114.433 29.9302L115.467 32.6147L115.646 33.0815L115.18 33.2612L110.278 35.147L110.276 35.1479L110.268 35.1519L110.259 35.1548L109.341 35.4878C109.415 35.5119 109.49 35.5385 109.562 35.5688H109.562L115.11 37.8716L115.572 38.064L115.381 38.5259L114.276 41.1821L114.084 41.6431L113.623 41.4517L108.074 39.1479C106.571 38.5255 105.613 37.0696 105.634 35.4448C105.64 34.9276 105.747 34.4281 105.938 33.9712C106.344 32.9914 107.136 32.2006 108.171 31.8032L113.786 29.6431L114.253 29.4634L114.433 29.9302Z" fill="url(#paint15_linear_960_1333)" stroke="url(#paint16_linear_960_1333)" stroke-miterlimit="10"/>
<path d="M94.3896 29.5342L99.9355 31.8467C101.343 32.4328 102.271 33.7506 102.362 35.252L102.369 35.5537C102.366 35.8197 102.336 36.0809 102.281 36.334H102.354L102.064 37.0264C101.656 38.0058 100.863 38.7945 99.8271 39.1904L94.209 41.3428L93.7422 41.5215L93.5625 41.0547L92.5332 38.3682L92.3545 37.9014L92.8213 37.7227L97.7256 35.8438L97.7451 35.8359L98.6611 35.5039C98.5872 35.4799 98.5136 35.454 98.4414 35.4238L92.8965 33.1113L92.4346 32.9189L92.6279 32.458L93.7363 29.8037L93.9287 29.3428L94.3896 29.5342Z" fill="url(#paint17_linear_960_1333)" stroke="url(#paint18_linear_960_1333)" stroke-miterlimit="10"/>
<rect x="99.5" y="48" width="25" height="5" rx="1" fill="black" fill-opacity="0.05" stroke="url(#paint19_linear_960_1333)"/>
<rect x="99.5" y="56" width="18" height="5" rx="1" fill="black" fill-opacity="0.05" stroke="url(#paint20_linear_960_1333)"/>
<rect x="82.5" y="48" width="13" height="13" rx="2" fill="url(#paint21_linear_960_1333)" stroke="url(#paint22_linear_960_1333)" stroke-miterlimit="10"/>
<g clip-path="url(#clip1_960_1333)">
<path d="M87.7174 57.3821L85.1174 54.7671C84.9612 54.61 84.9612 54.3553 85.1174 54.1982L85.6831 53.6292C85.8393 53.4721 86.0926 53.4721 86.2488 53.6292L88.0003 55.3908L91.7517 51.6178C91.9079 51.4607 92.1612 51.4607 92.3174 51.6178L92.8831 52.1868C93.0393 52.3439 93.0393 52.5986 92.8831 52.7557L88.2831 57.3822C88.1269 57.5393 87.8736 57.5393 87.7174 57.3822V57.3821Z" fill="white"/>
</g>
<rect x="99.5" y="67" width="25" height="5" rx="1" fill="black" fill-opacity="0.05" stroke="url(#paint23_linear_960_1333)"/>
<rect x="99.5" y="75" width="18" height="5" rx="1" fill="black" fill-opacity="0.05" stroke="url(#paint24_linear_960_1333)"/>
<rect x="82.5" y="67" width="13" height="13" rx="2" fill="url(#paint25_linear_960_1333)" stroke="url(#paint26_linear_960_1333)" stroke-miterlimit="10"/>
<g clip-path="url(#clip2_960_1333)">
<path d="M87.7174 76.3821L85.1174 73.7671C84.9612 73.61 84.9612 73.3553 85.1174 73.1982L85.6831 72.6292C85.8393 72.4721 86.0926 72.4721 86.2488 72.6292L88.0003 74.3908L91.7517 70.6178C91.9079 70.4607 92.1612 70.4607 92.3174 70.6178L92.8831 71.1868C93.0393 71.3439 93.0393 71.5986 92.8831 71.7557L88.2831 76.3822C88.1269 76.5393 87.8736 76.5393 87.7174 76.3822V76.3821Z" fill="white"/>
</g>
</g>
<defs>
<linearGradient id="paint0_linear_960_1333" x1="53" y1="110.5" x2="49.5388" y2="79.8419" gradientUnits="userSpaceOnUse">
<stop stop-color="white" stop-opacity="0"/>
<stop offset="0.178835" stop-color="white" stop-opacity="0"/>
<stop offset="1" stop-color="#D9D9DC"/>
</linearGradient>
<linearGradient id="paint1_linear_960_1333" x1="56" y1="53" x2="58.5" y2="120" gradientUnits="userSpaceOnUse">
<stop stop-color="white" stop-opacity="0"/>
<stop offset="0.465494" stop-color="white" stop-opacity="0"/>
<stop offset="1" stop-color="#D9D9DC"/>
</linearGradient>
<linearGradient id="paint2_linear_960_1333" x1="81" y1="139.5" x2="54.9923" y2="89.899" gradientUnits="userSpaceOnUse">
<stop stop-color="white"/>
<stop offset="0.27" stop-color="white"/>
<stop offset="1" stop-color="#D9D9DC"/>
</linearGradient>
<linearGradient id="paint3_linear_960_1333" x1="19" y1="-59.2763" x2="121.085" y2="93.8322" gradientUnits="userSpaceOnUse">
<stop stop-color="white" stop-opacity="0"/>
<stop offset="0.190127" stop-color="white" stop-opacity="0"/>
<stop offset="1" stop-color="#D9D9DC"/>
</linearGradient>
<linearGradient id="paint4_linear_960_1333" x1="-24.5" y1="-36" x2="89" y2="72.675" gradientUnits="userSpaceOnUse">
<stop stop-color="white"/>
<stop offset="0.437462" stop-color="#F9F9F9"/>
<stop offset="1" stop-color="#D9D9DC"/>
</linearGradient>
<linearGradient id="paint5_linear_960_1333" x1="25.2941" y1="59.2742" x2="25.1612" y2="42.5011" gradientUnits="userSpaceOnUse">
<stop stop-color="#FF5F1F"/>
<stop offset="1" stop-color="#FF5F1F"/>
</linearGradient>
<linearGradient id="paint6_linear_960_1333" x1="25" y1="42.5" x2="25.3538" y2="62.4989" gradientUnits="userSpaceOnUse">
<stop offset="0.533654" stop-color="white"/>
<stop offset="1" stop-color="#F3F3F3"/>
</linearGradient>
<linearGradient id="paint7_linear_960_1333" x1="41.8235" y1="57.8226" x2="41.5695" y2="33.5027" gradientUnits="userSpaceOnUse">
<stop stop-color="#FF5F1F"/>
<stop offset="1" stop-color="#FF5F1F"/>
</linearGradient>
<linearGradient id="paint8_linear_960_1333" x1="41.5" y1="33.5" x2="42.176" y2="62.4918" gradientUnits="userSpaceOnUse">
<stop offset="0.533654" stop-color="white"/>
<stop offset="1" stop-color="#F3F3F3"/>
</linearGradient>
<linearGradient id="paint9_linear_960_1333" x1="57.8235" y1="56.371" x2="57.3873" y2="24.506" gradientUnits="userSpaceOnUse">
<stop stop-color="#FF5F1F"/>
<stop offset="1" stop-color="#FF5F1F"/>
</linearGradient>
<linearGradient id="paint10_linear_960_1333" x1="57.5" y1="24.5" x2="58.6603" y2="62.4744" gradientUnits="userSpaceOnUse">
<stop offset="0.533654" stop-color="white"/>
<stop offset="1" stop-color="#F3F3F3"/>
</linearGradient>
<linearGradient id="paint11_linear_960_1333" x1="70.9211" y1="-16.2734" x2="154.08" y2="24.4002" gradientUnits="userSpaceOnUse">
<stop stop-color="white"/>
<stop offset="0.437462" stop-color="#F9F9F9"/>
<stop offset="1" stop-color="#D9D9DC"/>
</linearGradient>
<linearGradient id="paint12_linear_960_1333" x1="64.9211" y1="-16.2734" x2="148.08" y2="24.4002" gradientUnits="userSpaceOnUse">
<stop stop-color="white"/>
<stop offset="0.437462" stop-color="#F9F9F9"/>
<stop offset="1" stop-color="#D9D9DC"/>
</linearGradient>
<linearGradient id="paint13_linear_960_1333" x1="99.2194" y1="32.0551" x2="114.594" y2="1.7073" gradientUnits="userSpaceOnUse">
<stop stop-color="#FF5F1F"/>
<stop offset="1" stop-color="#FF5F1F"/>
</linearGradient>
<linearGradient id="paint14_linear_960_1333" x1="104.063" y1="24.5" x2="104.063" y2="33.3591" gradientUnits="userSpaceOnUse">
<stop stop-color="#F3F3F3" stop-opacity="0"/>
<stop offset="0.466346" stop-color="white"/>
</linearGradient>
<linearGradient id="paint15_linear_960_1333" x1="106.623" y1="39.3884" x2="129.218" y2="9.81673" gradientUnits="userSpaceOnUse">
<stop stop-color="#FF5F1F"/>
<stop offset="1" stop-color="#FF5F1F"/>
</linearGradient>
<linearGradient id="paint16_linear_960_1333" x1="110.567" y1="30.1099" x2="110.567" y2="40.9898" gradientUnits="userSpaceOnUse">
<stop stop-color="#F3F3F3" stop-opacity="0"/>
<stop offset="0.466346" stop-color="white"/>
</linearGradient>
<linearGradient id="paint17_linear_960_1333" x1="93.4895" y1="39.2744" x2="116.082" y2="9.6941" gradientUnits="userSpaceOnUse">
<stop stop-color="#FF5F1F"/>
<stop offset="1" stop-color="#FF5F1F"/>
</linearGradient>
<linearGradient id="paint18_linear_960_1333" x1="97.4348" y1="29.9961" x2="97.4348" y2="40.8757" gradientUnits="userSpaceOnUse">
<stop stop-color="#F3F3F3" stop-opacity="0"/>
<stop offset="0.466346" stop-color="white"/>
</linearGradient>
<linearGradient id="paint19_linear_960_1333" x1="111.04" y1="46" x2="111.04" y2="54" gradientUnits="userSpaceOnUse">
<stop stop-color="white" stop-opacity="0"/>
<stop offset="1" stop-color="white"/>
</linearGradient>
<linearGradient id="paint20_linear_960_1333" x1="107.82" y1="54" x2="107.82" y2="62" gradientUnits="userSpaceOnUse">
<stop stop-color="white" stop-opacity="0"/>
<stop offset="1" stop-color="white"/>
</linearGradient>
<linearGradient id="paint21_linear_960_1333" x1="83.6623" y1="58.7337" x2="106.841" y2="21.5081" gradientUnits="userSpaceOnUse">
<stop stop-color="#FF5F1F"/>
<stop offset="1" stop-color="#FF5F1F"/>
</linearGradient>
<linearGradient id="paint22_linear_960_1333" x1="89" y1="48.5" x2="89" y2="60.5" gradientUnits="userSpaceOnUse">
<stop stop-color="#F3F3F3" stop-opacity="0"/>
<stop offset="0.466346" stop-color="white"/>
</linearGradient>
<linearGradient id="paint23_linear_960_1333" x1="111.04" y1="65" x2="111.04" y2="73" gradientUnits="userSpaceOnUse">
<stop stop-color="white" stop-opacity="0"/>
<stop offset="1" stop-color="white"/>
</linearGradient>
<linearGradient id="paint24_linear_960_1333" x1="107.82" y1="73" x2="107.82" y2="81" gradientUnits="userSpaceOnUse">
<stop stop-color="white" stop-opacity="0"/>
<stop offset="1" stop-color="white"/>
</linearGradient>
<linearGradient id="paint25_linear_960_1333" x1="83.6623" y1="77.7337" x2="106.841" y2="40.5081" gradientUnits="userSpaceOnUse">
<stop stop-color="#FF5F1F"/>
<stop offset="1" stop-color="#FF5F1F"/>
</linearGradient>
<linearGradient id="paint26_linear_960_1333" x1="89" y1="67.5" x2="89" y2="79.5" gradientUnits="userSpaceOnUse">
<stop stop-color="#F3F3F3" stop-opacity="0"/>
<stop offset="0.466346" stop-color="white"/>
</linearGradient>
<clipPath id="clip0_960_1333">
<rect width="137" height="112" fill="white"/>
</clipPath>
<clipPath id="clip1_960_1333">
<rect width="8" height="6" fill="white" transform="translate(85 51.5)"/>
</clipPath>
<clipPath id="clip2_960_1333">
<rect width="8" height="6" fill="white" transform="translate(85 70.5)"/>
</clipPath>
</defs>
</svg>
