<svg width="136" height="112" viewBox="0 0 136 112" fill="none" xmlns="http://www.w3.org/2000/svg">
<g clip-path="url(#clip0_1561_5990)">
<path d="M68.1074 1.5C73.5766 1.50026 78.0059 5.92417 78.0059 11.3623C78.0057 16.8 73.5769 21.2185 68.1074 21.2188C62.6336 21.2188 58.2052 16.8001 58.2051 11.3623C58.2051 5.91486 62.6375 1.5 68.1074 1.5Z" fill="url(#paint0_linear_1561_5990)" stroke="url(#paint1_linear_1561_5990)" stroke-miterlimit="10"/>
<path d="M58.3408 106.149L58.3398 106.135L56.6025 76.4424L56.5752 75.9707H52.9209C50.6762 75.9707 48.8596 74.1586 48.8594 71.9258V37.1074C48.8594 34.7701 50.1451 32.2702 52.084 30.3389C54.0226 28.4078 56.5329 27.1261 58.8809 27.126H77.1172C79.466 27.126 81.9772 28.407 83.916 30.3379C85.855 32.269 87.1406 34.7694 87.1406 37.1074V71.9258C87.1404 74.1584 85.3232 75.9705 83.0801 75.9707H79.4229L79.3955 76.4424L77.6621 106.135L77.6611 106.149V106.164C77.6611 108.558 75.7126 110.502 73.3047 110.502H62.6973C60.2893 110.502 58.3408 108.558 58.3408 106.164V106.149Z" fill="url(#paint2_linear_1561_5990)" stroke="url(#paint3_linear_1561_5990)" stroke-miterlimit="10"/>
<path d="M35.2441 15.4355C39.9877 15.4355 43.8262 19.2645 43.8262 23.9834C43.826 28.702 39.9877 32.5293 35.2441 32.5293C30.4993 32.5292 26.6623 28.7007 26.6621 23.9834C26.6621 19.2632 30.5005 15.4356 35.2441 15.4355Z" fill="url(#paint4_linear_1561_5990)" stroke="url(#paint5_linear_1561_5990)" stroke-miterlimit="10"/>
<path d="M100.941 15.4355C105.686 15.4355 109.523 19.2645 109.523 23.9834C109.523 28.7021 105.686 32.5293 100.941 32.5293C96.1991 32.5292 92.3596 28.7033 92.3594 23.9834C92.3594 19.2632 96.1965 15.4356 100.941 15.4355Z" fill="url(#paint6_linear_1561_5990)" stroke="url(#paint7_linear_1561_5990)" stroke-miterlimit="10"/>
<path d="M26.7773 106.761L26.7764 106.747L25.2617 80.8147L25.2344 80.343H21.9844C20.057 80.343 18.5002 78.7907 18.5 76.8743V46.468C18.5002 44.4497 19.6118 42.2812 21.2969 40.6018C22.9818 38.9226 25.1592 37.8137 27.1875 37.8137H41.8877V71.925C41.8877 74.9082 43.1001 77.5965 45.0381 79.5745V80.8147L43.5254 106.747L43.5244 106.761V106.776C43.5244 108.83 41.8507 110.5 39.7822 110.5H30.5195C28.451 110.5 26.7773 108.83 26.7773 106.776V106.761Z" fill="url(#paint8_linear_1561_5990)" stroke="url(#paint9_linear_1561_5990)" stroke-miterlimit="10"/>
<path d="M92.4717 106.761L92.4707 106.747L90.959 80.8235V79.5735C92.8994 77.5966 94.1123 74.9076 94.1123 71.925V37.8137H108.812C110.841 37.8138 113.018 38.9226 114.703 40.6018C116.388 42.2811 117.499 44.4498 117.499 46.468V76.8743C117.499 78.7905 115.942 80.3429 114.016 80.343H110.765L110.737 80.8147L109.22 106.746V106.776C109.22 108.83 107.547 110.5 105.479 110.5H96.2158C94.1471 110.5 92.4717 108.829 92.4717 106.776V106.761Z" fill="url(#paint10_linear_1561_5990)" stroke="url(#paint11_linear_1561_5990)" stroke-miterlimit="10"/>
</g>
<path d="M32.1211 58.5H104.34C107.49 58.5 109.962 60.8117 109.962 63.5654V106.435C109.962 109.188 107.49 111.5 104.34 111.5H32.1211C28.9708 111.5 26.5 109.188 26.5 106.435V63.5654L26.5068 63.3086C26.6547 60.6694 29.0692 58.5001 32.1211 58.5Z" fill="url(#paint12_linear_1561_5990)" stroke="url(#paint13_linear_1561_5990)" stroke-miterlimit="10"/>
<path d="M31.7197 58.5H99.2031C102.099 58.5 104.423 60.7808 104.423 63.5654V106.435C104.423 109.219 102.099 111.5 99.2031 111.5H31.7197C28.8239 111.5 26.5 109.219 26.5 106.435V63.5654L26.5068 63.3057C26.646 60.6403 28.9145 58.5001 31.7197 58.5Z" fill="url(#paint14_linear_1561_5990)" stroke="url(#paint15_linear_1561_5990)" stroke-miterlimit="10"/>
<path d="M41.9709 89.0268L41.2767 89.2552C40.8545 89.2698 40.7426 88.6824 41.1379 88.537L46.441 86.61L46.4618 86.6015L55.6858 83.0526L53.7398 78L43.1708 82.066C41.4661 82.7204 40.1665 84.0195 39.4988 85.6285C39.1852 86.3787 39.01 87.2003 39.0006 88.052C38.9661 90.7255 40.5391 93.1169 43.0121 94.1408L53.455 98.4757L55.5333 93.4774L45.0904 89.1424C44.0983 88.7291 42.9909 88.6904 41.9709 89.0273V89.0268Z" fill="url(#paint16_linear_1561_5990)" stroke="url(#paint17_linear_1561_5990)" stroke-miterlimit="10"/>
<path d="M87.7147 89.0268L88.4089 89.2552C88.831 89.2698 88.9429 88.6824 88.5477 88.537L83.2446 86.61L83.2238 86.6015L73.9997 83.0526L75.9458 78L86.5147 82.066C88.2195 82.7204 89.5191 84.0195 90.1868 85.6285C90.5003 86.3787 90.6755 87.2003 90.685 88.052C90.7195 90.7255 89.1465 93.1169 86.6734 94.1408L76.2305 98.4757L74.1523 93.4774L84.5951 89.1424C85.5873 88.7291 86.6947 88.6904 87.7147 89.0273V89.0268Z" fill="url(#paint18_linear_1561_5990)" stroke="url(#paint19_linear_1561_5990)" stroke-miterlimit="10"/>
<path d="M70.3727 79.7666L67.0047 78.3342C66.5706 78.1496 66.025 78.4556 65.786 79.0175L58.4331 96.3075C58.1941 96.8695 58.3523 97.4747 58.7864 97.6593L62.1544 99.0916C62.5885 99.2762 63.1341 98.9703 63.3731 98.4083L70.726 81.1183C70.965 80.5564 70.8068 79.9512 70.3727 79.7666Z" fill="url(#paint20_linear_1561_5990)" stroke="url(#paint21_linear_1561_5990)" stroke-miterlimit="10"/>
<path d="M33.3101 66.8538C34.4176 66.8538 35.3154 65.9566 35.3154 64.85C35.3154 63.7433 34.4176 62.8462 33.3101 62.8462C32.2025 62.8462 31.3047 63.7433 31.3047 64.85C31.3047 65.9566 32.2025 66.8538 33.3101 66.8538Z" fill="url(#paint22_linear_1561_5990)" stroke="url(#paint23_linear_1561_5990)" stroke-miterlimit="10"/>
<path d="M39.7749 66.8538C40.8824 66.8538 41.7803 65.9566 41.7803 64.85C41.7803 63.7433 40.8824 62.8462 39.7749 62.8462C38.6674 62.8462 37.7695 63.7433 37.7695 64.85C37.7695 65.9566 38.6674 66.8538 39.7749 66.8538Z" fill="url(#paint24_linear_1561_5990)" stroke="url(#paint25_linear_1561_5990)" stroke-miterlimit="10"/>
<path d="M46.6968 66.8538C47.8043 66.8538 48.7022 65.9566 48.7022 64.85C48.7022 63.7433 47.8043 62.8462 46.6968 62.8462C45.5892 62.8462 44.6914 63.7433 44.6914 64.85C44.6914 65.9566 45.5892 66.8538 46.6968 66.8538Z" fill="url(#paint26_linear_1561_5990)" stroke="url(#paint27_linear_1561_5990)" stroke-miterlimit="10"/>
<defs>
<linearGradient id="paint0_linear_1561_5990" x1="64.1308" y1="3.05696" x2="78.2233" y2="17.7293" gradientUnits="userSpaceOnUse">
<stop stop-color="#222227"/>
<stop offset="0.73" stop-color="#121214" stop-opacity="0"/>
<stop offset="1" stop-color="#121214" stop-opacity="0"/>
</linearGradient>
<linearGradient id="paint1_linear_1561_5990" x1="62.9965" y1="-1.3906" x2="80.9183" y2="18.9273" gradientUnits="userSpaceOnUse">
<stop stop-color="#C0C0CA"/>
<stop offset="1" stop-opacity="0"/>
</linearGradient>
<linearGradient id="paint2_linear_1561_5990" x1="60.4939" y1="35.0029" x2="105.471" y2="56.7173" gradientUnits="userSpaceOnUse">
<stop stop-color="#222227"/>
<stop offset="0.73" stop-color="#121214" stop-opacity="0"/>
<stop offset="1" stop-color="#121214" stop-opacity="0"/>
</linearGradient>
<linearGradient id="paint3_linear_1561_5990" x1="58.352" y1="16.8903" x2="118.948" y2="48.7462" gradientUnits="userSpaceOnUse">
<stop stop-color="#C0C0CA"/>
<stop offset="1" stop-opacity="0"/>
</linearGradient>
<linearGradient id="paint4_linear_1561_5990" x1="31.7733" y1="16.7319" x2="44.0804" y2="29.5444" gradientUnits="userSpaceOnUse">
<stop stop-color="#222227"/>
<stop offset="0.73" stop-color="#121214" stop-opacity="0"/>
<stop offset="1" stop-color="#121214" stop-opacity="0"/>
</linearGradient>
<linearGradient id="paint5_linear_1561_5990" x1="30.7828" y1="12.8478" x2="46.4342" y2="30.5904" gradientUnits="userSpaceOnUse">
<stop stop-color="#C0C0CA"/>
<stop offset="1" stop-opacity="0"/>
</linearGradient>
<linearGradient id="paint6_linear_1561_5990" x1="97.4706" y1="16.7319" x2="109.778" y2="29.5444" gradientUnits="userSpaceOnUse">
<stop stop-color="#222227"/>
<stop offset="0.73" stop-color="#121214" stop-opacity="0"/>
<stop offset="1" stop-color="#121214" stop-opacity="0"/>
</linearGradient>
<linearGradient id="paint7_linear_1561_5990" x1="96.4801" y1="12.8478" x2="112.131" y2="30.5904" gradientUnits="userSpaceOnUse">
<stop stop-color="#C0C0CA"/>
<stop offset="1" stop-opacity="0"/>
</linearGradient>
<linearGradient id="paint8_linear_1561_5990" x1="26.5068" y1="44.6294" x2="60.3097" y2="57.7297" gradientUnits="userSpaceOnUse">
<stop stop-color="#222227"/>
<stop offset="0.73" stop-color="#121214" stop-opacity="0"/>
<stop offset="1" stop-color="#121214" stop-opacity="0"/>
</linearGradient>
<linearGradient id="paint9_linear_1561_5990" x1="25.0052" y1="28.8115" x2="71.0294" y2="48.2337" gradientUnits="userSpaceOnUse">
<stop stop-color="#C0C0CA"/>
<stop offset="1" stop-opacity="0"/>
</linearGradient>
<linearGradient id="paint10_linear_1561_5990" x1="98.9666" y1="44.6294" x2="132.772" y2="57.732" gradientUnits="userSpaceOnUse">
<stop stop-color="#222227"/>
<stop offset="0.73" stop-color="#121214" stop-opacity="0"/>
<stop offset="1" stop-color="#121214" stop-opacity="0"/>
</linearGradient>
<linearGradient id="paint11_linear_1561_5990" x1="97.4649" y1="28.8115" x2="143.492" y2="48.237" gradientUnits="userSpaceOnUse">
<stop stop-color="#C0C0CA"/>
<stop offset="1" stop-opacity="0"/>
</linearGradient>
<linearGradient id="paint12_linear_1561_5990" x1="52.0913" y1="63.3612" x2="84.9345" y2="116.633" gradientUnits="userSpaceOnUse">
<stop stop-color="#222227"/>
<stop offset="0.73" stop-color="#121214" stop-opacity="0"/>
<stop offset="1" stop-color="#121214" stop-opacity="0"/>
</linearGradient>
<linearGradient id="paint13_linear_1561_5990" x1="47.4858" y1="51.7692" x2="115.043" y2="155.342" gradientUnits="userSpaceOnUse">
<stop stop-color="#C0C0CA"/>
<stop offset="1" stop-opacity="0"/>
</linearGradient>
<linearGradient id="paint14_linear_1561_5990" x1="50.3804" y1="63.3612" x2="84.1761" y2="114.583" gradientUnits="userSpaceOnUse">
<stop stop-color="#222227"/>
<stop offset="0.73" stop-color="#121214"/>
<stop offset="1" stop-color="#121214"/>
</linearGradient>
<linearGradient id="paint15_linear_1561_5990" x1="46.0769" y1="51.7692" x2="114.519" y2="149.242" gradientUnits="userSpaceOnUse">
<stop stop-color="#C0C0CA"/>
<stop offset="1" stop-opacity="0"/>
</linearGradient>
<linearGradient id="paint16_linear_1561_5990" x1="49.5" y1="75.5" x2="18.1091" y2="130.279" gradientUnits="userSpaceOnUse">
<stop stop-color="#FF5F1F"/>
<stop offset="0.65" stop-color="#531F0A" stop-opacity="0"/>
<stop offset="1" stop-opacity="0"/>
</linearGradient>
<linearGradient id="paint17_linear_1561_5990" x1="45.5674" y1="77.7549" x2="55.5674" y2="101.755" gradientUnits="userSpaceOnUse">
<stop offset="0.110577" stop-color="#FF9255"/>
<stop offset="0.423077" stop-color="#531F0A" stop-opacity="0"/>
<stop offset="1" stop-opacity="0"/>
</linearGradient>
<linearGradient id="paint18_linear_1561_5990" x1="79.4995" y1="75" x2="111.576" y2="130.279" gradientUnits="userSpaceOnUse">
<stop stop-color="#FF5F1F"/>
<stop offset="0.65" stop-color="#531F0A" stop-opacity="0"/>
<stop offset="1" stop-opacity="0"/>
</linearGradient>
<linearGradient id="paint19_linear_1561_5990" x1="84.1182" y1="77.7549" x2="74.1182" y2="101.755" gradientUnits="userSpaceOnUse">
<stop offset="0.110577" stop-color="#FF9255"/>
<stop offset="0.423077" stop-color="#531F0A" stop-opacity="0"/>
<stop offset="1" stop-opacity="0"/>
</linearGradient>
<linearGradient id="paint20_linear_1561_5990" x1="67.0005" y1="80" x2="44.0005" y2="122.5" gradientUnits="userSpaceOnUse">
<stop stop-color="#FF5F1F"/>
<stop offset="0.65" stop-color="#531F0A" stop-opacity="0"/>
<stop offset="1" stop-opacity="0"/>
</linearGradient>
<linearGradient id="paint21_linear_1561_5990" x1="68.5232" y1="78.4393" x2="53.0347" y2="122.96" gradientUnits="userSpaceOnUse">
<stop stop-color="#FF9255"/>
<stop offset="0.44" stop-color="#531F0A" stop-opacity="0"/>
<stop offset="1" stop-opacity="0"/>
</linearGradient>
<linearGradient id="paint22_linear_1561_5990" x1="29.6853" y1="69.7829" x2="40.2571" y2="58.512" gradientUnits="userSpaceOnUse">
<stop stop-color="#FF5F1F"/>
<stop offset="0.65" stop-color="#531F0A" stop-opacity="0"/>
<stop offset="1" stop-opacity="0"/>
</linearGradient>
<linearGradient id="paint23_linear_1561_5990" x1="31.2986" y1="64.8492" x2="35.3214" y2="64.8492" gradientUnits="userSpaceOnUse">
<stop stop-color="#FF5F1F"/>
<stop offset="0.44" stop-color="#531F0A" stop-opacity="0"/>
<stop offset="1" stop-opacity="0"/>
</linearGradient>
<linearGradient id="paint24_linear_1561_5990" x1="36.1502" y1="69.7829" x2="46.7219" y2="58.512" gradientUnits="userSpaceOnUse">
<stop stop-color="#FF5F1F"/>
<stop offset="0.65" stop-color="#531F0A" stop-opacity="0"/>
<stop offset="1" stop-opacity="0"/>
</linearGradient>
<linearGradient id="paint25_linear_1561_5990" x1="37.7634" y1="64.8492" x2="41.7862" y2="64.8492" gradientUnits="userSpaceOnUse">
<stop stop-color="#FF5F1F"/>
<stop offset="0.44" stop-color="#531F0A" stop-opacity="0"/>
<stop offset="1" stop-opacity="0"/>
</linearGradient>
<linearGradient id="paint26_linear_1561_5990" x1="43.0721" y1="69.7829" x2="53.6438" y2="58.512" gradientUnits="userSpaceOnUse">
<stop stop-color="#FF5F1F"/>
<stop offset="0.65" stop-color="#531F0A" stop-opacity="0"/>
<stop offset="1" stop-opacity="0"/>
</linearGradient>
<linearGradient id="paint27_linear_1561_5990" x1="44.6853" y1="64.8492" x2="48.7081" y2="64.8492" gradientUnits="userSpaceOnUse">
<stop stop-color="#FF5F1F"/>
<stop offset="0.44" stop-color="#531F0A" stop-opacity="0"/>
<stop offset="1" stop-opacity="0"/>
</linearGradient>
<clipPath id="clip0_1561_5990">
<rect width="100" height="110" fill="white" transform="translate(18 1)"/>
</clipPath>
</defs>
</svg>
