<svg width="137" height="112" viewBox="0 0 137 112" fill="none" xmlns="http://www.w3.org/2000/svg">
<g clip-path="url(#clip0_1561_5953)">
<path d="M68.1074 1.5C73.5766 1.50026 78.0059 5.92417 78.0059 11.3623C78.0057 16.8 73.5769 21.2185 68.1074 21.2188C62.6336 21.2188 58.2052 16.8001 58.2051 11.3623C58.2051 5.91486 62.6375 1.5 68.1074 1.5Z" fill="url(#paint0_linear_1561_5953)" stroke="url(#paint1_linear_1561_5953)" stroke-miterlimit="10"/>
<path d="M58.3408 106.149L58.3398 106.135L56.6025 76.4424L56.5752 75.9707H52.9209C50.6762 75.9707 48.8596 74.1586 48.8594 71.9258V37.1074C48.8594 34.7701 50.1451 32.2702 52.084 30.3389C54.0226 28.4078 56.5329 27.1261 58.8809 27.126H77.1172C79.466 27.126 81.9772 28.407 83.916 30.3379C85.855 32.269 87.1406 34.7694 87.1406 37.1074V71.9258C87.1404 74.1584 85.3232 75.9705 83.0801 75.9707H79.4229L79.3955 76.4424L77.6621 106.135L77.6611 106.149V106.164C77.6611 108.558 75.7126 110.502 73.3047 110.502H62.6973C60.2893 110.502 58.3408 108.558 58.3408 106.164V106.149Z" fill="url(#paint2_linear_1561_5953)" stroke="url(#paint3_linear_1561_5953)" stroke-miterlimit="10"/>
<path d="M35.2441 15.4355C39.9877 15.4355 43.8262 19.2645 43.8262 23.9834C43.826 28.702 39.9877 32.5293 35.2441 32.5293C30.4993 32.5292 26.6623 28.7007 26.6621 23.9834C26.6621 19.2632 30.5005 15.4356 35.2441 15.4355Z" fill="url(#paint4_linear_1561_5953)" stroke="url(#paint5_linear_1561_5953)" stroke-miterlimit="10"/>
<path d="M100.941 15.4355C105.686 15.4355 109.523 19.2645 109.523 23.9834C109.523 28.7021 105.686 32.5293 100.941 32.5293C96.1991 32.5292 92.3596 28.7033 92.3594 23.9834C92.3594 19.2632 96.1965 15.4356 100.941 15.4355Z" fill="url(#paint6_linear_1561_5953)" stroke="url(#paint7_linear_1561_5953)" stroke-miterlimit="10"/>
<path d="M26.7773 106.761L26.7764 106.747L25.2617 80.8147L25.2344 80.343H21.9844C20.057 80.343 18.5002 78.7907 18.5 76.8743V46.468C18.5002 44.4497 19.6118 42.2812 21.2969 40.6018C22.9818 38.9226 25.1592 37.8137 27.1875 37.8137H41.8877V71.925C41.8877 74.9082 43.1001 77.5965 45.0381 79.5745V80.8147L43.5254 106.747L43.5244 106.761V106.776C43.5244 108.83 41.8507 110.5 39.7822 110.5H30.5195C28.451 110.5 26.7773 108.83 26.7773 106.776V106.761Z" fill="url(#paint8_linear_1561_5953)" stroke="url(#paint9_linear_1561_5953)" stroke-miterlimit="10"/>
<path d="M92.4717 106.761L92.4707 106.747L90.959 80.8235V79.5735C92.8994 77.5966 94.1123 74.9076 94.1123 71.925V37.8137H108.812C110.841 37.8138 113.018 38.9226 114.703 40.6018C116.388 42.2811 117.499 44.4498 117.499 46.468V76.8743C117.499 78.7905 115.942 80.3429 114.016 80.343H110.765L110.737 80.8147L109.22 106.746V106.776C109.22 108.83 107.547 110.5 105.479 110.5H96.2158C94.1471 110.5 92.4717 108.829 92.4717 106.776V106.761Z" fill="url(#paint10_linear_1561_5953)" stroke="url(#paint11_linear_1561_5953)" stroke-miterlimit="10"/>
</g>
<path d="M34.625 83.7016C34.625 64.1184 50.6867 48.2432 70.4998 48.2432C90.313 48.2432 106.375 64.1184 106.375 83.7016" fill="url(#paint12_linear_1561_5953)"/>
<path d="M34.625 83.7016C34.625 64.1184 50.6867 48.2432 70.4998 48.2432C90.313 48.2432 106.375 64.1184 106.375 83.7016" stroke="url(#paint13_linear_1561_5953)" stroke-miterlimit="10"/>
<path d="M25.9102 48.2432H115.088" stroke="url(#paint14_linear_1561_5953)" stroke-miterlimit="10"/>
<path d="M106.605 90.3684C111.358 90.3684 115.211 86.4804 115.211 81.6842C115.211 76.8881 111.358 73 106.605 73C101.853 73 98 76.8881 98 81.6842C98 86.4804 101.853 90.3684 106.605 90.3684Z" fill="url(#paint15_linear_1561_5953)" stroke="url(#paint16_linear_1561_5953)" stroke-miterlimit="10"/>
<path d="M34.6053 90.3684C39.3578 90.3684 43.2105 86.4804 43.2105 81.6842C43.2105 76.8881 39.3578 73 34.6053 73C29.8527 73 26 76.8881 26 81.6842C26 86.4804 29.8527 90.3684 34.6053 90.3684Z" fill="url(#paint17_linear_1561_5953)" stroke="url(#paint18_linear_1561_5953)" stroke-miterlimit="10"/>
<path d="M70.6053 57.3684C75.3578 57.3684 79.2105 53.4804 79.2105 48.6842C79.2105 43.8881 75.3578 40 70.6053 40C65.8527 40 62 43.8881 62 48.6842C62 53.4804 65.8527 57.3684 70.6053 57.3684Z" fill="url(#paint19_linear_1561_5953)" stroke="url(#paint20_linear_1561_5953)" stroke-miterlimit="10"/>
<path d="M18.0762 37.5754H33.7451C34.5735 37.5755 35.2451 38.2471 35.2451 39.0754V54.5159C35.2451 55.3442 34.5735 56.0158 33.7451 56.0159H18.0762C17.2477 56.0159 16.5762 55.3443 16.5762 54.5159V39.0754C16.5762 38.247 17.2477 37.5754 18.0762 37.5754Z" fill="url(#paint21_linear_1561_5953)" stroke="url(#paint22_linear_1561_5953)" stroke-miterlimit="10"/>
<path d="M107.254 37.5754H122.923C123.751 37.5755 124.423 38.2471 124.423 39.0754V54.5159C124.423 55.3442 123.751 56.0158 122.923 56.0159H107.254C106.425 56.0159 105.754 55.3443 105.754 54.5159V39.0754C105.754 38.247 106.425 37.5754 107.254 37.5754Z" fill="url(#paint23_linear_1561_5953)" stroke="url(#paint24_linear_1561_5953)" stroke-miterlimit="10"/>
<defs>
<linearGradient id="paint0_linear_1561_5953" x1="64.1308" y1="3.05696" x2="78.2233" y2="17.7293" gradientUnits="userSpaceOnUse">
<stop stop-color="#222227"/>
<stop offset="0.73" stop-color="#121214" stop-opacity="0"/>
<stop offset="1" stop-color="#121214" stop-opacity="0"/>
</linearGradient>
<linearGradient id="paint1_linear_1561_5953" x1="62.9965" y1="-1.3906" x2="80.9183" y2="18.9273" gradientUnits="userSpaceOnUse">
<stop stop-color="#C0C0CA"/>
<stop offset="1" stop-opacity="0"/>
</linearGradient>
<linearGradient id="paint2_linear_1561_5953" x1="60.4939" y1="35.0029" x2="105.471" y2="56.7173" gradientUnits="userSpaceOnUse">
<stop stop-color="#222227"/>
<stop offset="0.73" stop-color="#121214" stop-opacity="0"/>
<stop offset="1" stop-color="#121214" stop-opacity="0"/>
</linearGradient>
<linearGradient id="paint3_linear_1561_5953" x1="58.352" y1="16.8903" x2="118.948" y2="48.7462" gradientUnits="userSpaceOnUse">
<stop stop-color="#C0C0CA"/>
<stop offset="1" stop-opacity="0"/>
</linearGradient>
<linearGradient id="paint4_linear_1561_5953" x1="31.7733" y1="16.7319" x2="44.0804" y2="29.5444" gradientUnits="userSpaceOnUse">
<stop stop-color="#222227"/>
<stop offset="0.73" stop-color="#121214" stop-opacity="0"/>
<stop offset="1" stop-color="#121214" stop-opacity="0"/>
</linearGradient>
<linearGradient id="paint5_linear_1561_5953" x1="30.7828" y1="12.8478" x2="46.4342" y2="30.5904" gradientUnits="userSpaceOnUse">
<stop stop-color="#C0C0CA"/>
<stop offset="1" stop-opacity="0"/>
</linearGradient>
<linearGradient id="paint6_linear_1561_5953" x1="97.4706" y1="16.7319" x2="109.778" y2="29.5444" gradientUnits="userSpaceOnUse">
<stop stop-color="#222227"/>
<stop offset="0.73" stop-color="#121214" stop-opacity="0"/>
<stop offset="1" stop-color="#121214" stop-opacity="0"/>
</linearGradient>
<linearGradient id="paint7_linear_1561_5953" x1="96.4801" y1="12.8478" x2="112.131" y2="30.5904" gradientUnits="userSpaceOnUse">
<stop stop-color="#C0C0CA"/>
<stop offset="1" stop-opacity="0"/>
</linearGradient>
<linearGradient id="paint8_linear_1561_5953" x1="26.5068" y1="44.6294" x2="60.3097" y2="57.7297" gradientUnits="userSpaceOnUse">
<stop stop-color="#222227"/>
<stop offset="0.73" stop-color="#121214" stop-opacity="0"/>
<stop offset="1" stop-color="#121214" stop-opacity="0"/>
</linearGradient>
<linearGradient id="paint9_linear_1561_5953" x1="25.0052" y1="28.8115" x2="71.0294" y2="48.2337" gradientUnits="userSpaceOnUse">
<stop stop-color="#C0C0CA"/>
<stop offset="1" stop-opacity="0"/>
</linearGradient>
<linearGradient id="paint10_linear_1561_5953" x1="98.9666" y1="44.6294" x2="132.772" y2="57.732" gradientUnits="userSpaceOnUse">
<stop stop-color="#222227"/>
<stop offset="0.73" stop-color="#121214" stop-opacity="0"/>
<stop offset="1" stop-color="#121214" stop-opacity="0"/>
</linearGradient>
<linearGradient id="paint11_linear_1561_5953" x1="97.4649" y1="28.8115" x2="143.492" y2="48.237" gradientUnits="userSpaceOnUse">
<stop stop-color="#C0C0CA"/>
<stop offset="1" stop-opacity="0"/>
</linearGradient>
<linearGradient id="paint12_linear_1561_5953" x1="57.4544" y1="50.1094" x2="57.1874" y2="115.44" gradientUnits="userSpaceOnUse">
<stop offset="0.0384615" stop-color="#222227"/>
<stop offset="0.418269" stop-color="#121214" stop-opacity="0"/>
<stop offset="0.8125" stop-color="#121214" stop-opacity="0"/>
</linearGradient>
<linearGradient id="paint13_linear_1561_5953" x1="44.409" y1="48.2432" x2="44.409" y2="72.5042" gradientUnits="userSpaceOnUse">
<stop stop-color="#94949B"/>
<stop offset="0.817308" stop-color="#94949B" stop-opacity="0"/>
</linearGradient>
<linearGradient id="paint14_linear_1561_5953" x1="38.0708" y1="48.2432" x2="38.0708" y2="48.9274" gradientUnits="userSpaceOnUse">
<stop stop-color="#94949B"/>
<stop offset="0.817308" stop-color="#94949B" stop-opacity="0"/>
</linearGradient>
<linearGradient id="paint15_linear_1561_5953" x1="102.861" y1="61.1693" x2="114.946" y2="99.6051" gradientUnits="userSpaceOnUse">
<stop offset="0.109299" stop-color="#FF5F1F"/>
<stop offset="0.617064" stop-color="#531F0A"/>
<stop offset="1"/>
</linearGradient>
<linearGradient id="paint16_linear_1561_5953" x1="133.877" y1="144.487" x2="96.6373" y2="141.874" gradientUnits="userSpaceOnUse">
<stop/>
<stop offset="0.504808" stop-color="#531F0A"/>
<stop offset="0.850962" stop-color="#FF9255"/>
</linearGradient>
<linearGradient id="paint17_linear_1561_5953" x1="30.8607" y1="61.1693" x2="42.9457" y2="99.6051" gradientUnits="userSpaceOnUse">
<stop offset="0.109299" stop-color="#FF5F1F"/>
<stop offset="0.617064" stop-color="#531F0A"/>
<stop offset="1"/>
</linearGradient>
<linearGradient id="paint18_linear_1561_5953" x1="61.8774" y1="144.487" x2="24.6373" y2="141.874" gradientUnits="userSpaceOnUse">
<stop/>
<stop offset="0.504808" stop-color="#531F0A"/>
<stop offset="0.850962" stop-color="#FF9255"/>
</linearGradient>
<linearGradient id="paint19_linear_1561_5953" x1="66.8607" y1="28.1693" x2="78.9457" y2="66.6051" gradientUnits="userSpaceOnUse">
<stop offset="0.109299" stop-color="#FF5F1F"/>
<stop offset="0.617064" stop-color="#531F0A"/>
<stop offset="1"/>
</linearGradient>
<linearGradient id="paint20_linear_1561_5953" x1="97.8774" y1="111.487" x2="60.6373" y2="108.874" gradientUnits="userSpaceOnUse">
<stop/>
<stop offset="0.504808" stop-color="#531F0A"/>
<stop offset="0.850962" stop-color="#FF9255"/>
</linearGradient>
<linearGradient id="paint21_linear_1561_5953" x1="20.2413" y1="52.5888" x2="42.8638" y2="34.505" gradientUnits="userSpaceOnUse">
<stop stop-color="#222227"/>
<stop offset="0.769231" stop-color="#121214"/>
<stop offset="1" stop-color="#121214"/>
</linearGradient>
<linearGradient id="paint22_linear_1561_5953" x1="18.9422" y1="38.9588" x2="36.5302" y2="55.5324" gradientUnits="userSpaceOnUse">
<stop stop-color="#94949B"/>
<stop offset="1" stop-color="#94949B" stop-opacity="0"/>
</linearGradient>
<linearGradient id="paint23_linear_1561_5953" x1="109.419" y1="52.5888" x2="132.041" y2="34.505" gradientUnits="userSpaceOnUse">
<stop stop-color="#222227"/>
<stop offset="0.769231" stop-color="#121214"/>
<stop offset="1" stop-color="#121214"/>
</linearGradient>
<linearGradient id="paint24_linear_1561_5953" x1="108.12" y1="38.9588" x2="125.708" y2="55.5324" gradientUnits="userSpaceOnUse">
<stop stop-color="#94949B"/>
<stop offset="1" stop-color="#94949B" stop-opacity="0"/>
</linearGradient>
<clipPath id="clip0_1561_5953">
<rect width="100" height="110" fill="white" transform="translate(18 1)"/>
</clipPath>
</defs>
</svg>
