<svg width="136" height="111" viewBox="0 0 136 111" fill="none" xmlns="http://www.w3.org/2000/svg">
<g clip-path="url(#clip0_1561_5863)">
<g clip-path="url(#clip1_1561_5863)">
<path d="M68.1074 1.5C73.5766 1.50026 78.0059 5.92417 78.0059 11.3623C78.0057 16.8 73.5769 21.2185 68.1074 21.2188C62.6336 21.2188 58.2052 16.8001 58.2051 11.3623C58.2051 5.91486 62.6375 1.5 68.1074 1.5Z" fill="url(#paint0_linear_1561_5863)" stroke="url(#paint1_linear_1561_5863)" stroke-miterlimit="10"/>
<path d="M58.3408 106.149L58.3398 106.135L56.6025 76.4424L56.5752 75.9707H52.9209C50.6762 75.9707 48.8596 74.1586 48.8594 71.9258V37.1074C48.8594 34.7701 50.1451 32.2702 52.084 30.3389C54.0226 28.4078 56.5329 27.1261 58.8809 27.126H77.1172C79.466 27.126 81.9772 28.407 83.916 30.3379C85.855 32.269 87.1406 34.7694 87.1406 37.1074V71.9258C87.1404 74.1584 85.3232 75.9705 83.0801 75.9707H79.4229L79.3955 76.4424L77.6621 106.135L77.6611 106.149V106.164C77.6611 108.558 75.7126 110.502 73.3047 110.502H62.6973C60.2893 110.502 58.3408 108.558 58.3408 106.164V106.149Z" fill="url(#paint2_linear_1561_5863)" stroke="url(#paint3_linear_1561_5863)" stroke-miterlimit="10"/>
<path d="M35.2441 15.4355C39.9877 15.4355 43.8262 19.2645 43.8262 23.9834C43.826 28.702 39.9877 32.5293 35.2441 32.5293C30.4993 32.5292 26.6623 28.7007 26.6621 23.9834C26.6621 19.2632 30.5005 15.4356 35.2441 15.4355Z" fill="url(#paint4_linear_1561_5863)" stroke="url(#paint5_linear_1561_5863)" stroke-miterlimit="10"/>
<path d="M100.941 15.4355C105.686 15.4355 109.523 19.2645 109.523 23.9834C109.523 28.7021 105.686 32.5293 100.941 32.5293C96.1991 32.5292 92.3596 28.7033 92.3594 23.9834C92.3594 19.2632 96.1965 15.4356 100.941 15.4355Z" fill="url(#paint6_linear_1561_5863)" stroke="url(#paint7_linear_1561_5863)" stroke-miterlimit="10"/>
<path d="M26.7773 106.761L26.7764 106.747L25.2617 80.8147L25.2344 80.343H21.9844C20.057 80.343 18.5002 78.7907 18.5 76.8743V46.468C18.5002 44.4497 19.6118 42.2812 21.2969 40.6018C22.9818 38.9226 25.1592 37.8137 27.1875 37.8137H41.8877V71.925C41.8877 74.9082 43.1001 77.5965 45.0381 79.5745V80.8147L43.5254 106.747L43.5244 106.761V106.776C43.5244 108.83 41.8507 110.5 39.7822 110.5H30.5195C28.451 110.5 26.7773 108.83 26.7773 106.776V106.761Z" fill="url(#paint8_linear_1561_5863)" stroke="url(#paint9_linear_1561_5863)" stroke-miterlimit="10"/>
<path d="M92.4717 106.761L92.4707 106.747L90.959 80.8235V79.5735C92.8994 77.5966 94.1123 74.9076 94.1123 71.925V37.8137H108.812C110.841 37.8138 113.018 38.9226 114.703 40.6018C116.388 42.2811 117.499 44.4498 117.499 46.468V76.8743C117.499 78.7905 115.942 80.3429 114.016 80.343H110.765L110.737 80.8147L109.22 106.746V106.776C109.22 108.83 107.547 110.5 105.479 110.5H96.2158C94.1471 110.5 92.4717 108.829 92.4717 106.776V106.761Z" fill="url(#paint10_linear_1561_5863)" stroke="url(#paint11_linear_1561_5863)" stroke-miterlimit="10"/>
</g>
<path d="M98.9375 82.8964C100.102 82.8056 101 81.833 101 80.6664V75.3328C101 74.1646 100.102 73.1936 98.9375 73.1012L91.8698 72.5492C91.421 72.5146 91.0341 72.2333 90.8609 71.8158L88.5369 66.2066C88.3636 65.7917 88.4362 65.3165 88.7299 64.9757L93.3383 59.586C94.0957 58.6975 94.047 57.3766 93.2195 56.5508L89.4493 52.7806C88.6235 51.9548 87.3002 51.902 86.4142 52.6618L81.0245 57.2702C80.6838 57.5623 80.207 57.6365 79.7936 57.4658L74.1821 55.1393C73.7671 54.9677 73.4833 54.575 73.447 54.1303L72.8967 47.0642C72.806 45.8984 71.835 45 70.6668 45H65.3332C64.165 45 63.194 45.8984 63.1033 47.065L62.5514 54.1311C62.5167 54.5783 62.2329 54.9693 61.8179 55.1401L56.2064 57.4666C55.7914 57.6382 55.3162 57.5631 54.9738 57.2711L49.5858 52.6626C48.6998 51.9036 47.3781 51.9556 46.5507 52.7814L42.7805 56.5517C41.9547 57.3775 41.9043 58.6983 42.6617 59.5868L47.2701 64.9766C47.5605 65.3173 47.6364 65.7925 47.4631 66.2075L45.1391 71.8166C44.97 72.2332 44.5773 72.5154 44.1318 72.5501L37.0625 73.102C35.8984 73.1944 35 74.1654 35 75.3336V80.6647C35 81.833 35.8984 82.8056 37.0625 82.8964L44.1318 83.4467C44.5773 83.483 44.97 83.7668 45.1391 84.1817L47.4631 89.7909C47.6364 90.2059 47.5596 90.6835 47.2701 91.0234L42.6617 96.4132C41.9043 97.2992 41.9547 98.6209 42.7805 99.4483L46.5507 103.219C47.3781 104.044 48.6998 104.095 49.5858 103.336L54.9738 98.7273C55.3162 98.4369 55.7914 98.361 56.2064 98.5343L61.8179 100.858C62.2329 101.032 62.5167 101.42 62.5514 101.87L63.1033 108.936C63.194 110.1 64.165 111 65.3332 111H70.6668C71.835 111 72.806 110.1 72.8967 108.936L73.447 101.87C73.4833 101.421 73.7671 101.032 74.1821 100.858L79.7936 98.5343C80.2061 98.361 80.6863 98.4377 81.0245 98.7273L86.4142 103.336C87.3002 104.095 88.6235 104.044 89.4493 103.219L93.2195 99.4483C94.047 98.6209 94.0957 97.2992 93.3383 96.4132L88.7299 91.0234C88.4395 90.6827 88.3636 90.2059 88.5369 89.7909L90.8609 84.1817C91.0341 83.7668 91.421 83.483 91.8698 83.4467L98.9375 82.8964ZM68.0004 89.1524C65.0214 89.1524 62.2197 87.9924 60.1127 85.887C58.0057 83.7783 56.8457 80.9783 56.8457 77.9975C56.8457 75.0168 58.0057 72.2168 60.1127 70.1122C62.2197 68.0035 65.0214 66.8452 68.0004 66.8452C70.9795 66.8452 73.7811 68.0035 75.8881 70.1122C77.9952 72.2168 79.1551 75.0185 79.1551 77.9975C79.1551 80.9766 77.9952 83.7783 75.8881 85.887C73.7811 87.9916 70.9819 89.1524 68.0004 89.1524Z" fill="url(#paint12_linear_1561_5863)" stroke="url(#paint13_linear_1561_5863)" stroke-miterlimit="10"/>
</g>
<defs>
<linearGradient id="paint0_linear_1561_5863" x1="64.1308" y1="3.05696" x2="78.2233" y2="17.7293" gradientUnits="userSpaceOnUse">
<stop stop-color="#222227"/>
<stop offset="0.73" stop-color="#121214" stop-opacity="0"/>
<stop offset="1" stop-color="#121214" stop-opacity="0"/>
</linearGradient>
<linearGradient id="paint1_linear_1561_5863" x1="62.9965" y1="-1.3906" x2="80.9183" y2="18.9273" gradientUnits="userSpaceOnUse">
<stop stop-color="#C0C0CA"/>
<stop offset="1" stop-opacity="0"/>
</linearGradient>
<linearGradient id="paint2_linear_1561_5863" x1="60.4939" y1="35.0029" x2="105.471" y2="56.7173" gradientUnits="userSpaceOnUse">
<stop stop-color="#222227"/>
<stop offset="0.73" stop-color="#121214" stop-opacity="0"/>
<stop offset="1" stop-color="#121214" stop-opacity="0"/>
</linearGradient>
<linearGradient id="paint3_linear_1561_5863" x1="58.352" y1="16.8903" x2="118.948" y2="48.7462" gradientUnits="userSpaceOnUse">
<stop stop-color="#C0C0CA"/>
<stop offset="1" stop-opacity="0"/>
</linearGradient>
<linearGradient id="paint4_linear_1561_5863" x1="31.7733" y1="16.7319" x2="44.0804" y2="29.5444" gradientUnits="userSpaceOnUse">
<stop stop-color="#222227"/>
<stop offset="0.73" stop-color="#121214" stop-opacity="0"/>
<stop offset="1" stop-color="#121214" stop-opacity="0"/>
</linearGradient>
<linearGradient id="paint5_linear_1561_5863" x1="30.7828" y1="12.8478" x2="46.4342" y2="30.5904" gradientUnits="userSpaceOnUse">
<stop stop-color="#C0C0CA"/>
<stop offset="1" stop-opacity="0"/>
</linearGradient>
<linearGradient id="paint6_linear_1561_5863" x1="97.4706" y1="16.7319" x2="109.778" y2="29.5444" gradientUnits="userSpaceOnUse">
<stop stop-color="#222227"/>
<stop offset="0.73" stop-color="#121214" stop-opacity="0"/>
<stop offset="1" stop-color="#121214" stop-opacity="0"/>
</linearGradient>
<linearGradient id="paint7_linear_1561_5863" x1="96.4801" y1="12.8478" x2="112.131" y2="30.5904" gradientUnits="userSpaceOnUse">
<stop stop-color="#C0C0CA"/>
<stop offset="1" stop-opacity="0"/>
</linearGradient>
<linearGradient id="paint8_linear_1561_5863" x1="26.5068" y1="44.6294" x2="60.3097" y2="57.7297" gradientUnits="userSpaceOnUse">
<stop stop-color="#222227"/>
<stop offset="0.73" stop-color="#121214" stop-opacity="0"/>
<stop offset="1" stop-color="#121214" stop-opacity="0"/>
</linearGradient>
<linearGradient id="paint9_linear_1561_5863" x1="25.0052" y1="28.8115" x2="71.0294" y2="48.2337" gradientUnits="userSpaceOnUse">
<stop stop-color="#C0C0CA"/>
<stop offset="1" stop-opacity="0"/>
</linearGradient>
<linearGradient id="paint10_linear_1561_5863" x1="98.9666" y1="44.6294" x2="132.772" y2="57.732" gradientUnits="userSpaceOnUse">
<stop stop-color="#222227"/>
<stop offset="0.73" stop-color="#121214" stop-opacity="0"/>
<stop offset="1" stop-color="#121214" stop-opacity="0"/>
</linearGradient>
<linearGradient id="paint11_linear_1561_5863" x1="97.4649" y1="28.8115" x2="143.492" y2="48.237" gradientUnits="userSpaceOnUse">
<stop stop-color="#C0C0CA"/>
<stop offset="1" stop-opacity="0"/>
</linearGradient>
<linearGradient id="paint12_linear_1561_5863" x1="53.6399" y1="0.0434765" x2="99.2198" y2="146.337" gradientUnits="userSpaceOnUse">
<stop offset="0.109299" stop-color="#FF5F1F"/>
<stop offset="0.617064" stop-color="#531F0A"/>
<stop offset="1"/>
</linearGradient>
<linearGradient id="paint13_linear_1561_5863" x1="108.5" y1="231" x2="22.8636" y2="209.671" gradientUnits="userSpaceOnUse">
<stop/>
<stop offset="0.419245" stop-color="#531F0A"/>
<stop offset="1" stop-color="#FF9255"/>
</linearGradient>
<clipPath id="clip0_1561_5863">
<rect width="136" height="111" fill="white"/>
</clipPath>
<clipPath id="clip1_1561_5863">
<rect width="100" height="110" fill="white" transform="translate(18 1)"/>
</clipPath>
</defs>
</svg>
