<svg width="137" height="112" viewBox="0 0 137 112" fill="none" xmlns="http://www.w3.org/2000/svg">
<g clip-path="url(#clip0_1139_1040)">
<rect x="10" y="0.5" width="114" height="111" rx="8" fill="url(#paint0_linear_1139_1040)"/>
<rect x="-0.5" width="115" height="112" rx="8.5" fill="url(#paint1_linear_1139_1040)" stroke="white" stroke-miterlimit="10"/>
<rect x="9.5" y="43" width="36" height="7" rx="1.5" fill="black" fill-opacity="0.05" stroke="url(#paint2_linear_1139_1040)"/>
<rect x="9.5" y="55" width="26" height="7" rx="1.5" fill="black" fill-opacity="0.05" stroke="url(#paint3_linear_1139_1040)"/>
<rect x="9.5" y="67" width="26" height="7" rx="1.5" fill="url(#paint4_linear_1139_1040)" stroke="url(#paint5_linear_1139_1040)" stroke-miterlimit="10"/>
<path d="M16.1294 25.3203L17.4116 28.6494L17.4155 28.6572L17.4185 28.666L17.4224 28.6758L17.5063 28.9072L18.98 25.3633L19.1724 24.9014L19.6343 25.0938L21.4458 25.8457L21.9077 26.0371L21.7163 26.5L20.144 30.2783L20.145 30.2793C19.6953 31.3638 18.6422 32.0539 17.4692 32.0391V32.04C17.0955 32.0359 16.7343 31.9592 16.4038 31.8213V31.8203C15.7402 31.5449 15.1967 31.0264 14.895 30.3477L14.8384 30.21L13.3638 26.3838L13.1841 25.917L13.6509 25.7383L15.4829 25.0332L15.9497 24.8535L16.1294 25.3203Z" fill="url(#paint6_linear_1139_1040)" stroke="url(#paint7_linear_1139_1040)" stroke-miterlimit="10"/>
<path d="M24.7617 29.1455L25.4668 30.9756L25.6465 31.4424L25.1797 31.6221L21.8379 32.9082L21.8311 32.9111L21.8213 32.9141L21.5889 32.998L25.1367 34.4707L25.5986 34.6621L25.4062 35.124L24.6533 36.9355L24.4619 37.3965L24 37.2051L20.2168 35.6348V35.6338C19.1322 35.1843 18.4401 34.1334 18.4551 32.9609L18.4717 32.6836C18.5015 32.4093 18.5715 32.145 18.6748 31.8975H18.6738C18.9493 31.2336 19.4698 30.6903 20.1494 30.3887L20.2871 30.3311L24.1152 28.8584L24.582 28.6787L24.7617 29.1455Z" fill="url(#paint8_linear_1139_1040)" stroke="url(#paint9_linear_1139_1040)" stroke-miterlimit="10"/>
<path d="M11.0088 28.7854L14.7891 30.3616C15.8728 30.8125 16.5621 31.8651 16.5459 33.0374L16.5469 33.0383C16.5453 33.1638 16.5332 33.2875 16.5156 33.4094H16.6162L16.3271 34.1018C16.0321 34.8094 15.4593 35.3796 14.7119 35.6653L10.8809 37.1321L10.4141 37.3108L10.2354 36.844L9.5332 35.0129L9.35449 34.5452L9.82129 34.3665L13.1543 33.0901L13.1621 33.0872L13.1719 33.0833L13.1807 33.0793L13.4111 32.9954L9.86816 31.5188L9.40625 31.3264L9.59961 30.8645L10.3555 29.0549L10.5479 28.594L11.0088 28.7854Z" fill="url(#paint10_linear_1139_1040)" stroke="url(#paint11_linear_1139_1040)" stroke-miterlimit="10"/>
<path d="M12.5586 9C14.4341 9 15.9551 10.5195 15.9551 12.3945C15.955 14.2695 14.4341 15.7891 12.5586 15.7891C10.6832 15.789 9.1622 14.2694 9.16211 12.3945C9.16211 10.5196 10.6831 9.00009 12.5586 9Z" fill="url(#paint12_linear_1139_1040)" stroke="white" stroke-miterlimit="10"/>
<path d="M21.8965 9C23.772 9 25.293 10.5195 25.293 12.3945C25.2929 14.2695 23.772 15.7891 21.8965 15.7891C20.0211 15.789 18.5001 14.2694 18.5 12.3945C18.5 10.5196 20.021 9.00009 21.8965 9Z" fill="url(#paint13_linear_1139_1040)" stroke="white" stroke-miterlimit="10"/>
<path d="M31.8965 9C33.772 9 35.293 10.5195 35.293 12.3945C35.2929 14.2695 33.772 15.7891 31.8965 15.7891C30.0211 15.789 28.5001 14.2694 28.5 12.3945C28.5 10.5196 30.021 9.00009 31.8965 9Z" fill="url(#paint14_linear_1139_1040)" stroke="white" stroke-miterlimit="10"/>
<rect x="52.5" y="43" width="54" height="33" rx="1.5" fill="black" fill-opacity="0.05" stroke="url(#paint15_linear_1139_1040)"/>
<rect x="9.5" y="84" width="26" height="18" rx="1.5" fill="url(#paint16_linear_1139_1040)" stroke="url(#paint17_linear_1139_1040)" stroke-miterlimit="10"/>
<rect x="45.5" y="84" width="26" height="18" rx="1.5" fill="url(#paint18_linear_1139_1040)" stroke="url(#paint19_linear_1139_1040)" stroke-miterlimit="10"/>
<rect x="80.5" y="84" width="26" height="18" rx="1.5" fill="url(#paint20_linear_1139_1040)" stroke="url(#paint21_linear_1139_1040)" stroke-miterlimit="10"/>
<circle cx="74.5" cy="52" r="4" fill="url(#paint22_linear_1139_1040)" stroke="url(#paint23_linear_1139_1040)" stroke-miterlimit="10"/>
<path d="M106.5 76H52.5V70.1768L52.6484 70.0303L65.6484 57.1445L65.9756 56.8203L66.3252 57.1201L76.4795 65.8232L91.6523 51.1406L91.9922 50.8125L92.3389 51.1328L106.339 64.0508L106.5 64.1992V76Z" fill="url(#paint24_linear_1139_1040)" stroke="url(#paint25_linear_1139_1040)" stroke-miterlimit="10"/>
<path d="M85 33.5C85 29.0817 88.5817 25.5 93 25.5H127C131.418 25.5 135 29.0817 135 33.5V103.5C135 107.918 131.418 111.5 127 111.5H93C88.5817 111.5 85 107.918 85 103.5V33.5Z" fill="url(#paint26_linear_1139_1040)"/>
<path d="M119 25C123.694 25 127.5 28.8056 127.5 33.5V103.5C127.5 108.194 123.694 112 119 112H85C80.3056 112 76.5 108.194 76.5 103.5V33.5C76.5 28.8056 80.3056 25 85 25H119Z" fill="url(#paint27_linear_1139_1040)" stroke="white" stroke-miterlimit="10"/>
<rect x="83.5" y="52" width="36" height="22" rx="1.5" fill="black" fill-opacity="0.05" stroke="url(#paint28_linear_1139_1040)"/>
<circle cx="99.5" cy="58" r="3" fill="url(#paint29_linear_1139_1040)" stroke="url(#paint30_linear_1139_1040)" stroke-miterlimit="10"/>
<path d="M119.5 74H83.5V69.8828L83.6465 69.7363L92.2314 61.1465L92.5605 60.8174L92.9121 61.1221L99.498 66.8213L109.405 57.1426L109.746 56.8086L110.096 57.1338L119.341 65.7461L119.5 65.8945V74Z" fill="url(#paint31_linear_1139_1040)" stroke="url(#paint32_linear_1139_1040)" stroke-miterlimit="10"/>
<path d="M118 81C118.828 81 119.5 81.6716 119.5 82.5V87.5C119.5 88.3284 118.828 89 118 89H85C84.1716 89 83.5 88.3284 83.5 87.5V82.5C83.5 81.6716 84.1716 81 85 81H118Z" fill="black" fill-opacity="0.05" stroke="url(#paint33_linear_1139_1040)"/>
<path d="M118 94C118.828 94 119.5 94.6716 119.5 95.5V100.5C119.5 101.328 118.828 102 118 102H85C84.1716 102 83.5 101.328 83.5 100.5V95.5C83.5 94.6716 84.1716 94 85 94H118Z" fill="url(#paint34_linear_1139_1040)" stroke="url(#paint35_linear_1139_1040)" stroke-miterlimit="10"/>
<path d="M99.6846 34.3135L101.244 38.1816L101.248 38.1914L101.252 38.2002L101.449 38.7207L103.345 34.3643L103.537 33.9209L103.987 34.0996L106.185 34.9707L106.664 35.1621L106.459 35.6357L104.553 40.0146L104.554 40.0156C104.212 40.8044 103.578 41.4012 102.81 41.7256L102.974 41.791H102.647C102.26 41.9315 101.843 42.0042 101.413 41.999V42C100.977 41.9954 100.555 41.9089 100.169 41.7549C100.162 41.752 100.155 41.749 100.147 41.7461L97.75 40.791H98.833C98.6234 40.5385 98.45 40.2524 98.3232 39.9375L96.5361 35.5029L96.3438 35.0254L96.8271 34.8467L99.0488 34.0303L99.5029 33.8633L99.6846 34.3135Z" fill="url(#paint36_linear_1139_1040)" stroke="url(#paint37_linear_1139_1040)" stroke-miterlimit="10"/>
<path d="M109.653 38.3271L110.47 40.5488L110.637 41.0029L110.187 41.1846L106.326 42.7393L106.327 42.7402L106.318 42.7441L106.309 42.748L106.3 42.752L105.778 42.9492L110.136 44.8447L110.579 45.0371L110.4 45.4873L109.529 47.6846L109.338 48.1641L108.864 47.959L104.484 46.0537C103.252 45.5192 102.483 44.2778 102.5 42.9121C102.505 42.4764 102.591 42.0552 102.745 41.6689H102.744C103.072 40.8409 103.714 40.1647 104.562 39.8232L108.997 38.0361L109.475 37.8438L109.653 38.3271Z" fill="url(#paint38_linear_1139_1040)" stroke="url(#paint39_linear_1139_1040)" stroke-miterlimit="10"/>
<path d="M94.1455 38.042L98.5215 39.9541L98.7461 40.0625C99.844 40.6458 100.516 41.8169 100.499 43.0967L100.5 43.0977C100.498 43.2873 100.477 43.4739 100.445 43.6562H100.526L100.254 44.3418C99.9246 45.1693 99.2822 45.8445 98.4336 46.1846V46.1836L93.999 47.9639L93.5205 48.1562L93.3428 47.6719L92.5303 45.4492L92.3643 44.9941L92.8135 44.8135L96.6836 43.2598L96.6914 43.2568L96.7021 43.2529L97.2217 43.0557L92.8701 41.1533L92.4268 40.96L92.6055 40.5107L93.4805 38.3154L93.6719 37.835L94.1455 38.042Z" fill="url(#paint40_linear_1139_1040)" stroke="url(#paint41_linear_1139_1040)" stroke-miterlimit="10"/>
</g>
<defs>
<linearGradient id="paint0_linear_1139_1040" x1="26.8197" y1="-85.9893" x2="184.175" y2="68.9759" gradientUnits="userSpaceOnUse">
<stop stop-color="white" stop-opacity="0"/>
<stop offset="0.190127" stop-color="white" stop-opacity="0"/>
<stop offset="1" stop-color="#D9D9DC"/>
</linearGradient>
<linearGradient id="paint1_linear_1139_1040" x1="-25.5" y1="-53.1091" x2="124.684" y2="47.4797" gradientUnits="userSpaceOnUse">
<stop stop-color="white"/>
<stop offset="0.437462" stop-color="#F9F9F9"/>
<stop offset="1" stop-color="#D9D9DC"/>
</linearGradient>
<linearGradient id="paint2_linear_1139_1040" x1="43.3882" y1="50.625" x2="19.3702" y2="29.683" gradientUnits="userSpaceOnUse">
<stop stop-color="white" stop-opacity="0"/>
<stop offset="1" stop-color="white"/>
</linearGradient>
<linearGradient id="paint3_linear_1139_1040" x1="33.8487" y1="62.625" x2="12.0901" y2="49.0736" gradientUnits="userSpaceOnUse">
<stop stop-color="white" stop-opacity="0"/>
<stop offset="1" stop-color="white"/>
</linearGradient>
<linearGradient id="paint4_linear_1139_1040" x1="11.3798" y1="72.6169" x2="15.1553" y2="47.3521" gradientUnits="userSpaceOnUse">
<stop stop-color="#FF5F1F"/>
<stop offset="1" stop-color="#FF5F1F"/>
</linearGradient>
<linearGradient id="paint5_linear_1139_1040" x1="22.5" y1="67.5" x2="22.5" y2="73.5" gradientUnits="userSpaceOnUse">
<stop stop-color="#F3F3F3" stop-opacity="0"/>
<stop offset="0.466346" stop-color="white"/>
</linearGradient>
<linearGradient id="paint6_linear_1139_1040" x1="14.2403" y1="30.6513" x2="24.7232" y2="9.95936" gradientUnits="userSpaceOnUse">
<stop stop-color="#FF5F1F"/>
<stop offset="1" stop-color="#FF5F1F"/>
</linearGradient>
<linearGradient id="paint7_linear_1139_1040" x1="17.5425" y1="25.5" x2="17.5425" y2="31.5404" gradientUnits="userSpaceOnUse">
<stop stop-color="#F3F3F3" stop-opacity="0"/>
<stop offset="0.466346" stop-color="white"/>
</linearGradient>
<linearGradient id="paint8_linear_1139_1040" x1="19.2887" y1="35.6515" x2="34.6946" y2="15.4888" gradientUnits="userSpaceOnUse">
<stop stop-color="#FF5F1F"/>
<stop offset="1" stop-color="#FF5F1F"/>
</linearGradient>
<linearGradient id="paint9_linear_1139_1040" x1="21.9776" y1="29.3252" x2="21.9776" y2="36.7434" gradientUnits="userSpaceOnUse">
<stop stop-color="#F3F3F3" stop-opacity="0"/>
<stop offset="0.466346" stop-color="white"/>
</linearGradient>
<linearGradient id="paint10_linear_1139_1040" x1="10.3338" y1="35.5735" x2="25.7376" y2="15.4049" gradientUnits="userSpaceOnUse">
<stop stop-color="#FF5F1F"/>
<stop offset="1" stop-color="#FF5F1F"/>
</linearGradient>
<linearGradient id="paint11_linear_1139_1040" x1="13.0238" y1="29.2473" x2="13.0238" y2="36.6653" gradientUnits="userSpaceOnUse">
<stop stop-color="#F3F3F3" stop-opacity="0"/>
<stop offset="0.466346" stop-color="white"/>
</linearGradient>
<linearGradient id="paint12_linear_1139_1040" x1="8.36624" y1="6.70425" x2="16.1194" y2="11.7645" gradientUnits="userSpaceOnUse">
<stop stop-color="white"/>
<stop offset="0.437462" stop-color="#F9F9F9"/>
<stop offset="1" stop-color="#D9D9DC"/>
</linearGradient>
<linearGradient id="paint13_linear_1139_1040" x1="17.7041" y1="6.70425" x2="25.4573" y2="11.7645" gradientUnits="userSpaceOnUse">
<stop stop-color="white"/>
<stop offset="0.437462" stop-color="#F9F9F9"/>
<stop offset="1" stop-color="#D9D9DC"/>
</linearGradient>
<linearGradient id="paint14_linear_1139_1040" x1="27.7041" y1="6.70425" x2="35.4573" y2="11.7645" gradientUnits="userSpaceOnUse">
<stop stop-color="white"/>
<stop offset="0.437462" stop-color="#F9F9F9"/>
<stop offset="1" stop-color="#D9D9DC"/>
</linearGradient>
<linearGradient id="paint15_linear_1139_1040" x1="123.5" y1="93.5" x2="42.6979" y2="77.5648" gradientUnits="userSpaceOnUse">
<stop stop-color="white" stop-opacity="0"/>
<stop offset="1" stop-color="white"/>
</linearGradient>
<linearGradient id="paint16_linear_1139_1040" x1="4.69589e-07" y1="73.28" x2="27.9615" y2="99.8405" gradientUnits="userSpaceOnUse">
<stop stop-color="white"/>
<stop offset="0.437462" stop-color="#F9F9F9"/>
<stop offset="1" stop-color="#D9D9DC" stop-opacity="0"/>
</linearGradient>
<linearGradient id="paint17_linear_1139_1040" x1="12.5" y1="84.5" x2="19.3105" y2="107.87" gradientUnits="userSpaceOnUse">
<stop stop-color="white"/>
<stop offset="1" stop-color="white" stop-opacity="0"/>
</linearGradient>
<linearGradient id="paint18_linear_1139_1040" x1="36" y1="73.28" x2="63.9615" y2="99.8405" gradientUnits="userSpaceOnUse">
<stop stop-color="white"/>
<stop offset="0.437462" stop-color="#F9F9F9"/>
<stop offset="1" stop-color="#D9D9DC" stop-opacity="0"/>
</linearGradient>
<linearGradient id="paint19_linear_1139_1040" x1="48.5" y1="84.5" x2="55.3105" y2="107.87" gradientUnits="userSpaceOnUse">
<stop stop-color="white"/>
<stop offset="1" stop-color="white" stop-opacity="0"/>
</linearGradient>
<linearGradient id="paint20_linear_1139_1040" x1="71" y1="73.28" x2="98.9615" y2="99.8405" gradientUnits="userSpaceOnUse">
<stop stop-color="white"/>
<stop offset="0.437462" stop-color="#F9F9F9"/>
<stop offset="1" stop-color="#D9D9DC" stop-opacity="0"/>
</linearGradient>
<linearGradient id="paint21_linear_1139_1040" x1="83.5" y1="84.5" x2="90.3105" y2="107.87" gradientUnits="userSpaceOnUse">
<stop stop-color="white"/>
<stop offset="1" stop-color="white" stop-opacity="0"/>
</linearGradient>
<linearGradient id="paint22_linear_1139_1040" x1="71.3864" y1="54.4697" x2="84.9073" y2="32.7547" gradientUnits="userSpaceOnUse">
<stop stop-color="#FF5F1F"/>
<stop offset="1" stop-color="#FF5F1F"/>
</linearGradient>
<linearGradient id="paint23_linear_1139_1040" x1="78" y1="59" x2="71.3889" y2="47.7222" gradientUnits="userSpaceOnUse">
<stop stop-color="#F3F3F3" stop-opacity="0"/>
<stop offset="1" stop-color="white"/>
</linearGradient>
<linearGradient id="paint24_linear_1139_1040" x1="41.1447" y1="36.9429" x2="77.6953" y2="85.5323" gradientUnits="userSpaceOnUse">
<stop stop-color="white"/>
<stop offset="0.437462" stop-color="#F9F9F9"/>
<stop offset="1" stop-color="#D9D9DC"/>
</linearGradient>
<linearGradient id="paint25_linear_1139_1040" x1="73.151" y1="42.6803" x2="94.4204" y2="112.365" gradientUnits="userSpaceOnUse">
<stop stop-color="white"/>
<stop offset="0.581731" stop-color="white" stop-opacity="0"/>
</linearGradient>
<linearGradient id="paint26_linear_1139_1040" x1="92.377" y1="-41.5097" x2="196.092" y2="16.3112" gradientUnits="userSpaceOnUse">
<stop stop-color="white" stop-opacity="0"/>
<stop offset="0.190127" stop-color="white" stop-opacity="0"/>
<stop offset="1" stop-color="#D9D9DC"/>
</linearGradient>
<linearGradient id="paint27_linear_1139_1040" x1="65.8158" y1="-16.0349" x2="149.242" y2="15.5963" gradientUnits="userSpaceOnUse">
<stop stop-color="white"/>
<stop offset="0.437462" stop-color="#F9F9F9"/>
<stop offset="1" stop-color="#D9D9DC"/>
</linearGradient>
<linearGradient id="paint28_linear_1139_1040" x1="130.557" y1="85.3125" x2="77.2219" y2="74.7281" gradientUnits="userSpaceOnUse">
<stop stop-color="white" stop-opacity="0"/>
<stop offset="1" stop-color="white"/>
</linearGradient>
<linearGradient id="paint29_linear_1139_1040" x1="97.276" y1="59.7641" x2="106.934" y2="44.2534" gradientUnits="userSpaceOnUse">
<stop stop-color="#FF5F1F"/>
<stop offset="1" stop-color="#FF5F1F"/>
</linearGradient>
<linearGradient id="paint30_linear_1139_1040" x1="102" y1="63" x2="97.2778" y2="54.9444" gradientUnits="userSpaceOnUse">
<stop stop-color="#F3F3F3" stop-opacity="0"/>
<stop offset="1" stop-color="white"/>
</linearGradient>
<linearGradient id="paint31_linear_1139_1040" x1="76.1711" y1="47.7953" x2="100.601" y2="79.9657" gradientUnits="userSpaceOnUse">
<stop stop-color="white"/>
<stop offset="0.437462" stop-color="#F9F9F9"/>
<stop offset="1" stop-color="#D9D9DC"/>
</linearGradient>
<linearGradient id="paint32_linear_1139_1040" x1="97.3073" y1="51.6202" x2="111.599" y2="98.0007" gradientUnits="userSpaceOnUse">
<stop stop-color="white"/>
<stop offset="0.581731" stop-color="white" stop-opacity="0"/>
</linearGradient>
<linearGradient id="paint33_linear_1139_1040" x1="117.388" y1="89.8125" x2="90.2619" y2="69.5392" gradientUnits="userSpaceOnUse">
<stop stop-color="white" stop-opacity="0"/>
<stop offset="1" stop-color="white"/>
</linearGradient>
<linearGradient id="paint34_linear_1139_1040" x1="85.9318" y1="100.47" x2="89.627" y2="70.7961" gradientUnits="userSpaceOnUse">
<stop stop-color="#FF5F1F"/>
<stop offset="1" stop-color="#FF5F1F"/>
</linearGradient>
<linearGradient id="paint35_linear_1139_1040" x1="101.5" y1="94.5" x2="101.5" y2="101.5" gradientUnits="userSpaceOnUse">
<stop stop-color="#F3F3F3" stop-opacity="0"/>
<stop offset="0.466346" stop-color="white"/>
</linearGradient>
<linearGradient id="paint36_linear_1139_1040" x1="97.4967" y1="40.4697" x2="109.318" y2="16.0606" gradientUnits="userSpaceOnUse">
<stop stop-color="#FF5F1F"/>
<stop offset="1" stop-color="#FF5F1F"/>
</linearGradient>
<linearGradient id="paint37_linear_1139_1040" x1="101.5" y1="34.5" x2="101.5" y2="41.5" gradientUnits="userSpaceOnUse">
<stop stop-color="#F3F3F3" stop-opacity="0"/>
<stop offset="0.466346" stop-color="white"/>
</linearGradient>
<linearGradient id="paint38_linear_1139_1040" x1="103.386" y1="46.1753" x2="122.288" y2="22.564" gradientUnits="userSpaceOnUse">
<stop stop-color="#FF5F1F"/>
<stop offset="1" stop-color="#FF5F1F"/>
</linearGradient>
<linearGradient id="paint39_linear_1139_1040" x1="106.5" y1="38.5" x2="106.5" y2="47.5" gradientUnits="userSpaceOnUse">
<stop stop-color="#F3F3F3" stop-opacity="0"/>
<stop offset="0.466346" stop-color="white"/>
</linearGradient>
<linearGradient id="paint40_linear_1139_1040" x1="93.3864" y1="46.1753" x2="112.288" y2="22.564" gradientUnits="userSpaceOnUse">
<stop stop-color="#FF5F1F"/>
<stop offset="1" stop-color="#FF5F1F"/>
</linearGradient>
<linearGradient id="paint41_linear_1139_1040" x1="96.5" y1="38.5" x2="96.5" y2="47.5" gradientUnits="userSpaceOnUse">
<stop stop-color="#F3F3F3" stop-opacity="0"/>
<stop offset="0.466346" stop-color="white"/>
</linearGradient>
<clipPath id="clip0_1139_1040">
<rect width="137" height="112" fill="white"/>
</clipPath>
</defs>
</svg>
