<svg width="137" height="112" viewBox="0 0 137 112" fill="none" xmlns="http://www.w3.org/2000/svg">
<g clip-path="url(#clip0_1139_960)">
<path d="M130.34 9C133.951 9 136.962 11.6719 136.962 15.0654V57.9346C136.962 61.3281 133.951 64 130.34 64H58.1211C54.5102 63.9999 51.5 61.328 51.5 57.9346V15.0654L51.5088 14.749C51.689 11.5073 54.6232 9.0001 58.1211 9H130.34Z" fill="url(#paint0_linear_1139_960)" stroke="white" stroke-miterlimit="10"/>
<path d="M125.203 9C128.625 9 131.423 11.7028 131.423 15.0654V57.9346C131.423 61.2972 128.625 64 125.203 64H57.7197C54.2977 63.9999 51.5 61.2971 51.5 57.9346V15.0654L51.5078 14.752C51.6752 11.5364 54.4046 9.00009 57.7197 9H125.203Z" fill="url(#paint1_linear_1139_960)" stroke="white" stroke-miterlimit="10"/>
<mask id="path-3-outside-1_1139_960" maskUnits="userSpaceOnUse" x="75" y="23.5" width="38" height="30" fill="black">
<rect fill="white" x="75" y="23.5" width="38" height="30"/>
<path fill-rule="evenodd" clip-rule="evenodd" d="M95.7994 24.7221C96.9235 24.7221 98.0163 24.7221 99.1404 24.7221C99.7052 24.7202 100.292 24.7221 100.816 24.965C101.156 25.1175 101.447 25.3961 101.579 25.7558C101.711 26.0853 101.7 26.4468 101.698 26.7951C101.698 27.4052 101.7 28.0133 101.697 28.6234C101.684 29.1449 101.575 29.6947 101.247 30.109C101.11 30.2878 100.921 30.4272 100.721 30.5119C100.989 30.5665 101.178 30.7943 101.328 31.0127C101.575 31.3968 101.7 31.8581 101.7 32.3157C101.7 34.0253 101.7 35.735 101.7 37.4446C100.8 37.4446 99.9344 37.4446 99.034 37.4446C99.034 35.7218 99.034 33.999 99.034 32.2761C99.034 32.1086 99.0065 31.9146 98.8727 31.8016C98.748 31.7 98.5774 31.7113 98.4326 31.7527C98.4326 33.6506 98.4326 35.5467 98.4326 37.4446H95.7994C95.7994 33.2025 95.7994 28.9623 95.7994 24.7202V24.7221ZM76.4689 25.061C76.7532 24.7221 77.3216 24.5922 77.8955 24.5413C78.5923 24.4811 79.5165 24.4867 80.206 24.5583C80.492 24.5884 80.7561 24.6355 80.9358 24.7127C81.297 24.8558 81.5482 25.0403 81.7132 25.4809C81.9351 26.0269 81.9241 26.8121 81.9204 27.3939C81.9204 27.8778 81.9204 28.4426 81.9204 28.8964H79.2561C79.2561 28.4916 79.2561 27.8947 79.2561 27.4842C79.247 27.2526 79.2213 27.0098 79.1076 26.8064C79.0691 26.7349 78.9811 26.6652 78.9022 26.7179C78.7977 26.7895 78.7592 26.9213 78.7262 27.038C78.6437 27.3788 78.6693 27.7328 78.662 28.0792C78.6712 28.4087 78.6657 28.5537 78.7335 28.7175C78.816 28.919 78.9884 29.1167 79.3551 29.3464C79.7475 29.5987 80.2225 29.7889 80.6185 30.0374C81.0696 30.3161 81.506 30.6192 81.7316 31.1182C81.8599 31.3968 81.9259 31.9127 81.9241 32.2196C81.9241 33.3851 81.9241 34.223 81.9241 35.3885C81.9223 35.8799 81.7866 36.5502 81.4217 36.891C81.1998 37.1019 80.8661 37.2431 80.5764 37.3147C80.0116 37.4521 78.0917 37.4728 77.5123 37.3505C77.2171 37.2883 76.9512 37.181 76.6982 37.0323C76.1059 36.6877 76.0142 35.6408 76.0142 34.9517C76.0142 33.9105 76.0215 33.2307 76.0215 32.1895C76.8944 32.1895 77.7947 32.1895 78.6675 32.1895C78.6675 32.969 78.6675 33.628 78.6675 34.4094C78.673 34.6297 78.7024 34.9762 78.8215 35.0872C78.8912 35.1588 79.0306 35.1644 79.0929 35.0835C79.2378 34.8914 79.2451 34.6354 79.2525 34.4264C79.2525 33.7429 79.2525 33.3042 79.2525 32.6226C79.2616 32.3646 79.1278 32.1368 78.9719 32.0445C78.6767 31.8675 78.3723 31.7113 78.0789 31.5324C77.6443 31.2782 76.9989 30.896 76.6376 30.5778C76.3974 30.3631 76.1921 30.0054 76.1187 29.6853C75.9885 29.1091 76.0105 28.2299 76.0069 27.7554C76.005 27.3223 75.9904 27.0719 76.0105 26.6388C76.0252 26.089 76.1462 25.4206 76.4689 25.061ZM100.745 38.2392H104.273V43.1817L104.291 43.1647L104.625 40.8488L105.202 38.2392H108.683L107.188 42.7072C106.954 42.7863 106.69 42.8861 106.475 42.9614L106.998 43.2645C106.983 43.3078 106.954 43.4133 106.939 43.4566C106.636 43.6242 106.354 43.7673 106.051 43.9367C106.334 44.1966 106.603 44.4357 106.873 44.7878C106.69 44.9196 106.251 45.042 105.914 45.1003C105.655 45.1455 105.423 45.2641 105.179 45.3564L106.308 45.8516C106.105 46.0907 105.732 46.3807 105.45 46.6142L106.713 46.81C106.341 47.0736 105.857 47.356 105.448 47.6271C105.87 47.774 106.262 47.9265 106.682 48.0734C106.51 48.224 106.286 48.3313 106.094 48.4462C105.984 48.5102 105.934 48.5742 105.844 48.6665C105.753 48.7757 105.775 48.755 105.883 48.8058L107.366 49.1316C107.1 49.2822 106.798 49.4309 106.501 49.6475C106.226 49.8489 106.182 49.8659 106.499 49.9242C106.899 49.9958 106.639 49.9774 107 50C106.813 50.0546 107.352 50.1634 107.251 50.2669C107.181 50.3554 107.064 50.4571 106.944 50.5418C106.781 50.6793 106.908 50.7941 107.078 50.7941C107.462 50.7941 107.872 50.8073 108.254 50.8073C108.168 51.1048 108.045 51.3176 107.905 51.5492C108.235 51.5906 108.413 51.5717 108.727 51.5529L108.95 52.3494L108.993 52.4793L109 52.5H108.993H105.511L104.696 48.4142L104.291 45.588L104.269 45.5635V52.4981H100.741V38.2373L100.745 38.2392ZM87.0364 47.2468H87.8633V41.1877C87.8633 40.9072 87.702 40.6699 87.4416 40.6699C87.1812 40.6699 87.0382 40.9072 87.0382 41.1877V47.2468H87.0364ZM87.8633 49.7002H87.0364V52.5H83.5377V40.7584C83.5377 39.9865 83.7009 39.4047 83.9228 39.0639C84.2419 38.5724 84.836 38.3616 85.5089 38.2712C86.2369 38.1733 88.6793 38.1657 89.3963 38.2749C90.0289 38.371 90.6267 38.5913 90.9402 39.0789C91.1603 39.4216 91.3803 39.9865 91.3803 40.7584V52.5H87.8633V49.7002ZM91.8002 32.7468H92.4365C92.4365 30.9544 92.4365 29.16 92.4365 27.3694C92.4365 27.119 92.3137 26.9062 92.1193 26.9062C92.1193 26.9005 91.8002 26.9307 91.8002 27.3694V32.7468ZM95.0678 37.4465H92.4347V34.963H91.7984V37.4465H89.1671V26.9439C89.1671 26.2528 89.2899 25.7332 89.4568 25.4281C89.697 24.9876 90.1573 24.7993 90.6652 24.7202C91.2135 24.6336 93.0508 24.626 93.5899 24.724C94.0666 24.8106 94.5159 25.0064 94.7524 25.4432C94.9175 25.7501 95.0696 26.2547 95.0696 26.9457V37.4484L95.0678 37.4465ZM82.6282 24.7221H85.2614V28.629H85.8665V24.7221H88.5381V37.4465H85.8665V30.8037H85.2614V37.4465H82.6282V24.7221ZM92.0954 38.2392H95.4932L96.4321 42.6149L96.8575 45.4694L96.8666 38.2392H99.9527V52.5H96.3771L95.4694 48.3841L95.0513 45.3413V52.4981H92.0954V38.2373V38.2392ZM76.06 38.2392C78.3485 38.2392 80.6185 38.2392 82.9069 38.2392C82.9069 39.0488 82.9069 39.8566 82.9069 40.6662C82.366 40.6662 81.7884 40.6662 81.2475 40.6662C81.2475 44.6108 81.2475 48.5554 81.2475 52.5C80.0666 52.5 78.8876 52.5 77.7067 52.5V40.6662C77.1401 40.6662 76.6285 40.6662 76.0619 40.6662C76.0619 39.8566 76.0619 39.0469 76.0619 38.2392H76.06ZM105.072 29.1901L105.331 26.9966L105.754 24.7202H108.404L106.875 30.0525L108.619 37.4446H105.996L105.395 33.7636L105.07 31.1238V37.4446H102.413V24.7221H105.07V29.192L105.072 29.1901ZM98.4326 26.9043C98.4326 27.6876 98.4326 28.4727 98.4326 29.256C98.5811 29.2504 98.7443 29.2635 98.8745 29.175C98.9992 29.0847 99.0285 28.9171 99.034 28.7721C99.0359 28.3372 99.034 27.9022 99.034 27.4673C99.034 27.3016 98.9992 27.1152 98.8672 27.0041C98.748 26.9005 98.5811 26.8874 98.4326 26.9043Z"/>
</mask>
<path fill-rule="evenodd" clip-rule="evenodd" d="M95.7994 24.7221C96.9235 24.7221 98.0163 24.7221 99.1404 24.7221C99.7052 24.7202 100.292 24.7221 100.816 24.965C101.156 25.1175 101.447 25.3961 101.579 25.7558C101.711 26.0853 101.7 26.4468 101.698 26.7951C101.698 27.4052 101.7 28.0133 101.697 28.6234C101.684 29.1449 101.575 29.6947 101.247 30.109C101.11 30.2878 100.921 30.4272 100.721 30.5119C100.989 30.5665 101.178 30.7943 101.328 31.0127C101.575 31.3968 101.7 31.8581 101.7 32.3157C101.7 34.0253 101.7 35.735 101.7 37.4446C100.8 37.4446 99.9344 37.4446 99.034 37.4446C99.034 35.7218 99.034 33.999 99.034 32.2761C99.034 32.1086 99.0065 31.9146 98.8727 31.8016C98.748 31.7 98.5774 31.7113 98.4326 31.7527C98.4326 33.6506 98.4326 35.5467 98.4326 37.4446H95.7994C95.7994 33.2025 95.7994 28.9623 95.7994 24.7202V24.7221ZM76.4689 25.061C76.7532 24.7221 77.3216 24.5922 77.8955 24.5413C78.5923 24.4811 79.5165 24.4867 80.206 24.5583C80.492 24.5884 80.7561 24.6355 80.9358 24.7127C81.297 24.8558 81.5482 25.0403 81.7132 25.4809C81.9351 26.0269 81.9241 26.8121 81.9204 27.3939C81.9204 27.8778 81.9204 28.4426 81.9204 28.8964H79.2561C79.2561 28.4916 79.2561 27.8947 79.2561 27.4842C79.247 27.2526 79.2213 27.0098 79.1076 26.8064C79.0691 26.7349 78.9811 26.6652 78.9022 26.7179C78.7977 26.7895 78.7592 26.9213 78.7262 27.038C78.6437 27.3788 78.6693 27.7328 78.662 28.0792C78.6712 28.4087 78.6657 28.5537 78.7335 28.7175C78.816 28.919 78.9884 29.1167 79.3551 29.3464C79.7475 29.5987 80.2225 29.7889 80.6185 30.0374C81.0696 30.3161 81.506 30.6192 81.7316 31.1182C81.8599 31.3968 81.9259 31.9127 81.9241 32.2196C81.9241 33.3851 81.9241 34.223 81.9241 35.3885C81.9223 35.8799 81.7866 36.5502 81.4217 36.891C81.1998 37.1019 80.8661 37.2431 80.5764 37.3147C80.0116 37.4521 78.0917 37.4728 77.5123 37.3505C77.2171 37.2883 76.9512 37.181 76.6982 37.0323C76.1059 36.6877 76.0142 35.6408 76.0142 34.9517C76.0142 33.9105 76.0215 33.2307 76.0215 32.1895C76.8944 32.1895 77.7947 32.1895 78.6675 32.1895C78.6675 32.969 78.6675 33.628 78.6675 34.4094C78.673 34.6297 78.7024 34.9762 78.8215 35.0872C78.8912 35.1588 79.0306 35.1644 79.0929 35.0835C79.2378 34.8914 79.2451 34.6354 79.2525 34.4264C79.2525 33.7429 79.2525 33.3042 79.2525 32.6226C79.2616 32.3646 79.1278 32.1368 78.9719 32.0445C78.6767 31.8675 78.3723 31.7113 78.0789 31.5324C77.6443 31.2782 76.9989 30.896 76.6376 30.5778C76.3974 30.3631 76.1921 30.0054 76.1187 29.6853C75.9885 29.1091 76.0105 28.2299 76.0069 27.7554C76.005 27.3223 75.9904 27.0719 76.0105 26.6388C76.0252 26.089 76.1462 25.4206 76.4689 25.061ZM100.745 38.2392H104.273V43.1817L104.291 43.1647L104.625 40.8488L105.202 38.2392H108.683L107.188 42.7072C106.954 42.7863 106.69 42.8861 106.475 42.9614L106.998 43.2645C106.983 43.3078 106.954 43.4133 106.939 43.4566C106.636 43.6242 106.354 43.7673 106.051 43.9367C106.334 44.1966 106.603 44.4357 106.873 44.7878C106.69 44.9196 106.251 45.042 105.914 45.1003C105.655 45.1455 105.423 45.2641 105.179 45.3564L106.308 45.8516C106.105 46.0907 105.732 46.3807 105.45 46.6142L106.713 46.81C106.341 47.0736 105.857 47.356 105.448 47.6271C105.87 47.774 106.262 47.9265 106.682 48.0734C106.51 48.224 106.286 48.3313 106.094 48.4462C105.984 48.5102 105.934 48.5742 105.844 48.6665C105.753 48.7757 105.775 48.755 105.883 48.8058L107.366 49.1316C107.1 49.2822 106.798 49.4309 106.501 49.6475C106.226 49.8489 106.182 49.8659 106.499 49.9242C106.899 49.9958 106.639 49.9774 107 50C106.813 50.0546 107.352 50.1634 107.251 50.2669C107.181 50.3554 107.064 50.4571 106.944 50.5418C106.781 50.6793 106.908 50.7941 107.078 50.7941C107.462 50.7941 107.872 50.8073 108.254 50.8073C108.168 51.1048 108.045 51.3176 107.905 51.5492C108.235 51.5906 108.413 51.5717 108.727 51.5529L108.95 52.3494L108.993 52.4793L109 52.5H108.993H105.511L104.696 48.4142L104.291 45.588L104.269 45.5635V52.4981H100.741V38.2373L100.745 38.2392ZM87.0364 47.2468H87.8633V41.1877C87.8633 40.9072 87.702 40.6699 87.4416 40.6699C87.1812 40.6699 87.0382 40.9072 87.0382 41.1877V47.2468H87.0364ZM87.8633 49.7002H87.0364V52.5H83.5377V40.7584C83.5377 39.9865 83.7009 39.4047 83.9228 39.0639C84.2419 38.5724 84.836 38.3616 85.5089 38.2712C86.2369 38.1733 88.6793 38.1657 89.3963 38.2749C90.0289 38.371 90.6267 38.5913 90.9402 39.0789C91.1603 39.4216 91.3803 39.9865 91.3803 40.7584V52.5H87.8633V49.7002ZM91.8002 32.7468H92.4365C92.4365 30.9544 92.4365 29.16 92.4365 27.3694C92.4365 27.119 92.3137 26.9062 92.1193 26.9062C92.1193 26.9005 91.8002 26.9307 91.8002 27.3694V32.7468ZM95.0678 37.4465H92.4347V34.963H91.7984V37.4465H89.1671V26.9439C89.1671 26.2528 89.2899 25.7332 89.4568 25.4281C89.697 24.9876 90.1573 24.7993 90.6652 24.7202C91.2135 24.6336 93.0508 24.626 93.5899 24.724C94.0666 24.8106 94.5159 25.0064 94.7524 25.4432C94.9175 25.7501 95.0696 26.2547 95.0696 26.9457V37.4484L95.0678 37.4465ZM82.6282 24.7221H85.2614V28.629H85.8665V24.7221H88.5381V37.4465H85.8665V30.8037H85.2614V37.4465H82.6282V24.7221ZM92.0954 38.2392H95.4932L96.4321 42.6149L96.8575 45.4694L96.8666 38.2392H99.9527V52.5H96.3771L95.4694 48.3841L95.0513 45.3413V52.4981H92.0954V38.2373V38.2392ZM76.06 38.2392C78.3485 38.2392 80.6185 38.2392 82.9069 38.2392C82.9069 39.0488 82.9069 39.8566 82.9069 40.6662C82.366 40.6662 81.7884 40.6662 81.2475 40.6662C81.2475 44.6108 81.2475 48.5554 81.2475 52.5C80.0666 52.5 78.8876 52.5 77.7067 52.5V40.6662C77.1401 40.6662 76.6285 40.6662 76.0619 40.6662C76.0619 39.8566 76.0619 39.0469 76.0619 38.2392H76.06ZM105.072 29.1901L105.331 26.9966L105.754 24.7202H108.404L106.875 30.0525L108.619 37.4446H105.996L105.395 33.7636L105.07 31.1238V37.4446H102.413V24.7221H105.07V29.192L105.072 29.1901ZM98.4326 26.9043C98.4326 27.6876 98.4326 28.4727 98.4326 29.256C98.5811 29.2504 98.7443 29.2635 98.8745 29.175C98.9992 29.0847 99.0285 28.9171 99.034 28.7721C99.0359 28.3372 99.034 27.9022 99.034 27.4673C99.034 27.3016 98.9992 27.1152 98.8672 27.0041C98.748 26.9005 98.5811 26.8874 98.4326 26.9043Z" fill="url(#paint2_linear_1139_960)"/>
<path fill-rule="evenodd" clip-rule="evenodd" d="M95.7994 24.7221C96.9235 24.7221 98.0163 24.7221 99.1404 24.7221C99.7052 24.7202 100.292 24.7221 100.816 24.965C101.156 25.1175 101.447 25.3961 101.579 25.7558C101.711 26.0853 101.7 26.4468 101.698 26.7951C101.698 27.4052 101.7 28.0133 101.697 28.6234C101.684 29.1449 101.575 29.6947 101.247 30.109C101.11 30.2878 100.921 30.4272 100.721 30.5119C100.989 30.5665 101.178 30.7943 101.328 31.0127C101.575 31.3968 101.7 31.8581 101.7 32.3157C101.7 34.0253 101.7 35.735 101.7 37.4446C100.8 37.4446 99.9344 37.4446 99.034 37.4446C99.034 35.7218 99.034 33.999 99.034 32.2761C99.034 32.1086 99.0065 31.9146 98.8727 31.8016C98.748 31.7 98.5774 31.7113 98.4326 31.7527C98.4326 33.6506 98.4326 35.5467 98.4326 37.4446H95.7994C95.7994 33.2025 95.7994 28.9623 95.7994 24.7202V24.7221ZM76.4689 25.061C76.7532 24.7221 77.3216 24.5922 77.8955 24.5413C78.5923 24.4811 79.5165 24.4867 80.206 24.5583C80.492 24.5884 80.7561 24.6355 80.9358 24.7127C81.297 24.8558 81.5482 25.0403 81.7132 25.4809C81.9351 26.0269 81.9241 26.8121 81.9204 27.3939C81.9204 27.8778 81.9204 28.4426 81.9204 28.8964H79.2561C79.2561 28.4916 79.2561 27.8947 79.2561 27.4842C79.247 27.2526 79.2213 27.0098 79.1076 26.8064C79.0691 26.7349 78.9811 26.6652 78.9022 26.7179C78.7977 26.7895 78.7592 26.9213 78.7262 27.038C78.6437 27.3788 78.6693 27.7328 78.662 28.0792C78.6712 28.4087 78.6657 28.5537 78.7335 28.7175C78.816 28.919 78.9884 29.1167 79.3551 29.3464C79.7475 29.5987 80.2225 29.7889 80.6185 30.0374C81.0696 30.3161 81.506 30.6192 81.7316 31.1182C81.8599 31.3968 81.9259 31.9127 81.9241 32.2196C81.9241 33.3851 81.9241 34.223 81.9241 35.3885C81.9223 35.8799 81.7866 36.5502 81.4217 36.891C81.1998 37.1019 80.8661 37.2431 80.5764 37.3147C80.0116 37.4521 78.0917 37.4728 77.5123 37.3505C77.2171 37.2883 76.9512 37.181 76.6982 37.0323C76.1059 36.6877 76.0142 35.6408 76.0142 34.9517C76.0142 33.9105 76.0215 33.2307 76.0215 32.1895C76.8944 32.1895 77.7947 32.1895 78.6675 32.1895C78.6675 32.969 78.6675 33.628 78.6675 34.4094C78.673 34.6297 78.7024 34.9762 78.8215 35.0872C78.8912 35.1588 79.0306 35.1644 79.0929 35.0835C79.2378 34.8914 79.2451 34.6354 79.2525 34.4264C79.2525 33.7429 79.2525 33.3042 79.2525 32.6226C79.2616 32.3646 79.1278 32.1368 78.9719 32.0445C78.6767 31.8675 78.3723 31.7113 78.0789 31.5324C77.6443 31.2782 76.9989 30.896 76.6376 30.5778C76.3974 30.3631 76.1921 30.0054 76.1187 29.6853C75.9885 29.1091 76.0105 28.2299 76.0069 27.7554C76.005 27.3223 75.9904 27.0719 76.0105 26.6388C76.0252 26.089 76.1462 25.4206 76.4689 25.061ZM100.745 38.2392H104.273V43.1817L104.291 43.1647L104.625 40.8488L105.202 38.2392H108.683L107.188 42.7072C106.954 42.7863 106.69 42.8861 106.475 42.9614L106.998 43.2645C106.983 43.3078 106.954 43.4133 106.939 43.4566C106.636 43.6242 106.354 43.7673 106.051 43.9367C106.334 44.1966 106.603 44.4357 106.873 44.7878C106.69 44.9196 106.251 45.042 105.914 45.1003C105.655 45.1455 105.423 45.2641 105.179 45.3564L106.308 45.8516C106.105 46.0907 105.732 46.3807 105.45 46.6142L106.713 46.81C106.341 47.0736 105.857 47.356 105.448 47.6271C105.87 47.774 106.262 47.9265 106.682 48.0734C106.51 48.224 106.286 48.3313 106.094 48.4462C105.984 48.5102 105.934 48.5742 105.844 48.6665C105.753 48.7757 105.775 48.755 105.883 48.8058L107.366 49.1316C107.1 49.2822 106.798 49.4309 106.501 49.6475C106.226 49.8489 106.182 49.8659 106.499 49.9242C106.899 49.9958 106.639 49.9774 107 50C106.813 50.0546 107.352 50.1634 107.251 50.2669C107.181 50.3554 107.064 50.4571 106.944 50.5418C106.781 50.6793 106.908 50.7941 107.078 50.7941C107.462 50.7941 107.872 50.8073 108.254 50.8073C108.168 51.1048 108.045 51.3176 107.905 51.5492C108.235 51.5906 108.413 51.5717 108.727 51.5529L108.95 52.3494L108.993 52.4793L109 52.5H108.993H105.511L104.696 48.4142L104.291 45.588L104.269 45.5635V52.4981H100.741V38.2373L100.745 38.2392ZM87.0364 47.2468H87.8633V41.1877C87.8633 40.9072 87.702 40.6699 87.4416 40.6699C87.1812 40.6699 87.0382 40.9072 87.0382 41.1877V47.2468H87.0364ZM87.8633 49.7002H87.0364V52.5H83.5377V40.7584C83.5377 39.9865 83.7009 39.4047 83.9228 39.0639C84.2419 38.5724 84.836 38.3616 85.5089 38.2712C86.2369 38.1733 88.6793 38.1657 89.3963 38.2749C90.0289 38.371 90.6267 38.5913 90.9402 39.0789C91.1603 39.4216 91.3803 39.9865 91.3803 40.7584V52.5H87.8633V49.7002ZM91.8002 32.7468H92.4365C92.4365 30.9544 92.4365 29.16 92.4365 27.3694C92.4365 27.119 92.3137 26.9062 92.1193 26.9062C92.1193 26.9005 91.8002 26.9307 91.8002 27.3694V32.7468ZM95.0678 37.4465H92.4347V34.963H91.7984V37.4465H89.1671V26.9439C89.1671 26.2528 89.2899 25.7332 89.4568 25.4281C89.697 24.9876 90.1573 24.7993 90.6652 24.7202C91.2135 24.6336 93.0508 24.626 93.5899 24.724C94.0666 24.8106 94.5159 25.0064 94.7524 25.4432C94.9175 25.7501 95.0696 26.2547 95.0696 26.9457V37.4484L95.0678 37.4465ZM82.6282 24.7221H85.2614V28.629H85.8665V24.7221H88.5381V37.4465H85.8665V30.8037H85.2614V37.4465H82.6282V24.7221ZM92.0954 38.2392H95.4932L96.4321 42.6149L96.8575 45.4694L96.8666 38.2392H99.9527V52.5H96.3771L95.4694 48.3841L95.0513 45.3413V52.4981H92.0954V38.2373V38.2392ZM76.06 38.2392C78.3485 38.2392 80.6185 38.2392 82.9069 38.2392C82.9069 39.0488 82.9069 39.8566 82.9069 40.6662C82.366 40.6662 81.7884 40.6662 81.2475 40.6662C81.2475 44.6108 81.2475 48.5554 81.2475 52.5C80.0666 52.5 78.8876 52.5 77.7067 52.5V40.6662C77.1401 40.6662 76.6285 40.6662 76.0619 40.6662C76.0619 39.8566 76.0619 39.0469 76.0619 38.2392H76.06ZM105.072 29.1901L105.331 26.9966L105.754 24.7202H108.404L106.875 30.0525L108.619 37.4446H105.996L105.395 33.7636L105.07 31.1238V37.4446H102.413V24.7221H105.07V29.192L105.072 29.1901ZM98.4326 26.9043C98.4326 27.6876 98.4326 28.4727 98.4326 29.256C98.5811 29.2504 98.7443 29.2635 98.8745 29.175C98.9992 29.0847 99.0285 28.9171 99.034 28.7721C99.0359 28.3372 99.034 27.9022 99.034 27.4673C99.034 27.3016 98.9992 27.1152 98.8672 27.0041C98.748 26.9005 98.5811 26.8874 98.4326 26.9043Z" stroke="url(#paint3_linear_1139_960)" stroke-width="2" stroke-miterlimit="10" mask="url(#path-3-outside-1_1139_960)"/>
<path d="M59.3105 13.8462C60.6936 13.8465 61.8154 14.9671 61.8154 16.3501C61.8154 17.7331 60.6936 18.8537 59.3105 18.854C57.9273 18.854 56.8047 17.7332 56.8047 16.3501C56.8047 14.9669 57.9272 13.8462 59.3105 13.8462Z" fill="url(#paint4_linear_1139_960)" stroke="white" stroke-miterlimit="10"/>
<path d="M65.7749 13.8462C67.158 13.8465 68.2798 14.9671 68.2798 16.3501C68.2797 17.7331 67.1579 18.8537 65.7749 18.854C64.3916 18.854 63.2691 17.7332 63.269 16.3501C63.269 14.9669 64.3916 13.8462 65.7749 13.8462Z" fill="url(#paint5_linear_1139_960)" stroke="white" stroke-miterlimit="10"/>
<path d="M72.6982 13.8462C74.0813 13.8465 75.2031 14.9671 75.2031 16.3501C75.2031 17.7331 74.0813 18.8537 72.6982 18.854C71.315 18.854 70.1924 17.7332 70.1924 16.3501C70.1924 14.9669 71.3149 13.8462 72.6982 13.8462Z" fill="url(#paint6_linear_1139_960)" stroke="white" stroke-miterlimit="10"/>
<g clip-path="url(#clip1_1139_960)">
<path d="M40.0112 4.12305C55.7927 2.47195 67.5743 18.0649 61.0786 32.7119C54.3113 47.9792 32.5472 48.7622 24.605 34.0732C17.8749 21.6276 25.8053 5.60742 40.0112 4.12305Z" fill="url(#paint7_linear_1139_960)" stroke="white" stroke-miterlimit="10"/>
<path d="M13.9971 59.6963C28.8207 41.7783 57.7289 42.0574 71.8096 60.7129L72.0352 60.9922C72.1193 61.0942 72.2135 61.2091 72.3018 61.3301C72.4716 61.5629 72.6636 61.8736 72.7129 62.2334L72.79 62.8008H12.0312L12.3223 62.1074C12.6972 61.2137 13.4631 60.3446 13.9971 59.6973V59.6963Z" fill="url(#paint8_linear_1139_960)" stroke="white" stroke-miterlimit="10"/>
<path d="M76.7266 62C81.8748 62 85.2386 66.5381 84.3604 71.7998L78.8125 105.117C78.1655 109.002 74.3145 111.998 70.2178 111.999V112H14.7832C10.686 112 6.8346 109.005 6.1875 105.117L0.639648 71.7988C-0.236142 66.5375 3.12635 62.0001 8.27441 62H76.7266Z" fill="url(#paint9_linear_1139_960)" stroke="white" stroke-miterlimit="10"/>
<path d="M38.5542 75.3203L41.2974 82.4385L41.3042 82.4541L41.3071 82.4639L41.311 82.4727L42.064 84.542C42.1067 84.1849 42.1986 83.8326 42.3394 83.4951L45.6938 75.4258L45.8862 74.9648L46.3472 75.1562L50.2163 76.7617L50.6782 76.9541L50.4858 77.416L47.1313 85.4854C46.2604 87.5854 44.2242 88.9213 41.9517 88.8926V88.8936C41.2279 88.8855 40.5291 88.7362 39.8901 88.4697V88.4707L39.8882 88.4697L37.5845 87.5088H38.354C37.7731 86.995 37.2965 86.3562 36.9683 85.6182L36.8579 85.3506L33.7104 77.1836L33.5308 76.7168L33.9976 76.5371L37.9087 75.0332L38.3745 74.8535L38.5542 75.3203Z" fill="url(#paint10_linear_1139_960)" stroke="url(#paint11_linear_1139_960)" stroke-miterlimit="10"/>
<path d="M56.9819 83.4851L58.4868 87.3923L58.6665 87.8591L58.1997 88.0388L51.0659 90.7839L51.0649 90.783L51.0591 90.7859L51.0415 90.7937L48.9702 91.5457C49.3276 91.5883 49.6804 91.6794 50.0181 91.8201H50.0171L58.0933 95.1726L58.5562 95.364L58.3638 95.8259L56.7563 99.6921L56.5649 100.153L56.103 99.9617L48.0269 96.6091C45.9253 95.7388 44.5865 93.7041 44.6157 91.4324C44.6238 90.7092 44.7738 90.0112 45.0405 89.3728H45.0396C45.6078 88.0035 46.714 86.8984 48.1616 86.3425L56.3354 83.198L56.8022 83.0183L56.9819 83.4851Z" fill="url(#paint12_linear_1139_960)" stroke="url(#paint13_linear_1139_960)" stroke-miterlimit="10"/>
<path d="M27.9355 83.0371L36.0059 86.4023L36.2002 86.4873C38.1874 87.403 39.4393 89.3827 39.4082 91.583L39.4092 91.584C39.4032 92.0535 39.337 92.5125 39.2188 92.9512H39.2715L38.9824 93.6436C38.4117 95.0121 37.3039 96.1142 35.8555 96.668L35.8564 96.6689L27.6777 99.8008L27.2109 99.9795L27.0322 99.5127L25.5332 95.6025L25.3545 95.1357L25.8213 94.957L32.9482 92.2275L32.9648 92.2207L32.9736 92.2168L32.9834 92.2139L35.0547 91.4639C34.7557 91.4277 34.4601 91.3577 34.1738 91.2529L34.0078 91.1885L25.9375 87.8232L25.4756 87.6309L25.668 87.1689L27.2812 83.3066L27.4736 82.8457L27.9355 83.0371Z" fill="url(#paint14_linear_1139_960)" stroke="url(#paint15_linear_1139_960)" stroke-miterlimit="10"/>
</g>
<path d="M118.3 71L118.758 71.0107C121.04 71.1219 123.193 72.0629 124.806 73.71L124.805 73.71C126.552 75.4353 127.5 77.7733 127.5 80.2275L127.5 88.9541C127.5 94.0288 123.362 98.1816 118.3 98.1816L111.027 98.1816C110.49 98.1817 109.967 98.3545 109.536 98.6748L103.286 103.319C102.233 104.103 100.87 104.205 99.7187 103.627C99.1499 103.342 98.6046 102.873 98.1992 102.324C97.7959 101.778 97.5 101.108 97.5 100.416L97.5 80.2275C97.5 75.1227 101.639 71 106.7 71L118.3 71Z" fill="url(#paint16_linear_1139_960)" stroke="white" stroke-miterlimit="10"/>
<path d="M114.3 71L114.758 71.0107C117.04 71.1219 119.193 72.0629 120.806 73.71L120.805 73.71C122.552 75.4353 123.5 77.7733 123.5 80.2275L123.5 88.9541C123.5 94.0288 119.362 98.1816 114.3 98.1816L106.2 98.1816L99.2861 103.319C98.2327 104.103 96.8703 104.205 95.7187 103.627C95.1499 103.342 94.6046 102.873 94.1992 102.324C93.7959 101.778 93.5 101.108 93.5 100.416L93.5 80.2275C93.5 75.1227 97.6387 71 102.7 71L114.3 71Z" fill="url(#paint17_linear_1139_960)" stroke="url(#paint18_linear_1139_960)" stroke-miterlimit="10"/>
<path d="M100.006 82C101.389 82.0003 102.511 83.1209 102.511 84.5039C102.511 85.8869 101.389 87.0076 100.006 87.0078C98.6226 87.0078 97.5001 85.887 97.5 84.5039C97.5 83.1207 98.6226 82 100.006 82Z" fill="url(#paint19_linear_1139_960)" stroke="url(#paint20_linear_1139_960)" stroke-miterlimit="10"/>
<path d="M108.017 82C109.4 82.0003 110.521 83.1209 110.521 84.5039C110.521 85.8869 109.4 87.0076 108.017 87.0078C106.633 87.0078 105.511 85.887 105.511 84.5039C105.511 83.1207 106.633 82 108.017 82Z" fill="url(#paint21_linear_1139_960)" stroke="url(#paint22_linear_1139_960)" stroke-miterlimit="10"/>
<path d="M116.027 82C117.41 82.0003 118.532 83.1209 118.532 84.5039C118.532 85.8869 117.41 87.0075 116.027 87.0078C114.644 87.0078 113.522 85.887 113.521 84.5039C113.521 83.1207 114.644 82 116.027 82Z" fill="url(#paint23_linear_1139_960)" stroke="url(#paint24_linear_1139_960)" stroke-miterlimit="10"/>
</g>
<defs>
<linearGradient id="paint0_linear_1139_960" x1="33.1073" y1="-16.5801" x2="112.102" y2="63.9964" gradientUnits="userSpaceOnUse">
<stop stop-color="white"/>
<stop offset="0.437462" stop-color="#F9F9F9"/>
<stop offset="1" stop-color="#D9D9DC"/>
</linearGradient>
<linearGradient id="paint1_linear_1139_960" x1="34.3462" y1="-16.5801" x2="113.265" y2="58.6408" gradientUnits="userSpaceOnUse">
<stop stop-color="white"/>
<stop offset="0.437462" stop-color="#F9F9F9"/>
<stop offset="1" stop-color="#D9D9DC"/>
</linearGradient>
<linearGradient id="paint2_linear_1139_960" x1="77.8214" y1="48.3787" x2="127.606" y2="-45.8546" gradientUnits="userSpaceOnUse">
<stop stop-color="#FF5F1F"/>
<stop offset="1" stop-color="#FF5F1F"/>
</linearGradient>
<linearGradient id="paint3_linear_1139_960" x1="92.5" y1="24.5" x2="92.5" y2="52.5" gradientUnits="userSpaceOnUse">
<stop stop-color="#F3F3F3" stop-opacity="0"/>
<stop offset="0.466346" stop-color="white"/>
</linearGradient>
<linearGradient id="paint4_linear_1139_960" x1="56.4075" y1="12.4107" x2="61.7752" y2="15.9139" gradientUnits="userSpaceOnUse">
<stop stop-color="white"/>
<stop offset="0.437462" stop-color="#F9F9F9"/>
<stop offset="1" stop-color="#D9D9DC"/>
</linearGradient>
<linearGradient id="paint5_linear_1139_960" x1="62.8719" y1="12.4107" x2="68.2395" y2="15.9139" gradientUnits="userSpaceOnUse">
<stop stop-color="white"/>
<stop offset="0.437462" stop-color="#F9F9F9"/>
<stop offset="1" stop-color="#D9D9DC"/>
</linearGradient>
<linearGradient id="paint6_linear_1139_960" x1="69.7952" y1="12.4107" x2="75.1628" y2="15.9139" gradientUnits="userSpaceOnUse">
<stop stop-color="white"/>
<stop offset="0.437462" stop-color="#F9F9F9"/>
<stop offset="1" stop-color="#D9D9DC"/>
</linearGradient>
<linearGradient id="paint7_linear_1139_960" x1="13.7887" y1="-14.6421" x2="66.9082" y2="20.0742" gradientUnits="userSpaceOnUse">
<stop stop-color="white"/>
<stop offset="0.437462" stop-color="#F9F9F9"/>
<stop offset="1" stop-color="#D9D9DC"/>
</linearGradient>
<linearGradient id="paint8_linear_1139_960" x1="-0.511216" y1="39.5884" x2="14.8069" y2="78.354" gradientUnits="userSpaceOnUse">
<stop stop-color="white"/>
<stop offset="0.437462" stop-color="#F9F9F9"/>
<stop offset="1" stop-color="#D9D9DC"/>
</linearGradient>
<linearGradient id="paint9_linear_1139_960" x1="-17.5658" y1="38.8347" x2="53.775" y2="117.642" gradientUnits="userSpaceOnUse">
<stop stop-color="white"/>
<stop offset="0.437462" stop-color="#F9F9F9"/>
<stop offset="1" stop-color="#D9D9DC"/>
</linearGradient>
<linearGradient id="paint10_linear_1139_960" x1="35.0519" y1="86.4961" x2="57.429" y2="42.3264" gradientUnits="userSpaceOnUse">
<stop stop-color="#FF5F1F"/>
<stop offset="1" stop-color="#FF5F1F"/>
</linearGradient>
<linearGradient id="paint11_linear_1139_960" x1="42.1009" y1="75.5" x2="42.1009" y2="88.394" gradientUnits="userSpaceOnUse">
<stop stop-color="#F3F3F3" stop-opacity="0"/>
<stop offset="0.466346" stop-color="white"/>
</linearGradient>
<linearGradient id="paint12_linear_1139_960" x1="45.8279" y1="97.1692" x2="78.714" y2="54.1292" gradientUnits="userSpaceOnUse">
<stop stop-color="#FF5F1F"/>
<stop offset="1" stop-color="#FF5F1F"/>
</linearGradient>
<linearGradient id="paint13_linear_1139_960" x1="51.5678" y1="83.6648" x2="51.5678" y2="99.4999" gradientUnits="userSpaceOnUse">
<stop stop-color="#F3F3F3" stop-opacity="0"/>
<stop offset="0.466346" stop-color="white"/>
</linearGradient>
<linearGradient id="paint14_linear_1139_960" x1="26.7125" y1="97.0031" x2="59.5941" y2="53.9505" gradientUnits="userSpaceOnUse">
<stop stop-color="#FF5F1F"/>
<stop offset="1" stop-color="#FF5F1F"/>
</linearGradient>
<linearGradient id="paint15_linear_1139_960" x1="32.4547" y1="83.499" x2="32.4547" y2="99.3338" gradientUnits="userSpaceOnUse">
<stop stop-color="#F3F3F3" stop-opacity="0"/>
<stop offset="0.466346" stop-color="white"/>
</linearGradient>
<linearGradient id="paint16_linear_1139_960" x1="91.5132" y1="56.0474" x2="132.526" y2="80.2901" gradientUnits="userSpaceOnUse">
<stop stop-color="white"/>
<stop offset="0.437462" stop-color="#F9F9F9"/>
<stop offset="1" stop-color="#D9D9DC"/>
</linearGradient>
<linearGradient id="paint17_linear_1139_960" x1="95.6006" y1="98.7859" x2="159.883" y2="5.21151" gradientUnits="userSpaceOnUse">
<stop stop-color="#FF5F1F"/>
<stop offset="1" stop-color="#FF5F1F"/>
</linearGradient>
<linearGradient id="paint18_linear_1139_960" x1="108.5" y1="71.5" x2="108.5" y2="103.495" gradientUnits="userSpaceOnUse">
<stop stop-color="#F3F3F3" stop-opacity="0"/>
<stop offset="0.466346" stop-color="white"/>
</linearGradient>
<linearGradient id="paint19_linear_1139_960" x1="98.2214" y1="85.9177" x2="105.96" y2="73.4802" gradientUnits="userSpaceOnUse">
<stop stop-color="#FF5F1F"/>
<stop offset="1" stop-color="#FF5F1F"/>
</linearGradient>
<linearGradient id="paint20_linear_1139_960" x1="99.8076" y1="77.6543" x2="99.8076" y2="89.1543" gradientUnits="userSpaceOnUse">
<stop offset="0.533654" stop-color="white"/>
<stop offset="1" stop-color="#F3F3F3" stop-opacity="0"/>
</linearGradient>
<linearGradient id="paint21_linear_1139_960" x1="106.232" y1="85.9177" x2="113.97" y2="73.4802" gradientUnits="userSpaceOnUse">
<stop stop-color="#FF5F1F"/>
<stop offset="1" stop-color="#FF5F1F"/>
</linearGradient>
<linearGradient id="paint22_linear_1139_960" x1="107.818" y1="77.6543" x2="107.818" y2="89.1543" gradientUnits="userSpaceOnUse">
<stop offset="0.533654" stop-color="white"/>
<stop offset="1" stop-color="#F3F3F3" stop-opacity="0"/>
</linearGradient>
<linearGradient id="paint23_linear_1139_960" x1="114.243" y1="85.9177" x2="121.981" y2="73.4802" gradientUnits="userSpaceOnUse">
<stop stop-color="#FF5F1F"/>
<stop offset="1" stop-color="#FF5F1F"/>
</linearGradient>
<linearGradient id="paint24_linear_1139_960" x1="115.829" y1="77.6543" x2="115.829" y2="89.1543" gradientUnits="userSpaceOnUse">
<stop offset="0.533654" stop-color="white"/>
<stop offset="1" stop-color="#F3F3F3" stop-opacity="0"/>
</linearGradient>
<clipPath id="clip0_1139_960">
<rect width="137" height="112" fill="white"/>
</clipPath>
<clipPath id="clip1_1139_960">
<rect width="84" height="111" fill="white" transform="translate(0 0.5)"/>
</clipPath>
</defs>
</svg>
