<svg width="136" height="111" viewBox="0 0 136 111" fill="none" xmlns="http://www.w3.org/2000/svg">
<g clip-path="url(#clip0_960_1807)">
<path d="M8.8418 0.5H113.158C117.811 0.500041 121.5 3.91926 121.5 8.03906V69.9609C121.5 74.0807 117.811 77.5 113.158 77.5H8.8418C4.18888 77.5 0.5 74.0807 0.5 69.9609V8.03906C0.5 3.91926 4.18888 0.50004 8.8418 0.5Z" fill="url(#paint0_linear_960_1807)" stroke="url(#paint1_linear_960_1807)" stroke-miterlimit="10"/>
<path d="M8.26172 0.5H105.738C110.038 0.500192 113.5 3.88844 113.5 8.03906V69.9609C113.5 74.1116 110.038 77.4998 105.738 77.5H8.26172C3.96201 77.4998 0.5 74.1116 0.5 69.9609V8.03906C0.5 4.01809 3.7491 0.712502 7.86133 0.509766L8.26172 0.5Z" fill="url(#paint2_linear_960_1807)" stroke="url(#paint3_linear_960_1807)" stroke-miterlimit="10"/>
<path d="M28.1396 26.5C33.146 26.5001 36.7221 28.5452 39.3926 31.1914L39.7432 31.5391L39.4014 31.8936L36.333 35.0762L35.9844 35.4375L35.624 35.0869C33.838 33.348 31.4354 32.0088 28.1338 32.0088C22.035 32.009 17.2275 37.1092 17.2275 43.5C17.2275 49.8908 22.0351 54.9911 28.1357 54.9912C32.1187 54.9912 34.3605 53.3448 35.8076 51.8438C36.8508 50.76 37.5895 49.2268 37.9424 47.1094L28.1357 47.1152H27.6357V41.6064H43.1992L43.2744 42.0166C43.4249 42.839 43.5 43.7997 43.5 44.8281V46.0674L43.459 46.0254C43.2641 49.2393 42.2533 52.9602 39.5938 55.7188L39.5928 55.7178C36.7002 58.8385 32.9985 60.4999 28.1396 60.5C19.0888 60.5 11.5 52.8615 11.5 43.5C11.5 34.1385 19.0888 26.5 28.1396 26.5Z" fill="url(#paint4_linear_960_1807)" stroke="url(#paint5_linear_960_1807)" stroke-miterlimit="10"/>
<path d="M12.5586 8.5C14.4341 8.5 15.9551 10.0195 15.9551 11.8945C15.955 13.7695 14.4341 15.2891 12.5586 15.2891C10.6832 15.289 9.1622 13.7694 9.16211 11.8945C9.16211 10.0196 10.6831 8.50009 12.5586 8.5Z" fill="url(#paint6_linear_960_1807)" stroke="url(#paint7_linear_960_1807)" stroke-miterlimit="10"/>
<path d="M21.8965 8.5C23.772 8.5 25.293 10.0195 25.293 11.8945C25.2929 13.7695 23.772 15.2891 21.8965 15.2891C20.0211 15.289 18.5001 13.7694 18.5 11.8945C18.5 10.0196 20.021 8.50009 21.8965 8.5Z" fill="url(#paint8_linear_960_1807)" stroke="url(#paint9_linear_960_1807)" stroke-miterlimit="10"/>
<path d="M31.8965 8.5C33.772 8.5 35.293 10.0195 35.293 11.8945C35.2929 13.7695 33.772 15.2891 31.8965 15.2891C30.0211 15.289 28.5001 13.7694 28.5 11.8945C28.5 10.0196 30.021 8.50009 31.8965 8.5Z" fill="url(#paint10_linear_960_1807)" stroke="url(#paint11_linear_960_1807)" stroke-miterlimit="10"/>
<path d="M42.5 80H15.5C14.6716 80 14 80.6716 14 81.5V88.5C14 89.3284 14.6716 90 15.5 90H42.5C43.3284 90 44 89.3284 44 88.5V81.5C44 80.6716 43.3284 80 42.5 80Z" fill="url(#paint12_linear_960_1807)" stroke="url(#paint13_linear_960_1807)" stroke-miterlimit="10"/>
<path d="M38.5 70H11.5C10.6716 70 10 70.6716 10 71.5V78.5C10 79.3284 10.6716 80 11.5 80H38.5C39.3284 80 40 79.3284 40 78.5V71.5C40 70.6716 39.3284 70 38.5 70Z" fill="url(#paint14_linear_960_1807)" stroke="url(#paint15_linear_960_1807)" stroke-miterlimit="10"/>
<path d="M38.5 90H11.5C10.6716 90 10 90.6716 10 91.5V98.5C10 99.3284 10.6716 100 11.5 100H38.5C39.3284 100 40 99.3284 40 98.5V91.5C40 90.6716 39.3284 90 38.5 90Z" fill="url(#paint16_linear_960_1807)" stroke="url(#paint17_linear_960_1807)" stroke-miterlimit="10"/>
<path d="M38.5 100H11.5C10.6716 100 10 100.672 10 101.5V108.5C10 109.328 10.6716 110 11.5 110H38.5C39.3284 110 40 109.328 40 108.5V101.5C40 100.672 39.3284 100 38.5 100Z" fill="url(#paint18_linear_960_1807)" stroke="url(#paint19_linear_960_1807)" stroke-miterlimit="10"/>
<path d="M102.932 84.5312L114.47 87.8276L109.195 106.294C108.284 109.481 104.963 111.326 101.777 110.415C98.5909 109.505 96.7459 106.184 97.6562 102.998L102.932 84.5312Z" fill="url(#paint20_linear_960_1807)" stroke="url(#paint21_linear_960_1807)" stroke-miterlimit="10"/>
<path d="M91.6366 28.8127C89.3549 37.3687 94.4285 46.1564 102.979 48.4584L127.772 55.1016C132.907 56.4775 135.953 61.756 134.577 66.8897L131.256 79.2867C129.88 84.4204 124.603 87.4686 119.468 86.0926L94.675 79.4495C86.119 77.1678 77.3313 82.2414 75.0293 90.7919L68.8308 89.131L85.4381 27.1518L91.6366 28.8127Z" fill="url(#paint22_linear_960_1807)" stroke="url(#paint23_linear_960_1807)" stroke-miterlimit="10"/>
<path d="M69.4457 59.3183C69.3357 58.5122 69.0704 57.7146 68.647 56.9748C67.3219 54.65 64.7548 53.382 62.105 53.7494L50.9101 55.2915L51.6521 60.6566L62.847 59.1146C63.9113 58.9694 64.8851 58.4426 65.5933 57.6358L66.0758 57.0875C66.4321 56.8613 66.8262 57.3116 66.5593 57.637L62.9662 61.9831L62.9526 62.0009L56.8028 69.7302L61.0399 73.1063L68.0865 64.2502C69.2238 62.8229 69.6854 61.0444 69.4454 59.3179L69.4457 59.3183Z" fill="url(#paint24_linear_960_1807)" stroke="url(#paint25_linear_960_1807)" stroke-miterlimit="10"/>
<path d="M69.5543 47.938L70.1027 48.421C70.3291 48.7777 69.8792 49.1716 69.5537 48.9044L65.2069 45.3069L65.189 45.2933L57.4584 39.1358L54.0866 43.3722L62.9441 50.4276C64.3716 51.5664 66.1498 52.0293 67.8755 51.7905C68.6812 51.681 69.4783 51.4162 70.2176 50.9931C72.5405 49.6692 73.8063 47.1019 73.4371 44.4508L71.888 33.2506L66.5254 33.9891L68.0745 45.1894C68.2204 46.2542 68.7477 47.2288 69.5547 47.9378L69.5543 47.938Z" fill="url(#paint26_linear_960_1807)" stroke="url(#paint27_linear_960_1807)" stroke-miterlimit="10"/>
</g>
<defs>
<linearGradient id="paint0_linear_960_1807" x1="37.6874" y1="7.74393" x2="85.1275" y2="84.6918" gradientUnits="userSpaceOnUse">
<stop stop-color="#222227"/>
<stop offset="0.73" stop-color="#121214" stop-opacity="0"/>
<stop offset="1" stop-color="#121214" stop-opacity="0"/>
</linearGradient>
<linearGradient id="paint1_linear_960_1807" x1="31.0351" y1="-9" x2="89.3469" y2="93.9901" gradientUnits="userSpaceOnUse">
<stop stop-color="#C0C0CA"/>
<stop offset="1" stop-opacity="0"/>
</linearGradient>
<linearGradient id="paint2_linear_960_1807" x1="35.2161" y1="7.74393" x2="84.0322" y2="81.7315" gradientUnits="userSpaceOnUse">
<stop stop-color="#222227"/>
<stop offset="0.73" stop-color="#121214" stop-opacity="0"/>
<stop offset="1" stop-color="#121214" stop-opacity="0"/>
</linearGradient>
<linearGradient id="paint3_linear_960_1807" x1="29" y1="-9" x2="89.2781" y2="90.4818" gradientUnits="userSpaceOnUse">
<stop stop-color="#C0C0CA"/>
<stop offset="1" stop-opacity="0"/>
</linearGradient>
<linearGradient id="paint4_linear_960_1807" x1="35.7687" y1="10.7946" x2="-45.1067" y2="112.932" gradientUnits="userSpaceOnUse">
<stop stop-color="#FF5F1F"/>
<stop offset="0.298077" stop-color="#A93F15" stop-opacity="0.5"/>
<stop offset="0.875" stop-opacity="0"/>
</linearGradient>
<linearGradient id="paint5_linear_960_1807" x1="27.5" y1="36.0357" x2="30.7395" y2="126.465" gradientUnits="userSpaceOnUse">
<stop stop-color="#FF9255"/>
<stop offset="0.317308" stop-color="#531F0A" stop-opacity="0"/>
<stop offset="1" stop-opacity="0"/>
</linearGradient>
<linearGradient id="paint6_linear_960_1807" x1="11.4517" y1="9.57471" x2="15.3897" y2="13.6616" gradientUnits="userSpaceOnUse">
<stop stop-color="#222227"/>
<stop offset="0.73" stop-color="#121214" stop-opacity="0"/>
<stop offset="1" stop-color="#121214" stop-opacity="0"/>
</linearGradient>
<linearGradient id="paint7_linear_960_1807" x1="11.1358" y1="8.33207" x2="16.1451" y2="13.9931" gradientUnits="userSpaceOnUse">
<stop stop-color="#C0C0CA"/>
<stop offset="1" stop-opacity="0"/>
</linearGradient>
<linearGradient id="paint8_linear_960_1807" x1="20.7896" y1="9.57471" x2="24.7275" y2="13.6616" gradientUnits="userSpaceOnUse">
<stop stop-color="#222227"/>
<stop offset="0.73" stop-color="#121214" stop-opacity="0"/>
<stop offset="1" stop-color="#121214" stop-opacity="0"/>
</linearGradient>
<linearGradient id="paint9_linear_960_1807" x1="20.4737" y1="8.33207" x2="25.483" y2="13.9931" gradientUnits="userSpaceOnUse">
<stop stop-color="#C0C0CA"/>
<stop offset="1" stop-opacity="0"/>
</linearGradient>
<linearGradient id="paint10_linear_960_1807" x1="30.7896" y1="9.57471" x2="34.7275" y2="13.6616" gradientUnits="userSpaceOnUse">
<stop stop-color="#222227"/>
<stop offset="0.73" stop-color="#121214" stop-opacity="0"/>
<stop offset="1" stop-color="#121214" stop-opacity="0"/>
</linearGradient>
<linearGradient id="paint11_linear_960_1807" x1="30.4737" y1="8.33207" x2="35.483" y2="13.9931" gradientUnits="userSpaceOnUse">
<stop stop-color="#C0C0CA"/>
<stop offset="1" stop-opacity="0"/>
</linearGradient>
<linearGradient id="paint12_linear_960_1807" x1="13.3852" y1="60.625" x2="46.6386" y2="67.9044" gradientUnits="userSpaceOnUse">
<stop offset="0.0480769" stop-color="#222227"/>
<stop offset="0.533654" stop-color="#121214"/>
<stop offset="1" stop-color="#121214"/>
</linearGradient>
<linearGradient id="paint13_linear_960_1807" x1="53.2647" y1="105.313" x2="-4.39412" y2="92.5795" gradientUnits="userSpaceOnUse">
<stop stop-opacity="0"/>
<stop offset="1" stop-color="#94949B"/>
</linearGradient>
<linearGradient id="paint14_linear_960_1807" x1="9.38525" y1="50.625" x2="42.6386" y2="57.9044" gradientUnits="userSpaceOnUse">
<stop offset="0.0480769" stop-color="#222227"/>
<stop offset="0.533654" stop-color="#121214"/>
<stop offset="1" stop-color="#121214"/>
</linearGradient>
<linearGradient id="paint15_linear_960_1807" x1="49.2647" y1="95.3125" x2="-8.39412" y2="82.5795" gradientUnits="userSpaceOnUse">
<stop stop-opacity="0"/>
<stop offset="1" stop-color="#94949B"/>
</linearGradient>
<linearGradient id="paint16_linear_960_1807" x1="9.38525" y1="70.625" x2="42.6386" y2="77.9044" gradientUnits="userSpaceOnUse">
<stop offset="0.0480769" stop-color="#222227"/>
<stop offset="0.533654" stop-color="#121214"/>
<stop offset="1" stop-color="#121214"/>
</linearGradient>
<linearGradient id="paint17_linear_960_1807" x1="49.2647" y1="115.313" x2="-8.39412" y2="102.579" gradientUnits="userSpaceOnUse">
<stop stop-opacity="0"/>
<stop offset="1" stop-color="#94949B"/>
</linearGradient>
<linearGradient id="paint18_linear_960_1807" x1="9.38525" y1="80.625" x2="42.6386" y2="87.9044" gradientUnits="userSpaceOnUse">
<stop offset="0.0480769" stop-color="#222227"/>
<stop offset="0.533654" stop-color="#121214"/>
<stop offset="1" stop-color="#121214"/>
</linearGradient>
<linearGradient id="paint19_linear_960_1807" x1="49.2647" y1="125.313" x2="-8.39412" y2="112.579" gradientUnits="userSpaceOnUse">
<stop stop-opacity="0"/>
<stop offset="1" stop-color="#94949B"/>
</linearGradient>
<linearGradient id="paint20_linear_960_1807" x1="103.497" y1="114.055" x2="92.3101" y2="73.6395" gradientUnits="userSpaceOnUse">
<stop stop-color="#222227"/>
<stop offset="0.73" stop-color="#121214" stop-opacity="0"/>
<stop offset="1" stop-color="#121214" stop-opacity="0"/>
</linearGradient>
<linearGradient id="paint21_linear_960_1807" x1="92.4866" y1="131.183" x2="119.602" y2="93.0237" gradientUnits="userSpaceOnUse">
<stop stop-color="#94949B"/>
<stop offset="1" stop-opacity="0"/>
</linearGradient>
<linearGradient id="paint22_linear_960_1807" x1="110.509" y1="50.1519" x2="98.0093" y2="95.1519" gradientUnits="userSpaceOnUse">
<stop offset="0.0480769" stop-color="#222227"/>
<stop offset="0.533654" stop-color="#121214"/>
<stop offset="1" stop-color="#121214"/>
</linearGradient>
<linearGradient id="paint23_linear_960_1807" x1="141.509" y1="116.652" x2="85.0093" y2="25.6519" gradientUnits="userSpaceOnUse">
<stop stop-opacity="0"/>
<stop offset="1" stop-color="#94949B"/>
</linearGradient>
<linearGradient id="paint24_linear_960_1807" x1="45.3679" y1="65.1226" x2="105.031" y2="53.6688" gradientUnits="userSpaceOnUse">
<stop stop-color="#FF5F1F"/>
<stop offset="0.65" stop-color="#531F0A" stop-opacity="0"/>
<stop offset="1" stop-opacity="0"/>
</linearGradient>
<linearGradient id="paint25_linear_960_1807" x1="55.1074" y1="67.2368" x2="70.5023" y2="51.3713" gradientUnits="userSpaceOnUse">
<stop offset="0.110577" stop-color="#FF9255"/>
<stop offset="0.423077" stop-color="#531F0A" stop-opacity="0"/>
<stop offset="1" stop-opacity="0"/>
</linearGradient>
<linearGradient id="paint26_linear_960_1807" x1="47.4671" y1="50.3577" x2="117.208" y2="47.6237" gradientUnits="userSpaceOnUse">
<stop stop-color="#FF5F1F"/>
<stop offset="0.65" stop-color="#531F0A" stop-opacity="0"/>
<stop offset="1" stop-opacity="0"/>
</linearGradient>
<linearGradient id="paint27_linear_960_1807" x1="58.013" y1="50.5437" x2="73.6462" y2="29.7687" gradientUnits="userSpaceOnUse">
<stop offset="0.110577" stop-color="#FF9255"/>
<stop offset="0.423077" stop-color="#531F0A" stop-opacity="0"/>
<stop offset="1" stop-opacity="0"/>
</linearGradient>
<clipPath id="clip0_960_1807">
<rect width="136" height="111" fill="white"/>
</clipPath>
</defs>
</svg>
