<svg width="136" height="111" viewBox="0 0 136 111" fill="none" xmlns="http://www.w3.org/2000/svg">
<g clip-path="url(#clip0_960_1741)">
<path d="M8.8418 0.5H113.158C117.811 0.500041 121.5 3.91926 121.5 8.03906V69.9609C121.5 74.0807 117.811 77.5 113.158 77.5H8.8418C4.18888 77.5 0.5 74.0807 0.5 69.9609V8.03906C0.5 3.91926 4.18888 0.50004 8.8418 0.5Z" fill="url(#paint0_linear_960_1741)" stroke="url(#paint1_linear_960_1741)" stroke-miterlimit="10"/>
<path d="M8.26172 0.5H105.738C110.038 0.500192 113.5 3.88844 113.5 8.03906V69.9609C113.5 74.1116 110.038 77.4998 105.738 77.5H8.26172C3.96201 77.4998 0.5 74.1116 0.5 69.9609V8.03906C0.5 4.01809 3.7491 0.712502 7.86133 0.509766L8.26172 0.5Z" fill="url(#paint2_linear_960_1741)" stroke="url(#paint3_linear_960_1741)" stroke-miterlimit="10"/>
<path d="M37.0205 51.9336C37.4265 51.0123 38.4911 50.578 39.4219 50.9795C40.2966 51.3568 40.7246 52.3299 40.4404 53.2246L40.374 53.4023C38.2369 58.3278 33.3782 61.5 28 61.5C24.6472 61.5 21.4752 60.2628 19.0459 58.1035L18.6914 57.7881L18.3574 58.126L16.5166 59.9902C16.173 60.3338 15.6697 60.4326 15.2275 60.2578C14.7893 60.0515 14.5 59.6171 14.5 59.1533V52.0137C14.5 51.3566 15.0226 50.8342 15.6797 50.834H22.8203C23.2821 50.8341 23.7146 51.1205 23.9219 51.5557C24.0996 51.9992 24.0012 52.5046 23.6562 52.8496L21.6963 54.8096L21.3115 55.1953L21.7275 55.5459C23.4497 56.9974 25.6636 57.834 28 57.834C31.9086 57.834 35.4475 55.522 37.0205 51.9336Z" fill="url(#paint4_linear_960_1741)" stroke="url(#paint5_linear_960_1741)" stroke-miterlimit="10"/>
<path d="M27.9995 34.5C31.3526 34.5 34.5264 35.7374 36.9565 37.875L37.3081 38.1855L39.4839 36.0098C39.8306 35.6634 40.3398 35.5649 40.7847 35.7461C41.2144 35.9212 41.4995 36.36 41.4995 36.8467V43.9863C41.4995 44.6435 40.977 45.167 40.3198 45.167H33.1802C32.7105 45.167 32.2809 44.8727 32.1001 44.4453L32.0972 44.4365L32.0396 44.2734C31.9517 43.9407 32.0239 43.577 32.2349 43.2822L32.3521 43.1416L34.3032 41.1904L34.689 40.8057L34.272 40.4541C32.5499 39.0027 30.3358 38.167 27.9995 38.167C24.0913 38.1672 20.5521 40.4774 18.979 44.0654C18.5733 44.9873 17.5086 45.4221 16.5776 45.0205C15.6366 44.5911 15.2258 43.5078 15.6245 42.6016V42.6006C17.7849 37.6723 22.6452 34.5002 27.9995 34.5Z" fill="url(#paint6_linear_960_1741)" stroke="url(#paint7_linear_960_1741)" stroke-miterlimit="10"/>
<path d="M12.5586 8.5C14.4341 8.5 15.9551 10.0195 15.9551 11.8945C15.955 13.7695 14.4341 15.2891 12.5586 15.2891C10.6832 15.289 9.1622 13.7694 9.16211 11.8945C9.16211 10.0196 10.6831 8.50009 12.5586 8.5Z" fill="url(#paint8_linear_960_1741)" stroke="url(#paint9_linear_960_1741)" stroke-miterlimit="10"/>
<path d="M21.8965 8.5C23.772 8.5 25.293 10.0195 25.293 11.8945C25.2929 13.7695 23.772 15.2891 21.8965 15.2891C20.0211 15.289 18.5001 13.7694 18.5 11.8945C18.5 10.0196 20.021 8.50009 21.8965 8.5Z" fill="url(#paint10_linear_960_1741)" stroke="url(#paint11_linear_960_1741)" stroke-miterlimit="10"/>
<path d="M31.8965 8.5C33.772 8.5 35.293 10.0195 35.293 11.8945C35.2929 13.7695 33.772 15.2891 31.8965 15.2891C30.0211 15.289 28.5001 13.7694 28.5 11.8945C28.5 10.0196 30.021 8.50009 31.8965 8.5Z" fill="url(#paint12_linear_960_1741)" stroke="url(#paint13_linear_960_1741)" stroke-miterlimit="10"/>
<path d="M69.6204 27H58.03C56.5362 27 55.3252 28.3738 55.3252 30.0685V68.9315C55.3252 70.6262 56.5362 72 58.03 72H69.6204C71.1142 72 72.3252 70.6262 72.3252 68.9315V30.0685C72.3252 28.3738 71.1142 27 69.6204 27Z" fill="url(#paint14_linear_960_1741)" stroke="url(#paint15_linear_960_1741)" stroke-miterlimit="10"/>
<path d="M94.2952 14H82.7048C81.211 14 80 15.3673 80 17.0539V68.9461C80 70.6327 81.211 72 82.7048 72H94.2952C95.789 72 97 70.6327 97 68.9461V17.0539C97 15.3673 95.789 14 94.2952 14Z" fill="url(#paint16_linear_960_1741)" stroke="url(#paint17_linear_960_1741)" stroke-miterlimit="10"/>
<circle cx="93" cy="67" r="30" fill="url(#paint18_linear_960_1741)" stroke="url(#paint19_linear_960_1741)" stroke-miterlimit="10"/>
<path d="M89.1188 65.3156C89.9174 65.1605 90.6989 64.8508 91.4137 64.3864C93.6604 62.9329 94.7821 60.2985 94.2663 57.6736L92.0976 46.583L86.7826 47.6254L88.9513 58.7159C89.1561 59.7704 89.7368 60.713 90.5822 61.3748L91.1567 61.8256C91.4026 62.1687 90.9751 62.5875 90.6352 62.3393L86.0941 58.9961L86.0755 58.9836L78.0128 53.2778L74.8802 57.698L84.1183 64.2358C85.6072 65.2911 87.4089 65.6519 89.1192 65.3153L89.1188 65.3156Z" fill="url(#paint20_linear_960_1741)" stroke="url(#paint21_linear_960_1741)" stroke-miterlimit="10"/>
<path d="M100.009 64.5676L99.5576 65.1423C99.2142 65.3883 98.7956 64.9612 99.0441 64.6213L102.392 60.0791L102.404 60.0605L108.118 51.9961L103.698 48.8677L97.1518 58.1077C96.0951 59.597 95.7328 61.3984 96.0683 63.1079C96.2228 63.9062 96.5321 64.6872 96.996 65.4015C98.4484 67.6464 101.083 68.7658 103.709 68.2483L114.804 66.0721L113.766 60.7595L102.67 62.9357C101.615 63.1412 100.672 63.7224 100.009 64.568L100.009 64.5676Z" fill="url(#paint22_linear_960_1741)" stroke="url(#paint23_linear_960_1741)" stroke-miterlimit="10"/>
<path d="M91.3379 72.2933C91.1844 71.4948 90.8766 70.7135 90.4138 69.9984C88.965 67.7511 86.3321 66.6278 83.7052 67.1408L72.6063 69.3L73.6369 74.614L84.7358 72.4549C85.7912 72.2508 86.7352 71.6714 87.3993 70.8265L87.8516 70.2523C88.1955 70.0071 88.6131 70.4343 88.3646 70.7742L85.0103 75.3113L84.9977 75.3299L79.2722 83.3854L83.6865 86.521L90.2473 77.2913C91.3061 75.8035 91.6713 74.003 91.3387 72.2928L91.3379 72.2933Z" fill="url(#paint24_linear_960_1741)" stroke="url(#paint25_linear_960_1741)" stroke-miterlimit="10"/>
<path fill-rule="evenodd" clip-rule="evenodd" d="M98 73L134 80.2L123.2 87.4L134 98.2L123.2 109L112.4 98.2L105.2 109L98 73Z" fill="url(#paint26_linear_960_1741)" stroke="url(#paint27_linear_960_1741)" stroke-miterlimit="10"/>
</g>
<defs>
<linearGradient id="paint0_linear_960_1741" x1="37.6874" y1="7.74393" x2="85.1275" y2="84.6918" gradientUnits="userSpaceOnUse">
<stop stop-color="#222227"/>
<stop offset="0.73" stop-color="#121214" stop-opacity="0"/>
<stop offset="1" stop-color="#121214" stop-opacity="0"/>
</linearGradient>
<linearGradient id="paint1_linear_960_1741" x1="31.0351" y1="-9" x2="89.3469" y2="93.9901" gradientUnits="userSpaceOnUse">
<stop stop-color="#C0C0CA"/>
<stop offset="1" stop-opacity="0"/>
</linearGradient>
<linearGradient id="paint2_linear_960_1741" x1="35.2161" y1="7.74393" x2="84.0322" y2="81.7315" gradientUnits="userSpaceOnUse">
<stop stop-color="#222227"/>
<stop offset="0.73" stop-color="#121214" stop-opacity="0"/>
<stop offset="1" stop-color="#121214" stop-opacity="0"/>
</linearGradient>
<linearGradient id="paint3_linear_960_1741" x1="29" y1="-9" x2="89.2781" y2="90.4818" gradientUnits="userSpaceOnUse">
<stop stop-color="#C0C0CA"/>
<stop offset="1" stop-opacity="0"/>
</linearGradient>
<linearGradient id="paint4_linear_960_1741" x1="22.3492" y1="51.4878" x2="27.9881" y2="65.0297" gradientUnits="userSpaceOnUse">
<stop stop-color="#222227"/>
<stop offset="0.73" stop-color="#121214" stop-opacity="0"/>
<stop offset="1" stop-color="#121214" stop-opacity="0"/>
</linearGradient>
<linearGradient id="paint5_linear_960_1741" x1="20.8755" y1="48.9824" x2="27.6648" y2="66.7366" gradientUnits="userSpaceOnUse">
<stop stop-color="#C0C0CA"/>
<stop offset="1" stop-opacity="0"/>
</linearGradient>
<linearGradient id="paint6_linear_960_1741" x1="23.3214" y1="35.1587" x2="28.9603" y2="48.7006" gradientUnits="userSpaceOnUse">
<stop stop-color="#222227"/>
<stop offset="0.73" stop-color="#121214" stop-opacity="0"/>
<stop offset="1" stop-color="#121214" stop-opacity="0"/>
</linearGradient>
<linearGradient id="paint7_linear_960_1741" x1="24" y1="33" x2="32.2434" y2="58.7619" gradientUnits="userSpaceOnUse">
<stop stop-color="#C0C0CA"/>
<stop offset="1" stop-opacity="0"/>
</linearGradient>
<linearGradient id="paint8_linear_960_1741" x1="11.4517" y1="9.57471" x2="15.3897" y2="13.6616" gradientUnits="userSpaceOnUse">
<stop stop-color="#222227"/>
<stop offset="0.73" stop-color="#121214" stop-opacity="0"/>
<stop offset="1" stop-color="#121214" stop-opacity="0"/>
</linearGradient>
<linearGradient id="paint9_linear_960_1741" x1="11.1358" y1="8.33207" x2="16.1451" y2="13.9931" gradientUnits="userSpaceOnUse">
<stop stop-color="#C0C0CA"/>
<stop offset="1" stop-opacity="0"/>
</linearGradient>
<linearGradient id="paint10_linear_960_1741" x1="20.7896" y1="9.57471" x2="24.7275" y2="13.6616" gradientUnits="userSpaceOnUse">
<stop stop-color="#222227"/>
<stop offset="0.73" stop-color="#121214" stop-opacity="0"/>
<stop offset="1" stop-color="#121214" stop-opacity="0"/>
</linearGradient>
<linearGradient id="paint11_linear_960_1741" x1="20.4737" y1="8.33207" x2="25.483" y2="13.9931" gradientUnits="userSpaceOnUse">
<stop stop-color="#C0C0CA"/>
<stop offset="1" stop-opacity="0"/>
</linearGradient>
<linearGradient id="paint12_linear_960_1741" x1="30.7896" y1="9.57471" x2="34.7275" y2="13.6616" gradientUnits="userSpaceOnUse">
<stop stop-color="#222227"/>
<stop offset="0.73" stop-color="#121214" stop-opacity="0"/>
<stop offset="1" stop-color="#121214" stop-opacity="0"/>
</linearGradient>
<linearGradient id="paint13_linear_960_1741" x1="30.4737" y1="8.33207" x2="35.483" y2="13.9931" gradientUnits="userSpaceOnUse">
<stop stop-color="#C0C0CA"/>
<stop offset="1" stop-opacity="0"/>
</linearGradient>
<linearGradient id="paint14_linear_960_1741" x1="63.825" y1="24.4429" x2="63.825" y2="76.1931" gradientUnits="userSpaceOnUse">
<stop stop-color="#FF5F1F"/>
<stop offset="0.65" stop-color="#531F0A" stop-opacity="0"/>
<stop offset="1" stop-color="#121214" stop-opacity="0"/>
</linearGradient>
<linearGradient id="paint15_linear_960_1741" x1="67.4099" y1="72.5626" x2="58.262" y2="26.8337" gradientUnits="userSpaceOnUse">
<stop stop-opacity="0"/>
<stop offset="0.27" stop-color="#531F0A" stop-opacity="0"/>
<stop offset="0.64" stop-color="#FF9255"/>
</linearGradient>
<linearGradient id="paint16_linear_960_1741" x1="88.5002" y1="8.93212" x2="88.5002" y2="73.5725" gradientUnits="userSpaceOnUse">
<stop stop-color="#FF5F1F"/>
<stop offset="0.54" stop-color="#531F0A" stop-opacity="0"/>
<stop offset="1" stop-color="#121214" stop-opacity="0"/>
</linearGradient>
<linearGradient id="paint17_linear_960_1741" x1="93.0852" y1="72.3602" x2="81.4902" y2="14.122" gradientUnits="userSpaceOnUse">
<stop stop-opacity="0"/>
<stop offset="0.504808" stop-color="#531F0A" stop-opacity="0"/>
<stop offset="0.850962" stop-color="#FF9255"/>
</linearGradient>
<linearGradient id="paint18_linear_960_1741" x1="75.7058" y1="84.8795" x2="145.343" y2="29.8598" gradientUnits="userSpaceOnUse">
<stop stop-color="#222227"/>
<stop offset="0.73" stop-color="#121214" stop-opacity="0"/>
<stop offset="1" stop-color="#121214" stop-opacity="0"/>
</linearGradient>
<linearGradient id="paint19_linear_960_1741" x1="71.743" y1="42.8128" x2="125.984" y2="93.3325" gradientUnits="userSpaceOnUse">
<stop stop-color="#94949B"/>
<stop offset="1" stop-color="#94949B" stop-opacity="0"/>
</linearGradient>
<linearGradient id="paint20_linear_960_1741" x1="82.3475" y1="40.559" x2="78.4574" y2="108.648" gradientUnits="userSpaceOnUse">
<stop stop-color="#FF5F1F"/>
<stop offset="0.65" stop-color="#531F0A" stop-opacity="0"/>
<stop offset="1" stop-opacity="0"/>
</linearGradient>
<linearGradient id="paint21_linear_960_1741" x1="79.5636" y1="52.6213" x2="110.176" y2="92.3089" gradientUnits="userSpaceOnUse">
<stop stop-color="#FF9255"/>
<stop offset="0.317308" stop-color="#531F0A" stop-opacity="0"/>
<stop offset="1" stop-opacity="0"/>
</linearGradient>
<linearGradient id="paint22_linear_960_1741" x1="96.3519" y1="42.6513" x2="103.001" y2="112.128" gradientUnits="userSpaceOnUse">
<stop stop-color="#FF5F1F"/>
<stop offset="0.65" stop-color="#531F0A" stop-opacity="0"/>
<stop offset="1" stop-opacity="0"/>
</linearGradient>
<linearGradient id="paint23_linear_960_1741" x1="96.7588" y1="53.1909" x2="118.38" y2="67.6319" gradientUnits="userSpaceOnUse">
<stop offset="0.110577" stop-color="#FF9255"/>
<stop offset="0.423077" stop-color="#531F0A" stop-opacity="0"/>
<stop offset="1" stop-opacity="0"/>
</linearGradient>
<linearGradient id="paint24_linear_960_1741" x1="81.1706" y1="84.5752" x2="85.7282" y2="14.6748" gradientUnits="userSpaceOnUse">
<stop stop-color="#FF5F1F"/>
<stop offset="0.65" stop-color="#531F0A" stop-opacity="0"/>
<stop offset="1" stop-opacity="0"/>
</linearGradient>
<linearGradient id="paint25_linear_960_1741" x1="72.6151" y1="69.256" x2="92.0043" y2="98.3946" gradientUnits="userSpaceOnUse">
<stop offset="0.105769" stop-color="#FF9255"/>
<stop offset="0.504808" stop-color="#531F0A" stop-opacity="0"/>
<stop offset="1" stop-opacity="0"/>
</linearGradient>
<linearGradient id="paint26_linear_960_1741" x1="98" y1="73" x2="133.93" y2="109.069" gradientUnits="userSpaceOnUse">
<stop offset="0.0480769" stop-color="#222227"/>
<stop offset="0.533654" stop-color="#121214"/>
<stop offset="1" stop-color="#121214"/>
</linearGradient>
<linearGradient id="paint27_linear_960_1741" x1="151.5" y1="130.5" x2="100.51" y2="78.3705" gradientUnits="userSpaceOnUse">
<stop stop-opacity="0"/>
<stop offset="1" stop-color="#94949B"/>
</linearGradient>
<clipPath id="clip0_960_1741">
<rect width="136" height="111" fill="white"/>
</clipPath>
</defs>
</svg>
