<svg width="136" height="111" viewBox="0 0 136 111" fill="none" xmlns="http://www.w3.org/2000/svg">
<g clip-path="url(#clip0_960_1773)">
<g clip-path="url(#clip1_960_1773)">
<path d="M114.053 62.5C117.086 62.7333 119.583 65.4268 119.497 68.4639L118.307 76.5752C115.464 95.9321 98.879 110.292 79.3145 110.336L12.3789 110.487C10.5237 110.491 9.00533 110.059 7.89062 109.217C6.85328 108.433 6.12064 107.259 5.80566 105.633L5.74805 105.302C4.85617 99.4182 4.07464 93.516 3.28516 87.6084C2.49585 81.7022 1.69846 75.791 0.773438 69.8994C0.592067 68.7442 0.507026 67.6412 0.833984 66.6406C1.52763 64.5179 3.14746 62.9626 5.50391 62.5928C5.51095 62.5917 5.51745 62.5873 5.52441 62.5859L114.053 62.5ZM5.80664 62.4258C5.78857 62.4457 5.76898 62.4639 5.74805 62.4805C5.7687 62.4635 5.78874 62.446 5.80664 62.4258ZM5.88184 62.3164C5.86568 62.3487 5.84546 62.3779 5.82324 62.4053C5.84517 62.3778 5.86565 62.3487 5.88184 62.3164Z" fill="url(#paint0_linear_960_1773)" stroke="url(#paint1_linear_960_1773)" stroke-miterlimit="10"/>
<path d="M42.0811 87.5086C42.6618 87.7509 43.2976 87.8863 43.9568 87.8936C46.0261 87.9202 47.8769 86.7047 48.6694 84.7936L52.0245 76.7239L48.1559 75.1179L44.8008 83.1876C44.4809 83.9543 44.4509 84.81 44.7117 85.5982L44.8884 86.1347C44.8998 86.4609 44.4451 86.5474 44.3326 86.242L42.8411 82.144L42.8345 82.1279L40.0878 75L36.1772 76.5038L39.3242 84.671C39.8307 85.9883 40.8362 86.9926 42.0815 87.5086H42.0811Z" fill="url(#paint2_linear_960_1773)" stroke="url(#paint3_linear_960_1773)" stroke-miterlimit="10"/>
<path d="M49.4133 91.6927L48.8764 91.8694C48.5499 91.8807 48.4634 91.4264 48.7691 91.314L52.8703 89.8237L52.8864 89.8171L60.0199 87.0726L58.5149 83.165L50.3413 86.3095C49.0229 86.8157 48.0178 87.8203 47.5014 89.0646C47.2589 89.6448 47.1235 90.2802 47.1162 90.9388C47.0895 93.0064 48.306 94.8558 50.2186 95.6477L58.2947 99.0002L59.9019 95.1346L51.8258 91.7822C51.0585 91.4625 50.2021 91.4326 49.4133 91.6931V91.6927Z" fill="url(#paint4_linear_960_1773)" stroke="url(#paint5_linear_960_1773)" stroke-miterlimit="10"/>
<path d="M40.5206 92.9519C40.7639 92.372 40.9005 91.7371 40.9089 91.0784C40.9388 89.0108 39.7249 87.1595 37.8138 86.3644L29.7428 82.9995L28.1296 86.8625L36.2006 90.2274C36.9676 90.5482 37.8236 90.5795 38.6132 90.3201L39.1504 90.1442C39.4769 90.1336 39.5627 90.5876 39.257 90.7L35.1536 92.1841L35.1375 92.1906L28 94.9242L29.4988 98.8343L37.6772 95.7026C38.9963 95.1983 40.0028 94.1955 40.5214 92.9519H40.5206Z" fill="url(#paint6_linear_960_1773)" stroke="url(#paint7_linear_960_1773)" stroke-miterlimit="10"/>
<path d="M39.1147 0.617188C54.159 -0.956914 65.3374 13.8875 59.1646 27.8066C52.7368 42.308 32.0355 43.0621 24.4849 29.0977C18.0757 17.2457 25.6542 2.02384 39.1147 0.617188Z" fill="url(#paint8_linear_960_1773)" stroke="url(#paint9_linear_960_1773)" stroke-miterlimit="10"/>
<path d="M13.7676 55.833C28.1901 38.4004 56.3308 38.6881 70.0127 56.8164V56.8174C70.1665 57.0199 70.1195 57.1211 70.1045 57.1465C70.0767 57.193 69.9652 57.3007 69.6816 57.3008H14.583C14.0779 57.3008 13.7481 57.0673 13.6064 56.8057C13.4715 56.5562 13.463 56.2023 13.7676 55.833Z" fill="url(#paint10_linear_960_1773)" stroke="url(#paint11_linear_960_1773)" stroke-miterlimit="10"/>
</g>
<path d="M90.8944 22.6399L87.9103 20.3587L84.9263 22.6399L86.0723 18.956L83.0898 16.6901H86.772L87.9103 13L89.0487 16.6901H92.7303L89.7484 18.9566L90.8944 22.6404V22.6399Z" fill="url(#paint12_linear_960_1773)" stroke="url(#paint13_linear_960_1773)" stroke-miterlimit="10"/>
<path d="M76.8046 22.6399L73.8205 20.3587L70.8364 22.6399L71.9824 18.956L69 16.6901H72.6821L73.8205 13L74.9589 16.6901H78.6404L75.6586 18.9566L76.8046 22.6404V22.6399Z" fill="url(#paint14_linear_960_1773)" stroke="url(#paint15_linear_960_1773)" stroke-miterlimit="10"/>
<path d="M104.984 22.6399L102 20.3587L99.0161 22.6399L100.162 18.956L97.1797 16.6901H100.862L102 13L103.139 16.6901H106.82L103.838 18.9566L104.984 22.6404V22.6399Z" fill="url(#paint16_linear_960_1773)" stroke="url(#paint17_linear_960_1773)" stroke-miterlimit="10"/>
<path d="M119.074 22.6399L116.09 20.3587L113.106 22.6399L114.252 18.956L111.27 16.6901H114.952L116.09 13L117.229 16.6901H120.91L117.928 18.9566L119.074 22.6404V22.6399Z" fill="url(#paint18_linear_960_1773)" stroke="url(#paint19_linear_960_1773)" stroke-miterlimit="10"/>
<path d="M133.164 22.6399L130.18 20.3587L127.196 22.6399L128.342 18.956L125.36 16.6901H129.042L130.18 13L131.318 16.6901H135L132.018 18.9566L133.164 22.6404V22.6399Z" fill="url(#paint20_linear_960_1773)" stroke="url(#paint21_linear_960_1773)" stroke-miterlimit="10"/>
<rect x="64.5" y="39.5" width="71" height="71" rx="35.5" fill="url(#paint22_linear_960_1773)"/>
<rect x="64.5" y="39.5" width="71" height="71" rx="35.5" stroke="url(#paint23_linear_960_1773)" stroke-miterlimit="10"/>
<path d="M105.067 56.5C104.672 56.7729 104.194 57.0353 103.767 57.2764C103.263 57.5611 102.827 57.8242 102.534 58.0947C102.366 58.2492 102.309 58.4631 102.388 58.792L104.69 62.1836L108.165 60.4473L105.649 56.7158L105.284 56.5H105.067Z" fill="url(#paint24_linear_960_1773)" stroke="url(#paint25_linear_960_1773)" stroke-miterlimit="10"/>
<path d="M109.9 63.4805C109.825 63.4623 109.724 63.4594 109.576 63.498L109.413 63.5518C107.998 64.0916 106.559 64.8685 105.084 65.6748C103.639 66.4651 102.157 67.2839 100.682 67.8896C100.507 68.0027 100.419 68.1237 100.382 68.2314C100.354 68.3125 100.346 68.4145 100.379 68.542L100.427 68.6777C100.428 68.6807 100.437 68.6967 100.456 68.7305C100.477 68.7671 100.506 68.8138 100.54 68.8682C100.608 68.9769 100.694 69.1093 100.783 69.2412C100.872 69.373 100.962 69.5015 101.037 69.6045C101.075 69.6561 101.107 69.6998 101.133 69.7324C101.151 69.756 101.162 69.7687 101.166 69.7734C101.277 69.8831 101.489 69.9683 101.728 69.9893C102.779 70.0826 103.948 70.0207 105.16 69.9629C106.354 69.9059 107.59 69.8533 108.706 69.9863C109.609 70.0937 110.08 70.8633 110.06 71.5811C110.049 71.9451 109.916 72.3179 109.64 72.6123C109.36 72.9103 108.962 73.0994 108.476 73.1426C107.695 73.2117 106.872 73.1818 106.086 73.1523C105.388 73.1262 104.717 73.1037 104.08 73.1367L98.9717 83.1836L98.9219 83.2832L98.833 83.3516C98.2268 83.8224 97.4855 83.8496 96.9297 83.5059C96.3681 83.1585 96.069 82.4779 96.251 81.7129L96.2646 81.6562L96.291 81.6035L100.494 73.2529C100.442 73.2716 100.387 73.2911 100.326 73.3135C98.6794 73.9222 97.041 74.6984 95.377 75.4883C93.7202 76.2747 92.0371 77.0755 90.332 77.71L90.3213 77.7139L90.3105 77.7168C89.2386 78.0603 88.1658 77.8651 87.2715 77.3516C87.2226 79.9737 87.3218 82.1205 89.252 83.8633L89.4678 84.0508C89.5726 84.1378 89.7086 84.2288 89.8789 84.3369C90.0401 84.4392 90.2344 84.5585 90.4141 84.6855C90.7565 84.9278 91.1889 85.2906 91.3066 85.8389L91.3115 85.8633L91.3145 85.8877C91.4291 86.902 91.3808 87.9887 91.335 89.0215C91.2941 89.9408 91.2549 90.8178 91.3145 91.6279L91.3467 91.9707C91.3675 92.153 91.4358 92.2701 91.5186 92.3457C91.6017 92.4216 91.7311 92.4836 91.9209 92.5H108.35C108.71 92.4839 108.966 92.2093 108.965 91.8789C108.702 90.6219 108.337 89.349 107.973 88.0527C107.651 86.9091 107.329 85.7483 107.091 84.5928L106.994 84.0977C106.985 84.0461 106.969 83.991 106.942 83.8857C106.922 83.8066 106.889 83.6715 106.886 83.542V83.541C106.881 83.2779 106.988 83.0153 107.09 82.8125C107.2 82.5937 107.347 82.366 107.495 82.1543C107.645 81.941 107.804 81.7319 107.945 81.5498C108.091 81.3621 108.21 81.2125 108.292 81.0996C109.424 79.5485 110.582 78.0161 111.738 76.4883C112.89 74.9665 114.04 73.4494 115.166 71.916C115.344 71.6203 115.358 71.5336 115.357 71.4912C115.357 71.4353 115.333 71.3425 115.157 71.0137C114.52 69.821 113.658 68.6298 112.761 67.4062C111.885 66.212 110.977 64.9843 110.267 63.7412C110.112 63.5666 109.994 63.5032 109.9 63.4805Z" fill="url(#paint26_linear_960_1773)" stroke="url(#paint27_linear_960_1773)" stroke-miterlimit="10"/>
<path d="M93.5222 64.1309C93.3638 64.0982 93.2147 64.1137 93.0447 64.1807C93.0444 64.1808 93.0438 64.1812 93.0427 64.1816C93.0412 64.1823 93.0387 64.1833 93.0359 64.1846C93.0303 64.1871 93.0226 64.1898 93.0134 64.1943C92.9946 64.2035 92.9709 64.216 92.9421 64.2314C92.8845 64.2625 92.8132 64.3031 92.7312 64.3516C92.5675 64.4483 92.3711 64.5712 92.1726 64.6982C91.7664 64.9582 91.3885 65.2151 91.2722 65.3086C91.12 65.4311 91.0453 65.5402 91.0085 65.6396C90.9777 65.7231 90.965 65.83 90.9832 65.9785L94.7302 71.625C94.8595 71.7702 94.945 71.8361 95.0164 71.8682C95.0638 71.8895 95.1283 71.9075 95.2341 71.9023L95.3542 71.8887C95.3389 71.8912 95.3583 71.8884 95.4382 71.8604C95.506 71.8366 95.5946 71.8022 95.699 71.7607C95.9071 71.678 96.166 71.5691 96.4265 71.4551C96.6868 71.3411 96.9452 71.2242 97.1521 71.126C97.2558 71.0767 97.3445 71.0332 97.4128 70.998C97.447 70.9805 97.4744 70.9656 97.4949 70.9541C97.5165 70.942 97.5239 70.9373 97.5222 70.9385C97.7543 70.7805 97.7933 70.6567 97.8005 70.5703C97.8109 70.4469 97.7655 70.261 97.615 69.9795C97.1363 69.083 96.487 68.187 95.8054 67.2578C95.1417 66.353 94.4468 65.4149 93.9041 64.4619C93.8399 64.3803 93.7652 64.2974 93.6882 64.2324C93.6 64.158 93.5431 64.135 93.5232 64.1309H93.5222Z" fill="url(#paint28_linear_960_1773)" stroke="url(#paint29_linear_960_1773)" stroke-miterlimit="10"/>
<path d="M87.8914 67.6035C87.7905 67.6055 87.6569 67.6673 87.4089 67.7969H87.408C87.2399 67.8841 86.8757 68.0996 86.5115 68.3311C86.1345 68.5707 85.8214 68.788 85.7195 68.8828L85.7185 68.8838C85.5418 69.0475 85.5062 69.1636 85.5007 69.2471C85.494 69.3523 85.5283 69.5056 85.6541 69.7471C86.03 70.4691 86.5615 71.199 87.1277 71.9658C87.6738 72.7053 88.2534 73.4813 88.6951 74.2656C88.8677 74.49 89.0596 74.5798 89.2888 74.5605C89.2991 74.5575 89.3208 74.5522 89.3562 74.54C89.4226 74.5173 89.5111 74.4834 89.6179 74.4414C89.8305 74.3578 90.0988 74.2463 90.3699 74.1289C90.6407 74.0116 90.9114 73.8899 91.1277 73.7891C91.2358 73.7386 91.3286 73.694 91.4001 73.6582C91.4359 73.6403 91.4652 73.626 91.4871 73.6143L91.5173 73.5967C91.7217 73.464 91.7657 73.3421 91.7742 73.2373C91.7853 73.0985 91.7372 72.9008 91.5994 72.6436C90.9835 71.4954 89.2963 68.9828 88.4646 67.9785L88.4656 67.9775C88.2219 67.684 88.1032 67.6063 87.8962 67.6045L87.8914 67.6035Z" fill="url(#paint30_linear_960_1773)" stroke="url(#paint31_linear_960_1773)" stroke-miterlimit="10"/>
<path d="M99.55 60.3735C99.3824 60.3008 99.2291 60.2895 99.054 60.3403C99.082 60.3318 99.0694 60.3337 98.9768 60.3843C98.9011 60.4257 98.7998 60.4839 98.6799 60.5552C98.441 60.6972 98.139 60.8839 97.8362 61.0757C97.5334 61.2675 97.2323 61.4625 96.9963 61.6206C96.8782 61.6997 96.7781 61.7684 96.7034 61.8218C96.6173 61.8833 96.593 61.9046 96.5999 61.8979C96.4773 62.0177 96.4082 62.2065 96.4163 62.4087L98.2864 65.3462L101.788 63.605C101.042 62.471 100.382 61.3611 99.55 60.3735Z" fill="url(#paint32_linear_960_1773)" stroke="url(#paint33_linear_960_1773)" stroke-miterlimit="10"/>
</g>
<defs>
<linearGradient id="paint0_linear_960_1773" x1="37.0696" y1="66.8648" x2="72.7027" y2="123.361" gradientUnits="userSpaceOnUse">
<stop stop-color="#222227"/>
<stop offset="0.73" stop-color="#121214"/>
<stop offset="1" stop-color="#121214"/>
</linearGradient>
<linearGradient id="paint1_linear_960_1773" x1="30.5263" y1="56.3462" x2="60.049" y2="94.2814" gradientUnits="userSpaceOnUse">
<stop stop-color="#C0C0CA"/>
<stop offset="1" stop-opacity="0"/>
</linearGradient>
<linearGradient id="paint2_linear_960_1773" x1="48.3279" y1="68.6681" x2="16.6522" y2="110.84" gradientUnits="userSpaceOnUse">
<stop stop-color="#FF5F1F"/>
<stop offset="0.65" stop-color="#531F0A" stop-opacity="0"/>
<stop offset="1" stop-opacity="0"/>
</linearGradient>
<linearGradient id="paint3_linear_960_1773" x1="41.3676" y1="75.2417" x2="44.0744" y2="113.91" gradientUnits="userSpaceOnUse">
<stop stop-color="#FF9255"/>
<stop offset="0.317308" stop-color="#531F0A" stop-opacity="0"/>
<stop offset="1" stop-opacity="0"/>
</linearGradient>
<linearGradient id="paint4_linear_960_1773" x1="56.4482" y1="76.0152" x2="30.9635" y2="123.596" gradientUnits="userSpaceOnUse">
<stop stop-color="#FF5F1F"/>
<stop offset="0.65" stop-color="#531F0A" stop-opacity="0"/>
<stop offset="1" stop-opacity="0"/>
</linearGradient>
<linearGradient id="paint5_linear_960_1773" x1="52.1947" y1="82.9755" x2="59.9283" y2="101.536" gradientUnits="userSpaceOnUse">
<stop offset="0.110577" stop-color="#FF9255"/>
<stop offset="0.423077" stop-color="#531F0A" stop-opacity="0"/>
<stop offset="1" stop-opacity="0"/>
</linearGradient>
<linearGradient id="paint6_linear_960_1773" x1="28.7125" y1="96.5036" x2="61.5941" y2="53.451" gradientUnits="userSpaceOnUse">
<stop stop-color="#FF5F1F"/>
<stop offset="0.65" stop-color="#531F0A" stop-opacity="0"/>
<stop offset="1" stop-color="#121214" stop-opacity="0"/>
</linearGradient>
<linearGradient id="paint7_linear_960_1773" x1="29.7673" y1="82.975" x2="29.7673" y2="110.043" gradientUnits="userSpaceOnUse">
<stop offset="0.105769" stop-color="#FF9255"/>
<stop offset="0.504808" stop-color="#531F0A" stop-opacity="0"/>
<stop offset="1" stop-opacity="0"/>
</linearGradient>
<linearGradient id="paint8_linear_960_1773" x1="33.9456" y1="3.93732" x2="60.9092" y2="31.9593" gradientUnits="userSpaceOnUse">
<stop stop-color="#222227"/>
<stop offset="0.73" stop-color="#121214"/>
<stop offset="1" stop-color="#121214"/>
</linearGradient>
<linearGradient id="paint9_linear_960_1773" x1="31.7795" y1="-4.57173" x2="66.0751" y2="34.2384" gradientUnits="userSpaceOnUse">
<stop stop-color="#C0C0CA"/>
<stop offset="1" stop-opacity="0"/>
</linearGradient>
<linearGradient id="paint10_linear_960_1773" x1="30.1431" y1="44.0059" x2="31.6367" y2="56.639" gradientUnits="userSpaceOnUse">
<stop stop-color="#222227"/>
<stop offset="0.73" stop-color="#121214"/>
<stop offset="1" stop-color="#121214"/>
</linearGradient>
<linearGradient id="paint11_linear_960_1773" x1="26.9023" y1="40.7182" x2="29.3661" y2="52.6161" gradientUnits="userSpaceOnUse">
<stop stop-color="#C0C0CA"/>
<stop offset="1" stop-opacity="0"/>
</linearGradient>
<linearGradient id="paint12_linear_960_1773" x1="90.4815" y1="8.26583" x2="65.9005" y2="34.8935" gradientUnits="userSpaceOnUse">
<stop stop-color="#FF5F1F"/>
<stop offset="0.65" stop-color="#531F0A" stop-opacity="0"/>
<stop offset="1" stop-opacity="0"/>
</linearGradient>
<linearGradient id="paint13_linear_960_1773" x1="86.2473" y1="13.1807" x2="88.7284" y2="42.0199" gradientUnits="userSpaceOnUse">
<stop stop-color="#FF9255"/>
<stop offset="0.427885" stop-color="#531F0A" stop-opacity="0"/>
<stop offset="1" stop-opacity="0"/>
</linearGradient>
<linearGradient id="paint14_linear_960_1773" x1="76.3916" y1="8.26583" x2="51.8106" y2="34.8935" gradientUnits="userSpaceOnUse">
<stop stop-color="#FF5F1F"/>
<stop offset="0.65" stop-color="#531F0A" stop-opacity="0"/>
<stop offset="1" stop-opacity="0"/>
</linearGradient>
<linearGradient id="paint15_linear_960_1773" x1="72.1575" y1="13.1807" x2="74.6386" y2="42.0199" gradientUnits="userSpaceOnUse">
<stop stop-color="#FF9255"/>
<stop offset="0.427885" stop-color="#531F0A" stop-opacity="0"/>
<stop offset="1" stop-opacity="0"/>
</linearGradient>
<linearGradient id="paint16_linear_960_1773" x1="104.571" y1="8.26583" x2="79.9903" y2="34.8935" gradientUnits="userSpaceOnUse">
<stop stop-color="#FF5F1F"/>
<stop offset="0.65" stop-color="#531F0A" stop-opacity="0"/>
<stop offset="1" stop-opacity="0"/>
</linearGradient>
<linearGradient id="paint17_linear_960_1773" x1="100.337" y1="13.1807" x2="102.818" y2="42.0199" gradientUnits="userSpaceOnUse">
<stop stop-color="#FF9255"/>
<stop offset="0.427885" stop-color="#531F0A" stop-opacity="0"/>
<stop offset="1" stop-opacity="0"/>
</linearGradient>
<linearGradient id="paint18_linear_960_1773" x1="118.661" y1="8.26583" x2="94.0804" y2="34.8935" gradientUnits="userSpaceOnUse">
<stop stop-color="#FF5F1F"/>
<stop offset="0.65" stop-color="#531F0A" stop-opacity="0"/>
<stop offset="1" stop-opacity="0"/>
</linearGradient>
<linearGradient id="paint19_linear_960_1773" x1="114.427" y1="13.1807" x2="116.908" y2="42.0199" gradientUnits="userSpaceOnUse">
<stop stop-color="#FF9255"/>
<stop offset="0.427885" stop-color="#531F0A" stop-opacity="0"/>
<stop offset="1" stop-opacity="0"/>
</linearGradient>
<linearGradient id="paint20_linear_960_1773" x1="132.751" y1="8.26583" x2="108.17" y2="34.8935" gradientUnits="userSpaceOnUse">
<stop stop-color="#FF5F1F"/>
<stop offset="0.65" stop-color="#531F0A" stop-opacity="0"/>
<stop offset="1" stop-opacity="0"/>
</linearGradient>
<linearGradient id="paint21_linear_960_1773" x1="128.517" y1="13.1807" x2="130.998" y2="42.0199" gradientUnits="userSpaceOnUse">
<stop stop-color="#FF9255"/>
<stop offset="0.427885" stop-color="#531F0A" stop-opacity="0"/>
<stop offset="1" stop-opacity="0"/>
</linearGradient>
<linearGradient id="paint22_linear_960_1773" x1="86.2418" y1="46.1482" x2="135.223" y2="96.9425" gradientUnits="userSpaceOnUse">
<stop stop-color="#222227"/>
<stop offset="0.73" stop-color="#121214"/>
<stop offset="1" stop-color="#121214"/>
</linearGradient>
<linearGradient id="paint23_linear_960_1773" x1="82.3158" y1="30.6923" x2="144.627" y2="101.055" gradientUnits="userSpaceOnUse">
<stop stop-color="#C0C0CA"/>
<stop offset="1" stop-opacity="0"/>
</linearGradient>
<linearGradient id="paint24_linear_960_1773" x1="104.885" y1="57.1379" x2="108.846" y2="74.7019" gradientUnits="userSpaceOnUse">
<stop stop-color="#FF5F1F"/>
<stop offset="0.65" stop-color="#531F0A" stop-opacity="0"/>
<stop offset="1" stop-opacity="0"/>
</linearGradient>
<linearGradient id="paint25_linear_960_1773" x1="110.071" y1="64.3791" x2="104.214" y2="56.4671" gradientUnits="userSpaceOnUse">
<stop stop-opacity="0"/>
<stop offset="0.576923" stop-color="#531F0A" stop-opacity="0"/>
<stop offset="0.889423" stop-color="#FF9255"/>
</linearGradient>
<linearGradient id="paint26_linear_960_1773" x1="99.2882" y1="67.9732" x2="117.723" y2="144.735" gradientUnits="userSpaceOnUse">
<stop stop-color="#FF5F1F"/>
<stop offset="0.65" stop-color="#531F0A" stop-opacity="0"/>
<stop offset="1" stop-opacity="0"/>
</linearGradient>
<linearGradient id="paint27_linear_960_1773" x1="120.707" y1="99.8258" x2="94.5117" y2="66.6013" gradientUnits="userSpaceOnUse">
<stop stop-opacity="0"/>
<stop offset="0.576923" stop-color="#531F0A" stop-opacity="0"/>
<stop offset="0.889423" stop-color="#FF9255"/>
</linearGradient>
<linearGradient id="paint28_linear_960_1773" x1="93.8435" y1="65.079" x2="99.6532" y2="87.3202" gradientUnits="userSpaceOnUse">
<stop stop-color="#FF5F1F"/>
<stop offset="0.65" stop-color="#531F0A" stop-opacity="0"/>
<stop offset="1" stop-opacity="0"/>
</linearGradient>
<linearGradient id="paint29_linear_960_1773" x1="99.6063" y1="74.4002" x2="91.8153" y2="65.3148" gradientUnits="userSpaceOnUse">
<stop stop-opacity="0"/>
<stop offset="0.576923" stop-color="#531F0A" stop-opacity="0"/>
<stop offset="0.889423" stop-color="#FF9255"/>
</linearGradient>
<linearGradient id="paint30_linear_960_1773" x1="88.133" y1="68.4304" x2="93.2792" y2="88.6429" gradientUnits="userSpaceOnUse">
<stop stop-color="#FF5F1F"/>
<stop offset="0.65" stop-color="#531F0A" stop-opacity="0"/>
<stop offset="1" stop-opacity="0"/>
</linearGradient>
<linearGradient id="paint31_linear_960_1773" x1="93.4888" y1="76.8743" x2="86.4607" y2="68.4662" gradientUnits="userSpaceOnUse">
<stop stop-opacity="0"/>
<stop offset="0.576923" stop-color="#531F0A" stop-opacity="0"/>
<stop offset="0.889423" stop-color="#FF9255"/>
</linearGradient>
<linearGradient id="paint32_linear_960_1773" x1="98.7584" y1="60.8393" x2="102.239" y2="76.8073" gradientUnits="userSpaceOnUse">
<stop stop-color="#FF5F1F"/>
<stop offset="0.65" stop-color="#531F0A" stop-opacity="0"/>
<stop offset="1" stop-opacity="0"/>
</linearGradient>
<linearGradient id="paint33_linear_960_1773" x1="103.621" y1="67.4016" x2="98.3678" y2="60.0602" gradientUnits="userSpaceOnUse">
<stop stop-opacity="0"/>
<stop offset="0.576923" stop-color="#531F0A" stop-opacity="0"/>
<stop offset="0.889423" stop-color="#FF9255"/>
</linearGradient>
<clipPath id="clip0_960_1773">
<rect width="136" height="111" fill="white"/>
</clipPath>
<clipPath id="clip1_960_1773">
<rect width="107" height="111" fill="white"/>
</clipPath>
</defs>
</svg>
