<svg width="137" height="112" viewBox="0 0 137 112" fill="none" xmlns="http://www.w3.org/2000/svg">
<g clip-path="url(#clip0_1561_6057)">
<rect x="11.0586" y="67.8975" width="58.4856" height="43.6142" fill="url(#paint0_linear_1561_6057)" stroke="url(#paint1_linear_1561_6057)" stroke-miterlimit="10"/>
<path d="M69.9014 68.5625V111.512H87.6523V49.2812L69.9014 68.5625Z" fill="url(#paint2_linear_1561_6057)" stroke="url(#paint3_linear_1561_6057)" stroke-miterlimit="10"/>
<rect x="33.7539" y="85.6738" width="11.8347" height="26.3591" rx="1" fill="url(#paint4_linear_1561_6057)" stroke="url(#paint5_linear_1561_6057)" stroke-miterlimit="10"/>
<rect x="17.1836" y="83.1687" width="10.5562" height="13.223" rx="0.5" fill="url(#paint6_linear_1561_6057)" stroke="url(#paint7_linear_1561_6057)" stroke-miterlimit="10"/>
<rect x="52.9258" y="83.1687" width="10.5562" height="13.223" rx="0.5" fill="url(#paint8_linear_1561_6057)" stroke="url(#paint9_linear_1561_6057)" stroke-miterlimit="10"/>
<rect x="0.5" y="-0.5" width="13.1084" height="2.76225" transform="matrix(1 0 0 -1 14.7832 98.7747)" fill="url(#paint10_linear_1561_6057)" stroke="url(#paint11_linear_1561_6057)" stroke-miterlimit="10"/>
<rect x="0.5" y="-0.5" width="13.1084" height="2.76225" transform="matrix(1 0 0 -1 50.5234 98.7747)" fill="url(#paint12_linear_1561_6057)" stroke="url(#paint13_linear_1561_6057)" stroke-miterlimit="10"/>
<rect x="0.5" y="-0.5" width="14.518" height="2.23291" transform="matrix(1 0 0 -1 30.6055 111.012)" fill="url(#paint14_linear_1561_6057)" stroke="url(#paint15_linear_1561_6057)" stroke-miterlimit="10"/>
<path d="M20.3271 48.3188L88.6641 48L68.6787 70H0.664062L20.3271 48.3188Z" fill="url(#paint16_linear_1561_6057)" stroke="url(#paint17_linear_1561_6057)" stroke-miterlimit="10"/>
<circle cx="45.039" cy="97.2303" r="1.03116" fill="url(#paint18_linear_1561_6057)" stroke="url(#paint19_linear_1561_6057)" stroke-miterlimit="10"/>
<rect x="75" y="6.5" width="60" height="105" rx="7.5" fill="url(#paint20_linear_1561_6057)" stroke="url(#paint21_linear_1561_6057)" stroke-miterlimit="10"/>
<rect x="57.7949" y="6.0769" width="60.0892" height="105.906" rx="5.5" fill="url(#paint22_linear_1561_6057)" stroke="url(#paint23_linear_1561_6057)" stroke-miterlimit="10"/>
<rect x="81.7969" y="93.4844" width="12.281" height="18.4215" fill="url(#paint24_linear_1561_6057)" stroke="url(#paint25_linear_1561_6057)" stroke-miterlimit="10"/>
<rect x="70.2422" y="47.5447" width="13.281" height="13.281" rx="1" fill="black" fill-opacity="0.05" stroke="url(#paint26_linear_1561_6057)"/>
<rect x="70.2422" y="67.9663" width="13.281" height="13.281" rx="1" fill="black" fill-opacity="0.05" stroke="url(#paint27_linear_1561_6057)"/>
<rect x="92.3457" y="47.5447" width="13.281" height="13.281" rx="1" fill="black" fill-opacity="0.05" stroke="url(#paint28_linear_1561_6057)"/>
<rect x="92.3457" y="67.9663" width="13.281" height="13.281" rx="1" fill="black" fill-opacity="0.05" stroke="url(#paint29_linear_1561_6057)"/>
<path d="M85.6602 19.5168L87.3262 23.5813L87.3301 23.5901L87.334 23.5999L87.5771 24.2288C87.5848 24.2103 87.5915 24.1914 87.5996 24.1731L89.6357 19.5715L89.8291 19.134L90.2744 19.3079L92.6221 20.2239L93.1084 20.4133L92.8975 20.8918L90.8613 25.4934C90.4897 26.3356 89.7971 26.9657 88.959 27.2971L89.0684 27.3401H88.8516C88.5211 27.4588 88.1698 27.5318 87.8076 27.553L87.5391 27.5598C87.0788 27.555 86.6338 27.4649 86.2256 27.3049V27.3059L86.2236 27.3049L83.7627 26.3401H84.8457C84.6085 26.0675 84.4118 25.7566 84.2705 25.4114L82.3613 20.7532L82.1641 20.2708L82.6543 20.094L85.0273 19.2356L85.4775 19.0735L85.6602 19.5168Z" fill="url(#paint30_linear_1561_6057)" stroke="url(#paint31_linear_1561_6057)" stroke-miterlimit="10"/>
<path d="M96.5762 24.052L97.4336 26.2854L97.6123 26.7522L97.1465 26.9319L93.082 28.5002L93.0732 28.5042L93.0635 28.5071L92.5166 28.7053L97.0918 30.6106L97.5527 30.803L97.3613 31.2639L96.4453 33.4739L96.2539 33.9358L95.791 33.7434L91.1895 31.8274C89.9101 31.296 89.0955 30.0533 89.1133 28.6682C89.1183 28.2273 89.2087 27.8012 89.3711 27.4114C89.7171 26.5757 90.3908 25.9009 91.2715 25.5618L95.9287 23.7649L96.3965 23.5852L96.5762 24.052Z" fill="url(#paint32_linear_1561_6057)" stroke="url(#paint33_linear_1561_6057)" stroke-miterlimit="10"/>
<path d="M79.4863 23.7708L84.084 25.6936C85.3612 26.2271 86.1717 27.4704 86.1523 28.8547L86.1533 28.8557C86.1509 29.0473 86.1322 29.236 86.0986 29.4202H86.1826L85.8945 30.1116C85.5691 30.8947 84.9565 31.5363 84.1553 31.8918L83.9922 31.9592L79.334 33.7483L78.8662 33.928L78.6875 33.4602L77.834 31.2258L77.6553 30.759L78.1211 30.5803L82.1875 29.0178L82.1953 29.0149L82.2051 29.011L82.751 28.8118L78.1816 26.9006L77.7217 26.7083L77.9131 26.2473L78.832 24.0393L79.0244 23.5774L79.4863 23.7708Z" fill="url(#paint34_linear_1561_6057)" stroke="url(#paint35_linear_1561_6057)" stroke-miterlimit="10"/>
<rect x="126.535" y="96.2856" width="1.78571" height="15.7143" rx="0.892857" fill="url(#paint36_linear_1561_6057)" stroke="url(#paint37_linear_1561_6057)" stroke-miterlimit="10"/>
<circle cx="127.479" cy="90.75" r="8.75" fill="url(#paint38_linear_1561_6057)" stroke="url(#paint39_linear_1561_6057)" stroke-miterlimit="10"/>
<circle cx="121.017" cy="95.0357" r="4.46428" fill="url(#paint40_linear_1561_6057)" stroke="url(#paint41_linear_1561_6057)" stroke-miterlimit="10"/>
</g>
<defs>
<linearGradient id="paint0_linear_1561_6057" x1="28.9345" y1="71.8268" x2="57.7778" y2="111.708" gradientUnits="userSpaceOnUse">
<stop stop-color="#222227"/>
<stop offset="0.73" stop-color="#121214" stop-opacity="0"/>
<stop offset="1" stop-color="#121214" stop-opacity="0"/>
</linearGradient>
<linearGradient id="paint1_linear_1561_6057" x1="25.6909" y1="62.2497" x2="61.5432" y2="116.229" gradientUnits="userSpaceOnUse">
<stop stop-color="#C0C0CA"/>
<stop offset="1" stop-opacity="0"/>
</linearGradient>
<linearGradient id="paint2_linear_1561_6057" x1="82.5597" y1="71.8268" x2="60.8441" y2="80.9651" gradientUnits="userSpaceOnUse">
<stop stop-color="#222227"/>
<stop offset="0.73" stop-color="#121214" stop-opacity="0"/>
<stop offset="1" stop-color="#121214" stop-opacity="0"/>
</linearGradient>
<linearGradient id="paint3_linear_1561_6057" x1="59.7027" y1="40.8876" x2="81.0399" y2="115.891" gradientUnits="userSpaceOnUse">
<stop stop-color="#C0C0CA"/>
<stop offset="1" stop-opacity="0"/>
</linearGradient>
<linearGradient id="paint4_linear_1561_6057" x1="37.0963" y1="67.7191" x2="67.1192" y2="110.984" gradientUnits="userSpaceOnUse">
<stop offset="0.109299" stop-color="#FF5F1F"/>
<stop offset="0.617064" stop-color="#531F0A"/>
<stop offset="1"/>
</linearGradient>
<linearGradient id="paint5_linear_1561_6057" x1="58.4248" y1="194.166" x2="32.7167" y2="193.349" gradientUnits="userSpaceOnUse">
<stop/>
<stop offset="0.504808" stop-color="#531F0A"/>
<stop offset="0.850962" stop-color="#FF9255"/>
</linearGradient>
<linearGradient id="paint6_linear_1561_6057" x1="20.2535" y1="84.0808" x2="29.7954" y2="92.1206" gradientUnits="userSpaceOnUse">
<stop stop-color="#222227"/>
<stop offset="0.73" stop-color="#121214" stop-opacity="0"/>
<stop offset="1" stop-color="#121214" stop-opacity="0"/>
</linearGradient>
<linearGradient id="paint7_linear_1561_6057" x1="19.6233" y1="81.0276" x2="31.9776" y2="92.3624" gradientUnits="userSpaceOnUse">
<stop stop-color="#C0C0CA"/>
<stop offset="1" stop-opacity="0"/>
</linearGradient>
<linearGradient id="paint8_linear_1561_6057" x1="55.9957" y1="84.0808" x2="65.5376" y2="92.1206" gradientUnits="userSpaceOnUse">
<stop stop-color="#222227"/>
<stop offset="0.73" stop-color="#121214" stop-opacity="0"/>
<stop offset="1" stop-color="#121214" stop-opacity="0"/>
</linearGradient>
<linearGradient id="paint9_linear_1561_6057" x1="55.3655" y1="81.0276" x2="67.7198" y2="92.3624" gradientUnits="userSpaceOnUse">
<stop stop-color="#C0C0CA"/>
<stop offset="1" stop-opacity="0"/>
</linearGradient>
<linearGradient id="paint10_linear_1561_6057" x1="-1.84023" y1="6.11365" x2="10.8844" y2="14.1103" gradientUnits="userSpaceOnUse">
<stop stop-color="#222227"/>
<stop offset="0.73" stop-color="#121214"/>
<stop offset="1" stop-color="#121214"/>
</linearGradient>
<linearGradient id="paint11_linear_1561_6057" x1="-10.1213" y1="14.1084" x2="30.5443" y2="-0.420469" gradientUnits="userSpaceOnUse">
<stop stop-color="#C0C0CA"/>
<stop offset="1" stop-opacity="0"/>
</linearGradient>
<linearGradient id="paint12_linear_1561_6057" x1="-1.84023" y1="6.11365" x2="10.8844" y2="14.1103" gradientUnits="userSpaceOnUse">
<stop stop-color="#222227"/>
<stop offset="0.73" stop-color="#121214"/>
<stop offset="1" stop-color="#121214"/>
</linearGradient>
<linearGradient id="paint13_linear_1561_6057" x1="-10.1213" y1="14.1084" x2="30.5443" y2="-0.420469" gradientUnits="userSpaceOnUse">
<stop stop-color="#C0C0CA"/>
<stop offset="1" stop-opacity="0"/>
</linearGradient>
<linearGradient id="paint14_linear_1561_6057" x1="-2.02408" y1="5.25348" x2="9.82937" y2="14.7885" gradientUnits="userSpaceOnUse">
<stop stop-color="#222227"/>
<stop offset="0.73" stop-color="#121214"/>
<stop offset="1" stop-color="#121214"/>
</linearGradient>
<linearGradient id="paint15_linear_1561_6057" x1="-11.1325" y1="12.1234" x2="30.5814" y2="-6.953" gradientUnits="userSpaceOnUse">
<stop stop-color="#C0C0CA"/>
<stop offset="1" stop-opacity="0"/>
</linearGradient>
<linearGradient id="paint16_linear_1561_6057" x1="25.5173" y1="33.0145" x2="29.6592" y2="86.1902" gradientUnits="userSpaceOnUse">
<stop offset="0.109299" stop-color="#FF5F1F"/>
<stop offset="0.617064" stop-color="#531F0A"/>
<stop offset="1"/>
</linearGradient>
<linearGradient id="paint17_linear_1561_6057" x1="184.111" y1="138.551" x2="6.97523" y2="88.368" gradientUnits="userSpaceOnUse">
<stop/>
<stop offset="0.504808" stop-color="#531F0A"/>
<stop offset="0.850962" stop-color="#FF9255"/>
</linearGradient>
<linearGradient id="paint18_linear_1561_6057" x1="44.5903" y1="94.7943" x2="46.0145" y2="99.3656" gradientUnits="userSpaceOnUse">
<stop offset="0.109299" stop-color="#FF5F1F"/>
<stop offset="0.617064" stop-color="#531F0A"/>
<stop offset="1"/>
</linearGradient>
<linearGradient id="paint19_linear_1561_6057" x1="48.307" y1="104.688" x2="43.8449" y2="104.371" gradientUnits="userSpaceOnUse">
<stop/>
<stop offset="0.504808" stop-color="#531F0A"/>
<stop offset="0.850962" stop-color="#FF9255"/>
</linearGradient>
<linearGradient id="paint20_linear_1561_6057" x1="92.6939" y1="45.456" x2="142.089" y2="86.2919" gradientUnits="userSpaceOnUse">
<stop stop-color="#222227"/>
<stop offset="0.73" stop-color="#121214" stop-opacity="0"/>
<stop offset="1" stop-color="#121214" stop-opacity="0"/>
</linearGradient>
<linearGradient id="paint21_linear_1561_6057" x1="80.5" y1="-23" x2="160.736" y2="63.764" gradientUnits="userSpaceOnUse">
<stop stop-color="#C0C0CA"/>
<stop offset="1" stop-opacity="0"/>
</linearGradient>
<linearGradient id="paint22_linear_1561_6057" x1="76.1662" y1="16.1907" x2="87.5" y2="201" gradientUnits="userSpaceOnUse">
<stop stop-color="#222227"/>
<stop offset="0.73" stop-color="#121214"/>
<stop offset="1" stop-color="#121214"/>
</linearGradient>
<linearGradient id="paint23_linear_1561_6057" x1="72.8352" y1="-6.75841" x2="157.758" y2="48.0392" gradientUnits="userSpaceOnUse">
<stop stop-color="#C0C0CA"/>
<stop offset="1" stop-opacity="0"/>
</linearGradient>
<linearGradient id="paint24_linear_1561_6057" x1="85.2653" y1="80.9364" x2="102.448" y2="117.703" gradientUnits="userSpaceOnUse">
<stop offset="0.109299" stop-color="#FF5F1F"/>
<stop offset="0.617064" stop-color="#531F0A"/>
<stop offset="1"/>
</linearGradient>
<linearGradient id="paint25_linear_1561_6057" x1="107.398" y1="169.306" x2="80.753" y2="168.048" gradientUnits="userSpaceOnUse">
<stop/>
<stop offset="0.504808" stop-color="#531F0A"/>
<stop offset="0.850962" stop-color="#FF9255"/>
</linearGradient>
<linearGradient id="paint26_linear_1561_6057" x1="76.3915" y1="40.369" x2="76.3915" y2="64.9311" gradientUnits="userSpaceOnUse">
<stop stop-color="white" stop-opacity="0"/>
<stop offset="1" stop-color="white"/>
</linearGradient>
<linearGradient id="paint27_linear_1561_6057" x1="76.3915" y1="60.7907" x2="76.3915" y2="85.3527" gradientUnits="userSpaceOnUse">
<stop stop-color="white" stop-opacity="0"/>
<stop offset="1" stop-color="white"/>
</linearGradient>
<linearGradient id="paint28_linear_1561_6057" x1="98.495" y1="40.369" x2="98.495" y2="64.9311" gradientUnits="userSpaceOnUse">
<stop stop-color="white" stop-opacity="0"/>
<stop offset="1" stop-color="white"/>
</linearGradient>
<linearGradient id="paint29_linear_1561_6057" x1="98.495" y1="60.7907" x2="98.495" y2="85.3527" gradientUnits="userSpaceOnUse">
<stop stop-color="white" stop-opacity="0"/>
<stop offset="1" stop-color="white"/>
</linearGradient>
<linearGradient id="paint30_linear_1561_6057" x1="85.54" y1="14.6975" x2="89.5714" y2="31.6184" gradientUnits="userSpaceOnUse">
<stop offset="0.109299" stop-color="#FF5F1F"/>
<stop offset="0.617064" stop-color="#531F0A"/>
<stop offset="1"/>
</linearGradient>
<linearGradient id="paint31_linear_1561_6057" x1="102.87" y1="49.9722" x2="82.1382" y2="48.0521" gradientUnits="userSpaceOnUse">
<stop/>
<stop offset="0.504808" stop-color="#531F0A"/>
<stop offset="0.850962" stop-color="#FF9255"/>
</linearGradient>
<linearGradient id="paint32_linear_1561_6057" x1="91.69" y1="18.067" x2="99.0474" y2="37.2536" gradientUnits="userSpaceOnUse">
<stop offset="0.109299" stop-color="#FF5F1F"/>
<stop offset="0.617064" stop-color="#531F0A"/>
<stop offset="1"/>
</linearGradient>
<linearGradient id="paint33_linear_1561_6057" x1="104.942" y1="61.482" x2="89.0055" y2="60.5649" gradientUnits="userSpaceOnUse">
<stop/>
<stop offset="0.504808" stop-color="#531F0A"/>
<stop offset="0.850962" stop-color="#FF9255"/>
</linearGradient>
<linearGradient id="paint34_linear_1561_6057" x1="80.3775" y1="18.067" x2="87.7349" y2="37.2536" gradientUnits="userSpaceOnUse">
<stop offset="0.109299" stop-color="#FF5F1F"/>
<stop offset="0.617064" stop-color="#531F0A"/>
<stop offset="1"/>
</linearGradient>
<linearGradient id="paint35_linear_1561_6057" x1="93.6297" y1="61.482" x2="77.693" y2="60.5649" gradientUnits="userSpaceOnUse">
<stop/>
<stop offset="0.504808" stop-color="#531F0A"/>
<stop offset="0.850962" stop-color="#FF9255"/>
</linearGradient>
<linearGradient id="paint36_linear_1561_6057" x1="127.388" y1="100.137" x2="129.378" y2="109.238" gradientUnits="userSpaceOnUse">
<stop offset="0.0480769" stop-color="#222227"/>
<stop offset="0.533654" stop-color="#121214"/>
<stop offset="1" stop-color="#121214" stop-opacity="0"/>
</linearGradient>
<linearGradient id="paint37_linear_1561_6057" x1="127.443" y1="115.3" x2="127.36" y2="94.3747" gradientUnits="userSpaceOnUse">
<stop stop-opacity="0"/>
<stop offset="1" stop-color="#94949B"/>
</linearGradient>
<linearGradient id="paint38_linear_1561_6057" x1="127.479" y1="80.4709" x2="127.479" y2="117" gradientUnits="userSpaceOnUse">
<stop stop-color="#FF5F1F"/>
<stop offset="0.54" stop-color="#531F0A" stop-opacity="0"/>
<stop offset="1" stop-color="#121214" stop-opacity="0"/>
</linearGradient>
<linearGradient id="paint39_linear_1561_6057" x1="127.587" y1="127.5" x2="127.587" y2="79.375" gradientUnits="userSpaceOnUse">
<stop stop-opacity="0"/>
<stop offset="0.504808" stop-color="#531F0A" stop-opacity="0"/>
<stop offset="0.850962" stop-color="#FF9255"/>
</linearGradient>
<linearGradient id="paint40_linear_1561_6057" x1="121.017" y1="89.7913" x2="121.017" y2="108.429" gradientUnits="userSpaceOnUse">
<stop stop-color="#FF5F1F"/>
<stop offset="0.54" stop-color="#531F0A" stop-opacity="0"/>
<stop offset="1" stop-color="#121214" stop-opacity="0"/>
</linearGradient>
<linearGradient id="paint41_linear_1561_6057" x1="121.072" y1="113.786" x2="121.072" y2="89.2321" gradientUnits="userSpaceOnUse">
<stop stop-opacity="0"/>
<stop offset="0.504808" stop-color="#531F0A" stop-opacity="0"/>
<stop offset="0.850962" stop-color="#FF9255"/>
</linearGradient>
<clipPath id="clip0_1561_6057">
<rect width="137" height="112" fill="white"/>
</clipPath>
</defs>
</svg>
