<svg width="137" height="112" viewBox="0 0 137 112" fill="none" xmlns="http://www.w3.org/2000/svg">
<g clip-path="url(#clip0_1561_6090)">
<rect x="14.8105" y="25.4403" width="48.722" height="86.0135" rx="7.5" fill="url(#paint0_linear_1561_6090)" stroke="url(#paint1_linear_1561_6090)" stroke-miterlimit="10"/>
<rect x="1" y="25.5" width="49" height="86" rx="5.5" fill="url(#paint2_linear_1561_6090)" stroke="url(#paint3_linear_1561_6090)" stroke-miterlimit="10"/>
<rect x="20.4434" y="96.9598" width="9.99583" height="14.9937" fill="url(#paint4_linear_1561_6090)" stroke="url(#paint5_linear_1561_6090)" stroke-miterlimit="10"/>
<rect x="10.9453" y="59.4753" width="10.9958" height="10.9958" rx="1" fill="black" fill-opacity="0.05" stroke="url(#paint6_linear_1561_6090)"/>
<rect x="10.9453" y="74.4692" width="10.9958" height="10.9958" rx="1" fill="black" fill-opacity="0.05" stroke="url(#paint7_linear_1561_6090)"/>
<rect x="28.9375" y="59.4753" width="10.9958" height="10.9958" rx="1" fill="black" fill-opacity="0.05" stroke="url(#paint8_linear_1561_6090)"/>
<rect x="28.9375" y="74.4692" width="10.9958" height="10.9958" rx="1" fill="black" fill-opacity="0.05" stroke="url(#paint9_linear_1561_6090)"/>
<path d="M24.197 42.7163C24.4838 42.8288 24.7978 42.8916 25.1234 42.895C26.1454 42.9074 27.0594 42.3432 27.4508 41.4561L29.1079 37.7103L27.1972 36.9649L25.5402 40.7106C25.3822 41.0665 25.3674 41.4637 25.4962 41.8296L25.5835 42.0786C25.5891 42.23 25.3646 42.2702 25.309 42.1284L24.5724 40.2262L24.5691 40.2187L23.2126 36.9102L21.2812 37.6082L22.8355 41.3992C23.0856 42.0107 23.5822 42.4768 24.1972 42.7163H24.197Z" fill="url(#paint10_linear_1561_6090)" stroke="url(#paint11_linear_1561_6090)" stroke-miterlimit="10"/>
<path d="M27.8723 44.5604L27.6233 44.6426C27.4718 44.6479 27.4317 44.4365 27.5735 44.3842L29.4757 43.691L29.4831 43.6879L32.7917 42.4112L32.0937 40.5935L28.3027 42.0563C27.6912 42.2917 27.2251 42.759 26.9855 43.3379C26.8731 43.6078 26.8102 43.9033 26.8068 44.2097C26.7945 45.1715 27.3587 46.0319 28.2458 46.4002L31.9915 47.9597L32.737 46.1615L28.9912 44.602C28.6353 44.4533 28.2381 44.4394 27.8723 44.5606V44.5604Z" fill="url(#paint12_linear_1561_6090)" stroke="url(#paint13_linear_1561_6090)" stroke-miterlimit="10"/>
<path d="M23.4025 45.2233C23.5152 44.9535 23.5786 44.6581 23.5825 44.3517C23.5963 43.3899 23.0335 42.5287 22.1475 42.1588L18.4056 40.5935L17.6578 42.3905L21.3996 43.9559C21.7552 44.1051 22.1521 44.1197 22.5181 43.999L22.7672 43.9172C22.9186 43.9122 22.9584 44.1234 22.8166 44.1757L20.9142 44.8661L20.9068 44.8691L17.5977 46.1408L18.2925 47.9597L22.0842 46.5029C22.6958 46.2683 23.1624 45.8018 23.4028 45.2233H23.4025Z" fill="url(#paint14_linear_1561_6090)" stroke="url(#paint15_linear_1561_6090)" stroke-miterlimit="10"/>
<rect x="77.4707" y="1.5" width="35.8311" height="8.20778" rx="4.10389" fill="url(#paint16_linear_1561_6090)" stroke="url(#paint17_linear_1561_6090)" stroke-miterlimit="10"/>
<path d="M71.3301 1.5H96.3145C99.352 1.5 101.814 3.96243 101.814 7V12.4951H65.8301V7C65.8301 3.96243 68.2925 1.5 71.3301 1.5Z" fill="url(#paint18_linear_1561_6090)" stroke="url(#paint19_linear_1561_6090)" stroke-miterlimit="10"/>
<rect x="71.3457" y="10.4963" width="48.9791" height="100.957" rx="7.5" fill="url(#paint20_linear_1561_6090)" stroke="url(#paint21_linear_1561_6090)" stroke-miterlimit="10"/>
<rect x="57.5332" y="10.4963" width="48.9791" height="100.957" rx="5.5" fill="url(#paint22_linear_1561_6090)" stroke="url(#paint23_linear_1561_6090)" stroke-miterlimit="10"/>
<rect x="77.0215" y="96.9598" width="9.99583" height="14.9937" fill="url(#paint24_linear_1561_6090)" stroke="url(#paint25_linear_1561_6090)" stroke-miterlimit="10"/>
<rect x="67.5273" y="44.4816" width="10.9958" height="10.9958" rx="1" fill="black" fill-opacity="0.05" stroke="url(#paint26_linear_1561_6090)"/>
<rect x="67.5273" y="59.4753" width="10.9958" height="10.9958" rx="1" fill="black" fill-opacity="0.05" stroke="url(#paint27_linear_1561_6090)"/>
<rect x="67.5273" y="74.4692" width="10.9958" height="10.9958" rx="1" fill="black" fill-opacity="0.05" stroke="url(#paint28_linear_1561_6090)"/>
<rect x="85.5215" y="44.4816" width="10.9958" height="10.9958" rx="1" fill="black" fill-opacity="0.05" stroke="url(#paint29_linear_1561_6090)"/>
<rect x="85.5215" y="59.4753" width="10.9958" height="10.9958" rx="1" fill="black" fill-opacity="0.05" stroke="url(#paint30_linear_1561_6090)"/>
<rect x="85.5215" y="74.4692" width="10.9958" height="10.9958" rx="1" fill="black" fill-opacity="0.05" stroke="url(#paint31_linear_1561_6090)"/>
<path d="M80.7454 24.7509C81.1117 24.9012 81.5127 24.9852 81.9285 24.9897C83.2337 25.0062 84.4012 24.2523 84.901 23.0671L87.0173 18.0624L84.5772 17.0664L82.4609 22.0711C82.2591 22.5466 82.2402 23.0773 82.4047 23.5662L82.5162 23.8988C82.5233 24.1012 82.2365 24.1548 82.1656 23.9654L81.2248 21.4239L81.2206 21.4139L79.4881 16.9933L77.0215 17.9259L79.0065 22.9911C79.326 23.8081 79.9601 24.4309 80.7456 24.7509H80.7454Z" fill="url(#paint32_linear_1561_6090)" stroke="url(#paint33_linear_1561_6090)" stroke-miterlimit="10"/>
<path d="M85.4453 27.3741L85.1126 27.4856C84.9103 27.4928 84.8566 27.206 85.0461 27.135L87.5876 26.1943L87.5975 26.1901L92.0181 24.4577L91.0855 21.9911L86.0203 23.976C85.2033 24.2955 84.5805 24.9297 84.2605 25.7152C84.1102 26.0814 84.0263 26.4825 84.0218 26.8982C84.0052 28.2034 84.7591 29.3708 85.9443 29.8707L90.949 31.9869L91.945 29.5468L86.9403 27.4306C86.4648 27.2288 85.9341 27.2099 85.4453 27.3744V27.3741Z" fill="url(#paint34_linear_1561_6090)" stroke="url(#paint35_linear_1561_6090)" stroke-miterlimit="10"/>
<path d="M79.7793 28.2736C79.93 27.9075 80.0146 27.5067 80.0198 27.0909C80.0383 25.7857 79.2863 24.6171 78.1025 24.1152L73.103 21.9911L72.1037 24.4296L77.1033 26.5537C77.5784 26.7562 78.1086 26.776 78.5977 26.6123L78.9305 26.5012C79.1327 26.4945 79.1859 26.7811 78.9966 26.8521L76.4547 27.7889L76.4448 27.7931L72.0234 29.5187L72.9519 31.9869L78.0179 30.01C78.835 29.6917 79.4585 29.0586 79.7797 28.2736H79.7793Z" fill="url(#paint36_linear_1561_6090)" stroke="url(#paint37_linear_1561_6090)" stroke-miterlimit="10"/>
<rect x="123.809" y="91.0476" width="2.38095" height="20.9524" rx="1.19047" fill="url(#paint38_linear_1561_6090)" stroke="url(#paint39_linear_1561_6090)" stroke-miterlimit="10"/>
<circle cx="125.069" cy="83.6667" r="11.6667" fill="url(#paint40_linear_1561_6090)" stroke="url(#paint41_linear_1561_6090)" stroke-miterlimit="10"/>
<circle cx="116.452" cy="89.381" r="5.95237" fill="url(#paint42_linear_1561_6090)" stroke="url(#paint43_linear_1561_6090)" stroke-miterlimit="10"/>
</g>
<defs>
<linearGradient id="paint0_linear_1561_6090" x1="29.1407" y1="57.329" x2="69.6338" y2="90.5701" gradientUnits="userSpaceOnUse">
<stop stop-color="#222227"/>
<stop offset="0.73" stop-color="#121214" stop-opacity="0"/>
<stop offset="1" stop-color="#121214" stop-opacity="0"/>
</linearGradient>
<linearGradient id="paint1_linear_1561_6090" x1="19.2012" y1="1.13474" x2="85.1005" y2="71.8945" gradientUnits="userSpaceOnUse">
<stop stop-color="#C0C0CA"/>
<stop offset="1" stop-opacity="0"/>
</linearGradient>
<linearGradient id="paint2_linear_1561_6090" x1="15.9457" y1="33.6375" x2="25.1168" y2="184.041" gradientUnits="userSpaceOnUse">
<stop stop-color="#222227"/>
<stop offset="0.73" stop-color="#121214"/>
<stop offset="1" stop-color="#121214"/>
</linearGradient>
<linearGradient id="paint3_linear_1561_6090" x1="13.2193" y1="14.9615" x2="82.4921" y2="59.9175" gradientUnits="userSpaceOnUse">
<stop stop-color="#C0C0CA"/>
<stop offset="1" stop-opacity="0"/>
</linearGradient>
<linearGradient id="paint4_linear_1561_6090" x1="23.2664" y1="86.7467" x2="37.2517" y2="116.672" gradientUnits="userSpaceOnUse">
<stop offset="0.109299" stop-color="#FF5F1F"/>
<stop offset="0.617064" stop-color="#531F0A"/>
<stop offset="1"/>
</linearGradient>
<linearGradient id="paint5_linear_1561_6090" x1="41.2809" y1="158.673" x2="19.5937" y2="157.649" gradientUnits="userSpaceOnUse">
<stop/>
<stop offset="0.504808" stop-color="#531F0A"/>
<stop offset="0.850962" stop-color="#FF9255"/>
</linearGradient>
<linearGradient id="paint6_linear_1561_6090" x1="16.0434" y1="53.7279" x2="16.0434" y2="73.7196" gradientUnits="userSpaceOnUse">
<stop stop-color="white" stop-opacity="0"/>
<stop offset="1" stop-color="white"/>
</linearGradient>
<linearGradient id="paint7_linear_1561_6090" x1="16.0434" y1="68.7218" x2="16.0434" y2="88.7135" gradientUnits="userSpaceOnUse">
<stop stop-color="white" stop-opacity="0"/>
<stop offset="1" stop-color="white"/>
</linearGradient>
<linearGradient id="paint8_linear_1561_6090" x1="34.0356" y1="53.7279" x2="34.0356" y2="73.7196" gradientUnits="userSpaceOnUse">
<stop stop-color="white" stop-opacity="0"/>
<stop offset="1" stop-color="white"/>
</linearGradient>
<linearGradient id="paint9_linear_1561_6090" x1="34.0356" y1="68.7218" x2="34.0356" y2="88.7135" gradientUnits="userSpaceOnUse">
<stop stop-color="white" stop-opacity="0"/>
<stop offset="1" stop-color="white"/>
</linearGradient>
<linearGradient id="paint10_linear_1561_6090" x1="23.4917" y1="32.8334" x2="26.773" y2="46.6057" gradientUnits="userSpaceOnUse">
<stop offset="0.109299" stop-color="#FF5F1F"/>
<stop offset="0.617064" stop-color="#531F0A"/>
<stop offset="1"/>
</linearGradient>
<linearGradient id="paint11_linear_1561_6090" x1="37.5968" y1="61.5443" x2="20.7229" y2="59.9815" gradientUnits="userSpaceOnUse">
<stop/>
<stop offset="0.504808" stop-color="#531F0A"/>
<stop offset="0.850962" stop-color="#FF9255"/>
</linearGradient>
<linearGradient id="paint12_linear_1561_6090" x1="28.497" y1="35.5759" x2="34.4853" y2="51.1924" gradientUnits="userSpaceOnUse">
<stop offset="0.109299" stop-color="#FF5F1F"/>
<stop offset="0.617064" stop-color="#531F0A"/>
<stop offset="1"/>
</linearGradient>
<linearGradient id="paint13_linear_1561_6090" x1="39.2832" y1="70.9124" x2="26.3119" y2="70.166" gradientUnits="userSpaceOnUse">
<stop/>
<stop offset="0.504808" stop-color="#531F0A"/>
<stop offset="0.850962" stop-color="#FF9255"/>
</linearGradient>
<linearGradient id="paint14_linear_1561_6090" x1="19.288" y1="35.5759" x2="25.2763" y2="51.1924" gradientUnits="userSpaceOnUse">
<stop offset="0.109299" stop-color="#FF5F1F"/>
<stop offset="0.617064" stop-color="#531F0A"/>
<stop offset="1"/>
</linearGradient>
<linearGradient id="paint15_linear_1561_6090" x1="30.0742" y1="70.9124" x2="17.1029" y2="70.166" gradientUnits="userSpaceOnUse">
<stop/>
<stop offset="0.504808" stop-color="#531F0A"/>
<stop offset="0.850962" stop-color="#FF9255"/>
</linearGradient>
<linearGradient id="paint16_linear_1561_6090" x1="87.956" y1="4.42738" x2="89.4318" y2="12.9079" gradientUnits="userSpaceOnUse">
<stop stop-color="#222227"/>
<stop offset="0.73" stop-color="#121214" stop-opacity="0"/>
<stop offset="1" stop-color="#121214" stop-opacity="0"/>
</linearGradient>
<linearGradient id="paint17_linear_1561_6090" x1="80.5934" y1="-1.51911" x2="82.4213" y2="12.22" gradientUnits="userSpaceOnUse">
<stop stop-color="#C0C0CA"/>
<stop offset="1" stop-opacity="0"/>
</linearGradient>
<linearGradient id="paint18_linear_1561_6090" x1="76.7551" y1="2.19088" x2="76.9916" y2="23.002" gradientUnits="userSpaceOnUse">
<stop stop-color="#222227"/>
<stop offset="0.73" stop-color="#121214"/>
<stop offset="1" stop-color="#121214"/>
</linearGradient>
<linearGradient id="paint19_linear_1561_6090" x1="74.7384" y1="-0.384038" x2="80.2878" y2="18.9373" gradientUnits="userSpaceOnUse">
<stop stop-color="#C0C0CA"/>
<stop offset="1" stop-opacity="0"/>
</linearGradient>
<linearGradient id="paint20_linear_1561_6090" x1="85.7525" y1="47.9476" x2="131.298" y2="80.0209" gradientUnits="userSpaceOnUse">
<stop stop-color="#222227"/>
<stop offset="0.73" stop-color="#121214" stop-opacity="0"/>
<stop offset="1" stop-color="#121214" stop-opacity="0"/>
</linearGradient>
<linearGradient id="paint21_linear_1561_6090" x1="75.7617" y1="-17.8977" x2="152.914" y2="53.1682" gradientUnits="userSpaceOnUse">
<stop stop-color="#C0C0CA"/>
<stop offset="1" stop-opacity="0"/>
</linearGradient>
<linearGradient id="paint22_linear_1561_6090" x1="72.4724" y1="20.1188" x2="85.0559" y2="196.137" gradientUnits="userSpaceOnUse">
<stop stop-color="#222227"/>
<stop offset="0.73" stop-color="#121214"/>
<stop offset="1" stop-color="#121214"/>
</linearGradient>
<linearGradient id="paint23_linear_1561_6090" x1="69.7472" y1="-1.76798" x2="145.074" y2="39.9278" gradientUnits="userSpaceOnUse">
<stop stop-color="#C0C0CA"/>
<stop offset="1" stop-opacity="0"/>
</linearGradient>
<linearGradient id="paint24_linear_1561_6090" x1="79.8445" y1="86.7467" x2="93.8298" y2="116.672" gradientUnits="userSpaceOnUse">
<stop offset="0.109299" stop-color="#FF5F1F"/>
<stop offset="0.617064" stop-color="#531F0A"/>
<stop offset="1"/>
</linearGradient>
<linearGradient id="paint25_linear_1561_6090" x1="97.859" y1="158.673" x2="76.1718" y2="157.649" gradientUnits="userSpaceOnUse">
<stop/>
<stop offset="0.504808" stop-color="#531F0A"/>
<stop offset="0.850962" stop-color="#FF9255"/>
</linearGradient>
<linearGradient id="paint26_linear_1561_6090" x1="72.6254" y1="38.7342" x2="72.6254" y2="58.7258" gradientUnits="userSpaceOnUse">
<stop stop-color="white" stop-opacity="0"/>
<stop offset="1" stop-color="white"/>
</linearGradient>
<linearGradient id="paint27_linear_1561_6090" x1="72.6254" y1="53.7279" x2="72.6254" y2="73.7196" gradientUnits="userSpaceOnUse">
<stop stop-color="white" stop-opacity="0"/>
<stop offset="1" stop-color="white"/>
</linearGradient>
<linearGradient id="paint28_linear_1561_6090" x1="72.6254" y1="68.7218" x2="72.6254" y2="88.7135" gradientUnits="userSpaceOnUse">
<stop stop-color="white" stop-opacity="0"/>
<stop offset="1" stop-color="white"/>
</linearGradient>
<linearGradient id="paint29_linear_1561_6090" x1="90.6196" y1="38.7342" x2="90.6196" y2="58.7258" gradientUnits="userSpaceOnUse">
<stop stop-color="white" stop-opacity="0"/>
<stop offset="1" stop-color="white"/>
</linearGradient>
<linearGradient id="paint30_linear_1561_6090" x1="90.6196" y1="53.7279" x2="90.6196" y2="73.7196" gradientUnits="userSpaceOnUse">
<stop stop-color="white" stop-opacity="0"/>
<stop offset="1" stop-color="white"/>
</linearGradient>
<linearGradient id="paint31_linear_1561_6090" x1="90.6196" y1="68.7218" x2="90.6196" y2="88.7135" gradientUnits="userSpaceOnUse">
<stop stop-color="white" stop-opacity="0"/>
<stop offset="1" stop-color="white"/>
</linearGradient>
<linearGradient id="paint32_linear_1561_6090" x1="79.8445" y1="11.5463" x2="84.4079" y2="29.8547" gradientUnits="userSpaceOnUse">
<stop offset="0.109299" stop-color="#FF5F1F"/>
<stop offset="0.617064" stop-color="#531F0A"/>
<stop offset="1"/>
</linearGradient>
<linearGradient id="paint33_linear_1561_6090" x1="97.859" y1="49.9071" x2="76.2925" y2="47.9978" gradientUnits="userSpaceOnUse">
<stop/>
<stop offset="0.504808" stop-color="#531F0A"/>
<stop offset="0.850962" stop-color="#FF9255"/>
</linearGradient>
<linearGradient id="paint34_linear_1561_6090" x1="86.2799" y1="15.1823" x2="94.4998" y2="36.2884" gradientUnits="userSpaceOnUse">
<stop offset="0.109299" stop-color="#FF5F1F"/>
<stop offset="0.617064" stop-color="#531F0A"/>
<stop offset="1"/>
</linearGradient>
<linearGradient id="paint35_linear_1561_6090" x1="100.691" y1="63.1333" x2="83.3587" y2="62.1513" gradientUnits="userSpaceOnUse">
<stop/>
<stop offset="0.504808" stop-color="#531F0A"/>
<stop offset="0.850962" stop-color="#FF9255"/>
</linearGradient>
<linearGradient id="paint36_linear_1561_6090" x1="74.2819" y1="15.1823" x2="82.5017" y2="36.2884" gradientUnits="userSpaceOnUse">
<stop offset="0.109299" stop-color="#FF5F1F"/>
<stop offset="0.617064" stop-color="#531F0A"/>
<stop offset="1"/>
</linearGradient>
<linearGradient id="paint37_linear_1561_6090" x1="88.6934" y1="63.1333" x2="71.3607" y2="62.1513" gradientUnits="userSpaceOnUse">
<stop/>
<stop offset="0.504808" stop-color="#531F0A"/>
<stop offset="0.850962" stop-color="#FF9255"/>
</linearGradient>
<linearGradient id="paint38_linear_1561_6090" x1="124.946" y1="96.1832" x2="127.598" y2="108.317" gradientUnits="userSpaceOnUse">
<stop offset="0.0480769" stop-color="#222227"/>
<stop offset="0.533654" stop-color="#121214"/>
<stop offset="1" stop-color="#121214" stop-opacity="0"/>
</linearGradient>
<linearGradient id="paint39_linear_1561_6090" x1="125.019" y1="116.4" x2="124.908" y2="88.4997" gradientUnits="userSpaceOnUse">
<stop stop-opacity="0"/>
<stop offset="1" stop-color="#94949B"/>
</linearGradient>
<linearGradient id="paint40_linear_1561_6090" x1="125.069" y1="69.9612" x2="125.069" y2="118.667" gradientUnits="userSpaceOnUse">
<stop stop-color="#FF5F1F"/>
<stop offset="0.54" stop-color="#531F0A" stop-opacity="0"/>
<stop offset="1" stop-color="#121214" stop-opacity="0"/>
</linearGradient>
<linearGradient id="paint41_linear_1561_6090" x1="125.213" y1="132.667" x2="125.213" y2="68.5" gradientUnits="userSpaceOnUse">
<stop stop-opacity="0"/>
<stop offset="0.504808" stop-color="#531F0A" stop-opacity="0"/>
<stop offset="0.850962" stop-color="#FF9255"/>
</linearGradient>
<linearGradient id="paint42_linear_1561_6090" x1="116.453" y1="82.3884" x2="116.453" y2="107.238" gradientUnits="userSpaceOnUse">
<stop stop-color="#FF5F1F"/>
<stop offset="0.54" stop-color="#531F0A" stop-opacity="0"/>
<stop offset="1" stop-color="#121214" stop-opacity="0"/>
</linearGradient>
<linearGradient id="paint43_linear_1561_6090" x1="116.526" y1="114.381" x2="116.526" y2="81.6429" gradientUnits="userSpaceOnUse">
<stop stop-opacity="0"/>
<stop offset="0.504808" stop-color="#531F0A" stop-opacity="0"/>
<stop offset="0.850962" stop-color="#FF9255"/>
</linearGradient>
<clipPath id="clip0_1561_6090">
<rect width="137" height="112" fill="white"/>
</clipPath>
</defs>
</svg>
