<svg width="136" height="112" viewBox="0 0 136 112" fill="none" xmlns="http://www.w3.org/2000/svg">
<path d="M8.8418 1.5H113.158C117.811 1.50004 121.5 4.91926 121.5 9.03906V70.9609C121.5 75.0807 117.811 78.5 113.158 78.5H8.8418C4.18888 78.5 0.5 75.0807 0.5 70.9609V9.03906C0.5 4.91926 4.18888 1.50004 8.8418 1.5Z" fill="url(#paint0_linear_1433_2296)" stroke="url(#paint1_linear_1433_2296)" stroke-miterlimit="10"/>
<path d="M8.26172 1.5H105.738C110.038 1.50019 113.5 4.88844 113.5 9.03906V70.9609C113.5 75.1116 110.038 78.4998 105.738 78.5H8.26172C3.96201 78.4998 0.5 75.1116 0.5 70.9609V9.03906C0.5 5.01809 3.7491 1.7125 7.86133 1.50977L8.26172 1.5Z" fill="url(#paint2_linear_1433_2296)" stroke="url(#paint3_linear_1433_2296)" stroke-miterlimit="10"/>
<path d="M19.1211 13.5H91.3398C94.4903 13.5 96.9619 15.8117 96.9619 18.5654V61.4346C96.9619 64.1883 94.4903 66.5 91.3398 66.5H19.1211C15.9708 66.4999 13.5 64.1883 13.5 61.4346V18.5654L13.5068 18.3086C13.6547 15.6694 16.0692 13.5001 19.1211 13.5Z" fill="url(#paint4_linear_1433_2296)" stroke="url(#paint5_linear_1433_2296)" stroke-miterlimit="10"/>
<path d="M18.7197 13.5H86.2031C89.099 13.5 91.4229 15.7808 91.4229 18.5654V61.4346C91.4229 64.2192 89.099 66.5 86.2031 66.5H18.7197C15.8239 66.4999 13.5 64.2192 13.5 61.4346V18.5654L13.5068 18.3057C13.646 15.6403 15.9145 13.5001 18.7197 13.5Z" fill="url(#paint6_linear_1433_2296)" stroke="url(#paint7_linear_1433_2296)" stroke-miterlimit="10"/>
<rect x="22.5" y="29.5" width="14" height="11" rx="1" fill="url(#paint8_linear_1433_2296)" stroke="url(#paint9_linear_1433_2296)" stroke-miterlimit="10"/>
<rect x="22.5" y="48.5" width="14" height="11" rx="1" fill="url(#paint10_linear_1433_2296)" stroke="url(#paint11_linear_1433_2296)" stroke-miterlimit="10"/>
<path d="M44 30.5C44 29.6716 44.6716 29 45.5 29H57.5C58.3284 29 59 29.6716 59 30.5V39.5C59 40.3284 58.3284 41 57.5 41H45.5C44.6716 41 44 40.3284 44 39.5V30.5Z" fill="url(#paint12_linear_1433_2296)" stroke="url(#paint13_linear_1433_2296)" stroke-miterlimit="10"/>
<rect x="44.5" y="48.5" width="14" height="11" rx="1" fill="url(#paint14_linear_1433_2296)" stroke="url(#paint15_linear_1433_2296)" stroke-miterlimit="10"/>
<rect x="66.5" y="29.5" width="14" height="11" rx="1" fill="url(#paint16_linear_1433_2296)" stroke="url(#paint17_linear_1433_2296)" stroke-miterlimit="10"/>
<rect x="66.5" y="48.5" width="14" height="11" rx="1" fill="url(#paint18_linear_1433_2296)" stroke="url(#paint19_linear_1433_2296)" stroke-miterlimit="10"/>
<path d="M20.3105 17.3462C21.6936 17.3465 22.8154 18.4671 22.8154 19.8501C22.8154 21.2331 21.6936 22.3537 20.3105 22.354C18.9273 22.354 17.8047 21.2332 17.8047 19.8501C17.8047 18.4669 18.9272 17.3462 20.3105 17.3462Z" fill="url(#paint20_linear_1433_2296)" stroke="url(#paint21_linear_1433_2296)" stroke-miterlimit="10"/>
<path d="M26.7749 17.3462C28.158 17.3465 29.2798 18.4671 29.2798 19.8501C29.2797 21.2331 28.1579 22.3537 26.7749 22.354C25.3916 22.354 24.2691 21.2332 24.269 19.8501C24.269 18.4669 25.3916 17.3462 26.7749 17.3462Z" fill="url(#paint22_linear_1433_2296)" stroke="url(#paint23_linear_1433_2296)" stroke-miterlimit="10"/>
<path d="M33.6982 17.3462C35.0813 17.3465 36.2031 18.4671 36.2031 19.8501C36.2031 21.2331 35.0813 22.3537 33.6982 22.354C32.315 22.354 31.1924 21.2332 31.1924 19.8501C31.1924 18.4669 32.3149 17.3462 33.6982 17.3462Z" fill="url(#paint24_linear_1433_2296)" stroke="url(#paint25_linear_1433_2296)" stroke-miterlimit="10"/>
<path d="M76.5 80.106H48.5C47.6716 80.106 47 80.7775 47 81.606V103.606C47 104.434 47.6716 105.106 48.5 105.106H76.5C77.3284 105.106 78 104.434 78 103.606V81.606C78 80.7775 77.3284 80.106 76.5 80.106Z" fill="url(#paint26_linear_1433_2296)" stroke="url(#paint27_linear_1433_2296)" stroke-miterlimit="10"/>
<path d="M72.5 104.5H36.5C35.6716 104.5 35 105.172 35 106V109.5C35 110.328 35.6716 111 36.5 111H72.5C73.3284 111 74 110.328 74 109.5V106C74 105.172 73.3284 104.5 72.5 104.5Z" fill="url(#paint28_linear_1433_2296)" stroke="url(#paint29_linear_1433_2296)" stroke-miterlimit="10"/>
<path d="M77.0772 79.9998V103.106C77.0772 103.934 76.4056 104.606 75.5772 104.606H71.5C70.6716 104.606 70 105.278 70 106.106V109.5C70 110.328 70.6716 111 71.5 111H77.0772H80C81.6569 111 83 109.657 83 108V104.606V79.9998H77.0772Z" fill="url(#paint30_linear_1433_2296)" stroke="url(#paint31_linear_1433_2296)" stroke-miterlimit="10"/>
<path d="M100.333 38.5H105.667C106.574 38.5001 107.328 39.1972 107.398 40.1025L107.948 47.1689V47.1709C108 47.801 108.401 48.3566 108.99 48.6006V48.6016L114.603 50.9277C115.188 51.1698 115.864 51.0644 116.349 50.6494L116.35 50.6504L121.739 46.042V46.041C122.426 45.452 123.454 45.4922 124.096 46.1338L127.866 49.9043C128.508 50.5444 128.547 51.5695 127.958 52.2607L123.35 57.6504C122.958 58.106 122.844 58.7288 123.033 59.2881L123.075 59.3994L125.399 65.0068V65.0078C125.629 65.5609 126.127 65.9474 126.713 66.0342L126.831 66.0479L133.898 66.5996C134.803 66.6716 135.5 67.4261 135.5 68.333V73.666C135.5 74.5718 134.802 75.327 133.898 75.3975L126.831 75.9482H126.829C126.192 75.9999 125.644 76.4035 125.399 76.9893V76.9902L123.075 82.5986C122.829 83.188 122.938 83.8642 123.35 84.3477V84.3486L127.958 89.7383C128.546 90.4263 128.509 91.4522 127.866 92.0947L124.096 95.8652C123.495 96.4661 122.554 96.5383 121.872 96.0596L121.739 95.9561L116.35 91.3477C115.868 90.9357 115.187 90.8264 114.6 91.0732L108.991 93.3965H108.989C108.402 93.6415 108 94.1933 107.948 94.8291V94.8311L107.398 101.897C107.328 102.801 106.573 103.5 105.667 103.5H100.333C99.4266 103.5 98.6723 102.801 98.6016 101.897V101.896L98.0498 94.8311C98.0005 94.1926 97.5973 93.6414 97.0107 93.3965H97.0088L91.3975 91.0723H91.3965C90.8071 90.8272 90.1341 90.9355 89.6504 91.3457L89.6484 91.3477L84.2607 95.9561C83.5732 96.545 82.5473 96.5059 81.9043 95.8643H81.9033L78.1338 92.0947H78.1348C77.4931 91.4517 77.4543 90.4259 78.042 89.7383L82.6504 84.3486V84.3477C83.0356 83.8955 83.1561 83.272 82.9668 82.71L82.9248 82.5986L80.6016 76.9932H80.6025C80.3613 76.4012 79.8034 75.9998 79.1729 75.9482H79.1709L72.1016 75.3975C71.1984 75.327 70.5001 74.5726 70.5 73.665V68.334C70.5 67.4838 71.1129 66.7676 71.9346 66.6221L72.1016 66.6006L79.1709 66.0488C79.8022 65.9996 80.3601 65.5988 80.6016 65.0039L82.9238 59.3994L82.9248 59.4004C83.171 58.8108 83.0624 58.1357 82.6504 57.6523V57.6514L78.042 52.2617H78.041C77.4532 51.571 77.4934 50.5458 78.1338 49.9053L81.9033 46.1348L81.9043 46.1357C82.5477 45.4936 83.5737 45.4535 84.2607 46.042V46.043L89.6484 50.6514H89.6494C90.1043 51.0394 90.7253 51.1571 91.2861 50.9697L91.3975 50.9287L97.0078 48.6025C97.5606 48.375 97.9491 47.8729 98.0361 47.2881L98.0498 47.1699L98.6016 40.1035C98.6722 39.1972 99.4264 38.5001 100.333 38.5ZM103 59.3447C100.083 59.3448 97.3264 60.4094 95.1797 62.3574L94.7588 62.7588C92.5582 64.9571 91.3458 67.8842 91.3457 70.9971C91.3457 74.1103 92.5583 77.0379 94.7588 79.2402C96.9595 81.4392 99.8886 82.6522 103 82.6523C106.114 82.6523 109.041 81.4391 111.241 79.2412L111.242 79.2402C113.443 77.0378 114.655 74.1086 114.655 70.9971C114.655 67.8859 113.443 64.9571 111.242 62.7588C109.041 60.556 106.111 59.3447 103 59.3447Z" fill="url(#paint32_linear_1433_2296)" stroke="url(#paint33_linear_1433_2296)" stroke-miterlimit="10"/>
<defs>
<linearGradient id="paint0_linear_1433_2296" x1="37.6874" y1="8.74393" x2="85.1275" y2="85.6918" gradientUnits="userSpaceOnUse">
<stop stop-color="#222227"/>
<stop offset="0.73" stop-color="#121214" stop-opacity="0"/>
<stop offset="1" stop-color="#121214" stop-opacity="0"/>
</linearGradient>
<linearGradient id="paint1_linear_1433_2296" x1="31.0351" y1="-8" x2="89.3469" y2="94.9901" gradientUnits="userSpaceOnUse">
<stop stop-color="#C0C0CA"/>
<stop offset="1" stop-opacity="0"/>
</linearGradient>
<linearGradient id="paint2_linear_1433_2296" x1="35.2161" y1="8.74393" x2="84.0322" y2="82.7315" gradientUnits="userSpaceOnUse">
<stop stop-color="#222227"/>
<stop offset="0.73" stop-color="#121214" stop-opacity="0"/>
<stop offset="1" stop-color="#121214" stop-opacity="0"/>
</linearGradient>
<linearGradient id="paint3_linear_1433_2296" x1="29" y1="-8" x2="89.2781" y2="91.4818" gradientUnits="userSpaceOnUse">
<stop stop-color="#C0C0CA"/>
<stop offset="1" stop-opacity="0"/>
</linearGradient>
<linearGradient id="paint4_linear_1433_2296" x1="39.0913" y1="18.3612" x2="71.9345" y2="71.6328" gradientUnits="userSpaceOnUse">
<stop stop-color="#222227"/>
<stop offset="0.73" stop-color="#121214" stop-opacity="0"/>
<stop offset="1" stop-color="#121214" stop-opacity="0"/>
</linearGradient>
<linearGradient id="paint5_linear_1433_2296" x1="34.4858" y1="6.76923" x2="74.8556" y2="78.0701" gradientUnits="userSpaceOnUse">
<stop stop-color="#C0C0CA"/>
<stop offset="1" stop-opacity="0"/>
</linearGradient>
<linearGradient id="paint6_linear_1433_2296" x1="37.3804" y1="18.3612" x2="71.1761" y2="69.5834" gradientUnits="userSpaceOnUse">
<stop stop-color="#222227"/>
<stop offset="0.73" stop-color="#121214" stop-opacity="0"/>
<stop offset="1" stop-color="#121214" stop-opacity="0"/>
</linearGradient>
<linearGradient id="paint7_linear_1433_2296" x1="33.0769" y1="6.76923" x2="74.8079" y2="75.6413" gradientUnits="userSpaceOnUse">
<stop stop-color="#C0C0CA"/>
<stop offset="1" stop-opacity="0"/>
</linearGradient>
<linearGradient id="paint8_linear_1433_2296" x1="26.6337" y1="30.1914" x2="34.5351" y2="40.4337" gradientUnits="userSpaceOnUse">
<stop stop-color="#222227"/>
<stop offset="0.73" stop-color="#121214"/>
<stop offset="1" stop-color="#121214"/>
</linearGradient>
<linearGradient id="paint9_linear_1433_2296" x1="25.8158" y1="27.6154" x2="41.6763" y2="46.9342" gradientUnits="userSpaceOnUse">
<stop stop-color="#C0C0CA"/>
<stop offset="1" stop-opacity="0"/>
</linearGradient>
<linearGradient id="paint10_linear_1433_2296" x1="26.6337" y1="49.1914" x2="34.5351" y2="59.4337" gradientUnits="userSpaceOnUse">
<stop stop-color="#222227"/>
<stop offset="0.73" stop-color="#121214"/>
<stop offset="1" stop-color="#121214"/>
</linearGradient>
<linearGradient id="paint11_linear_1433_2296" x1="25.8158" y1="46.6154" x2="41.6763" y2="65.9342" gradientUnits="userSpaceOnUse">
<stop stop-color="#C0C0CA"/>
<stop offset="1" stop-opacity="0"/>
</linearGradient>
<linearGradient id="paint12_linear_1433_2296" x1="51.5002" y1="27.9515" x2="51.5002" y2="53" gradientUnits="userSpaceOnUse">
<stop stop-color="#FF5F1F"/>
<stop offset="0.54" stop-color="#531F0A" stop-opacity="0"/>
<stop offset="1" stop-color="#121214" stop-opacity="0"/>
</linearGradient>
<linearGradient id="paint13_linear_1433_2296" x1="51.5926" y1="60.2" x2="51.5926" y2="27.2" gradientUnits="userSpaceOnUse">
<stop stop-opacity="0"/>
<stop offset="0.504808" stop-color="#531F0A" stop-opacity="0"/>
<stop offset="0.850962" stop-color="#FF9255"/>
</linearGradient>
<linearGradient id="paint14_linear_1433_2296" x1="48.6337" y1="49.1914" x2="56.5351" y2="59.4337" gradientUnits="userSpaceOnUse">
<stop stop-color="#222227"/>
<stop offset="0.73" stop-color="#121214"/>
<stop offset="1" stop-color="#121214"/>
</linearGradient>
<linearGradient id="paint15_linear_1433_2296" x1="47.8158" y1="46.6154" x2="63.6763" y2="65.9342" gradientUnits="userSpaceOnUse">
<stop stop-color="#C0C0CA"/>
<stop offset="1" stop-opacity="0"/>
</linearGradient>
<linearGradient id="paint16_linear_1433_2296" x1="70.6337" y1="30.1914" x2="78.5351" y2="40.4337" gradientUnits="userSpaceOnUse">
<stop stop-color="#222227"/>
<stop offset="0.73" stop-color="#121214"/>
<stop offset="1" stop-color="#121214"/>
</linearGradient>
<linearGradient id="paint17_linear_1433_2296" x1="69.8158" y1="27.6154" x2="85.6763" y2="46.9342" gradientUnits="userSpaceOnUse">
<stop stop-color="#C0C0CA"/>
<stop offset="1" stop-opacity="0"/>
</linearGradient>
<linearGradient id="paint18_linear_1433_2296" x1="70.6337" y1="49.1914" x2="78.5351" y2="59.4337" gradientUnits="userSpaceOnUse">
<stop stop-color="#222227"/>
<stop offset="0.73" stop-color="#121214"/>
<stop offset="1" stop-color="#121214"/>
</linearGradient>
<linearGradient id="paint19_linear_1433_2296" x1="69.8158" y1="46.6154" x2="85.6763" y2="65.9342" gradientUnits="userSpaceOnUse">
<stop stop-color="#C0C0CA"/>
<stop offset="1" stop-opacity="0"/>
</linearGradient>
<linearGradient id="paint20_linear_1433_2296" x1="19.5437" y1="18.2441" x2="22.2699" y2="21.0735" gradientUnits="userSpaceOnUse">
<stop stop-color="#222227"/>
<stop offset="0.73" stop-color="#121214" stop-opacity="0"/>
<stop offset="1" stop-color="#121214" stop-opacity="0"/>
</linearGradient>
<linearGradient id="paint21_linear_1433_2296" x1="19.325" y1="17.3838" x2="22.7929" y2="21.3029" gradientUnits="userSpaceOnUse">
<stop stop-color="#C0C0CA"/>
<stop offset="1" stop-opacity="0"/>
</linearGradient>
<linearGradient id="paint22_linear_1433_2296" x1="26.008" y1="18.2441" x2="28.7343" y2="21.0735" gradientUnits="userSpaceOnUse">
<stop stop-color="#222227"/>
<stop offset="0.73" stop-color="#121214" stop-opacity="0"/>
<stop offset="1" stop-color="#121214" stop-opacity="0"/>
</linearGradient>
<linearGradient id="paint23_linear_1433_2296" x1="25.7893" y1="17.3838" x2="29.2573" y2="21.3029" gradientUnits="userSpaceOnUse">
<stop stop-color="#C0C0CA"/>
<stop offset="1" stop-opacity="0"/>
</linearGradient>
<linearGradient id="paint24_linear_1433_2296" x1="32.9314" y1="18.2441" x2="35.6576" y2="21.0735" gradientUnits="userSpaceOnUse">
<stop stop-color="#222227"/>
<stop offset="0.73" stop-color="#121214" stop-opacity="0"/>
<stop offset="1" stop-color="#121214" stop-opacity="0"/>
</linearGradient>
<linearGradient id="paint25_linear_1433_2296" x1="32.7127" y1="17.3838" x2="36.1806" y2="21.3029" gradientUnits="userSpaceOnUse">
<stop stop-color="#C0C0CA"/>
<stop offset="1" stop-opacity="0"/>
</linearGradient>
<linearGradient id="paint26_linear_1433_2296" x1="64.2885" y1="105.326" x2="64.2765" y2="78.8257" gradientUnits="userSpaceOnUse">
<stop stop-color="#222227"/>
<stop offset="0.73" stop-color="#121214" stop-opacity="0"/>
<stop offset="1" stop-color="#121214" stop-opacity="0"/>
</linearGradient>
<linearGradient id="paint27_linear_1433_2296" x1="56.5385" y1="105.326" x2="56.2353" y2="80.3221" gradientUnits="userSpaceOnUse">
<stop stop-color="#94949B"/>
<stop offset="1" stop-opacity="0"/>
</linearGradient>
<linearGradient id="paint28_linear_1433_2296" x1="53.6256" y1="105.747" x2="53.633" y2="110.812" gradientUnits="userSpaceOnUse">
<stop offset="0.0480769" stop-color="#222227"/>
<stop offset="0.533654" stop-color="#121214"/>
<stop offset="1" stop-color="#121214"/>
</linearGradient>
<linearGradient id="paint29_linear_1433_2296" x1="61.5417" y1="136.244" x2="59.7168" y2="88.5147" gradientUnits="userSpaceOnUse">
<stop stop-opacity="0"/>
<stop offset="1" stop-color="#94949B"/>
</linearGradient>
<linearGradient id="paint30_linear_1433_2296" x1="79.3747" y1="113.929" x2="51.075" y2="73.117" gradientUnits="userSpaceOnUse">
<stop stop-color="#222227"/>
<stop offset="0.73" stop-color="#121214"/>
<stop offset="1" stop-color="#121214"/>
</linearGradient>
<linearGradient id="paint31_linear_1433_2296" x1="73.0023" y1="137.903" x2="94.094" y2="85.302" gradientUnits="userSpaceOnUse">
<stop stop-color="#94949B"/>
<stop offset="1" stop-color="#121214"/>
</linearGradient>
<linearGradient id="paint32_linear_1433_2296" x1="90.3883" y1="44.5526" x2="135.288" y2="91.1139" gradientUnits="userSpaceOnUse">
<stop stop-color="#222227"/>
<stop offset="0.73" stop-color="#121214"/>
<stop offset="1" stop-color="#121214"/>
</linearGradient>
<linearGradient id="paint33_linear_1433_2296" x1="86.7895" y1="30.3846" x2="175.695" y2="117.017" gradientUnits="userSpaceOnUse">
<stop stop-color="#C0C0CA"/>
<stop offset="1" stop-opacity="0"/>
</linearGradient>
</defs>
</svg>
