<svg width="136" height="112" viewBox="0 0 136 112" fill="none" xmlns="http://www.w3.org/2000/svg">
<path d="M8.8418 1.5H113.158C117.811 1.50004 121.5 4.91926 121.5 9.03906V70.9609C121.5 75.0807 117.811 78.5 113.158 78.5H8.8418C4.18888 78.5 0.5 75.0807 0.5 70.9609V9.03906C0.5 4.91926 4.18888 1.50004 8.8418 1.5Z" fill="url(#paint0_linear_1385_1320)" stroke="url(#paint1_linear_1385_1320)" stroke-miterlimit="10"/>
<path d="M8.26172 1.5H105.738C110.038 1.50019 113.5 4.88844 113.5 9.03906V70.9609C113.5 75.1116 110.038 78.4998 105.738 78.5H8.26172C3.96201 78.4998 0.5 75.1116 0.5 70.9609V9.03906C0.5 5.01809 3.7491 1.7125 7.86133 1.50977L8.26172 1.5Z" fill="url(#paint2_linear_1385_1320)" stroke="url(#paint3_linear_1385_1320)" stroke-miterlimit="10"/>
<path d="M76.5 80.106H48.5C47.6716 80.106 47 80.7775 47 81.606V103.606C47 104.434 47.6716 105.106 48.5 105.106H76.5C77.3284 105.106 78 104.434 78 103.606V81.606C78 80.7775 77.3284 80.106 76.5 80.106Z" fill="url(#paint4_linear_1385_1320)" stroke="url(#paint5_linear_1385_1320)" stroke-miterlimit="10"/>
<path d="M72.5 104.5H36.5C35.6716 104.5 35 105.172 35 106V109.5C35 110.328 35.6716 111 36.5 111H72.5C73.3284 111 74 110.328 74 109.5V106C74 105.172 73.3284 104.5 72.5 104.5Z" fill="url(#paint6_linear_1385_1320)" stroke="url(#paint7_linear_1385_1320)" stroke-miterlimit="10"/>
<path d="M77.0772 79.9998V103.106C77.0772 103.934 76.4056 104.606 75.5772 104.606H71.5C70.6716 104.606 70 105.278 70 106.106V109.5C70 110.328 70.6716 111 71.5 111H77.0772H80C81.6569 111 83 109.657 83 108V104.606V79.9998H77.0772Z" fill="url(#paint8_linear_1385_1320)" stroke="url(#paint9_linear_1385_1320)" stroke-miterlimit="10"/>
<path d="M10 14C10 12.3431 11.3431 11 13 11H61.878C63.5349 11 64.878 12.3431 64.878 14V58C64.878 59.6569 63.5349 61 61.878 61H13C11.3431 61 10 59.6569 10 58V14Z" stroke="url(#paint10_linear_1385_1320)" stroke-miterlimit="10"/>
<path d="M36.068 17.0684C44.992 16.1327 51.6388 24.9633 47.9713 33.251C44.1513 41.8876 31.8577 42.3335 27.3726 34.0204C23.5688 26.9711 28.0585 17.9071 36.068 17.0684Z" fill="url(#paint11_linear_1385_1320)" stroke="url(#paint12_linear_1385_1320)" stroke-miterlimit="10"/>
<path d="M57.032 54.0833C57.3532 54.4938 57.0952 54.9026 56.5739 54.9026H20.3385C19.4868 54.9026 19.0352 54.0954 19.5869 53.4466C29.1884 42.1872 47.9175 42.3673 57.032 54.0833Z" fill="url(#paint13_linear_1385_1320)" stroke="url(#paint14_linear_1385_1320)" stroke-miterlimit="10"/>
<path d="M100.333 38.5H105.667C106.574 38.5001 107.328 39.1972 107.398 40.1025L107.948 47.1689V47.1709C108 47.801 108.401 48.3566 108.99 48.6006V48.6016L114.603 50.9277C115.188 51.1698 115.864 51.0644 116.349 50.6494L116.35 50.6504L121.739 46.042V46.041C122.426 45.452 123.454 45.4922 124.096 46.1338L127.866 49.9043C128.508 50.5444 128.547 51.5695 127.958 52.2607L123.35 57.6504C122.958 58.106 122.844 58.7288 123.033 59.2881L123.075 59.3994L125.399 65.0068V65.0078C125.629 65.5609 126.127 65.9474 126.713 66.0342L126.831 66.0479L133.898 66.5996C134.803 66.6716 135.5 67.4261 135.5 68.333V73.666C135.5 74.5718 134.802 75.327 133.898 75.3975L126.831 75.9482H126.829C126.192 75.9999 125.644 76.4035 125.399 76.9893V76.9902L123.075 82.5986C122.829 83.188 122.938 83.8642 123.35 84.3477V84.3486L127.958 89.7383C128.546 90.4263 128.509 91.4522 127.866 92.0947L124.096 95.8652C123.495 96.4661 122.554 96.5383 121.872 96.0596L121.739 95.9561L116.35 91.3477C115.868 90.9357 115.187 90.8264 114.6 91.0732L108.991 93.3965H108.989C108.402 93.6415 108 94.1933 107.948 94.8291V94.8311L107.398 101.897C107.328 102.801 106.573 103.5 105.667 103.5H100.333C99.4266 103.5 98.6723 102.801 98.6016 101.897V101.896L98.0498 94.8311C98.0005 94.1926 97.5973 93.6414 97.0107 93.3965H97.0088L91.3975 91.0723H91.3965C90.8071 90.8272 90.1341 90.9355 89.6504 91.3457L89.6484 91.3477L84.2607 95.9561C83.5732 96.545 82.5473 96.5059 81.9043 95.8643H81.9033L78.1338 92.0947H78.1348C77.4931 91.4517 77.4543 90.4259 78.042 89.7383L82.6504 84.3486V84.3477C83.0356 83.8955 83.1561 83.272 82.9668 82.71L82.9248 82.5986L80.6016 76.9932H80.6025C80.3613 76.4012 79.8034 75.9998 79.1729 75.9482H79.1709L72.1016 75.3975C71.1984 75.327 70.5001 74.5726 70.5 73.665V68.334C70.5 67.4838 71.1129 66.7676 71.9346 66.6221L72.1016 66.6006L79.1709 66.0488C79.8022 65.9996 80.3601 65.5988 80.6016 65.0039L82.9238 59.3994L82.9248 59.4004C83.171 58.8108 83.0624 58.1357 82.6504 57.6523V57.6514L78.042 52.2617H78.041C77.4532 51.571 77.4934 50.5458 78.1338 49.9053L81.9033 46.1348L81.9043 46.1357C82.5477 45.4936 83.5737 45.4535 84.2607 46.042V46.043L89.6484 50.6514H89.6494C90.1043 51.0394 90.7253 51.1571 91.2861 50.9697L91.3975 50.9287L97.0078 48.6025C97.5606 48.375 97.9491 47.8729 98.0361 47.2881L98.0498 47.1699L98.6016 40.1035C98.6722 39.1972 99.4264 38.5001 100.333 38.5ZM103 59.3447C100.083 59.3448 97.3264 60.4094 95.1797 62.3574L94.7588 62.7588C92.5582 64.9571 91.3458 67.8842 91.3457 70.9971C91.3457 74.1103 92.5583 77.0379 94.7588 79.2402C96.9595 81.4392 99.8886 82.6522 103 82.6523C106.114 82.6523 109.041 81.4391 111.241 79.2412L111.242 79.2402C113.443 77.0378 114.655 74.1086 114.655 70.9971C114.655 67.8859 113.443 64.9571 111.242 62.7588C109.041 60.556 106.111 59.3447 103 59.3447Z" fill="url(#paint15_linear_1385_1320)" stroke="url(#paint16_linear_1385_1320)" stroke-miterlimit="10"/>
<defs>
<linearGradient id="paint0_linear_1385_1320" x1="37.6874" y1="8.74393" x2="85.1275" y2="85.6918" gradientUnits="userSpaceOnUse">
<stop stop-color="#222227"/>
<stop offset="0.73" stop-color="#121214" stop-opacity="0"/>
<stop offset="1" stop-color="#121214" stop-opacity="0"/>
</linearGradient>
<linearGradient id="paint1_linear_1385_1320" x1="31.0351" y1="-8" x2="89.3469" y2="94.9901" gradientUnits="userSpaceOnUse">
<stop stop-color="#C0C0CA"/>
<stop offset="1" stop-opacity="0"/>
</linearGradient>
<linearGradient id="paint2_linear_1385_1320" x1="35.2161" y1="8.74393" x2="84.0322" y2="82.7315" gradientUnits="userSpaceOnUse">
<stop stop-color="#222227"/>
<stop offset="0.73" stop-color="#121214" stop-opacity="0"/>
<stop offset="1" stop-color="#121214" stop-opacity="0"/>
</linearGradient>
<linearGradient id="paint3_linear_1385_1320" x1="29" y1="-8" x2="89.2781" y2="91.4818" gradientUnits="userSpaceOnUse">
<stop stop-color="#C0C0CA"/>
<stop offset="1" stop-opacity="0"/>
</linearGradient>
<linearGradient id="paint4_linear_1385_1320" x1="64.2885" y1="105.326" x2="64.2765" y2="78.8257" gradientUnits="userSpaceOnUse">
<stop stop-color="#222227"/>
<stop offset="0.73" stop-color="#121214" stop-opacity="0"/>
<stop offset="1" stop-color="#121214" stop-opacity="0"/>
</linearGradient>
<linearGradient id="paint5_linear_1385_1320" x1="56.5385" y1="105.326" x2="56.2353" y2="80.3221" gradientUnits="userSpaceOnUse">
<stop stop-color="#94949B"/>
<stop offset="1" stop-opacity="0"/>
</linearGradient>
<linearGradient id="paint6_linear_1385_1320" x1="53.6256" y1="105.747" x2="53.633" y2="110.812" gradientUnits="userSpaceOnUse">
<stop offset="0.0480769" stop-color="#222227"/>
<stop offset="0.533654" stop-color="#121214"/>
<stop offset="1" stop-color="#121214"/>
</linearGradient>
<linearGradient id="paint7_linear_1385_1320" x1="61.5417" y1="136.244" x2="59.7168" y2="88.5147" gradientUnits="userSpaceOnUse">
<stop stop-opacity="0"/>
<stop offset="1" stop-color="#94949B"/>
</linearGradient>
<linearGradient id="paint8_linear_1385_1320" x1="79.3747" y1="113.929" x2="51.075" y2="73.117" gradientUnits="userSpaceOnUse">
<stop stop-color="#222227"/>
<stop offset="0.73" stop-color="#121214"/>
<stop offset="1" stop-color="#121214"/>
</linearGradient>
<linearGradient id="paint9_linear_1385_1320" x1="73.0023" y1="137.903" x2="94.094" y2="85.302" gradientUnits="userSpaceOnUse">
<stop stop-color="#94949B"/>
<stop offset="1" stop-color="#121214"/>
</linearGradient>
<linearGradient id="paint10_linear_1385_1320" x1="54" y1="94" x2="21" y2="-7" gradientUnits="userSpaceOnUse">
<stop stop-color="#121214" stop-opacity="0"/>
<stop offset="1" stop-color="#94949B"/>
</linearGradient>
<linearGradient id="paint11_linear_1385_1320" x1="37.5003" y1="14.9903" x2="37.5003" y2="63" gradientUnits="userSpaceOnUse">
<stop stop-color="#FF5F1F"/>
<stop offset="0.54" stop-color="#531F0A" stop-opacity="0"/>
<stop offset="1" stop-color="#121214" stop-opacity="0"/>
</linearGradient>
<linearGradient id="paint12_linear_1385_1320" x1="37.642" y1="76.8" x2="37.642" y2="13.55" gradientUnits="userSpaceOnUse">
<stop stop-opacity="0"/>
<stop offset="0.504808" stop-color="#531F0A" stop-opacity="0"/>
<stop offset="0.850962" stop-color="#FF9255"/>
</linearGradient>
<linearGradient id="paint13_linear_1385_1320" x1="38.0493" y1="44.294" x2="38.0493" y2="64.6587" gradientUnits="userSpaceOnUse">
<stop stop-color="#FF5F1F"/>
<stop offset="0.54" stop-color="#531F0A" stop-opacity="0"/>
<stop offset="1" stop-color="#121214" stop-opacity="0"/>
</linearGradient>
<linearGradient id="paint14_linear_1385_1320" x1="38.2897" y1="70.5123" x2="38.2897" y2="43.6831" gradientUnits="userSpaceOnUse">
<stop stop-opacity="0"/>
<stop offset="0.504808" stop-color="#531F0A" stop-opacity="0"/>
<stop offset="0.850962" stop-color="#FF9255"/>
</linearGradient>
<linearGradient id="paint15_linear_1385_1320" x1="90.3883" y1="44.5526" x2="135.288" y2="91.1139" gradientUnits="userSpaceOnUse">
<stop stop-color="#222227"/>
<stop offset="0.73" stop-color="#121214"/>
<stop offset="1" stop-color="#121214"/>
</linearGradient>
<linearGradient id="paint16_linear_1385_1320" x1="86.7895" y1="30.3846" x2="175.695" y2="117.017" gradientUnits="userSpaceOnUse">
<stop stop-color="#C0C0CA"/>
<stop offset="1" stop-opacity="0"/>
</linearGradient>
</defs>
</svg>
