<svg width="31" height="36" viewBox="0 0 31 36" fill="none" xmlns="http://www.w3.org/2000/svg">
<g clip-path="url(#clip0_960_326)">
<path d="M0 32.2416H31V36H0V32.2416Z" fill="#F0F0F1"/>
<path d="M7.13614 8.48456L1.92566 24.165H5.69857L9.23835 13.0814L11.0124 18.6228H8.71755L7.80078 21.7857H12.025L12.7864 24.165H16.6668L11.4563 8.48456H7.13614ZM22.5948 8.48456H17.1785V24.165H20.9241V11.6475H22.4336C24.1853 11.6475 25.1823 12.4851 25.1823 13.9994C25.1823 15.5137 24.1853 16.3513 22.4336 16.3513H22.1914V19.5143H22.5956C26.638 19.5143 29.0097 17.4734 29.0097 13.9994C29.0097 10.5255 26.638 8.48456 22.5956 8.48456" fill="#F0F0F1"/>
</g>
<defs>
<clipPath id="clip0_960_326">
<rect width="31" height="36" fill="white"/>
</clipPath>
</defs>
</svg>
