<svg width="83" height="20" viewBox="0 0 83 20" fill="none" xmlns="http://www.w3.org/2000/svg">
<g clip-path="url(#clip0_960_352)">
<path d="M79.0546 12.1675L76.7823 11.6722C75.2662 11.342 74.6295 10.7658 74.6295 9.92679C74.6295 8.85527 75.6672 8.13081 77.2219 8.13081C78.7767 8.13081 79.8284 8.94624 79.9867 10.2435H82.6847C82.5932 7.77364 80.4792 6.04169 77.2219 6.04169C73.9647 6.04169 71.826 7.68266 71.8225 10.0818C71.8225 12.0294 73.1381 13.2525 75.7973 13.8388L78.0697 14.3476C79.5998 14.6779 80.1169 15.1867 80.1169 16.0526C80.1169 17.1477 79.0511 17.8351 77.324 17.8351C75.5968 17.8351 74.5732 17.1477 74.3059 15.746H71.4602C71.7275 18.29 73.8275 19.9344 77.324 19.9344C80.6234 19.9344 83.0013 18.2563 83.0013 15.81C83.0013 13.8725 81.9143 12.8044 79.0546 12.1675Z" fill="#F0F0F1"/>
<path d="M61.0686 9.64364H61.1354L64.0761 19.6782H67.066L70.8931 6.28082H68.0474L65.4937 16.8242H65.4268L62.5037 6.28082H59.739L56.8264 16.8242H56.7737L54.2199 6.28082H51.3496L55.1908 19.6782H58.1561L61.0686 9.64364Z" fill="#F0F0F1"/>
<path d="M50.7904 13.6669V12.7234C50.7904 8.66309 48.3738 6.03821 44.4905 6.03821C40.6071 6.03821 38.0146 8.84168 38.0146 13.0435C38.0146 17.2454 40.5016 19.9343 44.61 19.9343C47.8145 19.9343 50.2346 18.1922 50.6321 15.7459V15.7425H47.906C47.5226 16.9151 46.3125 17.7036 44.6769 17.7036C42.3764 17.7036 40.9131 16.1637 40.9131 13.832V13.6669H50.7904ZM44.494 8.25538C46.5025 8.25538 47.8567 9.69755 47.9236 11.7462H40.9307C41.0749 9.72113 42.4855 8.25538 44.494 8.25538Z" fill="#F0F0F1"/>
<path d="M23.3957 6.14264L33.3398 19.6815H36.0237V1.30396H33.1253V14.8529H33.0197L23.0756 1.30396H20.3777V19.6781H23.2761V6.14264H23.3957Z" fill="#F0F0F1"/>
<path d="M8.81497 4.72412C8.8009 4.60281 8.79035 4.47814 8.79035 4.34673C8.79035 3.3864 9.22652 2.35869 10.0004 1.51967C10.3873 1.09511 10.8798 0.741302 11.4777 0.45826C12.0722 0.178586 12.635 0.0269564 13.1662 0C13.1838 0.131413 13.1908 0.262825 13.1908 0.397608C13.1908 1.39837 12.8109 2.33173 12.0476 3.19771C11.1295 4.22542 10.0215 4.81846 8.81497 4.72412ZM5.38184 4.78814C4.46025 4.80162 3.60197 5.03075 2.81052 5.48227C2.01555 5.93379 1.3824 6.54705 0.907527 7.32541C0.302509 8.29248 0 9.44824 0 10.7893C0 11.9586 0.225123 13.1682 0.675369 14.4183C1.09396 15.5741 1.62862 16.5883 2.27585 17.461C2.88087 18.2765 3.38388 18.856 3.7884 19.193C4.41804 19.7557 5.05119 20.0253 5.68787 19.9983C6.10646 19.9848 6.65168 19.8467 7.33056 19.5839C8.00593 19.321 8.63909 19.193 9.23004 19.193C9.82099 19.193 10.4084 19.321 11.0767 19.5839C11.7451 19.8501 12.3184 19.9781 12.7933 19.9781C13.4546 19.9613 14.0737 19.7018 14.6506 19.193C15.0234 18.883 15.5053 18.3236 16.0963 17.5183C16.5289 16.9253 16.9018 16.2817 17.2184 15.5842C17.3485 15.2877 17.4716 14.9777 17.5842 14.6643C17.0495 14.4487 16.5676 14.1454 16.1385 13.7545C15.1888 12.9121 14.7069 11.8507 14.6928 10.5737C14.6752 8.93606 15.4526 7.659 17.0249 6.74585C16.149 5.54966 14.8265 4.88586 13.0712 4.75107C12.424 4.69716 11.6325 4.83194 10.6933 5.15542C9.70139 5.50248 9.11748 5.6777 8.94512 5.6777C8.71648 5.6777 8.18884 5.52607 7.36926 5.23292C6.54967 4.9364 5.88485 4.78814 5.38184 4.78814Z" fill="#F0F0F1"/>
</g>
<defs>
<clipPath id="clip0_960_352">
<rect width="83" height="20" fill="white"/>
</clipPath>
</defs>
</svg>
