<svg width="76" height="26" viewBox="0 0 76 26" fill="none" xmlns="http://www.w3.org/2000/svg">
<g clip-path="url(#clip0_960_342)">
<path fill-rule="evenodd" clip-rule="evenodd" d="M0 0.251875H5.12828C7.98278 0.251875 9.47137 1.71437 9.47137 3.51812C9.47137 4.76125 8.76797 5.60625 7.78648 6.045V6.0775C9.03788 6.52437 9.74128 7.5075 9.74128 8.76688C9.74128 10.5625 8.35084 12.1387 5.33276 12.1387H0V0.251875ZM4.9647 4.96437C5.81533 4.96437 6.19974 4.53375 6.19974 4.05438C6.19974 3.575 5.81533 3.12812 4.9647 3.12812H3.45975V4.95625H4.9647V4.96437ZM5.01378 9.2625C5.91347 9.2625 6.34697 8.83187 6.34697 8.27938C6.34697 7.72687 5.89712 7.29625 5.03013 7.29625H3.45975V9.2625H5.01378ZM10.4774 7.30437V0.251875H13.9699V7.27187C13.9699 8.59625 14.6242 9.295 15.7447 9.295C16.8653 9.295 17.5687 8.59625 17.5687 7.25562V0.251875H21.0775V7.30437C21.0775 10.2944 19.0573 12.4475 15.7447 12.4475C12.4322 12.4475 10.4774 10.2944 10.4774 7.30437ZM29.9763 0.82875V3.88375C29.2238 3.35562 27.9397 2.99 26.901 2.99C25.9522 2.99 25.4778 3.29063 25.4778 3.68875C25.4778 4.08687 26.0095 4.29 26.9501 4.63125C28.5532 5.19187 30.7288 5.93937 30.7288 8.46625C30.7288 10.725 29.0112 12.3988 26.0013 12.3988C24.4473 12.3988 23.0241 11.9519 22.1408 11.3669V8.14937C23.0077 8.84812 24.3164 9.40875 25.5842 9.40875C26.6556 9.40875 27.1545 9.01062 27.1545 8.56375C27.1545 7.98688 26.3366 7.735 25.3633 7.38562C24.0792 6.9225 22.0508 6.09375 22.0508 3.78625C22.0426 1.70625 23.6948 0 26.6393 0C27.9397 0 29.1093 0.333125 29.9763 0.82875ZM31.6203 0.251875H35.1128V12.1387H31.6203V0.251875ZM47.5286 12.1469H44.1997L39.8894 5.76875H39.873V12.1469H36.5605V0.251875H39.8894L44.1997 6.52437H44.2161V0.251875H47.5286V12.1469ZM48.9763 0.251875H57.2454V3.33937H52.4688V4.76937H56.7628V7.5725H52.4688V9.05125H57.2454V12.1387H48.9763V0.251875ZM66.0052 0.82875V3.88375C65.2527 3.35562 63.9686 2.99 62.9298 2.99C61.9811 2.99 61.5067 3.29063 61.5067 3.68875C61.5067 4.08687 62.0383 4.29 62.9789 4.63125C64.582 5.19187 66.7576 5.93937 66.7576 8.46625C66.7576 10.725 65.04 12.3988 62.0301 12.3988C60.4761 12.3988 59.053 11.9519 58.1696 11.3669V8.14937C59.0366 8.84812 60.3452 9.40875 61.613 9.40875C62.6845 9.40875 63.1834 9.01062 63.1834 8.56375C63.1834 7.98688 62.3655 7.735 61.3922 7.38562C60.1081 6.9225 58.0796 6.09375 58.0796 3.78625C58.0715 1.70625 59.7236 0 62.6681 0C63.9686 0 65.1382 0.333125 66.0052 0.82875ZM75.2475 0.82875V3.88375C74.495 3.35562 73.2109 2.99 72.1722 2.99C71.2234 2.99 70.749 3.29063 70.749 3.68875C70.749 4.08687 71.2807 4.29 72.2213 4.63125C73.8244 5.19187 76 5.93937 76 8.46625C76 10.725 74.2824 12.3988 71.2725 12.3988C69.7185 12.3988 68.2953 11.9519 67.412 11.3669V8.14937C68.279 8.84812 69.5876 9.40875 70.8554 9.40875C71.9268 9.40875 72.4257 9.01062 72.4257 8.56375C72.4257 7.98688 71.6078 7.735 70.6345 7.38562C69.3504 6.9225 67.322 6.09375 67.322 3.78625C67.3138 1.70625 68.966 0 71.9105 0C73.2109 0 74.3805 0.333125 75.2475 0.82875ZM7.6638 25.7481H11.1563V13.8612H7.6638V25.7481ZM23.5721 13.8612H20.2514V20.1337H20.235L15.9247 13.8612H12.5958V25.7481H15.9165V19.37H15.9328L20.2432 25.7481H23.5721V13.8612ZM29.1993 13.6012C26.2548 13.6012 24.6027 15.3075 24.6027 17.3875C24.6027 19.695 26.6393 20.5237 27.9152 20.9869C28.8967 21.3362 29.7064 21.5881 29.7064 22.165C29.7064 22.6119 29.2075 23.01 28.136 23.01C26.8683 23.01 25.5596 22.4494 24.6926 21.7506V24.9681C25.576 25.5531 26.9991 26 28.5532 26C31.5631 26 33.2807 24.3263 33.2807 22.0675C33.2807 19.5406 31.105 18.785 29.5019 18.2325C28.5532 17.8994 28.0297 17.7044 28.0297 17.29C28.0297 16.8756 28.5123 16.5912 29.4529 16.5912C30.4916 16.5912 31.7757 16.9569 32.5282 17.485V14.43C31.6612 13.9344 30.4916 13.6012 29.1993 13.6012ZM34.0986 25.7481H37.591V13.8612H34.0986V25.7481ZM42.523 22.6119H43.1937C45.0013 22.6119 46.1709 21.5962 46.1709 19.8088C46.1709 18.0212 45.0013 16.9894 43.1937 16.9894H42.523V22.6119ZM49.7043 19.8088C49.7043 23.3919 46.9806 25.7481 43.071 25.7481H39.0306V13.8612H43.071C46.9806 13.8612 49.7043 16.2337 49.7043 19.8088ZM50.6449 25.7481H58.9139V22.6606H54.1373V21.1819H58.4313V18.3787H54.1373V16.9487H58.9139V13.8612H50.6449V25.7481ZM64.4102 19.4756C65.2936 19.4756 65.9806 19.0612 65.9806 18.2325C65.9806 17.4037 65.2936 16.9894 64.3939 16.9894H63.6578V19.4756H64.4102ZM70.1274 25.7481H66.0133L63.7396 22.0756H63.6578V25.7481H60.1653V13.8612H64.4266C67.4202 13.8612 69.5058 15.1856 69.5058 17.9969C69.5058 19.11 69.0069 20.735 67.0194 21.5637L70.1274 25.7481Z" fill="#F0F0F1"/>
</g>
<defs>
<clipPath id="clip0_960_342">
<rect width="76" height="26" fill="white"/>
</clipPath>
</defs>
</svg>
