<svg width="125" height="24" viewBox="0 0 125 24" fill="none" xmlns="http://www.w3.org/2000/svg">
<g clip-path="url(#clip0_960_364)">
<path d="M0.183217 16.2913L1.76347 16.0448V1.77031L0 1.54622L0.0916087 0H11.1305L10.8556 4.32493L8.65702 4.2577L8.51961 1.54622H5.10718V7.97759H6.59582L6.93936 6.4986L8.4738 6.54342V10.9804H6.93936L6.57292 9.45658H5.08428V16.2689H8.51961L8.84024 13.3109L11.1534 13.3782L11.3366 17.8824H0.114511L0.183217 16.2913Z" fill="#F0F0F1"/>
<path d="M12.3671 17.9047L12.4359 16.5826L13.6726 16.3361V7.32771L12.2297 7.19326V5.84872L15.8483 5.33332L16.1231 6.09522V6.61063C16.9934 5.71427 18.0469 5.17645 19.3981 5.17645C21.3677 5.17645 22.8334 6.34172 22.8334 8.64984V16.3137L24.1389 16.5602L24.0702 17.8823H19.7645V9.32211C19.7645 8.08962 19.3065 7.39494 18.1614 7.39494C17.7721 7.39494 17.4972 7.46217 17.1995 7.57421C17.0163 7.73107 16.8331 7.95516 16.6728 8.15684V16.3585L17.9782 16.605L17.8866 17.9272H12.3671V17.9047Z" fill="#F0F0F1"/>
<path d="M81.5556 17.9047L81.6014 16.5826L82.8381 16.3361V7.32771L81.3953 7.19326V5.84872L85.0138 5.33332L85.2886 6.09522V6.61063C86.1589 5.71427 87.2124 5.17645 88.5636 5.17645C90.5332 5.17645 91.999 6.34172 91.999 8.64984V16.3137L93.3044 16.5602L93.2357 17.8823H88.953V9.32211C88.953 8.08962 88.4949 7.39494 87.3498 7.39494C86.9605 7.39494 86.6857 7.46217 86.3879 7.57421C86.2047 7.73107 86.0215 7.95516 85.8612 8.15684V16.3585L87.1666 16.605L87.075 17.9272H81.5556V17.9047Z" fill="#F0F0F1"/>
<path d="M30.9637 17.6583C30.4598 17.86 29.5666 18.084 28.3986 18.084C26.8642 18.084 25.4443 17.4118 25.4443 15.2157V7.32775L23.9785 7.10366L24.0472 5.53503L25.6962 5.4678L26.4061 3.07004L28.5131 2.98041V5.55744H30.7805L30.6201 7.12607L28.536 7.35016V15.2381C28.536 15.888 28.9025 16.3137 29.5895 16.3137H30.8263L30.9637 17.6583Z" fill="#F0F0F1"/>
<path d="M116.688 17.9048L116.733 16.6051L117.901 16.3362V7.32778L116.527 7.19333V5.84879L120.283 5.33338L120.535 6.20733V6.49865C121.52 5.78156 122.848 5.31097 124.452 5.31097L125.001 5.78156L124.612 9.18772L122.551 9.1205L122.344 7.30537C121.864 7.3726 121.406 7.50705 121.016 7.77596V16.3586L122.322 16.6275L122.23 17.9272H116.688V17.9048Z" fill="#F0F0F1"/>
<path d="M62.7519 17.9048L62.8206 16.6051L63.9886 16.3362V7.32778L62.6145 7.19333V5.84879L66.3705 5.33338L66.6224 6.20733V6.49865C67.6072 5.78156 68.9355 5.31097 70.5387 5.31097L71.0883 5.78156L70.6532 9.18772L68.592 9.1205L68.3858 7.30537C67.9049 7.3726 67.4469 7.50705 67.0575 7.77596V16.3586L68.3629 16.6275L68.2713 17.9272H62.7519V17.9048Z" fill="#F0F0F1"/>
<path d="M31.8803 17.9048L31.949 16.6051L33.117 16.3362V7.32778L31.7429 7.19333V5.84879L35.4989 5.33338L35.7508 6.20733V6.49865C36.7356 5.78156 38.0639 5.31097 39.6442 5.31097L40.1938 5.78156L39.8045 9.18772L37.7433 9.1205L37.5372 7.30537C37.0562 7.3726 36.5982 7.50705 36.2088 7.77596V16.3586L37.5143 16.6275L37.4227 17.9272H31.8803V17.9048Z" fill="#F0F0F1"/>
<path d="M43.7446 12.4146C43.7446 14.5658 44.7065 16.2241 46.6074 16.2241C47.5922 16.2241 48.3708 16.0224 49.2869 15.5966L49.8137 16.7843C48.8747 17.5238 47.5005 18.084 45.7829 18.084C42.4392 18.084 40.5154 15.2605 40.5154 11.6302C40.5154 8.53781 41.9124 5.15405 45.7371 5.15405C49.0808 5.15405 50.3404 8.17926 50.3404 11.5406L50.0198 12.3473L43.7446 12.4146ZM43.6988 10.9804L47.5463 10.8011C47.4776 9.29971 47.157 6.92436 45.6455 6.92436C45.279 6.92436 45.0271 6.99159 44.5691 7.21568C43.9507 8.24649 43.6988 10.1064 43.6988 10.9804Z" fill="#F0F0F1"/>
<path d="M96.9687 12.4146C96.9687 14.5658 97.9306 16.2241 99.8315 16.2241C100.816 16.2241 101.595 16.0224 102.511 15.5966L103.038 16.7843C102.099 17.5238 100.725 18.084 99.007 18.084C95.6633 18.084 93.7395 15.2605 93.7395 11.6302C93.7395 8.53781 95.1365 5.15405 98.9612 5.15405C102.305 5.15405 103.565 8.17926 103.565 11.5406L103.244 12.3473L96.9687 12.4146ZM96.9229 10.9804L100.77 10.8011C100.702 9.29971 100.381 6.92436 98.8696 6.92436C98.5032 6.92436 98.2512 6.99159 97.7932 7.21568C97.1748 8.24649 96.9229 10.1064 96.9229 10.9804Z" fill="#F0F0F1"/>
<path d="M74.6147 12.4146C74.6147 14.5658 75.5766 16.2241 77.4775 16.2241C78.4623 16.2241 79.2409 16.0224 80.157 15.5966L80.6838 16.7843C79.7448 17.5238 78.3707 18.084 76.653 18.084C73.3093 18.084 71.3855 15.2605 71.3855 11.6302C71.3855 8.53781 72.7825 5.15405 76.6072 5.15405C79.9509 5.15405 81.2105 8.17926 81.2105 11.5406L80.8899 12.3473L74.6147 12.4146ZM74.5689 10.9804L78.4165 10.8011C78.3478 9.29971 78.0271 6.92436 76.5156 6.92436C76.1491 6.92436 75.8972 6.99159 75.4392 7.21568C74.8208 8.24649 74.546 10.1064 74.5689 10.9804Z" fill="#F0F0F1"/>
<path d="M112.22 17.9047L111.899 16.8291C111.052 17.6134 110.227 18.084 108.945 18.084C106.975 18.084 105.212 17.1204 105.212 14.4537V7.01397L103.769 6.87952V5.69184L107.937 5.22125L108.258 6.29688V14.0952C108.258 15.4621 108.83 16.1792 109.952 16.1792C110.273 16.1792 110.685 16.1344 111.052 16C111.258 15.7983 111.464 15.5518 111.624 15.3053V7.01397L110.136 6.87952V5.69184L114.35 5.22125L114.67 6.29688V16.3361L115.976 16.5826L115.815 17.9047H112.22Z" fill="#F0F0F1"/>
<path d="M56.5912 16.2913C55.9271 16.2913 55.4003 16.1793 54.9881 15.9552V8.0448C55.1713 7.77589 55.3774 7.52939 55.5835 7.3053C55.9729 7.17085 56.3164 7.12603 56.7287 7.12603C58.4463 7.12603 58.744 8.82911 58.744 11.8767C58.744 14.9244 58.286 15.619 58.1715 15.9552C57.6905 16.1793 57.1867 16.2913 56.5912 16.2913ZM61.7213 11.3389C61.7213 7.5518 60.5762 5.17645 57.7134 5.17645C55.8126 5.17645 54.9194 6.25208 54.5529 6.70026V6.27449L54.2323 5.19886L50.4993 5.71427V7.01399L51.9421 7.19326V22.4762L50.7054 22.7227L50.6367 24H56.1561L56.2477 22.7227L54.9423 22.4762V17.6358C55.469 17.9272 56.2019 18.1064 57.0035 18.1064C61.6755 18.1064 61.7213 13.4678 61.7213 11.3389Z" fill="#F0F0F1"/>
</g>
<defs>
<clipPath id="clip0_960_364">
<rect width="125" height="24" fill="white"/>
</clipPath>
</defs>
</svg>
