<svg width="77" height="18" viewBox="0 0 77 18" fill="none" xmlns="http://www.w3.org/2000/svg">
<g clip-path="url(#clip0_960_329)">
<path fill-rule="evenodd" clip-rule="evenodd" d="M46.5115 5.09325C45.2818 5.09325 44.3129 5.33633 43.3441 5.85723C43.3441 3.24116 43.3441 0.810289 43.4434 0L37.4688 0.995498V1.4701L38.0774 1.5627C38.8972 1.70161 39.1456 2.1299 39.3071 3.13698C39.4562 5.13955 39.4065 15.6617 39.3071 17.4212C40.897 17.7569 42.5739 17.9884 44.2632 17.9884C48.9585 17.9884 51.7782 15.2682 51.7782 10.9852C51.8278 7.57042 49.5175 5.09325 46.5115 5.09325ZM44.462 17.0392C44.1018 17.0392 43.6422 17.0392 43.3937 16.9466C43.2944 15.8006 43.2447 10.9505 43.2944 6.65595C43.8036 6.51704 44.1639 6.41286 44.6235 6.41286C46.5612 6.41286 47.6418 8.55434 47.6418 11.1704C47.6294 14.5158 46.3003 17.0392 44.462 17.0392Z" fill="#F0F0F1"/>
<path fill-rule="evenodd" clip-rule="evenodd" d="M15.1835 0.324097H-0.405273V1.08808L0.464222 1.18069C1.64425 1.3196 2.05416 1.99098 2.2529 3.56525C2.51375 6.51702 2.40195 11.8997 2.2529 14.4694C2.10384 16.0437 1.64425 16.7498 0.464222 16.854L-0.405273 16.9929V17.6643H9.60634V16.9929L8.5381 16.854C7.35808 16.7614 6.94817 16.0437 6.74943 14.4694C6.65006 13.3698 6.60037 11.6566 6.60037 9.51509L8.74927 9.6077C10.0784 9.6077 10.687 10.6032 10.9478 11.9923H11.7677V6.08873H10.9478C10.687 7.46622 10.0784 8.47329 8.74927 8.47329L6.60037 8.5659C6.60037 5.75304 6.69974 3.13696 6.74943 1.56268H9.86719C12.2645 1.56268 13.4942 2.94017 14.3637 5.41735L15.2332 5.17426L15.1835 0.324097Z" fill="#F0F0F1"/>
<path fill-rule="evenodd" clip-rule="evenodd" d="M20.1893 4.94275C24.6361 4.94275 26.8347 7.75561 26.8347 11.4714C26.8347 14.9903 24.3877 18 19.9408 18C15.494 18 13.2954 15.1871 13.2954 11.4714C13.2954 7.89452 15.7921 4.94275 20.1893 4.94275ZM19.9284 5.75304C17.9907 5.75304 17.4814 8.23021 17.4814 11.4251C17.4814 14.6199 18.3509 17.0971 20.1396 17.0971C22.1891 17.0971 22.6984 14.6199 22.6984 11.4251C22.6984 8.23021 21.8289 5.75304 19.9284 5.75304Z" fill="#F0F0F1"/>
<path fill-rule="evenodd" clip-rule="evenodd" d="M52.9438 11.5177C52.9438 8.13764 55.2418 4.89648 59.7383 4.89648C63.4647 4.89648 65.2037 7.46626 65.2037 10.8463H56.9808C56.8814 13.8907 58.4589 16.1364 61.6761 16.1364C63.1045 16.1364 63.825 15.8007 64.6944 15.2335L65.0547 15.6618C64.1852 16.8077 62.2474 17.9421 59.7383 17.9421C55.8008 18 52.9438 15.3261 52.9438 11.5177ZM57.0305 9.98973L61.1668 9.89713C61.1668 8.23025 60.9059 5.75308 59.3781 5.75308C57.9 5.75308 57.1298 8.09134 57.0305 9.98973Z" fill="#F0F0F1"/>
<path fill-rule="evenodd" clip-rule="evenodd" d="M75.7866 5.61419C74.7184 5.1859 73.3396 4.94281 71.7 4.94281C68.4332 4.94281 66.3837 6.7486 66.3837 8.89008C66.3837 11.0316 67.8618 11.9344 70.0107 12.6058C72.2093 13.3698 72.8179 13.937 72.8179 14.8862C72.8179 15.8354 71.9981 16.7962 70.6193 16.7962C68.93 16.7962 67.7003 15.8933 66.7315 13.4161L66.1228 13.555L66.2222 17.1782C67.2904 17.6065 69.2406 17.9422 70.9175 17.9422C74.3954 17.9422 76.594 16.2753 76.594 13.7518C76.594 12.0386 75.6251 11.0316 73.3272 10.2328C70.8802 9.32995 69.9486 8.75117 69.9486 7.66307C69.9486 6.57496 70.7684 5.85728 71.7869 5.85728C73.3769 5.85728 74.4451 6.76017 75.2649 9.00583L75.8736 8.86693L75.7866 5.61419Z" fill="#F0F0F1"/>
<path fill-rule="evenodd" clip-rule="evenodd" d="M38.3364 5.27841C36.8583 4.46812 34.2001 4.85012 32.7717 7.84819L32.871 4.94272L26.946 6.0424V6.517L27.5547 6.6096C28.3745 6.70221 28.7347 7.0842 28.7844 8.18388C28.9335 10.1864 28.8838 13.6128 28.7844 15.3723C28.685 16.3678 28.3248 16.854 27.5547 16.9466L26.946 17.0392V17.7106H35.169V17.0392L34.1007 16.9466C33.2313 16.854 32.9207 16.3794 32.871 15.3723C32.722 13.798 32.722 10.661 32.7717 8.70478C33.2313 8.13757 35.169 7.6051 36.908 8.70478L38.3364 5.27841Z" fill="#F0F0F1"/>
</g>
<defs>
<clipPath id="clip0_960_329">
<rect width="77" height="18" fill="white"/>
</clipPath>
</defs>
</svg>
