<svg width="62" height="22" viewBox="0 0 62 22" fill="none" xmlns="http://www.w3.org/2000/svg">
<g clip-path="url(#clip0_960_359)">
<path d="M0 5.06579H2.73488V16.9053H0V21.5947H14.633V16.9053H11.8699V5.06579H14.633V0H0V5.06579Z" fill="#F0F0F1"/>
<path d="M37.1603 16.9053V10.6816C37.1603 6.71584 34.3408 5.26847 30.8447 5.26847C28.3636 5.26847 26.4745 5.96321 24.8392 7.90268C24.7265 8.04742 24.5855 8.2211 24.4163 8.36584V5.09479H15.394V9.81321H17.4523V16.9053H15.394V21.6237H26.8411V16.9053H24.6701V12.8237C24.6701 11.0869 25.9388 9.81321 27.6305 9.81321C28.9557 9.81321 29.9989 10.479 29.9989 11.9553V16.8764H27.8843V21.5948H39.0775V16.9632C39.0775 16.9343 39.0493 16.9053 39.0493 16.8764H37.1603V16.9053Z" fill="#F0F0F1"/>
<path d="M57.291 15.5158H51.1446C51.1446 17.2527 49.904 18.0632 48.5225 18.0632C45.8722 18.0632 45.6466 15.7763 45.6466 13.6053V13.5474C45.6466 11.3763 45.844 9.08949 48.5225 9.08949C50.6089 9.08949 50.9754 10.9421 51.0318 12.7079L57.2064 12.0132C56.558 5.55791 50.3552 5.15265 48.8045 5.15265H48.4661C43.3629 5.15265 38.3442 7.72897 38.3442 13.5763C38.3442 14.8211 38.5698 15.9211 38.9927 16.8763H39.0209V16.9632C40.5434 20.4369 44.4907 22 48.4661 22C51.7085 22 56.2478 21.1895 57.2628 16.0658L57.291 15.5158Z" fill="#F0F0F1"/>
<path d="M59.4064 21.6815C60.839 21.6815 62.0003 20.4892 62.0003 19.0184C62.0003 17.5476 60.839 16.3552 59.4064 16.3552C57.9738 16.3552 56.8125 17.5476 56.8125 19.0184C56.8125 20.4892 57.9738 21.6815 59.4064 21.6815Z" fill="#F0F0F1"/>
</g>
<defs>
<clipPath id="clip0_960_359">
<rect width="62" height="22" fill="white"/>
</clipPath>
</defs>
</svg>
