<svg width="98" height="16" viewBox="0 0 98 16" fill="none" xmlns="http://www.w3.org/2000/svg">
<g clip-path="url(#clip0_960_344)">
<path d="M3.36042 15.6155H0V7.47754L3.36042 13.1299V15.6145V15.6155Z" fill="#F0F0F1"/>
<path d="M3.36042 11.5207L0 5.77122V0.390686H3.93862L9.76962 10.3652V0.390686H13.0673V15.6155H9.20906L3.36042 5.63996V11.5197V11.5207Z" fill="#F0F0F1"/>
<path d="M14.188 15.6155V0.390686H23.8949V3.47472H17.5474V6.42751H23.5215V9.31518H17.5474V12.5305H24.2683V15.6145H14.188V15.6155Z" fill="#F0F0F1"/>
<path d="M28.2041 15.6155L24.5105 0.390625H27.8317L29.9956 9.49701L31.8605 0.390625H35.7188L37.8659 9.49701L39.8259 0.390625H43.1864L39.4996 15.6155H36.0147L33.8685 5.77012L31.642 15.6155H28.2041Z" fill="#F0F0F1"/>
<path d="M44.6501 11.375L42.3784 13.8275C42.3784 13.8275 44.1356 16 47.7949 16C51.1798 16 53.2986 13.9702 53.2986 10.9543C53.2986 5.83321 46.565 7.13649 46.565 4.53097C46.565 3.75686 47.202 3.01273 48.5475 3.01273C49.9832 3.01273 51.1945 4.30877 51.1945 4.30877L53.3652 1.87998C53.3652 1.87998 51.7139 0 48.6592 0C45.2057 0 43.0889 2.08669 43.0889 4.75318C43.0889 10.1306 49.7666 8.49764 49.7666 11.3285C49.7666 12.4312 48.8925 13.01 47.7959 13.01C45.88 13.01 44.651 11.3739 44.651 11.3739L44.6501 11.375Z" fill="#F0F0F1"/>
<path d="M54.2615 15.6155V0.390686H59.1615L62.5386 10.2836L65.7412 0.390686H70.6892V15.6155H67.3288V4.85345L63.595 15.6155H61.1528L57.4965 4.73769V15.6155H54.2605H54.2615Z" fill="#F0F0F1"/>
<path d="M76.7285 0.390747L70.6887 15.6156H74.4225L75.4986 12.5967H81.0993L82.2086 15.6156H87.5241L90.5631 10.2661L93.7491 15.6156H98.0003L92.7985 7.58305L97.38 0.390747H93.3395L90.668 5.12429L87.9877 0.390747H83.756L88.4297 7.58305L85.0467 13.0401L80.0928 0.390747H76.7285ZM78.3376 4.49694L80.2045 9.70901H76.4707L78.3376 4.49694Z" fill="#F0F0F1"/>
</g>
<defs>
<clipPath id="clip0_960_344">
<rect width="98" height="16" fill="white"/>
</clipPath>
</defs>
</svg>
