<svg width="53" height="38" viewBox="0 0 53 38" fill="none" xmlns="http://www.w3.org/2000/svg">
<g clip-path="url(#clip0_960_263)">
<path d="M53 8.06247V5.56112H19.9756V2.53877H52.9861C52.8405 1.11587 51.5968 0 50.0896 0H2.91042C1.32986 0 0.040629 1.22717 0.00297285 2.7489C0 2.77096 0 2.79495 0 2.81798V19.1089H53V16.598H19.9756V13.5852H53V11.0743H19.9756V8.06247H53ZM1.84416 16.2631L1.17923 15.792L0.507367 16.2631L0.765014 15.4994L0.0951312 15.0273H0.924557L1.18121 14.2636L1.43391 15.0273H2.2663L1.58948 15.5022L1.84416 16.2631ZM1.58948 11.6336L1.84416 12.3955L1.17923 11.9244L0.507367 12.3955L0.765014 11.6327L0.0951312 11.1577H0.924557L1.18121 10.3969L1.43391 11.1577H2.2663L1.58948 11.6336ZM1.58948 7.76599L1.84416 8.52685L1.17923 8.05575L0.507367 8.52685L0.765014 7.76407L0.0951312 7.29105H0.924557L1.18121 6.52827L1.43391 7.29105H2.2663L1.58948 7.76599ZM1.58948 3.89739L1.84416 4.65825L1.17923 4.18811L0.507367 4.65825L0.765014 3.89643L0.0951312 3.42149H0.924557L1.18121 2.66062L1.43391 3.42149H2.2663L1.58948 3.89739ZM4.19767 18.1974L3.5258 17.7263L2.85295 18.1974L3.10861 17.4327L2.43972 16.9606H3.26716L3.52481 16.1988L3.78147 16.9606H4.61981L3.93903 17.4346L4.19767 18.1974ZM3.93903 13.5679L4.19767 14.3288L3.5258 13.8567L2.85295 14.3288L3.10861 13.5641L2.43972 13.093H3.26716L3.52481 12.3293L3.78147 13.093H4.61981L3.93903 13.5679ZM3.93903 9.69933L4.19767 10.4612L3.5258 9.99005L2.85295 10.4612L3.10861 9.69549L2.43972 9.22535H3.26716L3.52481 8.46257L3.78147 9.22535H4.61981L3.93903 9.69933ZM3.93903 5.83169L4.19767 6.59255L3.5258 6.12049L2.85295 6.59255L3.10861 5.82881L2.43972 5.35675H3.26716L3.52481 4.59301L3.78147 5.35675H4.61981L3.93903 5.83169ZM3.93903 1.96309L4.19767 2.72587L3.5258 2.25381L2.85295 2.72587L3.10861 1.95925L2.43972 1.4891H3.26716L3.52481 0.726322L3.78147 1.4891H4.61981L3.93903 1.96309ZM6.5482 16.2631L5.87535 15.791L5.20546 16.2631L5.46212 15.4984L4.79224 15.0273H5.62067L5.87535 14.2636L6.13398 15.0273H6.96143L6.29154 15.4984L6.5482 16.2631ZM6.29154 11.6298L6.5482 12.3955L5.87535 11.9215L5.20546 12.3955L5.46212 11.6298L4.79224 11.1577H5.62067L5.87535 10.3969L6.13398 11.1577H6.96143L6.29154 11.6298ZM6.29154 7.76215L6.5482 8.52685L5.87535 8.05479L5.20546 8.52685L5.46212 7.76215L4.79224 7.29105H5.62067L5.87535 6.52827L6.13398 7.29105H6.96143L6.29154 7.76215ZM6.29154 3.89355L6.5482 4.65825L5.87535 4.18523L5.20546 4.65825L5.46212 3.89355L4.79224 3.42149H5.62067L5.87535 2.66062L6.13398 3.42149H6.96143L6.29154 3.89355ZM8.89279 18.1974L8.22786 17.7263L7.556 18.1974L7.81464 17.4346L7.14574 16.9606H7.97319L8.22885 16.1988L8.48353 16.9606H9.31493L8.64109 17.4346L8.89279 18.1974ZM8.64109 13.5679L8.89279 14.3288L8.22786 13.8587L7.556 14.3288L7.81464 13.567L7.14574 13.093H7.97319L8.22885 12.3293L8.48353 13.093H9.31493L8.64109 13.5679ZM8.64109 9.69933L8.89279 10.4612L8.22786 9.99005L7.556 10.4612L7.81464 9.69837L7.14574 9.22535H7.97319L8.22885 8.46257L8.48353 9.22535H9.31493L8.64109 9.69933ZM8.64109 5.83169L8.89279 6.59255L8.22786 6.12145L7.556 6.59255L7.81464 5.83073L7.14574 5.35675H7.97319L8.22885 4.59301L8.48353 5.35675H9.31493L8.64109 5.83169ZM8.64109 1.96309L8.89279 2.72587L8.22786 2.25477L7.556 2.72587L7.81464 1.96213L7.14574 1.4891H7.97319L8.22885 0.726322L8.48353 1.4891H9.31493L8.64109 1.96309ZM11.2463 16.2631L10.5734 15.791L9.90059 16.2631L10.1572 15.4984L9.48736 15.0273H10.3178L10.5734 14.2636L10.8301 15.0273H11.6585L10.9867 15.4984L11.2463 16.2631ZM10.9867 11.6298L11.2463 12.3955L10.5734 11.9215L9.90059 12.3955L10.1572 11.6298L9.48736 11.1577H10.3178L10.5734 10.3969L10.8301 11.1577H11.6585L10.9867 11.6298ZM10.9867 7.76215L11.2463 8.52685L10.5734 8.05479L9.90059 8.52685L10.1572 7.76215L9.48736 7.29105H10.3178L10.5734 6.52827L10.8301 7.29105H11.6585L10.9867 7.76215ZM10.9867 3.89355L11.2463 4.65825L10.5734 4.18523L9.90059 4.65825L10.1572 3.89355L9.48736 3.42149H10.3178L10.5734 2.66062L10.8301 3.42149H11.6585L10.9867 3.89355ZM13.5978 18.1974L12.9269 17.7244L12.2541 18.1974L12.5108 17.4327L11.8409 16.9606H12.6703L12.9269 16.1988L13.1826 16.9606H14.012L13.3402 17.4327L13.5978 18.1974ZM13.3402 13.5641L13.5978 14.3288L12.9269 13.8567L12.2541 14.3288L12.5108 13.5641L11.8409 13.093H12.6703L12.9269 12.3293L13.1826 13.093H14.012L13.3402 13.5641ZM13.3402 9.69549L13.5978 10.4612L12.9269 9.98717L12.2541 10.4612L12.5108 9.69549L11.8409 9.22535H12.6703L12.9269 8.46257L13.1826 9.22535H14.012L13.3402 9.69549ZM13.3402 5.82881L13.5978 6.59255L12.9269 6.12049L12.2541 6.59255L12.5108 5.82881L11.8409 5.35675H12.6703L12.9269 4.59301L13.1826 5.35675H14.012L13.3402 5.82881ZM13.3402 1.95925L13.5978 2.72587L12.9269 2.25285L12.2541 2.72587L12.5108 1.95925L11.8409 1.4891H12.6703L12.9269 0.726322L13.1826 1.4891H14.012L13.3402 1.95925ZM15.9414 16.2631L15.2725 15.792L14.6066 16.2631L14.8593 15.5022L14.1825 15.0273H15.0169L15.2686 14.2636L15.5252 15.0273H16.3546L15.6858 15.4994L15.9414 16.2631ZM15.6858 11.6327L15.9414 12.3955L15.2725 11.9244L14.6066 12.3955L14.8593 11.6336L14.1825 11.1577H15.0169L15.2686 10.3969L15.5252 11.1577H16.3546L15.6858 11.6327ZM15.6858 7.76407L15.9414 8.52685L15.2725 8.05575L14.6066 8.52685L14.8593 7.76599L14.1825 7.29105H15.0169L15.2686 6.52827L15.5252 7.29105H16.3546L15.6858 7.76407ZM15.6858 3.89643L15.9414 4.65825L15.2725 4.18811L14.6066 4.65825L14.8593 3.89739L14.1825 3.42149H15.0169L15.2686 2.66062L15.5252 3.42149H16.3546L15.6858 3.89643ZM18.2949 18.1974L17.6221 17.7244L16.9492 18.1974L17.2079 17.4327L16.536 16.9606H17.3654L17.6221 16.1988L17.8777 16.9606H18.7072L18.0353 17.4327L18.2949 18.1974ZM18.0353 13.5641L18.2949 14.3288L17.6221 13.8567L16.9492 14.3288L17.2079 13.5641L16.536 13.093H17.3654L17.6221 12.3293L17.8777 13.093H18.7072L18.0353 13.5641ZM18.0353 9.69549L18.2949 10.4612L17.6221 9.98717L16.9492 10.4612L17.2079 9.69549L16.536 9.22535H17.3654L17.6221 8.46257L17.8777 9.22535H18.7072L18.0353 9.69549ZM18.0353 5.82881L18.2949 6.59255L17.6221 6.12049L16.9492 6.59255L17.2079 5.82881L16.536 5.35675H17.3654L17.6221 4.59301L17.8777 5.35675H18.7072L18.0353 5.82881ZM18.0353 1.95925L18.2949 2.72587L17.6221 2.25285L16.9492 2.72587L17.2079 1.95925L16.536 1.4891H17.3654L17.6221 0.726322L17.8777 1.4891H18.7072L18.0353 1.95925Z" fill="#F0F0F1"/>
<path d="M53 22.1216H0V24.6316H53V22.1216Z" fill="#F0F0F1"/>
<path d="M0.0108643 27.6012C0.116896 29.0586 1.37738 30.2138 2.90939 30.2052H50.0895C51.5928 30.2052 52.8355 29.0941 52.9851 27.676H0.0187919C0.015819 27.652 0.0138371 27.6271 0.0108643 27.6012Z" fill="#F0F0F1"/>
<path d="M1.29215 34.0335C1.24359 34.1448 1.16531 34.2235 1.0563 34.2677C0.947299 34.3127 0.80262 34.3348 0.622267 34.3348H0.23877V34.9374H1.19504V37.9031H2.01257V33.5797H1.36449C1.36449 33.7706 1.34071 33.9213 1.29215 34.0335Z" fill="#F0F0F1"/>
<path d="M5.74754 33.7591C5.47107 33.5749 5.14009 33.4818 4.75362 33.4818C4.36715 33.4818 4.04806 33.5739 3.76961 33.7591C3.49115 33.9443 3.27611 34.2053 3.12549 34.5449C2.97486 34.8836 2.89856 35.2847 2.89856 35.7471C2.89856 36.2096 2.97387 36.6097 3.12549 36.9465C3.27611 37.2833 3.49115 37.5433 3.76961 37.7256C4.04806 37.9079 4.37607 38 4.75362 38C5.13117 38 5.47008 37.9088 5.74754 37.7256C6.02402 37.5433 6.23806 37.2833 6.38869 36.9465C6.53931 36.6097 6.61462 36.2096 6.61462 35.7471C6.61462 35.2847 6.53931 34.8788 6.38869 34.5411C6.23806 34.2043 6.02402 33.9433 5.74754 33.7591ZM5.50872 36.9129C5.33233 37.1787 5.08063 37.312 4.75362 37.312C4.42661 37.312 4.18184 37.1787 4.00545 36.9129C3.82906 36.6471 3.74087 36.2585 3.74087 35.7471C3.74087 35.4065 3.78051 35.1177 3.86077 34.8826C3.94005 34.6476 4.05599 34.4701 4.20661 34.3501C4.35724 34.2302 4.53957 34.1707 4.75362 34.1707C4.96766 34.1707 5.1609 34.2302 5.31053 34.3501C5.45918 34.4701 5.57314 34.6476 5.6534 34.8826C5.73268 35.1177 5.77331 35.4065 5.77331 35.7471C5.77331 36.2585 5.68511 36.6471 5.50872 36.9129Z" fill="#F0F0F1"/>
<path d="M10.0681 33.7591C9.79162 33.5749 9.46065 33.4818 9.07418 33.4818C8.68771 33.4818 8.36862 33.5739 8.09016 33.7591C7.8117 33.9443 7.59667 34.2053 7.44604 34.5449C7.29542 34.8836 7.21912 35.2847 7.21912 35.7471C7.21912 36.2096 7.29443 36.6097 7.44604 36.9465C7.59667 37.2833 7.8117 37.5433 8.09016 37.7256C8.36862 37.9079 8.69662 38 9.07418 38C9.45173 38 9.79063 37.9088 10.0681 37.7256C10.3446 37.5433 10.5586 37.2833 10.7092 36.9465C10.8599 36.6097 10.9352 36.2096 10.9352 35.7471C10.9352 35.2847 10.8599 34.8788 10.7092 34.5411C10.5586 34.2043 10.3446 33.9433 10.0681 33.7591ZM9.82928 36.9129C9.65289 37.1787 9.40119 37.312 9.07418 37.312C8.74716 37.312 8.5024 37.1787 8.32601 36.9129C8.14962 36.6471 8.06142 36.2585 8.06142 35.7471C8.06142 35.4065 8.10106 35.1177 8.18133 34.8826C8.26061 34.6476 8.37655 34.4701 8.52717 34.3501C8.6778 34.2302 8.86013 34.1707 9.07418 34.1707C9.28822 34.1707 9.48146 34.2302 9.63109 34.3501C9.77973 34.4701 9.89369 34.6476 9.97396 34.8826C10.0532 35.1177 10.0939 35.4065 10.0939 35.7471C10.0939 36.2585 10.0057 36.6471 9.82928 36.9129Z" fill="#F0F0F1"/>
<path d="M15.1179 35.8076C14.8246 35.8076 14.5808 35.8968 14.3886 36.0753C14.1954 36.2538 14.0992 36.5215 14.0992 36.8793C14.0992 37.2372 14.1954 37.5049 14.3886 37.6834C14.5818 37.8619 14.8246 37.9511 15.1179 37.9511C15.4113 37.9511 15.659 37.8619 15.8473 37.6834C16.0356 37.5049 16.1307 37.2372 16.1307 36.8793C16.1307 36.5215 16.0366 36.2547 15.8473 36.0753C15.659 35.8968 15.4152 35.8076 15.1179 35.8076ZM15.4479 37.3514C15.3746 37.4589 15.2646 37.5126 15.1179 37.5126C14.9713 37.5126 14.8662 37.4589 14.7909 37.3514C14.7156 37.244 14.678 37.0866 14.678 36.8793C14.678 36.6721 14.7156 36.5148 14.7909 36.4073C14.8662 36.2998 14.9752 36.2461 15.1179 36.2461C15.2606 36.2461 15.3746 36.2998 15.4479 36.4073C15.5213 36.5148 15.5579 36.6721 15.5579 36.8793C15.5579 37.0866 15.5213 37.244 15.4479 37.3514Z" fill="#F0F0F1"/>
<path d="M15.0357 33.5797L12.0302 37.9021H12.5831L15.5896 33.5797H15.0357Z" fill="#F0F0F1"/>
<path d="M13.2342 35.4065C13.4244 35.2281 13.5205 34.9604 13.5205 34.6025C13.5205 34.2446 13.4254 33.9779 13.2342 33.7985C13.0429 33.62 12.7991 33.5308 12.5019 33.5308C12.2046 33.5308 11.9648 33.62 11.7725 33.7985C11.5793 33.9769 11.4832 34.2446 11.4832 34.6025C11.4832 34.9604 11.5793 35.2281 11.7725 35.4065C11.9657 35.585 12.2085 35.6742 12.5019 35.6742C12.7952 35.6742 13.0439 35.585 13.2342 35.4065ZM12.1748 35.0746C12.0995 34.9671 12.0619 34.8097 12.0619 34.6025C12.0619 34.3952 12.0995 34.2379 12.1748 34.1304C12.2502 34.023 12.3592 33.9692 12.5019 33.9692C12.6445 33.9692 12.7585 34.023 12.8318 34.1304C12.9052 34.2379 12.9418 34.3952 12.9418 34.6025C12.9418 34.8097 12.9052 34.9671 12.8318 35.0746C12.7585 35.182 12.6485 35.2357 12.5019 35.2357C12.3552 35.2357 12.2502 35.182 12.1748 35.0746Z" fill="#F0F0F1"/>
<path d="M21.035 36.3565C21.035 36.6606 20.9497 36.8966 20.7803 37.0626C20.6108 37.2296 20.37 37.3121 20.0599 37.3121C19.7497 37.3121 19.5109 37.2286 19.3434 37.0626C19.1759 36.8966 19.0917 36.6606 19.0917 36.3565V33.574H18.2742V36.3565C18.2742 36.6932 18.3465 36.9849 18.4912 37.2305C18.6359 37.4762 18.842 37.6661 19.1105 37.7995C19.3791 37.9338 19.6952 38 20.0599 38C20.4245 38 20.7416 37.9329 21.0092 37.7995C21.2777 37.6652 21.4848 37.4762 21.6315 37.2305C21.7782 36.9849 21.8515 36.6942 21.8515 36.3565V33.574H21.034V36.3565H21.035Z" fill="#F0F0F1"/>
<path d="M25.4753 35.7049C25.2405 35.5792 24.9243 35.4756 24.526 35.3941C24.2614 35.3336 24.0563 35.2751 23.9096 35.2204C23.7629 35.1657 23.6609 35.0995 23.6044 35.0227C23.5479 34.946 23.5192 34.8481 23.5192 34.7301C23.5192 34.5593 23.5876 34.4221 23.7233 34.3195C23.8591 34.2158 24.0454 34.164 24.2802 34.164C24.4685 34.164 24.629 34.1976 24.7608 34.2648C24.8926 34.3319 24.9977 34.424 25.075 34.542C25.1523 34.6601 25.2018 34.7982 25.2226 34.9565L26.0461 34.9201C26.0124 34.6399 25.9242 34.3924 25.7815 34.1774C25.6388 33.9625 25.4436 33.7927 25.1969 33.6689C24.9491 33.5452 24.6479 33.4828 24.2911 33.4828C23.9552 33.4828 23.6688 33.5365 23.43 33.644C23.1912 33.7514 23.0069 33.9021 22.877 34.0949C22.7472 34.2878 22.6818 34.5104 22.6818 34.7618C22.6818 34.9968 22.7324 35.1935 22.8324 35.349C22.9335 35.5054 23.0941 35.6349 23.317 35.7385C23.539 35.8421 23.8343 35.9342 24.2039 36.0158C24.5101 36.0849 24.741 36.1549 24.8956 36.2259C25.0502 36.2969 25.1552 36.3766 25.2097 36.4629C25.2642 36.5502 25.292 36.6491 25.292 36.7584C25.292 36.8803 25.2593 36.983 25.1949 37.0664C25.1295 37.1499 25.0353 37.2123 24.9115 37.2554C24.7876 37.2977 24.638 37.3197 24.4616 37.3197C24.2564 37.3197 24.081 37.2861 23.9364 37.219C23.7917 37.1518 23.6767 37.054 23.5905 36.9235C23.5043 36.7939 23.4488 36.6356 23.424 36.4485L22.5936 36.4975C22.6184 36.7978 22.7076 37.0607 22.8612 37.2861C23.0138 37.5116 23.2249 37.6872 23.4934 37.8129C23.762 37.9386 24.0801 38.0019 24.4497 38.0019C24.7896 38.0019 25.0849 37.9501 25.3366 37.8465C25.5883 37.7429 25.7835 37.5951 25.9212 37.4022C26.06 37.2094 26.1283 36.981 26.1283 36.7172C26.1283 36.5023 26.0778 36.3113 25.9777 36.1453C25.8766 35.9793 25.7092 35.8325 25.4743 35.7069L25.4753 35.7049Z" fill="#F0F0F1"/>
<path d="M27.9527 33.5797L26.3424 37.9031H27.1976L27.5682 36.8803H29.3351L29.7057 37.9031H30.5609L28.9506 33.5797H27.9507H27.9527ZM27.808 36.2039L28.4561 34.377L29.0973 36.2039H27.808Z" fill="#F0F0F1"/>
<path d="M35.0955 35.6675C35.2699 35.6522 35.4235 35.6128 35.5524 35.5466C35.701 35.4699 35.814 35.3634 35.8923 35.2271C35.9695 35.0909 36.0082 34.9316 36.0082 34.7493C36.0082 34.3435 35.8665 34.047 35.5841 33.8599C35.3007 33.6728 34.8874 33.5797 34.3424 33.5797H32.6697V37.9031H34.5693C35.0896 37.9031 35.4909 37.8043 35.7733 37.6076C36.0567 37.4109 36.1975 37.1135 36.1975 36.7153C36.1975 36.4025 36.0944 36.1521 35.8893 35.963C35.7 35.7894 35.4354 35.6915 35.0965 35.6675H35.0955ZM33.4862 34.2494H34.3166C34.5931 34.2494 34.8052 34.2964 34.9518 34.3895C35.0985 34.4826 35.1718 34.6265 35.1718 34.8213C35.1718 35.016 35.0965 35.1504 34.9459 35.2473C34.7953 35.3451 34.5852 35.3931 34.3166 35.3931H33.4862V34.2485V34.2494ZM35.1371 37.0808C34.9885 37.1825 34.7863 37.2334 34.5307 37.2334H33.4872V36.0158H34.5307C34.7903 36.0158 34.9935 36.0686 35.1411 36.1741C35.2878 36.2797 35.3611 36.4322 35.3611 36.6308C35.3611 36.8295 35.2868 36.9801 35.1381 37.0818L35.1371 37.0808Z" fill="#F0F0F1"/>
<path d="M38.0961 33.5797L36.4858 37.9031H37.341L37.7116 36.8803H39.4785L39.8491 37.9031H40.7043L39.094 33.5797H38.0942H38.0961ZM37.9515 36.2039L38.5995 34.377L39.2407 36.2039H37.9515Z" fill="#F0F0F1"/>
<path d="M43.8 35.7049C43.5652 35.5792 43.2491 35.4756 42.8507 35.3941C42.5861 35.3336 42.381 35.2751 42.2343 35.2204C42.0877 35.1657 41.9856 35.0995 41.9291 35.0227C41.8726 34.946 41.8439 34.8481 41.8439 34.7301C41.8439 34.5593 41.9123 34.4221 42.048 34.3195C42.1838 34.2158 42.3701 34.164 42.6049 34.164C42.7932 34.164 42.9537 34.1976 43.0855 34.2648C43.2173 34.3319 43.3224 34.424 43.3997 34.542C43.477 34.6601 43.5265 34.7982 43.5473 34.9565L44.3708 34.9201C44.3371 34.6399 44.2489 34.3924 44.1062 34.1774C43.9635 33.9625 43.7683 33.7927 43.5216 33.6689C43.2738 33.5452 42.9726 33.4828 42.6158 33.4828C42.2799 33.4828 41.9935 33.5365 41.7547 33.644C41.5159 33.7514 41.3316 33.9021 41.2017 34.0949C41.0719 34.2878 41.0065 34.5104 41.0065 34.7618C41.0065 34.9968 41.0571 35.1935 41.1572 35.349C41.2582 35.5054 41.4188 35.6349 41.6417 35.7385C41.8637 35.8421 42.159 35.9342 42.5286 36.0158C42.8348 36.0849 43.0657 36.1549 43.2203 36.2259C43.3749 36.2969 43.4799 36.3766 43.5344 36.4629C43.5889 36.5502 43.6167 36.6491 43.6167 36.7584C43.6167 36.8803 43.584 36.983 43.5196 37.0664C43.4542 37.1499 43.36 37.2123 43.2362 37.2554C43.1123 37.2977 42.9627 37.3197 42.7863 37.3197C42.5811 37.3197 42.4058 37.2861 42.2611 37.219C42.1164 37.1518 42.0014 37.054 41.9152 36.9235C41.829 36.7939 41.7735 36.6356 41.7487 36.4485L40.9183 36.4975C40.9431 36.7978 41.0323 37.0607 41.1859 37.2861C41.3385 37.5116 41.5496 37.6872 41.8181 37.8129C42.0867 37.9386 42.4048 38.0019 42.7744 38.0019C43.1143 38.0019 43.4096 37.9501 43.6613 37.8465C43.913 37.7429 44.1082 37.5951 44.2459 37.4022C44.3847 37.2094 44.4531 36.981 44.4531 36.7172C44.4531 36.5023 44.4025 36.3113 44.3024 36.1453C44.2014 35.9793 44.0339 35.8325 43.799 35.7069L43.8 35.7049Z" fill="#F0F0F1"/>
<path d="M46.0069 36.0763H48.1206V35.3941H46.0069V34.2677H48.1959V33.5797H45.1893V37.9021H48.2464V37.2142H46.0069V36.0763Z" fill="#F0F0F1"/>
<path d="M50.5097 33.5797H49.0253V37.9031H50.5474C51.247 37.9031 51.7861 37.716 52.1636 37.3428C52.5412 36.9695 52.7294 36.438 52.7294 35.7472C52.7294 35.0563 52.5372 34.5181 52.1537 34.1429C51.7702 33.7678 51.2222 33.5797 50.5097 33.5797ZM51.5472 36.8496C51.3213 37.0933 50.9755 37.2152 50.5097 37.2152H49.8428V34.2686H50.5097C50.9755 34.2686 51.3213 34.3905 51.5472 34.6342C51.7732 34.8779 51.8871 35.2492 51.8871 35.7481C51.8871 36.247 51.7742 36.6069 51.5472 36.8506V36.8496Z" fill="#F0F0F1"/>
</g>
<defs>
<clipPath id="clip0_960_263">
<rect width="53" height="38" fill="white"/>
</clipPath>
</defs>
</svg>
