<svg width="82" height="30" viewBox="0 0 82 30" fill="none" xmlns="http://www.w3.org/2000/svg">
<g clip-path="url(#clip0_960_336)">
<path d="M76.7192 0L71.996 11.3443H77.244L82 0H76.7192ZM70.4216 15.4098C70.3997 16.9727 71.6571 18.2623 73.2205 18.2842H73.2971C74.9589 18.2842 76.2928 16.9399 76.2928 15.2896C76.3147 13.7268 75.0683 12.4481 73.5048 12.4262H73.4173C71.7555 12.4262 70.4216 13.7705 70.4216 15.4317V15.4098ZM65.6656 11.8142C65.6656 10.4372 64.5504 9.31147 63.1619 9.31147C61.7733 9.31147 60.6581 10.4262 60.6581 11.8142C60.6581 13.2022 61.7733 14.3169 63.1619 14.3169C64.5504 14.3169 65.6656 13.2022 65.6656 11.8142ZM51.5179 11.8142C51.5179 10.4372 50.4027 9.31147 49.0141 9.31147C47.6256 9.31147 46.5104 10.4262 46.5104 11.8142C46.5104 13.2022 47.6256 14.3169 49.0141 14.3169C50.4027 14.3169 51.5179 13.2022 51.5179 11.8142ZM21.1669 14.3934C19.7456 14.3934 18.5867 13.235 18.5867 11.8142C18.5867 10.3934 19.7456 9.23497 21.1669 9.23497C22.5883 9.23497 23.7472 10.3934 23.7472 11.8142C23.7691 13.224 22.6429 14.3716 21.2325 14.3934H21.1669ZM0 5.55191L5.3464 18.1749L3.4112 22.7213H8.11253L15.2411 5.56284H10.5616L7.66427 12.9071L4.79973 5.56284H0V5.55191ZM55.7163 11.8251C55.7163 15.5191 52.7205 18.5246 49.0141 18.5246C45.3077 18.5246 42.312 15.5301 42.312 11.8251C42.312 8.12022 45.3077 5.12568 49.0141 5.12568C52.7205 5.12568 55.7163 8.12022 55.7163 11.8251C55.7163 11.8178 55.7163 11.8178 55.7163 11.8251ZM69.864 11.8251C69.864 15.5191 66.8683 18.5246 63.1619 18.5246C59.4555 18.5246 56.4597 15.5301 56.4597 11.8251C56.4597 8.12022 59.4555 5.12568 63.1619 5.12568C66.8683 5.12568 69.864 8.12022 69.864 11.8251C69.864 11.8178 69.864 11.8178 69.864 11.8251ZM29.3997 0V18.0656H33.8168V11.3989C33.8168 10.0984 34.4509 9.3224 35.4459 9.3224C36.4408 9.3224 36.9984 10 36.9984 11.2459V18.0656H41.4155V10.1967C41.4155 7.20219 39.7755 5.2459 37.1296 5.2459C35.8504 5.19126 34.6259 5.75956 33.8277 6.76503V0H29.3997ZM23.6488 5.55191V6.72131C22.796 5.74863 21.5605 5.21311 20.2704 5.25683C16.8483 5.25683 14.268 8.25136 14.268 11.8251C14.268 15.3989 16.7827 18.4044 20.2704 18.4044C21.5715 18.459 22.8179 17.9016 23.6488 16.9071V18.0765H27.9237V5.55191H23.6488Z" fill="#F0F0F1"/>
<path d="M45.9956 22.9945C46.6625 22.9726 47.2967 23.2459 47.734 23.7486C48.2041 24.4043 48.4228 25.2021 48.3572 25.9999V29.8142H45.9191V26.2622C45.9191 25.6721 45.6348 25.377 45.0991 25.377C44.8476 25.3661 44.5961 25.4644 44.4321 25.6612C44.2681 25.8797 44.1916 26.153 44.2025 26.4262V29.8251H41.7644V23.2131H44.2025V23.8469C44.618 23.2786 45.2959 22.9508 45.9956 22.9945Z" fill="#F0F0F1"/>
<path d="M51.5073 27.3333C51.7806 27.8033 52.3164 28.0656 52.8521 27.9891C53.2676 27.9891 53.6721 27.847 53.9892 27.5738L55.5854 28.918C54.842 29.6612 53.8142 30.0546 52.7646 29.9891C51.7588 30.0328 50.7857 29.6721 50.0422 28.9945C49.3753 28.3497 49.0145 27.4426 49.0364 26.5137C48.9817 24.623 50.4686 23.0492 52.3492 22.9945H52.5241C54.3718 22.9399 55.9134 24.3934 55.979 26.2404V26.4699C55.979 26.7541 55.9462 27.0492 55.8806 27.3333H51.5073ZM51.5073 25.7596H53.7268C53.6065 25.2568 53.1254 24.929 52.6225 24.9945C52.1086 24.9508 51.6385 25.2678 51.4745 25.7596H51.5073Z" fill="#F0F0F1"/>
<path d="M64.0578 23.2022H66.6381L64.7248 29.8142H62.2429L61.4229 26.6995L60.6029 29.8142H58.121L56.1968 23.2022H58.777L59.5424 26.8634L60.5482 23.2022H62.396L63.4018 26.8634L64.0578 23.2022Z" fill="#F0F0F1"/>
<path d="M69.4052 25.1475C69.4052 25.2568 69.4817 25.3333 69.6567 25.3989C69.8535 25.4645 70.0612 25.5191 70.2689 25.541C70.5423 25.5738 70.8047 25.6393 71.0561 25.7158C71.3295 25.8033 71.6028 25.9126 71.8543 26.0437C72.1167 26.1858 72.3244 26.4044 72.4665 26.6776C72.8273 27.3443 72.8273 28.153 72.4665 28.8197C72.2916 29.1257 72.0292 29.377 71.7121 29.541C71.4169 29.694 71.0999 29.8142 70.7719 29.8907C70.4439 29.9672 70.1049 30 69.766 30C68.1807 30 67.142 29.4754 66.6719 28.4262L68.8039 27.4754C68.9241 27.8907 69.3068 28.1749 69.7441 28.1421C70.0393 28.1421 70.1815 28.0437 70.1815 27.847C70.1815 27.6503 70.0721 27.6393 69.8535 27.5628L68.9897 27.3443C68.6727 27.2678 68.3556 27.1694 68.0604 27.0382C67.7433 26.9071 67.4591 26.6776 67.2623 26.4044C67.0545 26.0656 66.9671 25.6721 66.9889 25.2896C66.9561 24.6229 67.2732 23.9891 67.8199 23.6066C68.3775 23.2022 69.0444 22.9945 69.7332 23.0055C70.9577 22.8743 72.1167 23.5519 72.5868 24.6885L70.586 25.4208C70.4876 25.0929 70.1924 24.8634 69.8425 24.8634C69.5364 24.8634 69.4052 24.9945 69.4052 25.1475Z" fill="#F0F0F1"/>
</g>
<defs>
<clipPath id="clip0_960_336">
<rect width="82" height="30" fill="white"/>
</clipPath>
</defs>
</svg>
