<svg width="136" height="111" viewBox="0 0 136 111" fill="none" xmlns="http://www.w3.org/2000/svg">
<g clip-path="url(#clip0_1039_1806)">
<path d="M8.8418 0.5H113.158C117.811 0.500041 121.5 3.91926 121.5 8.03906V69.9609C121.5 74.0807 117.811 77.5 113.158 77.5H8.8418C4.18888 77.5 0.5 74.0807 0.5 69.9609V8.03906C0.5 3.91926 4.18888 0.50004 8.8418 0.5Z" fill="url(#paint0_linear_1039_1806)" stroke="url(#paint1_linear_1039_1806)" stroke-miterlimit="10"/>
<path d="M8.26172 0.5H105.738C110.038 0.500192 113.5 3.88844 113.5 8.03906V69.9609C113.5 74.1116 110.038 77.4998 105.738 77.5H8.26172C3.96201 77.4998 0.5 74.1116 0.5 69.9609V8.03906C0.5 4.01809 3.7491 0.712502 7.86133 0.509766L8.26172 0.5Z" fill="url(#paint2_linear_1039_1806)" stroke="url(#paint3_linear_1039_1806)" stroke-miterlimit="10"/>
<g clip-path="url(#clip1_1039_1806)">
<path d="M60.2017 35.379C60.2017 26.8336 67.2747 19.9062 75.9997 19.9062C84.7248 19.9062 91.7978 26.8336 91.7978 35.379" fill="url(#paint4_linear_1039_1806)"/>
<path d="M60.2017 35.379C60.2017 26.8336 67.2747 19.9062 75.9997 19.9062C84.7248 19.9062 91.7978 26.8336 91.7978 35.379" stroke="url(#paint5_linear_1039_1806)" stroke-miterlimit="10"/>
<path d="M56.3643 19.9062H95.6354" stroke="url(#paint6_linear_1039_1806)" stroke-miterlimit="10"/>
<path d="M91.7895 38.3685C93.8823 38.3685 95.5789 36.6719 95.5789 34.579C95.5789 32.4862 93.8823 30.7896 91.7895 30.7896C89.6966 30.7896 88 32.4862 88 34.579C88 36.6719 89.6966 38.3685 91.7895 38.3685Z" fill="url(#paint7_linear_1039_1806)" stroke="url(#paint8_linear_1039_1806)" stroke-miterlimit="10"/>
<path d="M60.2104 38.3685C62.3032 38.3685 63.9998 36.6719 63.9998 34.579C63.9998 32.4862 62.3032 30.7896 60.2104 30.7896C58.1175 30.7896 56.4209 32.4862 56.4209 34.579C56.4209 36.6719 58.1175 38.3685 60.2104 38.3685Z" fill="url(#paint9_linear_1039_1806)" stroke="url(#paint10_linear_1039_1806)" stroke-miterlimit="10"/>
<path d="M76.6313 23.8421C78.7241 23.8421 80.4207 22.1455 80.4207 20.0527C80.4207 17.9598 78.7241 16.2632 76.6313 16.2632C74.5384 16.2632 72.8418 17.9598 72.8418 20.0527C72.8418 22.1455 74.5384 23.8421 76.6313 23.8421Z" fill="url(#paint11_linear_1039_1806)" stroke="url(#paint12_linear_1039_1806)" stroke-miterlimit="10"/>
<path d="M59.1952 15.0327H53.5337C52.7053 15.0327 52.0337 15.7043 52.0337 16.5327V22.0159C52.0337 22.8443 52.7053 23.5159 53.5337 23.5159H59.1952C60.0236 23.5159 60.6952 22.8443 60.6952 22.0159V16.5327C60.6952 15.7043 60.0236 15.0327 59.1952 15.0327Z" fill="url(#paint13_linear_1039_1806)" stroke="url(#paint14_linear_1039_1806)" stroke-miterlimit="10"/>
<path d="M98.4662 15.0327H92.8047C91.9763 15.0327 91.3047 15.7043 91.3047 16.5327V22.0159C91.3047 22.8443 91.9763 23.5159 92.8047 23.5159H98.4662C99.2946 23.5159 99.9662 22.8443 99.9662 22.0159V16.5327C99.9662 15.7043 99.2946 15.0327 98.4662 15.0327Z" fill="url(#paint15_linear_1039_1806)" stroke="url(#paint16_linear_1039_1806)" stroke-miterlimit="10"/>
</g>
<path d="M37.0205 51.9336C37.4265 51.0123 38.4911 50.578 39.4219 50.9795C40.2966 51.3568 40.7246 52.3299 40.4404 53.2246L40.374 53.4023C38.2369 58.3278 33.3782 61.5 28 61.5C24.6472 61.5 21.4752 60.2628 19.0459 58.1035L18.6914 57.7881L18.3574 58.126L16.5166 59.9902C16.173 60.3338 15.6697 60.4326 15.2275 60.2578C14.7893 60.0515 14.5 59.6171 14.5 59.1533V52.0137C14.5 51.3566 15.0226 50.8342 15.6797 50.834H22.8203C23.2821 50.8341 23.7146 51.1205 23.9219 51.5557C24.0996 51.9992 24.0012 52.5046 23.6562 52.8496L21.6963 54.8096L21.3115 55.1953L21.7275 55.5459C23.4497 56.9974 25.6636 57.834 28 57.834C31.9086 57.834 35.4475 55.522 37.0205 51.9336Z" fill="url(#paint17_linear_1039_1806)" stroke="url(#paint18_linear_1039_1806)" stroke-miterlimit="10"/>
<path d="M27.9995 34.5C31.3526 34.5 34.5264 35.7374 36.9565 37.875L37.3081 38.1855L39.4839 36.0098C39.8306 35.6634 40.3398 35.5649 40.7847 35.7461C41.2144 35.9212 41.4995 36.36 41.4995 36.8467V43.9863C41.4995 44.6435 40.977 45.167 40.3198 45.167H33.1802C32.7105 45.167 32.2809 44.8727 32.1001 44.4453L32.0972 44.4365L32.0396 44.2734C31.9517 43.9407 32.0239 43.577 32.2349 43.2822L32.3521 43.1416L34.3032 41.1904L34.689 40.8057L34.272 40.4541C32.5499 39.0027 30.3358 38.167 27.9995 38.167C24.0913 38.1672 20.5521 40.4774 18.979 44.0654C18.5733 44.9873 17.5086 45.4221 16.5776 45.0205C15.6366 44.5911 15.2258 43.5078 15.6245 42.6016V42.6006C17.7849 37.6723 22.6452 34.5002 27.9995 34.5Z" fill="url(#paint19_linear_1039_1806)" stroke="url(#paint20_linear_1039_1806)" stroke-miterlimit="10"/>
<path d="M12.5586 8.5C14.4341 8.5 15.9551 10.0195 15.9551 11.8945C15.955 13.7695 14.4341 15.2891 12.5586 15.2891C10.6832 15.289 9.1622 13.7694 9.16211 11.8945C9.16211 10.0196 10.6831 8.50009 12.5586 8.5Z" fill="url(#paint21_linear_1039_1806)" stroke="url(#paint22_linear_1039_1806)" stroke-miterlimit="10"/>
<path d="M21.8965 8.5C23.772 8.5 25.293 10.0195 25.293 11.8945C25.2929 13.7695 23.772 15.2891 21.8965 15.2891C20.0211 15.289 18.5001 13.7694 18.5 11.8945C18.5 10.0196 20.021 8.50009 21.8965 8.5Z" fill="url(#paint23_linear_1039_1806)" stroke="url(#paint24_linear_1039_1806)" stroke-miterlimit="10"/>
<path d="M31.8965 8.5C33.772 8.5 35.293 10.0195 35.293 11.8945C35.2929 13.7695 33.772 15.2891 31.8965 15.2891C30.0211 15.289 28.5001 13.7694 28.5 11.8945C28.5 10.0196 30.021 8.50009 31.8965 8.5Z" fill="url(#paint25_linear_1039_1806)" stroke="url(#paint26_linear_1039_1806)" stroke-miterlimit="10"/>
<circle cx="93" cy="67" r="30" fill="url(#paint27_linear_1039_1806)" stroke="url(#paint28_linear_1039_1806)" stroke-miterlimit="10"/>
<path d="M89.1185 65.3156C89.9172 65.1605 90.6986 64.8508 91.4135 64.3864C93.6601 62.9329 94.7819 60.2985 94.2661 57.6736L92.0973 46.583L86.7823 47.6254L88.9511 58.7159C89.1559 59.7704 89.7366 60.713 90.5819 61.3748L91.1565 61.8256C91.4023 62.1687 90.9748 62.5875 90.635 62.3393L86.0938 58.9961L86.0753 58.9836L78.0125 53.2778L74.88 57.698L84.118 64.2358C85.607 65.2911 87.4087 65.6519 89.1189 65.3153L89.1185 65.3156Z" fill="url(#paint29_linear_1039_1806)" stroke="url(#paint30_linear_1039_1806)" stroke-miterlimit="10"/>
<path d="M100.009 64.5676L99.5578 65.1423C99.2144 65.3883 98.7958 64.9612 99.0444 64.6213L102.392 60.0791L102.404 60.0605L108.118 51.9961L103.699 48.8677L97.152 58.1077C96.0953 59.597 95.733 61.3984 96.0685 63.1079C96.2231 63.9062 96.5323 64.6872 96.9963 65.4015C98.4487 67.6464 101.083 68.7658 103.709 68.2483L114.805 66.0721L113.766 60.7595L102.67 62.9357C101.615 63.1412 100.672 63.7224 100.009 64.568L100.009 64.5676Z" fill="url(#paint31_linear_1039_1806)" stroke="url(#paint32_linear_1039_1806)" stroke-miterlimit="10"/>
<path d="M91.3382 72.2933C91.1846 71.4948 90.8768 70.7135 90.4141 69.9984C88.9652 67.7511 86.3323 66.6278 83.7054 67.1408L72.6066 69.3L73.6372 74.614L84.7361 72.4549C85.7914 72.2508 86.7354 71.6714 87.3996 70.8265L87.8519 70.2523C88.1958 70.0071 88.6134 70.4343 88.3648 70.7742L85.0105 75.3113L84.9979 75.3299L79.2724 83.3854L83.6868 86.521L90.2476 77.2913C91.3063 75.8035 91.6715 74.003 91.339 72.2928L91.3382 72.2933Z" fill="url(#paint33_linear_1039_1806)" stroke="url(#paint34_linear_1039_1806)" stroke-miterlimit="10"/>
<path fill-rule="evenodd" clip-rule="evenodd" d="M98 73L134 80.2L123.2 87.4L134 98.2L123.2 109L112.4 98.2L105.2 109L98 73Z" fill="url(#paint35_linear_1039_1806)" stroke="url(#paint36_linear_1039_1806)" stroke-miterlimit="10"/>
</g>
<defs>
<linearGradient id="paint0_linear_1039_1806" x1="37.6874" y1="7.74393" x2="85.1275" y2="84.6918" gradientUnits="userSpaceOnUse">
<stop stop-color="#222227"/>
<stop offset="0.73" stop-color="#121214" stop-opacity="0"/>
<stop offset="1" stop-color="#121214" stop-opacity="0"/>
</linearGradient>
<linearGradient id="paint1_linear_1039_1806" x1="31.0351" y1="-9" x2="89.3469" y2="93.9901" gradientUnits="userSpaceOnUse">
<stop stop-color="#C0C0CA"/>
<stop offset="1" stop-opacity="0"/>
</linearGradient>
<linearGradient id="paint2_linear_1039_1806" x1="35.2161" y1="7.74393" x2="84.0322" y2="81.7315" gradientUnits="userSpaceOnUse">
<stop stop-color="#222227"/>
<stop offset="0.73" stop-color="#121214" stop-opacity="0"/>
<stop offset="1" stop-color="#121214" stop-opacity="0"/>
</linearGradient>
<linearGradient id="paint3_linear_1039_1806" x1="29" y1="-9" x2="89.2781" y2="90.4818" gradientUnits="userSpaceOnUse">
<stop stop-color="#C0C0CA"/>
<stop offset="1" stop-opacity="0"/>
</linearGradient>
<linearGradient id="paint4_linear_1039_1806" x1="70.255" y1="20.7206" x2="70.1395" y2="49.2285" gradientUnits="userSpaceOnUse">
<stop offset="0.0384615" stop-color="#222227"/>
<stop offset="0.418269" stop-color="#121214" stop-opacity="0"/>
<stop offset="0.8125" stop-color="#121214" stop-opacity="0"/>
</linearGradient>
<linearGradient id="paint5_linear_1039_1806" x1="64.5102" y1="19.9062" x2="64.5102" y2="30.4929" gradientUnits="userSpaceOnUse">
<stop stop-color="#94949B"/>
<stop offset="0.817308" stop-color="#94949B" stop-opacity="0"/>
</linearGradient>
<linearGradient id="paint6_linear_1039_1806" x1="61.7194" y1="19.9062" x2="61.7194" y2="20.5905" gradientUnits="userSpaceOnUse">
<stop stop-color="#94949B"/>
<stop offset="0.817308" stop-color="#94949B" stop-opacity="0"/>
</linearGradient>
<linearGradient id="paint7_linear_1039_1806" x1="93.3684" y1="30.7896" x2="89.3629" y2="41.358" gradientUnits="userSpaceOnUse">
<stop stop-color="#FF5F1F"/>
<stop offset="0.65" stop-color="#531F0A"/>
<stop offset="1" stop-color="#222227"/>
</linearGradient>
<linearGradient id="paint8_linear_1039_1806" x1="91.2367" y1="30.61" x2="91.5304" y2="47.6556" gradientUnits="userSpaceOnUse">
<stop stop-color="#FF9255"/>
<stop offset="0.44" stop-color="#531F0A" stop-opacity="0"/>
<stop offset="1" stop-opacity="0"/>
</linearGradient>
<linearGradient id="paint9_linear_1039_1806" x1="61.7893" y1="30.7896" x2="57.7838" y2="41.358" gradientUnits="userSpaceOnUse">
<stop stop-color="#FF5F1F"/>
<stop offset="0.65" stop-color="#531F0A"/>
<stop offset="1" stop-color="#222227"/>
</linearGradient>
<linearGradient id="paint10_linear_1039_1806" x1="59.6576" y1="30.61" x2="59.9513" y2="47.6556" gradientUnits="userSpaceOnUse">
<stop stop-color="#FF9255"/>
<stop offset="0.44" stop-color="#531F0A" stop-opacity="0"/>
<stop offset="1" stop-opacity="0"/>
</linearGradient>
<linearGradient id="paint11_linear_1039_1806" x1="78.2102" y1="16.2632" x2="74.2047" y2="26.8316" gradientUnits="userSpaceOnUse">
<stop stop-color="#FF5F1F"/>
<stop offset="0.65" stop-color="#531F0A"/>
<stop offset="1" stop-color="#222227"/>
</linearGradient>
<linearGradient id="paint12_linear_1039_1806" x1="76.0785" y1="16.0836" x2="76.3722" y2="33.1292" gradientUnits="userSpaceOnUse">
<stop stop-color="#FF9255"/>
<stop offset="0.44" stop-color="#531F0A" stop-opacity="0"/>
<stop offset="1" stop-opacity="0"/>
</linearGradient>
<linearGradient id="paint13_linear_1039_1806" x1="58.1689" y1="15.0327" x2="53.7553" y2="26.9228" gradientUnits="userSpaceOnUse">
<stop stop-color="#FF5F1F"/>
<stop offset="0.65" stop-color="#531F0A"/>
<stop offset="1" stop-color="#222227"/>
</linearGradient>
<linearGradient id="paint14_linear_1039_1806" x1="55.7327" y1="14.8317" x2="56.0547" y2="33.9112" gradientUnits="userSpaceOnUse">
<stop stop-color="#FF9255"/>
<stop offset="0.44" stop-color="#531F0A" stop-opacity="0"/>
<stop offset="1" stop-opacity="0"/>
</linearGradient>
<linearGradient id="paint15_linear_1039_1806" x1="97.4399" y1="15.0327" x2="93.0262" y2="26.9228" gradientUnits="userSpaceOnUse">
<stop stop-color="#FF5F1F"/>
<stop offset="0.65" stop-color="#531F0A"/>
<stop offset="1" stop-color="#222227"/>
</linearGradient>
<linearGradient id="paint16_linear_1039_1806" x1="95.0037" y1="14.8317" x2="95.3257" y2="33.9112" gradientUnits="userSpaceOnUse">
<stop stop-color="#FF9255"/>
<stop offset="0.44" stop-color="#531F0A" stop-opacity="0"/>
<stop offset="1" stop-opacity="0"/>
</linearGradient>
<linearGradient id="paint17_linear_1039_1806" x1="22.3492" y1="51.4878" x2="27.9881" y2="65.0297" gradientUnits="userSpaceOnUse">
<stop stop-color="#222227"/>
<stop offset="0.73" stop-color="#121214" stop-opacity="0"/>
<stop offset="1" stop-color="#121214" stop-opacity="0"/>
</linearGradient>
<linearGradient id="paint18_linear_1039_1806" x1="20.8755" y1="48.9824" x2="27.6648" y2="66.7366" gradientUnits="userSpaceOnUse">
<stop stop-color="#C0C0CA"/>
<stop offset="1" stop-opacity="0"/>
</linearGradient>
<linearGradient id="paint19_linear_1039_1806" x1="23.3214" y1="35.1587" x2="28.9603" y2="48.7006" gradientUnits="userSpaceOnUse">
<stop stop-color="#222227"/>
<stop offset="0.73" stop-color="#121214" stop-opacity="0"/>
<stop offset="1" stop-color="#121214" stop-opacity="0"/>
</linearGradient>
<linearGradient id="paint20_linear_1039_1806" x1="24" y1="33" x2="32.2434" y2="58.7619" gradientUnits="userSpaceOnUse">
<stop stop-color="#C0C0CA"/>
<stop offset="1" stop-opacity="0"/>
</linearGradient>
<linearGradient id="paint21_linear_1039_1806" x1="11.4517" y1="9.57471" x2="15.3897" y2="13.6616" gradientUnits="userSpaceOnUse">
<stop stop-color="#222227"/>
<stop offset="0.73" stop-color="#121214" stop-opacity="0"/>
<stop offset="1" stop-color="#121214" stop-opacity="0"/>
</linearGradient>
<linearGradient id="paint22_linear_1039_1806" x1="11.1358" y1="8.33207" x2="16.1451" y2="13.9931" gradientUnits="userSpaceOnUse">
<stop stop-color="#C0C0CA"/>
<stop offset="1" stop-opacity="0"/>
</linearGradient>
<linearGradient id="paint23_linear_1039_1806" x1="20.7896" y1="9.57471" x2="24.7275" y2="13.6616" gradientUnits="userSpaceOnUse">
<stop stop-color="#222227"/>
<stop offset="0.73" stop-color="#121214" stop-opacity="0"/>
<stop offset="1" stop-color="#121214" stop-opacity="0"/>
</linearGradient>
<linearGradient id="paint24_linear_1039_1806" x1="20.4737" y1="8.33207" x2="25.483" y2="13.9931" gradientUnits="userSpaceOnUse">
<stop stop-color="#C0C0CA"/>
<stop offset="1" stop-opacity="0"/>
</linearGradient>
<linearGradient id="paint25_linear_1039_1806" x1="30.7896" y1="9.57471" x2="34.7275" y2="13.6616" gradientUnits="userSpaceOnUse">
<stop stop-color="#222227"/>
<stop offset="0.73" stop-color="#121214" stop-opacity="0"/>
<stop offset="1" stop-color="#121214" stop-opacity="0"/>
</linearGradient>
<linearGradient id="paint26_linear_1039_1806" x1="30.4737" y1="8.33207" x2="35.483" y2="13.9931" gradientUnits="userSpaceOnUse">
<stop stop-color="#C0C0CA"/>
<stop offset="1" stop-opacity="0"/>
</linearGradient>
<linearGradient id="paint27_linear_1039_1806" x1="75.7058" y1="84.8795" x2="145.343" y2="29.8598" gradientUnits="userSpaceOnUse">
<stop stop-color="#222227"/>
<stop offset="0.73" stop-color="#121214" stop-opacity="0"/>
<stop offset="1" stop-color="#121214" stop-opacity="0"/>
</linearGradient>
<linearGradient id="paint28_linear_1039_1806" x1="71.743" y1="42.8128" x2="125.984" y2="93.3325" gradientUnits="userSpaceOnUse">
<stop stop-color="#94949B"/>
<stop offset="1" stop-color="#94949B" stop-opacity="0"/>
</linearGradient>
<linearGradient id="paint29_linear_1039_1806" x1="82.3473" y1="40.559" x2="78.4572" y2="108.648" gradientUnits="userSpaceOnUse">
<stop stop-color="#FF5F1F"/>
<stop offset="0.65" stop-color="#531F0A" stop-opacity="0"/>
<stop offset="1" stop-opacity="0"/>
</linearGradient>
<linearGradient id="paint30_linear_1039_1806" x1="79.5633" y1="52.6213" x2="110.176" y2="92.3089" gradientUnits="userSpaceOnUse">
<stop stop-color="#FF9255"/>
<stop offset="0.317308" stop-color="#531F0A" stop-opacity="0"/>
<stop offset="1" stop-opacity="0"/>
</linearGradient>
<linearGradient id="paint31_linear_1039_1806" x1="96.3521" y1="42.6513" x2="103.001" y2="112.128" gradientUnits="userSpaceOnUse">
<stop stop-color="#FF5F1F"/>
<stop offset="0.65" stop-color="#531F0A" stop-opacity="0"/>
<stop offset="1" stop-opacity="0"/>
</linearGradient>
<linearGradient id="paint32_linear_1039_1806" x1="96.759" y1="53.1909" x2="118.38" y2="67.6319" gradientUnits="userSpaceOnUse">
<stop offset="0.110577" stop-color="#FF9255"/>
<stop offset="0.423077" stop-color="#531F0A" stop-opacity="0"/>
<stop offset="1" stop-opacity="0"/>
</linearGradient>
<linearGradient id="paint33_linear_1039_1806" x1="81.1708" y1="84.5752" x2="85.7285" y2="14.6748" gradientUnits="userSpaceOnUse">
<stop stop-color="#FF5F1F"/>
<stop offset="0.65" stop-color="#531F0A" stop-opacity="0"/>
<stop offset="1" stop-opacity="0"/>
</linearGradient>
<linearGradient id="paint34_linear_1039_1806" x1="72.6154" y1="69.256" x2="92.0046" y2="98.3946" gradientUnits="userSpaceOnUse">
<stop offset="0.105769" stop-color="#FF9255"/>
<stop offset="0.504808" stop-color="#531F0A" stop-opacity="0"/>
<stop offset="1" stop-opacity="0"/>
</linearGradient>
<linearGradient id="paint35_linear_1039_1806" x1="98" y1="73" x2="133.93" y2="109.069" gradientUnits="userSpaceOnUse">
<stop offset="0.0480769" stop-color="#222227"/>
<stop offset="0.533654" stop-color="#121214"/>
<stop offset="1" stop-color="#121214"/>
</linearGradient>
<linearGradient id="paint36_linear_1039_1806" x1="151.5" y1="130.5" x2="100.51" y2="78.3705" gradientUnits="userSpaceOnUse">
<stop stop-opacity="0"/>
<stop offset="1" stop-color="#94949B"/>
</linearGradient>
<clipPath id="clip0_1039_1806">
<rect width="136" height="111" fill="white"/>
</clipPath>
<clipPath id="clip1_1039_1806">
<rect width="50" height="25" fill="white" transform="translate(51 14)"/>
</clipPath>
</defs>
</svg>
