<svg width="136" height="111" viewBox="0 0 136 111" fill="none" xmlns="http://www.w3.org/2000/svg">
<g clip-path="url(#clip0_1039_1927)">
<g clip-path="url(#clip1_1039_1927)">
<path d="M9.8418 1.5H114.158C118.811 1.50004 122.5 4.91926 122.5 9.03906V70.9609C122.5 75.0807 118.811 78.5 114.158 78.5H9.8418C5.18888 78.5 1.5 75.0807 1.5 70.9609V9.03906C1.5 4.91926 5.18888 1.50004 9.8418 1.5Z" fill="url(#paint0_linear_1039_1927)" stroke="url(#paint1_linear_1039_1927)" stroke-miterlimit="10"/>
<path d="M9.26172 1.5H106.738C111.038 1.50019 114.5 4.88844 114.5 9.03906V70.9609C114.5 75.1116 111.038 78.4998 106.738 78.5H9.26172C4.96201 78.4998 1.5 75.1116 1.5 70.9609V9.03906C1.5 5.01809 4.7491 1.7125 8.86133 1.50977L9.26172 1.5Z" fill="url(#paint2_linear_1039_1927)" stroke="url(#paint3_linear_1039_1927)" stroke-miterlimit="10"/>
<path d="M14 13C14 11.3431 15.3431 10 17 10H99C100.657 10 102 11.3431 102 13V38C102 39.6569 100.657 41 99 41H17C15.3431 41 14 39.6569 14 38V13Z" stroke="url(#paint4_linear_1039_1927)" stroke-miterlimit="10"/>
<path d="M14 52C14 50.3431 15.3431 49 17 49H35C36.6569 49 38 50.3431 38 52V59C38 60.6569 36.6569 62 35 62H17C15.3431 62 14 60.6569 14 59V52Z" stroke="url(#paint5_linear_1039_1927)" stroke-miterlimit="10"/>
<path d="M46 52C46 50.3431 47.3431 49 49 49H67C68.6569 49 70 50.3431 70 52V59C70 60.6569 68.6569 62 67 62H49C47.3431 62 46 60.6569 46 59V52Z" stroke="url(#paint6_linear_1039_1927)" stroke-miterlimit="10"/>
<path d="M78 52C78 50.3431 79.3431 49 81 49H99C100.657 49 102 50.3431 102 52V59C102 60.6569 100.657 62 99 62H81C79.3431 62 78 60.6569 78 59V52Z" stroke="url(#paint7_linear_1039_1927)" stroke-miterlimit="10"/>
<rect x="46" y="28" width="24" height="7" rx="1" fill="url(#paint8_linear_1039_1927)" stroke="url(#paint9_linear_1039_1927)" stroke-miterlimit="10"/>
<path d="M77.5 80.1055H49.5C48.6716 80.1055 48 80.777 48 81.6055V103.605C48 104.434 48.6716 105.105 49.5 105.105H77.5C78.3284 105.105 79 104.434 79 103.605V81.6055C79 80.777 78.3284 80.1055 77.5 80.1055Z" fill="url(#paint10_linear_1039_1927)" stroke="url(#paint11_linear_1039_1927)" stroke-miterlimit="10"/>
<path d="M73.5 104.5H37.5C36.6716 104.5 36 105.172 36 106V109.5C36 110.328 36.6716 111 37.5 111H73.5C74.3284 111 75 110.328 75 109.5V106C75 105.172 74.3284 104.5 73.5 104.5Z" fill="url(#paint12_linear_1039_1927)" stroke="url(#paint13_linear_1039_1927)" stroke-miterlimit="10"/>
<path d="M78.0772 79.9998V103.106C78.0772 103.934 77.4056 104.606 76.5772 104.606H72.5C71.6716 104.606 71 105.278 71 106.106V109.5C71 110.328 71.6716 111 72.5 111H78.0772H81C82.6569 111 84 109.657 84 108V104.606V79.9998H78.0772Z" fill="url(#paint14_linear_1039_1927)" stroke="url(#paint15_linear_1039_1927)" stroke-miterlimit="10"/>
<g clip-path="url(#clip2_1039_1927)">
<path d="M69.3613 54.501H132.664C134.297 54.5212 135.119 56.5154 133.951 57.6885L110.02 81.7285C109.484 82.2664 109.184 82.9955 109.184 83.7549V108.569C109.184 109.983 107.723 110.912 106.456 110.316L95.4795 105.159C93.856 104.397 92.8165 102.758 92.8164 100.954V83.7559C92.8164 82.9958 92.5159 82.2675 91.9805 81.7295L68.0488 57.6885C66.8754 56.5093 67.7118 54.501 69.3613 54.501Z" fill="url(#paint16_linear_1039_1927)" stroke="url(#paint17_linear_1039_1927)" stroke-miterlimit="10"/>
<path d="M99.0811 40.5086C99.6618 40.7509 100.298 40.8863 100.957 40.8936C103.026 40.9202 104.877 39.7047 105.669 37.7936L109.025 29.7239L105.156 28.1179L101.801 36.1876C101.481 36.9543 101.451 37.81 101.712 38.5982L101.888 39.1347C101.9 39.4609 101.445 39.5474 101.333 39.242L99.8411 35.144L99.8345 35.1279L97.0878 28L93.1772 29.5038L96.3242 37.671C96.8307 38.9883 97.8362 39.9926 99.0815 40.5086H99.0811Z" fill="url(#paint18_linear_1039_1927)" stroke="url(#paint19_linear_1039_1927)" stroke-miterlimit="10"/>
<path d="M106.413 44.6927L105.876 44.8694C105.55 44.8807 105.463 44.4264 105.769 44.314L109.87 42.8237L109.886 42.8171L117.02 40.0726L115.515 36.165L107.341 39.3095C106.023 39.8157 105.018 40.8203 104.501 42.0646C104.259 42.6448 104.123 43.2802 104.116 43.9388C104.089 46.0064 105.306 47.8558 107.219 48.6477L115.295 52.0002L116.902 48.1346L108.826 44.7822C108.059 44.4625 107.202 44.4326 106.413 44.6931V44.6927Z" fill="url(#paint20_linear_1039_1927)" stroke="url(#paint21_linear_1039_1927)" stroke-miterlimit="10"/>
<path d="M97.5206 45.9514C97.7639 45.3715 97.9005 44.7366 97.9089 44.0779C97.9388 42.0103 96.7249 40.1591 94.8138 39.3639L86.7428 35.999L85.1296 39.862L93.2006 43.2269C93.9676 43.5477 94.8236 43.579 95.6132 43.3196L96.1504 43.1437C96.4769 43.1331 96.5627 43.5871 96.257 43.6995L92.1536 45.1836L92.1375 45.1902L85 47.9237L86.4988 51.8338L94.6772 48.7021C95.9963 48.1978 97.0028 47.195 97.5214 45.9514H97.5206Z" fill="url(#paint22_linear_1039_1927)" stroke="url(#paint23_linear_1039_1927)" stroke-miterlimit="10"/>
</g>
</g>
</g>
<defs>
<linearGradient id="paint0_linear_1039_1927" x1="38.6874" y1="8.74393" x2="86.1275" y2="85.6918" gradientUnits="userSpaceOnUse">
<stop stop-color="#222227"/>
<stop offset="0.73" stop-color="#121214" stop-opacity="0"/>
<stop offset="1" stop-color="#121214" stop-opacity="0"/>
</linearGradient>
<linearGradient id="paint1_linear_1039_1927" x1="32.0351" y1="-8" x2="90.3469" y2="94.9901" gradientUnits="userSpaceOnUse">
<stop stop-color="#C0C0CA"/>
<stop offset="1" stop-opacity="0"/>
</linearGradient>
<linearGradient id="paint2_linear_1039_1927" x1="36.2161" y1="8.74393" x2="85.0322" y2="82.7315" gradientUnits="userSpaceOnUse">
<stop stop-color="#222227"/>
<stop offset="0.73" stop-color="#121214" stop-opacity="0"/>
<stop offset="1" stop-color="#121214" stop-opacity="0"/>
</linearGradient>
<linearGradient id="paint3_linear_1039_1927" x1="30" y1="-8" x2="90.2781" y2="91.4818" gradientUnits="userSpaceOnUse">
<stop stop-color="#C0C0CA"/>
<stop offset="1" stop-opacity="0"/>
</linearGradient>
<linearGradient id="paint4_linear_1039_1927" x1="113.917" y1="81" x2="-20.1303" y2="26.414" gradientUnits="userSpaceOnUse">
<stop stop-color="#121214" stop-opacity="0"/>
<stop offset="1" stop-color="#94949B"/>
</linearGradient>
<linearGradient id="paint5_linear_1039_1927" x1="30.9091" y1="68.1905" x2="22.7082" y2="33.4559" gradientUnits="userSpaceOnUse">
<stop stop-color="#121214" stop-opacity="0"/>
<stop offset="1" stop-color="#94949B"/>
</linearGradient>
<linearGradient id="paint6_linear_1039_1927" x1="62.9091" y1="68.1905" x2="54.7082" y2="33.4559" gradientUnits="userSpaceOnUse">
<stop stop-color="#121214" stop-opacity="0"/>
<stop offset="1" stop-color="#94949B"/>
</linearGradient>
<linearGradient id="paint7_linear_1039_1927" x1="94.9091" y1="68.1905" x2="86.7082" y2="33.4559" gradientUnits="userSpaceOnUse">
<stop stop-color="#121214" stop-opacity="0"/>
<stop offset="1" stop-color="#94949B"/>
</linearGradient>
<linearGradient id="paint8_linear_1039_1927" x1="63.3571" y1="24.8394" x2="98" y2="73.5" gradientUnits="userSpaceOnUse">
<stop stop-color="#FF5F1F"/>
<stop offset="0.65" stop-color="#531F0A" stop-opacity="0"/>
<stop offset="1" stop-opacity="0"/>
</linearGradient>
<linearGradient id="paint9_linear_1039_1927" x1="56" y1="30" x2="57.4813" y2="56.83" gradientUnits="userSpaceOnUse">
<stop stop-color="#FF9255"/>
<stop offset="0.423077" stop-color="#531F0A" stop-opacity="0"/>
<stop offset="1" stop-opacity="0"/>
</linearGradient>
<linearGradient id="paint10_linear_1039_1927" x1="65.2885" y1="105.325" x2="65.2765" y2="78.8252" gradientUnits="userSpaceOnUse">
<stop stop-color="#222227"/>
<stop offset="0.73" stop-color="#121214" stop-opacity="0"/>
<stop offset="1" stop-color="#121214" stop-opacity="0"/>
</linearGradient>
<linearGradient id="paint11_linear_1039_1927" x1="57.5385" y1="105.325" x2="57.2353" y2="80.3216" gradientUnits="userSpaceOnUse">
<stop stop-color="#94949B"/>
<stop offset="1" stop-opacity="0"/>
</linearGradient>
<linearGradient id="paint12_linear_1039_1927" x1="54.6256" y1="105.747" x2="54.633" y2="110.812" gradientUnits="userSpaceOnUse">
<stop offset="0.0480769" stop-color="#222227"/>
<stop offset="0.533654" stop-color="#121214"/>
<stop offset="1" stop-color="#121214"/>
</linearGradient>
<linearGradient id="paint13_linear_1039_1927" x1="62.5417" y1="136.244" x2="60.7168" y2="88.5147" gradientUnits="userSpaceOnUse">
<stop stop-opacity="0"/>
<stop offset="1" stop-color="#94949B"/>
</linearGradient>
<linearGradient id="paint14_linear_1039_1927" x1="80.3747" y1="113.929" x2="52.075" y2="73.117" gradientUnits="userSpaceOnUse">
<stop stop-color="#222227"/>
<stop offset="0.73" stop-color="#121214"/>
<stop offset="1" stop-color="#121214"/>
</linearGradient>
<linearGradient id="paint15_linear_1039_1927" x1="74.0023" y1="137.903" x2="95.094" y2="85.302" gradientUnits="userSpaceOnUse">
<stop stop-color="#94949B"/>
<stop offset="1" stop-color="#121214"/>
</linearGradient>
<linearGradient id="paint16_linear_1039_1927" x1="80.5" y1="67" x2="125.048" y2="61.1937" gradientUnits="userSpaceOnUse">
<stop stop-color="#222227"/>
<stop offset="0.521773" stop-color="#121214"/>
<stop offset="1" stop-color="#121214"/>
</linearGradient>
<linearGradient id="paint17_linear_1039_1927" x1="43" y1="54" x2="164.186" y2="86.8969" gradientUnits="userSpaceOnUse">
<stop stop-color="#C0C0CA"/>
<stop offset="1" stop-opacity="0"/>
</linearGradient>
<linearGradient id="paint18_linear_1039_1927" x1="105.328" y1="21.6681" x2="73.6522" y2="63.8404" gradientUnits="userSpaceOnUse">
<stop stop-color="#FF5F1F"/>
<stop offset="0.65" stop-color="#531F0A" stop-opacity="0"/>
<stop offset="1" stop-opacity="0"/>
</linearGradient>
<linearGradient id="paint19_linear_1039_1927" x1="98.3676" y1="28.2417" x2="101.074" y2="66.9098" gradientUnits="userSpaceOnUse">
<stop stop-color="#FF9255"/>
<stop offset="0.317308" stop-color="#531F0A" stop-opacity="0"/>
<stop offset="1" stop-opacity="0"/>
</linearGradient>
<linearGradient id="paint20_linear_1039_1927" x1="113.448" y1="29.0152" x2="87.9635" y2="76.5964" gradientUnits="userSpaceOnUse">
<stop stop-color="#FF5F1F"/>
<stop offset="0.65" stop-color="#531F0A" stop-opacity="0"/>
<stop offset="1" stop-opacity="0"/>
</linearGradient>
<linearGradient id="paint21_linear_1039_1927" x1="109.195" y1="35.9755" x2="116.928" y2="54.5362" gradientUnits="userSpaceOnUse">
<stop offset="0.110577" stop-color="#FF9255"/>
<stop offset="0.423077" stop-color="#531F0A" stop-opacity="0"/>
<stop offset="1" stop-opacity="0"/>
</linearGradient>
<linearGradient id="paint22_linear_1039_1927" x1="85.7125" y1="49.5031" x2="118.594" y2="6.4505" gradientUnits="userSpaceOnUse">
<stop stop-color="#FF5F1F"/>
<stop offset="0.65" stop-color="#531F0A" stop-opacity="0"/>
<stop offset="1" stop-color="#121214" stop-opacity="0"/>
</linearGradient>
<linearGradient id="paint23_linear_1039_1927" x1="86.7673" y1="35.9745" x2="86.7673" y2="63.0421" gradientUnits="userSpaceOnUse">
<stop offset="0.105769" stop-color="#FF9255"/>
<stop offset="0.504808" stop-color="#531F0A" stop-opacity="0"/>
<stop offset="1" stop-opacity="0"/>
</linearGradient>
<clipPath id="clip0_1039_1927">
<rect width="136" height="111" fill="white"/>
</clipPath>
<clipPath id="clip1_1039_1927">
<rect width="137" height="112" fill="white"/>
</clipPath>
<clipPath id="clip2_1039_1927">
<rect width="68" height="83" fill="white" transform="translate(67 28)"/>
</clipPath>
</defs>
</svg>
