<svg width="136" height="111" viewBox="0 0 136 111" fill="none" xmlns="http://www.w3.org/2000/svg">
<g clip-path="url(#clip0_1070_357)">
<rect x="6.2998" y="0.5" width="36" height="11" rx="1.5" fill="url(#paint0_linear_1070_357)" stroke="url(#paint1_linear_1070_357)" stroke-miterlimit="10"/>
<rect x="0.299805" y="9.5" width="49" height="101" rx="1.5" fill="url(#paint2_linear_1070_357)" stroke="url(#paint3_linear_1070_357)" stroke-miterlimit="10"/>
<rect x="19.7998" y="96" width="10" height="15" rx="1.5" fill="url(#paint4_linear_1070_357)" stroke="url(#paint5_linear_1070_357)" stroke-miterlimit="10"/>
<rect x="11.2998" y="44.5" width="9" height="9" rx="1.5" fill="url(#paint6_linear_1070_357)" stroke="url(#paint7_linear_1070_357)" stroke-miterlimit="10"/>
<rect x="11.2998" y="59.5" width="9" height="9" rx="1.5" fill="url(#paint8_linear_1070_357)" stroke="url(#paint9_linear_1070_357)" stroke-miterlimit="10"/>
<rect x="11.2998" y="74.5" width="9" height="9" rx="1.5" fill="url(#paint10_linear_1070_357)" stroke="url(#paint11_linear_1070_357)" stroke-miterlimit="10"/>
<rect x="29.2998" y="44.5" width="9" height="9" rx="1.5" fill="url(#paint12_linear_1070_357)" stroke="url(#paint13_linear_1070_357)" stroke-miterlimit="10"/>
<rect x="29.2998" y="59.5" width="9" height="9" rx="1.5" fill="url(#paint14_linear_1070_357)" stroke="url(#paint15_linear_1070_357)" stroke-miterlimit="10"/>
<rect x="29.2998" y="74.5" width="9" height="9" rx="1.5" fill="url(#paint16_linear_1070_357)" stroke="url(#paint17_linear_1070_357)" stroke-miterlimit="10"/>
<path d="M23.5253 23.7609C23.8917 23.9112 24.2929 23.9952 24.7089 23.9997C26.0146 24.0163 27.1826 23.2621 27.6826 22.0764L29.7998 17.0696L27.3586 16.0731L25.2415 21.08C25.0396 21.5556 25.0207 22.0866 25.1852 22.5756L25.2968 22.9084C25.3039 23.1109 25.017 23.1645 24.946 22.975L24.0049 20.4324L24.0007 20.4225L22.2675 16L19.7998 16.933L21.7856 22.0003C22.1052 22.8177 22.7397 23.4407 23.5255 23.7609H23.5253Z" fill="url(#paint18_linear_1070_357)" stroke="url(#paint19_linear_1070_357)" stroke-miterlimit="10"/>
<path d="M28.2242 26.3853L27.8914 26.4968C27.689 26.504 27.6353 26.2171 27.8248 26.1461L30.3674 25.205L30.3773 25.2008L34.7998 23.4676L33.8668 21L28.7995 22.9858C27.9822 23.3054 27.3591 23.9398 27.0389 24.7256C26.8886 25.092 26.8046 25.4932 26.8001 25.9092C26.7835 27.2149 27.5377 28.3828 28.7234 28.8829L33.7302 31L34.7267 28.5589L29.7198 26.4418C29.2442 26.2399 28.7132 26.221 28.2242 26.3855V26.3853Z" fill="url(#paint20_linear_1070_357)" stroke="url(#paint21_linear_1070_357)" stroke-miterlimit="10"/>
<path d="M22.5589 27.2851C22.7096 26.9189 22.7943 26.5179 22.7995 26.102C22.818 24.7962 22.0657 23.6272 20.8814 23.125L15.8798 21L14.8801 23.4396L19.8818 25.5646C20.357 25.7671 20.8875 25.7869 21.3768 25.6231L21.7097 25.512C21.9121 25.5053 21.9653 25.792 21.7758 25.863L19.2329 26.8002L19.223 26.8044L14.7998 28.5307L15.7286 31L20.7968 29.0223C21.6142 28.7038 22.238 28.0705 22.5593 27.2851H22.5589Z" fill="url(#paint22_linear_1070_357)" stroke="url(#paint23_linear_1070_357)" stroke-miterlimit="10"/>
<rect x="94.7998" y="73" width="10" height="37" fill="url(#paint24_linear_1070_357)" stroke="url(#paint25_linear_1070_357)" stroke-miterlimit="10"/>
<path d="M74.5605 36.5H130.731C133.13 36.5002 134.992 38.2577 134.992 40.3281V73.6719C134.992 75.7423 133.13 77.4998 130.731 77.5H74.5605C72.1617 77.4999 70.3001 75.7423 70.2998 73.6719V40.3281C70.3001 38.2577 72.1617 36.5001 74.5605 36.5Z" fill="url(#paint26_linear_1070_357)" stroke="url(#paint27_linear_1070_357)" stroke-miterlimit="10"/>
<path d="M68.5605 36.5H124.731C127.13 36.5002 128.992 38.2577 128.992 40.3281V73.6719C128.992 75.7423 127.13 77.4998 124.731 77.5H68.5605C66.1617 77.4999 64.3001 75.7423 64.2998 73.6719V40.3281C64.3001 38.2577 66.1617 36.5001 68.5605 36.5Z" fill="url(#paint28_linear_1070_357)" stroke="url(#paint29_linear_1070_357)" stroke-miterlimit="10"/>
<path d="M95.388 57.6413C95.9377 57.8668 96.5395 57.9928 97.1634 57.9996C99.122 58.0244 100.874 56.8931 101.624 55.1146L104.8 47.6043L101.138 46.1097L97.9623 53.6199C97.6595 54.3335 97.6311 55.1299 97.878 55.8634L98.0453 56.3627C98.056 56.6663 97.6256 56.7468 97.5191 56.4625L96.1074 52.6486L96.1012 52.6337L93.5013 46L89.7998 47.3996L92.7785 55.0005C93.258 56.2265 94.2096 57.1611 95.3884 57.6413H95.388Z" fill="url(#paint30_linear_1070_357)" stroke="url(#paint31_linear_1070_357)" stroke-miterlimit="10"/>
<path d="M101.936 61.078L101.437 61.2453C101.134 61.256 101.053 60.8256 101.337 60.7192L105.151 59.3074L105.166 59.3012L111.8 56.7014L110.4 53L102.799 55.9786C101.573 56.4581 100.639 57.4097 100.158 58.5884C99.933 59.1381 99.807 59.7399 99.8002 60.3638C99.7754 62.3224 100.907 64.0742 102.685 64.8243L110.195 68L111.69 64.3383L104.18 61.1627C103.466 60.8598 102.67 60.8315 101.936 61.0783V61.078Z" fill="url(#paint32_linear_1070_357)" stroke="url(#paint33_linear_1070_357)" stroke-miterlimit="10"/>
<path d="M94.4384 62.4277C94.6645 61.8784 94.7915 61.2769 94.7993 60.653C94.8271 58.6944 93.6987 56.9407 91.9222 56.1875L84.4198 53L82.9203 56.6593L90.4228 59.8468C91.1357 60.1507 91.9314 60.1804 92.6653 59.9346L93.1647 59.768C93.4682 59.758 93.548 60.188 93.2638 60.2945L89.4495 61.7004L89.4345 61.7066L82.7998 64.2961L84.193 68L91.7953 65.0334C93.0215 64.5557 93.9571 63.6057 94.4391 62.4277H94.4384Z" fill="url(#paint34_linear_1070_357)" stroke="url(#paint35_linear_1070_357)" stroke-miterlimit="10"/>
</g>
<defs>
<linearGradient id="paint0_linear_1070_357" x1="17.2296" y1="1.19137" x2="21.884" y2="16.0736" gradientUnits="userSpaceOnUse">
<stop stop-color="#222227"/>
<stop offset="0.73" stop-color="#121214"/>
<stop offset="1" stop-color="#121214"/>
</linearGradient>
<linearGradient id="paint1_linear_1070_357" x1="15.2121" y1="-1.38462" x2="24.9024" y2="27.7302" gradientUnits="userSpaceOnUse">
<stop stop-color="#C0C0CA"/>
<stop offset="1" stop-opacity="0"/>
</linearGradient>
<linearGradient id="paint2_linear_1070_357" x1="15.2455" y1="19.1267" x2="71.3433" y2="47.6436" gradientUnits="userSpaceOnUse">
<stop stop-color="#222227"/>
<stop offset="0.73" stop-color="#121214"/>
<stop offset="1" stop-color="#121214"/>
</linearGradient>
<linearGradient id="paint3_linear_1070_357" x1="12.5191" y1="-2.76923" x2="119.431" y2="48.2988" gradientUnits="userSpaceOnUse">
<stop stop-color="#C0C0CA"/>
<stop offset="1" stop-opacity="0"/>
</linearGradient>
<linearGradient id="paint4_linear_1070_357" x1="24.7999" y1="94.6893" x2="24.7999" y2="126" gradientUnits="userSpaceOnUse">
<stop stop-color="#FF5F1F"/>
<stop offset="0.54" stop-color="#531F0A" stop-opacity="0"/>
<stop offset="1" stop-color="#121214" stop-opacity="0"/>
</linearGradient>
<linearGradient id="paint5_linear_1070_357" x1="24.8615" y1="135" x2="24.8616" y2="93.75" gradientUnits="userSpaceOnUse">
<stop stop-opacity="0"/>
<stop offset="0.504808" stop-color="#531F0A" stop-opacity="0"/>
<stop offset="0.850962" stop-color="#FF9255"/>
</linearGradient>
<linearGradient id="paint6_linear_1070_357" x1="13.8889" y1="44.9928" x2="20.6919" y2="52.0476" gradientUnits="userSpaceOnUse">
<stop stop-color="#222227"/>
<stop offset="0.73" stop-color="#121214" stop-opacity="0"/>
<stop offset="1" stop-color="#121214" stop-opacity="0"/>
</linearGradient>
<linearGradient id="paint7_linear_1070_357" x1="13.3437" y1="42.8462" x2="25.0343" y2="55.6538" gradientUnits="userSpaceOnUse">
<stop stop-color="#C0C0CA"/>
<stop offset="1" stop-opacity="0"/>
</linearGradient>
<linearGradient id="paint8_linear_1070_357" x1="13.8889" y1="59.9928" x2="20.6919" y2="67.0476" gradientUnits="userSpaceOnUse">
<stop stop-color="#222227"/>
<stop offset="0.73" stop-color="#121214" stop-opacity="0"/>
<stop offset="1" stop-color="#121214" stop-opacity="0"/>
</linearGradient>
<linearGradient id="paint9_linear_1070_357" x1="13.3437" y1="57.8462" x2="25.0343" y2="70.6538" gradientUnits="userSpaceOnUse">
<stop stop-color="#C0C0CA"/>
<stop offset="1" stop-opacity="0"/>
</linearGradient>
<linearGradient id="paint10_linear_1070_357" x1="13.8889" y1="74.9928" x2="20.6919" y2="82.0476" gradientUnits="userSpaceOnUse">
<stop stop-color="#222227"/>
<stop offset="0.73" stop-color="#121214" stop-opacity="0"/>
<stop offset="1" stop-color="#121214" stop-opacity="0"/>
</linearGradient>
<linearGradient id="paint11_linear_1070_357" x1="13.3437" y1="72.8462" x2="25.0343" y2="85.6538" gradientUnits="userSpaceOnUse">
<stop stop-color="#C0C0CA"/>
<stop offset="1" stop-opacity="0"/>
</linearGradient>
<linearGradient id="paint12_linear_1070_357" x1="31.8889" y1="44.9928" x2="38.6919" y2="52.0476" gradientUnits="userSpaceOnUse">
<stop stop-color="#222227"/>
<stop offset="0.73" stop-color="#121214" stop-opacity="0"/>
<stop offset="1" stop-color="#121214" stop-opacity="0"/>
</linearGradient>
<linearGradient id="paint13_linear_1070_357" x1="31.3437" y1="42.8462" x2="43.0343" y2="55.6538" gradientUnits="userSpaceOnUse">
<stop stop-color="#C0C0CA"/>
<stop offset="1" stop-opacity="0"/>
</linearGradient>
<linearGradient id="paint14_linear_1070_357" x1="31.8889" y1="59.9928" x2="38.6919" y2="67.0476" gradientUnits="userSpaceOnUse">
<stop stop-color="#222227"/>
<stop offset="0.73" stop-color="#121214" stop-opacity="0"/>
<stop offset="1" stop-color="#121214" stop-opacity="0"/>
</linearGradient>
<linearGradient id="paint15_linear_1070_357" x1="31.3437" y1="57.8462" x2="43.0343" y2="70.6538" gradientUnits="userSpaceOnUse">
<stop stop-color="#C0C0CA"/>
<stop offset="1" stop-opacity="0"/>
</linearGradient>
<linearGradient id="paint16_linear_1070_357" x1="31.8889" y1="74.9928" x2="38.6919" y2="82.0476" gradientUnits="userSpaceOnUse">
<stop stop-color="#222227"/>
<stop offset="0.73" stop-color="#121214" stop-opacity="0"/>
<stop offset="1" stop-color="#121214" stop-opacity="0"/>
</linearGradient>
<linearGradient id="paint17_linear_1070_357" x1="31.3437" y1="72.8462" x2="43.0343" y2="85.6538" gradientUnits="userSpaceOnUse">
<stop stop-color="#C0C0CA"/>
<stop offset="1" stop-opacity="0"/>
</linearGradient>
<linearGradient id="paint18_linear_1070_357" x1="27.4671" y1="12.0714" x2="7.90905" y2="38.5546" gradientUnits="userSpaceOnUse">
<stop stop-color="#FF5F1F"/>
<stop offset="0.65" stop-color="#531F0A" stop-opacity="0"/>
<stop offset="1" stop-opacity="0"/>
</linearGradient>
<linearGradient id="paint19_linear_1070_357" x1="23.075" y1="16.1499" x2="24.7266" y2="40.1452" gradientUnits="userSpaceOnUse">
<stop stop-color="#FF9255"/>
<stop offset="0.317308" stop-color="#531F0A" stop-opacity="0"/>
<stop offset="1" stop-opacity="0"/>
</linearGradient>
<linearGradient id="paint20_linear_1070_357" x1="32.5855" y1="16.4848" x2="16.3282" y2="46.2828" gradientUnits="userSpaceOnUse">
<stop stop-color="#FF5F1F"/>
<stop offset="0.65" stop-color="#531F0A" stop-opacity="0"/>
<stop offset="1" stop-opacity="0"/>
</linearGradient>
<linearGradient id="paint21_linear_1070_357" x1="29.9485" y1="20.8803" x2="34.8958" y2="32.5366" gradientUnits="userSpaceOnUse">
<stop offset="0.110577" stop-color="#FF9255"/>
<stop offset="0.423077" stop-color="#531F0A" stop-opacity="0"/>
<stop offset="1" stop-opacity="0"/>
</linearGradient>
<linearGradient id="paint22_linear_1070_357" x1="15.2414" y1="29.5281" x2="36.1068" y2="2.71975" gradientUnits="userSpaceOnUse">
<stop stop-color="#FF5F1F"/>
<stop offset="0.65" stop-color="#531F0A" stop-opacity="0"/>
<stop offset="1" stop-opacity="0"/>
</linearGradient>
<linearGradient id="paint23_linear_1070_357" x1="15.895" y1="20.9845" x2="15.895" y2="38.0783" gradientUnits="userSpaceOnUse">
<stop offset="0.105769" stop-color="#FF9255"/>
<stop offset="0.504808" stop-color="#531F0A" stop-opacity="0"/>
<stop offset="1" stop-opacity="0"/>
</linearGradient>
<linearGradient id="paint24_linear_1070_357" x1="99.5756" y1="82.0689" x2="101.622" y2="104.333" gradientUnits="userSpaceOnUse">
<stop offset="0.0480769" stop-color="#222227"/>
<stop offset="0.533654" stop-color="#121214"/>
<stop offset="1" stop-color="#121214" stop-opacity="0"/>
</linearGradient>
<linearGradient id="paint25_linear_1070_357" x1="99.8818" y1="117.77" x2="99.7998" y2="68.5" gradientUnits="userSpaceOnUse">
<stop stop-opacity="0"/>
<stop offset="1" stop-color="#94949B"/>
</linearGradient>
<linearGradient id="paint26_linear_1070_357" x1="90.093" y1="40.1698" x2="115.638" y2="81.6033" gradientUnits="userSpaceOnUse">
<stop stop-color="#222227"/>
<stop offset="0.73" stop-color="#121214" stop-opacity="0"/>
<stop offset="1" stop-color="#121214" stop-opacity="0"/>
</linearGradient>
<linearGradient id="paint27_linear_1070_357" x1="86.511" y1="31.1538" x2="129.439" y2="104.712" gradientUnits="userSpaceOnUse">
<stop stop-color="#C0C0CA"/>
<stop offset="1" stop-opacity="0"/>
</linearGradient>
<linearGradient id="paint28_linear_1070_357" x1="84.093" y1="40.1698" x2="109.638" y2="81.6033" gradientUnits="userSpaceOnUse">
<stop stop-color="#222227"/>
<stop offset="0.73" stop-color="#121214"/>
<stop offset="1" stop-color="#121214"/>
</linearGradient>
<linearGradient id="paint29_linear_1070_357" x1="80.511" y1="31.1538" x2="127.948" y2="104.602" gradientUnits="userSpaceOnUse">
<stop stop-color="#C0C0CA"/>
<stop offset="1" stop-opacity="0"/>
</linearGradient>
<linearGradient id="paint30_linear_1070_357" x1="101.301" y1="40.1071" x2="71.9637" y2="79.8319" gradientUnits="userSpaceOnUse">
<stop stop-color="#FF5F1F"/>
<stop offset="0.65" stop-color="#531F0A" stop-opacity="0"/>
<stop offset="1" stop-opacity="0"/>
</linearGradient>
<linearGradient id="paint31_linear_1070_357" x1="94.7127" y1="46.2249" x2="97.1899" y2="82.2178" gradientUnits="userSpaceOnUse">
<stop stop-color="#FF9255"/>
<stop offset="0.317308" stop-color="#531F0A" stop-opacity="0"/>
<stop offset="1" stop-opacity="0"/>
</linearGradient>
<linearGradient id="paint32_linear_1070_357" x1="108.478" y1="46.2273" x2="84.0924" y2="90.9242" gradientUnits="userSpaceOnUse">
<stop stop-color="#FF5F1F"/>
<stop offset="0.65" stop-color="#531F0A" stop-opacity="0"/>
<stop offset="1" stop-opacity="0"/>
</linearGradient>
<linearGradient id="paint33_linear_1070_357" x1="104.523" y1="52.8204" x2="111.944" y2="70.3049" gradientUnits="userSpaceOnUse">
<stop offset="0.110577" stop-color="#FF9255"/>
<stop offset="0.423077" stop-color="#531F0A" stop-opacity="0"/>
<stop offset="1" stop-opacity="0"/>
</linearGradient>
<linearGradient id="paint34_linear_1070_357" x1="83.4621" y1="65.7922" x2="114.76" y2="25.5796" gradientUnits="userSpaceOnUse">
<stop stop-color="#FF5F1F"/>
<stop offset="0.65" stop-color="#531F0A" stop-opacity="0"/>
<stop offset="1" stop-opacity="0"/>
</linearGradient>
<linearGradient id="paint35_linear_1070_357" x1="84.4426" y1="52.9767" x2="84.4426" y2="78.6174" gradientUnits="userSpaceOnUse">
<stop offset="0.105769" stop-color="#FF9255"/>
<stop offset="0.504808" stop-color="#531F0A" stop-opacity="0"/>
<stop offset="1" stop-opacity="0"/>
</linearGradient>
<clipPath id="clip0_1070_357">
<rect width="136" height="111" fill="white"/>
</clipPath>
</defs>
</svg>
