<svg width="136" height="111" viewBox="0 0 136 111" fill="none" xmlns="http://www.w3.org/2000/svg">
<g clip-path="url(#clip0_1070_416)">
<rect x="45.0996" y="10.5" width="54" height="67" rx="1.5" fill="url(#paint0_linear_1070_416)" stroke="url(#paint1_linear_1070_416)" stroke-miterlimit="10"/>
<path d="M70.1878 31.6413C70.7375 31.8668 71.3393 31.9928 71.9632 31.9996C73.9219 32.0244 75.6737 30.8931 76.4239 29.1146L79.5996 21.6043L75.9378 20.1097L72.7621 27.6199C72.4593 28.3335 72.4309 29.1299 72.6778 29.8634L72.8451 30.3627C72.8558 30.6663 72.4254 30.7468 72.3189 30.4625L70.9072 26.6486L70.901 26.6337L68.3011 20L64.5996 21.3996L67.5783 29.0005C68.0578 30.2265 69.0094 31.1611 70.1882 31.6413H70.1878Z" fill="url(#paint2_linear_1070_416)" stroke="url(#paint3_linear_1070_416)" stroke-miterlimit="10"/>
<path d="M76.7362 35.078L76.2369 35.2453C75.9333 35.256 75.8528 34.8256 76.1371 34.7192L79.951 33.3074L79.9659 33.3012L86.5996 30.7014L85.2001 27L77.5991 29.9786C76.3731 30.4581 75.4385 31.4097 74.9583 32.5884C74.7328 33.1381 74.6068 33.7399 74.6 34.3638C74.5752 36.3224 75.7065 38.0742 77.485 38.8243L84.9953 42L86.4899 38.3383L78.9797 35.1627C78.2661 34.8598 77.4697 34.8315 76.7362 35.0783V35.078Z" fill="url(#paint4_linear_1070_416)" stroke="url(#paint5_linear_1070_416)" stroke-miterlimit="10"/>
<path d="M69.2382 36.4277C69.4643 35.8784 69.5913 35.2769 69.5991 34.653C69.6269 32.6944 68.4985 30.9407 66.722 30.1875L59.2196 27L57.7201 30.6593L65.2226 33.8468C65.9355 34.1507 66.7312 34.1804 67.4652 33.9346L67.9645 33.768C68.268 33.758 68.3478 34.188 68.0637 34.2945L64.2493 35.7004L64.2343 35.7066L57.5996 38.2961L58.9928 42L66.5951 39.0334C67.8213 38.5557 68.7569 37.6057 69.2389 36.4277H69.2382Z" fill="url(#paint6_linear_1070_416)" stroke="url(#paint7_linear_1070_416)" stroke-miterlimit="10"/>
<rect x="18.0996" y="53.5" width="82" height="57" rx="2.5" fill="url(#paint8_linear_1070_416)" stroke="url(#paint9_linear_1070_416)" stroke-miterlimit="10"/>
<path d="M53.4427 91.7011C53.9191 91.889 54.4407 91.994 54.9814 91.9997C56.6789 92.0203 58.1972 91.0776 58.8473 89.5955L61.5996 83.3369L58.4261 82.0914L55.6738 88.3499C55.4113 88.9446 55.3868 89.6082 55.6007 90.2195L55.7457 90.6356C55.755 90.8886 55.382 90.9556 55.2897 90.7188L54.0662 87.5405L54.0608 87.5281L51.8076 82L48.5996 83.1663L51.1812 89.5004C51.5967 90.5221 52.4214 91.3009 53.443 91.7011H53.4427Z" fill="url(#paint10_linear_1070_416)" stroke="url(#paint11_linear_1070_416)" stroke-miterlimit="10"/>
<path d="M59.3801 95.0009L58.9641 95.1459C58.711 95.1552 58.644 94.7822 58.8809 94.6899L62.0591 93.4664L62.0715 93.4611L67.5996 91.2079L66.4333 88L60.0992 90.5815C59.0775 90.997 58.2987 91.8217 57.8985 92.8433C57.7106 93.3197 57.6056 93.8412 57.5999 94.382C57.5793 96.0794 58.522 97.5977 60.0041 98.2478L66.2627 101L67.5082 97.8265L61.2497 95.0743C60.6551 94.8119 59.9914 94.7873 59.3801 95.0012V95.0009Z" fill="url(#paint12_linear_1070_416)" stroke="url(#paint13_linear_1070_416)" stroke-miterlimit="10"/>
<path d="M52.2985 96.1706C52.4869 95.6946 52.5927 95.1733 52.5992 94.6326C52.6224 92.9351 51.682 91.4153 50.2016 90.7625L43.9496 88L42.7 91.1714L48.9521 93.9339C49.5462 94.1973 50.2093 94.223 50.8209 94.01L51.237 93.8656C51.4899 93.8569 51.5564 94.2296 51.3196 94.3219L48.141 95.5403L48.1286 95.5457L42.5996 97.7899L43.7606 101L50.0958 98.4289C51.1177 98.0149 51.8973 97.1916 52.299 96.1706H52.2985Z" fill="url(#paint14_linear_1070_416)" stroke="url(#paint15_linear_1070_416)" stroke-miterlimit="10"/>
<path d="M100.1 52.5V110.5H117.6C118.98 110.5 120.1 109.381 120.1 108V52.5H100.1Z" fill="url(#paint16_linear_1070_416)" stroke="url(#paint17_linear_1070_416)" stroke-miterlimit="10"/>
<path d="M6.59961 74H89.5996L100.6 52.5H18.5996L6.59961 74Z" fill="url(#paint18_linear_1070_416)" stroke="url(#paint19_linear_1070_416)" stroke-miterlimit="10"/>
<path d="M135.1 74H111.6L100.6 52.5H123.1L135.1 74Z" fill="url(#paint20_linear_1070_416)" stroke="url(#paint21_linear_1070_416)" stroke-miterlimit="10"/>
</g>
<defs>
<linearGradient id="paint0_linear_1070_416" x1="61.5899" y1="16.7511" x2="76.5996" y2="69" gradientUnits="userSpaceOnUse">
<stop stop-color="#222227"/>
<stop offset="0.73" stop-color="#121214"/>
<stop offset="1" stop-color="#121214"/>
</linearGradient>
<linearGradient id="paint1_linear_1070_416" x1="44.5996" y1="5" x2="82.0996" y2="80.5" gradientUnits="userSpaceOnUse">
<stop stop-color="#C0C0CA"/>
<stop offset="1" stop-opacity="0"/>
</linearGradient>
<linearGradient id="paint2_linear_1070_416" x1="76.1006" y1="14.1071" x2="46.7635" y2="53.8319" gradientUnits="userSpaceOnUse">
<stop stop-color="#FF5F1F"/>
<stop offset="0.65" stop-color="#531F0A" stop-opacity="0"/>
<stop offset="1" stop-opacity="0"/>
</linearGradient>
<linearGradient id="paint3_linear_1070_416" x1="69.5125" y1="20.2249" x2="71.9897" y2="56.2178" gradientUnits="userSpaceOnUse">
<stop stop-color="#FF9255"/>
<stop offset="0.317308" stop-color="#531F0A" stop-opacity="0"/>
<stop offset="1" stop-opacity="0"/>
</linearGradient>
<linearGradient id="paint4_linear_1070_416" x1="83.2782" y1="20.2273" x2="58.8922" y2="64.9242" gradientUnits="userSpaceOnUse">
<stop stop-color="#FF5F1F"/>
<stop offset="0.65" stop-color="#531F0A" stop-opacity="0"/>
<stop offset="1" stop-opacity="0"/>
</linearGradient>
<linearGradient id="paint5_linear_1070_416" x1="79.3227" y1="26.8204" x2="86.7437" y2="44.3049" gradientUnits="userSpaceOnUse">
<stop offset="0.110577" stop-color="#FF9255"/>
<stop offset="0.423077" stop-color="#531F0A" stop-opacity="0"/>
<stop offset="1" stop-opacity="0"/>
</linearGradient>
<linearGradient id="paint6_linear_1070_416" x1="58.2619" y1="39.7922" x2="89.5601" y2="-0.420371" gradientUnits="userSpaceOnUse">
<stop stop-color="#FF5F1F"/>
<stop offset="0.65" stop-color="#531F0A" stop-opacity="0"/>
<stop offset="1" stop-opacity="0"/>
</linearGradient>
<linearGradient id="paint7_linear_1070_416" x1="59.2424" y1="26.9767" x2="59.2424" y2="52.6174" gradientUnits="userSpaceOnUse">
<stop offset="0.105769" stop-color="#FF9255"/>
<stop offset="0.504808" stop-color="#531F0A" stop-opacity="0"/>
<stop offset="1" stop-opacity="0"/>
</linearGradient>
<linearGradient id="paint8_linear_1070_416" x1="43.2394" y1="58.7583" x2="79.8341" y2="113.065" gradientUnits="userSpaceOnUse">
<stop stop-color="#222227"/>
<stop offset="0.73" stop-color="#121214" stop-opacity="0"/>
<stop offset="1" stop-color="#121214" stop-opacity="0"/>
</linearGradient>
<linearGradient id="paint9_linear_1070_416" x1="17.5996" y1="13" x2="110.1" y2="152" gradientUnits="userSpaceOnUse">
<stop stop-color="#C0C0CA"/>
<stop offset="1" stop-opacity="0"/>
</linearGradient>
<linearGradient id="paint10_linear_1070_416" x1="58.5671" y1="77.0893" x2="34.4168" y2="111.099" gradientUnits="userSpaceOnUse">
<stop stop-color="#FF5F1F"/>
<stop offset="0.65" stop-color="#531F0A" stop-opacity="0"/>
<stop offset="1" stop-opacity="0"/>
</linearGradient>
<linearGradient id="paint11_linear_1070_416" x1="52.8574" y1="82.1874" x2="54.8431" y2="112.192" gradientUnits="userSpaceOnUse">
<stop stop-color="#FF9255"/>
<stop offset="0.317308" stop-color="#531F0A" stop-opacity="0"/>
<stop offset="1" stop-opacity="0"/>
</linearGradient>
<linearGradient id="paint12_linear_1070_416" x1="64.8317" y1="82.1303" x2="43.2557" y2="120.156" gradientUnits="userSpaceOnUse">
<stop stop-color="#FF5F1F"/>
<stop offset="0.65" stop-color="#531F0A" stop-opacity="0"/>
<stop offset="1" stop-opacity="0"/>
</linearGradient>
<linearGradient id="paint13_linear_1070_416" x1="61.5355" y1="87.8444" x2="68.142" y2="102.811" gradientUnits="userSpaceOnUse">
<stop offset="0.110577" stop-color="#FF9255"/>
<stop offset="0.423077" stop-color="#531F0A" stop-opacity="0"/>
<stop offset="1" stop-opacity="0"/>
</linearGradient>
<linearGradient id="paint14_linear_1070_416" x1="43.1515" y1="99.0865" x2="70.5191" y2="65.2765" gradientUnits="userSpaceOnUse">
<stop stop-color="#FF5F1F"/>
<stop offset="0.65" stop-color="#531F0A" stop-opacity="0"/>
<stop offset="1" stop-opacity="0"/>
</linearGradient>
<linearGradient id="paint15_linear_1070_416" x1="43.9686" y1="87.9798" x2="43.9686" y2="110.202" gradientUnits="userSpaceOnUse">
<stop offset="0.105769" stop-color="#FF9255"/>
<stop offset="0.504808" stop-color="#531F0A" stop-opacity="0"/>
<stop offset="1" stop-opacity="0"/>
</linearGradient>
<linearGradient id="paint16_linear_1070_416" x1="114.112" y1="57.8576" x2="88.018" y2="67.4892" gradientUnits="userSpaceOnUse">
<stop stop-color="#222227"/>
<stop offset="0.73" stop-color="#121214" stop-opacity="0"/>
<stop offset="1" stop-color="#121214" stop-opacity="0"/>
</linearGradient>
<linearGradient id="paint17_linear_1070_416" x1="115.258" y1="45.1923" x2="99.5996" y2="135" gradientUnits="userSpaceOnUse">
<stop stop-color="#C0C0CA"/>
<stop offset="1" stop-opacity="0"/>
</linearGradient>
<linearGradient id="paint18_linear_1070_416" x1="53.4591" y1="81.9545" x2="53.3901" y2="53.5674" gradientUnits="userSpaceOnUse">
<stop stop-color="#121214"/>
<stop offset="0.466346" stop-color="#121214"/>
<stop offset="0.951923" stop-color="#222227"/>
</linearGradient>
<linearGradient id="paint19_linear_1070_416" x1="13.5996" y1="53" x2="18.5585" y2="101.766" gradientUnits="userSpaceOnUse">
<stop stop-color="#656578"/>
<stop offset="1"/>
</linearGradient>
<linearGradient id="paint20_linear_1070_416" x1="117.901" y1="81.9545" x2="118.089" y2="53.5685" gradientUnits="userSpaceOnUse">
<stop stop-color="#121214"/>
<stop offset="0.466346" stop-color="#121214"/>
<stop offset="0.951923" stop-color="#222227"/>
</linearGradient>
<linearGradient id="paint21_linear_1070_416" x1="132.53" y1="53" x2="119.853" y2="98.7581" gradientUnits="userSpaceOnUse">
<stop stop-color="#656578"/>
<stop offset="1"/>
</linearGradient>
<clipPath id="clip0_1070_416">
<rect width="136" height="111" fill="white"/>
</clipPath>
</defs>
</svg>
