<svg width="136" height="111" viewBox="0 0 136 111" fill="none" xmlns="http://www.w3.org/2000/svg">
<g clip-path="url(#clip0_1070_382)">
<path d="M68.9393 83.5602L18.663 52.3782L66.5854 22.3746C67.7241 21.6616 69.1713 21.6634 70.3082 22.3792L117.965 52.3823L68.9393 83.5602Z" fill="url(#paint0_linear_1070_382)" stroke="url(#paint1_linear_1070_382)" stroke-miterlimit="10"/>
<rect x="40.8999" y="17.5" width="54" height="67" rx="1.5" fill="url(#paint2_linear_1070_382)" stroke="url(#paint3_linear_1070_382)" stroke-miterlimit="10"/>
<path d="M65.9881 38.6413C66.5378 38.8668 67.1396 38.9928 67.7635 38.9996C69.7221 39.0244 71.474 37.8931 72.2242 36.1146L75.3999 28.6043L71.7381 27.1097L68.5624 34.6199C68.2596 35.3335 68.2312 36.1299 68.4781 36.8634L68.6454 37.3627C68.6561 37.6663 68.2257 37.7468 68.1192 37.4625L66.7075 33.6486L66.7013 33.6337L64.1014 27L60.3999 28.3996L63.3786 36.0005C63.8581 37.2265 64.8097 38.1611 65.9885 38.6413H65.9881Z" fill="url(#paint4_linear_1070_382)" stroke="url(#paint5_linear_1070_382)" stroke-miterlimit="10"/>
<path d="M72.5365 42.078L72.0372 42.2453C71.7336 42.256 71.6531 41.8256 71.9374 41.7192L75.7513 40.3074L75.7662 40.3012L82.3999 37.7014L81.0004 34L73.3994 36.9786C72.1734 37.4581 71.2388 38.4097 70.7586 39.5884C70.5331 40.1381 70.4071 40.7399 70.4003 41.3638C70.3755 43.3224 71.5068 45.0742 73.2853 45.8243L80.7956 49L82.2902 45.3383L74.78 42.1627C74.0664 41.8598 73.27 41.8315 72.5365 42.0783V42.078Z" fill="url(#paint6_linear_1070_382)" stroke="url(#paint7_linear_1070_382)" stroke-miterlimit="10"/>
<path d="M65.0385 43.4277C65.2646 42.8784 65.3916 42.2769 65.3994 41.653C65.4272 39.6944 64.2988 37.9407 62.5223 37.1875L55.0199 34L53.5204 37.6593L61.0229 40.8468C61.7358 41.1507 62.5315 41.1804 63.2654 40.9346L63.7648 40.768C64.0683 40.758 64.1481 41.188 63.8639 41.2945L60.0496 42.7004L60.0346 42.7066L53.3999 45.2961L54.7931 49L62.3954 46.0334C63.6216 45.5557 64.5572 44.6057 65.0392 43.4277H65.0385Z" fill="url(#paint8_linear_1070_382)" stroke="url(#paint9_linear_1070_382)" stroke-miterlimit="10"/>
<path d="M17.8999 52.8047C17.8999 52.4121 18.3316 52.1722 18.6646 52.3799L110.178 109.576C110.604 109.842 110.416 110.5 109.914 110.5H25.3999C21.2578 110.5 17.8999 107.142 17.8999 103V52.8047Z" fill="url(#paint10_linear_1070_382)" stroke="url(#paint11_linear_1070_382)" stroke-miterlimit="10"/>
<path d="M118.9 52.8047C118.9 52.4121 118.468 52.1722 118.135 52.3799L26.6216 109.576C26.1959 109.842 26.3843 110.5 26.8862 110.5H111.4C115.542 110.5 118.9 107.142 118.9 103V52.8047Z" fill="url(#paint12_linear_1070_382)" stroke="url(#paint13_linear_1070_382)" stroke-miterlimit="10"/>
<path d="M113.548 38.2012L121.938 40.5982L116.871 58.3342C116.209 60.6511 113.794 61.9928 111.478 61.3308C109.161 60.6689 107.819 58.2541 108.481 55.9372L113.548 38.2012Z" fill="url(#paint14_linear_1070_382)" stroke="url(#paint15_linear_1070_382)" stroke-miterlimit="10"/>
<path d="M104.101 1.99222C102.442 8.21387 106.131 14.604 112.349 16.278L130.377 21.1087C134.111 22.1092 136.327 25.9476 135.326 29.6806L132.911 38.6954C131.911 42.4284 128.073 44.6449 124.339 43.6444L106.31 38.8137C100.089 37.1545 93.6987 40.8439 92.0247 47.0616L87.5174 45.8538L99.5937 0.784477L104.101 1.99222Z" fill="url(#paint16_linear_1070_382)" stroke="url(#paint17_linear_1070_382)" stroke-miterlimit="10"/>
</g>
<defs>
<linearGradient id="paint0_linear_1070_382" x1="80.3447" y1="5.11675" x2="104.716" y2="80.7974" gradientUnits="userSpaceOnUse">
<stop stop-color="#222227"/>
<stop offset="0.640293" stop-color="#121214"/>
<stop offset="1" stop-color="#121214"/>
</linearGradient>
<linearGradient id="paint1_linear_1070_382" x1="148.37" y1="113.873" x2="30.3999" y2="6.99999" gradientUnits="userSpaceOnUse">
<stop stop-opacity="0"/>
<stop offset="1" stop-color="#C0C0CA"/>
</linearGradient>
<linearGradient id="paint2_linear_1070_382" x1="57.3901" y1="23.7511" x2="72.3999" y2="76" gradientUnits="userSpaceOnUse">
<stop stop-color="#222227"/>
<stop offset="0.73" stop-color="#121214"/>
<stop offset="1" stop-color="#121214"/>
</linearGradient>
<linearGradient id="paint3_linear_1070_382" x1="40.3999" y1="12" x2="77.8999" y2="87.5" gradientUnits="userSpaceOnUse">
<stop stop-color="#C0C0CA"/>
<stop offset="1" stop-opacity="0"/>
</linearGradient>
<linearGradient id="paint4_linear_1070_382" x1="71.9009" y1="21.1071" x2="42.5638" y2="60.8319" gradientUnits="userSpaceOnUse">
<stop stop-color="#FF5F1F"/>
<stop offset="0.65" stop-color="#531F0A" stop-opacity="0"/>
<stop offset="1" stop-opacity="0"/>
</linearGradient>
<linearGradient id="paint5_linear_1070_382" x1="65.3128" y1="27.2249" x2="67.79" y2="63.2178" gradientUnits="userSpaceOnUse">
<stop stop-color="#FF9255"/>
<stop offset="0.317308" stop-color="#531F0A" stop-opacity="0"/>
<stop offset="1" stop-opacity="0"/>
</linearGradient>
<linearGradient id="paint6_linear_1070_382" x1="79.0784" y1="27.2273" x2="54.6925" y2="71.9242" gradientUnits="userSpaceOnUse">
<stop stop-color="#FF5F1F"/>
<stop offset="0.65" stop-color="#531F0A" stop-opacity="0"/>
<stop offset="1" stop-opacity="0"/>
</linearGradient>
<linearGradient id="paint7_linear_1070_382" x1="75.123" y1="33.8204" x2="82.544" y2="51.3049" gradientUnits="userSpaceOnUse">
<stop offset="0.110577" stop-color="#FF9255"/>
<stop offset="0.423077" stop-color="#531F0A" stop-opacity="0"/>
<stop offset="1" stop-opacity="0"/>
</linearGradient>
<linearGradient id="paint8_linear_1070_382" x1="54.0622" y1="46.7922" x2="85.3603" y2="6.57963" gradientUnits="userSpaceOnUse">
<stop stop-color="#FF5F1F"/>
<stop offset="0.65" stop-color="#531F0A" stop-opacity="0"/>
<stop offset="1" stop-opacity="0"/>
</linearGradient>
<linearGradient id="paint9_linear_1070_382" x1="55.0427" y1="33.9767" x2="55.0427" y2="59.6174" gradientUnits="userSpaceOnUse">
<stop offset="0.105769" stop-color="#FF9255"/>
<stop offset="0.504808" stop-color="#531F0A" stop-opacity="0"/>
<stop offset="1" stop-opacity="0"/>
</linearGradient>
<linearGradient id="paint10_linear_1070_382" x1="11.3999" y1="55.5" x2="83.3999" y2="123.5" gradientUnits="userSpaceOnUse">
<stop stop-color="#222227"/>
<stop offset="0.640293" stop-color="#121214"/>
<stop offset="1" stop-color="#121214"/>
</linearGradient>
<linearGradient id="paint11_linear_1070_382" x1="13.8999" y1="44.5" x2="78.8999" y2="129.5" gradientUnits="userSpaceOnUse">
<stop stop-color="#C0C0CA"/>
<stop offset="0.819882" stop-opacity="0"/>
</linearGradient>
<linearGradient id="paint12_linear_1070_382" x1="131.4" y1="57" x2="29.3999" y2="123" gradientUnits="userSpaceOnUse">
<stop stop-color="#222227"/>
<stop offset="0.640293" stop-color="#121214"/>
<stop offset="1" stop-color="#121214"/>
</linearGradient>
<linearGradient id="paint13_linear_1070_382" x1="46.3999" y1="53.5" x2="52.3999" y2="121.5" gradientUnits="userSpaceOnUse">
<stop stop-color="#C0C0CA"/>
<stop offset="1" stop-opacity="0"/>
</linearGradient>
<linearGradient id="paint14_linear_1070_382" x1="112.58" y1="64.495" x2="99.7248" y2="31.5109" gradientUnits="userSpaceOnUse">
<stop stop-color="#222227"/>
<stop offset="0.73" stop-color="#121214"/>
<stop offset="1" stop-color="#121214"/>
</linearGradient>
<linearGradient id="paint15_linear_1070_382" x1="107.005" y1="72.0813" x2="131.632" y2="41.8829" gradientUnits="userSpaceOnUse">
<stop stop-color="#94949B"/>
<stop offset="1" stop-opacity="0"/>
</linearGradient>
<linearGradient id="paint16_linear_1070_382" x1="117.825" y1="17.5094" x2="108.735" y2="50.232" gradientUnits="userSpaceOnUse">
<stop offset="0.0480769" stop-color="#222227"/>
<stop offset="0.533654" stop-color="#121214"/>
<stop offset="1" stop-color="#121214"/>
</linearGradient>
<linearGradient id="paint17_linear_1070_382" x1="140.367" y1="65.8661" x2="99.2819" y2="-0.30627" gradientUnits="userSpaceOnUse">
<stop stop-opacity="0"/>
<stop offset="1" stop-color="#94949B"/>
</linearGradient>
<clipPath id="clip0_1070_382">
<rect width="136" height="111" fill="white"/>
</clipPath>
</defs>
</svg>
