<svg width="136" height="112" viewBox="0 0 136 112" fill="none" xmlns="http://www.w3.org/2000/svg">
<g clip-path="url(#clip0_1070_312)">
<path d="M8.44141 0.5H112.758C117.411 0.500041 121.1 3.91926 121.1 8.03906V69.9609C121.1 74.0807 117.411 77.5 112.758 77.5H8.44141C3.78848 77.5 0.0996094 74.0807 0.0996094 69.9609V8.03906C0.0996094 3.91926 3.78848 0.50004 8.44141 0.5Z" fill="url(#paint0_linear_1070_312)" stroke="url(#paint1_linear_1070_312)" stroke-miterlimit="10"/>
<path d="M8.26172 0.5H105.738C110.038 0.500192 113.5 3.88844 113.5 8.03906V69.9609C113.5 74.1116 110.038 77.4998 105.738 77.5H8.26172C3.96201 77.4998 0.5 74.1116 0.5 69.9609V8.03906C0.5 4.01809 3.7491 0.712502 7.86133 0.509766L8.26172 0.5Z" fill="url(#paint2_linear_1070_312)" stroke="url(#paint3_linear_1070_312)" stroke-miterlimit="10"/>
<path d="M70.5 7.5C73.8137 7.5 76.5 10.1863 76.5 13.5C76.5 16.8137 73.8137 19.5 70.5 19.5C67.1863 19.5 64.5 16.8137 64.5 13.5C64.5 10.1863 67.1863 7.5 70.5 7.5Z" fill="url(#paint4_linear_1070_312)" stroke="url(#paint5_linear_1070_312)" stroke-miterlimit="10"/>
<path d="M80 32C80 27.0295 75.7467 23 70.5 23C65.2533 23 61 27.0295 61 32" stroke="url(#paint6_linear_1070_312)" stroke-miterlimit="10"/>
<path d="M50.5 7.5C53.8137 7.5 56.5 10.1863 56.5 13.5C56.5 16.8137 53.8137 19.5 50.5 19.5C47.1863 19.5 44.5 16.8137 44.5 13.5C44.5 10.1863 47.1863 7.5 50.5 7.5Z" fill="url(#paint7_linear_1070_312)" stroke="url(#paint8_linear_1070_312)" stroke-miterlimit="10"/>
<path d="M60 32C60 27.0295 55.7467 23 50.5 23C45.2533 23 41 27.0295 41 32" stroke="url(#paint9_linear_1070_312)" stroke-miterlimit="10"/>
<g clip-path="url(#clip1_1070_312)">
<path d="M24.071 30.4702C24.071 28.6512 25.6602 27.9979 27.4396 27.9979C29.2189 27.9979 31.1188 28.563 31.1188 28.563L32.2591 21.6406C32.2591 21.6406 29.8408 20.793 24.071 20.793C20.53 20.793 18.4743 22.1701 16.9714 24.201C15.5546 26.1258 15.5032 29.2162 15.5032 31.2116V35.7499H10.9258V42.5135H15.5032V65.9999H24.071V42.5135H30.8595L31.3603 35.7499H24.071V30.4696V30.4702Z" fill="url(#paint10_linear_1070_312)" stroke="url(#paint11_linear_1070_312)" stroke-miterlimit="10"/>
</g>
<path d="M48.5 81.5H77.5C78.0523 81.5 78.5 81.9477 78.5 82.5V109.5C78.5 110.052 78.0523 110.5 77.5 110.5H48.5C47.9477 110.5 47.5 110.052 47.5 109.5V82.5L47.5049 82.3975C47.5562 81.8933 47.9823 81.5 48.5 81.5Z" fill="url(#paint12_linear_1070_312)" stroke="url(#paint13_linear_1070_312)" stroke-miterlimit="10"/>
<path d="M72.4971 106.106C73.0504 106.105 73.4999 106.553 73.5 107.106V110.5C73.5 111.052 73.0523 111.5 72.5 111.5H36.5C35.9477 111.5 35.5 111.052 35.5 110.5V107.229C35.5 106.679 35.9461 106.231 36.4971 106.229L72.4971 106.106Z" fill="url(#paint14_linear_1070_312)" stroke="url(#paint15_linear_1070_312)" stroke-miterlimit="10"/>
<path d="M82.5 81.5V109C82.4999 110.381 81.3807 111.5 80 111.5H71.5C70.9478 111.5 70.5001 111.052 70.5 110.5V107.106C70.5 106.554 70.9477 106.106 71.5 106.106H76.5771C77.1293 106.106 77.5769 105.659 77.5771 105.106V81.5H82.5Z" fill="url(#paint16_linear_1070_312)" stroke="url(#paint17_linear_1070_312)" stroke-miterlimit="10"/>
<circle cx="117.1" cy="39.5" r="17.5" fill="url(#paint18_linear_1070_312)" stroke="url(#paint19_linear_1070_312)" stroke-miterlimit="10"/>
<circle cx="112.1" cy="39.5" r="17.5" fill="url(#paint20_linear_1070_312)" stroke="url(#paint21_linear_1070_312)" stroke-miterlimit="10"/>
<path d="M120.1 43.5956C120.1 46.3497 117.754 48.5874 114.846 48.5874H114.105V50.5H110.095V48.5874C106.786 48.5874 104.1 46.0246 104.1 42.8689H108.09C108.09 43.9208 108.992 44.7814 110.095 44.7814H114.846C115.548 44.7814 116.11 44.2459 116.11 43.5956C116.11 43.0027 115.669 42.5055 115.067 42.4098L108.491 41.3579C105.944 40.9563 104.1 38.8907 104.1 36.4235C104.1 33.6694 106.445 31.4126 109.353 31.4126H110.095V29.5H114.105V31.4126C117.413 31.4126 120.1 33.9945 120.1 37.1503H116.11C116.11 36.0984 115.207 35.2377 114.105 35.2377H109.353C108.651 35.2377 108.09 35.7732 108.09 36.4235C108.09 37.0164 108.531 37.5137 109.132 37.6093L115.709 38.6421C118.255 39.0437 120.1 41.1284 120.1 43.5956Z" fill="url(#paint22_linear_1070_312)" stroke="url(#paint23_linear_1070_312)" stroke-miterlimit="10"/>
<path d="M104.098 85.3789L115.637 88.6753L110.361 107.142C109.451 110.328 106.13 112.173 102.943 111.263C99.7572 110.353 97.9121 107.032 98.8224 103.846L104.098 85.3789Z" fill="url(#paint24_linear_1070_312)" stroke="url(#paint25_linear_1070_312)" stroke-miterlimit="10"/>
<path d="M92.8031 29.6609C90.5214 38.2169 95.595 47.0046 104.146 49.3066L128.938 55.9497C134.073 57.3257 137.12 62.6042 135.744 67.7379L132.422 80.1349C131.047 85.2686 125.769 88.3167 120.634 86.9408L95.8415 80.2976C87.2855 78.016 78.4978 83.0895 76.1958 91.6401L69.9973 89.9792L86.6046 28L92.8031 29.6609Z" fill="url(#paint26_linear_1070_312)" stroke="url(#paint27_linear_1070_312)" stroke-miterlimit="10"/>
<path d="M70.6119 60.167C70.502 59.3608 70.2367 58.5632 69.8132 57.8234C68.4882 55.4986 65.9211 54.2306 63.2713 54.5981L52.0764 56.1401L52.8184 61.5053L64.0132 59.9633C65.0776 59.818 66.0514 59.2912 66.7596 58.4844L67.242 57.9361C67.5984 57.7099 67.9925 58.1603 67.7255 58.4857L64.1325 62.8317L64.1189 62.8495L57.9691 70.5789L62.2061 73.9549L69.2528 65.0989C70.3901 63.6716 70.8517 61.893 70.6117 60.1665L70.6119 60.167Z" fill="url(#paint28_linear_1070_312)" stroke="url(#paint29_linear_1070_312)" stroke-miterlimit="10"/>
<path d="M70.7206 48.7862L71.269 49.2692C71.4954 49.6258 71.0454 50.0198 70.72 49.7525L66.3731 46.1551L66.3553 46.1415L58.6247 39.9839L55.2529 44.2203L64.1104 51.2758C65.5379 52.4145 67.3161 52.8775 69.0417 52.6386C69.8475 52.5292 70.6446 52.2643 71.3838 51.8412C73.7068 50.5173 74.9726 47.95 74.6034 45.299L73.0543 34.0987L67.6917 34.8373L69.2408 46.0375C69.3867 47.1024 69.914 48.0769 70.721 48.786L70.7206 48.7862Z" fill="url(#paint30_linear_1070_312)" stroke="url(#paint31_linear_1070_312)" stroke-miterlimit="10"/>
</g>
<defs>
<linearGradient id="paint0_linear_1070_312" x1="37.2871" y1="7.74393" x2="84.7272" y2="84.6918" gradientUnits="userSpaceOnUse">
<stop stop-color="#222227"/>
<stop offset="0.73" stop-color="#121214" stop-opacity="0"/>
<stop offset="1" stop-color="#121214" stop-opacity="0"/>
</linearGradient>
<linearGradient id="paint1_linear_1070_312" x1="30.6347" y1="-9" x2="88.9465" y2="93.9901" gradientUnits="userSpaceOnUse">
<stop stop-color="#C0C0CA"/>
<stop offset="1" stop-opacity="0"/>
</linearGradient>
<linearGradient id="paint2_linear_1070_312" x1="35.2161" y1="7.74393" x2="84.0322" y2="81.7315" gradientUnits="userSpaceOnUse">
<stop stop-color="#222227"/>
<stop offset="0.73" stop-color="#121214" stop-opacity="0"/>
<stop offset="1" stop-color="#121214" stop-opacity="0"/>
</linearGradient>
<linearGradient id="paint3_linear_1070_312" x1="29" y1="-9" x2="89.2781" y2="90.4818" gradientUnits="userSpaceOnUse">
<stop stop-color="#C0C0CA"/>
<stop offset="1" stop-opacity="0"/>
</linearGradient>
<linearGradient id="paint4_linear_1070_312" x1="64" y1="13.5" x2="77" y2="13.5" gradientUnits="userSpaceOnUse">
<stop stop-color="#222227"/>
<stop offset="0.73" stop-color="#121214" stop-opacity="0"/>
<stop offset="1" stop-color="#121214" stop-opacity="0"/>
</linearGradient>
<linearGradient id="paint5_linear_1070_312" x1="63.8932" y1="13.5" x2="77.1068" y2="13.5" gradientUnits="userSpaceOnUse">
<stop stop-color="#94949B"/>
<stop offset="1" stop-opacity="0"/>
</linearGradient>
<linearGradient id="paint6_linear_1070_312" x1="60.8993" y1="27.5003" x2="80.1007" y2="27.5003" gradientUnits="userSpaceOnUse">
<stop stop-color="#94949B"/>
<stop offset="1" stop-opacity="0"/>
</linearGradient>
<linearGradient id="paint7_linear_1070_312" x1="44" y1="13.5" x2="57" y2="13.5" gradientUnits="userSpaceOnUse">
<stop stop-color="#222227"/>
<stop offset="0.73" stop-color="#121214" stop-opacity="0"/>
<stop offset="1" stop-color="#121214" stop-opacity="0"/>
</linearGradient>
<linearGradient id="paint8_linear_1070_312" x1="43.8932" y1="13.5" x2="57.1068" y2="13.5" gradientUnits="userSpaceOnUse">
<stop stop-color="#94949B"/>
<stop offset="1" stop-opacity="0"/>
</linearGradient>
<linearGradient id="paint9_linear_1070_312" x1="40.8993" y1="27.5003" x2="60.1007" y2="27.5003" gradientUnits="userSpaceOnUse">
<stop stop-color="#94949B"/>
<stop offset="1" stop-opacity="0"/>
</linearGradient>
<linearGradient id="paint10_linear_1070_312" x1="21.1994" y1="16.3297" x2="21.5795" y2="99.3103" gradientUnits="userSpaceOnUse">
<stop stop-color="#FF5F1F"/>
<stop offset="0.65" stop-color="#531F0A" stop-opacity="0"/>
<stop offset="1" stop-opacity="0"/>
</linearGradient>
<linearGradient id="paint11_linear_1070_312" x1="25.148" y1="96.9309" x2="15.3683" y2="-4.21826" gradientUnits="userSpaceOnUse">
<stop stop-opacity="0"/>
<stop offset="0.27" stop-color="#531F0A" stop-opacity="0"/>
<stop offset="0.64" stop-color="#FF9255"/>
</linearGradient>
<linearGradient id="paint12_linear_1070_312" x1="64.8462" y1="111.264" x2="64.8295" y2="79.4637" gradientUnits="userSpaceOnUse">
<stop stop-color="#222227"/>
<stop offset="0.73" stop-color="#121214" stop-opacity="0"/>
<stop offset="1" stop-color="#121214" stop-opacity="0"/>
</linearGradient>
<linearGradient id="paint13_linear_1070_312" x1="56.8462" y1="111.264" x2="56.4232" y2="81.261" gradientUnits="userSpaceOnUse">
<stop stop-color="#94949B"/>
<stop offset="1" stop-opacity="0"/>
</linearGradient>
<linearGradient id="paint14_linear_1070_312" x1="53.6256" y1="107.151" x2="53.632" y2="111.827" gradientUnits="userSpaceOnUse">
<stop offset="0.0480769" stop-color="#222227"/>
<stop offset="0.533654" stop-color="#121214"/>
<stop offset="1" stop-color="#121214"/>
</linearGradient>
<linearGradient id="paint15_linear_1070_312" x1="61.5417" y1="135.302" x2="59.9864" y2="91.2349" gradientUnits="userSpaceOnUse">
<stop stop-opacity="0"/>
<stop offset="1" stop-color="#94949B"/>
</linearGradient>
<linearGradient id="paint16_linear_1070_312" x1="79.3747" y1="114.929" x2="51.075" y2="74.117" gradientUnits="userSpaceOnUse">
<stop stop-color="#222227"/>
<stop offset="0.73" stop-color="#121214"/>
<stop offset="1" stop-color="#121214"/>
</linearGradient>
<linearGradient id="paint17_linear_1070_312" x1="73.0023" y1="138.903" x2="94.094" y2="86.302" gradientUnits="userSpaceOnUse">
<stop stop-color="#94949B"/>
<stop offset="1" stop-color="#121214"/>
</linearGradient>
<linearGradient id="paint18_linear_1070_312" x1="106.723" y1="50.2277" x2="148.505" y2="17.2159" gradientUnits="userSpaceOnUse">
<stop stop-color="#222227"/>
<stop offset="0.73" stop-color="#121214"/>
<stop offset="1" stop-color="#121214"/>
</linearGradient>
<linearGradient id="paint19_linear_1070_312" x1="104.345" y1="24.9877" x2="136.89" y2="55.2995" gradientUnits="userSpaceOnUse">
<stop stop-color="#94949B"/>
<stop offset="1" stop-color="#94949B" stop-opacity="0"/>
</linearGradient>
<linearGradient id="paint20_linear_1070_312" x1="105.22" y1="25.0741" x2="129.711" y2="50.4712" gradientUnits="userSpaceOnUse">
<stop stop-color="#222227"/>
<stop offset="0.73" stop-color="#121214"/>
<stop offset="1" stop-color="#121214"/>
</linearGradient>
<linearGradient id="paint21_linear_1070_312" x1="103.258" y1="17.3462" x2="134.413" y2="52.5273" gradientUnits="userSpaceOnUse">
<stop stop-color="#C0C0CA"/>
<stop offset="1"/>
</linearGradient>
<linearGradient id="paint22_linear_1070_312" x1="114.826" y1="26.4232" x2="80.8709" y2="81.1338" gradientUnits="userSpaceOnUse">
<stop stop-color="#FF5F1F"/>
<stop offset="0.65" stop-color="#531F0A" stop-opacity="0"/>
<stop offset="1" stop-opacity="0"/>
</linearGradient>
<linearGradient id="paint23_linear_1070_312" x1="110.869" y1="30.1176" x2="125.441" y2="78.2258" gradientUnits="userSpaceOnUse">
<stop offset="0.110577" stop-color="#FF9255"/>
<stop offset="0.423077" stop-color="#531F0A" stop-opacity="0"/>
<stop offset="1" stop-opacity="0"/>
</linearGradient>
<linearGradient id="paint24_linear_1070_312" x1="104.663" y1="114.903" x2="93.4763" y2="74.4872" gradientUnits="userSpaceOnUse">
<stop stop-color="#222227"/>
<stop offset="0.73" stop-color="#121214" stop-opacity="0"/>
<stop offset="1" stop-color="#121214" stop-opacity="0"/>
</linearGradient>
<linearGradient id="paint25_linear_1070_312" x1="93.6528" y1="132.03" x2="120.768" y2="93.8714" gradientUnits="userSpaceOnUse">
<stop stop-color="#94949B"/>
<stop offset="1" stop-opacity="0"/>
</linearGradient>
<linearGradient id="paint26_linear_1070_312" x1="111.676" y1="51" x2="99.1758" y2="96" gradientUnits="userSpaceOnUse">
<stop offset="0.0480769" stop-color="#222227"/>
<stop offset="0.533654" stop-color="#121214"/>
<stop offset="1" stop-color="#121214"/>
</linearGradient>
<linearGradient id="paint27_linear_1070_312" x1="142.676" y1="117.5" x2="86.1758" y2="26.5" gradientUnits="userSpaceOnUse">
<stop stop-opacity="0"/>
<stop offset="1" stop-color="#94949B"/>
</linearGradient>
<linearGradient id="paint28_linear_1070_312" x1="46.5342" y1="65.9713" x2="106.197" y2="54.5174" gradientUnits="userSpaceOnUse">
<stop stop-color="#FF5F1F"/>
<stop offset="0.65" stop-color="#531F0A" stop-opacity="0"/>
<stop offset="1" stop-opacity="0"/>
</linearGradient>
<linearGradient id="paint29_linear_1070_312" x1="56.2736" y1="68.0855" x2="71.6686" y2="52.22" gradientUnits="userSpaceOnUse">
<stop offset="0.110577" stop-color="#FF9255"/>
<stop offset="0.423077" stop-color="#531F0A" stop-opacity="0"/>
<stop offset="1" stop-opacity="0"/>
</linearGradient>
<linearGradient id="paint30_linear_1070_312" x1="48.6334" y1="51.2058" x2="118.374" y2="48.4718" gradientUnits="userSpaceOnUse">
<stop stop-color="#FF5F1F"/>
<stop offset="0.65" stop-color="#531F0A" stop-opacity="0"/>
<stop offset="1" stop-opacity="0"/>
</linearGradient>
<linearGradient id="paint31_linear_1070_312" x1="59.1793" y1="51.3919" x2="74.8125" y2="30.6168" gradientUnits="userSpaceOnUse">
<stop offset="0.110577" stop-color="#FF9255"/>
<stop offset="0.423077" stop-color="#531F0A" stop-opacity="0"/>
<stop offset="1" stop-opacity="0"/>
</linearGradient>
<clipPath id="clip0_1070_312">
<rect width="136" height="112" fill="white"/>
</clipPath>
<clipPath id="clip1_1070_312">
<rect width="32" height="69" fill="white" transform="translate(5 -3)"/>
</clipPath>
</defs>
</svg>
