<svg width="136" height="111" viewBox="0 0 136 111" fill="none" xmlns="http://www.w3.org/2000/svg">
<g clip-path="url(#clip0_1070_434)">
<path d="M78.4313 2.59805L128.42 31.4589C128.764 31.6578 129.015 31.9856 129.118 32.3697L133.615 49.1502C133.718 49.5345 133.664 49.9439 133.465 50.2884L95.8581 115.426C95.4439 116.143 94.5265 116.389 93.8091 115.975L33.1822 80.9717C32.4648 80.5574 32.219 79.6401 32.6332 78.9226L76.3822 3.14709C76.7964 2.42965 77.7138 2.18384 78.4313 2.59805Z" fill="url(#paint0_linear_1070_434)" stroke="url(#paint1_linear_1070_434)" stroke-miterlimit="10"/>
<path d="M92.2072 43.5991C92.696 44.2317 93.3125 44.7834 94.035 45.2111C96.3007 46.5577 99.1033 46.4181 101.174 44.8502L109.927 38.2352L106.666 34.0299L97.9125 40.645C97.0796 41.2727 96.5107 42.1817 96.3048 43.2025L96.1639 43.8969C95.9721 44.2579 95.4165 44.0621 95.4836 43.6592L96.4044 38.2652L96.4073 38.2436L97.8407 28.7642L92.5858 27.9048L90.9431 38.7661C90.6769 40.5174 91.1571 42.2467 92.2076 43.5994L92.2072 43.5991Z" fill="url(#paint2_linear_1070_434)" stroke="url(#paint3_linear_1070_434)" stroke-miterlimit="10"/>
<path d="M97.5257 52.0093L96.8314 51.8684C96.4704 51.6766 96.6662 51.121 97.069 51.1882L102.463 52.109L102.485 52.1118L111.964 53.5453L112.823 48.2905L101.962 46.6477C100.211 46.3816 98.4815 46.8617 97.1289 47.9122C96.4963 48.4009 95.9446 49.0175 95.5169 49.74C94.1704 52.0056 94.31 54.8081 95.8779 56.8788L102.493 65.6321L106.698 62.3707L100.083 53.6174C99.4553 52.7845 98.5464 52.2157 97.5255 52.0097L97.5257 52.0093Z" fill="url(#paint4_linear_1070_434)" stroke="url(#paint5_linear_1070_434)" stroke-miterlimit="10"/>
<path d="M87.8803 48.5375C88.5133 48.0495 89.0659 47.434 89.4948 46.7122C90.845 44.4486 90.7098 41.6459 89.1465 39.573L82.5484 30.8111L78.3391 34.0665L84.9372 42.8284C85.5635 43.6621 86.4708 44.2321 87.4914 44.4394L88.1854 44.5813C88.5458 44.7738 88.3495 45.3285 87.9467 45.2614L82.556 44.3334L82.5344 44.3306L73.0609 42.8844L72.1924 48.1379L83.0471 49.7956C84.7974 50.0639 86.5268 49.5864 87.8811 48.5379L87.8803 48.5375Z" fill="url(#paint6_linear_1070_434)" stroke="url(#paint7_linear_1070_434)" stroke-miterlimit="10"/>
<path d="M133.436 50.005L121.538 43.411L128.989 32.2189L133.436 50.005Z" fill="url(#paint8_linear_1070_434)" stroke="url(#paint9_linear_1070_434)" stroke-miterlimit="10"/>
<rect x="19.6997" y="25.5" width="49" height="85" rx="7.5" fill="url(#paint10_linear_1070_434)" stroke="url(#paint11_linear_1070_434)" stroke-miterlimit="10"/>
<rect x="11.6997" y="25.5" width="49" height="85" rx="7.5" fill="url(#paint12_linear_1070_434)" stroke="url(#paint13_linear_1070_434)" stroke-miterlimit="10"/>
<rect x="18.6997" y="70.5" width="34" height="6" rx="1" fill="url(#paint14_linear_1070_434)" stroke="url(#paint15_linear_1070_434)" stroke-miterlimit="10"/>
<rect x="18.6997" y="57.5" width="34" height="6" rx="1" fill="url(#paint16_linear_1070_434)" stroke="url(#paint17_linear_1070_434)" stroke-miterlimit="10"/>
<rect x="18.6997" y="83.5" width="34" height="6" rx="1" fill="url(#paint18_linear_1070_434)" stroke="url(#paint19_linear_1070_434)" stroke-miterlimit="10"/>
<path d="M34.5526 40.7908C34.8824 40.9223 35.2435 40.9958 35.6179 40.9998C36.7931 41.0142 37.8442 40.3543 38.2943 39.3168L40.1997 34.9359L38.0026 34.064L36.0972 38.445C35.9155 38.8612 35.8985 39.3257 36.0466 39.7537L36.147 40.0449C36.1534 40.222 35.8952 40.2689 35.8313 40.1031L34.9843 37.8784L34.9805 37.8697L33.4206 34L31.1997 34.8164L32.9869 39.2503C33.2746 39.9654 33.8456 40.5106 34.5529 40.7908H34.5526Z" fill="url(#paint20_linear_1070_434)" stroke="url(#paint21_linear_1070_434)" stroke-miterlimit="10"/>
<path d="M38.446 42.8468L38.1548 42.9472C37.9777 42.9536 37.9308 42.6954 38.0966 42.6315L40.3213 41.7845L40.3301 41.7807L44.1997 40.2209L43.3833 38L38.9494 39.7872C38.2343 40.0748 37.6891 40.6458 37.4089 41.3531C37.2774 41.6828 37.2039 42.0439 37.1999 42.4183C37.1855 43.5934 37.8454 44.6445 38.8829 45.0946L43.2638 47L44.1357 44.803L39.7547 42.8976C39.3385 42.7159 38.874 42.6989 38.446 42.847V42.8468Z" fill="url(#paint22_linear_1070_434)" stroke="url(#paint23_linear_1070_434)" stroke-miterlimit="10"/>
<path d="M33.9889 43.6566C34.1208 43.327 34.1949 42.9661 34.1994 42.5918C34.2157 41.4166 33.5574 40.3644 32.5211 39.9125L28.1447 38L27.27 40.1956L31.6464 42.1081C32.0623 42.2904 32.5265 42.3083 32.9546 42.1608L33.2459 42.0608C33.4229 42.0548 33.4695 42.3128 33.3037 42.3767L31.0787 43.2202L31.07 43.224L27.1997 44.7776L28.0124 47L32.4471 45.22C33.1623 44.9334 33.7081 44.3634 33.9893 43.6566H33.9889Z" fill="url(#paint24_linear_1070_434)" stroke="url(#paint25_linear_1070_434)" stroke-miterlimit="10"/>
</g>
<defs>
<linearGradient id="paint0_linear_1070_434" x1="92.2058" y1="20.4628" x2="74.5444" y2="91.4463" gradientUnits="userSpaceOnUse">
<stop stop-color="#222227"/>
<stop offset="0.73" stop-color="#121214"/>
<stop offset="1" stop-color="#121214"/>
</linearGradient>
<linearGradient id="paint1_linear_1070_434" x1="80.3131" y1="-4.66142" x2="73.2166" y2="108.548" gradientUnits="userSpaceOnUse">
<stop stop-color="#C0C0CA"/>
<stop offset="1" stop-opacity="0"/>
</linearGradient>
<linearGradient id="paint2_linear_1070_434" x1="110.894" y1="27.1446" x2="49.9816" y2="53.6981" gradientUnits="userSpaceOnUse">
<stop stop-color="#FF5F1F"/>
<stop offset="0.65" stop-color="#531F0A" stop-opacity="0"/>
<stop offset="1" stop-opacity="0"/>
</linearGradient>
<linearGradient id="paint3_linear_1070_434" x1="99.1009" y1="29.8413" x2="77.7723" y2="73.4502" gradientUnits="userSpaceOnUse">
<stop stop-color="#FF9255"/>
<stop offset="0.317308" stop-color="#531F0A" stop-opacity="0"/>
<stop offset="1" stop-opacity="0"/>
</linearGradient>
<linearGradient id="paint4_linear_1070_434" x1="115.14" y1="39.1052" x2="56.6522" y2="74.7838" gradientUnits="userSpaceOnUse">
<stop stop-color="#FF5F1F"/>
<stop offset="0.65" stop-color="#531F0A" stop-opacity="0"/>
<stop offset="1" stop-opacity="0"/>
</linearGradient>
<linearGradient id="paint5_linear_1070_434" x1="106.095" y1="44.1271" x2="102.98" y2="69.4943" gradientUnits="userSpaceOnUse">
<stop offset="0.110577" stop-color="#FF9255"/>
<stop offset="0.423077" stop-color="#531F0A" stop-opacity="0"/>
<stop offset="1" stop-opacity="0"/>
</linearGradient>
<linearGradient id="paint6_linear_1070_434" x1="72.8261" y1="45.0734" x2="136.352" y2="19.2708" gradientUnits="userSpaceOnUse">
<stop stop-color="#FF5F1F"/>
<stop offset="0.65" stop-color="#531F0A" stop-opacity="0"/>
<stop offset="1" stop-opacity="0"/>
</linearGradient>
<linearGradient id="paint7_linear_1070_434" x1="82.5906" y1="30.7993" x2="65.34" y2="60.6782" gradientUnits="userSpaceOnUse">
<stop offset="0.105769" stop-color="#FF9255"/>
<stop offset="0.504808" stop-color="#531F0A" stop-opacity="0"/>
<stop offset="1" stop-opacity="0"/>
</linearGradient>
<linearGradient id="paint8_linear_1070_434" x1="132.413" y1="33.4848" x2="128.297" y2="66.7018" gradientUnits="userSpaceOnUse">
<stop stop-color="#222227"/>
<stop offset="0.73" stop-color="#121214"/>
<stop offset="1" stop-color="#121214"/>
</linearGradient>
<linearGradient id="paint9_linear_1070_434" x1="129.488" y1="28.5743" x2="120.755" y2="59.5093" gradientUnits="userSpaceOnUse">
<stop stop-color="#C0C0CA"/>
<stop offset="1" stop-opacity="0"/>
</linearGradient>
<linearGradient id="paint10_linear_1070_434" x1="34.6454" y1="33.5382" x2="86.4193" y2="64.7535" gradientUnits="userSpaceOnUse">
<stop stop-color="#222227"/>
<stop offset="0.73" stop-color="#121214"/>
<stop offset="1" stop-color="#121214"/>
</linearGradient>
<linearGradient id="paint11_linear_1070_434" x1="31.919" y1="15.0769" x2="131.321" y2="71.3911" gradientUnits="userSpaceOnUse">
<stop stop-color="#C0C0CA"/>
<stop offset="1" stop-opacity="0"/>
</linearGradient>
<linearGradient id="paint12_linear_1070_434" x1="26.6454" y1="33.5382" x2="78.4193" y2="64.7535" gradientUnits="userSpaceOnUse">
<stop stop-color="#222227"/>
<stop offset="0.73" stop-color="#121214"/>
<stop offset="1" stop-color="#121214"/>
</linearGradient>
<linearGradient id="paint13_linear_1070_434" x1="23.919" y1="15.0769" x2="123.321" y2="71.3911" gradientUnits="userSpaceOnUse">
<stop stop-color="#C0C0CA"/>
<stop offset="1" stop-opacity="0"/>
</linearGradient>
<linearGradient id="paint14_linear_1070_434" x1="29.0117" y1="70.695" x2="30.7838" y2="79.8836" gradientUnits="userSpaceOnUse">
<stop stop-color="#222227"/>
<stop offset="0.73" stop-color="#121214"/>
<stop offset="1" stop-color="#121214"/>
</linearGradient>
<linearGradient id="paint15_linear_1070_434" x1="27.1032" y1="69.1923" x2="30.8187" y2="87.2947" gradientUnits="userSpaceOnUse">
<stop stop-color="#C0C0CA" stop-opacity="0.5"/>
<stop offset="1" stop-opacity="0"/>
</linearGradient>
<linearGradient id="paint16_linear_1070_434" x1="29.0117" y1="57.695" x2="30.7838" y2="66.8836" gradientUnits="userSpaceOnUse">
<stop stop-color="#222227"/>
<stop offset="0.73" stop-color="#121214"/>
<stop offset="1" stop-color="#121214"/>
</linearGradient>
<linearGradient id="paint17_linear_1070_434" x1="27.1032" y1="56.1923" x2="30.8187" y2="74.2947" gradientUnits="userSpaceOnUse">
<stop stop-color="#C0C0CA" stop-opacity="0.5"/>
<stop offset="1" stop-opacity="0"/>
</linearGradient>
<linearGradient id="paint18_linear_1070_434" x1="29.0117" y1="83.695" x2="30.7838" y2="92.8836" gradientUnits="userSpaceOnUse">
<stop stop-color="#222227"/>
<stop offset="0.73" stop-color="#121214"/>
<stop offset="1" stop-color="#121214"/>
</linearGradient>
<linearGradient id="paint19_linear_1070_434" x1="27.1032" y1="82.1923" x2="30.8187" y2="100.295" gradientUnits="userSpaceOnUse">
<stop stop-color="#C0C0CA" stop-opacity="0.5"/>
<stop offset="1" stop-opacity="0"/>
</linearGradient>
<linearGradient id="paint20_linear_1070_434" x1="38.1003" y1="30.5625" x2="21.1343" y2="54.1921" gradientUnits="userSpaceOnUse">
<stop stop-color="#FF5F1F"/>
<stop offset="0.65" stop-color="#531F0A" stop-opacity="0"/>
<stop offset="1" stop-opacity="0"/>
</linearGradient>
<linearGradient id="paint21_linear_1070_434" x1="34.1474" y1="34.1312" x2="35.5527" y2="55.1325" gradientUnits="userSpaceOnUse">
<stop stop-color="#FF9255"/>
<stop offset="0.317308" stop-color="#531F0A" stop-opacity="0"/>
<stop offset="1" stop-opacity="0"/>
</linearGradient>
<linearGradient id="paint22_linear_1070_434" x1="42.2622" y1="33.9364" x2="27.41" y2="60.4026" gradientUnits="userSpaceOnUse">
<stop stop-color="#FF5F1F"/>
<stop offset="0.65" stop-color="#531F0A" stop-opacity="0"/>
<stop offset="1" stop-opacity="0"/>
</linearGradient>
<linearGradient id="paint23_linear_1070_434" x1="39.9548" y1="37.8923" x2="44.4945" y2="48.291" gradientUnits="userSpaceOnUse">
<stop offset="0.110577" stop-color="#FF9255"/>
<stop offset="0.423077" stop-color="#531F0A" stop-opacity="0"/>
<stop offset="1" stop-opacity="0"/>
</linearGradient>
<linearGradient id="paint24_linear_1070_434" x1="27.5861" y1="45.6753" x2="46.4882" y2="22.064" gradientUnits="userSpaceOnUse">
<stop stop-color="#FF5F1F"/>
<stop offset="0.65" stop-color="#531F0A" stop-opacity="0"/>
<stop offset="1" stop-opacity="0"/>
</linearGradient>
<linearGradient id="paint25_linear_1070_434" x1="28.158" y1="37.986" x2="28.158" y2="53.3705" gradientUnits="userSpaceOnUse">
<stop offset="0.105769" stop-color="#FF9255"/>
<stop offset="0.504808" stop-color="#531F0A" stop-opacity="0"/>
<stop offset="1" stop-opacity="0"/>
</linearGradient>
<clipPath id="clip0_1070_434">
<rect width="136" height="111" fill="white"/>
</clipPath>
</defs>
</svg>
