<svg width="137" height="112" viewBox="0 0 137 112" fill="none" xmlns="http://www.w3.org/2000/svg">
<g clip-path="url(#clip0_1070_245)">
<path d="M9.8418 1.5H114.158C118.811 1.50004 122.5 4.91926 122.5 9.03906V70.9609C122.5 75.0807 118.811 78.5 114.158 78.5H9.8418C5.18888 78.5 1.5 75.0807 1.5 70.9609V9.03906C1.5 4.91926 5.18888 1.50004 9.8418 1.5Z" fill="url(#paint0_linear_1070_245)" stroke="url(#paint1_linear_1070_245)" stroke-miterlimit="10"/>
<path d="M9.26172 1.5H106.738C111.038 1.50019 114.5 4.88844 114.5 9.03906V70.9609C114.5 75.1116 111.038 78.4998 106.738 78.5H9.26172C4.96201 78.4998 1.5 75.1116 1.5 70.9609V9.03906C1.5 5.01809 4.7491 1.7125 8.86133 1.50977L9.26172 1.5Z" fill="url(#paint2_linear_1070_245)" stroke="url(#paint3_linear_1070_245)" stroke-miterlimit="10"/>
<g clip-path="url(#clip1_1070_245)">
<path d="M44.2773 42.0212C44.2773 30.2713 54.0028 20.7461 65.9997 20.7461C77.9967 20.7461 87.7221 30.2713 87.7221 42.0212" fill="url(#paint4_linear_1070_245)"/>
<path d="M44.2773 42.0212C44.2773 30.2713 54.0028 20.7461 65.9997 20.7461C77.9967 20.7461 87.7221 30.2713 87.7221 42.0212" stroke="url(#paint5_linear_1070_245)" stroke-miterlimit="10"/>
<path d="M39.001 20.7461H92.9988" stroke="url(#paint6_linear_1070_245)" stroke-miterlimit="10"/>
<path d="M87.7105 46.1315C90.5882 46.1315 92.9211 43.7987 92.9211 40.921C92.9211 38.0433 90.5882 35.7104 87.7105 35.7104C84.8328 35.7104 82.5 38.0433 82.5 40.921C82.5 43.7987 84.8328 46.1315 87.7105 46.1315Z" fill="url(#paint7_linear_1070_245)" stroke="url(#paint8_linear_1070_245)" stroke-miterlimit="10"/>
<path d="M44.2896 46.1315C47.1673 46.1315 49.5002 43.7987 49.5002 40.921C49.5002 38.0433 47.1673 35.7104 44.2896 35.7104C41.4119 35.7104 39.0791 38.0433 39.0791 40.921C39.0791 43.7987 41.4119 46.1315 44.2896 46.1315Z" fill="url(#paint9_linear_1070_245)" stroke="url(#paint10_linear_1070_245)" stroke-miterlimit="10"/>
<path d="M66.8682 26.1579C69.7459 26.1579 72.0788 23.825 72.0788 20.9473C72.0788 18.0696 69.7459 15.7368 66.8682 15.7368C63.9905 15.7368 61.6577 18.0696 61.6577 20.9473C61.6577 23.825 63.9905 26.1579 66.8682 26.1579Z" fill="url(#paint11_linear_1070_245)" stroke="url(#paint12_linear_1070_245)" stroke-miterlimit="10"/>
<path d="M35.0464 14.5454H42.9556C43.784 14.5454 44.4556 15.217 44.4556 16.0454V23.7095C44.4556 24.5379 43.784 25.2095 42.9556 25.2095H35.0464C34.218 25.2095 33.5464 24.5379 33.5464 23.7095V16.0454C33.5464 15.217 34.218 14.5454 35.0464 14.5454Z" fill="url(#paint13_linear_1070_245)" stroke="url(#paint14_linear_1070_245)" stroke-miterlimit="10"/>
<path d="M89.0439 14.5454H96.9531C97.7816 14.5454 98.4531 15.217 98.4531 16.0454V23.7095C98.4531 24.5379 97.7816 25.2095 96.9531 25.2095H89.0439C88.2155 25.2095 87.5439 24.5379 87.5439 23.7095V16.0454C87.5439 15.217 88.2155 14.5454 89.0439 14.5454Z" fill="url(#paint15_linear_1070_245)" stroke="url(#paint16_linear_1070_245)" stroke-miterlimit="10"/>
</g>
<path d="M21 8L21 69" stroke="url(#paint17_linear_1070_245)" stroke-miterlimit="10"/>
<rect x="9" y="18" width="5" height="4" fill="url(#paint18_linear_1070_245)" stroke="url(#paint19_linear_1070_245)" stroke-miterlimit="10"/>
<path d="M9 27H14V31H9V27Z" fill="url(#paint20_linear_1070_245)" stroke="url(#paint21_linear_1070_245)" stroke-miterlimit="10"/>
<path d="M77.5 80.106H49.5C48.6716 80.106 48 80.7775 48 81.606V103.606C48 104.434 48.6716 105.106 49.5 105.106H77.5C78.3284 105.106 79 104.434 79 103.606V81.606C79 80.7775 78.3284 80.106 77.5 80.106Z" fill="url(#paint22_linear_1070_245)" stroke="url(#paint23_linear_1070_245)" stroke-miterlimit="10"/>
<path d="M73.5 104.5H37.5C36.6716 104.5 36 105.172 36 106V109.5C36 110.328 36.6716 111 37.5 111H73.5C74.3284 111 75 110.328 75 109.5V106C75 105.172 74.3284 104.5 73.5 104.5Z" fill="url(#paint24_linear_1070_245)" stroke="url(#paint25_linear_1070_245)" stroke-miterlimit="10"/>
<path d="M78.0772 79.9998V103.106C78.0772 103.934 77.4056 104.606 76.5772 104.606H72.5C71.6716 104.606 71 105.278 71 106.106V109.5C71 110.328 71.6716 111 72.5 111H78.0772H81C82.6569 111 84 109.657 84 108V104.606V79.9998H78.0772Z" fill="url(#paint26_linear_1070_245)" stroke="url(#paint27_linear_1070_245)" stroke-miterlimit="10"/>
<path d="M136.861 86.4337L131.822 73.3349L125.05 55.7311C123.365 51.3444 120.024 47.9998 115.886 46.283C113.958 45.4768 111.844 45.0255 109.654 45.0019C102.777 44.9146 96.6293 48.9634 93.9959 55.328L81.1588 86.2893C80.5094 87.856 81.9573 89.4814 83.5845 89.0106C88.2223 87.6683 93.0695 88.0469 97.3276 89.8518C97.3349 89.8551 97.3423 89.8584 97.3496 89.8616V98.4669H120.649V90.0518C124.89 88.1905 129.747 87.7703 134.402 89.1036C136.013 89.5654 137.462 87.9996 136.86 86.4337H136.861Z" fill="url(#paint28_linear_1070_245)" stroke="url(#paint29_linear_1070_245)" stroke-miterlimit="10"/>
<path d="M110.027 63.9709L110.255 63.2767C110.27 62.8545 109.682 62.7426 109.537 63.1379L107.61 68.441L107.601 68.4618L104.053 77.6858L99 75.7398L103.066 65.1708C103.72 63.4661 105.019 62.1665 106.628 61.4988C107.379 61.1852 108.2 61.01 109.052 61.0006C111.725 60.9661 114.117 62.5391 115.141 65.0121L119.476 75.455L114.477 77.5333L110.142 67.0904C109.729 66.0983 109.69 64.9909 110.027 63.9709L110.027 63.9709Z" fill="url(#paint30_linear_1070_245)" stroke="url(#paint31_linear_1070_245)" stroke-miterlimit="10"/>
<path d="M65.3705 50.731C65.8102 50.9001 66.2916 50.9946 66.7908 50.9997C68.3577 51.0183 69.7592 50.1699 70.3593 48.8359L72.8999 43.2033L69.9705 42.0823L67.4299 47.7149C67.1876 48.2501 67.165 48.8474 67.3624 49.3976L67.4963 49.772C67.5048 49.9997 67.1605 50.0601 67.0754 49.8469L65.946 46.9865L65.941 46.9753L63.8611 42L60.8999 43.0497L63.2829 48.7503C63.6664 49.6699 64.4278 50.3708 65.3708 50.731H65.3705Z" fill="url(#paint32_linear_1070_245)" stroke="url(#paint33_linear_1070_245)" stroke-miterlimit="10"/>
<path d="M70.5023 53.4624L70.1279 53.5962C69.9002 53.6048 69.8398 53.2605 70.053 53.1753L72.9134 52.046L72.9246 52.041L77.8999 49.9611L76.8502 47L71.1496 49.3829C70.23 49.7665 69.5291 50.5278 69.1689 51.4708C68.9998 51.9104 68.9053 52.3919 68.9002 52.891C68.8816 54.4579 69.73 55.8594 71.064 56.4595L76.6966 59L77.8176 56.0707L72.185 53.5301C71.6498 53.2879 71.0525 53.2652 70.5023 53.4626V53.4624Z" fill="url(#paint34_linear_1070_245)" stroke="url(#paint35_linear_1070_245)" stroke-miterlimit="10"/>
<path d="M64.6289 54.5421C64.7984 54.1027 64.8937 53.6215 64.8995 53.1224C64.9204 51.5555 64.0741 50.1526 62.7417 49.55L57.1149 47L55.9903 49.9275L61.6171 52.4775C62.1518 52.7206 62.7486 52.7443 63.2991 52.5477L63.6736 52.4144C63.9012 52.4064 63.961 52.7504 63.7479 52.8356L60.8872 53.9603L60.876 53.9653L55.8999 56.0368L56.9448 59L62.6465 56.6267C63.5661 56.2445 64.2678 55.4846 64.6294 54.5421H64.6289Z" fill="url(#paint36_linear_1070_245)" stroke="url(#paint37_linear_1070_245)" stroke-miterlimit="10"/>
<path d="M125 104H93V110H125V104Z" fill="url(#paint38_linear_1070_245)" stroke="url(#paint39_linear_1070_245)" stroke-miterlimit="10"/>
</g>
<defs>
<linearGradient id="paint0_linear_1070_245" x1="38.6874" y1="8.74393" x2="86.1275" y2="85.6918" gradientUnits="userSpaceOnUse">
<stop stop-color="#222227"/>
<stop offset="0.73" stop-color="#121214" stop-opacity="0"/>
<stop offset="1" stop-color="#121214" stop-opacity="0"/>
</linearGradient>
<linearGradient id="paint1_linear_1070_245" x1="32.0351" y1="-8" x2="90.3469" y2="94.9901" gradientUnits="userSpaceOnUse">
<stop stop-color="#C0C0CA"/>
<stop offset="1" stop-opacity="0"/>
</linearGradient>
<linearGradient id="paint2_linear_1070_245" x1="36.2161" y1="8.74393" x2="85.0322" y2="82.7315" gradientUnits="userSpaceOnUse">
<stop stop-color="#222227"/>
<stop offset="0.73" stop-color="#121214" stop-opacity="0"/>
<stop offset="1" stop-color="#121214" stop-opacity="0"/>
</linearGradient>
<linearGradient id="paint3_linear_1070_245" x1="30" y1="-8" x2="90.2781" y2="91.4818" gradientUnits="userSpaceOnUse">
<stop stop-color="#C0C0CA"/>
<stop offset="1" stop-opacity="0"/>
</linearGradient>
<linearGradient id="paint4_linear_1070_245" x1="58.1007" y1="21.8658" x2="57.9419" y2="61.0641" gradientUnits="userSpaceOnUse">
<stop offset="0.0384615" stop-color="#222227"/>
<stop offset="0.418269" stop-color="#121214" stop-opacity="0"/>
<stop offset="0.8125" stop-color="#121214" stop-opacity="0"/>
</linearGradient>
<linearGradient id="paint5_linear_1070_245" x1="50.2016" y1="20.7461" x2="50.2016" y2="35.3027" gradientUnits="userSpaceOnUse">
<stop stop-color="#94949B"/>
<stop offset="0.817308" stop-color="#94949B" stop-opacity="0"/>
</linearGradient>
<linearGradient id="paint6_linear_1070_245" x1="46.3643" y1="20.7461" x2="46.3643" y2="21.4303" gradientUnits="userSpaceOnUse">
<stop stop-color="#94949B"/>
<stop offset="0.817308" stop-color="#94949B" stop-opacity="0"/>
</linearGradient>
<linearGradient id="paint7_linear_1070_245" x1="89.8816" y1="35.7104" x2="84.374" y2="50.242" gradientUnits="userSpaceOnUse">
<stop stop-color="#FF5F1F"/>
<stop offset="0.65" stop-color="#531F0A"/>
<stop offset="1" stop-color="#222227"/>
</linearGradient>
<linearGradient id="paint8_linear_1070_245" x1="86.9505" y1="35.4635" x2="87.3543" y2="58.9013" gradientUnits="userSpaceOnUse">
<stop stop-color="#FF9255"/>
<stop offset="0.44" stop-color="#531F0A" stop-opacity="0"/>
<stop offset="1" stop-opacity="0"/>
</linearGradient>
<linearGradient id="paint9_linear_1070_245" x1="46.4607" y1="35.7104" x2="40.9531" y2="50.242" gradientUnits="userSpaceOnUse">
<stop stop-color="#FF5F1F"/>
<stop offset="0.65" stop-color="#531F0A"/>
<stop offset="1" stop-color="#222227"/>
</linearGradient>
<linearGradient id="paint10_linear_1070_245" x1="43.5296" y1="35.4635" x2="43.9334" y2="58.9013" gradientUnits="userSpaceOnUse">
<stop stop-color="#FF9255"/>
<stop offset="0.44" stop-color="#531F0A" stop-opacity="0"/>
<stop offset="1" stop-opacity="0"/>
</linearGradient>
<linearGradient id="paint11_linear_1070_245" x1="69.0393" y1="15.7368" x2="63.5317" y2="30.2684" gradientUnits="userSpaceOnUse">
<stop stop-color="#FF5F1F"/>
<stop offset="0.65" stop-color="#531F0A"/>
<stop offset="1" stop-color="#222227"/>
</linearGradient>
<linearGradient id="paint12_linear_1070_245" x1="66.1082" y1="15.4899" x2="66.512" y2="38.9276" gradientUnits="userSpaceOnUse">
<stop stop-color="#FF9255"/>
<stop offset="0.44" stop-color="#531F0A" stop-opacity="0"/>
<stop offset="1" stop-opacity="0"/>
</linearGradient>
<linearGradient id="paint13_linear_1070_245" x1="35.5684" y1="23.3534" x2="49.1687" y2="12.382" gradientUnits="userSpaceOnUse">
<stop stop-color="#222227"/>
<stop offset="0.769231" stop-color="#121214"/>
<stop offset="1" stop-color="#121214"/>
</linearGradient>
<linearGradient id="paint14_linear_1070_245" x1="34.7818" y1="15.1754" x2="45.3399" y2="25.2159" gradientUnits="userSpaceOnUse">
<stop stop-color="#94949B"/>
<stop offset="1" stop-color="#94949B" stop-opacity="0"/>
</linearGradient>
<linearGradient id="paint15_linear_1070_245" x1="89.5659" y1="23.3534" x2="103.166" y2="12.382" gradientUnits="userSpaceOnUse">
<stop stop-color="#222227"/>
<stop offset="0.769231" stop-color="#121214"/>
<stop offset="1" stop-color="#121214"/>
</linearGradient>
<linearGradient id="paint16_linear_1070_245" x1="88.7794" y1="15.1754" x2="99.3374" y2="25.2159" gradientUnits="userSpaceOnUse">
<stop stop-color="#94949B"/>
<stop offset="1" stop-color="#94949B" stop-opacity="0"/>
</linearGradient>
<linearGradient id="paint17_linear_1070_245" x1="21.1154" y1="23.5175" x2="19.3721" y2="23.5429" gradientUnits="userSpaceOnUse">
<stop stop-color="#C0C0CA" stop-opacity="0.5"/>
<stop offset="1" stop-opacity="0"/>
</linearGradient>
<linearGradient id="paint18_linear_1070_245" x1="12.6161" y1="16.1939" x2="22.963" y2="25.5129" gradientUnits="userSpaceOnUse">
<stop stop-color="#FF5F1F"/>
<stop offset="0.65" stop-color="#531F0A" stop-opacity="0"/>
<stop offset="1" stop-opacity="0"/>
</linearGradient>
<linearGradient id="paint19_linear_1070_245" x1="10.968" y1="17.9521" x2="14.1473" y2="33.9175" gradientUnits="userSpaceOnUse">
<stop stop-color="#FF9255"/>
<stop offset="0.423077" stop-color="#531F0A" stop-opacity="0"/>
<stop offset="1" stop-opacity="0"/>
</linearGradient>
<linearGradient id="paint20_linear_1070_245" x1="10.162" y1="53" x2="10.4209" y2="24.1503" gradientUnits="userSpaceOnUse">
<stop stop-color="#121214"/>
<stop offset="0.27" stop-color="#121214"/>
<stop offset="1" stop-color="#222227"/>
</linearGradient>
<linearGradient id="paint21_linear_1070_245" x1="11.7817" y1="34.5" x2="8.79432" y2="28.2222" gradientUnits="userSpaceOnUse">
<stop stop-color="#121214"/>
<stop offset="1" stop-color="#94949B"/>
</linearGradient>
<linearGradient id="paint22_linear_1070_245" x1="65.2885" y1="105.326" x2="65.2765" y2="78.8257" gradientUnits="userSpaceOnUse">
<stop stop-color="#222227"/>
<stop offset="0.73" stop-color="#121214" stop-opacity="0"/>
<stop offset="1" stop-color="#121214" stop-opacity="0"/>
</linearGradient>
<linearGradient id="paint23_linear_1070_245" x1="57.5385" y1="105.326" x2="57.2353" y2="80.3221" gradientUnits="userSpaceOnUse">
<stop stop-color="#94949B"/>
<stop offset="1" stop-opacity="0"/>
</linearGradient>
<linearGradient id="paint24_linear_1070_245" x1="54.6256" y1="105.747" x2="54.633" y2="110.812" gradientUnits="userSpaceOnUse">
<stop offset="0.0480769" stop-color="#222227"/>
<stop offset="0.533654" stop-color="#121214"/>
<stop offset="1" stop-color="#121214"/>
</linearGradient>
<linearGradient id="paint25_linear_1070_245" x1="62.5417" y1="136.244" x2="60.7168" y2="88.5147" gradientUnits="userSpaceOnUse">
<stop stop-opacity="0"/>
<stop offset="1" stop-color="#94949B"/>
</linearGradient>
<linearGradient id="paint26_linear_1070_245" x1="80.3747" y1="113.929" x2="52.075" y2="73.117" gradientUnits="userSpaceOnUse">
<stop stop-color="#222227"/>
<stop offset="0.73" stop-color="#121214"/>
<stop offset="1" stop-color="#121214"/>
</linearGradient>
<linearGradient id="paint27_linear_1070_245" x1="74.0023" y1="137.903" x2="95.094" y2="85.302" gradientUnits="userSpaceOnUse">
<stop stop-color="#94949B"/>
<stop offset="1" stop-color="#121214"/>
</linearGradient>
<linearGradient id="paint28_linear_1070_245" x1="92.8585" y1="87.6662" x2="155.516" y2="35.8156" gradientUnits="userSpaceOnUse">
<stop stop-color="#222227"/>
<stop offset="0.73" stop-color="#121214" stop-opacity="0"/>
<stop offset="1" stop-color="#121214" stop-opacity="0"/>
</linearGradient>
<linearGradient id="paint29_linear_1070_245" x1="89.16" y1="50.1803" x2="137.602" y2="97.4358" gradientUnits="userSpaceOnUse">
<stop stop-color="#94949B"/>
<stop offset="1" stop-color="#94949B" stop-opacity="0"/>
</linearGradient>
<linearGradient id="paint30_linear_1070_245" x1="96" y1="72.186" x2="151.279" y2="40.1095" gradientUnits="userSpaceOnUse">
<stop stop-color="#FF5F1F"/>
<stop offset="0.65" stop-color="#531F0A" stop-opacity="0"/>
<stop offset="1" stop-opacity="0"/>
</linearGradient>
<linearGradient id="paint31_linear_1070_245" x1="98.7549" y1="67.5674" x2="122.755" y2="77.5674" gradientUnits="userSpaceOnUse">
<stop offset="0.110577" stop-color="#FF9255"/>
<stop offset="0.423077" stop-color="#531F0A" stop-opacity="0"/>
<stop offset="1" stop-opacity="0"/>
</linearGradient>
<linearGradient id="paint32_linear_1070_245" x1="70.1007" y1="37.5803" x2="48.5521" y2="68.704" gradientUnits="userSpaceOnUse">
<stop stop-color="#FF5F1F"/>
<stop offset="0.65" stop-color="#531F0A" stop-opacity="0"/>
<stop offset="1" stop-opacity="0"/>
</linearGradient>
<linearGradient id="paint33_linear_1070_245" x1="64.8302" y1="42.1687" x2="66.573" y2="69.1788" gradientUnits="userSpaceOnUse">
<stop stop-color="#FF9255"/>
<stop offset="0.317308" stop-color="#531F0A" stop-opacity="0"/>
<stop offset="1" stop-opacity="0"/>
</linearGradient>
<linearGradient id="paint34_linear_1070_245" x1="75.4088" y1="41.5818" x2="55.237" y2="76.2439" gradientUnits="userSpaceOnUse">
<stop stop-color="#FF5F1F"/>
<stop offset="0.65" stop-color="#531F0A" stop-opacity="0"/>
<stop offset="1" stop-opacity="0"/>
</linearGradient>
<linearGradient id="paint35_linear_1070_245" x1="72.4422" y1="46.8563" x2="78.6443" y2="60.5558" gradientUnits="userSpaceOnUse">
<stop offset="0.110577" stop-color="#FF9255"/>
<stop offset="0.423077" stop-color="#531F0A" stop-opacity="0"/>
<stop offset="1" stop-opacity="0"/>
</linearGradient>
<linearGradient id="paint36_linear_1070_245" x1="56.3966" y1="57.2337" x2="81.7848" y2="26.6532" gradientUnits="userSpaceOnUse">
<stop stop-color="#FF5F1F"/>
<stop offset="0.65" stop-color="#531F0A" stop-opacity="0"/>
<stop offset="1" stop-opacity="0"/>
</linearGradient>
<linearGradient id="paint37_linear_1070_245" x1="57.132" y1="46.9814" x2="57.132" y2="67.494" gradientUnits="userSpaceOnUse">
<stop offset="0.105769" stop-color="#FF9255"/>
<stop offset="0.504808" stop-color="#531F0A" stop-opacity="0"/>
<stop offset="1" stop-opacity="0"/>
</linearGradient>
<linearGradient id="paint38_linear_1070_245" x1="99.7764" y1="108.788" x2="102.993" y2="95.2355" gradientUnits="userSpaceOnUse">
<stop stop-color="#222227"/>
<stop offset="0.73" stop-color="#121214" stop-opacity="0"/>
<stop offset="1" stop-color="#121214" stop-opacity="0"/>
</linearGradient>
<linearGradient id="paint39_linear_1070_245" x1="97.6629" y1="104.581" x2="99.767" y2="115.033" gradientUnits="userSpaceOnUse">
<stop stop-color="#94949B"/>
<stop offset="1" stop-color="#94949B" stop-opacity="0"/>
</linearGradient>
<clipPath id="clip0_1070_245">
<rect width="137" height="112" fill="white"/>
</clipPath>
<clipPath id="clip1_1070_245">
<rect width="66" height="33" fill="white" transform="translate(33 14)"/>
</clipPath>
</defs>
</svg>
