<svg width="136" height="111" viewBox="0 0 136 111" fill="none" xmlns="http://www.w3.org/2000/svg">
<g clip-path="url(#clip0_1070_217)">
<path d="M9.3418 0.5H113.658C118.311 0.500041 122 3.91926 122 8.03906V69.9609C122 74.0807 118.311 77.5 113.658 77.5H9.3418C4.68888 77.5 1 74.0807 1 69.9609V8.03906C1 3.91926 4.68888 0.50004 9.3418 0.5Z" fill="url(#paint0_linear_1070_217)" stroke="url(#paint1_linear_1070_217)" stroke-miterlimit="10"/>
<path d="M8.76172 0.5H106.238C110.538 0.500192 114 3.88844 114 8.03906V69.9609C114 74.1116 110.538 77.4998 106.238 77.5H8.76172C4.46201 77.4998 1 74.1116 1 69.9609V8.03906C1 4.01809 4.2491 0.712502 8.36133 0.509766L8.76172 0.5Z" fill="url(#paint2_linear_1070_217)" stroke="url(#paint3_linear_1070_217)" stroke-miterlimit="10"/>
<path d="M13.0586 8.5C14.9341 8.5 16.4551 10.0195 16.4551 11.8945C16.455 13.7695 14.9341 15.2891 13.0586 15.2891C11.1832 15.289 9.6622 13.7694 9.66211 11.8945C9.66211 10.0196 11.1831 8.50009 13.0586 8.5Z" fill="url(#paint4_linear_1070_217)" stroke="url(#paint5_linear_1070_217)" stroke-miterlimit="10"/>
<path d="M22.3965 8.5C24.272 8.5 25.793 10.0195 25.793 11.8945C25.7929 13.7695 24.272 15.2891 22.3965 15.2891C20.5211 15.289 19.0001 13.7694 19 11.8945C19 10.0196 20.521 8.50009 22.3965 8.5Z" fill="url(#paint6_linear_1070_217)" stroke="url(#paint7_linear_1070_217)" stroke-miterlimit="10"/>
<path d="M32.3965 8.5C34.272 8.5 35.793 10.0195 35.793 11.8945C35.7929 13.7695 34.272 15.2891 32.3965 15.2891C30.5211 15.289 29.0001 13.7694 29 11.8945C29 10.0196 30.521 8.50009 32.3965 8.5Z" fill="url(#paint8_linear_1070_217)" stroke="url(#paint9_linear_1070_217)" stroke-miterlimit="10"/>
<path d="M9.3418 0.5H113.658C118.311 0.500041 122 3.91926 122 8.03906V69.9609C122 74.0807 118.311 77.5 113.658 77.5H9.3418C4.68888 77.5 1 74.0807 1 69.9609V8.03906C1 3.91926 4.68888 0.50004 9.3418 0.5Z" fill="url(#paint10_linear_1070_217)" stroke="url(#paint11_linear_1070_217)" stroke-miterlimit="10"/>
<path d="M20.1527 15.7908C20.4825 15.9223 20.8436 15.9958 21.218 15.9998C22.3932 16.0142 23.4443 15.3543 23.8944 14.3168L25.7998 9.93586L23.6027 9.06399L21.6973 13.445C21.5156 13.8612 21.4986 14.3257 21.6467 14.7537L21.7471 15.0449C21.7535 15.222 21.4953 15.2689 21.4314 15.1031L20.5844 12.8784L20.5806 12.8697L19.0207 9L16.7998 9.8164L18.587 14.2503C18.8747 14.9654 19.4457 15.5106 20.153 15.7908H20.1527Z" fill="url(#paint12_linear_1070_217)" stroke="url(#paint13_linear_1070_217)" stroke-miterlimit="10"/>
<path d="M24.0461 17.8468L23.7549 17.9472C23.5778 17.9536 23.5309 17.6954 23.6967 17.6315L25.9214 16.7845L25.9302 16.7807L29.7998 15.2209L28.9834 13L24.5495 14.7872C23.8344 15.0748 23.2892 15.6458 23.009 16.3531C22.8775 16.6828 22.804 17.0439 22.8 17.4183C22.7856 18.5934 23.4455 19.6445 24.483 20.0946L28.8639 22L29.7358 19.803L25.3548 17.8976C24.9386 17.7159 24.4741 17.6989 24.0461 17.847V17.8468Z" fill="url(#paint14_linear_1070_217)" stroke="url(#paint15_linear_1070_217)" stroke-miterlimit="10"/>
<path d="M19.589 18.6566C19.7209 18.327 19.795 17.9661 19.7995 17.5918C19.8157 16.4166 19.1575 15.3644 18.1212 14.9125L13.7448 13L12.8701 15.1956L17.2465 17.1081C17.6624 17.2904 18.1266 17.3083 18.5547 17.1608L18.846 17.0608C19.023 17.0548 19.0696 17.3128 18.9038 17.3767L16.6788 18.2202L16.6701 18.224L12.7998 19.7776L13.6125 22L18.0472 20.22C18.7624 19.9334 19.3082 19.3634 19.5894 18.6566H19.589Z" fill="url(#paint16_linear_1070_217)" stroke="url(#paint17_linear_1070_217)" stroke-miterlimit="10"/>
<rect x="12.7998" y="30" width="81" height="19" rx="1.5" fill="url(#paint18_linear_1070_217)" stroke="url(#paint19_linear_1070_217)" stroke-miterlimit="10"/>
<rect x="13.2998" y="56.5" width="80" height="6" rx="1" fill="url(#paint20_linear_1070_217)" stroke="url(#paint21_linear_1070_217)" stroke-miterlimit="10"/>
<rect x="86.2998" y="25.5" width="49" height="85" rx="7.5" fill="url(#paint22_linear_1070_217)" stroke="url(#paint23_linear_1070_217)" stroke-miterlimit="10"/>
<rect x="78.2998" y="25.5" width="49" height="85" rx="7.5" fill="url(#paint24_linear_1070_217)" stroke="url(#paint25_linear_1070_217)" stroke-miterlimit="10"/>
<rect x="84.7998" y="54" width="35" height="10" rx="1.5" fill="url(#paint26_linear_1070_217)" stroke="url(#paint27_linear_1070_217)" stroke-miterlimit="10"/>
<rect x="85.2998" y="70.5" width="34" height="6" rx="1" fill="url(#paint28_linear_1070_217)" stroke="url(#paint29_linear_1070_217)" stroke-miterlimit="10"/>
<rect x="85.2998" y="83.5" width="34" height="6" rx="1" fill="url(#paint30_linear_1070_217)" stroke="url(#paint31_linear_1070_217)" stroke-miterlimit="10"/>
<path d="M101.153 40.7908C101.483 40.9223 101.844 40.9958 102.218 40.9998C103.393 41.0142 104.444 40.3543 104.894 39.3168L106.8 34.9359L104.603 34.064L102.697 38.445C102.516 38.8612 102.499 39.3257 102.647 39.7537L102.747 40.0449C102.754 40.222 102.495 40.2689 102.431 40.1031L101.584 37.8784L101.581 37.8697L100.021 34L97.7998 34.8164L99.587 39.2503C99.8747 39.9654 100.446 40.5106 101.153 40.7908H101.153Z" fill="url(#paint32_linear_1070_217)" stroke="url(#paint33_linear_1070_217)" stroke-miterlimit="10"/>
<path d="M105.046 42.8468L104.755 42.9472C104.578 42.9536 104.531 42.6954 104.697 42.6315L106.921 41.7845L106.93 41.7807L110.8 40.2209L109.983 38L105.55 39.7872C104.834 40.0748 104.289 40.6458 104.009 41.3531C103.877 41.6828 103.804 42.0439 103.8 42.4183C103.786 43.5934 104.445 44.6445 105.483 45.0946L109.864 47L110.736 44.803L106.355 42.8976C105.939 42.7159 105.474 42.6989 105.046 42.847V42.8468Z" fill="url(#paint34_linear_1070_217)" stroke="url(#paint35_linear_1070_217)" stroke-miterlimit="10"/>
<path d="M100.589 43.6566C100.721 43.327 100.795 42.9661 100.8 42.5918C100.816 41.4166 100.158 40.3644 99.1212 39.9125L94.7448 38L93.8701 40.1956L98.2465 42.1081C98.6624 42.2904 99.1266 42.3083 99.5547 42.1608L99.846 42.0608C100.023 42.0548 100.07 42.3128 99.9038 42.3767L97.6788 43.2202L97.6701 43.224L93.7998 44.7776L94.6125 47L99.0472 45.22C99.7624 44.9334 100.308 44.3634 100.589 43.6566H100.589Z" fill="url(#paint36_linear_1070_217)" stroke="url(#paint37_linear_1070_217)" stroke-miterlimit="10"/>
</g>
<defs>
<linearGradient id="paint0_linear_1070_217" x1="38.1874" y1="7.74393" x2="85.6275" y2="84.6918" gradientUnits="userSpaceOnUse">
<stop stop-color="#222227"/>
<stop offset="0.73" stop-color="#121214" stop-opacity="0"/>
<stop offset="1" stop-color="#121214" stop-opacity="0"/>
</linearGradient>
<linearGradient id="paint1_linear_1070_217" x1="31.5351" y1="-9" x2="89.8469" y2="93.9901" gradientUnits="userSpaceOnUse">
<stop stop-color="#C0C0CA"/>
<stop offset="1" stop-opacity="0"/>
</linearGradient>
<linearGradient id="paint2_linear_1070_217" x1="35.7161" y1="7.74393" x2="84.5322" y2="81.7315" gradientUnits="userSpaceOnUse">
<stop stop-color="#222227"/>
<stop offset="0.73" stop-color="#121214" stop-opacity="0"/>
<stop offset="1" stop-color="#121214" stop-opacity="0"/>
</linearGradient>
<linearGradient id="paint3_linear_1070_217" x1="29.5" y1="-9" x2="89.7781" y2="90.4818" gradientUnits="userSpaceOnUse">
<stop stop-color="#C0C0CA"/>
<stop offset="1" stop-opacity="0"/>
</linearGradient>
<linearGradient id="paint4_linear_1070_217" x1="11.9517" y1="9.57471" x2="15.8897" y2="13.6616" gradientUnits="userSpaceOnUse">
<stop stop-color="#222227"/>
<stop offset="0.73" stop-color="#121214" stop-opacity="0"/>
<stop offset="1" stop-color="#121214" stop-opacity="0"/>
</linearGradient>
<linearGradient id="paint5_linear_1070_217" x1="11.6358" y1="8.33207" x2="16.6451" y2="13.9931" gradientUnits="userSpaceOnUse">
<stop stop-color="#C0C0CA"/>
<stop offset="1" stop-opacity="0"/>
</linearGradient>
<linearGradient id="paint6_linear_1070_217" x1="21.2896" y1="9.57471" x2="25.2275" y2="13.6616" gradientUnits="userSpaceOnUse">
<stop stop-color="#222227"/>
<stop offset="0.73" stop-color="#121214" stop-opacity="0"/>
<stop offset="1" stop-color="#121214" stop-opacity="0"/>
</linearGradient>
<linearGradient id="paint7_linear_1070_217" x1="20.9737" y1="8.33207" x2="25.983" y2="13.9931" gradientUnits="userSpaceOnUse">
<stop stop-color="#C0C0CA"/>
<stop offset="1" stop-opacity="0"/>
</linearGradient>
<linearGradient id="paint8_linear_1070_217" x1="31.2896" y1="9.57471" x2="35.2275" y2="13.6616" gradientUnits="userSpaceOnUse">
<stop stop-color="#222227"/>
<stop offset="0.73" stop-color="#121214" stop-opacity="0"/>
<stop offset="1" stop-color="#121214" stop-opacity="0"/>
</linearGradient>
<linearGradient id="paint9_linear_1070_217" x1="30.9737" y1="8.33207" x2="35.983" y2="13.9931" gradientUnits="userSpaceOnUse">
<stop stop-color="#C0C0CA"/>
<stop offset="1" stop-opacity="0"/>
</linearGradient>
<linearGradient id="paint10_linear_1070_217" x1="38.1874" y1="7.74393" x2="85.6275" y2="84.6918" gradientUnits="userSpaceOnUse">
<stop stop-color="#222227"/>
<stop offset="0.73" stop-color="#121214" stop-opacity="0"/>
<stop offset="1" stop-color="#121214" stop-opacity="0"/>
</linearGradient>
<linearGradient id="paint11_linear_1070_217" x1="31.5351" y1="-9" x2="89.8469" y2="93.9901" gradientUnits="userSpaceOnUse">
<stop stop-color="#C0C0CA"/>
<stop offset="1" stop-opacity="0"/>
</linearGradient>
<linearGradient id="paint12_linear_1070_217" x1="23.7004" y1="5.56248" x2="6.73443" y2="29.1921" gradientUnits="userSpaceOnUse">
<stop stop-color="#FF5F1F"/>
<stop offset="0.65" stop-color="#531F0A" stop-opacity="0"/>
<stop offset="1" stop-opacity="0"/>
</linearGradient>
<linearGradient id="paint13_linear_1070_217" x1="19.7475" y1="9.1312" x2="21.1528" y2="30.1325" gradientUnits="userSpaceOnUse">
<stop stop-color="#FF9255"/>
<stop offset="0.317308" stop-color="#531F0A" stop-opacity="0"/>
<stop offset="1" stop-opacity="0"/>
</linearGradient>
<linearGradient id="paint14_linear_1070_217" x1="27.8623" y1="8.93636" x2="13.0101" y2="35.4026" gradientUnits="userSpaceOnUse">
<stop stop-color="#FF5F1F"/>
<stop offset="0.65" stop-color="#531F0A" stop-opacity="0"/>
<stop offset="1" stop-opacity="0"/>
</linearGradient>
<linearGradient id="paint15_linear_1070_217" x1="25.5549" y1="12.8923" x2="30.0946" y2="23.291" gradientUnits="userSpaceOnUse">
<stop offset="0.110577" stop-color="#FF9255"/>
<stop offset="0.423077" stop-color="#531F0A" stop-opacity="0"/>
<stop offset="1" stop-opacity="0"/>
</linearGradient>
<linearGradient id="paint16_linear_1070_217" x1="13.1862" y1="20.6753" x2="32.0883" y2="-2.93596" gradientUnits="userSpaceOnUse">
<stop stop-color="#FF5F1F"/>
<stop offset="0.65" stop-color="#531F0A" stop-opacity="0"/>
<stop offset="1" stop-opacity="0"/>
</linearGradient>
<linearGradient id="paint17_linear_1070_217" x1="13.7581" y1="12.986" x2="13.7581" y2="28.3705" gradientUnits="userSpaceOnUse">
<stop offset="0.105769" stop-color="#FF9255"/>
<stop offset="0.504808" stop-color="#531F0A" stop-opacity="0"/>
<stop offset="1" stop-opacity="0"/>
</linearGradient>
<linearGradient id="paint18_linear_1070_217" x1="53.3008" y1="28.3398" x2="53.3008" y2="68" gradientUnits="userSpaceOnUse">
<stop stop-color="#FF5F1F"/>
<stop offset="0.54" stop-color="#531F0A" stop-opacity="0"/>
<stop offset="1" stop-color="#121214" stop-opacity="0"/>
</linearGradient>
<linearGradient id="paint19_linear_1070_217" x1="53.7998" y1="79.4" x2="53.7998" y2="27.15" gradientUnits="userSpaceOnUse">
<stop stop-opacity="0"/>
<stop offset="0.504808" stop-color="#531F0A" stop-opacity="0"/>
<stop offset="0.850962" stop-color="#FF9255"/>
</linearGradient>
<linearGradient id="paint20_linear_1070_217" x1="37.8218" y1="56.695" x2="38.6105" y2="66.1596" gradientUnits="userSpaceOnUse">
<stop stop-color="#222227"/>
<stop offset="0.73" stop-color="#121214"/>
<stop offset="1" stop-color="#121214"/>
</linearGradient>
<linearGradient id="paint21_linear_1070_217" x1="33.4051" y1="55.1923" x2="35.0651" y2="73.9101" gradientUnits="userSpaceOnUse">
<stop stop-color="#C0C0CA" stop-opacity="0.5"/>
<stop offset="1" stop-opacity="0"/>
</linearGradient>
<linearGradient id="paint22_linear_1070_217" x1="101.245" y1="33.5382" x2="153.019" y2="64.7535" gradientUnits="userSpaceOnUse">
<stop stop-color="#222227"/>
<stop offset="0.73" stop-color="#121214"/>
<stop offset="1" stop-color="#121214"/>
</linearGradient>
<linearGradient id="paint23_linear_1070_217" x1="98.5191" y1="15.0769" x2="197.921" y2="71.3911" gradientUnits="userSpaceOnUse">
<stop stop-color="#C0C0CA"/>
<stop offset="1" stop-opacity="0"/>
</linearGradient>
<linearGradient id="paint24_linear_1070_217" x1="93.2455" y1="33.5382" x2="145.019" y2="64.7535" gradientUnits="userSpaceOnUse">
<stop stop-color="#222227"/>
<stop offset="0.73" stop-color="#121214"/>
<stop offset="1" stop-color="#121214"/>
</linearGradient>
<linearGradient id="paint25_linear_1070_217" x1="90.5191" y1="15.0769" x2="189.921" y2="71.3911" gradientUnits="userSpaceOnUse">
<stop stop-color="#C0C0CA"/>
<stop offset="1" stop-opacity="0"/>
</linearGradient>
<linearGradient id="paint26_linear_1070_217" x1="102.3" y1="53.1262" x2="102.3" y2="74" gradientUnits="userSpaceOnUse">
<stop stop-color="#FF5F1F"/>
<stop offset="0.54" stop-color="#531F0A" stop-opacity="0"/>
<stop offset="1" stop-color="#121214" stop-opacity="0"/>
</linearGradient>
<linearGradient id="paint27_linear_1070_217" x1="102.516" y1="80" x2="102.516" y2="52.5" gradientUnits="userSpaceOnUse">
<stop stop-opacity="0"/>
<stop offset="0.504808" stop-color="#531F0A" stop-opacity="0"/>
<stop offset="0.850962" stop-color="#FF9255"/>
</linearGradient>
<linearGradient id="paint28_linear_1070_217" x1="95.6118" y1="70.695" x2="97.3839" y2="79.8836" gradientUnits="userSpaceOnUse">
<stop stop-color="#222227"/>
<stop offset="0.73" stop-color="#121214"/>
<stop offset="1" stop-color="#121214"/>
</linearGradient>
<linearGradient id="paint29_linear_1070_217" x1="93.7033" y1="69.1923" x2="97.4188" y2="87.2947" gradientUnits="userSpaceOnUse">
<stop stop-color="#C0C0CA" stop-opacity="0.5"/>
<stop offset="1" stop-opacity="0"/>
</linearGradient>
<linearGradient id="paint30_linear_1070_217" x1="95.6118" y1="83.695" x2="97.3839" y2="92.8836" gradientUnits="userSpaceOnUse">
<stop stop-color="#222227"/>
<stop offset="0.73" stop-color="#121214"/>
<stop offset="1" stop-color="#121214"/>
</linearGradient>
<linearGradient id="paint31_linear_1070_217" x1="93.7033" y1="82.1923" x2="97.4188" y2="100.295" gradientUnits="userSpaceOnUse">
<stop stop-color="#C0C0CA" stop-opacity="0.5"/>
<stop offset="1" stop-opacity="0"/>
</linearGradient>
<linearGradient id="paint32_linear_1070_217" x1="104.7" y1="30.5625" x2="87.7344" y2="54.1921" gradientUnits="userSpaceOnUse">
<stop stop-color="#FF5F1F"/>
<stop offset="0.65" stop-color="#531F0A" stop-opacity="0"/>
<stop offset="1" stop-opacity="0"/>
</linearGradient>
<linearGradient id="paint33_linear_1070_217" x1="100.748" y1="34.1312" x2="102.153" y2="55.1325" gradientUnits="userSpaceOnUse">
<stop stop-color="#FF9255"/>
<stop offset="0.317308" stop-color="#531F0A" stop-opacity="0"/>
<stop offset="1" stop-opacity="0"/>
</linearGradient>
<linearGradient id="paint34_linear_1070_217" x1="108.862" y1="33.9364" x2="94.0101" y2="60.4026" gradientUnits="userSpaceOnUse">
<stop stop-color="#FF5F1F"/>
<stop offset="0.65" stop-color="#531F0A" stop-opacity="0"/>
<stop offset="1" stop-opacity="0"/>
</linearGradient>
<linearGradient id="paint35_linear_1070_217" x1="106.555" y1="37.8923" x2="111.095" y2="48.291" gradientUnits="userSpaceOnUse">
<stop offset="0.110577" stop-color="#FF9255"/>
<stop offset="0.423077" stop-color="#531F0A" stop-opacity="0"/>
<stop offset="1" stop-opacity="0"/>
</linearGradient>
<linearGradient id="paint36_linear_1070_217" x1="94.1862" y1="45.6753" x2="113.088" y2="22.064" gradientUnits="userSpaceOnUse">
<stop stop-color="#FF5F1F"/>
<stop offset="0.65" stop-color="#531F0A" stop-opacity="0"/>
<stop offset="1" stop-opacity="0"/>
</linearGradient>
<linearGradient id="paint37_linear_1070_217" x1="94.7581" y1="37.986" x2="94.7581" y2="53.3705" gradientUnits="userSpaceOnUse">
<stop offset="0.105769" stop-color="#FF9255"/>
<stop offset="0.504808" stop-color="#531F0A" stop-opacity="0"/>
<stop offset="1" stop-opacity="0"/>
</linearGradient>
<clipPath id="clip0_1070_217">
<rect width="136" height="111" fill="white"/>
</clipPath>
</defs>
</svg>
