<svg width="167" height="163" viewBox="0 0 167 163" fill="none" xmlns="http://www.w3.org/2000/svg">
<g clip-path="url(#clip0_960_772)">
<path d="M104.964 0.598193L125.113 8.76974L107.646 49.8306C103.519 59.5597 93.8784 65.7448 83.1045 65.6094C79.6712 65.5755 76.3651 64.8871 73.3364 63.6455C66.8513 61.0157 61.6146 55.9142 58.9789 49.2099L42.5869 7.65236L62.9555 0L77.2552 36.2753L77.2899 36.3544L85.0582 57.2121C85.6477 58.7697 88.0175 58.3295 87.9482 56.6704L87.0234 53.939C85.6593 49.9322 85.8211 45.5756 87.4858 41.6704L104.964 0.598193Z" fill="#FF5F1F"/>
<path d="M166.14 102.449L157.77 122.122L115.715 105.068C105.75 101.038 99.4156 91.6251 99.5544 81.1059C99.589 77.7538 100.294 74.5258 101.566 71.5687C104.259 65.2369 109.484 60.124 116.351 57.5506L158.915 41.5461L166.752 61.4333L129.599 75.3949L129.518 75.4287L108.155 83.0134C106.56 83.589 107.011 85.9027 108.71 85.835L111.507 84.9321C115.611 83.6003 120.073 83.7583 124.073 85.3836L166.128 102.438L166.14 102.449Z" fill="#FF5F1F"/>
<path d="M0.682037 60.3611L9.08612 40.6997L51.1181 57.8216C61.0712 61.8622 67.3945 71.2866 67.2327 81.8058C67.1864 85.1579 66.4813 88.3859 65.2097 91.343C62.5162 97.6748 57.268 102.776 50.4014 105.338L7.81453 121.275L0 101.388L37.1652 87.4829L37.2462 87.4491L58.6205 79.8983C60.2158 79.3227 59.7649 77.0202 58.0656 77.0653L55.2681 77.957C51.1528 79.2775 46.7022 79.1195 42.7025 77.483L0.682037 60.3611Z" fill="#FF5F1F"/>
<path d="M62.574 162.246L42.425 154.074L59.8921 113.002C64.019 103.273 73.66 97.0879 84.4339 97.2234C87.8672 97.2572 91.1734 97.9457 94.2021 99.176C100.687 101.806 105.924 106.907 108.56 113.612L124.952 155.169L104.583 162.821L90.2717 126.557L90.237 126.478L82.4687 105.632C81.8792 104.074 79.5094 104.515 79.5787 106.174L80.5035 108.905C81.8676 112.912 81.7058 117.268 80.0411 121.174L62.574 162.246Z" fill="#FF5F1F"/>
</g>
<defs>
<clipPath id="clip0_960_772">
<rect width="166.752" height="162.844" fill="white"/>
</clipPath>
</defs>
</svg>
