<svg width="25" height="25" viewBox="0 0 25 25" fill="none" xmlns="http://www.w3.org/2000/svg">
<path d="M12.5 0C5.5957 0 0 5.5957 0 12.5C0 19.4043 5.5957 25 12.5 25C19.4043 25 25 19.4043 25 12.5C25 5.5957 19.4043 0 12.5 0ZM18.1543 10.3418L11.9043 16.5918C11.6357 16.8604 11.2891 16.9922 10.9375 16.9922C10.5859 16.9922 10.2373 16.8594 9.97021 16.5923L6.84521 13.4673C6.3125 12.9331 6.3125 12.0664 6.84521 11.5322C7.37939 10.998 8.24609 10.998 8.78027 11.5322L10.9375 13.6914L16.2207 8.4082C16.7549 7.87402 17.6216 7.87402 18.1558 8.4082C18.6865 8.94043 18.6865 9.80957 18.1543 10.3418Z" fill="#FF5F1F"/>
</svg>
