<svg width="40" height="41" viewBox="0 0 40 41" fill="none" xmlns="http://www.w3.org/2000/svg">
<path d="M40 20.9659C40 19.5123 39.8701 18.1145 39.6289 16.7727H20.4082V24.7118H31.3915C30.9091 27.265 29.462 29.4268 27.2913 30.8805V36.0427H33.9147C37.7737 32.4645 40 27.2091 40 20.9659Z" fill="#4285F4"/>
<path d="M20.4082 41C25.9184 41 30.538 39.1736 33.9147 36.0427L27.2913 30.8805C25.4731 32.1105 23.154 32.8559 20.4082 32.8559C15.102 32.8559 10.5937 29.2591 8.97959 24.4136H2.18924V29.7064C5.54731 36.3968 12.4304 41 20.4082 41Z" fill="#34A853"/>
<path d="M8.97959 24.395C8.57143 23.165 8.33024 21.8605 8.33024 20.5C8.33024 19.1395 8.57143 17.835 8.97959 16.605V11.3123H2.18924C0.797774 14.0705 0 17.1827 0 20.5C0 23.8173 0.797774 26.9295 2.18924 29.6877L7.47681 25.5505L8.97959 24.395Z" fill="#FBBC05"/>
<path d="M20.4082 8.16273C23.4137 8.16273 26.0853 9.20636 28.2189 11.2191L34.0631 5.34864C30.5195 2.03136 25.9184 0 20.4082 0C12.4304 0 5.54731 4.60318 2.18924 11.3123L8.97959 16.605C10.5937 11.7595 15.102 8.16273 20.4082 8.16273Z" fill="#EA4335"/>
</svg>
