<svg width="68" height="68" viewBox="0 0 68 68" fill="none" xmlns="http://www.w3.org/2000/svg">
<g clip-path="url(#clip0_960_1564)">
<g clip-path="url(#clip1_960_1564)">
<path d="M32.1739 0.0365295C17.2517 0.707966 4.224 11.6946 0.89877 26.1996C-4.65701 50.4352 16.388 72.1507 40.77 67.3218C55.2193 64.4599 66.4327 52.102 67.8375 37.4081C69.8384 16.4811 53.0985 -0.904983 32.1739 0.0365295ZM61.918 29.785L61.497 29.2867C61.8824 28.8536 61.9708 28.2146 61.536 27.7799C61.4168 27.6607 61.1081 27.5159 60.9385 27.4951C59.6055 27.3316 58.9638 28.8999 60.2187 29.5218L60.0182 30.1778C58.0624 29.4294 58.7637 26.5445 60.8744 26.7087C62.3504 26.8234 63.0826 28.8219 61.918 29.785ZM60.0527 21.0849L60.3671 21.8923C60.3131 22.0974 59.5521 22.9988 59.6609 23.1123L60.9681 23.3429L61.3619 24.1589L59.278 23.7764L58.1896 25.5985L57.8442 24.7919L58.6142 23.4403L57.1266 23.1614L56.783 22.3937L58.9454 22.8203L60.0527 21.0849ZM57.3962 16.9022C57.505 16.9211 58.5778 18.5176 58.6691 18.7068C58.7064 18.784 58.7858 18.8979 58.7367 18.9813L58.2217 19.2252L57.2654 17.8837L56.724 18.2927L57.6321 19.6124L57.0771 20.0365L56.1889 18.6673L55.5487 19.0004C55.4432 19.1793 56.3303 20.2305 56.4497 20.4632L55.9086 20.8144L54.5638 18.8355L57.3962 16.9022ZM51.6472 10.9552L52.2029 11.4342L50.4425 13.5365C50.4088 13.7214 51.4308 14.2954 51.4743 14.5185C51.4979 14.6397 51.1798 15.0154 51.0679 14.9954L49.454 13.5933L51.6472 10.9552ZM45.1383 10.4517C45.8887 9.73675 46.8472 9.12817 47.6017 8.40139L48.4536 8.87804L47.9518 12.5135L47.1964 12.1205L47.2363 11.5009C46.8826 11.3705 46.4307 10.9715 46.1 10.8606C45.8364 10.772 45.7491 11.0983 45.4986 11.1822L44.8123 10.8771C44.7516 10.7937 45.066 10.5208 45.1383 10.4517ZM44.0931 7.60639L43.3796 7.66495C43.2065 6.77728 42.0327 6.65179 41.5522 7.38844C40.8434 8.47539 41.9805 9.71465 43.0694 8.92159L43.4995 9.34912C42.5719 10.4663 40.6958 9.58337 40.5667 8.22055C40.3563 6.00137 43.6792 5.42583 44.0931 7.60639ZM37.7477 5.251L38.5328 5.38292L38.0166 8.74611C37.9216 8.88061 37.4525 8.67447 37.2891 8.71908L37.7477 5.251ZM32.6826 5.11585L34.2472 7.08383L34.2148 4.98929H35.0004L35.0656 8.45695L34.2431 8.39645C33.7305 7.83485 33.3228 7.03727 32.8025 6.50077C32.7474 6.44392 32.7145 6.34696 32.6131 6.36305L32.6455 8.52302L31.9289 8.51915L31.8599 5.05471L32.6826 5.11585ZM29.0449 5.4505L29.6409 8.8109L28.9509 8.98208L28.3253 5.5496L29.0449 5.4505ZM24.3967 6.69662L25.2862 9.24529L25.4039 9.29742L26.6618 8.85916L26.8864 9.50035L24.7931 10.131L23.6806 6.92444L24.3967 6.69662ZM21.5871 8.52602C21.6632 8.63542 21.316 9.06295 21.2317 9.1685C20.134 8.62706 19.2967 9.86246 19.9933 10.807C20.5973 11.6262 21.831 11.3154 21.8569 10.2941L22.5718 10.2235C22.5808 12.2026 19.7122 12.6265 19.0737 10.7452C18.5617 9.23628 20.1664 7.79495 21.5871 8.52602ZM13.7169 13.2381L14.1976 13.6585C14.1971 13.7896 13.194 14.6359 13.117 14.8049C13.0941 14.8553 13.0698 14.8969 13.0937 14.9538L13.6099 15.3639L14.6981 14.2195L15.1794 14.543L15.1773 14.637L14.0725 15.8267L15.1132 16.8645L14.6147 17.3504L12.041 15.0325L13.7169 13.2381ZM9.23866 18.7735C9.44456 18.3822 10.0112 17.904 10.4528 17.8287C12.0172 17.5621 13.2195 19.1566 12.3942 20.5557C11.1788 22.6163 8.12982 20.8807 9.23866 18.7735ZM6.11933 25.925L6.24501 25.8628L6.73423 25.9986C6.81959 26.2762 6.27375 27.5796 6.45241 27.7001C6.62077 27.7188 6.98345 27.9209 7.10227 27.7589L7.46816 26.2603L8.10859 26.4214L7.72232 28.0193L8.50623 28.1493L8.86762 26.5776L9.48381 26.6505L8.96521 29.0666L5.56619 28.2789L6.11933 25.925ZM5.10614 30.8979L5.75944 30.9644L5.70024 31.9403L8.51138 32.1795L8.50794 32.8616L5.62925 32.7303V33.7118L4.97488 33.7122L5.10614 30.8979ZM5.43 38.7147C6.0567 38.5141 7.13852 38.613 7.70602 38.3732C8.2139 38.1587 8.2673 37.3092 7.88832 36.9808C7.4139 36.5702 5.80104 37.1054 5.17435 37.1123L5.0684 36.3915C5.18228 36.2446 7.47996 36.03 7.79181 36.0961C8.83588 36.3173 9.14108 38.0853 8.44467 38.7849C7.82334 39.4089 6.32608 39.2471 5.50121 39.4679L5.43 38.7147ZM6.9382 44.769L6.09273 42.1899L6.74109 41.9552L7.00704 42.8688C7.12307 42.9533 9.3785 41.9603 9.74547 42.0262L9.93721 42.6444L7.26463 43.592L7.59192 44.5719L6.9382 44.769ZM8.12167 47.0901L8.1798 47.0279L11.2496 45.493L11.5087 46.0568L11.4523 46.1747L8.574 47.6869C8.32521 47.7501 8.25958 47.2299 8.12167 47.0901ZM11.4173 52.2155L9.81324 50.0356L10.304 49.6102L10.9513 50.3902L13.1857 48.7635L13.6084 49.4116L11.4137 50.9842C11.3084 51.1809 11.8943 51.6196 11.9044 51.8609L11.4173 52.2155ZM17.0698 53.8566L16.4232 53.9941C16.4343 53.5163 16.021 52.6458 15.4739 52.6795C14.7528 52.7239 15.6952 53.827 15.8252 54.1657C16.1604 55.0394 15.4726 55.693 14.5892 55.4678C14.0783 55.3376 13.3437 54.4928 13.3444 53.9589C13.3448 53.6266 13.751 53.7502 14.002 53.6665C14.0298 54.1172 14.5137 55.072 15.055 54.7518C15.2935 54.4546 14.5176 53.6315 14.4255 53.2763C14.1995 52.4039 14.8691 51.8051 15.721 51.9804C16.3052 52.1007 17.23 53.2014 17.0698 53.8566ZM19.7866 59.3576C19.5642 59.2296 19.1783 59.0547 19.1185 58.7887L18.9731 56.284L17.8522 58.0418C17.722 58.1179 17.2993 57.8125 17.2159 57.6818L18.9791 54.7824L19.6139 55.1196L19.8248 57.8541L21.0031 56.0221L21.6431 56.4466L19.7866 59.3576ZM23.0895 60.859L22.3843 60.5714L23.7791 57.4111L24.3367 57.6267L24.3952 57.7436L23.0895 60.859ZM14.9068 44.5511C7.1561 30.5037 16.8099 13.0431 32.7626 12.2058C50.2595 11.2873 61.7756 30.2887 52.6237 45.3521C43.9591 59.614 22.96 59.1468 14.9068 44.5511ZM48.1278 59.3061C47.7555 59.5475 46.7277 60.0726 46.314 60.2397C46.2499 60.2657 46.1952 60.2942 46.1234 60.2723L45.9531 59.6852L47.3667 58.9305L47.0628 58.3069L45.5687 59.0356L45.2702 58.444L46.6804 57.7239C46.7934 57.5469 46.4487 57.2142 46.4466 57.0035L44.9092 57.7824L44.5525 57.2318L46.7355 56.0925L48.335 59.1212C48.2984 59.2195 48.2072 59.2547 48.1278 59.3061ZM52.1368 56.6419C51.6238 57.2569 50.9371 57.3882 50.1761 57.1992L50.447 56.5552C50.8223 56.5706 51.0055 56.6657 51.3506 56.4443C52.5441 55.6787 51.378 53.8527 50.1418 54.5158C49.7508 54.7254 49.6659 55.1226 49.6562 55.5326L49.0422 55.6341C48.7398 54.9821 49.3411 54.1447 49.9355 53.8512C51.7002 52.9803 53.4284 55.0933 52.1368 56.6419ZM56.8203 51.9049C56.5329 52.1145 54.5874 51.7299 54.101 51.8354L55.6617 53.23L55.2765 53.7028L55.1017 53.6843L52.5917 51.6009C52.5722 51.4761 52.9604 50.999 53.0904 50.9821L55.7364 51.1798L54.1059 49.7996L54.4946 49.1527L57.2394 51.4096C57.0709 51.4965 56.9276 51.8268 56.8203 51.9049ZM58.8752 49.0216C58.8394 49.048 58.2627 48.8084 58.2848 48.6636L59.0726 47.1907L58.4497 46.8698L57.6935 48.2974L57.0513 48.0086L57.8245 46.5744L57.1489 46.2033L56.3807 47.6386C56.2561 47.7117 55.9041 47.4524 55.8072 47.3464L56.9529 45.2317L59.9843 46.9013L58.8752 49.0216ZM61.5242 43.0035L58.8521 42.1463L58.4156 43.4577L57.764 43.329L58.5141 41.1855L61.7524 42.2853L61.5242 43.0035ZM62.632 38.2305L59.8608 37.8373L59.6576 39.2036L59.0146 39.1343L59.3402 36.9898L62.8014 37.5072L62.632 38.2305ZM62.3427 34.7588L62.2779 33.0571H61.5579C61.4708 33.3409 61.7569 34.5945 61.5622 34.7301L60.9692 34.7588L60.9044 33.0571L60.1567 33.0564C60.095 33.0656 60.1119 33.707 60.1164 33.8126C60.1252 34.0273 60.3178 34.7363 60.0772 34.8148L59.53 34.8245L59.4646 32.3376L62.9323 32.2721L62.9977 34.7588H62.3427Z" fill="black"/>
<path d="M44.354 38.9789C42.9507 39.2008 41.4895 39.0133 40.0671 39.0742C39.6748 39.0909 39.2512 39.1866 38.8403 39.1557L34.5096 43.3296H18.5487C18.5189 43.3311 18.4348 43.4975 18.4513 43.298L19.0384 42.6416L34.3133 28.479L44.354 38.9789Z" fill="black"/>
<path d="M50.1101 43.1333L30.582 22.7186L34.2815 16.1782L50.1101 43.1333Z" fill="black"/>
<path d="M45.8591 43.1991V43.4608H43.635V40.124H45.7283V40.3857H44.0929V41.5634H45.6629V41.8906H44.0929V43.1991H45.8591Z" fill="black"/>
<path d="M43.1772 43.3942C42.0728 43.6951 40.3253 43.5503 40.1679 42.1193C39.9705 40.3261 41.7565 39.8407 43.177 40.1893L43.0678 40.4564C41.9203 40.1417 40.5586 40.5179 40.623 41.9256C40.6822 43.2219 42.1024 43.3991 43.1088 43.1348L43.1772 43.3942Z" fill="black"/>
<path d="M39.7101 40.124H39.2522V43.4608H39.7101V40.124Z" fill="black"/>
<path d="M11.6831 20.433C10.7285 21.4483 8.92626 19.8392 10.0349 18.8173C11.003 17.9247 12.6586 19.3958 11.6831 20.433Z" fill="black"/>
<path d="M47.6245 9.37287L47.4287 10.8123L46.5144 10.3217C46.5942 10.2142 47.581 9.31409 47.6245 9.37287Z" fill="black"/>
<path d="M21.4253 38.461L29.893 23.9702L33.2946 27.3647L21.4253 38.461Z" fill="black"/>
</g>
</g>
<defs>
<clipPath id="clip0_960_1564">
<rect width="68" height="68" rx="34" fill="white"/>
</clipPath>
<clipPath id="clip1_960_1564">
<rect width="68" height="68" fill="white"/>
</clipPath>
</defs>
</svg>
