<svg width="68" height="51" viewBox="0 0 68 51" fill="none" xmlns="http://www.w3.org/2000/svg">
<g clip-path="url(#clip0_960_1255)">
<path d="M63.4253 26.8823H57.3804L31.8734 6.21275C31.8004 6.15717 31.7063 6.13174 31.6228 6.17606L6.37011 26.8459H0.0712891L7.54197 20.8584L9.61978 19.2597V10.0585L9.67426 10.004H16.4272L16.4816 10.0585V13.7063L16.6095 13.6707L31.6591 1.71058L31.7764 1.69678L63.4253 26.8823Z" fill="white"/>
<path d="M67.9999 19.2232H62.0276C59.8129 17.5228 57.69 15.696 55.5279 13.9247C52.3534 11.3239 49.1728 8.73494 45.9961 6.13732L45.9166 6.12533L42.676 8.79415L39.7344 6.59211L45.9442 1.66748L67.9999 19.2232Z" fill="white"/>
<path d="M20.9245 28.1109C23.1062 27.7698 24.0597 25.7345 23.4171 23.7039C22.9463 22.2178 21.7349 21.5887 20.2404 21.5077C19.0217 21.4415 17.7427 21.5603 16.5178 21.5091V32.1078H18.0787V27.1715L21.5641 32.1078H23.5246L20.5848 28.1697C20.6655 28.0731 20.8068 28.1294 20.9245 28.1109ZM18.0787 26.9539V22.9247H20.021C20.9521 22.9247 21.9474 23.6984 22.0356 24.6494C22.2503 26.9674 19.7504 27.0349 18.0787 26.9539Z" fill="white"/>
<path d="M4.40517 38.8558C6.45028 38.5372 7.39256 36.7856 6.99407 34.8244C6.64898 33.1258 5.38559 32.3441 3.72116 32.2525C2.50317 32.1857 1.22306 32.3056 -0.00146484 32.254V42.8526H1.55944V37.9164L5.04486 42.8526H7.00534L4.06552 38.9146C4.14653 38.818 4.28783 38.8743 4.40517 38.8558ZM1.55944 37.6984V33.6696H3.50212C4.43677 33.6696 5.42809 34.4404 5.51636 35.3943C5.73104 37.7112 3.2304 37.7805 1.55944 37.6984Z" fill="white"/>
<path d="M61.7964 35.3884C57.947 32.809 53.5578 37.5585 56.2437 41.3393C58.1457 44.0168 62.2196 43.376 63.3166 40.3479H61.8462C60.5908 42.4704 57.4323 41.8983 56.9266 39.5132H63.5342C63.7583 37.9276 63.1383 36.2875 61.7964 35.3884ZM62.0278 38.3878H56.9811C56.9339 38.3733 56.9266 38.3123 56.9288 38.2665C56.9629 37.4761 57.7083 36.6061 58.4022 36.2879C59.8388 35.6289 61.6667 36.4244 62.0289 37.9872C62.0438 38.0518 62.1219 38.3878 62.0278 38.3878Z" fill="white"/>
<path d="M14.4384 35.4028C12.1106 33.8241 8.93725 34.9807 8.21401 37.6899C7.4025 40.7303 9.9569 43.6658 13.1052 42.9066C14.4289 42.5873 15.4642 41.6105 15.9368 40.3474H14.4667C13.2146 42.4681 10.0481 41.8985 9.54715 39.5127H16.1547C16.3763 37.9365 15.7682 36.3044 14.4384 35.4028ZM9.54715 38.3873C9.88461 35.2942 14.3635 35.2924 14.7024 38.3873H9.54715Z" fill="white"/>
<path d="M28.1281 23.9525C25.2231 24.1919 23.3742 27.1302 24.619 29.8346C26.0216 32.882 30.3072 33.1501 32.1079 30.3268C34.0306 27.3126 31.5855 23.6677 28.1281 23.9525ZM29.9254 30.5404C27.7634 31.8336 25.1708 29.8001 25.7934 27.3896C26.0535 26.3819 27.0002 25.4498 28.0547 25.331C31.2441 24.971 32.4846 29.0101 29.9254 30.5404Z" fill="white"/>
<path d="M27.7299 34.6966C24.5468 34.9589 22.713 38.4447 24.5489 41.1578C26.2697 43.7002 30.0577 43.6592 31.7098 41.071C33.6328 38.0578 31.1874 34.4118 27.7299 34.6966ZM29.5273 41.2846C27.5636 42.4597 25.1334 40.8705 25.3052 38.6245C25.3982 37.4105 26.423 36.2143 27.6566 36.0752C30.8448 35.7152 32.0875 39.7524 29.5273 41.2846Z" fill="white"/>
<path d="M37.6406 23.9525C35.1287 24.1595 33.2463 26.4941 33.8384 29.0024C34.7055 32.6738 39.5931 33.4955 41.6204 30.3268C43.5467 27.3165 41.0959 23.6677 37.6406 23.9525ZM40.2048 29.855C38.6744 31.8594 35.4502 30.8793 35.2202 28.3834C35.0909 26.9802 36.1291 25.4934 37.5672 25.331C40.147 25.0397 41.7748 27.7986 40.2048 29.855Z" fill="white"/>
<path d="M40.6253 34.9033V42.8524H39.282V41.9813C39.1843 41.9744 39.1508 42.1234 39.0825 42.1996C38.0574 43.3446 35.8271 43.2484 34.6904 42.3072C33.997 41.7329 33.722 40.9137 33.6185 40.0394L33.5818 34.9033H35.0704L35.0689 39.533C35.1369 40.6111 35.5564 41.5723 36.757 41.6562C38.2823 41.7634 39.0219 40.9261 39.1381 39.4603L39.1367 34.9033H40.6253Z" fill="white"/>
<path d="M54.1493 40.2024L54.1882 40.2761C53.5655 42.027 51.9113 43.1288 50.0452 43.035C46.8403 42.8741 45.2321 39.2231 46.8548 36.5757C48.6638 33.625 53.2455 34.2621 54.2038 37.5528H52.5884C52.017 36.4565 51.2284 35.9683 49.9726 36.0631C47.8842 36.2208 47.1759 38.8253 48.1254 40.4538C49.1327 42.1807 51.7667 42.0564 52.5339 40.2024H54.1493Z" fill="white"/>
<path d="M20.8389 42.9435C19.003 43.3761 17.1958 42.2014 17.2441 40.2391H18.7327C18.7945 41.213 19.3652 41.7913 20.3754 41.6452C21.0655 41.5453 21.4622 40.7284 21.1226 40.1185C20.8022 39.5427 19.3902 39.2725 18.781 38.9386C16.8849 37.8997 17.4003 35.264 19.4153 34.7688C20.9522 34.3914 22.5491 35.3417 22.5451 37.0087H21.0565C20.97 36.3334 20.5548 36.005 19.8752 36.0635C19.2148 36.1205 18.8359 36.887 19.262 37.405C19.6074 37.8245 20.9213 38.0534 21.5033 38.3948C23.43 39.526 23.014 42.4313 20.8389 42.9435Z" fill="white"/>
<path d="M45.5258 23.5974V24.1601H46.9055V25.5393H45.5258V32.1088H44.0372V25.5393H43.3474V24.1601H44.0372V23.4884C44.0372 23.1564 44.2799 22.6377 44.4906 22.3808C45.0812 21.6612 46.0104 21.4691 46.9055 21.5101V22.8894C46.5332 22.8654 45.9679 22.9366 45.7075 23.2345C45.6602 23.2886 45.5258 23.5451 45.5258 23.5974Z" fill="white"/>
<path d="M45.6715 34.6858V36.2104C44.7263 36.2957 44.063 36.6455 43.8153 37.6031C43.7869 37.7121 43.711 38.0248 43.711 38.116V42.8525H42.2224V34.9034H43.602V35.5932C43.6722 35.6095 43.6718 35.5674 43.7041 35.5322C44.2592 34.9234 44.8371 34.6989 45.6715 34.6858Z" fill="white"/>
<path d="M33.0011 14.8318V19.2235H32.3476V17.2997H30.5688V19.2235H29.9153V14.8318H30.5688V16.7193H32.3476V14.8318H33.0011Z" fill="white"/>
<path d="M35.1791 15.4123V16.7193H36.8857V17.2997H35.1791V18.6427H36.8857V19.2235H34.5256V14.8318H36.8857V15.4123H35.1791Z" fill="white"/>
<path d="M28.7173 14.8318V15.4123H27.8822V19.2235H27.2287V15.4123H26.3936V14.8318H28.7173Z" fill="white"/>
<path d="M23.7795 45.3931V48.079H23.5253V45.7196L22.5274 48.043L22.3149 48.0732L21.2745 45.7196V48.079H21.0203V45.3931L21.438 45.429L22.3639 47.6434L23.3618 45.429L23.7795 45.3931Z" fill="white"/>
<path d="M60.3031 46.8453C60.1753 48.1711 58.4382 48.5704 57.6732 47.4962C56.6564 46.0679 58.8846 44.5019 59.9951 45.8649C60.0416 45.9219 60.2047 46.0984 60.0681 46.1195C59.7724 46.1642 59.8324 46.0487 59.6874 45.9183C58.687 45.0163 57.185 46.1823 57.8773 47.3288C58.3684 48.1425 59.6845 48.0128 59.9766 47.0992H58.488V46.8453H60.3031Z" fill="white"/>
<path d="M56.3826 45.3931V48.079L56.0909 48.0259L54.5311 45.756V48.079H54.2769V45.3931L54.6579 45.4298L56.1284 47.6071V45.3931H56.3826Z" fill="white"/>
<path d="M18.4702 45.3666C16.4523 45.6234 17.1698 48.7074 19.1419 48.0343C20.738 47.4894 20.1633 45.1508 18.4702 45.3666ZM19.3482 47.6598C18.4909 48.2682 17.3038 47.4992 17.5443 46.4734C17.6391 46.0705 18.0201 45.6844 18.4335 45.6197C19.6835 45.4243 20.342 46.954 19.3482 47.6598Z" fill="white"/>
<path d="M3.98438 45.3669C2.19535 45.5743 2.46307 48.2914 4.33274 48.1109C6.17589 47.9325 5.92125 45.142 3.98438 45.3669ZM4.86127 47.6594C4.21214 48.12 3.27821 47.7996 3.06498 47.028C2.89897 46.4261 3.31599 45.7182 3.9466 45.6193C5.19328 45.4246 5.8555 46.9536 4.86127 47.6594Z" fill="white"/>
<path d="M33.8633 45.3665C32.0609 45.5961 32.3584 48.29 34.2124 48.1113C36.0737 47.9315 35.7748 45.1228 33.8633 45.3665ZM34.7409 47.6598C33.8855 48.2671 32.6955 47.5047 32.9374 46.4734C33.0318 46.0705 33.4133 45.6844 33.8263 45.6197C35.0733 45.425 35.7326 46.9558 34.7409 47.6598Z" fill="white"/>
<path d="M11.471 48.0255C11.5088 48.1217 11.1975 48.0807 11.1448 48.0607L10.2734 46.863C10.4943 46.8293 10.7024 46.8681 10.9156 46.7799C11.3537 46.5982 11.3944 45.9825 10.9966 45.7406C10.9734 45.7264 10.7761 45.6472 10.7634 45.6472H9.98279V48.0792H9.72852V45.3933C10.0456 45.4202 10.4176 45.3566 10.7271 45.3933C11.7689 45.5168 11.8358 46.9204 10.7816 47.0632L11.471 48.0255Z" fill="white"/>
<path d="M41.3515 48.0255C41.3893 48.1221 41.078 48.0803 41.0253 48.0611L40.1539 46.863C40.5713 46.8787 41.1637 46.7828 41.1637 46.2462C41.1637 46.0054 40.8931 45.6472 40.6439 45.6472H39.8633V48.0792H39.6094V45.3933C39.9261 45.4202 40.2981 45.3566 40.6076 45.3933C41.6516 45.5168 41.7144 46.9273 40.6621 47.0632L41.3515 48.0255Z" fill="white"/>
<path d="M47.8831 45.4517C47.8181 45.3573 47.6597 45.3842 47.5595 45.411L46.4348 48.0795L46.7073 48.0436C46.8308 47.8445 46.927 47.3944 47.0556 47.2302C47.0996 47.1743 47.1097 47.1779 47.1769 47.1699C47.2994 47.1558 48.274 47.1605 48.323 47.1899L48.7026 48.0443L49.0125 48.0791L47.8831 45.4517ZM47.1969 46.9182L47.6877 45.7565C47.7498 45.7387 47.7981 45.9018 47.8206 45.9498C47.967 46.2647 48.0785 46.5985 48.2137 46.9182H47.1969Z" fill="white"/>
<path d="M16.2272 45.3931V48.079H15.9729V46.8087H14.5933V48.079H14.3394V45.3931H14.5933V46.5544H15.9729V45.3931H16.2272Z" fill="white"/>
<path d="M26.5025 48.079H25.0139V45.3931H26.5025C26.5 45.4813 26.5301 45.5885 26.448 45.647H25.2682V46.5907H26.4299V46.845H25.2682V47.8251H26.448C26.5301 47.8839 26.5 47.9907 26.5025 48.079Z" fill="white"/>
<path d="M44.0022 47.3165L44.259 47.3321C44.3052 47.5337 44.3927 47.7851 44.6183 47.8439C45.2547 48.0088 45.6757 47.3067 45.1617 46.9376C44.8046 46.6811 44.2078 46.789 44.0912 46.2296C43.8718 45.178 45.5787 45.0254 45.5635 46.0825L45.3106 46.0807C45.315 45.4515 44.3255 45.4606 44.3349 46.0651C44.344 46.6386 45.4265 46.4269 45.6114 47.0687C45.9572 48.2664 44.0382 48.5421 44.0022 47.3165Z" fill="white"/>
<path d="M61.1384 47.3165L61.3953 47.3321C61.441 47.5337 61.5286 47.7851 61.7545 47.8439C62.3909 48.0088 62.8119 47.3067 62.2979 46.9376C61.9409 46.6811 61.3437 46.789 61.2271 46.2296C61.008 45.178 62.7149 45.0254 62.6997 46.0825L62.4469 46.0807C62.4512 45.4515 61.4617 45.4606 61.4712 46.0651C61.4803 46.6386 62.5627 46.4269 62.7476 47.0687C63.0927 48.2642 61.174 48.5435 61.1384 47.3165Z" fill="white"/>
<path d="M8.49511 45.3931V47.2987C8.49511 47.3292 8.38904 47.6278 8.36434 47.6761C8.06611 48.2631 7.11075 48.2548 6.79472 47.6921C6.77583 47.6583 6.67993 47.4229 6.67993 47.4077V45.3931H6.93421V47.2987C6.93421 47.3354 7.02066 47.5374 7.049 47.5831C7.33488 48.0463 8.05594 47.9402 8.19688 47.3997C8.20306 47.3753 8.2412 47.1316 8.2412 47.1171V45.3931H8.49511Z" fill="white"/>
<path d="M38.3738 45.3931V47.2987C38.3738 47.3292 38.2677 47.6278 38.243 47.6761C37.9818 48.1912 37.1558 48.262 36.782 47.8378C36.7279 47.7764 36.5586 47.4709 36.5586 47.4077V45.3931H36.8129V47.2987C36.8129 47.3354 36.8993 47.5374 36.9277 47.5831C37.2135 48.0463 37.9346 47.9402 38.0755 47.3997C38.0817 47.3753 38.1199 47.1316 38.1199 47.1171V45.3931H38.3738Z" fill="white"/>
<path d="M51.7348 45.3941L50.5931 48.0822L50.3595 48.0756L49.2661 45.3941C49.3733 45.4046 49.5208 45.3501 49.5898 45.4511L50.5364 47.7167L51.4405 45.4151L51.7348 45.3941Z" fill="white"/>
<path d="M32.0213 45.3936L31.0772 47.1535V48.0791H30.8232V47.1898L29.8792 45.3936L30.1883 45.4288L30.9678 46.8811L31.7121 45.4292L32.0213 45.3936Z" fill="white"/>
<path d="M2.14064 45.3936L1.19655 47.1535V48.0791H0.942268V47.1898L-0.00146484 45.3936L0.307664 45.4288L1.08721 46.8811L1.83151 45.4292L2.14064 45.3936Z" fill="white"/>
<path d="M53.006 45.3931H52.7517V48.079H53.006V45.3931Z" fill="white"/>
<path d="M66.3303 46.8448V48.0788H66.2217V47.0261L65.7934 47.9956L65.6957 48.0788L65.2049 47.0261V48.0788H65.0959V46.8448L65.2725 46.8495L65.6953 47.8612C65.7709 47.8768 65.7454 47.831 65.7658 47.7882C65.8286 47.6556 66.1112 46.8768 66.1548 46.851C66.1944 46.827 66.2794 46.8521 66.3303 46.8448Z" fill="white"/>
<path d="M64.6228 46.845V46.9536L64.3322 46.9539V48.0789H64.2232V46.9539L63.9326 46.9536L63.933 46.845H64.6228Z" fill="white"/>
<path d="M27.1923 47.6077H26.938V48.0799H27.1923V47.6077Z" fill="white"/>
<path d="M63.389 47.6077H63.1348V48.0799H63.389V47.6077Z" fill="white"/>
</g>
<defs>
<clipPath id="clip0_960_1255">
<rect width="68" height="51" fill="white"/>
</clipPath>
</defs>
</svg>
