<svg width="205" height="68" viewBox="0 0 205 68" fill="none" xmlns="http://www.w3.org/2000/svg">
<g clip-path="url(#clip0_2702_206)">
<path d="M202.468 22.1898C202.073 22.215 201.88 22.4994 201.569 22.557C198.99 23.0412 196.558 23.3436 193.908 23.8404C188.674 24.8195 183.37 25.7519 178.222 26.9597C176.998 27.2459 175.924 27.316 174.514 27.7048C171.869 28.4302 168.865 28.6462 166.419 29.4184C165.493 29.7118 165.44 29.6308 164.419 29.7766C163.694 29.8792 161.903 30.4371 160.999 30.6549C157.109 31.5891 153.117 32.6565 149.2 33.7058C142.618 35.4662 135.972 37.2211 129.587 39.3469C127.838 39.9282 126.331 40.3152 124.544 40.731C121.119 41.5266 117.634 42.9809 114.183 43.6145C109.393 44.4929 104.548 46.5268 99.9054 47.4124C96.6942 48.0244 93.8475 49.0161 90.5505 49.8729C89.4658 50.1537 88.3114 50.2959 87.1606 50.5965C82.7342 51.7521 77.8986 52.7114 73.5794 53.6564C72.677 53.8544 71.469 54.2702 70.7345 54.3944C70.4897 54.4376 70.3503 54.0722 70.0555 54.0578C69.9429 54.0524 69.9965 54.3854 69.8482 54.425C69.4336 54.5348 68.7742 54.3512 68.2774 54.434C68.013 54.4772 67.82 54.7238 67.543 54.7742C65.8096 55.0837 64.0262 55.3321 62.2821 55.5031C62.6305 54.74 63.6277 55.1413 64.0726 55.0316C73.2703 52.7636 82.5305 48.0622 90.9275 43.7693C101.842 38.1895 113.513 31.7007 121.701 22.3878C123.899 19.8877 127.078 15.5606 126.571 12.0795C125.279 3.23283 114.305 1.40769 107.234 0.415919C106.087 0.255724 103.915 0.68951 102.961 0.428519C102.79 0.38172 102.857 0.0793302 102.843 0.0685306C102.752 -0.00166717 102.505 0.432119 102.223 0.428519C102.023 0.426719 101.733 0.111729 101.337 0.055931C100.406 -0.0754648 99.5998 0.0289318 98.8671 0.367321C98.3704 0.595913 96.9604 -0.0862644 95.9561 0.055931C95.563 0.111729 95.261 0.430319 95.0716 0.426719C94.816 0.423119 94.6373 0.0613308 94.3925 0.0973296C90.3557 0.70211 86.1045 0.903704 82.0319 1.51748C81.5369 1.59308 80.5934 1.99267 80.3861 2.04307C79.0494 2.36706 76.5226 2.40126 75.068 2.59385C74.3228 2.69285 73.0987 3.27783 72.3357 3.44342C66.1491 4.78618 60.1216 6.34133 54.4408 8.09807C42.8754 11.6746 29.5944 16.6892 19.2317 23.0322C11.1259 27.9946 -4.2726 38.7763 1.12054 49.9197C4.27994 56.4481 12.241 59.0886 18.5223 60.9714C18.8618 61.074 19.221 61.0938 19.573 61.0848C19.4497 62.0279 18.8117 62.7623 18.4311 63.7217C18.4079 63.7811 18.1774 63.7901 18.1488 63.9107C18.0755 64.2257 18.0898 65.8672 18.1792 66.1768C18.2971 66.5818 19.1459 67.0876 19.4962 67.3773C19.6427 67.4997 19.6999 67.8327 19.7874 67.8849C20.3736 68.2323 22.1552 67.7517 22.6145 67.1182L24.9233 62.6489C25.9937 61.7255 27.1534 62.5877 28.2328 62.7101C30.1145 62.9243 32.4322 62.6885 34.3067 62.8901C34.7839 62.9405 34.816 63.5129 35.5648 62.8775L35.9168 63.2663C36.2957 63.4013 36.7442 62.8775 36.9622 62.9117C37.1606 62.9441 37.3875 63.2915 37.6109 63.3491C37.6877 63.3689 38.5187 62.9585 39.1531 63.0485C39.5105 63.0989 39.3782 63.4373 39.498 63.4301C39.791 63.4157 39.9447 63.0593 40.211 63.0611C40.6255 63.0629 41.0634 63.7613 41.9944 63.0539L42.182 63.4337C43.2131 62.7029 43.5562 63.4733 44.3264 63.4463C44.6624 63.4337 44.498 63.0935 44.8464 63.0503C46.2528 62.8721 48.1184 63.2699 49.514 63.0737C50.1002 62.9909 52.0283 62.0351 52.1016 62.8775L52.3625 62.8865C52.5269 62.8649 52.3839 62.5607 52.5716 62.5175C53.1327 62.3825 54.8929 62.5085 55.5827 62.4347C56.5047 62.3375 57.7002 61.9901 58.4722 61.8083C59.573 61.5491 61.0741 62.1791 62.1963 61.4249C62.8182 62.0909 62.6431 61.6121 63.1345 61.4933C66.93 60.5826 70.8293 60.1236 74.3907 59.3316C77.2303 58.6998 80.2807 58.239 82.8897 57.6613C83.0255 57.6325 82.9969 57.3409 83.1327 57.3085C83.6688 57.1771 84.4962 57.4309 85.0323 57.2995C90.0144 56.0899 95.588 54.5654 100.738 53.291C106.9 51.7665 112.607 50.0781 118.715 48.3592C135.711 43.5785 152.293 38.4505 169.426 34.28C171.063 33.8804 173.447 33.1821 174.973 33.0219C175.248 32.9931 175.515 33.2019 175.651 33.1911C175.806 33.1803 175.795 32.8257 175.929 32.7375C176.333 32.4657 178.147 32.7609 178.89 32.5629C179.074 32.5143 179.203 32.2461 179.45 32.1723C183.329 30.9951 187.275 30.5505 191.163 29.5354C193.83 28.8388 196.975 27.5248 199.623 27.0767C200.3 26.9615 200.838 27.1541 201.617 26.9255C202.028 26.8031 203.78 25.5233 204.178 25.1849C206.029 23.6064 204.45 22.0584 202.468 22.1898ZM70.974 9.12944C70.756 8.90265 69.3997 8.19167 69.7857 7.80648L73.2524 7.42849L73.8564 7.1297C75.6077 7.0811 77.3553 6.55012 79.1691 6.40973C80.0769 6.34133 81.251 6.27473 82.375 6.17753C82.7038 6.14873 82.9719 5.84994 83.2882 5.82834C84.7642 5.72575 86.5977 5.48456 88.2971 5.30096C88.9922 5.22536 89.9894 5.41976 90.5719 5.28116C90.7167 5.24696 90.6166 4.96077 90.949 4.91217C91.1741 4.87978 91.8121 4.87258 92.0087 4.92297C92.1302 4.95357 92.2303 5.85174 92.5716 4.91937C93.2328 5.47376 93.256 4.93737 93.8117 4.91577C96.0741 4.82218 99.2889 4.77538 101.514 4.90497C101.775 4.91937 101.794 5.48276 102.929 5.27756C103.969 5.09037 104.909 5.23076 106.146 5.29556C109.2 5.45216 114.528 6.60952 117.57 8.18447C119.641 9.25543 122.052 11.2516 121.347 13.9317C121.113 14.8191 119.31 17.5226 118.669 18.2533C113.519 24.1266 106.882 28.8316 100.172 32.7483L95.3414 35.5256C95.227 34.6994 95.4969 33.5024 95.3414 32.7357C95.3164 32.6187 94.5569 30.7341 94.4515 30.5703C93.6384 29.3032 90.5648 27.2999 89.1334 26.9291C88.4794 26.7599 87.6448 27.0227 87.0641 26.8805C87.0069 26.8679 86.6727 26.2775 86.0491 26.4359C87.9111 25.1885 90.009 24.3425 91.9015 23.151C93.5169 22.1322 95.8811 20.4151 97.1212 19.0489C98.0898 17.9852 98.3686 17.3156 98.1791 15.836C98.0129 14.5365 96.6638 12.6519 95.3825 12.3531C95.1824 12.3063 93.4168 12.0993 93.315 12.1191C93.1881 12.1425 93.2131 12.4485 93.0755 12.4827C92.2445 12.6897 89.9769 12.8157 88.8046 13.0119C87.4929 13.2297 86.2313 13.1685 84.9787 13.7463C84.6802 13.3575 86.0669 12.2469 86.1884 11.8168C86.3314 11.3182 86.1831 10.6288 86.2295 10.0942C85.6595 9.65322 85.1216 8.53366 84.4318 8.26546C83.9744 8.08727 83.4275 8.18987 82.9522 7.83348C81.1956 8.81805 80.018 10.5334 78.633 11.9391C78.1827 12.3945 77.2571 12.9363 76.8407 13.3809C76.2027 14.0631 75.1627 15.8054 74.3782 16.3886C73.4633 17.069 70.7488 17.4668 69.6087 18.0644L71.2206 14.7759C71.7174 14.3187 72.1123 12.7797 72.1213 12.0399C72.1338 11.0284 71.6584 9.84221 70.974 9.12944ZM73.6777 26.0345C73.1398 26.2397 72.8378 26.8103 71.9318 26.5241L76.0919 21.8064C78.6438 21.153 81.117 20.1685 83.6473 19.5151C84.9232 19.1839 86.0366 19.0093 87.375 18.7717C87.8378 18.6907 88.2399 18.3955 88.7278 18.4261L87.8075 19.2073C83.3096 21.8928 78.5723 24.1608 73.6777 26.0345ZM67.0873 32.3073C68.1452 34.343 71.0401 33.0813 72.7538 32.8437C74.2263 32.6403 83.6134 31.8015 84.3925 32.1633C85.2681 32.5683 86.2671 32.4837 87.4411 32.7717C87.9486 32.8959 88.6563 32.7573 88.9082 33.3639C88.3882 33.2937 88.1523 33.7706 87.761 33.92C85.924 34.6238 83.9225 35.0306 82.0819 35.3834C81.7085 35.4554 81.0115 35.9828 80.5862 36.053C79.5122 36.2312 78.6402 36.1628 77.5698 36.4328C76.0759 36.8089 74.5766 37.0303 73.0844 37.4047C72.509 37.5487 72.1338 37.8043 71.8389 37.8619C70.2664 38.1787 68.5276 38.1553 66.8711 38.5891C66.7353 38.6251 66.7156 39.1669 65.781 38.7619L58.3507 41.2836L66.8675 32.3055H67.0873V32.3073ZM65.8293 25.5089C65.0305 26.2235 64.4765 27.1865 63.8028 27.9676C60.999 31.2111 57.9629 33.9542 54.8625 36.9565C52.0659 39.6673 49.2335 43.4723 45.3414 44.4713C43.4597 44.9537 42.5483 45.0905 43.0255 42.8568C43.642 39.957 44.1942 40.6734 46.2456 39.66C46.3386 39.6151 46.3707 39.4189 46.4458 39.3757C51.8443 36.2582 56.5226 31.6521 61.4011 27.8884L64.5033 24.5603C64.7839 24.5585 65.0037 24.7025 65.2467 24.8033C65.2717 24.8141 65.6434 25.0499 65.7149 25.0949C65.9543 25.2461 65.8972 25.2245 65.8293 25.5089ZM65.4969 14.4663C65.5969 14.5599 64.9733 15.53 64.8571 15.71C61.2063 21.3096 55.5773 25.7447 50.5773 29.9494L47.2731 32.2857C47.2535 32.0355 47.2714 31.7961 47.3518 31.5567C48.4454 28.3438 49.7231 27.1919 51.989 24.8897C54.9215 21.909 60.5773 16.7594 64.1906 14.8659C64.3925 14.7597 65.3825 14.3601 65.4969 14.4663ZM23.1148 56.0197C22.3393 55.8901 21.5226 55.8271 20.7524 55.6651C18.3382 55.1611 15.2324 54.3116 12.9558 53.2604C9.76957 51.7899 4.32104 48.2026 4.96614 44.1203C5.3289 41.8164 6.76564 40.4862 7.86107 38.7511C8.39538 37.9069 8.15771 38.3461 8.6259 37.8169C9.81246 36.4814 10.5433 35.5526 11.9854 34.271C20.5666 26.6519 31.9997 20.7391 42.6484 16.1942C47.0623 14.3097 51.8621 12.5961 56.5977 11.1706C58.4829 10.6018 60.3092 9.85661 62.2803 9.60642C62.3893 10.1266 62.107 9.89081 61.8943 10.0186C58.8779 11.8275 55.8739 14.3205 53.1649 16.7126C52.4215 17.3714 49.5766 20.4349 49.0548 20.6725C48.3221 21.0055 47.3428 20.5231 46.3671 21.2052C45.3897 21.891 45.2646 23.367 44.8017 24.3083C43.5205 26.9165 41.6781 28.7452 40.1216 31.1157L37.3482 34.262H37.0873C36.2599 31.2075 29.8965 34.541 29.5837 36.1592C29.1549 38.3803 30.5898 40.3692 32.5823 41.1324L32.6198 41.5482L23.1148 56.0197ZM54.3371 56.4121C54.0351 56.4427 52.8289 56.9467 52.7342 56.9593C51.3957 57.1429 49.5944 56.7577 48.2417 56.9305C47.9004 56.9737 48.0719 57.2743 47.7288 57.3193C46.7871 57.4381 45.3289 57.3031 44.3139 57.2959C43.7849 57.2923 42.8057 57.1069 42.7217 57.1141C42.6162 57.1231 42.7163 57.4543 42.3696 57.4993C39.8214 57.8341 35.9472 57.5335 33.4311 57.1123L33.0684 57.5047C31.6745 57.0097 30.2342 56.9917 28.6867 56.9431C28.6509 56.6947 28.7152 56.4931 28.8225 56.2717C29.5122 54.8354 31.0723 52.616 32.0051 51.1941C32.3428 50.6775 33.1273 49.8675 33.5097 49.2933C34.9143 47.1982 36.0383 44.8673 37.8003 43.0853C37.895 44.0105 37.6681 45.1643 37.8003 46.0552C38.3167 49.5381 42.2142 50.6955 45.227 50.2995C45.5594 50.2545 45.4611 49.9629 45.6059 49.9287C45.7828 49.8873 46.6566 49.8873 46.7174 49.9413C47.0176 52.7546 47.895 54.0164 50.395 55.1467C50.9883 55.4167 52.5698 56.0449 53.0791 56.0449H56.117C56.1473 56.0449 56.3975 56.2861 56.385 56.4031C55.7095 56.4445 55.0108 56.3437 54.3371 56.4121ZM60.5755 50.0961C59.8035 50.2077 58.5651 49.9359 57.929 50.1015C57.7949 50.1375 57.8164 50.7459 57.4626 50.4579C57.4411 50.4399 57.5108 50.1483 57.3411 50.1015C56.5226 49.8801 53.701 50.5587 53.3471 49.8315C53.3114 49.5633 53.8939 49.2411 54.0816 49.1349C57.7306 47.0704 62.9415 45.3497 67.0087 44.5145C69.5194 43.9997 71.7299 43.2581 74.3675 42.7757C76.469 42.3906 78.9565 42.072 81.444 41.5968C82.4429 41.406 83.4258 41.0586 84.439 40.9254C84.5373 41.4708 84.2799 41.2026 84.019 41.3016C83.6706 41.433 83.3042 41.523 82.9683 41.6922C77.1141 44.6405 70.7006 47.461 64.4336 49.1313C63.6116 49.3509 61.4922 49.9611 60.5755 50.0961Z" fill="black"/>
</g>
<defs>
<clipPath id="clip0_2702_206">
<rect width="205" height="68" fill="white"/>
</clipPath>
</defs>
</svg>
