<svg width="68" height="53" viewBox="0 0 68 53" fill="none" xmlns="http://www.w3.org/2000/svg">
<g clip-path="url(#clip0_960_783)">
<path d="M34 -7.5C52.7777 -7.5 68 7.72232 68 26.5C68 45.2777 52.7777 60.5 34 60.5C15.2223 60.5 0 45.2777 0 26.5C0 7.72232 15.2223 -7.5 34 -7.5ZM46.2188 21.0535C46.2188 21.0542 46.2182 21.0547 46.2176 21.0547H43.7514C42.227 21.0547 41.6372 19.739 41.4513 18.226C41.4002 17.8099 41.2005 17.4189 40.7402 17.0703C39.0449 15.7867 34.4257 16.1499 33.2277 18.1242C32.3193 19.6216 32.7668 20.4604 34.332 20.9544C36.3548 21.5926 38.6 21.9372 40.6546 22.5342C42.4447 23.054 44.4754 23.7839 44.9435 25.7986C44.9525 25.8375 44.9816 25.8695 45.0199 25.8808C45.0616 25.8931 45.1065 25.8795 45.1343 25.8461L59.9339 8.12029C59.9778 8.06781 59.9499 7.98756 59.883 7.97349C59.87 7.97076 59.8565 7.97092 59.8436 7.97397L42.2574 12.1153C42.2418 12.119 42.2282 12.1285 42.2194 12.142C42.195 12.1794 42.2163 12.2296 42.2601 12.2383C44.3932 12.6616 46.5464 14.2094 46.9306 16.4567C47.2155 18.1235 46.6112 19.4788 46.2188 21.0532C46.2188 21.0533 46.2188 21.0534 46.2188 21.0535ZM24.951 28.6952C25.0602 28.3379 25.39 28.0938 25.7637 28.0938H27.4588C29.2986 28.0938 29.3096 30.0339 30.5929 31.3523C30.6899 31.4518 30.813 31.5431 30.9672 31.6246C32.7648 32.5742 37.4896 32.2242 38.8091 30.4784C40.7655 27.8899 38.0063 27.3002 36.0732 26.7842C33.8891 26.2018 30.2268 25.7416 28.554 24.2761C25.9004 21.9512 27.9085 17.144 30.0832 15.1046C30.1127 15.0769 30.1015 15.0283 30.0633 15.0153C30.0538 15.0121 30.0437 15.0116 30.034 15.0139L14.6783 18.629C14.3949 18.6957 14.3779 19.0927 14.6545 19.1834C16.2928 19.959 17.7052 21.3004 18.8932 22.6478C20.5965 24.5787 22.0369 26.7229 23.4122 28.8983C23.8021 29.5152 24.7377 29.3932 24.951 28.6952ZM27.956 45.0267C27.9562 45.0267 27.9564 45.0265 27.9564 45.0263C27.9277 42.4897 27.1807 39.9252 26.2803 37.5732C24.6633 33.3485 22.0854 28.9305 19.2558 25.4063C17.6739 23.4354 15.7325 21.3086 13.4298 20.0819C12.4607 19.5657 11.3245 19.552 10.2534 19.7938L6.06014 20.7407C5.93102 20.7699 5.81315 20.8961 5.94336 20.9199C9.53992 21.5813 13.0727 24.5961 15.6393 27.0943C20.1882 31.5223 24.0909 36.9019 26.9058 42.5916L27.9556 45.0264C27.9557 45.0266 27.9558 45.0267 27.956 45.0267ZM31.6479 41.8784C33.1825 40.0546 34.6839 38.201 36.2431 36.3972C36.3293 36.2975 36.3374 36.1585 36.2067 36.1754C36.0187 36.1993 35.8149 36.2889 35.6177 36.3188C33.9515 36.5758 32.2232 36.625 30.5347 36.4187C29.1582 36.2506 27.9542 37.5791 28.4232 38.8841C28.9878 40.4547 29.5663 42.172 29.4751 43.8644C29.4649 44.0538 29.6975 44.1736 29.8372 44.0452C29.8463 44.0368 29.8547 44.0276 29.8622 44.0176C30.4205 43.2737 31.0516 42.5875 31.6479 41.8784Z" fill="black"/>
<path d="M24.6019 26.8293L23.7242 29.8996C21.7006 26.4208 19.6451 22.9164 17.1021 19.835C15.6746 18.1054 13.9774 16.3818 12.0089 15.3857L10.8384 14.9755L30.5066 10.0264L30.6263 10.0699C27.9843 12.6429 25.4908 18.9105 28.7104 21.9262C30.7204 23.8085 35.121 24.3995 37.7454 25.1475C40.0682 25.8093 43.3836 26.5675 41.0329 29.8919C39.4474 32.134 33.7709 32.5835 31.6101 31.3639C29.889 30.3925 31.3843 28.3252 31.504 26.8293H24.6019Z" fill="white"/>
<path d="M50.6171 18.0789C51.1064 16.1464 51.8599 14.4843 51.5047 12.4394C51.0187 9.64241 48.2631 7.72862 45.5664 7.24223L45.6475 7.12002L67.6297 2.02637L67.8384 2.06955L49.2079 24.0264L49.0447 23.9791C48.4966 21.447 45.9348 20.5393 43.6794 19.8957C41.1176 19.1633 38.3174 18.7404 35.7961 17.9575C33.8446 17.3513 33.2865 16.3223 34.4192 14.4851C35.9121 12.063 41.6724 11.6173 43.7862 13.1922C45.5813 14.5291 44.1985 16.3753 43.9104 18.0805H50.6171V18.0789Z" fill="white"/>
<path d="M27.8376 48.0264L26.556 44.9827C23.1206 37.8713 18.3559 31.1466 12.8032 25.6129C9.67024 22.4904 5.3578 18.7222 0.967552 17.8955C0.834613 17.8706 0.828128 17.9495 0.845151 17.7329L8.22573 16.0264C11.8735 17.2257 14.8695 20.5092 17.2178 23.503C20.671 27.9079 23.8186 33.4299 25.7924 38.7104C26.8916 41.6503 27.8035 44.8566 27.8384 48.0264H27.8376Z" fill="white"/>
<path d="M32.7171 43.8485C31.942 44.7377 31.1207 45.5979 30.3971 46.5317L29.839 47.0264C30.1974 44.6939 29.3641 42.2935 28.5539 40.119C28.0378 38.7336 27.3716 37.3928 26.8384 36.0264C30.308 37.2654 34.1908 37.4681 37.8422 36.9238C38.0959 36.8858 38.36 36.7749 38.6026 36.7451C38.7098 36.7319 38.7209 36.6418 38.8384 36.8113C36.7576 39.124 34.7601 41.5069 32.7171 43.8485Z" fill="white"/>
</g>
<defs>
<clipPath id="clip0_960_783">
<rect width="68" height="53" fill="white"/>
</clipPath>
</defs>
</svg>
