<svg width="108" height="79" viewBox="0 0 108 79" fill="none" xmlns="http://www.w3.org/2000/svg">
<g clip-path="url(#clip0_1468_258)">
<path d="M107.996 66.6159L102.928 78.8572L75.8093 68.8858C69.3868 66.5305 65.2056 60.8088 65.1445 54.3169C65.1218 52.2496 65.527 50.2464 66.2922 48.4095C67.9199 44.4692 71.1934 41.2478 75.5444 39.5688L102.518 29.1429L107.808 41.3054L84.2669 50.4064L84.2126 50.4277L70.6727 55.3857C69.663 55.7612 69.9845 57.1799 71.0711 57.1223L72.846 56.5313C75.4539 55.6588 78.304 55.6951 80.8825 56.6466L108.001 66.618L107.996 66.6159Z" fill="#FF5F1F"/>
<path d="M64.9086 0L77.143 4.88809L67.1315 30.9202C64.7656 37.0847 59.0399 41.0921 52.5483 41.1422C50.4811 41.1617 48.4779 40.7682 46.6412 40.031C42.7031 38.4611 39.4861 35.3125 37.8136 31.1311L27.4287 5.20556L39.597 0.143512L48.6614 22.7683L48.6827 22.8205L53.6192 35.8344C53.9925 36.8042 55.4111 36.4976 55.3557 35.4561L54.7669 33.7513C53.8986 31.2464 53.9392 28.5066 54.8949 26.0343L64.9086 0Z" fill="#FF5F1F"/>
<path d="M0 39.67L5.06641 27.4286L32.1869 37.3958C38.6093 39.751 42.7929 45.4706 42.8562 51.9625C42.8789 54.0298 42.4737 56.033 41.7108 57.8699C40.0831 61.8124 36.8119 65.0316 32.4608 66.7128L5.48975 77.1429L0.196951 64.9804L23.7361 55.8773L23.7904 55.856L37.3303 50.8958C38.3399 50.5204 38.0185 49.1017 36.9319 49.1593L35.1593 49.7502C32.5514 50.6228 29.7012 50.5865 27.1227 49.6371L0.00226602 39.67H0Z" fill="#FF5F1F"/>
</g>
<defs>
<clipPath id="clip0_1468_258">
<rect width="108" height="79" fill="white"/>
</clipPath>
</defs>
</svg>
