<svg width="68" height="68" viewBox="0 0 68 68" fill="none" xmlns="http://www.w3.org/2000/svg">
<rect width="68" height="68" rx="34" fill="black"/>
<path d="M13.7021 41.9996V29.0975H9V26.6553H21.2124V29.0975H16.5322V41.9996H13.7021Z" fill="white"/>
<path d="M31.7396 32.2962C31.4418 31.6337 30.9995 31.1183 30.4116 30.751C29.8237 30.3836 29.1017 30.1998 28.2455 30.1998C27.6359 30.1998 27.0772 30.3046 26.5694 30.5132C26.0613 30.7222 25.6334 31.0393 25.285 31.4639C25.152 31.6265 25.0359 31.8063 24.9366 32.0034V26.6553H22.1501V41.9993H24.9366V35.3213C24.9366 34.3851 25.1616 33.6718 25.6115 33.1817C26.0611 32.6921 26.6636 32.447 27.4183 32.447C28.1002 32.447 28.601 32.6813 28.9204 33.1494C29.2395 33.6178 29.3992 34.3203 29.3992 35.2566V41.9993H32.1857V34.5866C32.1857 33.7221 32.0368 32.9586 31.7393 32.2957L31.7396 32.2962Z" fill="white"/>
<path d="M33.5837 41.9996V30.459H36.3702V41.9996H33.5837Z" fill="white"/>
<path d="M47.2742 32.3073C46.9694 31.6519 46.5233 31.137 45.9353 30.7621C45.3477 30.3875 44.6255 30.2002 43.7693 30.2002C43.1451 30.2002 42.572 30.3157 42.0496 30.546C41.5271 30.7766 41.0843 31.137 40.7216 31.6266C40.5488 31.8602 40.4042 32.13 40.2873 32.4354L40.2211 30.4598H37.6958V42.0002H40.4823V35.4735C40.4823 34.494 40.7034 33.7445 41.1463 33.2258C41.5889 32.7072 42.1803 32.4479 42.9204 32.4479C43.4136 32.4479 43.8091 32.5666 44.1068 32.8045C44.404 33.0423 44.6184 33.3846 44.7489 33.831C44.8796 34.2777 44.9449 34.8251 44.9449 35.4735V42.0002H47.7313V34.5875C47.7313 33.723 47.5789 32.9633 47.2742 32.3076V32.3073Z" fill="white"/>
<path d="M48.8198 41.9993V26.6553H51.6063V35.6672L56.3737 30.4589H59.8131L55.2633 35.2566L59.9655 41.9993H56.8306L53.4346 36.8991L51.6061 38.8224V41.9993H48.8196H48.8198Z" fill="white"/>
<path d="M41.1347 27.6494L40.5707 29.0843L37.5532 27.9155C36.8386 27.6394 36.3734 26.9687 36.3666 26.2077C36.364 25.9654 36.4091 25.7306 36.4943 25.5153C36.6754 25.0534 37.0396 24.6758 37.5238 24.4789L40.5251 23.2568L41.1138 24.6825L38.4943 25.7493L38.4883 25.7518L36.9817 26.333C36.8693 26.377 36.9051 26.5433 37.026 26.5366L37.2235 26.4673C37.5137 26.365 37.8308 26.3693 38.1177 26.4808L41.1352 27.6496L41.1347 27.6494Z" fill="white"/>
<path d="M36.2813 20L37.7259 20.5622L36.5438 23.5561C36.2644 24.265 35.5883 24.7259 34.8218 24.7317C34.5777 24.7339 34.3412 24.6886 34.1243 24.6039C33.6593 24.4233 33.2794 24.0612 33.0819 23.5803L31.8557 20.5987L33.2925 20.0165L34.3628 22.6185L34.3654 22.6245L34.9482 24.1212C34.9923 24.2328 35.1598 24.1975 35.1533 24.0777L35.0838 23.8816C34.9812 23.5936 34.986 23.2785 35.0989 22.9941L36.2813 20Z" fill="white"/>
<path d="M28.8201 24.5297L29.3838 23.0947L32.4015 24.2631C33.1162 24.5392 33.5817 25.2096 33.5887 25.9706C33.5912 26.2129 33.5461 26.4477 33.4613 26.663C33.2801 27.1252 32.9162 27.5025 32.432 27.6996L29.4309 28.9222L28.842 27.4965L31.4612 26.4295L31.4672 26.427L32.9738 25.8455C33.0862 25.8015 33.0504 25.6352 32.9295 25.642L32.7323 25.7113C32.4421 25.8135 32.1249 25.8093 31.838 25.698L28.8203 24.5297H28.8201Z" fill="white"/>
</svg>
