<svg width="124" height="54" viewBox="0 0 124 54" fill="none" xmlns="http://www.w3.org/2000/svg">
<path d="M11.3826 53.2552V22.0228H0V16.1109H29.5629V22.0228H18.2334V53.2552H11.3826Z" fill="white"/>
<path d="M55.047 29.766C54.3262 28.1624 53.2555 26.9148 51.8323 26.0255C50.4091 25.1362 48.6615 24.6913 46.5889 24.6913C45.1132 24.6913 43.7607 24.9449 42.5314 25.4498C41.3015 25.9559 40.2655 26.7235 39.4222 27.7514C39.1003 28.1448 38.8192 28.5801 38.5789 29.0571V16.1109H31.8336V53.2546H38.5789V37.089C38.5789 34.8226 39.1234 33.0961 40.2125 31.9096C41.3009 30.7243 42.7595 30.131 44.5864 30.131C46.237 30.131 47.4492 30.6982 48.2224 31.8315C48.995 32.9653 49.3816 34.6658 49.3816 36.9322V53.2546H56.1269V35.3105C56.1269 33.2178 55.7665 31.3696 55.0464 29.7648L55.047 29.766Z" fill="white"/>
<path d="M59.511 53.2552V25.3184H66.2563V53.2552H59.511Z" fill="white"/>
<path d="M92.6519 29.792C91.914 28.2054 90.8342 26.9589 89.4109 26.0515C87.9883 25.1447 86.2401 24.6912 84.1675 24.6912C82.6565 24.6912 81.2693 24.9709 80.0046 25.5285C78.74 26.0866 77.668 26.9589 76.7899 28.1442C76.3716 28.7096 76.0216 29.3628 75.7387 30.1019L75.5783 25.3196H69.4653V53.2557H76.2106V37.4565C76.2106 35.0853 76.746 33.271 77.818 32.0155C78.8893 30.76 80.3211 30.1322 82.1126 30.1322C83.3065 30.1322 84.2639 30.4198 84.9846 30.9955C85.7041 31.5712 86.2231 32.3999 86.5389 33.4805C86.8554 34.5616 87.0133 35.8868 87.0133 37.4565V53.2557H93.7586V35.3117C93.7586 33.2189 93.3897 31.3799 92.6519 29.7926V29.792Z" fill="white"/>
<path d="M96.3934 53.2552V16.1115H103.139V37.9269L114.679 25.3191H123.005L111.991 36.9329L123.374 53.2552H115.785L107.564 40.9089L103.138 45.5647V53.2552H96.3928H96.3934Z" fill="white"/>
<path d="M77.7886 18.5174L76.4233 21.9909L69.1188 19.1615C67.3889 18.4932 66.2627 16.8696 66.2462 15.0275C66.2401 14.4409 66.3493 13.8725 66.5554 13.3512C66.9938 12.2331 67.8755 11.3191 69.0475 10.8426L76.3129 7.88424L77.738 11.3354L71.3969 13.9179L71.3823 13.9239L67.7353 15.3308C67.4633 15.4373 67.5499 15.8399 67.8426 15.8235L68.3207 15.6559C69.0231 15.4083 69.7908 15.4186 70.4853 15.6885L77.7898 18.518L77.7886 18.5174Z" fill="#FF5F1F"/>
<path d="M66.04 0L69.537 1.36085L66.6754 8.60822C65.9991 10.3244 64.3625 11.4401 62.507 11.454C61.9161 11.4595 61.3435 11.3499 60.8185 11.1447C59.6929 10.7076 58.7733 9.83104 58.2953 8.66693L55.3269 1.44923L58.805 0.0399537L61.396 6.33872L61.4021 6.35325L62.8131 9.97633C62.9198 10.2463 63.3253 10.161 63.3094 9.871L63.1411 9.39639C62.8929 8.69902 62.9045 7.93627 63.1777 7.24797L66.04 0Z" fill="#FF5F1F"/>
<path d="M47.9775 10.9643L49.3422 7.49072L56.6473 10.319C58.3772 10.9873 59.504 12.6102 59.5211 14.4524C59.5272 15.039 59.4181 15.6074 59.2126 16.1286C58.7741 17.2473 57.893 18.1608 56.721 18.6378L49.4562 21.5974L48.0306 18.1463L54.371 15.5632L54.3856 15.5571L58.0327 14.1497C58.3046 14.0431 58.218 13.6406 57.9253 13.6569L57.4479 13.8246C56.7454 14.0722 55.9777 14.0619 55.2832 13.7925L47.9781 10.9643H47.9775Z" fill="#FF5F1F"/>
</svg>
