<svg width="237" height="104" viewBox="0 0 237 104" fill="none" xmlns="http://www.w3.org/2000/svg">
<g clip-path="url(#clip0_2702_458)">
<path d="M21.212 104V43.8489H-0.720337V32.4629H56.2423V43.8489H34.4123V104H21.212Z" fill="white"/>
<path d="M105.346 58.7616C103.957 55.6732 101.894 53.2703 99.1516 51.5576C96.4093 49.845 93.0419 48.988 89.0484 48.988C86.2051 48.988 83.5991 49.4765 81.2304 50.4489C78.8606 51.4236 76.8644 52.9019 75.2395 54.8816C74.6191 55.6394 74.0775 56.4776 73.6146 57.3964V32.4629H60.6176V103.999H73.6146V72.8652C73.6146 68.5002 74.6638 65.1751 76.7622 62.89C78.8594 60.6072 81.6699 59.4646 85.1899 59.4646C88.3704 59.4646 90.7062 60.5571 92.196 62.7396C93.6846 64.9233 94.4295 68.1982 94.4295 72.5633V103.999H107.427V69.4399C107.427 65.4094 106.732 61.85 105.345 58.7593L105.346 58.7616Z" fill="white"/>
<path d="M113.947 104V50.1963H126.944V104H113.947Z" fill="white"/>
<path d="M177.804 58.812C176.383 55.7562 174.302 53.3557 171.559 51.608C168.818 49.8615 165.45 48.9883 161.456 48.9883C158.545 48.9883 155.872 49.5269 153.435 50.6007C150.998 51.6756 148.933 53.3557 147.241 55.6384C146.435 56.7274 145.76 57.9854 145.215 59.4089L144.906 50.1985H133.128V104.001H146.125V73.5731C146.125 69.0064 147.156 65.5123 149.222 63.0942C151.286 60.6762 154.045 59.4672 157.497 59.4672C159.797 59.4672 161.642 60.021 163.031 61.1297C164.417 62.2385 165.417 63.8346 166.026 65.9157C166.635 67.9979 166.94 70.55 166.94 73.5731V104.001H179.937V69.4424C179.937 65.412 179.226 61.8701 177.804 58.8131V58.812Z" fill="white"/>
<path d="M185.013 104V32.4639H198.01V74.4786L220.247 50.1969H236.289L215.068 72.5642L237 104H222.378L206.538 80.2217L198.009 89.1885V104H185.012H185.013Z" fill="white"/>
<path d="M149.165 37.0978L146.534 43.7876L132.46 38.3383C129.126 37.0512 126.956 33.9243 126.925 30.3765C126.913 29.2468 127.123 28.152 127.52 27.1482C128.365 24.9948 130.064 23.2343 132.322 22.3168L146.321 16.6191L149.067 23.2658L136.849 28.2394L136.821 28.2511L129.794 30.9606C129.27 31.1658 129.437 31.9411 130 31.9096L130.922 31.5867C132.275 31.1098 133.754 31.1297 135.093 31.6496L149.167 37.099L149.165 37.0978Z" fill="#FF5F1F"/>
<path d="M126.527 1.43457L133.266 4.05546L127.752 18.0134C126.449 21.3186 123.295 23.4673 119.72 23.4941C118.581 23.5046 117.478 23.2936 116.466 22.8984C114.298 22.0566 112.526 20.3684 111.605 18.1264L105.885 4.22568L112.587 1.51152L117.579 13.6425L117.591 13.6705L120.31 20.6482C120.515 21.1682 121.297 21.0038 121.266 20.4454L120.942 19.5313C120.464 18.1882 120.486 16.7192 121.012 15.3936L126.527 1.43457Z" fill="#FF5F1F"/>
<path d="M91.724 22.5511L94.3535 15.8613L108.429 21.3083C111.762 22.5954 113.934 25.7212 113.966 29.2689C113.978 30.3987 113.768 31.4934 113.372 32.4972C112.527 34.6518 110.829 36.4111 108.571 37.3298L94.5732 43.0298L91.8262 36.3831L104.043 31.4083L104.071 31.3967L111.099 28.686C111.623 28.4808 111.456 27.7055 110.892 27.737L109.972 28.0599C108.618 28.5368 107.139 28.5169 105.801 27.9981L91.7252 22.5511H91.724Z" fill="#FF5F1F"/>
</g>
<defs>
<clipPath id="clip0_2702_458">
<rect width="237" height="104" fill="white"/>
</clipPath>
</defs>
</svg>
