<svg width="137" height="112" viewBox="0 0 137 112" fill="none" xmlns="http://www.w3.org/2000/svg">
<g clip-path="url(#clip0_1468_359)">
<rect x="33" y="1" width="72" height="72" rx="36" fill="url(#paint0_linear_1468_359)"/>
<rect x="33" y="1" width="72" height="72" rx="36" stroke="url(#paint1_linear_1468_359)" stroke-miterlimit="10"/>
<path d="M68.4541 16.5068C80.0063 16.2111 89.4565 25.3347 89.499 36.6328V36.7109C89.4989 42.9538 86.6279 48.5365 82.1123 52.2451C79.7482 54.187 78.3906 57.073 78.3906 60.1084V73.2139H59.6084V60.1084C59.6084 57.0799 58.262 54.192 55.8994 52.2549C51.3931 48.5593 48.5212 42.9993 48.5 36.7783C48.4634 25.8299 57.3406 16.7912 68.4541 16.5068Z" fill="url(#paint2_linear_1468_359)" stroke="url(#paint3_linear_1468_359)" stroke-miterlimit="10"/>
<path d="M67.5191 36.2216C67.9674 36.4037 68.4583 36.5054 68.9672 36.5109C70.5648 36.5309 71.9938 35.6175 72.6056 34.1813L75.196 28.117L72.2092 26.9101L69.6188 32.9744C69.3718 33.5506 69.3487 34.1937 69.55 34.786L69.6865 35.1891C69.6953 35.4343 69.3442 35.4993 69.2574 35.2697L68.1058 32.1901L68.1008 32.1781L65.9802 26.8215L62.9609 27.9516L65.3906 34.0892C65.7817 35.0792 66.5579 35.8338 67.5194 36.2216H67.5191Z" fill="url(#paint4_linear_1468_359)" stroke="url(#paint5_linear_1468_359)" stroke-miterlimit="10"/>
<path d="M73.1801 39.3655L72.7656 39.4982C72.5136 39.5067 72.4467 39.1653 72.6827 39.0809L75.8491 37.9609L75.8615 37.956L81.3691 35.8935L80.2071 32.957L73.8966 35.3201C72.8787 35.7004 72.1027 36.4554 71.7041 37.3905C71.5168 37.8265 71.4122 38.304 71.4066 38.799C71.386 40.3528 72.3252 41.7425 73.8018 42.3376L80.0371 44.857L81.278 41.9521L75.0427 39.4327C74.4503 39.1925 73.7891 39.17 73.1801 39.3658V39.3655Z" fill="url(#paint6_linear_1468_359)" stroke="url(#paint7_linear_1468_359)" stroke-miterlimit="10"/>
<path d="M66.3142 40.3121C66.5019 39.8763 66.6074 39.3992 66.6139 38.9042C66.637 37.3504 65.6998 35.9592 64.2243 35.3617L57.993 32.833L56.7476 35.736L62.9789 38.2647C63.571 38.5057 64.2319 38.5293 64.8415 38.3343L65.2562 38.2022C65.5083 38.1942 65.5746 38.5354 65.3386 38.6198L62.1705 39.7351L62.1581 39.74L56.6475 41.7943L57.8046 44.7327L64.1188 42.3792C65.1373 42.0003 65.9143 41.2467 66.3147 40.3121H66.3142Z" fill="url(#paint8_linear_1468_359)" stroke="url(#paint9_linear_1468_359)" stroke-miterlimit="10"/>
<rect x="58.3828" y="67" width="21.2353" height="15.8333" rx="0.5" fill="url(#paint10_linear_1468_359)" stroke="url(#paint11_linear_1468_359)" stroke-miterlimit="10"/>
<path d="M69.2912 88.0235C68.8908 87.5056 68.1092 87.5056 67.7088 88.0235L60.0591 97.9193C59.4507 98.7064 60.2399 99.8026 61.1793 99.4752L63.3734 98.7107C63.8648 98.5395 64.4054 98.7737 64.6165 99.2494L67.586 105.94C67.9377 106.733 69.0623 106.733 69.414 105.94L72.3835 99.2494C72.5946 98.7737 73.1352 98.5395 73.6266 98.7107L75.8207 99.4752C76.7601 99.8026 77.5493 98.7064 76.9409 97.9193L69.2912 88.0235Z" fill="url(#paint12_linear_1468_359)" stroke="url(#paint13_linear_1468_359)" stroke-miterlimit="10"/>
<path d="M13.3691 60.5537C20.3706 59.8196 25.5628 66.7384 22.6934 73.2227C19.7073 79.9738 10.0837 80.3273 6.57422 73.8232C3.63803 68.3818 7.01733 61.4285 13.0781 60.5889L13.3691 60.5537Z" fill="url(#paint14_linear_1468_359)" stroke="url(#paint15_linear_1468_359)" stroke-miterlimit="10"/>
<path d="M1.15527 87.2861C8.02632 79.5067 21.3893 79.5673 28.0293 87.5H1.30859C1.16253 87.4999 1.11435 87.4365 1.10547 87.4199C1.10032 87.41 1.09759 87.3996 1.09961 87.3857C1.10063 87.3788 1.10413 87.3666 1.1123 87.3496L1.15527 87.2861Z" fill="url(#paint16_linear_1468_359)" stroke="url(#paint17_linear_1468_359)" stroke-miterlimit="10"/>
<path d="M32.3691 81.5537C39.3706 80.8196 44.5628 87.7384 41.6934 94.2227C38.7073 100.974 29.0837 101.327 25.5742 94.8232C22.638 89.3818 26.0173 82.4285 32.0781 81.5889L32.3691 81.5537Z" fill="url(#paint18_linear_1468_359)" stroke="url(#paint19_linear_1468_359)" stroke-miterlimit="10"/>
<path d="M20.1553 108.286C27.0263 100.507 40.3893 100.567 47.0293 108.5H20.3086C20.1625 108.5 20.1143 108.437 20.1055 108.42C20.1003 108.41 20.0976 108.4 20.0996 108.386C20.1006 108.379 20.1041 108.367 20.1123 108.35L20.1553 108.286Z" fill="url(#paint20_linear_1468_359)" stroke="url(#paint21_linear_1468_359)" stroke-miterlimit="10"/>
<path d="M123.631 60.5537C116.629 59.8196 111.437 66.7384 114.307 73.2227C117.293 79.9738 126.916 80.3273 130.426 73.8232C133.362 68.3818 129.983 61.4285 123.922 60.5889L123.631 60.5537Z" fill="url(#paint22_linear_1468_359)" stroke="url(#paint23_linear_1468_359)" stroke-miterlimit="10"/>
<path d="M135.845 87.2861C128.974 79.5067 115.611 79.5673 108.971 87.5H135.691C135.837 87.4999 135.886 87.4365 135.895 87.4199C135.9 87.41 135.902 87.3996 135.9 87.3857C135.899 87.3788 135.896 87.3666 135.888 87.3496L135.845 87.2861Z" fill="url(#paint24_linear_1468_359)" stroke="url(#paint25_linear_1468_359)" stroke-miterlimit="10"/>
<path d="M104.631 81.5537C97.6294 80.8196 92.4372 87.7384 95.3066 94.2227C98.2927 100.974 107.916 101.327 111.426 94.8232C114.362 89.3818 110.983 82.4285 104.922 81.5889L104.631 81.5537Z" fill="url(#paint26_linear_1468_359)" stroke="url(#paint27_linear_1468_359)" stroke-miterlimit="10"/>
<path d="M116.845 108.286C109.974 100.507 96.6107 100.567 89.9707 108.5H116.691C116.837 108.5 116.886 108.437 116.895 108.42C116.9 108.41 116.902 108.4 116.9 108.386C116.899 108.379 116.896 108.367 116.888 108.35L116.845 108.286Z" fill="url(#paint28_linear_1468_359)" stroke="url(#paint29_linear_1468_359)" stroke-miterlimit="10"/>
</g>
<defs>
<linearGradient id="paint0_linear_1468_359" x1="78.5" y1="-43" x2="53.1528" y2="73.8708" gradientUnits="userSpaceOnUse">
<stop stop-color="#FF5F1F"/>
<stop offset="0.65" stop-color="#531F0A" stop-opacity="0"/>
<stop offset="1" stop-opacity="0"/>
</linearGradient>
<linearGradient id="paint1_linear_1468_359" x1="61.3385" y1="0.13808" x2="91.492" y2="88.9437" gradientUnits="userSpaceOnUse">
<stop offset="0.110577" stop-color="#FF9255"/>
<stop offset="0.423077" stop-color="#531F0A" stop-opacity="0"/>
<stop offset="1" stop-opacity="0"/>
</linearGradient>
<linearGradient id="paint2_linear_1468_359" x1="60.9744" y1="21.7299" x2="98.7562" y2="50.2424" gradientUnits="userSpaceOnUse">
<stop stop-color="#222227"/>
<stop offset="0.73" stop-color="#121214" stop-opacity="0"/>
<stop offset="1" stop-color="#121214" stop-opacity="0"/>
</linearGradient>
<linearGradient id="paint3_linear_1468_359" x1="58.6842" y1="9.34066" x2="108.047" y2="49.9045" gradientUnits="userSpaceOnUse">
<stop stop-color="#C0C0CA"/>
<stop offset="1" stop-opacity="0"/>
</linearGradient>
<linearGradient id="paint4_linear_1468_359" x1="72.3419" y1="22.0632" x2="48.7243" y2="54.3679" gradientUnits="userSpaceOnUse">
<stop stop-color="#FF5F1F"/>
<stop offset="0.65" stop-color="#531F0A" stop-opacity="0"/>
<stop offset="1" stop-opacity="0"/>
</linearGradient>
<linearGradient id="paint5_linear_1468_359" x1="66.9682" y1="27.0031" x2="68.9486" y2="56.0693" gradientUnits="userSpaceOnUse">
<stop stop-color="#FF9255"/>
<stop offset="0.317308" stop-color="#531F0A" stop-opacity="0"/>
<stop offset="1" stop-opacity="0"/>
</linearGradient>
<linearGradient id="paint6_linear_1468_359" x1="78.6115" y1="27.584" x2="59.7492" y2="63.7648" gradientUnits="userSpaceOnUse">
<stop stop-color="#FF5F1F"/>
<stop offset="0.65" stop-color="#531F0A" stop-opacity="0"/>
<stop offset="1" stop-opacity="0"/>
</linearGradient>
<linearGradient id="paint7_linear_1468_359" x1="75.3275" y1="32.8146" x2="81.0287" y2="46.8721" gradientUnits="userSpaceOnUse">
<stop offset="0.110577" stop-color="#FF9255"/>
<stop offset="0.423077" stop-color="#531F0A" stop-opacity="0"/>
<stop offset="1" stop-opacity="0"/>
</linearGradient>
<linearGradient id="paint8_linear_1468_359" x1="57.1976" y1="42.9812" x2="81.7245" y2="9.9885" gradientUnits="userSpaceOnUse">
<stop stop-color="#FF5F1F"/>
<stop offset="0.65" stop-color="#531F0A" stop-opacity="0"/>
<stop offset="1" stop-color="#121214" stop-opacity="0"/>
</linearGradient>
<linearGradient id="paint9_linear_1468_359" x1="58.0119" y1="32.8146" x2="58.0119" y2="53.1556" gradientUnits="userSpaceOnUse">
<stop offset="0.105769" stop-color="#FF9255"/>
<stop offset="0.504808" stop-color="#531F0A" stop-opacity="0"/>
<stop offset="1" stop-opacity="0"/>
</linearGradient>
<linearGradient id="paint10_linear_1468_359" x1="64.7516" y1="68.1712" x2="75.6659" y2="83.1218" gradientUnits="userSpaceOnUse">
<stop stop-color="#222227"/>
<stop offset="0.73" stop-color="#121214" stop-opacity="0"/>
<stop offset="1" stop-color="#121214" stop-opacity="0"/>
</linearGradient>
<linearGradient id="paint11_linear_1468_359" x1="63.5392" y1="64.5577" x2="77.1152" y2="84.8075" gradientUnits="userSpaceOnUse">
<stop stop-color="#C0C0CA"/>
<stop offset="1" stop-opacity="0"/>
</linearGradient>
<linearGradient id="paint12_linear_1468_359" x1="68.1902" y1="72.384" x2="68.1902" y2="135.939" gradientUnits="userSpaceOnUse">
<stop stop-color="#FF5F1F"/>
<stop offset="0.54" stop-color="#531F0A" stop-opacity="0"/>
<stop offset="1" stop-color="#121214" stop-opacity="0"/>
</linearGradient>
<linearGradient id="paint13_linear_1468_359" x1="71.0235" y1="127.026" x2="63.687" y2="86.7145" gradientUnits="userSpaceOnUse">
<stop stop-opacity="0"/>
<stop offset="0.504808" stop-color="#531F0A" stop-opacity="0"/>
<stop offset="0.850962" stop-color="#FF9255"/>
</linearGradient>
<linearGradient id="paint14_linear_1468_359" x1="10.8694" y1="61.8863" x2="23.7949" y2="75.2904" gradientUnits="userSpaceOnUse">
<stop stop-color="#222227"/>
<stop offset="0.73" stop-color="#121214"/>
<stop offset="1" stop-color="#121214"/>
</linearGradient>
<linearGradient id="paint15_linear_1468_359" x1="9.83333" y1="57.8077" x2="26.2766" y2="76.3755" gradientUnits="userSpaceOnUse">
<stop stop-color="#C0C0CA"/>
<stop offset="1" stop-opacity="0"/>
</linearGradient>
<linearGradient id="paint16_linear_1468_359" x1="8.95849" y1="81.695" x2="9.59899" y2="87.4787" gradientUnits="userSpaceOnUse">
<stop stop-color="#222227"/>
<stop offset="0.73" stop-color="#121214"/>
<stop offset="1" stop-color="#121214"/>
</linearGradient>
<linearGradient id="paint17_linear_1468_359" x1="7.37719" y1="80.1923" x2="8.43729" y2="85.6578" gradientUnits="userSpaceOnUse">
<stop stop-color="#C0C0CA"/>
<stop offset="1" stop-opacity="0"/>
</linearGradient>
<linearGradient id="paint18_linear_1468_359" x1="29.8694" y1="82.8863" x2="42.7949" y2="96.2904" gradientUnits="userSpaceOnUse">
<stop stop-color="#222227"/>
<stop offset="0.73" stop-color="#121214"/>
<stop offset="1" stop-color="#121214"/>
</linearGradient>
<linearGradient id="paint19_linear_1468_359" x1="28.8333" y1="78.8077" x2="45.2766" y2="97.3755" gradientUnits="userSpaceOnUse">
<stop stop-color="#C0C0CA"/>
<stop offset="1" stop-opacity="0"/>
</linearGradient>
<linearGradient id="paint20_linear_1468_359" x1="27.9585" y1="102.695" x2="28.599" y2="108.479" gradientUnits="userSpaceOnUse">
<stop stop-color="#222227"/>
<stop offset="0.73" stop-color="#121214"/>
<stop offset="1" stop-color="#121214"/>
</linearGradient>
<linearGradient id="paint21_linear_1468_359" x1="26.3772" y1="101.192" x2="27.4373" y2="106.658" gradientUnits="userSpaceOnUse">
<stop stop-color="#C0C0CA"/>
<stop offset="1" stop-opacity="0"/>
</linearGradient>
<linearGradient id="paint22_linear_1468_359" x1="126.131" y1="61.8863" x2="113.205" y2="75.2904" gradientUnits="userSpaceOnUse">
<stop stop-color="#222227"/>
<stop offset="0.73" stop-color="#121214"/>
<stop offset="1" stop-color="#121214"/>
</linearGradient>
<linearGradient id="paint23_linear_1468_359" x1="127.167" y1="57.8077" x2="110.723" y2="76.3755" gradientUnits="userSpaceOnUse">
<stop stop-color="#C0C0CA"/>
<stop offset="1" stop-opacity="0"/>
</linearGradient>
<linearGradient id="paint24_linear_1468_359" x1="128.042" y1="81.695" x2="127.401" y2="87.4787" gradientUnits="userSpaceOnUse">
<stop stop-color="#222227"/>
<stop offset="0.73" stop-color="#121214"/>
<stop offset="1" stop-color="#121214"/>
</linearGradient>
<linearGradient id="paint25_linear_1468_359" x1="129.623" y1="80.1923" x2="128.563" y2="85.6578" gradientUnits="userSpaceOnUse">
<stop stop-color="#C0C0CA"/>
<stop offset="1" stop-opacity="0"/>
</linearGradient>
<linearGradient id="paint26_linear_1468_359" x1="107.131" y1="82.8863" x2="94.2051" y2="96.2904" gradientUnits="userSpaceOnUse">
<stop stop-color="#222227"/>
<stop offset="0.73" stop-color="#121214"/>
<stop offset="1" stop-color="#121214"/>
</linearGradient>
<linearGradient id="paint27_linear_1468_359" x1="108.167" y1="78.8077" x2="91.7234" y2="97.3755" gradientUnits="userSpaceOnUse">
<stop stop-color="#C0C0CA"/>
<stop offset="1" stop-opacity="0"/>
</linearGradient>
<linearGradient id="paint28_linear_1468_359" x1="109.042" y1="102.695" x2="108.401" y2="108.479" gradientUnits="userSpaceOnUse">
<stop stop-color="#222227"/>
<stop offset="0.73" stop-color="#121214"/>
<stop offset="1" stop-color="#121214"/>
</linearGradient>
<linearGradient id="paint29_linear_1468_359" x1="110.623" y1="101.192" x2="109.563" y2="106.658" gradientUnits="userSpaceOnUse">
<stop stop-color="#C0C0CA"/>
<stop offset="1" stop-opacity="0"/>
</linearGradient>
<clipPath id="clip0_1468_359">
<rect width="137" height="112" fill="white"/>
</clipPath>
</defs>
</svg>
