<svg width="136" height="111" viewBox="0 0 136 111" fill="none" xmlns="http://www.w3.org/2000/svg">
<g clip-path="url(#clip0_1468_298)">
<path d="M55 0.5C85.0512 0.5 109.5 24.9488 109.5 55C109.5 85.0512 85.0512 109.5 55 109.5C24.9488 109.5 0.5 85.0512 0.5 55C0.5 24.9488 24.9488 0.5 55 0.5ZM55 13.25C31.9805 13.25 13.25 31.9805 13.25 55C13.25 78.0195 31.9805 96.75 55 96.75C78.0195 96.75 96.75 78.0195 96.75 55C96.75 31.9805 78.0195 13.25 55 13.25ZM55 23.417C72.4141 23.417 86.583 37.5859 86.583 55C86.583 72.4141 72.4141 86.583 55 86.583C37.5859 86.583 23.417 72.4141 23.417 55C23.417 37.5859 37.5838 23.417 55 23.417ZM55 36.167C44.6133 36.167 36.167 44.6133 36.167 55C36.167 65.3867 44.6133 73.833 55 73.833C65.3867 73.833 73.833 65.3867 73.833 55C73.833 44.6133 65.3867 36.167 55 36.167ZM55 46.333C59.7791 46.333 63.667 50.2209 63.667 55C63.667 59.7791 59.7791 63.667 55 63.667C50.2209 63.667 46.333 59.7791 46.333 55C46.333 50.2209 50.2209 46.333 55 46.333Z" fill="url(#paint0_linear_1468_298)" stroke="url(#paint1_linear_1468_298)" stroke-miterlimit="10"/>
<path d="M83.998 7.64746C85.0455 6.59844 86.519 6.23478 87.8926 6.69824L88.165 6.80176L88.1768 6.80664C89.6235 7.37857 90.5439 8.7918 90.5439 10.3271V19.4951H99.6992C101.225 19.4951 102.643 20.4535 103.216 21.8701V21.8711C103.791 23.292 103.484 24.9405 102.374 26.0527L93.7275 34.7119C92.9909 35.4113 92.0305 35.8301 91.001 35.8301H79.585L79.4385 35.9766L59.0645 56.3809C58.2906 57.1194 57.3302 57.5 56.3389 57.5C55.3363 57.5 54.3837 57.1553 53.6191 56.3896C52.2119 54.9803 52.132 52.7539 53.3779 51.251L53.4492 51.2881L53.707 51.0293L74.0889 30.6172L74.2354 30.4707V19.0381C74.2354 17.9952 74.6185 17.0408 75.3428 16.3154L83.998 7.64746Z" fill="url(#paint2_linear_1468_298)" stroke="url(#paint3_linear_1468_298)" stroke-miterlimit="10"/>
</g>
<path d="M105.051 62.5L122.451 62.5C125.801 62.5 128.977 63.8016 131.316 66.1904L131.323 66.1963C133.705 68.5432 135.002 71.7306 135.002 75.0918L135.002 88.1826C135.002 95.1083 129.351 100.774 122.451 100.774L109.888 100.774L109.755 100.873L99.1846 108.729L99.1836 108.729C97.9895 109.617 96.452 109.734 95.1387 109.075C94.475 108.742 93.8055 108.174 93.3047 107.496C92.8019 106.815 92.5001 106.066 92.5 105.377L92.5 75.0918C92.5 68.1236 98.1495 62.5 105.051 62.5Z" fill="url(#paint4_linear_1468_298)" stroke="url(#paint5_linear_1468_298)" stroke-miterlimit="10"/>
<path d="M99.0508 62.5L116.451 62.5C119.801 62.5 122.977 63.8016 125.316 66.1904L125.323 66.1963C127.705 68.5432 129.002 71.7306 129.002 75.0918L129.002 88.1826C129.002 95.1083 123.351 100.774 116.451 100.774L103.888 100.774L103.755 100.873L93.1846 108.729L93.1836 108.729C91.9895 109.617 90.452 109.734 89.1387 109.075C88.475 108.742 87.8055 108.174 87.3047 107.496C86.8019 106.815 86.5001 106.066 86.5 105.377L86.5 75.0918C86.5 68.1236 92.1495 62.5 99.0508 62.5Z" fill="url(#paint6_linear_1468_298)" stroke="url(#paint7_linear_1468_298)" stroke-miterlimit="10"/>
<path d="M95.0082 84.5124C96.6696 84.5124 98.0164 83.1666 98.0164 81.5066C98.0164 79.8465 96.6696 78.5007 95.0082 78.5007C93.3468 78.5007 92 79.8465 92 81.5066C92 83.1666 93.3468 84.5124 95.0082 84.5124Z" fill="url(#paint8_linear_1468_298)" stroke="url(#paint9_linear_1468_298)" stroke-miterlimit="10"/>
<path d="M107.025 84.5124C108.686 84.5124 110.033 83.1666 110.033 81.5066C110.033 79.8465 108.686 78.5007 107.025 78.5007C105.363 78.5007 104.017 79.8465 104.017 81.5066C104.017 83.1666 105.363 84.5124 107.025 84.5124Z" fill="url(#paint10_linear_1468_298)" stroke="url(#paint11_linear_1468_298)" stroke-miterlimit="10"/>
<path d="M119.041 84.5124C120.703 84.5124 122.05 83.1666 122.05 81.5066C122.05 79.8465 120.703 78.5007 119.041 78.5007C117.38 78.5007 116.033 79.8465 116.033 81.5066C116.033 83.1666 117.38 84.5124 119.041 84.5124Z" fill="url(#paint12_linear_1468_298)" stroke="url(#paint13_linear_1468_298)" stroke-miterlimit="10"/>
<defs>
<linearGradient id="paint0_linear_1468_298" x1="33.9805" y1="10.9209" x2="108.813" y2="88.5232" gradientUnits="userSpaceOnUse">
<stop stop-color="#222227"/>
<stop offset="0.73" stop-color="#121214" stop-opacity="0"/>
<stop offset="1" stop-color="#121214" stop-opacity="0"/>
</linearGradient>
<linearGradient id="paint1_linear_1468_298" x1="27.9825" y1="-12.6923" x2="123.18" y2="94.8056" gradientUnits="userSpaceOnUse">
<stop stop-color="#C0C0CA"/>
<stop offset="1" stop-opacity="0"/>
</linearGradient>
<linearGradient id="paint2_linear_1468_298" x1="92.5" y1="-1" x2="58.098" y2="81.6568" gradientUnits="userSpaceOnUse">
<stop stop-color="#FF5F1F"/>
<stop offset="0.54" stop-color="#531F0A"/>
<stop offset="1" stop-opacity="0"/>
</linearGradient>
<linearGradient id="paint3_linear_1468_298" x1="26" y1="76.5" x2="113.128" y2="29.9359" gradientUnits="userSpaceOnUse">
<stop stop-opacity="0"/>
<stop offset="0.504808" stop-color="#531F0A"/>
<stop offset="0.850962" stop-color="#FF9255"/>
</linearGradient>
<linearGradient id="paint4_linear_1468_298" x1="105.438" y1="66.765" x2="138.048" y2="97.4161" gradientUnits="userSpaceOnUse">
<stop stop-color="#222227"/>
<stop offset="0.73" stop-color="#121214" stop-opacity="0"/>
<stop offset="1" stop-color="#121214" stop-opacity="0"/>
</linearGradient>
<linearGradient id="paint5_linear_1468_298" x1="103.066" y1="56.4621" x2="168.22" y2="114.347" gradientUnits="userSpaceOnUse">
<stop stop-color="#C0C0CA"/>
<stop offset="1" stop-opacity="0"/>
</linearGradient>
<linearGradient id="paint6_linear_1468_298" x1="99.4384" y1="66.765" x2="132.048" y2="97.4161" gradientUnits="userSpaceOnUse">
<stop stop-color="#222227"/>
<stop offset="0.73" stop-color="#121214"/>
<stop offset="1" stop-color="#121214"/>
</linearGradient>
<linearGradient id="paint7_linear_1468_298" x1="97.0663" y1="56.4621" x2="161.244" y2="113.145" gradientUnits="userSpaceOnUse">
<stop stop-color="#C0C0CA"/>
<stop offset="1" stop-opacity="0"/>
</linearGradient>
<linearGradient id="paint8_linear_1468_298" x1="95.786" y1="77.7667" x2="87.5995" y2="95.3112" gradientUnits="userSpaceOnUse">
<stop stop-color="#FF5F1F"/>
<stop offset="0.65" stop-color="#531F0A" stop-opacity="0"/>
<stop offset="1" stop-opacity="0"/>
</linearGradient>
<linearGradient id="paint9_linear_1468_298" x1="94.368" y1="78.4288" x2="99.5" y2="94.5" gradientUnits="userSpaceOnUse">
<stop offset="0.110577" stop-color="#FF9255"/>
<stop offset="0.423077" stop-color="#531F0A" stop-opacity="0"/>
<stop offset="1" stop-opacity="0"/>
</linearGradient>
<linearGradient id="paint10_linear_1468_298" x1="107.803" y1="77.7667" x2="99.6161" y2="95.3112" gradientUnits="userSpaceOnUse">
<stop stop-color="#FF5F1F"/>
<stop offset="0.65" stop-color="#531F0A" stop-opacity="0"/>
<stop offset="1" stop-opacity="0"/>
</linearGradient>
<linearGradient id="paint11_linear_1468_298" x1="106.385" y1="78.4288" x2="111.517" y2="94.5" gradientUnits="userSpaceOnUse">
<stop offset="0.110577" stop-color="#FF9255"/>
<stop offset="0.423077" stop-color="#531F0A" stop-opacity="0"/>
<stop offset="1" stop-opacity="0"/>
</linearGradient>
<linearGradient id="paint12_linear_1468_298" x1="119.819" y1="77.7667" x2="111.633" y2="95.3112" gradientUnits="userSpaceOnUse">
<stop stop-color="#FF5F1F"/>
<stop offset="0.65" stop-color="#531F0A" stop-opacity="0"/>
<stop offset="1" stop-opacity="0"/>
</linearGradient>
<linearGradient id="paint13_linear_1468_298" x1="118.401" y1="78.4288" x2="123.533" y2="94.5" gradientUnits="userSpaceOnUse">
<stop offset="0.110577" stop-color="#FF9255"/>
<stop offset="0.423077" stop-color="#531F0A" stop-opacity="0"/>
<stop offset="1" stop-opacity="0"/>
</linearGradient>
<clipPath id="clip0_1468_298">
<rect width="110" height="110" fill="white"/>
</clipPath>
</defs>
</svg>
