<svg width="136" height="112" viewBox="0 0 136 112" fill="none" xmlns="http://www.w3.org/2000/svg">
<g clip-path="url(#clip0_1468_328)">
<g clip-path="url(#clip1_1468_328)">
<path d="M114.053 62.5C117.086 62.7333 119.583 65.4268 119.497 68.4639L118.307 76.5752C115.464 95.9321 98.879 110.292 79.3145 110.336L12.3789 110.487C10.5237 110.491 9.00533 110.059 7.89062 109.217C6.85328 108.433 6.12064 107.259 5.80566 105.633L5.74805 105.302C4.85617 99.4182 4.07464 93.516 3.28516 87.6084C2.49585 81.7022 1.69846 75.791 0.773438 69.8994C0.592067 68.7442 0.507026 67.6412 0.833984 66.6406C1.52763 64.5179 3.14746 62.9626 5.50391 62.5928C5.51095 62.5917 5.51745 62.5873 5.52441 62.5859L114.053 62.5ZM5.80664 62.4258C5.78857 62.4457 5.76898 62.4639 5.74805 62.4805C5.7687 62.4635 5.78874 62.446 5.80664 62.4258ZM5.88184 62.3164C5.86568 62.3487 5.84546 62.3779 5.82324 62.4053C5.84517 62.3778 5.86565 62.3487 5.88184 62.3164Z" fill="url(#paint0_linear_1468_328)" stroke="url(#paint1_linear_1468_328)" stroke-miterlimit="10"/>
<path d="M42.0816 87.5086C42.6623 87.7509 43.2981 87.8863 43.9573 87.8936C46.0265 87.9202 47.8774 86.7047 48.6699 84.7936L52.025 76.7239L48.1564 75.1179L44.8013 83.1876C44.4814 83.9543 44.4514 84.81 44.7122 85.5982L44.8889 86.1347C44.9003 86.4609 44.4456 86.5474 44.3331 86.242L42.8416 82.144L42.835 82.1279L40.0883 75L36.1777 76.5038L39.3247 84.671C39.8312 85.9883 40.8366 86.9926 42.082 87.5086H42.0816Z" fill="url(#paint2_linear_1468_328)" stroke="url(#paint3_linear_1468_328)" stroke-miterlimit="10"/>
<path d="M49.4138 91.6925L48.8769 91.8691C48.5504 91.8804 48.4639 91.4261 48.7696 91.3137L52.8708 89.8234L52.8869 89.8168L60.0204 87.0723L58.5154 83.1648L50.3418 86.3093C49.0234 86.8154 48.0183 87.82 47.5019 89.0644C47.2594 89.6446 47.1239 90.2799 47.1166 90.9386C47.09 93.0062 48.3065 94.8556 50.219 95.6475L58.2952 98.9999L59.9024 95.1344L51.8263 91.7819C51.059 91.4622 50.2026 91.4323 49.4138 91.6929V91.6925Z" fill="url(#paint4_linear_1468_328)" stroke="url(#paint5_linear_1468_328)" stroke-miterlimit="10"/>
<path d="M40.5206 92.9519C40.7639 92.372 40.9005 91.7371 40.9089 91.0784C40.9388 89.0108 39.7249 87.1595 37.8138 86.3644L29.7428 82.9995L28.1296 86.8625L36.2006 90.2274C36.9676 90.5482 37.8236 90.5795 38.6132 90.3201L39.1504 90.1442C39.4769 90.1336 39.5627 90.5876 39.257 90.7L35.1536 92.1841L35.1375 92.1906L28 94.9242L29.4988 98.8343L37.6772 95.7026C38.9963 95.1983 40.0028 94.1955 40.5214 92.9519H40.5206Z" fill="url(#paint6_linear_1468_328)" stroke="url(#paint7_linear_1468_328)" stroke-miterlimit="10"/>
<path d="M39.1143 0.617188C54.1585 -0.956914 65.3369 13.8875 59.1641 27.8066C52.7363 42.308 32.035 43.0621 24.4844 29.0977C18.0753 17.2457 25.6537 2.02384 39.1143 0.617188Z" fill="url(#paint8_linear_1468_328)" stroke="url(#paint9_linear_1468_328)" stroke-miterlimit="10"/>
<path d="M13.7676 55.833C28.1901 38.4004 56.3308 38.6881 70.0127 56.8164V56.8174C70.1665 57.0199 70.1195 57.1211 70.1045 57.1465C70.0767 57.193 69.9652 57.3007 69.6816 57.3008H14.583C14.0779 57.3008 13.7481 57.0673 13.6064 56.8057C13.4715 56.5562 13.463 56.2023 13.7676 55.833Z" fill="url(#paint10_linear_1468_328)" stroke="url(#paint11_linear_1468_328)" stroke-miterlimit="10"/>
</g>
<path d="M90.8944 22.6399L87.9103 20.3587L84.9263 22.6399L86.0723 18.956L83.0898 16.6901H86.772L87.9103 13L89.0487 16.6901H92.7303L89.7484 18.9566L90.8944 22.6404V22.6399Z" fill="url(#paint12_linear_1468_328)" stroke="url(#paint13_linear_1468_328)" stroke-miterlimit="10"/>
<path d="M76.8046 22.6399L73.8205 20.3587L70.8364 22.6399L71.9824 18.956L69 16.6901H72.6821L73.8205 13L74.9589 16.6901H78.6404L75.6586 18.9566L76.8046 22.6404V22.6399Z" fill="url(#paint14_linear_1468_328)" stroke="url(#paint15_linear_1468_328)" stroke-miterlimit="10"/>
<path d="M104.984 22.6399L102 20.3587L99.0161 22.6399L100.162 18.956L97.1797 16.6901H100.862L102 13L103.139 16.6901H106.82L103.838 18.9566L104.984 22.6404V22.6399Z" fill="url(#paint16_linear_1468_328)" stroke="url(#paint17_linear_1468_328)" stroke-miterlimit="10"/>
<path d="M119.074 22.6399L116.09 20.3587L113.106 22.6399L114.252 18.956L111.27 16.6901H114.952L116.09 13L117.228 16.6901H120.91L117.928 18.9566L119.074 22.6404V22.6399Z" fill="url(#paint18_linear_1468_328)" stroke="url(#paint19_linear_1468_328)" stroke-miterlimit="10"/>
<path d="M133.164 22.6399L130.18 20.3587L127.196 22.6399L128.342 18.956L125.359 16.6901H129.042L130.18 13L131.318 16.6901H135L132.018 18.9566L133.164 22.6404V22.6399Z" fill="url(#paint20_linear_1468_328)" stroke="url(#paint21_linear_1468_328)" stroke-miterlimit="10"/>
<rect x="64.5" y="39.5" width="71" height="71" rx="35.5" fill="url(#paint22_linear_1468_328)"/>
<rect x="64.5" y="39.5" width="71" height="71" rx="35.5" stroke="url(#paint23_linear_1468_328)" stroke-miterlimit="10"/>
<path d="M105.066 56.5C104.671 56.7729 104.193 57.0353 103.767 57.2764C103.263 57.5611 102.827 57.8242 102.533 58.0947C102.366 58.2492 102.308 58.4631 102.388 58.792L104.689 62.1836L108.164 60.4473L105.648 56.7158L105.283 56.5H105.066Z" fill="url(#paint24_linear_1468_328)" stroke="url(#paint25_linear_1468_328)" stroke-miterlimit="10"/>
<path d="M109.9 63.4802C109.825 63.462 109.724 63.4591 109.576 63.4978L109.413 63.5515C107.998 64.0914 106.559 64.8682 105.084 65.6746C103.639 66.4648 102.157 67.2837 100.682 67.8894C100.507 68.0025 100.419 68.1234 100.382 68.2312C100.354 68.3123 100.346 68.4142 100.379 68.5417L100.427 68.6775C100.428 68.6804 100.437 68.6965 100.456 68.7302C100.477 68.7669 100.506 68.8136 100.54 68.8679C100.608 68.9766 100.694 69.1091 100.783 69.241C100.872 69.3728 100.962 69.5013 101.037 69.6042C101.075 69.6559 101.107 69.6996 101.133 69.7322C101.151 69.7558 101.162 69.7684 101.166 69.7732C101.277 69.8829 101.489 69.9681 101.728 69.989C102.779 70.0824 103.948 70.0205 105.16 69.9626C106.354 69.9057 107.59 69.853 108.706 69.9861C109.609 70.0934 110.08 70.8631 110.06 71.5808C110.049 71.9449 109.916 72.3176 109.64 72.6121C109.36 72.9101 108.962 73.0992 108.476 73.1423C107.695 73.2114 106.872 73.1815 106.086 73.1521C105.388 73.126 104.717 73.1034 104.08 73.1365L98.9717 83.1833L98.9219 83.283L98.833 83.3513C98.2268 83.8222 97.4855 83.8494 96.9297 83.5056C96.3681 83.1583 96.069 82.4777 96.251 81.7126L96.2646 81.656L96.291 81.6033L100.494 73.2527C100.442 73.2714 100.387 73.2909 100.326 73.3132C98.6794 73.922 97.041 74.6982 95.377 75.488C93.7202 76.2744 92.0371 77.0752 90.332 77.7097L90.3213 77.7136L90.3105 77.7166C89.2386 78.0601 88.1658 77.8649 87.2715 77.3513C87.2226 79.9735 87.3218 82.1203 89.252 83.863L89.4678 84.0505C89.5726 84.1376 89.7086 84.2286 89.8789 84.3367C90.0401 84.439 90.2344 84.5582 90.4141 84.6853C90.7565 84.9275 91.1889 85.2903 91.3066 85.8386L91.3115 85.863L91.3145 85.8875C91.4291 86.9017 91.3808 87.9884 91.335 89.0212C91.2941 89.9406 91.2549 90.8176 91.3145 91.6277L91.3467 91.9705C91.3675 92.1527 91.4358 92.2699 91.5186 92.3455C91.6017 92.4214 91.7311 92.4834 91.9209 92.4998H108.35C108.71 92.4836 108.966 92.209 108.965 91.8787C108.702 90.6216 108.337 89.3488 107.973 88.0525C107.651 86.9088 107.329 85.7481 107.091 84.5925L106.994 84.0974C106.985 84.0458 106.969 83.9907 106.942 83.8855C106.922 83.8063 106.889 83.6713 106.886 83.5417V83.5408C106.881 83.2777 106.988 83.0151 107.09 82.8123C107.2 82.5934 107.347 82.3657 107.495 82.1541C107.645 81.9408 107.804 81.7316 107.945 81.5496C108.091 81.3618 108.21 81.2123 108.292 81.0994C109.424 79.5483 110.582 78.0158 111.738 76.488C112.89 74.9663 114.04 73.4491 115.166 71.9158C115.344 71.6201 115.358 71.5334 115.357 71.491C115.357 71.435 115.333 71.3423 115.157 71.0134C114.52 69.8208 113.658 68.6295 112.761 67.406C111.885 66.2118 110.977 64.9841 110.267 63.741C110.112 63.5663 109.994 63.5029 109.9 63.4802Z" fill="url(#paint26_linear_1468_328)" stroke="url(#paint27_linear_1468_328)" stroke-miterlimit="10"/>
<path d="M93.5225 64.1311C93.364 64.0985 93.2149 64.1139 93.0449 64.1809C93.0446 64.181 93.044 64.1814 93.043 64.1819C93.0414 64.1825 93.0389 64.1836 93.0361 64.1848C93.0305 64.1873 93.0228 64.1901 93.0137 64.1946C92.9949 64.2038 92.9711 64.2162 92.9424 64.2317C92.8848 64.2628 92.8134 64.3034 92.7314 64.3518C92.5677 64.4486 92.3713 64.5715 92.1729 64.6985C91.7667 64.9585 91.3888 65.2154 91.2725 65.3088C91.1202 65.4313 91.0455 65.5405 91.0088 65.6399C90.978 65.7234 90.9653 65.8303 90.9834 65.9788L94.7305 71.6252C94.8598 71.7705 94.9452 71.8363 95.0166 71.8684C95.0641 71.8897 95.1285 71.9078 95.2344 71.9026L95.3545 71.8889C95.3392 71.8914 95.3586 71.8886 95.4385 71.8606C95.5063 71.8368 95.5948 71.8025 95.6992 71.761C95.9074 71.6783 96.1663 71.5693 96.4268 71.4553C96.687 71.3414 96.9454 71.2245 97.1523 71.1262C97.256 71.077 97.3448 71.0335 97.4131 70.9983C97.4473 70.9807 97.4746 70.9658 97.4951 70.9543C97.5167 70.9422 97.5241 70.9376 97.5225 70.9387C97.7545 70.7808 97.7935 70.6569 97.8008 70.5706C97.8112 70.4472 97.7657 70.2613 97.6152 69.9797C97.1365 69.0833 96.4873 68.1873 95.8057 67.2581C95.142 66.3533 94.447 65.4152 93.9043 64.4622C93.8402 64.3805 93.7654 64.2976 93.6885 64.2327C93.6003 64.1582 93.5433 64.1352 93.5234 64.1311H93.5225Z" fill="url(#paint28_linear_1468_328)" stroke="url(#paint29_linear_1468_328)" stroke-miterlimit="10"/>
<path d="M87.8916 67.6035C87.7907 67.6055 87.6571 67.6673 87.4092 67.7969H87.4082C87.2402 67.8841 86.8759 68.0996 86.5117 68.3311C86.1347 68.5707 85.8216 68.788 85.7197 68.8828L85.7188 68.8838C85.5421 69.0475 85.5064 69.1636 85.501 69.2471C85.4942 69.3523 85.5286 69.5056 85.6543 69.7471C86.0303 70.4691 86.5617 71.199 87.1279 71.9658C87.674 72.7053 88.2537 73.4813 88.6953 74.2656C88.8679 74.49 89.0599 74.5798 89.2891 74.5605C89.2994 74.5575 89.321 74.5522 89.3564 74.54C89.4228 74.5173 89.5114 74.4834 89.6182 74.4414C89.8308 74.3578 90.0991 74.2463 90.3701 74.1289C90.6409 74.0116 90.9117 73.8899 91.1279 73.7891C91.2361 73.7386 91.3288 73.694 91.4004 73.6582C91.4362 73.6403 91.4654 73.626 91.4873 73.6143L91.5176 73.5967C91.722 73.464 91.766 73.3421 91.7744 73.2373C91.7855 73.0985 91.7374 72.9008 91.5996 72.6436C90.9838 71.4954 89.2966 68.9828 88.4648 67.9785L88.4658 67.9775C88.2222 67.684 88.1035 67.6063 87.8965 67.6045L87.8916 67.6035Z" fill="url(#paint30_linear_1468_328)" stroke="url(#paint31_linear_1468_328)" stroke-miterlimit="10"/>
<path d="M99.5498 60.3735C99.3821 60.3008 99.2288 60.2895 99.0537 60.3403C99.0818 60.3318 99.0691 60.3337 98.9766 60.3843C98.9009 60.4257 98.7995 60.4839 98.6797 60.5552C98.4408 60.6972 98.1387 60.8839 97.8359 61.0757C97.5331 61.2675 97.2321 61.4625 96.9961 61.6206C96.878 61.6997 96.7778 61.7684 96.7031 61.8218C96.617 61.8833 96.5928 61.9046 96.5996 61.8979C96.4771 62.0177 96.408 62.2065 96.416 62.4087L98.2861 65.3462L101.788 63.605C101.042 62.471 100.382 61.3611 99.5498 60.3735Z" fill="url(#paint32_linear_1468_328)" stroke="url(#paint33_linear_1468_328)" stroke-miterlimit="10"/>
</g>
<defs>
<linearGradient id="paint0_linear_1468_328" x1="37.0696" y1="66.8648" x2="72.7027" y2="123.361" gradientUnits="userSpaceOnUse">
<stop stop-color="#222227"/>
<stop offset="0.73" stop-color="#121214"/>
<stop offset="1" stop-color="#121214"/>
</linearGradient>
<linearGradient id="paint1_linear_1468_328" x1="30.5263" y1="56.3462" x2="60.049" y2="94.2814" gradientUnits="userSpaceOnUse">
<stop stop-color="#C0C0CA"/>
<stop offset="1" stop-opacity="0"/>
</linearGradient>
<linearGradient id="paint2_linear_1468_328" x1="48.3283" y1="68.6681" x2="16.6526" y2="110.84" gradientUnits="userSpaceOnUse">
<stop stop-color="#FF5F1F"/>
<stop offset="0.65" stop-color="#531F0A" stop-opacity="0"/>
<stop offset="1" stop-opacity="0"/>
</linearGradient>
<linearGradient id="paint3_linear_1468_328" x1="41.3681" y1="75.2417" x2="44.0749" y2="113.91" gradientUnits="userSpaceOnUse">
<stop stop-color="#FF9255"/>
<stop offset="0.317308" stop-color="#531F0A" stop-opacity="0"/>
<stop offset="1" stop-opacity="0"/>
</linearGradient>
<linearGradient id="paint4_linear_1468_328" x1="56.4487" y1="76.015" x2="30.964" y2="123.596" gradientUnits="userSpaceOnUse">
<stop stop-color="#FF5F1F"/>
<stop offset="0.65" stop-color="#531F0A" stop-opacity="0"/>
<stop offset="1" stop-opacity="0"/>
</linearGradient>
<linearGradient id="paint5_linear_1468_328" x1="52.1952" y1="82.9752" x2="59.9288" y2="101.536" gradientUnits="userSpaceOnUse">
<stop offset="0.110577" stop-color="#FF9255"/>
<stop offset="0.423077" stop-color="#531F0A" stop-opacity="0"/>
<stop offset="1" stop-opacity="0"/>
</linearGradient>
<linearGradient id="paint6_linear_1468_328" x1="28.7125" y1="96.5036" x2="61.5941" y2="53.451" gradientUnits="userSpaceOnUse">
<stop stop-color="#FF5F1F"/>
<stop offset="0.65" stop-color="#531F0A" stop-opacity="0"/>
<stop offset="1" stop-color="#121214" stop-opacity="0"/>
</linearGradient>
<linearGradient id="paint7_linear_1468_328" x1="29.7673" y1="82.975" x2="29.7673" y2="110.043" gradientUnits="userSpaceOnUse">
<stop offset="0.105769" stop-color="#FF9255"/>
<stop offset="0.504808" stop-color="#531F0A" stop-opacity="0"/>
<stop offset="1" stop-opacity="0"/>
</linearGradient>
<linearGradient id="paint8_linear_1468_328" x1="33.9451" y1="3.93732" x2="60.9087" y2="31.9593" gradientUnits="userSpaceOnUse">
<stop stop-color="#222227"/>
<stop offset="0.73" stop-color="#121214"/>
<stop offset="1" stop-color="#121214"/>
</linearGradient>
<linearGradient id="paint9_linear_1468_328" x1="31.779" y1="-4.57173" x2="66.0746" y2="34.2384" gradientUnits="userSpaceOnUse">
<stop stop-color="#C0C0CA"/>
<stop offset="1" stop-opacity="0"/>
</linearGradient>
<linearGradient id="paint10_linear_1468_328" x1="30.1431" y1="44.0059" x2="31.6367" y2="56.639" gradientUnits="userSpaceOnUse">
<stop stop-color="#222227"/>
<stop offset="0.73" stop-color="#121214"/>
<stop offset="1" stop-color="#121214"/>
</linearGradient>
<linearGradient id="paint11_linear_1468_328" x1="26.9023" y1="40.7182" x2="29.3661" y2="52.6161" gradientUnits="userSpaceOnUse">
<stop stop-color="#C0C0CA"/>
<stop offset="1" stop-opacity="0"/>
</linearGradient>
<linearGradient id="paint12_linear_1468_328" x1="90.4815" y1="8.26583" x2="65.9005" y2="34.8935" gradientUnits="userSpaceOnUse">
<stop stop-color="#FF5F1F"/>
<stop offset="0.65" stop-color="#531F0A" stop-opacity="0"/>
<stop offset="1" stop-opacity="0"/>
</linearGradient>
<linearGradient id="paint13_linear_1468_328" x1="86.2473" y1="13.1807" x2="88.7284" y2="42.0199" gradientUnits="userSpaceOnUse">
<stop stop-color="#FF9255"/>
<stop offset="0.427885" stop-color="#531F0A" stop-opacity="0"/>
<stop offset="1" stop-opacity="0"/>
</linearGradient>
<linearGradient id="paint14_linear_1468_328" x1="76.3916" y1="8.26583" x2="51.8106" y2="34.8935" gradientUnits="userSpaceOnUse">
<stop stop-color="#FF5F1F"/>
<stop offset="0.65" stop-color="#531F0A" stop-opacity="0"/>
<stop offset="1" stop-opacity="0"/>
</linearGradient>
<linearGradient id="paint15_linear_1468_328" x1="72.1575" y1="13.1807" x2="74.6386" y2="42.0199" gradientUnits="userSpaceOnUse">
<stop stop-color="#FF9255"/>
<stop offset="0.427885" stop-color="#531F0A" stop-opacity="0"/>
<stop offset="1" stop-opacity="0"/>
</linearGradient>
<linearGradient id="paint16_linear_1468_328" x1="104.571" y1="8.26583" x2="79.9903" y2="34.8935" gradientUnits="userSpaceOnUse">
<stop stop-color="#FF5F1F"/>
<stop offset="0.65" stop-color="#531F0A" stop-opacity="0"/>
<stop offset="1" stop-opacity="0"/>
</linearGradient>
<linearGradient id="paint17_linear_1468_328" x1="100.337" y1="13.1807" x2="102.818" y2="42.0199" gradientUnits="userSpaceOnUse">
<stop stop-color="#FF9255"/>
<stop offset="0.427885" stop-color="#531F0A" stop-opacity="0"/>
<stop offset="1" stop-opacity="0"/>
</linearGradient>
<linearGradient id="paint18_linear_1468_328" x1="118.661" y1="8.26583" x2="94.0802" y2="34.8935" gradientUnits="userSpaceOnUse">
<stop stop-color="#FF5F1F"/>
<stop offset="0.65" stop-color="#531F0A" stop-opacity="0"/>
<stop offset="1" stop-opacity="0"/>
</linearGradient>
<linearGradient id="paint19_linear_1468_328" x1="114.427" y1="13.1807" x2="116.908" y2="42.0199" gradientUnits="userSpaceOnUse">
<stop stop-color="#FF9255"/>
<stop offset="0.427885" stop-color="#531F0A" stop-opacity="0"/>
<stop offset="1" stop-opacity="0"/>
</linearGradient>
<linearGradient id="paint20_linear_1468_328" x1="132.751" y1="8.26583" x2="108.17" y2="34.8935" gradientUnits="userSpaceOnUse">
<stop stop-color="#FF5F1F"/>
<stop offset="0.65" stop-color="#531F0A" stop-opacity="0"/>
<stop offset="1" stop-opacity="0"/>
</linearGradient>
<linearGradient id="paint21_linear_1468_328" x1="128.517" y1="13.1807" x2="130.998" y2="42.0199" gradientUnits="userSpaceOnUse">
<stop stop-color="#FF9255"/>
<stop offset="0.427885" stop-color="#531F0A" stop-opacity="0"/>
<stop offset="1" stop-opacity="0"/>
</linearGradient>
<linearGradient id="paint22_linear_1468_328" x1="86.2418" y1="46.1482" x2="135.223" y2="96.9425" gradientUnits="userSpaceOnUse">
<stop stop-color="#222227"/>
<stop offset="0.73" stop-color="#121214"/>
<stop offset="1" stop-color="#121214"/>
</linearGradient>
<linearGradient id="paint23_linear_1468_328" x1="82.3158" y1="30.6923" x2="144.627" y2="101.055" gradientUnits="userSpaceOnUse">
<stop stop-color="#C0C0CA"/>
<stop offset="1" stop-opacity="0"/>
</linearGradient>
<linearGradient id="paint24_linear_1468_328" x1="104.885" y1="57.1379" x2="108.846" y2="74.7019" gradientUnits="userSpaceOnUse">
<stop stop-color="#FF5F1F"/>
<stop offset="0.65" stop-color="#531F0A" stop-opacity="0"/>
<stop offset="1" stop-opacity="0"/>
</linearGradient>
<linearGradient id="paint25_linear_1468_328" x1="110.071" y1="64.3791" x2="104.213" y2="56.4671" gradientUnits="userSpaceOnUse">
<stop stop-opacity="0"/>
<stop offset="0.576923" stop-color="#531F0A" stop-opacity="0"/>
<stop offset="0.889423" stop-color="#FF9255"/>
</linearGradient>
<linearGradient id="paint26_linear_1468_328" x1="99.2882" y1="67.9729" x2="117.723" y2="144.735" gradientUnits="userSpaceOnUse">
<stop stop-color="#FF5F1F"/>
<stop offset="0.65" stop-color="#531F0A" stop-opacity="0"/>
<stop offset="1" stop-opacity="0"/>
</linearGradient>
<linearGradient id="paint27_linear_1468_328" x1="120.707" y1="99.8255" x2="94.5117" y2="66.601" gradientUnits="userSpaceOnUse">
<stop stop-opacity="0"/>
<stop offset="0.576923" stop-color="#531F0A" stop-opacity="0"/>
<stop offset="0.889423" stop-color="#FF9255"/>
</linearGradient>
<linearGradient id="paint28_linear_1468_328" x1="93.8438" y1="65.0793" x2="99.6534" y2="87.3205" gradientUnits="userSpaceOnUse">
<stop stop-color="#FF5F1F"/>
<stop offset="0.65" stop-color="#531F0A" stop-opacity="0"/>
<stop offset="1" stop-opacity="0"/>
</linearGradient>
<linearGradient id="paint29_linear_1468_328" x1="99.6065" y1="74.4004" x2="91.8155" y2="65.3151" gradientUnits="userSpaceOnUse">
<stop stop-opacity="0"/>
<stop offset="0.576923" stop-color="#531F0A" stop-opacity="0"/>
<stop offset="0.889423" stop-color="#FF9255"/>
</linearGradient>
<linearGradient id="paint30_linear_1468_328" x1="88.1332" y1="68.4304" x2="93.2795" y2="88.6429" gradientUnits="userSpaceOnUse">
<stop stop-color="#FF5F1F"/>
<stop offset="0.65" stop-color="#531F0A" stop-opacity="0"/>
<stop offset="1" stop-opacity="0"/>
</linearGradient>
<linearGradient id="paint31_linear_1468_328" x1="93.489" y1="76.8743" x2="86.461" y2="68.4662" gradientUnits="userSpaceOnUse">
<stop stop-opacity="0"/>
<stop offset="0.576923" stop-color="#531F0A" stop-opacity="0"/>
<stop offset="0.889423" stop-color="#FF9255"/>
</linearGradient>
<linearGradient id="paint32_linear_1468_328" x1="98.7581" y1="60.8393" x2="102.238" y2="76.8073" gradientUnits="userSpaceOnUse">
<stop stop-color="#FF5F1F"/>
<stop offset="0.65" stop-color="#531F0A" stop-opacity="0"/>
<stop offset="1" stop-opacity="0"/>
</linearGradient>
<linearGradient id="paint33_linear_1468_328" x1="103.62" y1="67.4016" x2="98.3676" y2="60.0602" gradientUnits="userSpaceOnUse">
<stop stop-opacity="0"/>
<stop offset="0.576923" stop-color="#531F0A" stop-opacity="0"/>
<stop offset="0.889423" stop-color="#FF9255"/>
</linearGradient>
<clipPath id="clip0_1468_328">
<rect width="136" height="112" fill="white"/>
</clipPath>
<clipPath id="clip1_1468_328">
<rect width="107" height="111" fill="white"/>
</clipPath>
</defs>
</svg>
