<svg width="136" height="111" viewBox="0 0 136 111" fill="none" xmlns="http://www.w3.org/2000/svg">
<g clip-path="url(#clip0_1431_1506)">
<path d="M38.5 31.5H41.5C42.0523 31.5 42.5 31.9477 42.5 32.5V79.5C42.5 80.0523 42.0523 80.5 41.5 80.5H38.5C37.9477 80.5 37.5 80.0523 37.5 79.5V32.5C37.5 31.9477 37.9477 31.5 38.5 31.5Z" fill="url(#paint0_linear_1431_1506)" stroke="url(#paint1_linear_1431_1506)" stroke-miterlimit="10"/>
<path d="M82.5 31.5H85.5C86.0523 31.5 86.5 31.9477 86.5 32.5V79.5C86.5 80.0523 86.0523 80.5 85.5 80.5H82.5C81.9477 80.5 81.5 80.0523 81.5 79.5V32.5C81.5 31.9477 81.9477 31.5 82.5 31.5Z" fill="url(#paint2_linear_1431_1506)" stroke="url(#paint3_linear_1431_1506)" stroke-miterlimit="10"/>
<path d="M60.5 39.5H63.5C64.0523 39.5 64.5 39.9477 64.5 40.5V79.5C64.5 80.0523 64.0523 80.5 63.5 80.5H60.5C59.9477 80.5 59.5 80.0523 59.5 79.5V40.5C59.5 39.9477 59.9477 39.5 60.5 39.5Z" fill="url(#paint4_linear_1431_1506)" stroke="url(#paint5_linear_1431_1506)" stroke-miterlimit="10"/>
<path d="M22.5 0.5H25.46C26.0064 0.5 26.4679 0.948183 26.4922 1.52246C27.2927 20.4148 42.9145 35.54 62 35.54C81.0855 35.54 96.7073 20.4148 97.5078 1.52246C97.5306 0.984069 97.9374 0.556194 98.4385 0.504883L98.54 0.5H101.5C102.056 0.5 102.493 0.950344 102.474 1.48438C101.69 23.1294 83.8355 40.5 62 40.5C40.1645 40.5 22.31 23.1294 21.5264 1.48438C21.507 0.950344 21.9439 0.5 22.5 0.5Z" fill="url(#paint6_linear_1431_1506)" stroke="url(#paint7_linear_1431_1506)" stroke-miterlimit="10"/>
<path d="M11.5 0.5H25.5C26.0523 0.5 26.5 0.947715 26.5 1.5V65.5C26.5 66.0523 26.0523 66.5 25.5 66.5H11.5C10.9477 66.5 10.5 66.0523 10.5 65.5V1.5C10.5 0.947716 10.9477 0.5 11.5 0.5Z" fill="url(#paint8_linear_1431_1506)" stroke="url(#paint9_linear_1431_1506)" stroke-miterlimit="10"/>
<path d="M98.5 0.5H112.5C113.052 0.5 113.5 0.947715 113.5 1.5V65.5C113.5 66.0523 113.052 66.5 112.5 66.5H98.5C97.9477 66.5 97.5 66.0523 97.5 65.5V1.5C97.5 0.947716 97.9477 0.5 98.5 0.5Z" fill="url(#paint10_linear_1431_1506)" stroke="url(#paint11_linear_1431_1506)" stroke-miterlimit="10"/>
<path d="M121.5 67H2.5C1.67157 67 1 67.6716 1 68.5V81.5C1 82.3284 1.67157 83 2.5 83H121.5C122.328 83 123 82.3284 123 81.5V68.5C123 67.6716 122.328 67 121.5 67Z" fill="url(#paint12_linear_1431_1506)" stroke="url(#paint13_linear_1431_1506)" stroke-miterlimit="10"/>
<rect x="64.5" y="39.5" width="71" height="71" rx="35.5" fill="url(#paint14_linear_1431_1506)"/>
<rect x="64.5" y="39.5" width="71" height="71" rx="35.5" stroke="url(#paint15_linear_1431_1506)" stroke-miterlimit="10"/>
<path d="M99.001 59.9902H112.094C113.604 61.2253 114.943 62.6705 116.039 64.2822H99.001V70.6562H118.879L119.242 72.3018L119.5 74.5186V75.0283H79.5254C79.5531 74.4171 79.5808 73.8289 79.6631 73.25L80.2275 72.8604L81.6807 73.8555L82.8809 74.6768L82.4395 73.291L81.9014 71.5977L83.3027 70.5576L83.9062 70.1074L84.4541 70.5459L85.8564 71.6689L85.3691 73.3008L84.9648 74.6523L86.1299 73.8564L87.5879 72.8594L88.957 73.8486L90.1143 74.6855L89.7314 73.3096L89.2578 71.6084L90.6699 70.5566L91.2637 70.1133L91.8252 70.5508L93.2021 71.623L92.7324 73.3096L92.3574 74.6543L93.501 73.8535L94.8984 72.874L96.334 73.8564L96.7188 74.1191L97.0078 73.7539C97.1185 73.6142 97.1258 73.4626 97.127 73.4131C97.1285 73.3455 97.1194 73.284 97.1113 73.2402C97.0948 73.1503 97.0655 73.0512 97.0361 72.9609C96.9767 72.7784 96.888 72.5452 96.8086 72.3311C96.7255 72.1069 96.65 71.8949 96.6016 71.7217C96.5901 71.6806 96.5831 71.6442 96.5762 71.6133C96.5885 71.6042 96.6017 71.5934 96.6162 71.583C96.7479 71.4889 96.9191 71.3789 97.1123 71.251C97.2975 71.1284 97.5003 70.9913 97.668 70.8604C97.7518 70.7948 97.8366 70.7233 97.9092 70.6494C97.9741 70.5834 98.0653 70.4799 98.1201 70.3477L98.4062 69.6562H95.9385C95.8851 69.4846 95.8322 69.3047 95.7783 69.1152C95.6916 68.8099 95.5963 68.481 95.4775 68.1748V68.1738C95.4795 68.1788 95.4817 68.1857 95.4707 68.1484C95.4637 68.1247 95.4467 68.0658 95.416 68.0039C95.3828 67.937 95.3256 67.8488 95.2275 67.7754C95.1265 67.6998 95.0127 67.6638 94.9043 67.6533L94.5107 67.6152L94.3828 67.9902L93.8174 69.6562H88.5908C88.5449 69.4845 88.4956 69.3042 88.4395 69.1035C88.3495 68.7818 88.2426 68.4372 88.1055 68.1387C88.1043 68.1354 88.1012 68.1277 88.0947 68.1104C88.0859 68.0867 88.0657 68.0325 88.0332 67.9756C87.9988 67.9153 87.9419 67.8345 87.8486 67.7676C87.7515 67.6981 87.6416 67.6617 87.5312 67.6523L87.1416 67.6201L87.0156 67.9902L86.4492 69.6562H81.2227L80.8516 68.3311L81.1562 67.5586L81.6768 67.9199L82.8662 68.7451L82.4404 67.3623L81.9746 65.8516C82.2416 65.3236 82.6649 65.0923 83.3154 64.5723L83.6553 64.2998L83.4326 63.9258C83.3925 63.8585 83.3421 63.8103 83.293 63.7725C83.319 63.7382 83.3454 63.7027 83.373 63.667L84.4541 64.5312L85.8545 65.6523L85.3291 67.3623L84.9023 68.749L86.0928 67.9189L87.5381 66.9111L88.9775 67.8477L90.0908 68.5723L89.7314 67.293L89.2715 65.6611L90.6836 64.5312L91.7236 63.6973L91.6465 64.0264C91.6319 64.0885 91.6129 64.1861 91.624 64.293C91.6302 64.3524 91.6468 64.4266 91.6875 64.5029C91.73 64.5826 91.7878 64.6438 91.8496 64.6885C91.9053 64.7287 91.9572 64.7502 91.9854 64.7607C92.1481 64.8794 92.5011 65.1219 92.8027 65.333C92.9615 65.4441 93.1109 65.5518 93.2295 65.6396L92.6973 67.3613L92.2676 68.751L93.4609 67.9189L94.8945 66.9189L96.3311 67.9189L97.5186 68.7461L97.0947 67.3623L96.5674 65.6416C96.9741 65.3766 97.4372 65.0747 97.8203 64.7549C97.8484 64.7435 97.8867 64.7272 97.9268 64.7002C97.9874 64.6593 98.0475 64.6005 98.0938 64.5215C98.1386 64.4447 98.159 64.368 98.167 64.3037C98.1813 64.1882 98.1595 64.084 98.1426 64.0176L98.0469 63.6406H95.9346L95.3691 61.9746L95.04 61.0039L96.3301 61.9053L97.46 62.6934L97.0986 61.3643L96.6338 59.6523L97.9678 58.5996L99.001 57.7832V59.9902ZM91.8252 58.6016L93.1973 59.6709L92.6953 61.3516L92.29 62.709L93.458 61.9072L94.7715 61.0049L94.4258 61.9668L93.8232 63.6406H88.5635C88.5129 63.4767 88.4648 63.2975 88.4141 63.1035C88.3334 62.7951 88.2415 62.4435 88.1133 62.1387C88.1072 62.1242 88.1118 62.1342 88.0938 62.0879C88.0825 62.059 88.061 62.0052 88.0264 61.9482C87.9903 61.8889 87.933 61.8131 87.8428 61.75C87.7488 61.6843 87.6417 61.6482 87.5322 61.6387L87.1191 61.6025L87.0078 62.002L86.5488 63.6406H83.3936C83.4297 63.5941 83.4651 63.5449 83.5029 63.4971C83.7708 63.1588 84.0571 62.8163 84.1885 62.6602C84.5399 62.2434 84.913 61.8423 85.3018 61.4541C85.3008 61.4836 85.3021 61.527 85.3115 61.5771C85.3215 61.6298 85.35 61.7387 85.4434 61.8379L85.7363 62.1494L86.0898 61.9072L87.5449 60.9092L89.0527 61.9111L90.252 62.708L89.8057 61.3398C89.6971 61.0074 89.5513 60.6306 89.4453 60.3252C89.3673 60.1003 89.3003 59.8844 89.25 59.6738L90.6709 58.6074L91.2617 58.1621L91.8252 58.6016ZM93.8174 57.707H90.3867C90.43 57.6848 90.4722 57.6605 90.5156 57.6387L91.0869 57.3643C92.1177 56.8906 93.2104 56.4949 94.3291 56.1973L93.8174 57.707ZM99.001 55.5V57.707H95.9297C95.8808 57.5462 95.834 57.3677 95.7842 57.1709C95.7254 56.9387 95.6592 56.6765 95.5703 56.4307L95.4736 56.1914V56.1904C95.4722 56.1868 95.4709 56.1825 95.4688 56.1768C95.4668 56.1715 95.4637 56.1645 95.4609 56.1572C95.4509 56.1312 95.4302 56.0783 95.3975 56.0225C95.3852 56.0016 95.368 55.9794 95.3496 55.9551C96.4016 55.7353 97.4672 55.6051 98.5166 55.583L98.6143 55.5811L98.7041 55.543L98.8027 55.5H99.001Z" fill="url(#paint16_linear_1431_1506)" stroke="url(#paint17_linear_1431_1506)" stroke-miterlimit="10"/>
<path d="M118.612 81.4009C118.402 82.0892 118.159 82.7696 117.878 83.4292L117.717 83.7964C117.598 84.0586 117.416 84.4619 117.224 84.8511C117.047 85.2088 116.878 85.5166 116.754 85.6968L82.2578 85.6938C81.4954 84.3124 80.8319 82.8893 80.3809 81.4009H118.612Z" fill="url(#paint18_linear_1431_1506)" stroke="url(#paint19_linear_1431_1506)" stroke-miterlimit="10"/>
<path d="M110.849 92.0649C107.739 94.3441 103.633 95.4994 99.501 95.4995C95.369 95.4996 91.2635 94.3444 88.1533 92.0649H110.849Z" fill="url(#paint20_linear_1431_1506)" stroke="url(#paint21_linear_1431_1506)" stroke-miterlimit="10"/>
<path d="M60.0816 14.5086C60.6623 14.7509 61.2981 14.8863 61.9573 14.8936C64.0265 14.9202 65.8774 13.7047 66.6699 11.7936L70.025 3.72386L66.1564 2.11787L62.8013 10.1876C62.4814 10.9543 62.4514 11.81 62.7122 12.5982L62.8889 13.1347C62.9003 13.4609 62.4456 13.5474 62.3331 13.242L60.8416 9.14395L60.835 9.12789L58.0883 2L54.1777 3.50382L57.3247 11.671C57.8312 12.9883 58.8366 13.9926 60.082 14.5086H60.0816Z" fill="url(#paint22_linear_1431_1506)" stroke="url(#paint23_linear_1431_1506)" stroke-miterlimit="10"/>
<path d="M67.4138 18.6927L66.8769 18.8694C66.5504 18.8807 66.4639 18.4264 66.7696 18.314L70.8708 16.8237L70.8869 16.8171L78.0204 14.0726L76.5154 10.165L68.3418 13.3095C67.0234 13.8157 66.0183 14.8203 65.5019 16.0646C65.2594 16.6448 65.1239 17.2802 65.1166 17.9388C65.09 20.0064 66.3065 21.8558 68.219 22.6477L76.2952 26.0002L77.9024 22.1346L69.8263 18.7822C69.059 18.4625 68.2026 18.4326 67.4138 18.6931V18.6927Z" fill="url(#paint24_linear_1431_1506)" stroke="url(#paint25_linear_1431_1506)" stroke-miterlimit="10"/>
<path d="M58.5206 19.9519C58.7639 19.372 58.9005 18.7371 58.9089 18.0784C58.9388 16.0108 57.7249 14.1595 55.8138 13.3644L47.7428 9.99951L46.1296 13.8625L54.2006 17.2274C54.9676 17.5482 55.8236 17.5795 56.6132 17.3201L57.1504 17.1442C57.4769 17.1336 57.5627 17.5876 57.257 17.7L53.1536 19.1841L53.1375 19.1906L46 21.9242L47.4988 25.8343L55.6772 22.7026C56.9963 22.1983 58.0028 21.1955 58.5214 19.9519H58.5206Z" fill="url(#paint26_linear_1431_1506)" stroke="url(#paint27_linear_1431_1506)" stroke-miterlimit="10"/>
</g>
<defs>
<linearGradient id="paint0_linear_1431_1506" x1="38.8535" y1="35.9641" x2="38.1188" y2="107.563" gradientUnits="userSpaceOnUse">
<stop offset="0.0144231" stop-color="#121214"/>
<stop offset="0.283654" stop-color="#222227"/>
<stop offset="0.399038" stop-color="#121214"/>
</linearGradient>
<linearGradient id="paint1_linear_1431_1506" x1="40" y1="32.4423" x2="39.3587" y2="76.6638" gradientUnits="userSpaceOnUse">
<stop stop-color="#121214"/>
<stop offset="0.403846" stop-color="#3D3D47"/>
<stop offset="0.741739" stop-color="#121214"/>
</linearGradient>
<linearGradient id="paint2_linear_1431_1506" x1="82.8535" y1="35.9641" x2="82.1188" y2="107.563" gradientUnits="userSpaceOnUse">
<stop offset="0.0144231" stop-color="#121214"/>
<stop offset="0.283654" stop-color="#222227"/>
<stop offset="0.399038" stop-color="#121214"/>
</linearGradient>
<linearGradient id="paint3_linear_1431_1506" x1="84" y1="32.4423" x2="83.3587" y2="76.6638" gradientUnits="userSpaceOnUse">
<stop stop-color="#121214"/>
<stop offset="0.403846" stop-color="#3D3D47"/>
<stop offset="0.741739" stop-color="#121214"/>
</linearGradient>
<linearGradient id="paint4_linear_1431_1506" x1="60.8535" y1="43.1698" x2="60.3351" y2="103.315" gradientUnits="userSpaceOnUse">
<stop offset="0.0144231" stop-color="#121214"/>
<stop offset="0.172907" stop-color="#222227"/>
<stop offset="0.347462" stop-color="#121214"/>
</linearGradient>
<linearGradient id="paint5_linear_1431_1506" x1="62" y1="40.2115" x2="61.5475" y2="77.3599" gradientUnits="userSpaceOnUse">
<stop stop-color="#121214"/>
<stop offset="0.403846" stop-color="#3D3D47"/>
<stop offset="0.663462" stop-color="#121214"/>
</linearGradient>
<linearGradient id="paint6_linear_1431_1506" x1="46.3309" y1="4.07053" x2="61.093" y2="55.4144" gradientUnits="userSpaceOnUse">
<stop stop-color="#222227"/>
<stop offset="0.73" stop-color="#121214"/>
<stop offset="1" stop-color="#121214"/>
</linearGradient>
<linearGradient id="paint7_linear_1431_1506" x1="51" y1="9.93454e-08" x2="50.9998" y2="53" gradientUnits="userSpaceOnUse">
<stop stop-color="#C0C0CA"/>
<stop offset="1" stop-opacity="0"/>
</linearGradient>
<linearGradient id="paint8_linear_1431_1506" x1="15.2515" y1="6.65184" x2="48.802" y2="21.456" gradientUnits="userSpaceOnUse">
<stop stop-color="#222227"/>
<stop offset="0.73" stop-color="#121214"/>
<stop offset="1" stop-color="#121214"/>
</linearGradient>
<linearGradient id="paint9_linear_1431_1506" x1="14.3246" y1="-7.73077" x2="13.6922" y2="74.6747" gradientUnits="userSpaceOnUse">
<stop stop-color="#C0C0CA"/>
<stop offset="1" stop-opacity="0"/>
</linearGradient>
<linearGradient id="paint10_linear_1431_1506" x1="102.252" y1="6.65184" x2="135.802" y2="21.456" gradientUnits="userSpaceOnUse">
<stop stop-color="#222227"/>
<stop offset="0.73" stop-color="#121214"/>
<stop offset="1" stop-color="#121214"/>
</linearGradient>
<linearGradient id="paint11_linear_1431_1506" x1="101.325" y1="-7.73077" x2="100.692" y2="74.6747" gradientUnits="userSpaceOnUse">
<stop stop-color="#C0C0CA"/>
<stop offset="1" stop-opacity="0"/>
</linearGradient>
<linearGradient id="paint12_linear_1431_1506" x1="-1.5" y1="36" x2="106.711" y2="96.208" gradientUnits="userSpaceOnUse">
<stop offset="0.0480769" stop-color="#222227"/>
<stop offset="0.533654" stop-color="#121214"/>
<stop offset="1" stop-color="#121214"/>
</linearGradient>
<linearGradient id="paint13_linear_1431_1506" x1="69.5" y1="80.5" x2="7.05385" y2="42.2782" gradientUnits="userSpaceOnUse">
<stop stop-opacity="0"/>
<stop offset="1" stop-color="#94949B"/>
</linearGradient>
<linearGradient id="paint14_linear_1431_1506" x1="86.2418" y1="46.1482" x2="135.223" y2="96.9425" gradientUnits="userSpaceOnUse">
<stop stop-color="#222227"/>
<stop offset="0.73" stop-color="#121214"/>
<stop offset="1" stop-color="#121214"/>
</linearGradient>
<linearGradient id="paint15_linear_1431_1506" x1="82.3158" y1="30.6923" x2="144.627" y2="101.055" gradientUnits="userSpaceOnUse">
<stop stop-color="#C0C0CA"/>
<stop offset="1" stop-opacity="0"/>
</linearGradient>
<linearGradient id="paint16_linear_1431_1506" x1="101" y1="59.5" x2="83.7303" y2="122.73" gradientUnits="userSpaceOnUse">
<stop stop-color="#FF5F1F"/>
<stop offset="0.65" stop-color="#531F0A" stop-opacity="0"/>
<stop offset="1" stop-opacity="0"/>
</linearGradient>
<linearGradient id="paint17_linear_1431_1506" x1="56.5" y1="90.5" x2="118.636" y2="56.2467" gradientUnits="userSpaceOnUse">
<stop stop-opacity="0"/>
<stop offset="0.576923" stop-color="#531F0A" stop-opacity="0"/>
<stop offset="0.889423" stop-color="#FF9255"/>
</linearGradient>
<linearGradient id="paint18_linear_1431_1506" x1="106.241" y1="80.1246" x2="105.035" y2="99.1692" gradientUnits="userSpaceOnUse">
<stop stop-color="#FF5F1F"/>
<stop offset="0.65" stop-color="#531F0A" stop-opacity="0"/>
<stop offset="1" stop-opacity="0"/>
</linearGradient>
<linearGradient id="paint19_linear_1431_1506" x1="58.0115" y1="90.0636" x2="72.9107" y2="59.3602" gradientUnits="userSpaceOnUse">
<stop stop-opacity="0"/>
<stop offset="0.576923" stop-color="#531F0A" stop-opacity="0"/>
<stop offset="0.889423" stop-color="#FF9255"/>
</linearGradient>
<linearGradient id="paint20_linear_1431_1506" x1="103.817" y1="90.9152" x2="102.501" y2="106.811" gradientUnits="userSpaceOnUse">
<stop stop-color="#FF5F1F"/>
<stop offset="0.65" stop-color="#531F0A" stop-opacity="0"/>
<stop offset="1" stop-opacity="0"/>
</linearGradient>
<linearGradient id="paint21_linear_1431_1506" x1="72.9333" y1="99.2342" x2="87.2943" y2="76.5927" gradientUnits="userSpaceOnUse">
<stop stop-opacity="0"/>
<stop offset="0.576923" stop-color="#531F0A" stop-opacity="0"/>
<stop offset="0.889423" stop-color="#FF9255"/>
</linearGradient>
<linearGradient id="paint22_linear_1431_1506" x1="66.3283" y1="-4.3319" x2="34.6526" y2="37.8404" gradientUnits="userSpaceOnUse">
<stop stop-color="#FF5F1F"/>
<stop offset="0.65" stop-color="#531F0A" stop-opacity="0"/>
<stop offset="1" stop-opacity="0"/>
</linearGradient>
<linearGradient id="paint23_linear_1431_1506" x1="59.3681" y1="2.24168" x2="62.0749" y2="40.9098" gradientUnits="userSpaceOnUse">
<stop stop-color="#FF9255"/>
<stop offset="0.317308" stop-color="#531F0A" stop-opacity="0"/>
<stop offset="1" stop-opacity="0"/>
</linearGradient>
<linearGradient id="paint24_linear_1431_1506" x1="74.4487" y1="3.01522" x2="48.964" y2="50.5964" gradientUnits="userSpaceOnUse">
<stop stop-color="#FF5F1F"/>
<stop offset="0.65" stop-color="#531F0A" stop-opacity="0"/>
<stop offset="1" stop-opacity="0"/>
</linearGradient>
<linearGradient id="paint25_linear_1431_1506" x1="70.1952" y1="9.97547" x2="77.9288" y2="28.5362" gradientUnits="userSpaceOnUse">
<stop offset="0.110577" stop-color="#FF9255"/>
<stop offset="0.423077" stop-color="#531F0A" stop-opacity="0"/>
<stop offset="1" stop-opacity="0"/>
</linearGradient>
<linearGradient id="paint26_linear_1431_1506" x1="46.7125" y1="23.5036" x2="79.5941" y2="-19.549" gradientUnits="userSpaceOnUse">
<stop stop-color="#FF5F1F"/>
<stop offset="0.65" stop-color="#531F0A" stop-opacity="0"/>
<stop offset="1" stop-color="#121214" stop-opacity="0"/>
</linearGradient>
<linearGradient id="paint27_linear_1431_1506" x1="47.7673" y1="9.97497" x2="47.7673" y2="37.0426" gradientUnits="userSpaceOnUse">
<stop offset="0.105769" stop-color="#FF9255"/>
<stop offset="0.504808" stop-color="#531F0A" stop-opacity="0"/>
<stop offset="1" stop-opacity="0"/>
</linearGradient>
<clipPath id="clip0_1431_1506">
<rect width="136" height="111" fill="white"/>
</clipPath>
</defs>
</svg>
