<svg width="136" height="111" viewBox="0 0 136 111" fill="none" xmlns="http://www.w3.org/2000/svg">
<g clip-path="url(#clip0_1431_1541)">
<path d="M8.8418 0.5H113.158C117.811 0.500041 121.5 3.91926 121.5 8.03906V69.9609C121.5 74.0807 117.811 77.5 113.158 77.5H8.8418C4.18888 77.5 0.5 74.0807 0.5 69.9609V8.03906C0.5 3.91926 4.18888 0.50004 8.8418 0.5Z" fill="url(#paint0_linear_1431_1541)" stroke="url(#paint1_linear_1431_1541)" stroke-miterlimit="10"/>
<path d="M8.26172 0.5H105.738C110.038 0.500192 113.5 3.88844 113.5 8.03906V69.9609C113.5 74.1116 110.038 77.4998 105.738 77.5H8.26172C3.96201 77.4998 0.5 74.1116 0.5 69.9609V8.03906C0.5 4.01809 3.7491 0.712502 7.86133 0.509766L8.26172 0.5Z" fill="url(#paint2_linear_1431_1541)" stroke="url(#paint3_linear_1431_1541)" stroke-miterlimit="10"/>
<g clip-path="url(#clip1_1431_1541)">
<path d="M25.4072 36.6777C25.6539 36.6249 25.9189 36.8182 25.9189 37.1328V49.5811C25.919 50.4093 26.5907 51.0809 27.4189 51.0811H39.8672C40.1818 51.0811 40.3751 51.3461 40.3223 51.5928C39.1089 57.2548 34.075 61.4999 28.0508 61.5C21.1194 61.5 15.5 55.8805 15.5 48.9492C15.5002 42.9249 19.745 37.8911 25.4072 36.6777Z" fill="url(#paint4_linear_1431_1541)" stroke="url(#paint5_linear_1431_1541)" stroke-miterlimit="10"/>
<path d="M31.6667 36.3226C30.7947 36.092 30 36.7966 30 37.6986V45.5C30 46.3284 30.6716 47 31.5 47H39.3015C40.2035 47 40.9081 46.2054 40.6775 45.3333C39.5161 40.9419 36.0583 37.4841 31.6667 36.3226Z" fill="url(#paint6_linear_1431_1541)" stroke="url(#paint7_linear_1431_1541)" stroke-miterlimit="10"/>
</g>
<path d="M12.5586 8.5C14.4341 8.5 15.9551 10.0195 15.9551 11.8945C15.955 13.7695 14.4341 15.2891 12.5586 15.2891C10.6832 15.289 9.1622 13.7694 9.16211 11.8945C9.16211 10.0196 10.6831 8.50009 12.5586 8.5Z" fill="url(#paint8_linear_1431_1541)" stroke="url(#paint9_linear_1431_1541)" stroke-miterlimit="10"/>
<path d="M21.8965 8.5C23.772 8.5 25.293 10.0195 25.293 11.8945C25.2929 13.7695 23.772 15.2891 21.8965 15.2891C20.0211 15.289 18.5001 13.7694 18.5 11.8945C18.5 10.0196 20.021 8.50009 21.8965 8.5Z" fill="url(#paint10_linear_1431_1541)" stroke="url(#paint11_linear_1431_1541)" stroke-miterlimit="10"/>
<path d="M31.8965 8.5C33.772 8.5 35.293 10.0195 35.293 11.8945C35.2929 13.7695 33.772 15.2891 31.8965 15.2891C30.0211 15.289 28.5001 13.7694 28.5 11.8945C28.5 10.0196 30.021 8.50009 31.8965 8.5Z" fill="url(#paint12_linear_1431_1541)" stroke="url(#paint13_linear_1431_1541)" stroke-miterlimit="10"/>
<path d="M69.6204 27H58.03C56.5362 27 55.3252 28.3738 55.3252 30.0685V68.9315C55.3252 70.6262 56.5362 72 58.03 72H69.6204C71.1142 72 72.3252 70.6262 72.3252 68.9315V30.0685C72.3252 28.3738 71.1142 27 69.6204 27Z" fill="url(#paint14_linear_1431_1541)" stroke="url(#paint15_linear_1431_1541)" stroke-miterlimit="10"/>
<path d="M94.2952 14H82.7048C81.211 14 80 15.3673 80 17.0539V68.9461C80 70.6327 81.211 72 82.7048 72H94.2952C95.789 72 97 70.6327 97 68.9461V17.0539C97 15.3673 95.789 14 94.2952 14Z" fill="url(#paint16_linear_1431_1541)" stroke="url(#paint17_linear_1431_1541)" stroke-miterlimit="10"/>
<circle cx="93" cy="67" r="30" fill="url(#paint18_linear_1431_1541)" stroke="url(#paint19_linear_1431_1541)" stroke-miterlimit="10"/>
<path d="M89.1185 65.3156C89.9172 65.1605 90.6986 64.8508 91.4135 64.3864C93.6601 62.9329 94.7819 60.2985 94.2661 57.6736L92.0973 46.583L86.7823 47.6254L88.9511 58.7159C89.1559 59.7704 89.7366 60.713 90.5819 61.3748L91.1565 61.8256C91.4023 62.1687 90.9748 62.5875 90.635 62.3393L86.0938 58.9961L86.0753 58.9836L78.0125 53.2778L74.88 57.698L84.118 64.2358C85.607 65.2911 87.4087 65.6519 89.1189 65.3153L89.1185 65.3156Z" fill="url(#paint20_linear_1431_1541)" stroke="url(#paint21_linear_1431_1541)" stroke-miterlimit="10"/>
<path d="M100.009 64.5676L99.5573 65.1423C99.2139 65.3883 98.7953 64.9612 99.0439 64.6213L102.391 60.0791L102.404 60.0605L108.117 51.9961L103.698 48.8677L97.1516 58.1077C96.0949 59.597 95.7326 61.3984 96.068 63.1079C96.2226 63.9062 96.5318 64.6872 96.9958 65.4015C98.4482 67.6464 101.082 68.7658 103.709 68.2483L114.804 66.0721L113.765 60.7595L102.67 62.9357C101.615 63.1412 100.672 63.7224 100.009 64.568L100.009 64.5676Z" fill="url(#paint22_linear_1431_1541)" stroke="url(#paint23_linear_1431_1541)" stroke-miterlimit="10"/>
<path d="M91.3382 72.2933C91.1846 71.4948 90.8768 70.7135 90.4141 69.9984C88.9652 67.7511 86.3323 66.6278 83.7054 67.1408L72.6066 69.3L73.6372 74.614L84.7361 72.4549C85.7914 72.2508 86.7354 71.6714 87.3996 70.8265L87.8519 70.2523C88.1958 70.0071 88.6134 70.4343 88.3648 70.7742L85.0105 75.3113L84.9979 75.3299L79.2724 83.3854L83.6868 86.521L90.2476 77.2913C91.3063 75.8035 91.6715 74.003 91.339 72.2928L91.3382 72.2933Z" fill="url(#paint24_linear_1431_1541)" stroke="url(#paint25_linear_1431_1541)" stroke-miterlimit="10"/>
<path fill-rule="evenodd" clip-rule="evenodd" d="M98 73L134 80.2L123.2 87.4L134 98.2L123.2 109L112.4 98.2L105.2 109L98 73Z" fill="url(#paint26_linear_1431_1541)" stroke="url(#paint27_linear_1431_1541)" stroke-miterlimit="10"/>
</g>
<defs>
<linearGradient id="paint0_linear_1431_1541" x1="37.6874" y1="7.74393" x2="85.1275" y2="84.6918" gradientUnits="userSpaceOnUse">
<stop stop-color="#222227"/>
<stop offset="0.73" stop-color="#121214" stop-opacity="0"/>
<stop offset="1" stop-color="#121214" stop-opacity="0"/>
</linearGradient>
<linearGradient id="paint1_linear_1431_1541" x1="31.0351" y1="-9" x2="89.3469" y2="93.9901" gradientUnits="userSpaceOnUse">
<stop stop-color="#C0C0CA"/>
<stop offset="1" stop-opacity="0"/>
</linearGradient>
<linearGradient id="paint2_linear_1431_1541" x1="35.2161" y1="7.74393" x2="84.0322" y2="81.7315" gradientUnits="userSpaceOnUse">
<stop stop-color="#222227"/>
<stop offset="0.73" stop-color="#121214" stop-opacity="0"/>
<stop offset="1" stop-color="#121214" stop-opacity="0"/>
</linearGradient>
<linearGradient id="paint3_linear_1431_1541" x1="29" y1="-9" x2="89.2781" y2="90.4818" gradientUnits="userSpaceOnUse">
<stop stop-color="#C0C0CA"/>
<stop offset="1" stop-opacity="0"/>
</linearGradient>
<linearGradient id="paint4_linear_1431_1541" x1="23.0318" y1="38.5813" x2="40.7194" y2="56.9237" gradientUnits="userSpaceOnUse">
<stop stop-color="#222227"/>
<stop offset="0.73" stop-color="#121214"/>
<stop offset="1" stop-color="#121214"/>
</linearGradient>
<linearGradient id="paint5_linear_1431_1541" x1="21.614" y1="33" x2="44.1153" y2="58.4086" gradientUnits="userSpaceOnUse">
<stop stop-color="#C0C0CA"/>
<stop offset="1" stop-opacity="0"/>
</linearGradient>
<linearGradient id="paint6_linear_1431_1541" x1="35.5001" y1="35.0388" x2="35.5001" y2="58" gradientUnits="userSpaceOnUse">
<stop stop-color="#FF5F1F"/>
<stop offset="0.54" stop-color="#531F0A" stop-opacity="0"/>
<stop offset="1" stop-color="#121214" stop-opacity="0"/>
</linearGradient>
<linearGradient id="paint7_linear_1431_1541" x1="35.5679" y1="64.6" x2="35.5679" y2="34.35" gradientUnits="userSpaceOnUse">
<stop stop-opacity="0"/>
<stop offset="0.504808" stop-color="#531F0A" stop-opacity="0"/>
<stop offset="0.850962" stop-color="#FF9255"/>
</linearGradient>
<linearGradient id="paint8_linear_1431_1541" x1="11.4517" y1="9.57471" x2="15.3897" y2="13.6616" gradientUnits="userSpaceOnUse">
<stop stop-color="#222227"/>
<stop offset="0.73" stop-color="#121214" stop-opacity="0"/>
<stop offset="1" stop-color="#121214" stop-opacity="0"/>
</linearGradient>
<linearGradient id="paint9_linear_1431_1541" x1="11.1358" y1="8.33207" x2="16.1451" y2="13.9931" gradientUnits="userSpaceOnUse">
<stop stop-color="#C0C0CA"/>
<stop offset="1" stop-opacity="0"/>
</linearGradient>
<linearGradient id="paint10_linear_1431_1541" x1="20.7896" y1="9.57471" x2="24.7275" y2="13.6616" gradientUnits="userSpaceOnUse">
<stop stop-color="#222227"/>
<stop offset="0.73" stop-color="#121214" stop-opacity="0"/>
<stop offset="1" stop-color="#121214" stop-opacity="0"/>
</linearGradient>
<linearGradient id="paint11_linear_1431_1541" x1="20.4737" y1="8.33207" x2="25.483" y2="13.9931" gradientUnits="userSpaceOnUse">
<stop stop-color="#C0C0CA"/>
<stop offset="1" stop-opacity="0"/>
</linearGradient>
<linearGradient id="paint12_linear_1431_1541" x1="30.7896" y1="9.57471" x2="34.7275" y2="13.6616" gradientUnits="userSpaceOnUse">
<stop stop-color="#222227"/>
<stop offset="0.73" stop-color="#121214" stop-opacity="0"/>
<stop offset="1" stop-color="#121214" stop-opacity="0"/>
</linearGradient>
<linearGradient id="paint13_linear_1431_1541" x1="30.4737" y1="8.33207" x2="35.483" y2="13.9931" gradientUnits="userSpaceOnUse">
<stop stop-color="#C0C0CA"/>
<stop offset="1" stop-opacity="0"/>
</linearGradient>
<linearGradient id="paint14_linear_1431_1541" x1="63.825" y1="24.4429" x2="63.825" y2="76.1931" gradientUnits="userSpaceOnUse">
<stop stop-color="#FF5F1F"/>
<stop offset="0.65" stop-color="#531F0A" stop-opacity="0"/>
<stop offset="1" stop-color="#121214" stop-opacity="0"/>
</linearGradient>
<linearGradient id="paint15_linear_1431_1541" x1="67.4099" y1="72.5626" x2="58.262" y2="26.8337" gradientUnits="userSpaceOnUse">
<stop stop-opacity="0"/>
<stop offset="0.27" stop-color="#531F0A" stop-opacity="0"/>
<stop offset="0.64" stop-color="#FF9255"/>
</linearGradient>
<linearGradient id="paint16_linear_1431_1541" x1="88.5002" y1="8.93212" x2="88.5002" y2="73.5725" gradientUnits="userSpaceOnUse">
<stop stop-color="#FF5F1F"/>
<stop offset="0.54" stop-color="#531F0A" stop-opacity="0"/>
<stop offset="1" stop-color="#121214" stop-opacity="0"/>
</linearGradient>
<linearGradient id="paint17_linear_1431_1541" x1="93.0852" y1="72.3602" x2="81.4902" y2="14.122" gradientUnits="userSpaceOnUse">
<stop stop-opacity="0"/>
<stop offset="0.504808" stop-color="#531F0A" stop-opacity="0"/>
<stop offset="0.850962" stop-color="#FF9255"/>
</linearGradient>
<linearGradient id="paint18_linear_1431_1541" x1="75.7058" y1="84.8795" x2="145.343" y2="29.8598" gradientUnits="userSpaceOnUse">
<stop stop-color="#222227"/>
<stop offset="0.73" stop-color="#121214" stop-opacity="0"/>
<stop offset="1" stop-color="#121214" stop-opacity="0"/>
</linearGradient>
<linearGradient id="paint19_linear_1431_1541" x1="71.743" y1="42.8128" x2="125.984" y2="93.3325" gradientUnits="userSpaceOnUse">
<stop stop-color="#94949B"/>
<stop offset="1" stop-color="#94949B" stop-opacity="0"/>
</linearGradient>
<linearGradient id="paint20_linear_1431_1541" x1="82.3473" y1="40.559" x2="78.4572" y2="108.648" gradientUnits="userSpaceOnUse">
<stop stop-color="#FF5F1F"/>
<stop offset="0.65" stop-color="#531F0A" stop-opacity="0"/>
<stop offset="1" stop-opacity="0"/>
</linearGradient>
<linearGradient id="paint21_linear_1431_1541" x1="79.5633" y1="52.6213" x2="110.176" y2="92.3089" gradientUnits="userSpaceOnUse">
<stop stop-color="#FF9255"/>
<stop offset="0.317308" stop-color="#531F0A" stop-opacity="0"/>
<stop offset="1" stop-opacity="0"/>
</linearGradient>
<linearGradient id="paint22_linear_1431_1541" x1="96.3516" y1="42.6513" x2="103.001" y2="112.128" gradientUnits="userSpaceOnUse">
<stop stop-color="#FF5F1F"/>
<stop offset="0.65" stop-color="#531F0A" stop-opacity="0"/>
<stop offset="1" stop-opacity="0"/>
</linearGradient>
<linearGradient id="paint23_linear_1431_1541" x1="96.7585" y1="53.1909" x2="118.379" y2="67.6319" gradientUnits="userSpaceOnUse">
<stop offset="0.110577" stop-color="#FF9255"/>
<stop offset="0.423077" stop-color="#531F0A" stop-opacity="0"/>
<stop offset="1" stop-opacity="0"/>
</linearGradient>
<linearGradient id="paint24_linear_1431_1541" x1="81.1708" y1="84.5752" x2="85.7285" y2="14.6748" gradientUnits="userSpaceOnUse">
<stop stop-color="#FF5F1F"/>
<stop offset="0.65" stop-color="#531F0A" stop-opacity="0"/>
<stop offset="1" stop-opacity="0"/>
</linearGradient>
<linearGradient id="paint25_linear_1431_1541" x1="72.6154" y1="69.256" x2="92.0046" y2="98.3946" gradientUnits="userSpaceOnUse">
<stop offset="0.105769" stop-color="#FF9255"/>
<stop offset="0.504808" stop-color="#531F0A" stop-opacity="0"/>
<stop offset="1" stop-opacity="0"/>
</linearGradient>
<linearGradient id="paint26_linear_1431_1541" x1="98" y1="73" x2="133.93" y2="109.069" gradientUnits="userSpaceOnUse">
<stop offset="0.0480769" stop-color="#222227"/>
<stop offset="0.533654" stop-color="#121214"/>
<stop offset="1" stop-color="#121214"/>
</linearGradient>
<linearGradient id="paint27_linear_1431_1541" x1="151.5" y1="130.5" x2="100.51" y2="78.3705" gradientUnits="userSpaceOnUse">
<stop stop-opacity="0"/>
<stop offset="1" stop-color="#94949B"/>
</linearGradient>
<clipPath id="clip0_1431_1541">
<rect width="136" height="111" fill="white"/>
</clipPath>
<clipPath id="clip1_1431_1541">
<rect width="26" height="26" fill="white" transform="translate(15 36)"/>
</clipPath>
</defs>
</svg>
