<svg width="136" height="111" viewBox="0 0 136 111" fill="none" xmlns="http://www.w3.org/2000/svg">
<g clip-path="url(#clip0_1433_2398)">
<path d="M95.5647 6.75162C104.948 6.21321 112.14 13.405 111.602 22.7893L109.935 51.8483C109.654 56.7718 107.436 61.6044 103.754 65.2854L63.6213 105.419C61.2491 107.79 57.6722 107.927 55.6277 105.883L12.4721 62.727C10.4279 60.6825 10.5643 57.1055 12.9361 54.7334L53.0693 14.6002C56.7503 10.9192 61.583 8.70116 66.5064 8.41926L95.5647 6.75162Z" fill="url(#paint0_linear_1433_2398)" stroke="url(#paint1_linear_1433_2398)" stroke-miterlimit="10"/>
<path d="M86.5647 6.75162C95.9482 6.21321 103.14 13.405 102.602 22.7893L100.935 51.8483C100.654 56.7718 98.4355 61.6044 94.7545 65.2854L54.6213 105.419C52.2491 107.79 48.6722 107.927 46.6277 105.883L3.4721 62.727C1.42785 60.6825 1.5643 57.1055 3.93614 54.7334L44.0693 14.6002C47.7503 10.9192 52.583 8.70116 57.5064 8.41926L86.5647 6.75162Z" fill="url(#paint2_linear_1433_2398)" stroke="url(#paint3_linear_1433_2398)" stroke-miterlimit="10"/>
<path d="M87.5 16.5005C90.2614 16.5005 92.5 18.7391 92.5 21.5005C92.5 24.2619 90.2614 26.5005 87.5 26.5005C84.7386 26.5005 82.5 24.2619 82.5 21.5005C82.5 18.7391 84.7386 16.5005 87.5 16.5005Z" fill="url(#paint4_linear_1433_2398)" stroke="url(#paint5_linear_1433_2398)" stroke-miterlimit="10"/>
<g clip-path="url(#clip1_1433_2398)">
<path d="M31.06 52.3748C32.4583 51.0022 33.9557 50.1661 35.5528 49.835C37.1554 49.5027 38.8083 49.6566 40.5218 50.316C42.2346 50.9753 43.9174 52.1342 45.5672 53.8147C47.2163 55.4947 48.3182 57.1721 48.9379 58.8891L48.9385 58.8898C49.5594 60.608 49.6798 62.2589 49.3173 63.8563C48.9567 65.4471 48.0931 66.9288 46.6949 68.3014L46.6517 68.3439C45.2651 69.6924 43.7809 70.5234 42.1978 70.8661C40.5953 71.2128 38.947 71.0684 37.2416 70.4163C35.5377 69.7648 33.8594 68.6103 32.2092 66.9294C30.5589 65.2482 29.4317 63.5439 28.805 61.8195C28.1777 60.0949 28.056 58.4361 28.4257 56.8329C28.7933 55.2333 29.6618 53.7474 31.06 52.3748ZM33.4852 54.8453C32.7584 55.5587 32.3371 56.3943 32.2612 57.3414C32.1858 58.2782 32.4527 59.2733 33.0024 60.3128C33.5538 61.3557 34.4146 62.4637 35.5647 63.6353C37.275 65.3774 38.8655 66.4871 40.3336 66.8677C41.8372 67.2575 43.1721 66.9085 44.2697 65.831C45.2867 64.8324 45.6681 63.6083 45.4149 62.2175L45.356 61.9373C45.0031 60.4627 43.9218 58.8522 42.2116 57.1102C41.0615 55.9385 39.9703 55.0568 38.9378 54.4862C37.9101 53.9182 36.9248 53.63 35.9958 53.6793C35.0522 53.7294 34.2117 54.1321 33.4852 54.8453Z" fill="url(#paint6_linear_1433_2398)" stroke="url(#paint7_linear_1433_2398)" stroke-miterlimit="10"/>
<path d="M68.9116 37.3689C70.3227 35.9838 71.8186 35.2956 73.4694 35.1992C75.0629 35.1067 76.709 35.8535 78.4186 37.5949C80.1283 39.3365 80.845 40.9966 80.7231 42.5883C80.5968 44.2367 79.8603 45.7397 78.4695 47.1051C77.1446 48.4058 75.7202 49.1169 74.1886 49.2795L73.8811 49.305C72.2883 49.3979 70.641 48.6503 68.9312 46.9085C67.2217 45.167 66.5055 43.5074 66.6273 41.9159C66.7541 40.2695 67.4984 38.7563 68.9116 37.3689ZM59.626 25.1513L66.0693 58.813L64.0372 60.8079L57.5953 27.1448L59.626 25.1513ZM70.572 39.0603C70.2324 39.3936 69.9896 39.7653 69.8621 40.1842C69.7505 40.5507 69.7342 40.93 69.7929 41.3181L69.8224 41.4848C70.007 42.3856 70.6305 43.3256 71.5877 44.3007C72.5451 45.2759 73.4739 45.9172 74.3712 46.1184C75.2969 46.3259 76.1289 46.0829 76.8098 45.4145C77.5053 44.7316 77.7759 43.8987 77.5707 42.9679L77.5713 42.9673C77.3755 42.0812 76.7488 41.148 75.792 40.1734C74.8352 39.1987 73.9147 38.5562 73.0322 38.3434L73.0308 38.3434C72.1049 38.1219 71.2675 38.3777 70.572 39.0603ZM45.1937 38.8513C46.5872 37.4832 48.1339 36.747 49.7814 36.6507C51.375 36.5583 53.0216 37.3056 54.7313 39.0471C56.441 40.7888 57.1577 42.4489 57.0358 44.0405C56.9096 45.6873 56.1641 47.2007 54.7515 48.5875C53.36 49.9534 51.8377 50.6674 50.1757 50.7722L50.175 50.7729C48.5723 50.875 46.9219 50.1315 45.2132 48.3909C43.5046 46.6504 42.7921 44.9872 42.9233 43.3859C43.0594 41.7265 43.8021 40.2174 45.1937 38.8513ZM46.854 40.5426C46.5146 40.8759 46.2729 41.2477 46.1455 41.6665C46.034 42.0329 46.017 42.4119 46.0756 42.7998L46.1058 42.9672C46.2904 43.868 46.9138 44.8078 47.8711 45.783C48.8285 46.7582 49.7566 47.3989 50.6539 47.6001C51.58 47.8077 52.4112 47.5649 53.0918 46.8968C53.7873 46.2141 54.0589 45.3798 53.8534 44.4496C53.6575 43.5636 53.0316 42.6297 52.0754 41.6557C51.1194 40.6818 50.198 40.0379 49.3142 39.8258C48.3879 39.604 47.5497 39.8597 46.854 40.5426Z" fill="url(#paint8_linear_1433_2398)" stroke="url(#paint9_linear_1433_2398)" stroke-miterlimit="10"/>
</g>
<rect x="63.5" y="38.5" width="71" height="71" rx="35.5" fill="url(#paint10_linear_1433_2398)"/>
<rect x="63.5" y="38.5" width="71" height="71" rx="35.5" stroke="url(#paint11_linear_1433_2398)" stroke-miterlimit="10"/>
<path d="M89.6504 63.2388C91.7976 62.1105 93.8503 61.1041 95.8945 62.0962L96.0918 62.1987C96.1259 62.2176 96.2519 62.2974 96.3936 62.395C95.7563 62.7447 95.089 63.0884 94.4053 63.4585C93.5346 63.9298 92.658 64.4364 91.8857 65.021C88.7774 67.3757 90.0433 72.1907 93.877 72.5981C94.3262 72.6459 94.8174 72.5602 95.2939 72.4224C95.7763 72.2828 96.2815 72.0785 96.7705 71.8579C97.2601 71.637 97.7479 71.3937 98.1904 71.1743C98.6391 70.9519 99.0358 70.7573 99.3643 70.6216C99.943 70.3823 100.341 70.2418 100.704 70.2329C101.03 70.225 101.376 70.324 101.831 70.6997C103.064 71.7178 104.239 72.9737 105.438 74.2681C106.608 75.5319 107.802 76.8336 109.06 77.9302C109.373 78.4197 109.334 78.9056 109.119 79.2358C108.901 79.5712 108.461 79.8107 107.844 79.6851H107.845C107.845 79.685 107.834 79.6824 107.812 79.6733C107.791 79.664 107.762 79.6502 107.726 79.6294C107.652 79.5872 107.563 79.526 107.46 79.4458C107.253 79.285 107.016 79.0695 106.771 78.8325C106.526 78.5966 106.283 78.3491 106.061 78.1235C105.844 77.9039 105.636 77.6958 105.479 77.5571L105.479 77.5562L105.274 77.3813C105.177 77.3 105.059 77.2027 104.939 77.1118C104.823 77.0231 104.689 76.928 104.568 76.8599C104.511 76.8277 104.43 76.7853 104.341 76.7603C104.296 76.7478 104.223 76.7321 104.137 76.7368C104.046 76.7418 103.91 76.7719 103.792 76.8833L103.581 77.0835L103.65 77.3667C103.714 77.624 103.848 77.8434 103.971 78.0142C104.03 78.096 104.097 78.1799 104.16 78.2573L104.326 78.4595C104.488 78.6616 104.712 78.9016 104.942 79.146C105.179 79.3967 105.429 79.6607 105.665 79.9272C105.902 80.1944 106.112 80.4515 106.268 80.6851C106.39 80.8687 106.459 81.0095 106.491 81.1089L106.512 81.1948C106.581 81.7064 106.336 82.0853 105.972 82.2759C105.646 82.4464 105.218 82.4664 104.824 82.2515L104.657 82.144C104.228 81.8247 103.801 81.4256 103.35 80.9966C102.906 80.5756 102.437 80.1245 101.95 79.7417L101.949 79.7407C101.889 79.6936 101.62 79.4742 101.364 79.2886C101.237 79.1962 101.094 79.0986 100.967 79.0288C100.906 78.9956 100.825 78.9555 100.738 78.9302C100.695 78.9176 100.627 78.9017 100.546 78.9028C100.465 78.904 100.327 78.9235 100.202 79.0278L99.9072 79.2739L100.069 79.6226C100.187 79.8759 100.342 80.0891 100.501 80.2769C100.896 80.7441 101.468 81.227 101.967 81.6616C102.493 82.1201 102.935 82.523 103.177 82.8755C103.487 83.3285 103.434 83.8086 103.184 84.1509C102.931 84.4952 102.462 84.7187 101.882 84.5786C101.882 84.5787 101.879 84.5775 101.874 84.5757C101.869 84.5738 101.861 84.5711 101.852 84.5669C101.832 84.558 101.806 84.5449 101.774 84.5259C101.709 84.4868 101.631 84.4302 101.539 84.3569C101.356 84.2102 101.147 84.0155 100.931 83.7993C100.715 83.5841 100.501 83.3573 100.303 83.1489C100.11 82.9459 99.9242 82.751 99.7803 82.6167C99.7136 82.5544 99.3638 82.2354 99.0215 81.9399C98.8503 81.7922 98.6735 81.6449 98.5332 81.5366C98.4653 81.4843 98.3927 81.4305 98.3281 81.3911C98.2997 81.3738 98.2475 81.3438 98.1855 81.3218C98.1569 81.3116 98.0922 81.2906 98.0088 81.2896C97.924 81.2886 97.7403 81.31 97.6045 81.478L97.4336 81.6899L97.5186 81.9487C97.6754 82.4264 98.0396 82.8725 98.3887 83.2573C98.7725 83.6805 99.1344 84.0279 99.4697 84.4282C99.7967 84.8185 99.9998 85.1517 100.06 85.4448C100.11 85.6917 100.069 85.959 99.7607 86.2886C99.3885 86.6864 98.81 86.751 98.3105 86.4585L98.2119 86.395C98.2072 86.3907 98.2019 86.3836 98.1943 86.3765C98.1657 86.3494 98.1273 86.3127 98.082 86.2671C97.9915 86.176 97.8795 86.0588 97.7686 85.9409C97.6574 85.8228 97.5502 85.7054 97.4697 85.6147C97.4581 85.6017 97.4475 85.5891 97.4375 85.5776C97.4409 85.5189 97.4457 85.4477 97.4521 85.3667C97.4601 85.2674 97.4696 85.1545 97.4756 85.0532C97.4784 85.006 97.4805 84.9532 97.4814 84.9009L97.4785 84.7495C97.3852 83.5325 96.6495 82.2629 95.6113 81.6001H95.6123C95.4705 81.5092 95.1961 81.3909 95.0146 81.3101C94.9109 81.2638 94.8208 81.2234 94.7529 81.1899C94.7353 81.1434 94.7153 81.0844 94.6924 81.0103C94.661 80.9088 94.6159 80.7521 94.5615 80.6128L94.5039 80.4819C94.2197 79.9174 93.607 79.2593 93.0791 78.9272C92.9374 78.8381 92.6846 78.7369 92.5205 78.6704C92.4437 78.6393 92.3755 78.6112 92.3184 78.5874C92.2971 78.5343 92.2726 78.471 92.2461 78.4019C92.211 78.3105 92.1724 78.2094 92.1377 78.1226C92.1065 78.0444 92.0663 77.9475 92.0293 77.8794L92.0283 77.8784L91.9082 77.6782C91.5989 77.2064 91.1074 76.7135 90.6689 76.4321C90.5237 76.339 90.2805 76.2367 90.1299 76.1704C90.0404 76.131 89.9664 76.0972 89.9111 76.0688L89.9102 76.0679C89.8984 76.0376 89.8844 75.9991 89.8682 75.9487C89.8504 75.8936 89.8255 75.8145 89.8018 75.7466C89.7782 75.6791 89.7444 75.5899 89.6982 75.5073C88.7344 73.782 86.9401 73.0206 85.0225 73.3784C83.5541 73.6524 82.3635 74.5912 81.7354 75.9009L80.501 75.5063V63.7612C80.9669 63.9087 81.4377 64.0855 81.9229 64.269C82.6144 64.5307 83.3375 64.8054 84.0693 64.9897C85.3458 65.3116 86.3051 65.1056 87.1807 64.686C87.6039 64.4832 88.007 64.2305 88.4023 63.981C88.8042 63.7272 89.2043 63.4734 89.6504 63.2388Z" fill="url(#paint12_linear_1433_2398)" stroke="url(#paint13_linear_1433_2398)" stroke-miterlimit="10"/>
<path d="M103.844 61.5039C104.076 61.5223 104.433 61.6704 104.904 61.9717C105.36 62.2628 105.862 62.6572 106.373 63.0898C106.883 63.5217 107.387 63.98 107.852 64.3975C108.309 64.8085 108.738 65.1897 109.076 65.4453C109.37 65.6675 109.658 65.8685 109.992 65.9912C110.34 66.1189 110.703 66.149 111.143 66.1025L111.17 66.1006L111.196 66.0947L116.498 64.9463V75.0732C116.193 75.1189 115.878 75.1816 115.565 75.249C115.081 75.3537 114.605 75.4658 114.125 75.5527C113.148 75.7296 112.325 75.764 111.725 75.4678C111.594 75.4032 111.365 75.2222 111.086 74.9688L110.365 74.2871C109.171 73.1702 108.019 71.9984 106.859 70.8174C105.702 69.6389 104.536 68.4508 103.322 67.3164L103.301 67.2969L103.277 67.2793L103.113 67.168C102.283 66.6501 101.312 66.7007 100.497 66.998C99.6298 67.3144 98.7315 67.8064 97.8691 68.2939C96.9922 68.7898 96.1536 69.2802 95.3584 69.6377C94.8182 69.8804 94.2681 69.9423 93.8164 69.8262C93.3816 69.7143 93.0055 69.4311 92.7793 68.8984C92.5433 68.3425 92.6066 67.999 92.7627 67.7314C92.9458 67.4178 93.2973 67.135 93.7949 66.8066C95.9498 65.386 98.8537 63.7318 101.327 62.4648L102.357 61.9473C102.922 61.6691 103.371 61.4668 103.844 61.5039Z" fill="url(#paint14_linear_1433_2398)" stroke="url(#paint15_linear_1433_2398)" stroke-miterlimit="10"/>
<path d="M88.2197 78.5098C88.7417 78.5021 89.1536 78.677 89.415 78.9443C89.7228 79.2591 89.8882 79.7646 89.707 80.4385L89.4902 81.2432L90.3018 81.0557C90.988 80.8975 91.5383 81.1089 91.8633 81.4727C92.1882 81.8365 92.3367 82.4075 92.1025 83.0742L91.793 83.9561L92.6982 83.7246C93.5115 83.5161 94.1387 83.7984 94.4678 84.2461C94.7974 84.6946 94.8834 85.3846 94.4453 86.1104C94.159 86.5846 93.4298 87.0419 92.6543 87.1797C91.9279 87.3088 91.3877 87.1334 91.1348 86.6924L91.0879 86.6006C90.9681 86.334 90.9757 86.1257 91.043 85.8955C91.08 85.7691 91.1357 85.6356 91.208 85.4766C91.276 85.3271 91.3668 85.1392 91.4453 84.9512L91.8125 84.0703L90.8799 84.2695C90.3281 84.3871 89.885 84.5296 89.4561 84.5322C89.261 84.5334 89.1098 84.5021 88.9902 84.4404C88.8764 84.3816 88.7578 84.2783 88.6504 84.0791C88.5081 83.8152 88.509 83.6287 88.5586 83.416C88.5876 83.2916 88.6327 83.1636 88.6924 82.9932C88.7493 82.8306 88.8164 82.6365 88.8682 82.4199L89.042 81.6934L88.3037 81.8096C88.0759 81.8455 87.865 81.9029 87.6875 81.9512C87.6228 81.9688 87.5628 81.9835 87.5068 81.998L88.2197 78.5098ZM84.2705 76.9082C84.9002 76.0772 85.798 75.8764 86.4424 76.0879C86.7633 76.1933 87.0256 76.4003 87.1865 76.6914C87.312 76.9185 87.3869 77.2204 87.3604 77.6045L87.3047 77.6143V82.0439C87.2754 82.0498 87.2472 82.0581 87.2188 82.0625C86.9789 82.0996 86.7889 82.08 86.5547 81.9023C86.3564 81.7521 86.2559 81.6201 86.2031 81.5107C86.1516 81.4037 86.1306 81.2882 86.1377 81.1475C86.1452 80.9996 86.1827 80.8297 86.2461 80.6201C86.3164 80.3877 86.384 80.2096 86.4736 79.9277L86.8086 78.875L85.7969 79.3184C85.227 79.5679 84.7895 79.6038 84.4824 79.54C84.1847 79.4782 83.9779 79.318 83.8496 79.0986C83.5838 78.6439 83.5995 77.7938 84.2705 76.9082Z" fill="url(#paint16_linear_1433_2398)" stroke="url(#paint17_linear_1433_2398)" stroke-miterlimit="10"/>
</g>
<defs>
<linearGradient id="paint0_linear_1433_2398" x1="90.4948" y1="8.21937" x2="103.841" y2="90.3963" gradientUnits="userSpaceOnUse">
<stop stop-color="#222227"/>
<stop offset="0.365385" stop-color="#121214" stop-opacity="0"/>
<stop offset="1" stop-color="#121214" stop-opacity="0"/>
</linearGradient>
<linearGradient id="paint1_linear_1433_2398" x1="103.57" y1="-10.46" x2="117.058" y2="101.313" gradientUnits="userSpaceOnUse">
<stop stop-color="#C0C0CA"/>
<stop offset="1" stop-opacity="0"/>
</linearGradient>
<linearGradient id="paint2_linear_1433_2398" x1="25" y1="16.9995" x2="54" y2="130" gradientUnits="userSpaceOnUse">
<stop stop-color="#222227"/>
<stop offset="0.73" stop-color="#121214"/>
<stop offset="1" stop-color="#121214"/>
</linearGradient>
<linearGradient id="paint3_linear_1433_2398" x1="42" y1="-3.00049" x2="24" y2="123" gradientUnits="userSpaceOnUse">
<stop stop-color="#C0C0CA"/>
<stop offset="1" stop-opacity="0"/>
</linearGradient>
<linearGradient id="paint4_linear_1433_2398" x1="85.7802" y1="17.894" x2="91.9029" y2="24.2433" gradientUnits="userSpaceOnUse">
<stop stop-color="#222227"/>
<stop offset="0.73" stop-color="#121214" stop-opacity="0"/>
<stop offset="1" stop-color="#121214" stop-opacity="0"/>
</linearGradient>
<linearGradient id="paint5_linear_1433_2398" x1="85.2895" y1="15.962" x2="93.0784" y2="24.7573" gradientUnits="userSpaceOnUse">
<stop stop-color="#C0C0CA"/>
<stop offset="1" stop-opacity="0"/>
</linearGradient>
<linearGradient id="paint6_linear_1433_2398" x1="29.5" y1="50.999" x2="78.5" y2="84.999" gradientUnits="userSpaceOnUse">
<stop stop-color="#FF5F1F"/>
<stop offset="0.359938" stop-color="#531F0A" stop-opacity="0"/>
<stop offset="0.754808" stop-opacity="0"/>
</linearGradient>
<linearGradient id="paint7_linear_1433_2398" x1="53.9613" y1="70.477" x2="40.601" y2="47.3368" gradientUnits="userSpaceOnUse">
<stop offset="0.25" stop-opacity="0"/>
<stop offset="0.519231" stop-color="#531F0A" stop-opacity="0"/>
<stop offset="0.889423" stop-color="#FF9255"/>
</linearGradient>
<linearGradient id="paint8_linear_1433_2398" x1="52.9995" y1="35.5" x2="68.2728" y2="63.1042" gradientUnits="userSpaceOnUse">
<stop stop-color="#FF5F1F"/>
<stop offset="0.490385" stop-color="#531F0A" stop-opacity="0"/>
<stop offset="1" stop-opacity="0"/>
</linearGradient>
<linearGradient id="paint9_linear_1433_2398" x1="66.9717" y1="63.5379" x2="45.5198" y2="33.1984" gradientUnits="userSpaceOnUse">
<stop offset="0.25" stop-opacity="0"/>
<stop offset="0.519231" stop-color="#531F0A" stop-opacity="0"/>
<stop offset="0.889423" stop-color="#FF9255"/>
</linearGradient>
<linearGradient id="paint10_linear_1433_2398" x1="85.2418" y1="45.1482" x2="134.223" y2="95.9425" gradientUnits="userSpaceOnUse">
<stop stop-color="#222227"/>
<stop offset="0.73" stop-color="#121214"/>
<stop offset="1" stop-color="#121214"/>
</linearGradient>
<linearGradient id="paint11_linear_1433_2398" x1="81.3158" y1="29.6923" x2="143.627" y2="100.055" gradientUnits="userSpaceOnUse">
<stop stop-color="#C0C0CA"/>
<stop offset="1" stop-opacity="0"/>
</linearGradient>
<linearGradient id="paint12_linear_1433_2398" x1="96.963" y1="65.5165" x2="83.3066" y2="132.896" gradientUnits="userSpaceOnUse">
<stop stop-color="#FF5F1F"/>
<stop offset="0.65" stop-color="#531F0A" stop-opacity="0"/>
<stop offset="1" stop-opacity="0"/>
</linearGradient>
<linearGradient id="paint13_linear_1433_2398" x1="75.0352" y1="93.037" x2="96.5039" y2="60.772" gradientUnits="userSpaceOnUse">
<stop stop-opacity="0"/>
<stop offset="0.576923" stop-color="#531F0A" stop-opacity="0"/>
<stop offset="0.889423" stop-color="#FF9255"/>
</linearGradient>
<linearGradient id="paint14_linear_1433_2398" x1="106.289" y1="63.5314" x2="100.571" y2="103.78" gradientUnits="userSpaceOnUse">
<stop stop-color="#FF5F1F"/>
<stop offset="0.65" stop-color="#531F0A" stop-opacity="0"/>
<stop offset="1" stop-opacity="0"/>
</linearGradient>
<linearGradient id="paint15_linear_1433_2398" x1="87.9769" y1="79.6406" x2="98.4146" y2="57.2605" gradientUnits="userSpaceOnUse">
<stop stop-opacity="0"/>
<stop offset="0.576923" stop-color="#531F0A" stop-opacity="0"/>
<stop offset="0.889423" stop-color="#FF9255"/>
</linearGradient>
<linearGradient id="paint16_linear_1433_2398" x1="90.0539" y1="77.5448" x2="82.6847" y2="108.817" gradientUnits="userSpaceOnUse">
<stop stop-color="#FF5F1F"/>
<stop offset="0.65" stop-color="#531F0A" stop-opacity="0"/>
<stop offset="1" stop-opacity="0"/>
</linearGradient>
<linearGradient id="paint17_linear_1433_2398" x1="81.1791" y1="90.4948" x2="91.7802" y2="76.7915" gradientUnits="userSpaceOnUse">
<stop stop-opacity="0"/>
<stop offset="0.576923" stop-color="#531F0A" stop-opacity="0"/>
<stop offset="0.889423" stop-color="#FF9255"/>
</linearGradient>
<clipPath id="clip0_1433_2398">
<rect width="136" height="111" fill="white"/>
</clipPath>
<clipPath id="clip1_1433_2398">
<rect width="59.1154" height="27.6214" fill="white" transform="translate(21 59.4126) rotate(-44.4705)"/>
</clipPath>
</defs>
</svg>
