<svg width="137" height="112" viewBox="0 0 137 112" fill="none" xmlns="http://www.w3.org/2000/svg">
<g clip-path="url(#clip0_1369_7320)">
<path d="M78 77.4995H47V104.5H78V77.4995Z" fill="url(#paint0_linear_1369_7320)"/>
<path d="M73.5 104.029H37.5C36.6716 104.029 36 104.701 36 105.529V109C36 109.828 36.6716 110.5 37.5 110.5H73.5C74.3284 110.5 75 109.828 75 109V105.529C75 104.701 74.3284 104.029 73.5 104.029Z" fill="url(#paint1_linear_1369_7320)"/>
<path d="M84.5 77.4998V107.5C84.4998 109.433 82.9329 111 81 111H72.5C71.3955 111 70.5002 110.104 70.5 109V105.635L70.5107 105.43C70.6131 104.422 71.4644 103.635 72.5 103.635H76.5771C77.1294 103.635 77.5771 103.187 77.5771 102.635V77.4998H84.5Z" fill="url(#paint2_linear_1369_7320)" stroke="white" stroke-miterlimit="10"/>
<path d="M114.158 1.5H9.84188C4.95864 1.5 1 5.09909 1 9.5388V71.4612C1 75.9009 4.95864 79.5 9.84188 79.5H114.158C119.041 79.5 123 75.9009 123 71.4612V9.5388C123 5.09909 119.041 1.5 114.158 1.5Z" fill="url(#paint3_linear_1369_7320)"/>
<path d="M106.738 1L107.188 1.01074C111.804 1.2376 115.5 4.9387 115.5 9.50195V71.1436C115.5 75.8539 111.562 79.6453 106.738 79.6455H9.26172C4.43802 79.6453 0.500196 75.8539 0.5 71.1436V9.50195C0.500168 4.79161 4.438 1.00019 9.26172 1H106.738Z" fill="url(#paint4_linear_1369_7320)" stroke="white" stroke-miterlimit="10"/>
<path d="M13.5088 18.043C13.9768 10.7275 22.992 7.29864 28.209 12.499C31.091 15.372 31.584 19.955 29.3418 23.3447L34.3535 28.3691L34.7051 28.7207L34.3555 29.0732L32.5986 30.8516L32.4521 31H31.9971L31.8506 30.8535L26.8438 25.832C26.275 26.199 25.6647 26.5201 25.0117 26.752C19.9807 28.5386 14.5994 25.3511 13.6455 20.165L13.6416 20.1455L13.5127 19.2402L13.5059 19.1934L13.5078 19.1455C13.5152 18.9879 13.51 18.824 13.5049 18.6348C13.5 18.4531 13.4957 18.2476 13.5088 18.043Z" fill="url(#paint5_linear_1369_7320)" stroke="url(#paint6_linear_1369_7320)" stroke-miterlimit="10"/>
<path d="M29.2949 39L29.4648 39.0049C31.2027 39.1028 32.5 40.6973 32.5 42.5342V67.4658C32.5 69.362 31.1173 71 29.2949 71H17.7051C15.8827 71 14.5 69.362 14.5 67.4658V42.5342C14.5 40.638 15.8827 39 17.7051 39H29.2949Z" fill="url(#paint7_linear_1369_7320)" stroke="url(#paint8_linear_1369_7320)" stroke-miterlimit="10"/>
<path d="M53.6201 25C55.4474 25 56.8251 26.6587 56.8252 28.5684V67.4316C56.8251 69.3413 55.4474 71 53.6201 71H42.0303C40.203 71 38.8252 69.3413 38.8252 67.4316V28.5684C38.8252 26.6587 40.203 25 42.0303 25H53.6201Z" fill="url(#paint9_linear_1369_7320)" stroke="url(#paint10_linear_1369_7320)" stroke-miterlimit="10"/>
<path d="M78.2949 12L78.4648 12.0049C80.2052 12.1034 81.4999 13.7093 81.5 15.5537V67.4463C81.4999 69.3502 80.1201 71 78.2949 71H66.7051C64.8799 71 63.5001 69.3502 63.5 67.4463V15.5537L63.5039 15.376C63.5867 13.5483 64.9369 12 66.7051 12H78.2949Z" fill="url(#paint11_linear_1369_7320)" stroke="url(#paint12_linear_1369_7320)" stroke-miterlimit="10"/>
<rect x="82.5" y="18" width="55" height="73" rx="3.5" fill="url(#paint13_linear_1369_7320)" stroke="white" stroke-miterlimit="10"/>
<rect x="76.5" y="18" width="55" height="73" rx="3.5" fill="url(#paint14_linear_1369_7320)" stroke="white" stroke-miterlimit="10"/>
<path d="M101.771 24.3203L103.655 29.208L103.659 29.2188L103.663 29.2285L103.667 29.2373L104 30.1543C104.024 30.08 104.051 30.0062 104.081 29.9336L106.387 24.3887L106.578 23.9277L107.04 24.1191L109.698 25.2227L110.16 25.4141L109.968 25.876L107.663 31.4209C107.04 32.9229 105.583 33.8779 103.958 33.8574V33.8584C103.441 33.8527 102.941 33.7463 102.483 33.5557V33.5566C101.564 33.1757 100.811 32.4564 100.393 31.5156L100.313 31.3242L98.1514 25.7129L97.9717 25.2461L98.4385 25.0664L101.126 24.0332L101.592 23.8535L101.771 24.3203Z" fill="url(#paint15_linear_1369_7320)" stroke="url(#paint16_linear_1369_7320)" stroke-miterlimit="10"/>
<path d="M114.433 29.9302L115.467 32.6147L115.646 33.0815L115.18 33.2612L110.278 35.147L110.276 35.1479L110.268 35.1519L110.259 35.1548L109.341 35.4878C109.415 35.5119 109.49 35.5385 109.562 35.5688H109.562L115.11 37.8716L115.572 38.064L115.381 38.5259L114.276 41.1821L114.084 41.6431L113.623 41.4517L108.074 39.1479C106.571 38.5255 105.613 37.0696 105.634 35.4448C105.64 34.9276 105.747 34.4281 105.938 33.9712C106.344 32.9914 107.136 32.2006 108.171 31.8032L113.786 29.6431L114.253 29.4634L114.433 29.9302Z" fill="url(#paint17_linear_1369_7320)" stroke="url(#paint18_linear_1369_7320)" stroke-miterlimit="10"/>
<path d="M94.3896 29.5339L99.9355 31.8464C101.343 32.4326 102.271 33.7504 102.362 35.2517L102.369 35.5535C102.366 35.8194 102.336 36.0806 102.281 36.3337H102.354L102.064 37.0261C101.656 38.0056 100.863 38.7942 99.8271 39.1902L94.209 41.3425L93.7422 41.5212L93.5625 41.0544L92.5332 38.3679L92.3545 37.9011L92.8213 37.7224L97.7256 35.8435L97.7451 35.8357L98.6611 35.5037C98.5872 35.4796 98.5136 35.4538 98.4414 35.4236L92.8965 33.1111L92.4346 32.9187L92.6279 32.4578L93.7363 29.8035L93.9287 29.3425L94.3896 29.5339Z" fill="url(#paint19_linear_1369_7320)" stroke="url(#paint20_linear_1369_7320)" stroke-miterlimit="10"/>
<rect x="0.5" y="-0.5" width="32" height="5" rx="1" transform="matrix(-1 0 0 1 122 48.5)" fill="black" fill-opacity="0.05" stroke="url(#paint21_linear_1369_7320)"/>
<rect x="0.5" y="-0.5" width="23" height="5" rx="1" transform="matrix(-1 0 0 1 122 59.5)" fill="black" fill-opacity="0.05" stroke="url(#paint22_linear_1369_7320)"/>
<rect x="0.5" y="-0.5" width="18" height="5" rx="1" transform="matrix(-1 0 0 1 122 70.5)" fill="black" fill-opacity="0.05" stroke="url(#paint23_linear_1369_7320)"/>
<path d="M71.7646 47.1045C68.9587 44.2988 64.4094 44.2986 61.6035 47.1045L60.75 47.958H60.874C58.8245 50.7682 59.0679 54.7291 61.6045 57.2656L77.666 73.3281C78.6384 74.301 79.1543 74.8168 79.7246 75.2617C80.3914 75.7819 81.1131 76.2279 81.876 76.5918C82.5292 76.9033 83.2218 77.1327 84.5264 77.5674L91.4678 79.8818H91.4688C92.2958 80.1571 93.2074 79.942 93.8242 79.3252C94.4412 78.7082 94.6564 77.7959 94.3809 76.9688L92.0664 70.0273C91.6316 68.7225 91.4024 68.0293 91.0908 67.376C90.7273 66.6128 90.2808 65.8912 89.7607 65.2246C89.3157 64.6543 88.799 64.1389 87.8262 63.166L71.7646 47.1045Z" fill="url(#paint24_linear_1369_7320)" stroke="url(#paint25_linear_1369_7320)" stroke-miterlimit="10"/>
</g>
<defs>
<linearGradient id="paint0_linear_1369_7320" x1="53" y1="110.5" x2="49.5388" y2="79.8419" gradientUnits="userSpaceOnUse">
<stop stop-color="white" stop-opacity="0"/>
<stop offset="0.178835" stop-color="white" stop-opacity="0"/>
<stop offset="1" stop-color="#D9D9DC"/>
</linearGradient>
<linearGradient id="paint1_linear_1369_7320" x1="56" y1="52.9998" x2="58.5" y2="120" gradientUnits="userSpaceOnUse">
<stop stop-color="white" stop-opacity="0"/>
<stop offset="0.465494" stop-color="white" stop-opacity="0"/>
<stop offset="1" stop-color="#D9D9DC"/>
</linearGradient>
<linearGradient id="paint2_linear_1369_7320" x1="81" y1="139.5" x2="54.9923" y2="89.8987" gradientUnits="userSpaceOnUse">
<stop stop-color="white"/>
<stop offset="0.27" stop-color="white"/>
<stop offset="1" stop-color="#D9D9DC"/>
</linearGradient>
<linearGradient id="paint3_linear_1369_7320" x1="19" y1="-59.2763" x2="121.085" y2="93.8322" gradientUnits="userSpaceOnUse">
<stop stop-color="white" stop-opacity="0"/>
<stop offset="0.190127" stop-color="white" stop-opacity="0"/>
<stop offset="1" stop-color="#D9D9DC"/>
</linearGradient>
<linearGradient id="paint4_linear_1369_7320" x1="-24.5" y1="-36" x2="89" y2="72.675" gradientUnits="userSpaceOnUse">
<stop stop-color="white"/>
<stop offset="0.437462" stop-color="#F9F9F9"/>
<stop offset="1" stop-color="#D9D9DC"/>
</linearGradient>
<linearGradient id="paint5_linear_1369_7320" x1="15.1039" y1="27.5562" x2="53.735" y2="-34.4865" gradientUnits="userSpaceOnUse">
<stop stop-color="#FF5F1F"/>
<stop offset="1" stop-color="#FF5F1F"/>
</linearGradient>
<linearGradient id="paint6_linear_1369_7320" x1="9.58771" y1="31.3825" x2="24" y2="30.5" gradientUnits="userSpaceOnUse">
<stop stop-color="#F3F3F3" stop-opacity="0"/>
<stop offset="0.466346" stop-color="white"/>
</linearGradient>
<linearGradient id="paint7_linear_1369_7320" x1="27" y1="29.6121" x2="28.4311" y2="81.0218" gradientUnits="userSpaceOnUse">
<stop stop-color="#D9D9DC"/>
<stop offset="0.562538" stop-color="#F9F9F9" stop-opacity="0"/>
<stop offset="1" stop-color="white" stop-opacity="0"/>
</linearGradient>
<linearGradient id="paint8_linear_1369_7320" x1="23.5" y1="39.5" x2="23.5" y2="70.5" gradientUnits="userSpaceOnUse">
<stop stop-color="white"/>
<stop offset="1" stop-color="white" stop-opacity="0"/>
</linearGradient>
<linearGradient id="paint9_linear_1369_7320" x1="51.3252" y1="11.1466" x2="54.3382" y2="85.7096" gradientUnits="userSpaceOnUse">
<stop stop-color="#D9D9DC"/>
<stop offset="0.562538" stop-color="#F9F9F9" stop-opacity="0"/>
<stop offset="1" stop-color="white" stop-opacity="0"/>
</linearGradient>
<linearGradient id="paint10_linear_1369_7320" x1="47.8252" y1="25.5" x2="47.8252" y2="70.5" gradientUnits="userSpaceOnUse">
<stop stop-color="white"/>
<stop offset="1" stop-color="white" stop-opacity="0"/>
</linearGradient>
<linearGradient id="paint11_linear_1369_7320" x1="76" y1="-6" x2="81" y2="90" gradientUnits="userSpaceOnUse">
<stop stop-color="#D9D9DC"/>
<stop offset="0.562538" stop-color="#F9F9F9" stop-opacity="0"/>
<stop offset="1" stop-color="white" stop-opacity="0"/>
</linearGradient>
<linearGradient id="paint12_linear_1369_7320" x1="72.5" y1="12.5" x2="72.5" y2="70.5" gradientUnits="userSpaceOnUse">
<stop stop-color="white"/>
<stop offset="1" stop-color="white" stop-opacity="0"/>
</linearGradient>
<linearGradient id="paint13_linear_1369_7320" x1="70.9211" y1="-16.2734" x2="154.08" y2="24.4002" gradientUnits="userSpaceOnUse">
<stop stop-color="white"/>
<stop offset="0.437462" stop-color="#F9F9F9"/>
<stop offset="1" stop-color="#D9D9DC"/>
</linearGradient>
<linearGradient id="paint14_linear_1369_7320" x1="64.9211" y1="-16.2734" x2="148.08" y2="24.4002" gradientUnits="userSpaceOnUse">
<stop stop-color="white"/>
<stop offset="0.437462" stop-color="#F9F9F9"/>
<stop offset="1" stop-color="#D9D9DC"/>
</linearGradient>
<linearGradient id="paint15_linear_1369_7320" x1="99.2191" y1="32.0551" x2="114.594" y2="1.7073" gradientUnits="userSpaceOnUse">
<stop stop-color="#FF5F1F"/>
<stop offset="1" stop-color="#FF5F1F"/>
</linearGradient>
<linearGradient id="paint16_linear_1369_7320" x1="104.062" y1="24.5" x2="104.062" y2="33.3591" gradientUnits="userSpaceOnUse">
<stop stop-color="#F3F3F3" stop-opacity="0"/>
<stop offset="0.466346" stop-color="white"/>
</linearGradient>
<linearGradient id="paint17_linear_1369_7320" x1="106.623" y1="39.3884" x2="129.218" y2="9.81673" gradientUnits="userSpaceOnUse">
<stop stop-color="#FF5F1F"/>
<stop offset="1" stop-color="#FF5F1F"/>
</linearGradient>
<linearGradient id="paint18_linear_1369_7320" x1="110.567" y1="30.1099" x2="110.567" y2="40.9898" gradientUnits="userSpaceOnUse">
<stop stop-color="#F3F3F3" stop-opacity="0"/>
<stop offset="0.466346" stop-color="white"/>
</linearGradient>
<linearGradient id="paint19_linear_1369_7320" x1="93.4895" y1="39.2741" x2="116.082" y2="9.69386" gradientUnits="userSpaceOnUse">
<stop stop-color="#FF5F1F"/>
<stop offset="1" stop-color="#FF5F1F"/>
</linearGradient>
<linearGradient id="paint20_linear_1369_7320" x1="97.4348" y1="29.9958" x2="97.4348" y2="40.8755" gradientUnits="userSpaceOnUse">
<stop stop-color="#F3F3F3" stop-opacity="0"/>
<stop offset="0.466346" stop-color="white"/>
</linearGradient>
<linearGradient id="paint21_linear_1369_7320" x1="14.26" y1="-2.5" x2="14.26" y2="5.5" gradientUnits="userSpaceOnUse">
<stop stop-color="white" stop-opacity="0"/>
<stop offset="1" stop-color="white"/>
</linearGradient>
<linearGradient id="paint22_linear_1369_7320" x1="10.12" y1="-2.5" x2="10.12" y2="5.5" gradientUnits="userSpaceOnUse">
<stop stop-color="white" stop-opacity="0"/>
<stop offset="1" stop-color="white"/>
</linearGradient>
<linearGradient id="paint23_linear_1369_7320" x1="7.82" y1="-2.5" x2="7.82" y2="5.5" gradientUnits="userSpaceOnUse">
<stop stop-color="white" stop-opacity="0"/>
<stop offset="1" stop-color="white"/>
</linearGradient>
<linearGradient id="paint24_linear_1369_7320" x1="92.1225" y1="74.4954" x2="26.4495" y2="-30.9757" gradientUnits="userSpaceOnUse">
<stop stop-color="#FF5F1F"/>
<stop offset="1" stop-color="#FF5F1F"/>
</linearGradient>
<linearGradient id="paint25_linear_1369_7320" x1="101.5" y1="81" x2="76.9994" y2="79.4998" gradientUnits="userSpaceOnUse">
<stop stop-color="#F3F3F3" stop-opacity="0"/>
<stop offset="0.466346" stop-color="white"/>
</linearGradient>
<clipPath id="clip0_1369_7320">
<rect width="137" height="112" fill="white"/>
</clipPath>
</defs>
</svg>
