<svg width="136" height="111" viewBox="0 0 136 111" fill="none" xmlns="http://www.w3.org/2000/svg">
<g clip-path="url(#clip0_1378_654)">
<path d="M113.158 -0.5C118.272 -0.499959 122.5 3.2795 122.5 8.03906V69.9609C122.5 74.7205 118.272 78.5 113.158 78.5H8.8418C3.72832 78.5 -0.5 74.7205 -0.5 69.9609V8.03906C-0.5 3.2795 3.72832 -0.49996 8.8418 -0.5H113.158Z" fill="url(#paint0_linear_1378_654)" stroke="white" stroke-miterlimit="10"/>
<path d="M105.738 -0.5L106.188 -0.489258C110.806 -0.261391 114.5 3.4581 114.5 8.03906V69.9609C114.5 74.6895 110.564 78.4998 105.738 78.5H8.26172C3.43572 78.4998 -0.5 74.6895 -0.5 69.9609V8.03906C-0.5 3.31051 3.43572 -0.499808 8.26172 -0.5H105.738Z" fill="url(#paint1_linear_1378_654)" stroke="white" stroke-miterlimit="10"/>
<path d="M12.5586 8.5C14.4341 8.5 15.9551 10.0195 15.9551 11.8945C15.955 13.7695 14.4341 15.2891 12.5586 15.2891C10.6832 15.289 9.1622 13.7694 9.16211 11.8945C9.16211 10.0196 10.6831 8.50009 12.5586 8.5Z" fill="url(#paint2_linear_1378_654)" stroke="white" stroke-miterlimit="10"/>
<path d="M21.8965 8.5C23.772 8.5 25.293 10.0195 25.293 11.8945C25.2929 13.7695 23.772 15.2891 21.8965 15.2891C20.0211 15.289 18.5001 13.7694 18.5 11.8945C18.5 10.0196 20.021 8.50009 21.8965 8.5Z" fill="url(#paint3_linear_1378_654)" stroke="white" stroke-miterlimit="10"/>
<path d="M31.8965 8.5C33.772 8.5 35.293 10.0195 35.293 11.8945C35.2929 13.7695 33.772 15.2891 31.8965 15.2891C30.0211 15.289 28.5001 13.7694 28.5 11.8945C28.5 10.0196 30.021 8.50009 31.8965 8.5Z" fill="url(#paint4_linear_1378_654)" stroke="white" stroke-miterlimit="10"/>
<path d="M56.7715 7.82031L58.6553 12.708L58.6592 12.7188L58.6631 12.7285L58.667 12.7373L59 13.6543C59.024 13.58 59.0508 13.5062 59.0811 13.4336L61.3867 7.88867L61.5781 7.42773L62.04 7.61914L64.6982 8.72266L65.1602 8.91406L64.9678 9.37598L62.6631 14.9209C62.0401 16.4229 60.583 17.3779 58.958 17.3574V17.3584C58.4405 17.3527 57.9406 17.2463 57.4834 17.0557V17.0566C56.5641 16.6757 55.8109 15.9564 55.3926 15.0156L55.3135 14.8242L53.1514 9.21289L52.9717 8.74609L53.4385 8.56641L56.126 7.5332L56.5918 7.35352L56.7715 7.82031Z" fill="url(#paint5_linear_1378_654)" stroke="url(#paint6_linear_1378_654)" stroke-miterlimit="10"/>
<path d="M69.4326 13.4302L70.4668 16.1147L70.6465 16.5815L70.1797 16.7612L65.2783 18.647L65.2764 18.6479L65.2676 18.6519L65.2588 18.6548L64.3408 18.9878C64.4154 19.0119 64.4896 19.0385 64.5625 19.0688H64.5615L70.1104 21.3716L70.5723 21.564L70.3809 22.0259L69.2764 24.6821L69.084 25.1431L68.623 24.9517L63.0742 22.6479C61.5711 22.0255 60.6129 20.5696 60.6338 18.9448C60.6396 18.4276 60.7466 17.9281 60.9375 17.4712C61.3443 16.4914 62.1359 15.7006 63.1709 15.3032L68.7861 13.1431L69.2529 12.9634L69.4326 13.4302Z" fill="url(#paint7_linear_1378_654)" stroke="url(#paint8_linear_1378_654)" stroke-miterlimit="10"/>
<path d="M49.3896 13.0339L54.9355 15.3464C56.3435 15.9326 57.2713 17.2504 57.3623 18.7517L57.3691 19.0535C57.3657 19.3194 57.3356 19.5806 57.2812 19.8337H57.3535L57.0645 20.5261C56.656 21.5056 55.8629 22.2942 54.8271 22.6902L49.209 24.8425L48.7422 25.0212L48.5625 24.5544L47.5332 21.8679L47.3545 21.4011L47.8213 21.2224L52.7256 19.3435L52.7451 19.3357L53.6611 19.0037C53.5872 18.9796 53.5136 18.9538 53.4414 18.9236L47.8965 16.6111L47.4346 16.4187L47.6279 15.9578L48.7363 13.3035L48.9287 12.8425L49.3896 13.0339Z" fill="url(#paint9_linear_1378_654)" stroke="url(#paint10_linear_1378_654)" stroke-miterlimit="10"/>
<rect x="27.5" y="52.5" width="17" height="15" rx="2" fill="url(#paint11_linear_1378_654)" stroke="url(#paint12_linear_1378_654)" stroke-miterlimit="10"/>
<rect x="50.5" y="31.5" width="17" height="36" rx="2" fill="url(#paint13_linear_1378_654)" stroke="url(#paint14_linear_1378_654)" stroke-miterlimit="10"/>
<rect x="74.5" y="42.5" width="16" height="25" rx="2" fill="url(#paint15_linear_1378_654)" stroke="url(#paint16_linear_1378_654)" stroke-miterlimit="10"/>
<path d="M61.7998 65.2012C63.4491 39.4435 95.2468 27.3618 113.636 45.6738C124.059 56.054 125.614 72.7713 117.015 84.7754L136.255 104.038L136.605 104.39L136.256 104.743L129.79 111.281L129.643 111.43H129.083L128.937 111.282L109.729 92.042C107.448 93.6007 104.992 94.9509 102.361 95.8838C84.6293 102.174 65.648 90.9531 62.2832 72.6787L62.2812 72.6689L62.2803 72.6592L61.8037 69.3271L61.7969 69.2803L61.7988 69.2334C61.8287 68.5942 61.8084 67.9373 61.79 67.2559C61.7719 66.582 61.7561 65.8846 61.7998 65.2012Z" fill="url(#paint17_linear_1378_654)" stroke="white" stroke-miterlimit="10"/>
<path d="M92.4277 42.5C99.6214 42.5 104.758 45.3799 108.602 49.1172L108.962 49.4678L108.609 49.8262L104.156 54.3584L103.811 54.71L103.454 54.3691C100.828 51.8609 97.2862 49.921 92.4209 49.9209C83.4226 49.9209 76.3623 57.301 76.3623 66.5C76.3623 75.6989 83.422 83.079 92.4229 83.0791C98.2841 83.0791 101.595 80.6964 103.726 78.5283L104.035 78.1973C105.463 76.5958 106.456 74.391 106.923 71.4287L92.4229 71.4365H91.9229V64.0146H114.1L114.176 64.4238C114.391 65.5803 114.5 66.9359 114.5 68.3916V69.6133L114.47 69.583C114.267 74.2422 112.844 79.7348 108.89 83.7588L108.889 83.7578C104.733 88.158 99.4199 90.5 92.4277 90.5C79.4267 90.4998 68.5 79.7282 68.5 66.5C68.5 53.2718 79.4267 42.5002 92.4277 42.5Z" fill="url(#paint18_linear_1378_654)" stroke="url(#paint19_linear_1378_654)" stroke-miterlimit="10"/>
</g>
<defs>
<linearGradient id="paint0_linear_1378_654" x1="-27.2895" y1="-37.6712" x2="86.814" y2="78.717" gradientUnits="userSpaceOnUse">
<stop stop-color="white"/>
<stop offset="0.437462" stop-color="#F9F9F9"/>
<stop offset="1" stop-color="#D9D9DC"/>
</linearGradient>
<linearGradient id="paint1_linear_1378_654" x1="-25.5" y1="-37.6712" x2="88.4945" y2="70.9812" gradientUnits="userSpaceOnUse">
<stop stop-color="white"/>
<stop offset="0.437462" stop-color="#F9F9F9"/>
<stop offset="1" stop-color="#D9D9DC"/>
</linearGradient>
<linearGradient id="paint2_linear_1378_654" x1="8.36624" y1="6.20425" x2="16.1194" y2="11.2645" gradientUnits="userSpaceOnUse">
<stop stop-color="white"/>
<stop offset="0.437462" stop-color="#F9F9F9"/>
<stop offset="1" stop-color="#D9D9DC"/>
</linearGradient>
<linearGradient id="paint3_linear_1378_654" x1="17.7041" y1="6.20425" x2="25.4573" y2="11.2645" gradientUnits="userSpaceOnUse">
<stop stop-color="white"/>
<stop offset="0.437462" stop-color="#F9F9F9"/>
<stop offset="1" stop-color="#D9D9DC"/>
</linearGradient>
<linearGradient id="paint4_linear_1378_654" x1="27.7041" y1="6.20425" x2="35.4573" y2="11.2645" gradientUnits="userSpaceOnUse">
<stop stop-color="white"/>
<stop offset="0.437462" stop-color="#F9F9F9"/>
<stop offset="1" stop-color="#D9D9DC"/>
</linearGradient>
<linearGradient id="paint5_linear_1378_654" x1="54.2191" y1="15.5551" x2="69.5938" y2="-14.7927" gradientUnits="userSpaceOnUse">
<stop stop-color="#FF5F1F"/>
<stop offset="1" stop-color="#FF5F1F"/>
</linearGradient>
<linearGradient id="paint6_linear_1378_654" x1="59.0623" y1="8" x2="59.0623" y2="16.8591" gradientUnits="userSpaceOnUse">
<stop stop-color="#F3F3F3" stop-opacity="0"/>
<stop offset="0.466346" stop-color="white"/>
</linearGradient>
<linearGradient id="paint7_linear_1378_654" x1="61.6231" y1="22.8884" x2="84.2182" y2="-6.68327" gradientUnits="userSpaceOnUse">
<stop stop-color="#FF5F1F"/>
<stop offset="1" stop-color="#FF5F1F"/>
</linearGradient>
<linearGradient id="paint8_linear_1378_654" x1="65.5668" y1="13.6099" x2="65.5668" y2="24.4898" gradientUnits="userSpaceOnUse">
<stop stop-color="#F3F3F3" stop-opacity="0"/>
<stop offset="0.466346" stop-color="white"/>
</linearGradient>
<linearGradient id="paint9_linear_1378_654" x1="48.4895" y1="22.7741" x2="71.0816" y2="-6.80614" gradientUnits="userSpaceOnUse">
<stop stop-color="#FF5F1F"/>
<stop offset="1" stop-color="#FF5F1F"/>
</linearGradient>
<linearGradient id="paint10_linear_1378_654" x1="52.4348" y1="13.4958" x2="52.4348" y2="24.3755" gradientUnits="userSpaceOnUse">
<stop stop-color="#F3F3F3" stop-opacity="0"/>
<stop offset="0.466346" stop-color="white"/>
</linearGradient>
<linearGradient id="paint11_linear_1378_654" x1="28.8831" y1="64.9393" x2="54.2026" y2="18.4664" gradientUnits="userSpaceOnUse">
<stop stop-color="#FF5F1F"/>
<stop offset="1" stop-color="#FF5F1F"/>
</linearGradient>
<linearGradient id="paint12_linear_1378_654" x1="36" y1="53" x2="36" y2="67" gradientUnits="userSpaceOnUse">
<stop stop-color="#F3F3F3" stop-opacity="0"/>
<stop offset="0.466346" stop-color="white"/>
</linearGradient>
<linearGradient id="paint13_linear_1378_654" x1="51.8831" y1="61.8484" x2="123.759" y2="9.07828" gradientUnits="userSpaceOnUse">
<stop stop-color="#FF5F1F"/>
<stop offset="1" stop-color="#FF5F1F"/>
</linearGradient>
<linearGradient id="paint14_linear_1378_654" x1="59" y1="32" x2="59" y2="67" gradientUnits="userSpaceOnUse">
<stop stop-color="#F3F3F3" stop-opacity="0"/>
<stop offset="0.466346" stop-color="white"/>
</linearGradient>
<linearGradient id="paint15_linear_1378_654" x1="75.8279" y1="63.4674" x2="127.485" y2="11.6153" gradientUnits="userSpaceOnUse">
<stop stop-color="#FF5F1F"/>
<stop offset="1" stop-color="#FF5F1F"/>
</linearGradient>
<linearGradient id="paint16_linear_1378_654" x1="82.5" y1="43" x2="82.5" y2="67" gradientUnits="userSpaceOnUse">
<stop stop-color="#F3F3F3" stop-opacity="0"/>
<stop offset="0.466346" stop-color="white"/>
</linearGradient>
<linearGradient id="paint17_linear_1378_654" x1="45.8018" y1="1.84947" x2="144.327" y2="66.1674" gradientUnits="userSpaceOnUse">
<stop stop-color="white"/>
<stop offset="0.437462" stop-color="#F9F9F9"/>
<stop offset="1" stop-color="#D9D9DC"/>
</linearGradient>
<linearGradient id="paint18_linear_1378_654" x1="71.4837" y1="83.0821" x2="163.954" y2="-59.1086" gradientUnits="userSpaceOnUse">
<stop stop-color="#FF5F1F"/>
<stop offset="1" stop-color="#FF5F1F"/>
</linearGradient>
<linearGradient id="paint19_linear_1378_654" x1="91.5" y1="43" x2="91.5" y2="90" gradientUnits="userSpaceOnUse">
<stop stop-color="#F3F3F3" stop-opacity="0"/>
<stop offset="0.466346" stop-color="white"/>
</linearGradient>
<clipPath id="clip0_1378_654">
<rect width="136" height="111" fill="white"/>
</clipPath>
</defs>
</svg>
