<svg width="136" height="112" viewBox="0 0 136 112" fill="none" xmlns="http://www.w3.org/2000/svg">
<g clip-path="url(#clip0_1338_5355)">
<path d="M112.758 0H8.44149C3.55825 0 -0.400391 3.59909 -0.400391 8.0388V69.9612C-0.400391 74.4009 3.55825 78 8.44149 78H112.758C117.641 78 121.6 74.4009 121.6 69.9612V8.0388C121.6 3.59909 117.641 0 112.758 0Z" fill="url(#paint0_linear_1338_5355)"/>
<path d="M105.738 -0.5L106.188 -0.489258C110.806 -0.261391 114.5 3.4581 114.5 8.03906V69.9609C114.5 74.6895 110.564 78.4998 105.738 78.5H8.26172C3.43572 78.4998 -0.5 74.6895 -0.5 69.9609V8.03906C-0.5 3.31051 3.43572 -0.499808 8.26172 -0.5H105.738Z" fill="url(#paint1_linear_1338_5355)" stroke="white" stroke-miterlimit="10"/>
<path d="M21.001 10C24.0825 10.0002 26.4998 12.7368 26.5 16.001C26.5 19.2657 24.0823 21.9998 21.001 22C17.9175 22 15.5 19.2659 15.5 16.001C15.5002 12.7311 17.9198 10 21.001 10Z" fill="url(#paint2_linear_1338_5355)" stroke="url(#paint3_linear_1338_5355)" stroke-miterlimit="10"/>
<path d="M25.6416 23L25.915 23.0088C27.2776 23.0985 28.6237 23.8476 29.6367 24.8574C30.717 25.9345 31.5 27.3899 31.5 28.8418V46.5859C31.4999 48.1428 30.2346 49.4023 28.6777 49.4023H27.5283L26.6729 64.0635C26.6574 65.6892 25.3318 66.9998 23.7012 67H18.2998C16.6694 66.9999 15.3441 65.6898 15.3281 64.0645L14.4717 49.4023H13.3223C11.7646 49.4023 10.5001 48.1427 10.5 46.5859V28.8418C10.5 27.3902 11.283 25.9346 12.3633 24.8574C13.4437 23.7801 14.9029 23 16.3574 23H25.6416Z" fill="url(#paint4_linear_1338_5355)" stroke="url(#paint5_linear_1338_5355)" stroke-miterlimit="10"/>
<path d="M77 10C77.8284 10 78.5 10.6716 78.5 11.5V15.5C78.5 16.3284 77.8284 17 77 17H44C43.1716 17 42.5 16.3284 42.5 15.5V11.5C42.5 10.6716 43.1716 10 44 10H77Z" fill="black" fill-opacity="0.05" stroke="url(#paint6_linear_1338_5355)"/>
<rect x="42.5" y="22" width="26" height="7" rx="1.5" fill="black" fill-opacity="0.05" stroke="url(#paint7_linear_1338_5355)"/>
<path d="M21.9297 29C22.9868 29 23.7281 29.0781 24.1973 29.1533C24.2844 29.1673 24.362 29.182 24.4307 29.1953L24.165 30.8125C23.895 30.7604 23.5433 30.709 23.1924 30.709C22.8105 30.709 22.3879 30.7778 22.0439 30.9951C21.6693 31.232 21.4298 31.6224 21.4297 32.1387V34.625H24.124L24.0107 36.168H21.4297V45H19.2168V36.168H17.5V34.625H19.2168V32.418C19.2168 32.0438 19.2219 31.5986 19.2871 31.1641C19.3531 30.724 19.4736 30.3446 19.6699 30.0771L19.6689 30.0762C19.9171 29.7402 20.1976 29.4784 20.5439 29.2969C20.8902 29.1155 21.333 29 21.9297 29Z" fill="url(#paint8_linear_1338_5355)" stroke="white" stroke-miterlimit="10"/>
<path d="M79 78.5H47V111.5H79V78.5Z" fill="url(#paint9_linear_1338_5355)"/>
<path d="M72.4949 105.607L36.4949 105.729C35.6685 105.732 35 106.403 35 107.229V110.5C35 111.328 35.6716 112 36.5 112H72.5C73.3284 112 74 111.328 74 110.5V107.107C74 106.276 73.3253 105.604 72.4949 105.607Z" fill="url(#paint10_linear_1338_5355)"/>
<path d="M83.5 80.5V109C83.4999 110.933 81.9329 112.5 80 112.5H71.5C70.3955 112.5 69.5001 111.604 69.5 110.5V107.106C69.5 106.002 70.3954 105.106 71.5 105.106H76.5771V80.5H83.5Z" fill="url(#paint11_linear_1338_5355)" stroke="white" stroke-miterlimit="10"/>
<path d="M110.005 86.5463C113.456 87.5325 115.455 91.1301 114.469 94.5818L110.841 107.28C109.855 110.731 106.258 112.73 102.806 111.744C99.3543 110.758 97.3557 107.16 98.3415 103.709L101.969 91.0107C102.955 87.559 106.553 85.5602 110.005 86.5463Z" fill="url(#paint12_linear_1338_5355)" stroke="white" stroke-miterlimit="10"/>
<path d="M86.2509 27.3876L69.3847 90.3331L76.549 92.2528L76.6784 91.7698C78.874 83.615 87.1585 78.7249 95.3239 80.6827L95.7122 80.7807L120.505 87.4238C125.907 88.8712 131.458 85.6647 132.905 80.2643L136.227 67.8677C137.674 62.4673 134.469 56.9146 129.067 55.4671L104.275 48.824L103.89 48.7147C95.8393 46.3275 91.11 37.9494 93.2861 29.7893L93.4152 29.3073L86.2509 27.3876Z" fill="url(#paint13_linear_1338_5355)" stroke="white" stroke-miterlimit="10"/>
<path d="M57.5777 70.2673L63.7211 62.5462L63.7348 62.529L63.7413 62.5207L63.7469 62.5129L66.0285 59.7543C65.441 60.1208 64.7786 60.3633 64.0808 60.4585L52.887 62.0004L52.3913 62.0684L52.323 61.574L51.5812 56.208L51.5123 55.7128L52.0081 55.6448L63.2027 54.1024C66.0554 53.7068 68.8202 55.0743 70.2463 57.5758L70.2471 57.5753C70.7028 58.3715 70.9889 59.2305 71.1074 60.0994L71.1066 60.0999C71.3485 61.8435 70.9264 63.6354 69.8648 65.1176L69.6438 65.4104L62.5973 74.2666L62.2857 74.6579L61.8944 74.3463L57.6575 70.9702L57.2662 70.6586L57.5777 70.2673Z" fill="url(#paint14_linear_1338_5355)" stroke="url(#paint15_linear_1338_5355)" stroke-miterlimit="10"/>
<path d="M54.8618 43.9092L58.2336 39.6726L58.5452 39.2813L58.9365 39.5928L66.6669 45.75L66.677 45.7576L66.684 45.7637L66.6923 45.7702L69.4528 48.0551C69.0856 47.467 68.8413 46.8045 68.7455 46.1059L67.1966 34.9061L67.1273 34.41L67.623 34.342L72.9861 33.603L73.481 33.5355L73.5493 34.0299L75.0987 45.2306C75.4959 48.0842 74.1317 50.85 71.6316 52.2751C70.8359 52.7304 69.9776 53.0164 69.1091 53.1344C67.2499 53.3914 65.3346 52.8915 63.7991 51.6668L54.9411 44.6112L54.5503 44.3005L54.8618 43.9092Z" fill="url(#paint16_linear_1338_5355)" stroke="url(#paint17_linear_1338_5355)" stroke-miterlimit="10"/>
</g>
<defs>
<linearGradient id="paint0_linear_1338_5355" x1="17.5996" y1="-60.7763" x2="119.685" y2="92.3322" gradientUnits="userSpaceOnUse">
<stop stop-color="white" stop-opacity="0"/>
<stop offset="0.190127" stop-color="white" stop-opacity="0"/>
<stop offset="1" stop-color="#D9D9DC"/>
</linearGradient>
<linearGradient id="paint1_linear_1338_5355" x1="-25.5" y1="-37.6712" x2="88.4945" y2="70.9812" gradientUnits="userSpaceOnUse">
<stop stop-color="white"/>
<stop offset="0.437462" stop-color="#F9F9F9"/>
<stop offset="1" stop-color="#D9D9DC"/>
</linearGradient>
<linearGradient id="paint2_linear_1338_5355" x1="16.5519" y1="19.8809" x2="38.6285" y2="-12.3515" gradientUnits="userSpaceOnUse">
<stop stop-color="#FF5F1F"/>
<stop offset="1" stop-color="#FF5F1F"/>
</linearGradient>
<linearGradient id="paint3_linear_1338_5355" x1="13.7939" y1="21.9854" x2="21.0047" y2="21.584" gradientUnits="userSpaceOnUse">
<stop stop-color="#F3F3F3" stop-opacity="0"/>
<stop offset="0.466346" stop-color="white"/>
</linearGradient>
<linearGradient id="paint4_linear_1338_5355" x1="12.1039" y1="60.1708" x2="100.855" y2="-6.12522" gradientUnits="userSpaceOnUse">
<stop stop-color="#FF5F1F"/>
<stop offset="1" stop-color="#FF5F1F"/>
</linearGradient>
<linearGradient id="paint5_linear_1338_5355" x1="6.58771" y1="68.3973" x2="21.0423" y2="67.9857" gradientUnits="userSpaceOnUse">
<stop stop-color="#F3F3F3" stop-opacity="0"/>
<stop offset="0.466346" stop-color="white"/>
</linearGradient>
<linearGradient id="paint6_linear_1338_5355" x1="105.3" y1="22.5" x2="41.1372" y2="-13.7767" gradientUnits="userSpaceOnUse">
<stop stop-color="white" stop-opacity="0"/>
<stop offset="1" stop-color="white"/>
</linearGradient>
<linearGradient id="paint7_linear_1338_5355" x1="87.5" y1="34.5" x2="35.5" y2="13.5" gradientUnits="userSpaceOnUse">
<stop stop-color="white" stop-opacity="0"/>
<stop offset="1" stop-color="white"/>
</linearGradient>
<linearGradient id="paint8_linear_1338_5355" x1="15.2105" y1="20.2896" x2="29.1634" y2="24.5716" gradientUnits="userSpaceOnUse">
<stop stop-color="white"/>
<stop offset="0.437462" stop-color="#F9F9F9"/>
<stop offset="1" stop-color="#D9D9DC"/>
</linearGradient>
<linearGradient id="paint9_linear_1338_5355" x1="53.1935" y1="118.833" x2="48.2099" y2="81.5515" gradientUnits="userSpaceOnUse">
<stop stop-color="white" stop-opacity="0"/>
<stop offset="0.178835" stop-color="white" stop-opacity="0"/>
<stop offset="1" stop-color="#D9D9DC"/>
</linearGradient>
<linearGradient id="paint10_linear_1338_5355" x1="55" y1="55.1402" x2="57.4447" y2="121.397" gradientUnits="userSpaceOnUse">
<stop stop-color="white" stop-opacity="0"/>
<stop offset="0.465494" stop-color="white" stop-opacity="0"/>
<stop offset="1" stop-color="#D9D9DC"/>
</linearGradient>
<linearGradient id="paint11_linear_1338_5355" x1="80" y1="139.662" x2="55.868" y2="91.4118" gradientUnits="userSpaceOnUse">
<stop stop-color="white"/>
<stop offset="0.27" stop-color="white"/>
<stop offset="1" stop-color="#D9D9DC"/>
</linearGradient>
<linearGradient id="paint12_linear_1338_5355" x1="107.106" y1="80.699" x2="102.401" y2="100.392" gradientUnits="userSpaceOnUse">
<stop stop-color="white"/>
<stop offset="0.388528" stop-color="#F9F9F9"/>
<stop offset="1" stop-color="#D9D9DC"/>
</linearGradient>
<linearGradient id="paint13_linear_1338_5355" x1="138.426" y1="27.8481" x2="123.926" y2="77.3481" gradientUnits="userSpaceOnUse">
<stop stop-color="white"/>
<stop offset="0.388528" stop-color="#F9F9F9"/>
<stop offset="1" stop-color="#D9D9DC"/>
</linearGradient>
<linearGradient id="paint14_linear_1338_5355" x1="72.2181" y1="66.7651" x2="8.31573" y2="70.7307" gradientUnits="userSpaceOnUse">
<stop stop-color="#FF5F1F"/>
<stop offset="1" stop-color="#FF5F1F"/>
</linearGradient>
<linearGradient id="paint15_linear_1338_5355" x1="77.8302" y1="70.0238" x2="69.4115" y2="57.8758" gradientUnits="userSpaceOnUse">
<stop stop-color="#F3F3F3" stop-opacity="0"/>
<stop offset="0.466346" stop-color="white"/>
</linearGradient>
<linearGradient id="paint16_linear_1338_5355" x1="77.3078" y1="47.2958" x2="7.7851" y2="38.8037" gradientUnits="userSpaceOnUse">
<stop stop-color="#FF5F1F"/>
<stop offset="1" stop-color="#FF5F1F"/>
</linearGradient>
<linearGradient id="paint17_linear_1338_5355" x1="83.016" y1="49.281" x2="76.4023" y2="39.2032" gradientUnits="userSpaceOnUse">
<stop stop-color="#F3F3F3" stop-opacity="0"/>
<stop offset="0.466346" stop-color="white"/>
</linearGradient>
<clipPath id="clip0_1338_5355">
<rect width="136" height="112" fill="white"/>
</clipPath>
</defs>
</svg>
