<svg width="137" height="112" viewBox="0 0 137 112" fill="none" xmlns="http://www.w3.org/2000/svg">
<g clip-path="url(#clip0_1380_821)">
<path d="M79.5 77H47.5V105H79.5V77Z" fill="url(#paint0_linear_1380_821)" stroke="url(#paint1_linear_1380_821)" stroke-miterlimit="10"/>
<path d="M73.5 104.029H37.5C36.6716 104.029 36 104.701 36 105.529V109C36 109.828 36.6716 110.5 37.5 110.5H73.5C74.3284 110.5 75 109.828 75 109V105.529C75 104.701 74.3284 104.029 73.5 104.029Z" fill="url(#paint2_linear_1380_821)" stroke="url(#paint3_linear_1380_821)" stroke-miterlimit="10"/>
<path d="M78.5772 78V102.635C78.5772 103.463 77.9056 104.135 77.0772 104.135H73C72.1716 104.135 71.5 104.806 71.5 105.635V109C71.5 109.828 72.1716 110.5 73 110.5H78.5772H81.5C83.1569 110.5 84.5 109.157 84.5 107.5V104.135V78H78.5772Z" fill="url(#paint4_linear_1380_821)" stroke="url(#paint5_linear_1380_821)" stroke-miterlimit="10"/>
<path d="M9.8418 2H114.158C118.811 2.00004 122.5 5.41926 122.5 9.53906V71.4609C122.5 75.5807 118.811 79 114.158 79H9.8418C5.18888 79 1.5 75.5807 1.5 71.4609V9.53906C1.5 5.41926 5.18888 2.00004 9.8418 2Z" fill="url(#paint6_linear_1380_821)" stroke="url(#paint7_linear_1380_821)" stroke-miterlimit="10"/>
<path d="M9.26172 2H106.738C111.04 2.00019 114.5 5.37377 114.5 9.50195V71.1436C114.5 75.2717 111.04 78.6453 106.738 78.6455H9.26172C4.95995 78.6453 1.5002 75.2717 1.5 71.1436V9.50195C1.50016 5.50266 4.74726 2.21155 8.86133 2.00977L9.26172 2Z" fill="url(#paint8_linear_1380_821)" stroke="url(#paint9_linear_1380_821)" stroke-miterlimit="10"/>
<path d="M28.6926 23.403C31.0644 20.188 30.6683 15.6562 27.8562 12.853C22.9437 7.95617 14.4478 11.1882 14.0073 18.0751C13.9845 18.4326 14.0241 18.8093 14.0073 19.1691L14.1368 20.0749C15.0359 24.9626 20.1075 27.963 24.8443 26.2809C25.5809 26.0194 26.2691 25.6351 26.9078 25.1889L32.2045 30.5H32.2434L34 28.7223L28.6928 23.4031L28.6926 23.403Z" fill="url(#paint10_linear_1380_821)" stroke="url(#paint11_linear_1380_821)" stroke-miterlimit="10"/>
<path d="M17.7051 40H29.2949C30.4602 40 31.5 41.0793 31.5 42.5342V67.4658C31.5 68.9207 30.4602 70 29.2949 70H17.7051C16.5398 70 15.5 68.9207 15.5 67.4658V42.5342C15.5 41.1701 16.4138 40.1364 17.4883 40.0127L17.7051 40Z" fill="url(#paint12_linear_1380_821)" stroke="url(#paint13_linear_1380_821)" stroke-miterlimit="10"/>
<path d="M42.0303 26H53.6201C54.7803 26 55.8251 27.0887 55.8252 28.5684V67.4316C55.8251 68.9113 54.7803 70 53.6201 70H42.0303C40.8701 70 39.8252 68.9113 39.8252 67.4316V28.5684C39.8252 27.0887 40.8701 26 42.0303 26Z" fill="url(#paint14_linear_1380_821)" stroke="url(#paint15_linear_1380_821)" stroke-miterlimit="10"/>
<path d="M66.2051 13.5H77.7949C78.9572 13.5 79.9999 14.5845 80 16.0537V67.9463C79.9999 69.4155 78.9572 70.5 77.7949 70.5H66.2051C65.0428 70.5 64.0001 69.4155 64 67.9463V16.0537L64.0117 15.7832C64.1225 14.5421 64.9876 13.629 65.9883 13.5127L66.2051 13.5Z" fill="url(#paint16_linear_1380_821)" stroke="url(#paint17_linear_1380_821)" stroke-miterlimit="10"/>
<rect x="83.5" y="19" width="53" height="71" rx="7.5" fill="url(#paint18_linear_1380_821)" stroke="url(#paint19_linear_1380_821)" stroke-miterlimit="10"/>
<rect x="77.5" y="19" width="53" height="71" rx="7.5" fill="url(#paint20_linear_1380_821)" stroke="url(#paint21_linear_1380_821)" stroke-miterlimit="10"/>
<path d="M102.675 33.0943C103.074 33.2608 103.51 33.3538 103.963 33.3588C105.385 33.3771 106.657 32.542 107.201 31.2289L109.506 25.6844L106.848 24.581L104.543 30.1255C104.323 30.6523 104.303 31.2402 104.482 31.7818L104.603 32.1503C104.611 32.3745 104.299 32.4339 104.221 32.224L103.197 29.4084L103.192 29.3974L101.305 24.5L98.6182 25.5332L100.78 31.1447C101.128 32.0498 101.819 32.7398 102.675 33.0943Z" fill="url(#paint22_linear_1380_821)" stroke="url(#paint23_linear_1380_821)" stroke-miterlimit="10"/>
<path d="M107.712 35.969L107.344 36.0904C107.119 36.0981 107.06 35.786 107.27 35.7088L110.088 34.6848L110.099 34.6803L115 32.7946L113.966 30.1099L108.35 32.2703C107.444 32.6181 106.754 33.3083 106.399 34.1633C106.232 34.562 106.139 34.9985 106.134 35.451C106.116 36.8716 106.952 38.1423 108.266 38.6864L113.815 40.9898L114.919 38.3338L109.37 36.0305C108.843 35.8108 108.254 35.7903 107.712 35.9693V35.969Z" fill="url(#paint24_linear_1380_821)" stroke="url(#paint25_linear_1380_821)" stroke-miterlimit="10"/>
<path d="M101.603 36.8341C101.77 36.4357 101.864 35.9994 101.869 35.5469C101.89 34.1263 101.056 32.8543 99.7428 32.308L94.1974 29.9961L93.0891 32.6503L98.6344 34.9622C99.1614 35.1826 99.7495 35.2041 100.292 35.0259L100.661 34.905C100.885 34.8977 100.944 35.2096 100.734 35.2869L97.915 36.3066L97.904 36.3111L93 38.1892L94.0298 40.8757L99.6489 38.724C100.555 38.3775 101.247 37.6885 101.603 36.8341H101.603Z" fill="url(#paint26_linear_1380_821)" stroke="url(#paint27_linear_1380_821)" stroke-miterlimit="10"/>
<rect width="31" height="4" rx="1" transform="matrix(-1 0 0 1 121 48.5)" fill="url(#paint28_linear_1380_821)" stroke="url(#paint29_linear_1380_821)" stroke-miterlimit="10"/>
<rect width="22" height="4" rx="1" transform="matrix(-1 0 0 1 121 59.5)" fill="url(#paint30_linear_1380_821)" stroke="url(#paint31_linear_1380_821)" stroke-miterlimit="10"/>
<rect width="17" height="4" rx="1" transform="matrix(-1 0 0 1 121 70.5)" fill="url(#paint32_linear_1380_821)" stroke="url(#paint33_linear_1380_821)" stroke-miterlimit="10"/>
<path d="M61.9582 47.458C64.5689 44.8473 68.8019 44.8473 71.4125 47.458L72.2923 48.3378L87.4739 63.5199C88.4551 64.5011 88.9457 64.9917 89.3675 65.5323C89.8653 66.1703 90.2921 66.8609 90.64 67.5912C90.9352 68.2103 91.1545 68.8687 91.5931 70.185L93.9075 77.1271C94.1232 77.7748 93.9549 78.4888 93.472 78.9718C92.989 79.4547 92.275 79.623 91.6273 79.4073L84.6857 77.0934C83.3694 76.6549 82.711 76.4356 82.0919 76.1403C81.3616 75.7919 80.671 75.3656 80.033 74.8678C79.4924 74.4461 79.0013 73.9554 78.0206 72.9742L61.9587 56.9123C59.348 54.3017 59.348 50.0687 61.9587 47.458H61.9582Z" fill="url(#paint34_linear_1380_821)" stroke="url(#paint35_linear_1380_821)" stroke-miterlimit="10"/>
</g>
<defs>
<linearGradient id="paint0_linear_1380_821" x1="65.3462" y1="105.246" x2="65.3316" y2="75.5661" gradientUnits="userSpaceOnUse">
<stop stop-color="#222227"/>
<stop offset="0.73" stop-color="#121214" stop-opacity="0"/>
<stop offset="1" stop-color="#121214" stop-opacity="0"/>
</linearGradient>
<linearGradient id="paint1_linear_1380_821" x1="57.3462" y1="105.246" x2="56.9777" y2="77.2428" gradientUnits="userSpaceOnUse">
<stop stop-color="#94949B"/>
<stop offset="1" stop-opacity="0"/>
</linearGradient>
<linearGradient id="paint2_linear_1380_821" x1="54.6256" y1="105.271" x2="54.633" y2="110.313" gradientUnits="userSpaceOnUse">
<stop offset="0.0480769" stop-color="#222227"/>
<stop offset="0.533654" stop-color="#121214"/>
<stop offset="1" stop-color="#121214"/>
</linearGradient>
<linearGradient id="paint3_linear_1380_821" x1="62.5417" y1="135.629" x2="60.7333" y2="88.1161" gradientUnits="userSpaceOnUse">
<stop stop-opacity="0"/>
<stop offset="1" stop-color="#94949B"/>
</linearGradient>
<linearGradient id="paint4_linear_1380_821" x1="80.8747" y1="113.57" x2="50.7402" y2="72.1178" gradientUnits="userSpaceOnUse">
<stop stop-color="#222227"/>
<stop offset="0.73" stop-color="#121214"/>
<stop offset="1" stop-color="#121214"/>
</linearGradient>
<linearGradient id="paint5_linear_1380_821" x1="74.5023" y1="138.704" x2="97.3702" y2="84.3052" gradientUnits="userSpaceOnUse">
<stop stop-color="#94949B"/>
<stop offset="1" stop-color="#121214"/>
</linearGradient>
<linearGradient id="paint6_linear_1380_821" x1="38.6874" y1="9.24393" x2="86.1275" y2="86.1918" gradientUnits="userSpaceOnUse">
<stop stop-color="#222227"/>
<stop offset="0.73" stop-color="#121214" stop-opacity="0"/>
<stop offset="1" stop-color="#121214" stop-opacity="0"/>
</linearGradient>
<linearGradient id="paint7_linear_1380_821" x1="32.0351" y1="-7.5" x2="90.3469" y2="95.4901" gradientUnits="userSpaceOnUse">
<stop stop-color="#C0C0CA"/>
<stop offset="1" stop-opacity="0"/>
</linearGradient>
<linearGradient id="paint8_linear_1380_821" x1="36.2161" y1="9.20873" x2="84.7229" y2="83.0632" gradientUnits="userSpaceOnUse">
<stop stop-color="#222227"/>
<stop offset="0.73" stop-color="#121214" stop-opacity="0"/>
<stop offset="1" stop-color="#121214" stop-opacity="0"/>
</linearGradient>
<linearGradient id="paint9_linear_1380_821" x1="30" y1="-7.45909" x2="89.8772" y2="91.8124" gradientUnits="userSpaceOnUse">
<stop stop-color="#C0C0CA"/>
<stop offset="1" stop-opacity="0"/>
</linearGradient>
<linearGradient id="paint10_linear_1380_821" x1="15.1039" y1="27.5562" x2="53.735" y2="-34.4865" gradientUnits="userSpaceOnUse">
<stop stop-color="#FF5F1F"/>
<stop offset="0.65" stop-color="#531F0A" stop-opacity="0"/>
<stop offset="1" stop-opacity="0"/>
</linearGradient>
<linearGradient id="paint11_linear_1380_821" x1="16.7379" y1="10.469" x2="16.7379" y2="44.6566" gradientUnits="userSpaceOnUse">
<stop offset="0.105769" stop-color="#FF9255"/>
<stop offset="0.504808" stop-color="#531F0A" stop-opacity="0"/>
<stop offset="1" stop-opacity="0"/>
</linearGradient>
<linearGradient id="paint12_linear_1380_821" x1="20.2515" y1="42.5777" x2="38.3881" y2="52.8917" gradientUnits="userSpaceOnUse">
<stop stop-color="#222227" stop-opacity="0"/>
<stop offset="0.73" stop-color="#121214"/>
<stop offset="1" stop-color="#121214"/>
</linearGradient>
<linearGradient id="paint13_linear_1380_821" x1="19.3246" y1="35.9231" x2="20" y2="71" gradientUnits="userSpaceOnUse">
<stop stop-color="#C0C0CA"/>
<stop offset="1" stop-opacity="0"/>
</linearGradient>
<linearGradient id="paint14_linear_1380_821" x1="44.5767" y1="29.9677" x2="45" y2="71" gradientUnits="userSpaceOnUse">
<stop stop-color="#222227"/>
<stop offset="0.73" stop-color="#121214"/>
<stop offset="1" stop-color="#121214"/>
</linearGradient>
<linearGradient id="paint15_linear_1380_821" x1="43.6498" y1="20.3077" x2="45.0724" y2="71.2049" gradientUnits="userSpaceOnUse">
<stop stop-color="#C0C0CA"/>
<stop offset="1" stop-opacity="0"/>
</linearGradient>
<linearGradient id="paint16_linear_1380_821" x1="72.5" y1="13" x2="72.5" y2="77" gradientUnits="userSpaceOnUse">
<stop stop-color="#222227" stop-opacity="0"/>
<stop offset="0.73" stop-color="#121214"/>
<stop offset="1" stop-color="#121214"/>
</linearGradient>
<linearGradient id="paint17_linear_1380_821" x1="67.8246" y1="6.30769" x2="70.1868" y2="71.8747" gradientUnits="userSpaceOnUse">
<stop stop-color="#C0C0CA"/>
<stop offset="1" stop-opacity="0"/>
</linearGradient>
<linearGradient id="paint18_linear_1380_821" x1="99.6813" y1="25.6482" x2="147.186" y2="62.596" gradientUnits="userSpaceOnUse">
<stop stop-color="#222227"/>
<stop offset="0.73" stop-color="#121214" stop-opacity="0"/>
<stop offset="1" stop-color="#121214" stop-opacity="0"/>
</linearGradient>
<linearGradient id="paint19_linear_1380_821" x1="96.7368" y1="10.1923" x2="190.68" y2="79.254" gradientUnits="userSpaceOnUse">
<stop stop-color="#C0C0CA"/>
<stop offset="1" stop-opacity="0"/>
</linearGradient>
<linearGradient id="paint20_linear_1380_821" x1="93.6813" y1="25.6482" x2="141.186" y2="62.596" gradientUnits="userSpaceOnUse">
<stop stop-color="#222227"/>
<stop offset="0.73" stop-color="#121214"/>
<stop offset="1" stop-color="#121214"/>
</linearGradient>
<linearGradient id="paint21_linear_1380_821" x1="90.7368" y1="10.1923" x2="183.175" y2="77.7484" gradientUnits="userSpaceOnUse">
<stop stop-color="#C0C0CA"/>
<stop offset="1" stop-opacity="0"/>
</linearGradient>
<linearGradient id="paint22_linear_1380_821" x1="99.2191" y1="32.0551" x2="114.594" y2="1.7073" gradientUnits="userSpaceOnUse">
<stop stop-color="#FF5F1F"/>
<stop offset="0.65" stop-color="#531F0A" stop-opacity="0"/>
<stop offset="1" stop-opacity="0"/>
</linearGradient>
<linearGradient id="paint23_linear_1380_821" x1="100.109" y1="24.4863" x2="100.109" y2="39.6298" gradientUnits="userSpaceOnUse">
<stop offset="0.105769" stop-color="#FF9255"/>
<stop offset="0.504808" stop-color="#531F0A" stop-opacity="0"/>
<stop offset="1" stop-opacity="0"/>
</linearGradient>
<linearGradient id="paint24_linear_1380_821" x1="106.623" y1="39.3884" x2="129.218" y2="9.81673" gradientUnits="userSpaceOnUse">
<stop stop-color="#FF5F1F"/>
<stop offset="0.65" stop-color="#531F0A" stop-opacity="0"/>
<stop offset="1" stop-opacity="0"/>
</linearGradient>
<linearGradient id="paint25_linear_1380_821" x1="107.348" y1="30.093" x2="107.348" y2="48.6909" gradientUnits="userSpaceOnUse">
<stop offset="0.105769" stop-color="#FF9255"/>
<stop offset="0.504808" stop-color="#531F0A" stop-opacity="0"/>
<stop offset="1" stop-opacity="0"/>
</linearGradient>
<linearGradient id="paint26_linear_1380_821" x1="93.4895" y1="39.2744" x2="116.082" y2="9.6941" gradientUnits="userSpaceOnUse">
<stop stop-color="#FF5F1F"/>
<stop offset="0.65" stop-color="#531F0A" stop-opacity="0"/>
<stop offset="1" stop-opacity="0"/>
</linearGradient>
<linearGradient id="paint27_linear_1380_821" x1="94.2142" y1="29.9792" x2="94.2142" y2="48.5767" gradientUnits="userSpaceOnUse">
<stop offset="0.105769" stop-color="#FF9255"/>
<stop offset="0.504808" stop-color="#531F0A" stop-opacity="0"/>
<stop offset="1" stop-opacity="0"/>
</linearGradient>
<linearGradient id="paint28_linear_1380_821" x1="7.20423" y1="26" x2="7.24599" y2="-2.85196" gradientUnits="userSpaceOnUse">
<stop stop-color="#121214"/>
<stop offset="0.27" stop-color="#121214"/>
<stop offset="1" stop-color="#222227"/>
</linearGradient>
<linearGradient id="paint29_linear_1380_821" x1="17.2465" y1="7.5" x2="16.659" y2="-0.154253" gradientUnits="userSpaceOnUse">
<stop stop-color="#121214"/>
<stop offset="1" stop-color="#94949B"/>
</linearGradient>
<linearGradient id="paint30_linear_1380_821" x1="5.11268" y1="26" x2="5.17152" y2="-2.8519" gradientUnits="userSpaceOnUse">
<stop stop-color="#121214"/>
<stop offset="0.27" stop-color="#121214"/>
<stop offset="1" stop-color="#222227"/>
</linearGradient>
<linearGradient id="paint31_linear_1380_821" x1="12.2394" y1="7.5" x2="11.4164" y2="-0.110328" gradientUnits="userSpaceOnUse">
<stop stop-color="#121214"/>
<stop offset="1" stop-color="#94949B"/>
</linearGradient>
<linearGradient id="paint32_linear_1380_821" x1="3.9507" y1="26" x2="4.02686" y2="-2.85182" gradientUnits="userSpaceOnUse">
<stop stop-color="#121214"/>
<stop offset="0.27" stop-color="#121214"/>
<stop offset="1" stop-color="#222227"/>
</linearGradient>
<linearGradient id="paint33_linear_1380_821" x1="9.45775" y1="7.5" x2="8.40084" y2="-0.0514189" gradientUnits="userSpaceOnUse">
<stop stop-color="#121214"/>
<stop offset="1" stop-color="#94949B"/>
</linearGradient>
<linearGradient id="paint34_linear_1380_821" x1="92.1235" y1="74.4954" x2="26.4505" y2="-30.9757" gradientUnits="userSpaceOnUse">
<stop stop-color="#FF5F1F"/>
<stop offset="0.65" stop-color="#531F0A" stop-opacity="0"/>
<stop offset="1" stop-opacity="0"/>
</linearGradient>
<linearGradient id="paint35_linear_1380_821" x1="89.3456" y1="45.4473" x2="89.3456" y2="103.566" gradientUnits="userSpaceOnUse">
<stop offset="0.105769" stop-color="#FF9255"/>
<stop offset="0.504808" stop-color="#531F0A" stop-opacity="0"/>
<stop offset="1" stop-opacity="0"/>
</linearGradient>
<clipPath id="clip0_1380_821">
<rect width="137" height="112" fill="white"/>
</clipPath>
</defs>
</svg>
