<svg width="136" height="112" viewBox="0 0 136 112" fill="none" xmlns="http://www.w3.org/2000/svg">
<g clip-path="url(#clip0_1374_559)">
<path d="M8.8418 1.5H113.158C117.811 1.50004 121.5 4.91926 121.5 9.03906V70.9609C121.5 75.0807 117.811 78.5 113.158 78.5H8.8418C4.18888 78.5 0.5 75.0807 0.5 70.9609V9.03906C0.5 4.91926 4.18888 1.50004 8.8418 1.5Z" fill="url(#paint0_linear_1374_559)" stroke="url(#paint1_linear_1374_559)" stroke-miterlimit="10"/>
<path d="M8.26172 1.5H105.738C110.038 1.50019 113.5 4.88844 113.5 9.03906V70.9609C113.5 75.1116 110.038 78.4998 105.738 78.5H8.26172C3.96201 78.4998 0.5 75.1116 0.5 70.9609V9.03906C0.5 5.01809 3.7491 1.7125 7.86133 1.50977L8.26172 1.5Z" fill="url(#paint2_linear_1374_559)" stroke="url(#paint3_linear_1374_559)" stroke-miterlimit="10"/>
<g clip-path="url(#clip1_1374_559)">
<path d="M68.5615 20.5C71.517 20.5265 74.3489 21.648 76.5234 23.6318L76.9492 24.04C79.172 26.2788 80.4298 29.3029 80.457 32.4609C80.4842 35.6183 79.2795 38.6634 77.0967 40.9404L77.0635 40.9756L70.6719 47.4062C69.4564 48.6312 67.9917 49.5794 66.3779 50.1855C64.7642 50.7916 63.0394 51.0417 61.3203 50.918C59.6011 50.7942 57.9286 50.3001 56.418 49.4688V49.4678C55.483 48.9537 54.6232 48.3176 53.8594 47.5791C53.3088 47.0468 53.3958 46.108 54.1035 45.582L55.7471 44.3604L55.748 44.3613C56.4155 43.866 57.4372 43.9887 58.2666 44.5703C58.469 44.7123 58.6799 44.8437 58.8965 44.9629C59.7589 45.4375 60.7117 45.7181 61.6895 45.7891C62.6674 45.8593 63.6507 45.7175 64.5703 45.3721C65.3753 45.0693 66.1159 44.6173 66.7549 44.0391L67.0225 43.7842L73.3945 37.3721L73.4023 37.3643C74.5645 36.1431 75.2424 34.5349 75.3096 32.8457L75.3145 32.5068C75.2992 30.6856 74.5744 28.9463 73.3008 27.6641C72.0277 26.3824 70.3091 25.6595 68.5166 25.6436C66.7312 25.6277 65.0068 26.3155 63.7139 27.5654L63.708 27.5723L62.7246 28.5557C62.1201 29.1602 61.1397 29.1602 60.5352 28.5557L59.0879 27.1084C58.4834 26.5039 58.4834 25.5235 59.0879 24.9189L60.0879 23.918L60.1143 23.8936C62.3765 21.6933 65.4094 20.4724 68.5615 20.5Z" fill="url(#paint4_linear_1374_559)" stroke="url(#paint5_linear_1374_559)" stroke-miterlimit="10"/>
<path d="M52.5801 32.8135C54.1935 32.2069 55.9186 31.9573 57.6377 32.0811V32.082C59.2489 32.1981 60.8192 32.64 62.2539 33.3799L62.5391 33.5312C63.4741 34.0453 64.3338 34.6824 65.0977 35.4209C65.6483 35.9532 65.5612 36.892 64.8535 37.418L63.209 38.6387C62.5422 39.1343 61.5198 39.0117 60.6895 38.4297H60.6885C60.4869 38.2883 60.2771 38.1565 60.0596 38.0371H60.0586C59.1973 37.5631 58.2451 37.2812 57.2676 37.2109C56.2891 37.1407 55.3072 37.2826 54.3877 37.6279C53.5834 37.93 52.8422 38.3819 52.2031 38.96L51.9355 39.2158L45.5625 45.627L45.5547 45.6357C44.3927 46.8569 43.7155 48.4648 43.6484 50.1543L43.6426 50.4932C43.6578 52.3143 44.3837 54.0528 45.6572 55.335C46.9302 56.6166 48.648 57.3404 50.4404 57.3564C52.2259 57.3724 53.9501 56.6836 55.2432 55.4336L55.249 55.4277L56.2334 54.4443C56.8379 53.8398 57.8173 53.8398 58.4219 54.4443L59.8701 55.8916C60.4746 56.496 60.4744 57.4755 59.8701 58.0801L58.8438 59.1064C56.5815 61.3067 53.5486 62.5267 50.3965 62.499C47.2444 62.4719 44.2322 61.199 42.0088 58.96C39.7859 56.7211 38.5272 53.6963 38.5 50.5381C38.4734 47.3797 39.6784 44.3326 41.8623 42.0566L41.8945 42.0234L41.8955 42.0244L48.2861 35.5938C49.5017 34.3693 50.9669 33.4196 52.5801 32.8135Z" fill="url(#paint6_linear_1374_559)" stroke="url(#paint7_linear_1374_559)" stroke-miterlimit="10"/>
</g>
<path d="M12.8965 9.5C14.772 9.5 16.293 11.0195 16.293 12.8945C16.2929 14.7695 14.772 16.2891 12.8965 16.2891C11.0211 16.289 9.50009 14.7694 9.5 12.8945C9.5 11.0196 11.021 9.50009 12.8965 9.5Z" fill="url(#paint8_linear_1374_559)" stroke="url(#paint9_linear_1374_559)" stroke-miterlimit="10"/>
<path d="M22.2344 9.5C24.1099 9.5 25.6309 11.0195 25.6309 12.8945C25.6308 14.7695 24.1099 16.2891 22.2344 16.2891C20.359 16.289 18.838 14.7694 18.8379 12.8945C18.8379 11.0196 20.3589 9.50009 22.2344 9.5Z" fill="url(#paint10_linear_1374_559)" stroke="url(#paint11_linear_1374_559)" stroke-miterlimit="10"/>
<path d="M32.2344 9.5C34.1099 9.5 35.6309 11.0195 35.6309 12.8945C35.6308 14.7695 34.1099 16.2891 32.2344 16.2891C30.359 16.289 28.838 14.7694 28.8379 12.8945C28.8379 11.0196 30.3589 9.50009 32.2344 9.5Z" fill="url(#paint12_linear_1374_559)" stroke="url(#paint13_linear_1374_559)" stroke-miterlimit="10"/>
<path d="M57.1211 58.5H129.34C132.49 58.5 134.962 60.8117 134.962 63.5654V106.435C134.962 109.188 132.49 111.5 129.34 111.5H57.1211C53.9708 111.5 51.5 109.188 51.5 106.435V63.5654L51.5068 63.3086C51.6547 60.6694 54.0692 58.5001 57.1211 58.5Z" fill="url(#paint14_linear_1374_559)" stroke="url(#paint15_linear_1374_559)" stroke-miterlimit="10"/>
<path d="M56.7197 58.5H124.203C127.099 58.5 129.423 60.7808 129.423 63.5654V106.435C129.423 109.219 127.099 111.5 124.203 111.5H56.7197C53.8239 111.5 51.5 109.219 51.5 106.435V63.5654L51.5068 63.3057C51.646 60.6403 53.9145 58.5001 56.7197 58.5Z" fill="url(#paint16_linear_1374_559)" stroke="url(#paint17_linear_1374_559)" stroke-miterlimit="10"/>
<g clip-path="url(#clip2_1374_559)">
<path d="M95.6428 72.9998C93.4276 72.9804 91.2965 73.8379 89.7073 75.3836L89.6866 75.4039L89.0118 76.0788C88.4724 76.6182 88.4724 77.4924 89.0118 78.0318L89.9882 79.0082C90.5276 79.5476 91.4018 79.5476 91.9412 79.0082L92.6049 78.3445C93.4135 77.5628 94.4911 77.1328 95.6064 77.1427C96.7262 77.1526 97.8 77.6046 98.5963 78.4063C99.3929 79.2083 99.8474 80.2967 99.8569 81.4372C99.8669 82.5719 99.4356 83.6631 98.6601 84.478L94.3623 88.8024C93.9268 89.2411 93.404 89.5791 92.829 89.7954C92.2544 90.0112 91.6404 90.0999 91.0293 90.056C90.4183 90.0117 89.8229 89.836 89.2839 89.5394C89.1485 89.4648 89.0167 89.3828 88.8904 89.2941C88.266 88.8562 87.4089 88.7038 86.7966 89.1582L85.6879 89.9818C85.0756 90.4367 84.941 91.3117 85.4895 91.842C86.026 92.3607 86.63 92.8077 87.2871 93.1689C88.3485 93.7531 89.5234 94.1007 90.7315 94.1877C91.9395 94.2747 93.1517 94.099 94.2856 93.6731C95.4195 93.2472 96.4482 92.5811 97.302 91.7206L101.612 87.3834L101.638 87.3569C103.172 85.7574 104.018 83.6184 103.999 81.4007C103.98 79.1831 103.097 77.059 101.536 75.4864C99.9738 73.9146 97.858 73.0197 95.6428 72.9998Z" fill="url(#paint18_linear_1374_559)" stroke="url(#paint19_linear_1374_559)" stroke-miterlimit="10"/>
<path d="M88.2686 80.8117C87.0606 80.7247 85.8484 80.9 84.7145 81.3263C83.581 81.7522 82.5519 82.4188 81.6981 83.2788L77.3878 87.616L77.3621 87.6425C75.828 89.2412 74.9817 91.3806 75.0003 93.5983C75.0194 95.8159 75.9026 97.94 77.4641 99.5126C79.0259 101.086 81.1421 101.98 83.3573 102C85.5725 102.019 87.7035 101.161 89.2927 99.6158L89.313 99.5955L89.9879 98.9206C90.5273 98.3812 90.5273 97.507 89.9879 96.9676L89.0114 95.9912C88.472 95.4518 87.5979 95.4518 87.0585 95.9912L86.3948 96.6549C85.5861 97.4366 84.5086 97.8666 83.3933 97.8567C82.2735 97.8468 81.1997 97.3948 80.4034 96.5931C79.6067 95.7911 79.1523 94.7027 79.1427 93.5622C79.1328 92.4271 79.5641 91.3363 80.3396 90.5214L84.6374 86.197C85.0728 85.7583 85.5961 85.4203 86.1707 85.2044C86.7453 84.9886 87.3589 84.8999 87.9703 84.9438C88.5814 84.9877 89.1767 85.1638 89.7153 85.4604C89.8512 85.535 89.9825 85.617 90.1089 85.7057C90.7336 86.1436 91.5908 86.2961 92.2027 85.8412L93.3113 85.0176C93.9236 84.5627 94.0583 83.6877 93.5098 83.1574C92.9733 82.6387 92.3692 82.1917 91.7122 81.8305C90.6508 81.2463 89.4759 80.8987 88.2682 80.8117H88.2686Z" fill="url(#paint20_linear_1374_559)" stroke="url(#paint21_linear_1374_559)" stroke-miterlimit="10"/>
</g>
<path d="M58.3101 66.8538C59.4176 66.8538 60.3154 65.9566 60.3154 64.85C60.3154 63.7433 59.4176 62.8462 58.3101 62.8462C57.2025 62.8462 56.3047 63.7433 56.3047 64.85C56.3047 65.9566 57.2025 66.8538 58.3101 66.8538Z" fill="url(#paint22_linear_1374_559)" stroke="url(#paint23_linear_1374_559)" stroke-miterlimit="10"/>
<path d="M64.7749 66.8538C65.8824 66.8538 66.7803 65.9566 66.7803 64.85C66.7803 63.7433 65.8824 62.8462 64.7749 62.8462C63.6674 62.8462 62.7695 63.7433 62.7695 64.85C62.7695 65.9566 63.6674 66.8538 64.7749 66.8538Z" fill="url(#paint24_linear_1374_559)" stroke="url(#paint25_linear_1374_559)" stroke-miterlimit="10"/>
<path d="M71.6978 66.8538C72.8053 66.8538 73.7031 65.9566 73.7031 64.85C73.7031 63.7433 72.8053 62.8462 71.6978 62.8462C70.5902 62.8462 69.6924 63.7433 69.6924 64.85C69.6924 65.9566 70.5902 66.8538 71.6978 66.8538Z" fill="url(#paint26_linear_1374_559)" stroke="url(#paint27_linear_1374_559)" stroke-miterlimit="10"/>
</g>
<defs>
<linearGradient id="paint0_linear_1374_559" x1="37.6874" y1="8.74393" x2="85.1275" y2="85.6918" gradientUnits="userSpaceOnUse">
<stop stop-color="#222227"/>
<stop offset="0.73" stop-color="#121214" stop-opacity="0"/>
<stop offset="1" stop-color="#121214" stop-opacity="0"/>
</linearGradient>
<linearGradient id="paint1_linear_1374_559" x1="31.0351" y1="-8" x2="89.3469" y2="94.9901" gradientUnits="userSpaceOnUse">
<stop stop-color="#C0C0CA"/>
<stop offset="1" stop-opacity="0"/>
</linearGradient>
<linearGradient id="paint2_linear_1374_559" x1="35.2161" y1="8.74393" x2="84.0322" y2="82.7315" gradientUnits="userSpaceOnUse">
<stop stop-color="#222227"/>
<stop offset="0.73" stop-color="#121214" stop-opacity="0"/>
<stop offset="1" stop-color="#121214" stop-opacity="0"/>
</linearGradient>
<linearGradient id="paint3_linear_1374_559" x1="29" y1="-8" x2="89.2781" y2="91.4818" gradientUnits="userSpaceOnUse">
<stop stop-color="#C0C0CA"/>
<stop offset="1" stop-opacity="0"/>
</linearGradient>
<linearGradient id="paint4_linear_1374_559" x1="61.6365" y1="23.1223" x2="61.7622" y2="51.801" gradientUnits="userSpaceOnUse">
<stop stop-color="#222227" stop-opacity="0"/>
<stop offset="0.73" stop-color="#121214"/>
<stop offset="1" stop-color="#121214"/>
</linearGradient>
<linearGradient id="paint5_linear_1374_559" x1="60.112" y1="16.3713" x2="60.5348" y2="51.9644" gradientUnits="userSpaceOnUse">
<stop stop-color="#C0C0CA"/>
<stop offset="1" stop-opacity="0"/>
</linearGradient>
<linearGradient id="paint6_linear_1374_559" x1="46.6363" y1="34.6731" x2="46.762" y2="63.3518" gradientUnits="userSpaceOnUse">
<stop stop-color="#222227" stop-opacity="0"/>
<stop offset="0.73" stop-color="#121214"/>
<stop offset="1" stop-color="#121214"/>
</linearGradient>
<linearGradient id="paint7_linear_1374_559" x1="45.1119" y1="27.922" x2="45.5347" y2="63.5153" gradientUnits="userSpaceOnUse">
<stop stop-color="#C0C0CA"/>
<stop offset="1" stop-opacity="0"/>
</linearGradient>
<linearGradient id="paint8_linear_1374_559" x1="11.7896" y1="10.5747" x2="15.7275" y2="14.6616" gradientUnits="userSpaceOnUse">
<stop stop-color="#222227"/>
<stop offset="0.73" stop-color="#121214" stop-opacity="0"/>
<stop offset="1" stop-color="#121214" stop-opacity="0"/>
</linearGradient>
<linearGradient id="paint9_linear_1374_559" x1="11.4737" y1="9.33207" x2="16.483" y2="14.9931" gradientUnits="userSpaceOnUse">
<stop stop-color="#C0C0CA"/>
<stop offset="1" stop-opacity="0"/>
</linearGradient>
<linearGradient id="paint10_linear_1374_559" x1="21.1275" y1="10.5747" x2="25.0654" y2="14.6616" gradientUnits="userSpaceOnUse">
<stop stop-color="#222227"/>
<stop offset="0.73" stop-color="#121214" stop-opacity="0"/>
<stop offset="1" stop-color="#121214" stop-opacity="0"/>
</linearGradient>
<linearGradient id="paint11_linear_1374_559" x1="20.8116" y1="9.33207" x2="25.8209" y2="14.9931" gradientUnits="userSpaceOnUse">
<stop stop-color="#C0C0CA"/>
<stop offset="1" stop-opacity="0"/>
</linearGradient>
<linearGradient id="paint12_linear_1374_559" x1="31.1275" y1="10.5747" x2="35.0654" y2="14.6616" gradientUnits="userSpaceOnUse">
<stop stop-color="#222227"/>
<stop offset="0.73" stop-color="#121214" stop-opacity="0"/>
<stop offset="1" stop-color="#121214" stop-opacity="0"/>
</linearGradient>
<linearGradient id="paint13_linear_1374_559" x1="30.8116" y1="9.33207" x2="35.8209" y2="14.9931" gradientUnits="userSpaceOnUse">
<stop stop-color="#C0C0CA"/>
<stop offset="1" stop-opacity="0"/>
</linearGradient>
<linearGradient id="paint14_linear_1374_559" x1="77.0913" y1="63.3612" x2="109.934" y2="116.633" gradientUnits="userSpaceOnUse">
<stop stop-color="#222227"/>
<stop offset="0.73" stop-color="#121214" stop-opacity="0"/>
<stop offset="1" stop-color="#121214" stop-opacity="0"/>
</linearGradient>
<linearGradient id="paint15_linear_1374_559" x1="72.4858" y1="51.7692" x2="140.043" y2="155.342" gradientUnits="userSpaceOnUse">
<stop stop-color="#C0C0CA"/>
<stop offset="1" stop-opacity="0"/>
</linearGradient>
<linearGradient id="paint16_linear_1374_559" x1="75.3804" y1="63.3612" x2="109.176" y2="114.583" gradientUnits="userSpaceOnUse">
<stop stop-color="#222227"/>
<stop offset="0.73" stop-color="#121214"/>
<stop offset="1" stop-color="#121214"/>
</linearGradient>
<linearGradient id="paint17_linear_1374_559" x1="71.0769" y1="51.7692" x2="139.519" y2="149.242" gradientUnits="userSpaceOnUse">
<stop stop-color="#C0C0CA"/>
<stop offset="1" stop-opacity="0"/>
</linearGradient>
<linearGradient id="paint18_linear_1374_559" x1="86.1852" y1="91.0875" x2="129.089" y2="29.8329" gradientUnits="userSpaceOnUse">
<stop stop-color="#FF5F1F"/>
<stop offset="0.65" stop-color="#531F0A" stop-opacity="0"/>
<stop offset="1" stop-opacity="0"/>
</linearGradient>
<linearGradient id="paint19_linear_1374_559" x1="87.7257" y1="72.9666" x2="87.7257" y2="109.222" gradientUnits="userSpaceOnUse">
<stop offset="0.105769" stop-color="#FF9255"/>
<stop offset="0.504808" stop-color="#531F0A" stop-opacity="0"/>
<stop offset="1" stop-opacity="0"/>
</linearGradient>
<linearGradient id="paint20_linear_1374_559" x1="76.0407" y1="98.878" x2="118.944" y2="37.6244" gradientUnits="userSpaceOnUse">
<stop stop-color="#FF5F1F"/>
<stop offset="0.65" stop-color="#531F0A" stop-opacity="0"/>
<stop offset="1" stop-opacity="0"/>
</linearGradient>
<linearGradient id="paint21_linear_1374_559" x1="77.5811" y1="80.7572" x2="77.5811" y2="117.013" gradientUnits="userSpaceOnUse">
<stop offset="0.105769" stop-color="#FF9255"/>
<stop offset="0.504808" stop-color="#531F0A" stop-opacity="0"/>
<stop offset="1" stop-opacity="0"/>
</linearGradient>
<linearGradient id="paint22_linear_1374_559" x1="54.6853" y1="69.7829" x2="65.2571" y2="58.512" gradientUnits="userSpaceOnUse">
<stop stop-color="#FF5F1F"/>
<stop offset="0.65" stop-color="#531F0A" stop-opacity="0"/>
<stop offset="1" stop-opacity="0"/>
</linearGradient>
<linearGradient id="paint23_linear_1374_559" x1="56.2986" y1="64.8492" x2="60.3214" y2="64.8492" gradientUnits="userSpaceOnUse">
<stop stop-color="#FF5F1F"/>
<stop offset="0.44" stop-color="#531F0A" stop-opacity="0"/>
<stop offset="1" stop-opacity="0"/>
</linearGradient>
<linearGradient id="paint24_linear_1374_559" x1="61.1502" y1="69.7829" x2="71.7219" y2="58.512" gradientUnits="userSpaceOnUse">
<stop stop-color="#FF5F1F"/>
<stop offset="0.65" stop-color="#531F0A" stop-opacity="0"/>
<stop offset="1" stop-opacity="0"/>
</linearGradient>
<linearGradient id="paint25_linear_1374_559" x1="62.7634" y1="64.8492" x2="66.7862" y2="64.8492" gradientUnits="userSpaceOnUse">
<stop stop-color="#FF5F1F"/>
<stop offset="0.44" stop-color="#531F0A" stop-opacity="0"/>
<stop offset="1" stop-opacity="0"/>
</linearGradient>
<linearGradient id="paint26_linear_1374_559" x1="68.073" y1="69.7829" x2="78.6448" y2="58.512" gradientUnits="userSpaceOnUse">
<stop stop-color="#FF5F1F"/>
<stop offset="0.65" stop-color="#531F0A" stop-opacity="0"/>
<stop offset="1" stop-opacity="0"/>
</linearGradient>
<linearGradient id="paint27_linear_1374_559" x1="69.6863" y1="64.8492" x2="73.709" y2="64.8492" gradientUnits="userSpaceOnUse">
<stop stop-color="#FF5F1F"/>
<stop offset="0.44" stop-color="#531F0A" stop-opacity="0"/>
<stop offset="1" stop-opacity="0"/>
</linearGradient>
<clipPath id="clip0_1374_559">
<rect width="136" height="112" fill="white"/>
</clipPath>
<clipPath id="clip1_1374_559">
<rect width="43" height="43" fill="white" transform="translate(38 20)"/>
</clipPath>
<clipPath id="clip2_1374_559">
<rect width="31" height="31" fill="white" transform="translate(74 72)"/>
</clipPath>
</defs>
</svg>
