<svg width="137" height="112" viewBox="0 0 137 112" fill="none" xmlns="http://www.w3.org/2000/svg">
<g clip-path="url(#clip0_1139_60)">
<rect x="10" y="0.5" width="114" height="111" rx="8" fill="url(#paint0_linear_1139_60)"/>
<rect x="-0.5" width="115" height="112" rx="8.5" fill="url(#paint1_linear_1139_60)" stroke="white" stroke-miterlimit="10"/>
<rect x="9.5" y="43" width="36" height="7" rx="1.5" fill="black" fill-opacity="0.05" stroke="url(#paint2_linear_1139_60)"/>
<rect x="9.5" y="55" width="26" height="7" rx="1.5" fill="black" fill-opacity="0.05" stroke="url(#paint3_linear_1139_60)"/>
<rect x="9.5" y="67" width="26" height="7" rx="1.5" fill="url(#paint4_linear_1139_60)" stroke="url(#paint5_linear_1139_60)" stroke-miterlimit="10"/>
<path d="M16.1294 25.3203L17.4116 28.6494L17.4155 28.6572L17.4185 28.666L17.4224 28.6758L17.5063 28.9072L18.98 25.3633L19.1724 24.9014L19.6343 25.0938L21.4458 25.8457L21.9077 26.0371L21.7163 26.5L20.144 30.2783L20.145 30.2793C19.6953 31.3638 18.6422 32.0539 17.4692 32.0391V32.04C17.0955 32.0359 16.7343 31.9592 16.4038 31.8213V31.8203C15.7402 31.5449 15.1967 31.0264 14.895 30.3477L14.8384 30.21L13.3638 26.3838L13.1841 25.917L13.6509 25.7383L15.4829 25.0332L15.9497 24.8535L16.1294 25.3203Z" fill="url(#paint6_linear_1139_60)" stroke="url(#paint7_linear_1139_60)" stroke-miterlimit="10"/>
<path d="M24.7617 29.1455L25.4668 30.9756L25.6465 31.4424L25.1797 31.6221L21.8379 32.9082L21.8311 32.9111L21.8213 32.9141L21.5889 32.998L25.1367 34.4707L25.5986 34.6621L25.4062 35.124L24.6533 36.9355L24.4619 37.3965L24 37.2051L20.2168 35.6348V35.6338C19.1322 35.1843 18.4401 34.1334 18.4551 32.9609L18.4717 32.6836C18.5015 32.4093 18.5715 32.145 18.6748 31.8975H18.6738C18.9493 31.2336 19.4698 30.6903 20.1494 30.3887L20.2871 30.3311L24.1152 28.8584L24.582 28.6787L24.7617 29.1455Z" fill="url(#paint8_linear_1139_60)" stroke="url(#paint9_linear_1139_60)" stroke-miterlimit="10"/>
<path d="M11.0088 28.7854L14.7891 30.3616C15.8728 30.8125 16.5621 31.8651 16.5459 33.0374L16.5469 33.0383C16.5453 33.1638 16.5332 33.2875 16.5156 33.4094H16.6162L16.3271 34.1018C16.0321 34.8094 15.4593 35.3796 14.7119 35.6653L10.8809 37.1321L10.4141 37.3108L10.2354 36.844L9.5332 35.0129L9.35449 34.5452L9.82129 34.3665L13.1543 33.0901L13.1621 33.0872L13.1719 33.0833L13.1807 33.0793L13.4111 32.9954L9.86816 31.5188L9.40625 31.3264L9.59961 30.8645L10.3555 29.0549L10.5479 28.594L11.0088 28.7854Z" fill="url(#paint10_linear_1139_60)" stroke="url(#paint11_linear_1139_60)" stroke-miterlimit="10"/>
<path d="M12.5586 9C14.4341 9 15.9551 10.5195 15.9551 12.3945C15.955 14.2695 14.4341 15.7891 12.5586 15.7891C10.6832 15.789 9.1622 14.2694 9.16211 12.3945C9.16211 10.5196 10.6831 9.00009 12.5586 9Z" fill="url(#paint12_linear_1139_60)" stroke="white" stroke-miterlimit="10"/>
<path d="M21.8965 9C23.772 9 25.293 10.5195 25.293 12.3945C25.2929 14.2695 23.772 15.7891 21.8965 15.7891C20.0211 15.789 18.5001 14.2694 18.5 12.3945C18.5 10.5196 20.021 9.00009 21.8965 9Z" fill="url(#paint13_linear_1139_60)" stroke="white" stroke-miterlimit="10"/>
<path d="M31.8965 9C33.772 9 35.293 10.5195 35.293 12.3945C35.2929 14.2695 33.772 15.7891 31.8965 15.7891C30.0211 15.789 28.5001 14.2694 28.5 12.3945C28.5 10.5196 30.021 9.00009 31.8965 9Z" fill="url(#paint14_linear_1139_60)" stroke="white" stroke-miterlimit="10"/>
<rect x="52.5" y="43" width="54" height="33" rx="1.5" fill="black" fill-opacity="0.05" stroke="url(#paint15_linear_1139_60)"/>
<rect x="9.5" y="84" width="26" height="18" rx="1.5" fill="url(#paint16_linear_1139_60)" stroke="url(#paint17_linear_1139_60)" stroke-miterlimit="10"/>
<rect x="45.5" y="84" width="26" height="18" rx="1.5" fill="url(#paint18_linear_1139_60)" stroke="url(#paint19_linear_1139_60)" stroke-miterlimit="10"/>
<rect x="80.5" y="84" width="26" height="18" rx="1.5" fill="url(#paint20_linear_1139_60)" stroke="url(#paint21_linear_1139_60)" stroke-miterlimit="10"/>
<circle cx="60.5" cy="52" r="4" fill="url(#paint22_linear_1139_60)" stroke="url(#paint23_linear_1139_60)" stroke-miterlimit="10"/>
<path d="M106.5 76H52.5V70.1768L52.6484 70.0303L65.6484 57.1445L65.9756 56.8203L66.3252 57.1201L76.4795 65.8232L91.6523 51.1406L91.9922 50.8125L92.3389 51.1328L106.339 64.0508L106.5 64.1992V76Z" fill="url(#paint24_linear_1139_60)" stroke="url(#paint25_linear_1139_60)" stroke-miterlimit="10"/>
<rect x="82.5" y="40" width="53" height="71" rx="2.5" fill="url(#paint26_linear_1139_60)" stroke="white" stroke-miterlimit="10"/>
<rect x="76.5" y="40" width="53" height="71" rx="2.5" fill="url(#paint27_linear_1139_60)" stroke="white" stroke-miterlimit="10"/>
<path d="M100.771 45.3203L102.655 50.208L102.659 50.2188L102.663 50.2285L102.667 50.2373L103 51.1543C103.024 51.08 103.051 51.0062 103.081 50.9336L105.387 45.3887L105.578 44.9277L106.04 45.1191L108.698 46.2227L109.16 46.4141L108.968 46.876L106.663 52.4209C106.04 53.9229 104.583 54.8779 102.958 54.8574V54.8584C102.441 54.8527 101.941 54.7463 101.483 54.5557V54.5566C100.564 54.1757 99.8109 53.4564 99.3926 52.5156L99.3135 52.3242L97.1514 46.7129L96.9717 46.2461L97.4385 46.0664L100.126 45.0332L100.592 44.8535L100.771 45.3203Z" fill="url(#paint28_linear_1139_60)" stroke="url(#paint29_linear_1139_60)" stroke-miterlimit="10"/>
<path d="M113.433 50.9302L114.467 53.6147L114.646 54.0815L114.18 54.2612L109.278 56.147L109.276 56.1479L109.268 56.1519L109.259 56.1548L108.341 56.4878C108.415 56.5119 108.49 56.5385 108.562 56.5688H108.562L114.11 58.8716L114.572 59.064L114.381 59.5259L113.276 62.1821L113.084 62.6431L112.623 62.4517L107.074 60.1479C105.571 59.5255 104.613 58.0696 104.634 56.4448C104.64 55.9276 104.747 55.4281 104.938 54.9712C105.344 53.9914 106.136 53.2006 107.171 52.8032L112.786 50.6431L113.253 50.4634L113.433 50.9302Z" fill="url(#paint30_linear_1139_60)" stroke="url(#paint31_linear_1139_60)" stroke-miterlimit="10"/>
<path d="M93.3896 50.5339L98.9355 52.8464C100.343 53.4326 101.271 54.7504 101.362 56.2517L101.369 56.5535C101.366 56.8194 101.336 57.0806 101.281 57.3337H101.354L101.064 58.0261C100.656 59.0056 99.8629 59.7942 98.8271 60.1902L93.209 62.3425L92.7422 62.5212L92.5625 62.0544L91.5332 59.3679L91.3545 58.9011L91.8213 58.7224L96.7256 56.8435L96.7451 56.8357L97.6611 56.5037C97.5872 56.4796 97.5136 56.4538 97.4414 56.4236L91.8965 54.1111L91.4346 53.9187L91.6279 53.4578L92.7363 50.8035L92.9287 50.3425L93.3896 50.5339Z" fill="url(#paint32_linear_1139_60)" stroke="url(#paint33_linear_1139_60)" stroke-miterlimit="10"/>
<rect x="0.5" y="-0.5" width="32" height="5" rx="1" transform="matrix(-1 0 0 1 121 69.5)" fill="black" fill-opacity="0.05" stroke="url(#paint34_linear_1139_60)"/>
<rect x="0.5" y="-0.5" width="23" height="5" rx="1" transform="matrix(-1 0 0 1 121 80.5)" fill="black" fill-opacity="0.05" stroke="url(#paint35_linear_1139_60)"/>
<rect x="0.5" y="-0.5" width="18" height="5" rx="1" transform="matrix(-1 0 0 1 121 91.5)" fill="black" fill-opacity="0.05" stroke="url(#paint36_linear_1139_60)"/>
<path d="M70.7651 68.1045C67.9592 65.2988 63.4099 65.2986 60.604 68.1045L59.7505 68.958H59.8745C57.825 71.7682 58.0684 75.7291 60.605 78.2656L76.6665 94.3281C77.6389 95.301 78.1548 95.8168 78.7251 96.2617C79.3919 96.7819 80.1136 97.2279 80.8765 97.5918C81.5297 97.9033 82.2223 98.1327 83.5269 98.5674L90.4683 100.882H90.4692C91.2963 101.157 92.2079 100.942 92.8247 100.325C93.4417 99.7082 93.6569 98.7959 93.3813 97.9688L91.0669 91.0273C90.6321 89.7225 90.4029 89.0293 90.0913 88.376C89.7278 87.6128 89.2813 86.8912 88.7612 86.2246C88.3162 85.6543 87.7995 85.1389 86.8267 84.166L70.7651 68.1045Z" fill="url(#paint37_linear_1139_60)" stroke="url(#paint38_linear_1139_60)" stroke-miterlimit="10"/>
</g>
<defs>
<linearGradient id="paint0_linear_1139_60" x1="26.8197" y1="-85.9893" x2="184.175" y2="68.9759" gradientUnits="userSpaceOnUse">
<stop stop-color="white" stop-opacity="0"/>
<stop offset="0.190127" stop-color="white" stop-opacity="0"/>
<stop offset="1" stop-color="#D9D9DC"/>
</linearGradient>
<linearGradient id="paint1_linear_1139_60" x1="-25.5" y1="-53.1091" x2="124.684" y2="47.4797" gradientUnits="userSpaceOnUse">
<stop stop-color="white"/>
<stop offset="0.437462" stop-color="#F9F9F9"/>
<stop offset="1" stop-color="#D9D9DC"/>
</linearGradient>
<linearGradient id="paint2_linear_1139_60" x1="43.3882" y1="50.625" x2="19.3702" y2="29.683" gradientUnits="userSpaceOnUse">
<stop stop-color="white" stop-opacity="0"/>
<stop offset="1" stop-color="white"/>
</linearGradient>
<linearGradient id="paint3_linear_1139_60" x1="33.8487" y1="62.625" x2="12.0901" y2="49.0736" gradientUnits="userSpaceOnUse">
<stop stop-color="white" stop-opacity="0"/>
<stop offset="1" stop-color="white"/>
</linearGradient>
<linearGradient id="paint4_linear_1139_60" x1="11.3798" y1="72.6169" x2="15.1553" y2="47.3521" gradientUnits="userSpaceOnUse">
<stop stop-color="#FF5F1F"/>
<stop offset="1" stop-color="#FF5F1F"/>
</linearGradient>
<linearGradient id="paint5_linear_1139_60" x1="22.5" y1="67.5" x2="22.5" y2="73.5" gradientUnits="userSpaceOnUse">
<stop stop-color="#F3F3F3" stop-opacity="0"/>
<stop offset="0.466346" stop-color="white"/>
</linearGradient>
<linearGradient id="paint6_linear_1139_60" x1="14.2403" y1="30.6513" x2="24.7232" y2="9.95936" gradientUnits="userSpaceOnUse">
<stop stop-color="#FF5F1F"/>
<stop offset="1" stop-color="#FF5F1F"/>
</linearGradient>
<linearGradient id="paint7_linear_1139_60" x1="17.5425" y1="25.5" x2="17.5425" y2="31.5404" gradientUnits="userSpaceOnUse">
<stop stop-color="#F3F3F3" stop-opacity="0"/>
<stop offset="0.466346" stop-color="white"/>
</linearGradient>
<linearGradient id="paint8_linear_1139_60" x1="19.2887" y1="35.6515" x2="34.6946" y2="15.4888" gradientUnits="userSpaceOnUse">
<stop stop-color="#FF5F1F"/>
<stop offset="1" stop-color="#FF5F1F"/>
</linearGradient>
<linearGradient id="paint9_linear_1139_60" x1="21.9776" y1="29.3252" x2="21.9776" y2="36.7434" gradientUnits="userSpaceOnUse">
<stop stop-color="#F3F3F3" stop-opacity="0"/>
<stop offset="0.466346" stop-color="white"/>
</linearGradient>
<linearGradient id="paint10_linear_1139_60" x1="10.3338" y1="35.5735" x2="25.7376" y2="15.4049" gradientUnits="userSpaceOnUse">
<stop stop-color="#FF5F1F"/>
<stop offset="1" stop-color="#FF5F1F"/>
</linearGradient>
<linearGradient id="paint11_linear_1139_60" x1="13.0238" y1="29.2473" x2="13.0238" y2="36.6653" gradientUnits="userSpaceOnUse">
<stop stop-color="#F3F3F3" stop-opacity="0"/>
<stop offset="0.466346" stop-color="white"/>
</linearGradient>
<linearGradient id="paint12_linear_1139_60" x1="8.36624" y1="6.70425" x2="16.1194" y2="11.7645" gradientUnits="userSpaceOnUse">
<stop stop-color="white"/>
<stop offset="0.437462" stop-color="#F9F9F9"/>
<stop offset="1" stop-color="#D9D9DC"/>
</linearGradient>
<linearGradient id="paint13_linear_1139_60" x1="17.7041" y1="6.70425" x2="25.4573" y2="11.7645" gradientUnits="userSpaceOnUse">
<stop stop-color="white"/>
<stop offset="0.437462" stop-color="#F9F9F9"/>
<stop offset="1" stop-color="#D9D9DC"/>
</linearGradient>
<linearGradient id="paint14_linear_1139_60" x1="27.7041" y1="6.70425" x2="35.4573" y2="11.7645" gradientUnits="userSpaceOnUse">
<stop stop-color="white"/>
<stop offset="0.437462" stop-color="#F9F9F9"/>
<stop offset="1" stop-color="#D9D9DC"/>
</linearGradient>
<linearGradient id="paint15_linear_1139_60" x1="123.5" y1="93.5" x2="42.6979" y2="77.5648" gradientUnits="userSpaceOnUse">
<stop stop-color="white" stop-opacity="0"/>
<stop offset="1" stop-color="white"/>
</linearGradient>
<linearGradient id="paint16_linear_1139_60" x1="4.69589e-07" y1="73.28" x2="27.9615" y2="99.8405" gradientUnits="userSpaceOnUse">
<stop stop-color="white"/>
<stop offset="0.437462" stop-color="#F9F9F9"/>
<stop offset="1" stop-color="#D9D9DC" stop-opacity="0"/>
</linearGradient>
<linearGradient id="paint17_linear_1139_60" x1="12.5" y1="84.5" x2="19.3105" y2="107.87" gradientUnits="userSpaceOnUse">
<stop stop-color="white"/>
<stop offset="1" stop-color="white" stop-opacity="0"/>
</linearGradient>
<linearGradient id="paint18_linear_1139_60" x1="36" y1="73.28" x2="63.9615" y2="99.8405" gradientUnits="userSpaceOnUse">
<stop stop-color="white"/>
<stop offset="0.437462" stop-color="#F9F9F9"/>
<stop offset="1" stop-color="#D9D9DC" stop-opacity="0"/>
</linearGradient>
<linearGradient id="paint19_linear_1139_60" x1="48.5" y1="84.5" x2="55.3105" y2="107.87" gradientUnits="userSpaceOnUse">
<stop stop-color="white"/>
<stop offset="1" stop-color="white" stop-opacity="0"/>
</linearGradient>
<linearGradient id="paint20_linear_1139_60" x1="71" y1="73.28" x2="98.9615" y2="99.8405" gradientUnits="userSpaceOnUse">
<stop stop-color="white"/>
<stop offset="0.437462" stop-color="#F9F9F9"/>
<stop offset="1" stop-color="#D9D9DC" stop-opacity="0"/>
</linearGradient>
<linearGradient id="paint21_linear_1139_60" x1="83.5" y1="84.5" x2="90.3105" y2="107.87" gradientUnits="userSpaceOnUse">
<stop stop-color="white"/>
<stop offset="1" stop-color="white" stop-opacity="0"/>
</linearGradient>
<linearGradient id="paint22_linear_1139_60" x1="57.3864" y1="54.4697" x2="70.9073" y2="32.7547" gradientUnits="userSpaceOnUse">
<stop stop-color="#FF5F1F"/>
<stop offset="1" stop-color="#FF5F1F"/>
</linearGradient>
<linearGradient id="paint23_linear_1139_60" x1="64" y1="59" x2="57.3889" y2="47.7222" gradientUnits="userSpaceOnUse">
<stop stop-color="#F3F3F3" stop-opacity="0"/>
<stop offset="1" stop-color="white"/>
</linearGradient>
<linearGradient id="paint24_linear_1139_60" x1="41.1447" y1="36.9429" x2="77.6953" y2="85.5323" gradientUnits="userSpaceOnUse">
<stop stop-color="white"/>
<stop offset="0.437462" stop-color="#F9F9F9"/>
<stop offset="1" stop-color="#D9D9DC"/>
</linearGradient>
<linearGradient id="paint25_linear_1139_60" x1="73.151" y1="42.6803" x2="94.4204" y2="112.365" gradientUnits="userSpaceOnUse">
<stop stop-color="white"/>
<stop offset="0.581731" stop-color="white" stop-opacity="0"/>
</linearGradient>
<linearGradient id="paint26_linear_1139_60" x1="69.9211" y1="4.72655" x2="153.08" y2="45.4002" gradientUnits="userSpaceOnUse">
<stop stop-color="white"/>
<stop offset="0.437462" stop-color="#F9F9F9"/>
<stop offset="1" stop-color="#D9D9DC"/>
</linearGradient>
<linearGradient id="paint27_linear_1139_60" x1="63.9211" y1="4.72655" x2="147.08" y2="45.4002" gradientUnits="userSpaceOnUse">
<stop stop-color="white"/>
<stop offset="0.437462" stop-color="#F9F9F9"/>
<stop offset="1" stop-color="#D9D9DC"/>
</linearGradient>
<linearGradient id="paint28_linear_1139_60" x1="98.2191" y1="53.0551" x2="113.594" y2="22.7073" gradientUnits="userSpaceOnUse">
<stop stop-color="#FF5F1F"/>
<stop offset="1" stop-color="#FF5F1F"/>
</linearGradient>
<linearGradient id="paint29_linear_1139_60" x1="103.062" y1="45.5" x2="103.062" y2="54.3591" gradientUnits="userSpaceOnUse">
<stop stop-color="#F3F3F3" stop-opacity="0"/>
<stop offset="0.466346" stop-color="white"/>
</linearGradient>
<linearGradient id="paint30_linear_1139_60" x1="105.623" y1="60.3884" x2="128.218" y2="30.8167" gradientUnits="userSpaceOnUse">
<stop stop-color="#FF5F1F"/>
<stop offset="1" stop-color="#FF5F1F"/>
</linearGradient>
<linearGradient id="paint31_linear_1139_60" x1="109.567" y1="51.1099" x2="109.567" y2="61.9898" gradientUnits="userSpaceOnUse">
<stop stop-color="#F3F3F3" stop-opacity="0"/>
<stop offset="0.466346" stop-color="white"/>
</linearGradient>
<linearGradient id="paint32_linear_1139_60" x1="92.4895" y1="60.2741" x2="115.082" y2="30.6939" gradientUnits="userSpaceOnUse">
<stop stop-color="#FF5F1F"/>
<stop offset="1" stop-color="#FF5F1F"/>
</linearGradient>
<linearGradient id="paint33_linear_1139_60" x1="96.4348" y1="50.9958" x2="96.4348" y2="61.8755" gradientUnits="userSpaceOnUse">
<stop stop-color="#F3F3F3" stop-opacity="0"/>
<stop offset="0.466346" stop-color="white"/>
</linearGradient>
<linearGradient id="paint34_linear_1139_60" x1="14.26" y1="-2.5" x2="14.26" y2="5.5" gradientUnits="userSpaceOnUse">
<stop stop-color="white" stop-opacity="0"/>
<stop offset="1" stop-color="white"/>
</linearGradient>
<linearGradient id="paint35_linear_1139_60" x1="10.12" y1="-2.5" x2="10.12" y2="5.5" gradientUnits="userSpaceOnUse">
<stop stop-color="white" stop-opacity="0"/>
<stop offset="1" stop-color="white"/>
</linearGradient>
<linearGradient id="paint36_linear_1139_60" x1="7.82" y1="-2.5" x2="7.82" y2="5.5" gradientUnits="userSpaceOnUse">
<stop stop-color="white" stop-opacity="0"/>
<stop offset="1" stop-color="white"/>
</linearGradient>
<linearGradient id="paint37_linear_1139_60" x1="91.123" y1="95.4954" x2="25.45" y2="-9.9757" gradientUnits="userSpaceOnUse">
<stop stop-color="#FF5F1F"/>
<stop offset="1" stop-color="#FF5F1F"/>
</linearGradient>
<linearGradient id="paint38_linear_1139_60" x1="100.5" y1="102" x2="75.9999" y2="100.5" gradientUnits="userSpaceOnUse">
<stop stop-color="#F3F3F3" stop-opacity="0"/>
<stop offset="0.466346" stop-color="white"/>
</linearGradient>
<clipPath id="clip0_1139_60">
<rect width="137" height="112" fill="white"/>
</clipPath>
</defs>
</svg>
