<svg width="137" height="112" viewBox="0 0 137 112" fill="none" xmlns="http://www.w3.org/2000/svg">
<g clip-path="url(#clip0_1139_136)">
<path d="M114.158 1H9.84188C4.95864 1 1 4.59909 1 9.0388V70.9612C1 75.4009 4.95864 79 9.84188 79H114.158C119.041 79 123 75.4009 123 70.9612V9.0388C123 4.59909 119.041 1 114.158 1Z" fill="url(#paint0_linear_1139_136)"/>
<path d="M106.738 0.5L107.188 0.510742C111.806 0.738609 115.5 4.4581 115.5 9.03906V70.9609C115.5 75.6895 111.564 79.4998 106.738 79.5H9.26172C4.43572 79.4998 0.5 75.6895 0.5 70.9609V9.03906C0.5 4.31051 4.43572 0.500192 9.26172 0.5H106.738Z" fill="url(#paint1_linear_1139_136)" stroke="white" stroke-miterlimit="10"/>
<g clip-path="url(#clip1_1139_136)">
<path d="M43.2773 42.0212C43.2773 30.2713 53.0028 20.7461 64.9997 20.7461C76.9967 20.7461 86.7221 30.2713 86.7221 42.0212" stroke="url(#paint2_linear_1139_136)" stroke-miterlimit="10"/>
<path d="M38.001 20.7461H91.9988" stroke="url(#paint3_linear_1139_136)" stroke-miterlimit="10"/>
<path d="M86.7109 35.2104C89.8646 35.2107 92.4209 37.7677 92.4209 40.9214C92.4207 44.0749 89.8644 46.6311 86.7109 46.6313C83.5572 46.6313 81.0002 44.075 81 40.9214C81 37.7676 83.5571 35.2104 86.7109 35.2104Z" fill="url(#paint4_linear_1139_136)" stroke="url(#paint5_linear_1139_136)" stroke-miterlimit="10"/>
<path d="M43.29 35.2104C46.4437 35.2107 49 37.7677 49 40.9214C48.9998 44.0749 46.4435 46.6311 43.29 46.6313C40.1363 46.6313 37.5793 44.075 37.5791 40.9214C37.5791 37.7676 40.1362 35.2104 43.29 35.2104Z" fill="url(#paint6_linear_1139_136)" stroke="url(#paint7_linear_1139_136)" stroke-miterlimit="10"/>
<path d="M65.8691 15.2368C69.0228 15.237 71.5791 17.7941 71.5791 20.9478C71.5789 24.1013 69.0226 26.6575 65.8691 26.6577C62.7154 26.6577 60.1584 24.1014 60.1582 20.9478C60.1582 17.7939 62.7153 15.2368 65.8691 15.2368Z" fill="url(#paint8_linear_1139_136)" stroke="url(#paint9_linear_1139_136)" stroke-miterlimit="10"/>
<path d="M41.9551 13.5454C43.3358 13.5454 44.4551 14.6647 44.4551 16.0454V23.7095C44.4551 25.0902 43.3358 26.2095 41.9551 26.2095H34.0459C32.6652 26.2095 31.5459 25.0902 31.5459 23.7095V16.0454C31.5459 14.6647 32.6652 13.5454 34.0459 13.5454H41.9551Z" fill="url(#paint10_linear_1139_136)" stroke="white" stroke-miterlimit="10"/>
<path d="M95.9531 13.5454C97.3338 13.5454 98.4531 14.6647 98.4531 16.0454V23.7095C98.4531 25.0902 97.3338 26.2095 95.9531 26.2095H88.0439C86.6632 26.2095 85.5439 25.0902 85.5439 23.7095V16.0454C85.5439 14.6647 86.6632 13.5454 88.0439 13.5454H95.9531Z" fill="url(#paint11_linear_1139_136)" stroke="white" stroke-miterlimit="10"/>
</g>
<path d="M21 8L21 69" stroke="url(#paint12_linear_1139_136)" stroke-miterlimit="10"/>
<rect x="8.5" y="17.5" width="6" height="5" fill="url(#paint13_linear_1139_136)" stroke="url(#paint14_linear_1139_136)" stroke-miterlimit="10"/>
<rect x="8.5" y="26.5" width="6" height="5" fill="url(#paint15_linear_1139_136)" stroke="white" stroke-miterlimit="10"/>
<path d="M79 80.106H48V105.106H79V80.106Z" fill="url(#paint16_linear_1139_136)"/>
<path d="M73.5 104.5H37.5C36.6716 104.5 36 105.172 36 106V109.5C36 110.328 36.6716 111 37.5 111H73.5C74.3284 111 75 110.328 75 109.5V106C75 105.172 74.3284 104.5 73.5 104.5Z" fill="url(#paint17_linear_1139_136)"/>
<path d="M84.5 79.5V108C84.4999 109.933 82.9329 111.5 81 111.5H72.5C71.3955 111.5 70.5001 110.604 70.5 109.5V106.106C70.5 105.002 71.3954 104.106 72.5 104.106H76.5771C77.1293 104.106 77.5769 103.659 77.5771 103.106V79.5H84.5Z" fill="url(#paint18_linear_1139_136)" stroke="white" stroke-miterlimit="10"/>
<path d="M63.7715 45.3203L65.6553 50.208L65.6592 50.2188L65.6631 50.2285L65.667 50.2373L66 51.1543C66.024 51.08 66.0508 51.0062 66.0811 50.9336L68.3867 45.3887L68.5781 44.9277L69.04 45.1191L71.6982 46.2227L72.1602 46.4141L71.9678 46.876L69.6631 52.4209C69.0401 53.9229 67.583 54.8779 65.958 54.8574V54.8584C65.4405 54.8527 64.9406 54.7463 64.4834 54.5557V54.5566C63.5641 54.1757 62.8109 53.4564 62.3926 52.5156L62.3135 52.3242L60.1514 46.7129L59.9717 46.2461L60.4385 46.0664L63.126 45.0332L63.5918 44.8535L63.7715 45.3203Z" fill="url(#paint19_linear_1139_136)" stroke="url(#paint20_linear_1139_136)" stroke-miterlimit="10"/>
<path d="M76.4326 50.9302L77.4668 53.6147L77.6465 54.0815L77.1797 54.2612L72.2783 56.147L72.2764 56.1479L72.2676 56.1519L72.2588 56.1548L71.3408 56.4878C71.4154 56.5119 71.4896 56.5385 71.5625 56.5688H71.5615L77.1104 58.8716L77.5723 59.064L77.3809 59.5259L76.2764 62.1821L76.084 62.6431L75.623 62.4517L70.0742 60.1479C68.5711 59.5255 67.6129 58.0696 67.6338 56.4448C67.6396 55.9276 67.7466 55.4281 67.9375 54.9712C68.3443 53.9914 69.1359 53.2006 70.1709 52.8032L75.7861 50.6431L76.2529 50.4634L76.4326 50.9302Z" fill="url(#paint21_linear_1139_136)" stroke="url(#paint22_linear_1139_136)" stroke-miterlimit="10"/>
<path d="M56.3896 50.5342L61.9355 52.8467C63.3435 53.4328 64.2713 54.7506 64.3623 56.252L64.3691 56.5537C64.3657 56.8197 64.3356 57.0809 64.2812 57.334H64.3535L64.0645 58.0264C63.656 59.0058 62.8629 59.7945 61.8271 60.1904L56.209 62.3428L55.7422 62.5215L55.5625 62.0547L54.5332 59.3682L54.3545 58.9014L54.8213 58.7227L59.7256 56.8438L59.7451 56.8359L60.6611 56.5039C60.5872 56.4799 60.5136 56.454 60.4414 56.4238L54.8965 54.1113L54.4346 53.9189L54.6279 53.458L55.7363 50.8037L55.9287 50.3428L56.3896 50.5342Z" fill="url(#paint23_linear_1139_136)" stroke="url(#paint24_linear_1139_136)" stroke-miterlimit="10"/>
<g clip-path="url(#clip2_1139_136)">
<path d="M106.61 36.8613C117.625 35.7035 125.848 46.6383 121.315 56.9062C116.591 67.6151 101.397 68.1635 95.8525 57.8613C91.1586 49.14 96.6839 37.9035 106.61 36.8613Z" fill="url(#paint25_linear_1139_136)" stroke="white" stroke-miterlimit="10"/>
<path d="M88.5454 75.4673C98.8429 62.9627 118.922 63.1549 128.707 76.1772C128.748 76.2327 128.797 76.2916 128.859 76.3667C128.917 76.4375 128.985 76.5201 129.048 76.6079C129.169 76.7746 129.321 77.0153 129.36 77.3032L129.437 77.8706H87.0757L87.3657 77.1782C87.6355 76.5323 88.1831 75.9083 88.5444 75.4683L88.5454 75.4673Z" fill="url(#paint26_linear_1139_136)" stroke="white" stroke-miterlimit="10"/>
<path d="M131.979 77.0088C135.531 77.009 137.87 80.0592 137.45 83.6367L137.401 83.9844L133.57 107.097C133.11 109.872 130.382 111.998 127.484 111.999V112H89.208C86.3102 112 83.5793 109.874 83.1191 107.097L79.2891 83.9844C78.6718 80.2592 81.0456 77.0091 84.7129 77.0088H131.979Z" fill="url(#paint27_linear_1139_136)" stroke="white" stroke-miterlimit="10"/>
<path d="M105.766 86.3481L107.658 91.2827L107.663 91.2944L107.667 91.3032L107.67 91.312L108.007 92.2437C108.031 92.1666 108.06 92.0904 108.091 92.0151L110.407 86.4175L110.6 85.9546L111.062 86.147L113.733 87.2612L114.193 87.4536L114.003 87.9136L111.687 93.5122C111.061 95.0261 109.598 95.9909 107.965 95.9702V95.9712C107.444 95.9654 106.941 95.8582 106.481 95.6655L104.189 94.7036H105.105C104.811 94.386 104.566 94.0178 104.384 93.6069L104.305 93.4146L102.132 87.7495L101.953 87.2837L102.418 87.104L105.118 86.0601L105.586 85.8794L105.766 86.3481Z" fill="url(#paint28_linear_1139_136)" stroke="url(#paint29_linear_1139_136)" stroke-miterlimit="10"/>
<path d="M118.489 92.0122L119.528 94.7222L119.707 95.188L119.241 95.3677L114.316 97.272L114.314 97.2729L114.306 97.2759L114.296 97.2798L113.36 97.6206C113.44 97.646 113.519 97.675 113.597 97.7075L119.173 100.033L119.633 100.225L119.442 100.685L118.332 103.367L118.141 103.831L117.678 103.637L112.102 101.312C110.591 100.684 109.63 99.2139 109.651 97.5767C109.657 97.0555 109.764 96.5519 109.956 96.0913C110.364 95.1041 111.159 94.3068 112.198 93.9058L117.842 91.7241L118.31 91.5435L118.489 92.0122Z" fill="url(#paint30_linear_1139_136)" stroke="url(#paint31_linear_1139_136)" stroke-miterlimit="10"/>
<path d="M98.3486 91.6147L103.922 93.9487C105.43 94.5795 106.387 96.0488 106.364 97.6851L106.365 97.686C106.362 97.9567 106.33 98.2225 106.274 98.48H106.347L106.06 99.1714C105.675 100.097 104.952 100.854 104.006 101.275L103.813 101.354L98.167 103.527L97.6982 103.707L97.5195 103.239L96.4854 100.526L96.3076 100.06L96.7725 99.8813L101.69 97.9888L101.701 97.9849L101.721 97.9771L102.656 97.6362C102.577 97.6108 102.498 97.5828 102.421 97.5503V97.5513L96.8486 95.2163L96.3887 95.0239L96.5801 94.564L97.6934 91.8833L97.8857 91.4204L98.3486 91.6147Z" fill="url(#paint32_linear_1139_136)" stroke="url(#paint33_linear_1139_136)" stroke-miterlimit="10"/>
</g>
</g>
<defs>
<linearGradient id="paint0_linear_1139_136" x1="19" y1="-59.7763" x2="121.085" y2="93.3322" gradientUnits="userSpaceOnUse">
<stop stop-color="white" stop-opacity="0"/>
<stop offset="0.190127" stop-color="white" stop-opacity="0"/>
<stop offset="1" stop-color="#D9D9DC"/>
</linearGradient>
<linearGradient id="paint1_linear_1139_136" x1="-24.5" y1="-36.6712" x2="89.4945" y2="71.9812" gradientUnits="userSpaceOnUse">
<stop stop-color="white"/>
<stop offset="0.437462" stop-color="#F9F9F9"/>
<stop offset="1" stop-color="#D9D9DC"/>
</linearGradient>
<linearGradient id="paint2_linear_1139_136" x1="49.2016" y1="20.7461" x2="47.5002" y2="50.5" gradientUnits="userSpaceOnUse">
<stop stop-color="white"/>
<stop offset="0.817308" stop-color="white" stop-opacity="0"/>
</linearGradient>
<linearGradient id="paint3_linear_1139_136" x1="45.3643" y1="20.7461" x2="45.3643" y2="21.4303" gradientUnits="userSpaceOnUse">
<stop stop-color="white"/>
<stop offset="0.817308" stop-color="white" stop-opacity="0"/>
</linearGradient>
<linearGradient id="paint4_linear_1139_136" x1="82.0752" y1="44.5976" x2="102.204" y2="12.2701" gradientUnits="userSpaceOnUse">
<stop stop-color="#FF5F1F"/>
<stop offset="1" stop-color="#FF5F1F"/>
</linearGradient>
<linearGradient id="paint5_linear_1139_136" x1="86.7105" y1="35.7104" x2="86.7105" y2="46.1315" gradientUnits="userSpaceOnUse">
<stop stop-color="#F3F3F3" stop-opacity="0"/>
<stop offset="0.466346" stop-color="white"/>
</linearGradient>
<linearGradient id="paint6_linear_1139_136" x1="38.6543" y1="44.5976" x2="58.7831" y2="12.2701" gradientUnits="userSpaceOnUse">
<stop stop-color="#FF5F1F"/>
<stop offset="1" stop-color="#FF5F1F"/>
</linearGradient>
<linearGradient id="paint7_linear_1139_136" x1="43.2896" y1="35.7104" x2="43.2896" y2="46.1315" gradientUnits="userSpaceOnUse">
<stop stop-color="#F3F3F3" stop-opacity="0"/>
<stop offset="0.466346" stop-color="white"/>
</linearGradient>
<linearGradient id="paint8_linear_1139_136" x1="61.2334" y1="24.624" x2="81.3622" y2="-7.70351" gradientUnits="userSpaceOnUse">
<stop stop-color="#FF5F1F"/>
<stop offset="1" stop-color="#FF5F1F"/>
</linearGradient>
<linearGradient id="paint9_linear_1139_136" x1="65.8687" y1="15.7368" x2="65.8687" y2="26.1579" gradientUnits="userSpaceOnUse">
<stop stop-color="#F3F3F3" stop-opacity="0"/>
<stop offset="0.466346" stop-color="white"/>
</linearGradient>
<linearGradient id="paint10_linear_1139_136" x1="29.3819" y1="8.41196" x2="45.1284" y2="18.8969" gradientUnits="userSpaceOnUse">
<stop stop-color="white"/>
<stop offset="0.437462" stop-color="#F9F9F9"/>
<stop offset="1" stop-color="#D9D9DC"/>
</linearGradient>
<linearGradient id="paint11_linear_1139_136" x1="83.38" y1="8.41196" x2="99.1264" y2="18.8969" gradientUnits="userSpaceOnUse">
<stop stop-color="white"/>
<stop offset="0.437462" stop-color="#F9F9F9"/>
<stop offset="1" stop-color="#D9D9DC"/>
</linearGradient>
<linearGradient id="paint12_linear_1139_136" x1="21" y1="16.3182" x2="20.3158" y2="16.3182" gradientUnits="userSpaceOnUse">
<stop stop-color="white"/>
<stop offset="0.817308" stop-color="white" stop-opacity="0"/>
</linearGradient>
<linearGradient id="paint13_linear_1139_136" x1="9.27597" y1="21.4112" x2="16.1481" y2="7.61512" gradientUnits="userSpaceOnUse">
<stop stop-color="#FF5F1F"/>
<stop offset="1" stop-color="#FF5F1F"/>
</linearGradient>
<linearGradient id="paint14_linear_1139_136" x1="11.5" y1="18" x2="11.5" y2="22" gradientUnits="userSpaceOnUse">
<stop stop-color="#F3F3F3" stop-opacity="0"/>
<stop offset="0.466346" stop-color="white"/>
</linearGradient>
<linearGradient id="paint15_linear_1139_136" x1="7.88158" y1="25.0681" x2="13.6141" y2="29.7412" gradientUnits="userSpaceOnUse">
<stop stop-color="white"/>
<stop offset="0.437462" stop-color="#F9F9F9"/>
<stop offset="1" stop-color="#D9D9DC"/>
</linearGradient>
<linearGradient id="paint16_linear_1139_136" x1="54" y1="110.662" x2="51.0272" y2="82.2238" gradientUnits="userSpaceOnUse">
<stop stop-color="white" stop-opacity="0"/>
<stop offset="0.178835" stop-color="white" stop-opacity="0"/>
<stop offset="1" stop-color="#D9D9DC"/>
</linearGradient>
<linearGradient id="paint17_linear_1139_136" x1="56" y1="53.2377" x2="58.5228" y2="120.543" gradientUnits="userSpaceOnUse">
<stop stop-color="white" stop-opacity="0"/>
<stop offset="0.465494" stop-color="white" stop-opacity="0"/>
<stop offset="1" stop-color="#D9D9DC"/>
</linearGradient>
<linearGradient id="paint18_linear_1139_136" x1="81" y1="138.662" x2="56.868" y2="90.4118" gradientUnits="userSpaceOnUse">
<stop stop-color="white"/>
<stop offset="0.27" stop-color="white"/>
<stop offset="1" stop-color="#D9D9DC"/>
</linearGradient>
<linearGradient id="paint19_linear_1139_136" x1="61.2191" y1="53.0551" x2="76.5938" y2="22.7073" gradientUnits="userSpaceOnUse">
<stop stop-color="#FF5F1F"/>
<stop offset="1" stop-color="#FF5F1F"/>
</linearGradient>
<linearGradient id="paint20_linear_1139_136" x1="66.0623" y1="45.5" x2="66.0623" y2="54.3591" gradientUnits="userSpaceOnUse">
<stop stop-color="#F3F3F3" stop-opacity="0"/>
<stop offset="0.466346" stop-color="white"/>
</linearGradient>
<linearGradient id="paint21_linear_1139_136" x1="68.6231" y1="60.3884" x2="91.2182" y2="30.8167" gradientUnits="userSpaceOnUse">
<stop stop-color="#FF5F1F"/>
<stop offset="1" stop-color="#FF5F1F"/>
</linearGradient>
<linearGradient id="paint22_linear_1139_136" x1="72.5668" y1="51.1099" x2="72.5668" y2="61.9898" gradientUnits="userSpaceOnUse">
<stop stop-color="#F3F3F3" stop-opacity="0"/>
<stop offset="0.466346" stop-color="white"/>
</linearGradient>
<linearGradient id="paint23_linear_1139_136" x1="55.4895" y1="60.2744" x2="78.0816" y2="30.6941" gradientUnits="userSpaceOnUse">
<stop stop-color="#FF5F1F"/>
<stop offset="1" stop-color="#FF5F1F"/>
</linearGradient>
<linearGradient id="paint24_linear_1139_136" x1="59.4348" y1="50.9961" x2="59.4348" y2="61.8757" gradientUnits="userSpaceOnUse">
<stop stop-color="#F3F3F3" stop-opacity="0"/>
<stop offset="0.466346" stop-color="white"/>
</linearGradient>
<linearGradient id="paint25_linear_1139_136" x1="88.5209" y1="23.9963" x2="125.301" y2="47.9221" gradientUnits="userSpaceOnUse">
<stop stop-color="white"/>
<stop offset="0.437462" stop-color="#F9F9F9"/>
<stop offset="1" stop-color="#D9D9DC"/>
</linearGradient>
<linearGradient id="paint26_linear_1139_136" x1="78.6472" y1="61.6154" x2="89.3093" y2="88.4729" gradientUnits="userSpaceOnUse">
<stop stop-color="white"/>
<stop offset="0.437462" stop-color="#F9F9F9"/>
<stop offset="1" stop-color="#D9D9DC"/>
</linearGradient>
<linearGradient id="paint27_linear_1139_136" x1="66.8712" y1="61.0923" x2="116.382" y2="115.531" gradientUnits="userSpaceOnUse">
<stop stop-color="white"/>
<stop offset="0.437462" stop-color="#F9F9F9"/>
<stop offset="1" stop-color="#D9D9DC"/>
</linearGradient>
<linearGradient id="paint28_linear_1139_136" x1="103.203" y1="94.1548" x2="118.768" y2="63.5729" gradientUnits="userSpaceOnUse">
<stop stop-color="#FF5F1F"/>
<stop offset="1" stop-color="#FF5F1F"/>
</linearGradient>
<linearGradient id="paint29_linear_1139_136" x1="108.07" y1="86.5269" x2="108.07" y2="95.4713" gradientUnits="userSpaceOnUse">
<stop stop-color="#F3F3F3" stop-opacity="0"/>
<stop offset="0.466346" stop-color="white"/>
</linearGradient>
<linearGradient id="paint30_linear_1139_136" x1="110.643" y1="101.559" x2="133.484" y2="71.8047" gradientUnits="userSpaceOnUse">
<stop stop-color="#FF5F1F"/>
<stop offset="1" stop-color="#FF5F1F"/>
</linearGradient>
<linearGradient id="paint31_linear_1139_136" x1="114.606" y1="92.1909" x2="114.606" y2="103.176" gradientUnits="userSpaceOnUse">
<stop stop-color="#F3F3F3" stop-opacity="0"/>
<stop offset="0.466346" stop-color="white"/>
</linearGradient>
<linearGradient id="paint32_linear_1139_136" x1="97.4441" y1="101.443" x2="120.282" y2="71.6805" gradientUnits="userSpaceOnUse">
<stop stop-color="#FF5F1F"/>
<stop offset="1" stop-color="#FF5F1F"/>
</linearGradient>
<linearGradient id="paint33_linear_1139_136" x1="101.409" y1="92.0757" x2="101.409" y2="103.06" gradientUnits="userSpaceOnUse">
<stop stop-color="#F3F3F3" stop-opacity="0"/>
<stop offset="0.466346" stop-color="white"/>
</linearGradient>
<clipPath id="clip0_1139_136">
<rect width="137" height="112" fill="white"/>
</clipPath>
<clipPath id="clip1_1139_136">
<rect width="68" height="35" fill="white" transform="translate(31 12.5)"/>
</clipPath>
<clipPath id="clip2_1139_136">
<rect width="58" height="77" fill="white" transform="translate(79 34.5)"/>
</clipPath>
</defs>
</svg>
