<svg width="136" height="111" viewBox="0 0 136 111" fill="none" xmlns="http://www.w3.org/2000/svg">
<path d="M9.8418 1.5H114.158C118.811 1.50004 122.5 4.91926 122.5 9.03906V70.9609C122.5 75.0807 118.811 78.5 114.158 78.5H9.8418C5.18888 78.5 1.5 75.0807 1.5 70.9609V9.03906C1.5 4.91926 5.18888 1.50004 9.8418 1.5Z" fill="url(#paint0_linear_1433_2322)" stroke="url(#paint1_linear_1433_2322)" stroke-miterlimit="10"/>
<path d="M9.26172 1.5H106.738C111.038 1.50019 114.5 4.88844 114.5 9.03906V70.9609C114.5 75.1116 111.038 78.4998 106.738 78.5H9.26172C4.96201 78.4998 1.5 75.1116 1.5 70.9609V9.03906C1.5 5.01809 4.7491 1.7125 8.86133 1.50977L9.26172 1.5Z" fill="url(#paint2_linear_1433_2322)" stroke="url(#paint3_linear_1433_2322)" stroke-miterlimit="10"/>
<g clip-path="url(#clip0_1433_2322)">
<path d="M21.4072 11.6777C21.6539 11.6249 21.9189 11.8182 21.9189 12.1328V24.5811C21.919 25.4093 22.5907 26.0809 23.4189 26.0811H35.8672C36.1818 26.0811 36.3751 26.3461 36.3223 26.5928C35.1089 32.2548 30.075 36.4999 24.0508 36.5C17.1194 36.5 11.5 30.8805 11.5 23.9492C11.5002 17.9249 15.745 12.8911 21.4072 11.6777Z" fill="url(#paint4_linear_1433_2322)" stroke="url(#paint5_linear_1433_2322)" stroke-miterlimit="10"/>
<path d="M27.6667 11.3226C26.7947 11.092 26 11.7966 26 12.6986V20.5C26 21.3284 26.6716 22 27.5 22H35.3015C36.2035 22 36.9081 21.2054 36.6775 20.3333C35.5161 15.9419 32.0583 12.4841 27.6667 11.3226Z" fill="url(#paint6_linear_1433_2322)" stroke="url(#paint7_linear_1433_2322)" stroke-miterlimit="10"/>
</g>
<path d="M77.5 80.106H49.5C48.6716 80.106 48 80.7775 48 81.606V103.606C48 104.434 48.6716 105.106 49.5 105.106H77.5C78.3284 105.106 79 104.434 79 103.606V81.606C79 80.7775 78.3284 80.106 77.5 80.106Z" fill="url(#paint8_linear_1433_2322)" stroke="url(#paint9_linear_1433_2322)" stroke-miterlimit="10"/>
<path d="M73.5 104.5H37.5C36.6716 104.5 36 105.172 36 106V109.5C36 110.328 36.6716 111 37.5 111H73.5C74.3284 111 75 110.328 75 109.5V106C75 105.172 74.3284 104.5 73.5 104.5Z" fill="url(#paint10_linear_1433_2322)" stroke="url(#paint11_linear_1433_2322)" stroke-miterlimit="10"/>
<path d="M78.0772 79.9998V103.106C78.0772 103.934 77.4056 104.606 76.5772 104.606H72.5C71.6716 104.606 71 105.278 71 106.106V109.5C71 110.328 71.6716 111 72.5 111H78.0772H81C82.6569 111 84 109.657 84 108V104.606V79.9998H78.0772Z" fill="url(#paint12_linear_1433_2322)" stroke="url(#paint13_linear_1433_2322)" stroke-miterlimit="10"/>
<path d="M77.2952 24H65.7048C64.211 24 63 25.3738 63 27.0685V65.9315C63 67.6262 64.211 69 65.7048 69H77.2952C78.789 69 80 67.6262 80 65.9315V27.0685C80 25.3738 78.789 24 77.2952 24Z" fill="url(#paint14_linear_1433_2322)" stroke="url(#paint15_linear_1433_2322)" stroke-miterlimit="10"/>
<path d="M52.2952 43H40.7048C39.211 43 38 43.7937 38 44.7729V67.2271C38 68.2063 39.211 69 40.7048 69H52.2952C53.789 69 55 68.2063 55 67.2271V44.7729C55 43.7937 53.789 43 52.2952 43Z" fill="url(#paint16_linear_1433_2322)" stroke="url(#paint17_linear_1433_2322)" stroke-miterlimit="10"/>
<path d="M101.97 11H90.3796C88.8858 11 87.6748 12.3673 87.6748 14.0539V65.9461C87.6748 67.6327 88.8858 69 90.3796 69H101.97C103.464 69 104.675 67.6327 104.675 65.9461V14.0539C104.675 12.3673 103.464 11 101.97 11Z" fill="url(#paint18_linear_1433_2322)" stroke="url(#paint19_linear_1433_2322)" stroke-miterlimit="10"/>
<path d="M62.7969 65.2656C64.391 40.3669 95.1487 28.6754 112.93 46.3818C123.11 56.5203 124.541 72.911 115.96 84.5312L115.704 84.877L116.009 85.1816L135.195 104.393L129.36 110.292L110.146 91.043L109.849 90.7461L109.505 90.9863C107.18 92.6087 104.686 93.9983 102.027 94.9414C84.8878 101.022 66.5325 90.1812 63.2695 72.5137L62.7988 69.2295C62.8275 68.562 62.8077 67.8826 62.79 67.2285C62.7717 66.5504 62.7565 65.8971 62.7969 65.2656Z" fill="url(#paint20_linear_1433_2322)" stroke="url(#paint21_linear_1433_2322)" stroke-miterlimit="10"/>
<path d="M113.999 68.3903C113.999 68.3908 114 68.3905 114 68.3898C114 67.2936 113.937 66.2612 113.814 65.3354C113.751 64.858 113.335 64.5151 112.854 64.5151H93.423C92.8707 64.5151 92.423 64.9628 92.423 65.5151V69.9357C92.423 70.4882 92.871 70.936 93.4235 70.9357L106.362 70.929C106.966 70.9287 107.435 71.4611 107.325 72.055C106.775 75.0273 105.67 77.2603 104.082 78.8784C101.882 81.1172 98.45 83.5789 92.423 83.5789C83.1292 83.5789 75.8622 75.958 75.8622 66.5C75.8622 57.042 83.1292 49.4211 92.4205 49.4211C96.9984 49.4211 100.448 51.0916 103.069 53.3454C103.484 53.7019 104.108 53.6943 104.491 53.3043L107.548 50.1926C107.937 49.7972 107.931 49.1596 107.52 48.7881C103.839 45.4657 99.0213 43 92.4281 43C79.7019 43 69 53.549 69 66.5C69 79.451 79.7019 90 92.4281 90C99.2954 90 104.477 87.7067 108.533 83.4079C112.703 79.1639 113.997 73.2076 113.997 68.3908C113.997 68.3902 113.998 68.3898 113.999 68.3903Z" fill="url(#paint22_linear_1433_2322)" stroke="url(#paint23_linear_1433_2322)" stroke-miterlimit="10"/>
<defs>
<linearGradient id="paint0_linear_1433_2322" x1="38.6874" y1="8.74393" x2="86.1275" y2="85.6918" gradientUnits="userSpaceOnUse">
<stop stop-color="#222227"/>
<stop offset="0.73" stop-color="#121214" stop-opacity="0"/>
<stop offset="1" stop-color="#121214" stop-opacity="0"/>
</linearGradient>
<linearGradient id="paint1_linear_1433_2322" x1="32.0351" y1="-8" x2="90.3469" y2="94.9901" gradientUnits="userSpaceOnUse">
<stop stop-color="#C0C0CA"/>
<stop offset="1" stop-opacity="0"/>
</linearGradient>
<linearGradient id="paint2_linear_1433_2322" x1="36.2161" y1="8.74393" x2="85.0322" y2="82.7315" gradientUnits="userSpaceOnUse">
<stop stop-color="#222227"/>
<stop offset="0.73" stop-color="#121214" stop-opacity="0"/>
<stop offset="1" stop-color="#121214" stop-opacity="0"/>
</linearGradient>
<linearGradient id="paint3_linear_1433_2322" x1="30" y1="-8" x2="90.2781" y2="91.4818" gradientUnits="userSpaceOnUse">
<stop stop-color="#C0C0CA"/>
<stop offset="1" stop-opacity="0"/>
</linearGradient>
<linearGradient id="paint4_linear_1433_2322" x1="19.0318" y1="13.5813" x2="36.7194" y2="31.9237" gradientUnits="userSpaceOnUse">
<stop stop-color="#222227"/>
<stop offset="0.73" stop-color="#121214"/>
<stop offset="1" stop-color="#121214"/>
</linearGradient>
<linearGradient id="paint5_linear_1433_2322" x1="17.614" y1="8" x2="40.1153" y2="33.4086" gradientUnits="userSpaceOnUse">
<stop stop-color="#C0C0CA"/>
<stop offset="1" stop-opacity="0"/>
</linearGradient>
<linearGradient id="paint6_linear_1433_2322" x1="31.5001" y1="10.0388" x2="31.5001" y2="33" gradientUnits="userSpaceOnUse">
<stop stop-color="#FF5F1F"/>
<stop offset="0.54" stop-color="#531F0A" stop-opacity="0"/>
<stop offset="1" stop-color="#121214" stop-opacity="0"/>
</linearGradient>
<linearGradient id="paint7_linear_1433_2322" x1="31.5679" y1="39.6" x2="31.5679" y2="9.35" gradientUnits="userSpaceOnUse">
<stop stop-opacity="0"/>
<stop offset="0.504808" stop-color="#531F0A" stop-opacity="0"/>
<stop offset="0.850962" stop-color="#FF9255"/>
</linearGradient>
<linearGradient id="paint8_linear_1433_2322" x1="65.2885" y1="105.326" x2="65.2765" y2="78.8257" gradientUnits="userSpaceOnUse">
<stop stop-color="#222227"/>
<stop offset="0.73" stop-color="#121214" stop-opacity="0"/>
<stop offset="1" stop-color="#121214" stop-opacity="0"/>
</linearGradient>
<linearGradient id="paint9_linear_1433_2322" x1="57.5385" y1="105.326" x2="57.2353" y2="80.3221" gradientUnits="userSpaceOnUse">
<stop stop-color="#94949B"/>
<stop offset="1" stop-opacity="0"/>
</linearGradient>
<linearGradient id="paint10_linear_1433_2322" x1="54.6256" y1="105.747" x2="54.633" y2="110.812" gradientUnits="userSpaceOnUse">
<stop offset="0.0480769" stop-color="#222227"/>
<stop offset="0.533654" stop-color="#121214"/>
<stop offset="1" stop-color="#121214"/>
</linearGradient>
<linearGradient id="paint11_linear_1433_2322" x1="62.5417" y1="136.244" x2="60.7168" y2="88.5147" gradientUnits="userSpaceOnUse">
<stop stop-opacity="0"/>
<stop offset="1" stop-color="#94949B"/>
</linearGradient>
<linearGradient id="paint12_linear_1433_2322" x1="80.3747" y1="113.929" x2="52.075" y2="73.117" gradientUnits="userSpaceOnUse">
<stop stop-color="#222227"/>
<stop offset="0.73" stop-color="#121214"/>
<stop offset="1" stop-color="#121214"/>
</linearGradient>
<linearGradient id="paint13_linear_1433_2322" x1="74.0023" y1="137.903" x2="95.094" y2="85.302" gradientUnits="userSpaceOnUse">
<stop stop-color="#94949B"/>
<stop offset="1" stop-color="#121214"/>
</linearGradient>
<linearGradient id="paint14_linear_1433_2322" x1="71.4998" y1="21.4429" x2="71.4998" y2="73.1931" gradientUnits="userSpaceOnUse">
<stop stop-color="#FF5F1F"/>
<stop offset="0.65" stop-color="#531F0A" stop-opacity="0"/>
<stop offset="1" stop-color="#121214" stop-opacity="0"/>
</linearGradient>
<linearGradient id="paint15_linear_1433_2322" x1="75.0847" y1="69.5626" x2="65.9368" y2="23.8337" gradientUnits="userSpaceOnUse">
<stop stop-opacity="0"/>
<stop offset="0.27" stop-color="#531F0A" stop-opacity="0"/>
<stop offset="0.64" stop-color="#FF9255"/>
</linearGradient>
<linearGradient id="paint16_linear_1433_2322" x1="46.4998" y1="41.5225" x2="46.4998" y2="71.4227" gradientUnits="userSpaceOnUse">
<stop stop-color="#FF5F1F"/>
<stop offset="0.65" stop-color="#531F0A" stop-opacity="0"/>
<stop offset="1" stop-color="#121214" stop-opacity="0"/>
</linearGradient>
<linearGradient id="paint17_linear_1433_2322" x1="50.0847" y1="69.325" x2="46.9505" y2="42.2088" gradientUnits="userSpaceOnUse">
<stop stop-opacity="0"/>
<stop offset="0.27" stop-color="#531F0A" stop-opacity="0"/>
<stop offset="0.64" stop-color="#FF9255"/>
</linearGradient>
<linearGradient id="paint18_linear_1433_2322" x1="96.175" y1="5.93212" x2="96.175" y2="70.5725" gradientUnits="userSpaceOnUse">
<stop stop-color="#FF5F1F"/>
<stop offset="0.54" stop-color="#531F0A" stop-opacity="0"/>
<stop offset="1" stop-color="#121214" stop-opacity="0"/>
</linearGradient>
<linearGradient id="paint19_linear_1433_2322" x1="100.76" y1="69.3602" x2="89.165" y2="11.122" gradientUnits="userSpaceOnUse">
<stop stop-opacity="0"/>
<stop offset="0.504808" stop-color="#531F0A" stop-opacity="0"/>
<stop offset="0.850962" stop-color="#FF9255"/>
</linearGradient>
<linearGradient id="paint20_linear_1433_2322" x1="85.0166" y1="44.6767" x2="135.054" y2="96.6185" gradientUnits="userSpaceOnUse">
<stop stop-color="#222227"/>
<stop offset="0.73" stop-color="#121214"/>
<stop offset="1" stop-color="#121214"/>
</linearGradient>
<linearGradient id="paint21_linear_1433_2322" x1="81.0018" y1="28.8869" x2="180.087" y2="125.536" gradientUnits="userSpaceOnUse">
<stop stop-color="#C0C0CA"/>
<stop offset="1" stop-opacity="0"/>
</linearGradient>
<linearGradient id="paint22_linear_1433_2322" x1="71.4837" y1="83.0821" x2="163.954" y2="-59.1086" gradientUnits="userSpaceOnUse">
<stop stop-color="#FF5F1F"/>
<stop offset="0.65" stop-color="#531F0A" stop-opacity="0"/>
<stop offset="1" stop-opacity="0"/>
</linearGradient>
<linearGradient id="paint23_linear_1433_2322" x1="75.1603" y1="42.9271" x2="75.1603" y2="123.268" gradientUnits="userSpaceOnUse">
<stop offset="0.105769" stop-color="#FF9255"/>
<stop offset="0.504808" stop-color="#531F0A" stop-opacity="0"/>
<stop offset="1" stop-opacity="0"/>
</linearGradient>
<clipPath id="clip0_1433_2322">
<rect width="34" height="34" fill="white" transform="translate(11 11)"/>
</clipPath>
</defs>
</svg>
